G04 #@! TF.FileFunction,Legend,Top*
%FSLAX46Y46*%
G04 Gerber Fmt 4.6, Leading zero omitted, Abs format (unit mm)*
G04 Created by KiCad (PCBNEW 0.201508100901+6080~28~ubuntu14.04.1-product) date Tue 11 Aug 2015 03:56:28 PM EDT*
%MOMM*%
G01*
G04 APERTURE LIST*
%ADD10C,0.100000*%
%ADD11C,0.508000*%
%ADD12C,0.190500*%
%ADD13C,0.381000*%
%ADD14C,0.635000*%
%ADD15C,0.228600*%
%ADD16C,0.254000*%
%ADD17R,1.590040X2.667000*%
%ADD18O,2.540000X1.854200*%
%ADD19R,2.540000X1.854200*%
%ADD20O,1.854200X2.540000*%
%ADD21R,1.854200X2.540000*%
%ADD22O,2.032000X1.524000*%
%ADD23O,5.080000X3.048000*%
%ADD24O,1.524000X2.032000*%
%ADD25C,3.937000*%
%ADD26O,1.524000X2.540000*%
%ADD27O,2.540000X1.524000*%
%ADD28C,1.930400*%
%ADD29O,4.572000X3.556000*%
%ADD30O,4.064000X5.080000*%
%ADD31O,5.080000X3.556000*%
%ADD32R,1.498600X2.997200*%
%ADD33R,1.016000X4.495800*%
%ADD34O,4.648200X3.378200*%
G04 APERTURE END LIST*
D10*
D11*
X113314238Y-93157523D02*
X111282238Y-93157523D01*
X111282238Y-91802857D02*
X111282238Y-91415809D01*
X111379000Y-91222285D01*
X111572524Y-91028762D01*
X111959571Y-90932000D01*
X112636905Y-90932000D01*
X113023952Y-91028762D01*
X113217476Y-91222285D01*
X113314238Y-91415809D01*
X113314238Y-91802857D01*
X113217476Y-91996381D01*
X113023952Y-92189904D01*
X112636905Y-92286666D01*
X111959571Y-92286666D01*
X111572524Y-92189904D01*
X111379000Y-91996381D01*
X111282238Y-91802857D01*
X111282238Y-89674095D02*
X111282238Y-89480571D01*
X111379000Y-89287047D01*
X111475762Y-89190285D01*
X111669286Y-89093523D01*
X112056333Y-88996762D01*
X112540143Y-88996762D01*
X112927190Y-89093523D01*
X113120714Y-89190285D01*
X113217476Y-89287047D01*
X113314238Y-89480571D01*
X113314238Y-89674095D01*
X113217476Y-89867619D01*
X113120714Y-89964381D01*
X112927190Y-90061142D01*
X112540143Y-90157904D01*
X112056333Y-90157904D01*
X111669286Y-90061142D01*
X111475762Y-89964381D01*
X111379000Y-89867619D01*
X111282238Y-89674095D01*
X112540143Y-88125904D02*
X112540143Y-86577714D01*
X111282238Y-85803618D02*
X111282238Y-84448952D01*
X113314238Y-85319809D01*
X145064238Y-94125142D02*
X143032238Y-94125142D01*
X143032238Y-92770476D02*
X143032238Y-92383428D01*
X143129000Y-92189904D01*
X143322524Y-91996381D01*
X143709571Y-91899619D01*
X144386905Y-91899619D01*
X144773952Y-91996381D01*
X144967476Y-92189904D01*
X145064238Y-92383428D01*
X145064238Y-92770476D01*
X144967476Y-92964000D01*
X144773952Y-93157523D01*
X144386905Y-93254285D01*
X143709571Y-93254285D01*
X143322524Y-93157523D01*
X143129000Y-92964000D01*
X143032238Y-92770476D01*
X143903095Y-90738476D02*
X143806333Y-90932000D01*
X143709571Y-91028761D01*
X143516048Y-91125523D01*
X143419286Y-91125523D01*
X143225762Y-91028761D01*
X143129000Y-90932000D01*
X143032238Y-90738476D01*
X143032238Y-90351428D01*
X143129000Y-90157904D01*
X143225762Y-90061142D01*
X143419286Y-89964381D01*
X143516048Y-89964381D01*
X143709571Y-90061142D01*
X143806333Y-90157904D01*
X143903095Y-90351428D01*
X143903095Y-90738476D01*
X143999857Y-90932000D01*
X144096619Y-91028761D01*
X144290143Y-91125523D01*
X144677190Y-91125523D01*
X144870714Y-91028761D01*
X144967476Y-90932000D01*
X145064238Y-90738476D01*
X145064238Y-90351428D01*
X144967476Y-90157904D01*
X144870714Y-90061142D01*
X144677190Y-89964381D01*
X144290143Y-89964381D01*
X144096619Y-90061142D01*
X143999857Y-90157904D01*
X143903095Y-90351428D01*
X144290143Y-89093523D02*
X144290143Y-87545333D01*
X145064238Y-85513333D02*
X145064238Y-86674475D01*
X145064238Y-86093904D02*
X143032238Y-86093904D01*
X143322524Y-86287428D01*
X143516048Y-86480952D01*
X143612810Y-86674475D01*
X143032238Y-83674856D02*
X143032238Y-84642475D01*
X143999857Y-84739237D01*
X143903095Y-84642475D01*
X143806333Y-84448952D01*
X143806333Y-83965142D01*
X143903095Y-83771618D01*
X143999857Y-83674856D01*
X144193381Y-83578095D01*
X144677190Y-83578095D01*
X144870714Y-83674856D01*
X144967476Y-83771618D01*
X145064238Y-83965142D01*
X145064238Y-84448952D01*
X144967476Y-84642475D01*
X144870714Y-84739237D01*
X145064238Y-109062761D02*
X143032238Y-109062761D01*
X143032238Y-107708095D02*
X143032238Y-107321047D01*
X143129000Y-107127523D01*
X143322524Y-106934000D01*
X143709571Y-106837238D01*
X144386905Y-106837238D01*
X144773952Y-106934000D01*
X144967476Y-107127523D01*
X145064238Y-107321047D01*
X145064238Y-107708095D01*
X144967476Y-107901619D01*
X144773952Y-108095142D01*
X144386905Y-108191904D01*
X143709571Y-108191904D01*
X143322524Y-108095142D01*
X143129000Y-107901619D01*
X143032238Y-107708095D01*
X145064238Y-104902000D02*
X145064238Y-106063142D01*
X145064238Y-105482571D02*
X143032238Y-105482571D01*
X143322524Y-105676095D01*
X143516048Y-105869619D01*
X143612810Y-106063142D01*
X143032238Y-103160285D02*
X143032238Y-103547333D01*
X143129000Y-103740857D01*
X143225762Y-103837619D01*
X143516048Y-104031142D01*
X143903095Y-104127904D01*
X144677190Y-104127904D01*
X144870714Y-104031142D01*
X144967476Y-103934381D01*
X145064238Y-103740857D01*
X145064238Y-103353809D01*
X144967476Y-103160285D01*
X144870714Y-103063523D01*
X144677190Y-102966762D01*
X144193381Y-102966762D01*
X143999857Y-103063523D01*
X143903095Y-103160285D01*
X143806333Y-103353809D01*
X143806333Y-103740857D01*
X143903095Y-103934381D01*
X143999857Y-104031142D01*
X144193381Y-104127904D01*
X144290143Y-102095904D02*
X144290143Y-100547714D01*
X143225762Y-99676856D02*
X143129000Y-99580094D01*
X143032238Y-99386571D01*
X143032238Y-98902761D01*
X143129000Y-98709237D01*
X143225762Y-98612475D01*
X143419286Y-98515714D01*
X143612810Y-98515714D01*
X143903095Y-98612475D01*
X145064238Y-99773618D01*
X145064238Y-98515714D01*
X143032238Y-97838380D02*
X143032238Y-96580476D01*
X143806333Y-97257809D01*
X143806333Y-96967523D01*
X143903095Y-96773999D01*
X143999857Y-96677237D01*
X144193381Y-96580476D01*
X144677190Y-96580476D01*
X144870714Y-96677237D01*
X144967476Y-96773999D01*
X145064238Y-96967523D01*
X145064238Y-97548095D01*
X144967476Y-97741618D01*
X144870714Y-97838380D01*
X145064238Y-123032761D02*
X143032238Y-123032761D01*
X143032238Y-121678095D02*
X143032238Y-121291047D01*
X143129000Y-121097523D01*
X143322524Y-120904000D01*
X143709571Y-120807238D01*
X144386905Y-120807238D01*
X144773952Y-120904000D01*
X144967476Y-121097523D01*
X145064238Y-121291047D01*
X145064238Y-121678095D01*
X144967476Y-121871619D01*
X144773952Y-122065142D01*
X144386905Y-122161904D01*
X143709571Y-122161904D01*
X143322524Y-122065142D01*
X143129000Y-121871619D01*
X143032238Y-121678095D01*
X143225762Y-120033142D02*
X143129000Y-119936380D01*
X143032238Y-119742857D01*
X143032238Y-119259047D01*
X143129000Y-119065523D01*
X143225762Y-118968761D01*
X143419286Y-118872000D01*
X143612810Y-118872000D01*
X143903095Y-118968761D01*
X145064238Y-120129904D01*
X145064238Y-118872000D01*
X143709571Y-117130285D02*
X145064238Y-117130285D01*
X142935476Y-117614095D02*
X144386905Y-118097904D01*
X144386905Y-116840000D01*
X144290143Y-116065904D02*
X144290143Y-114517714D01*
X143032238Y-113743618D02*
X143032238Y-112485714D01*
X143806333Y-113163047D01*
X143806333Y-112872761D01*
X143903095Y-112679237D01*
X143999857Y-112582475D01*
X144193381Y-112485714D01*
X144677190Y-112485714D01*
X144870714Y-112582475D01*
X144967476Y-112679237D01*
X145064238Y-112872761D01*
X145064238Y-113453333D01*
X144967476Y-113646856D01*
X144870714Y-113743618D01*
X145064238Y-110550476D02*
X145064238Y-111711618D01*
X145064238Y-111131047D02*
X143032238Y-111131047D01*
X143322524Y-111324571D01*
X143516048Y-111518095D01*
X143612810Y-111711618D01*
X115273667Y-107514571D02*
X115273667Y-106546952D01*
X115854238Y-107708095D02*
X113822238Y-107030762D01*
X115854238Y-106353429D01*
X114693095Y-105385810D02*
X114596333Y-105579334D01*
X114499571Y-105676095D01*
X114306048Y-105772857D01*
X114209286Y-105772857D01*
X114015762Y-105676095D01*
X113919000Y-105579334D01*
X113822238Y-105385810D01*
X113822238Y-104998762D01*
X113919000Y-104805238D01*
X114015762Y-104708476D01*
X114209286Y-104611715D01*
X114306048Y-104611715D01*
X114499571Y-104708476D01*
X114596333Y-104805238D01*
X114693095Y-104998762D01*
X114693095Y-105385810D01*
X114789857Y-105579334D01*
X114886619Y-105676095D01*
X115080143Y-105772857D01*
X115467190Y-105772857D01*
X115660714Y-105676095D01*
X115757476Y-105579334D01*
X115854238Y-105385810D01*
X115854238Y-104998762D01*
X115757476Y-104805238D01*
X115660714Y-104708476D01*
X115467190Y-104611715D01*
X115080143Y-104611715D01*
X114886619Y-104708476D01*
X114789857Y-104805238D01*
X114693095Y-104998762D01*
X115080143Y-103740857D02*
X115080143Y-102192667D01*
X115854238Y-100160667D02*
X115854238Y-101321809D01*
X115854238Y-100741238D02*
X113822238Y-100741238D01*
X114112524Y-100934762D01*
X114306048Y-101128286D01*
X114402810Y-101321809D01*
X113822238Y-98322190D02*
X113822238Y-99289809D01*
X114789857Y-99386571D01*
X114693095Y-99289809D01*
X114596333Y-99096286D01*
X114596333Y-98612476D01*
X114693095Y-98418952D01*
X114789857Y-98322190D01*
X114983381Y-98225429D01*
X115467190Y-98225429D01*
X115660714Y-98322190D01*
X115757476Y-98418952D01*
X115854238Y-98612476D01*
X115854238Y-99096286D01*
X115757476Y-99289809D01*
X115660714Y-99386571D01*
X115273667Y-120516952D02*
X115273667Y-119549333D01*
X115854238Y-120710476D02*
X113822238Y-120033143D01*
X115854238Y-119355810D01*
X113822238Y-118291429D02*
X113822238Y-118097905D01*
X113919000Y-117904381D01*
X114015762Y-117807619D01*
X114209286Y-117710857D01*
X114596333Y-117614096D01*
X115080143Y-117614096D01*
X115467190Y-117710857D01*
X115660714Y-117807619D01*
X115757476Y-117904381D01*
X115854238Y-118097905D01*
X115854238Y-118291429D01*
X115757476Y-118484953D01*
X115660714Y-118581715D01*
X115467190Y-118678476D01*
X115080143Y-118775238D01*
X114596333Y-118775238D01*
X114209286Y-118678476D01*
X114015762Y-118581715D01*
X113919000Y-118484953D01*
X113822238Y-118291429D01*
X115080143Y-116743238D02*
X115080143Y-115195048D01*
X113822238Y-114420952D02*
X113822238Y-113066286D01*
X115854238Y-113937143D01*
D12*
X196505286Y-107732285D02*
X196469000Y-107695999D01*
X196432714Y-107623428D01*
X196432714Y-107441999D01*
X196469000Y-107369428D01*
X196505286Y-107333142D01*
X196577857Y-107296857D01*
X196650429Y-107296857D01*
X196759286Y-107333142D01*
X197194714Y-107768571D01*
X197194714Y-107296857D01*
X197122143Y-106970285D02*
X197158429Y-106934000D01*
X197194714Y-106970285D01*
X197158429Y-107006571D01*
X197122143Y-106970285D01*
X197194714Y-106970285D01*
X197194714Y-106208286D02*
X197194714Y-106643714D01*
X197194714Y-106426000D02*
X196432714Y-106426000D01*
X196541571Y-106498571D01*
X196614143Y-106571143D01*
X196650429Y-106643714D01*
X197194714Y-105954286D02*
X196686714Y-105555143D01*
X196686714Y-105954286D02*
X197194714Y-105555143D01*
X196432714Y-104902000D02*
X196432714Y-105264857D01*
X196795571Y-105301143D01*
X196759286Y-105264857D01*
X196723000Y-105192286D01*
X196723000Y-105010857D01*
X196759286Y-104938286D01*
X196795571Y-104902000D01*
X196868143Y-104865715D01*
X197049571Y-104865715D01*
X197122143Y-104902000D01*
X197158429Y-104938286D01*
X197194714Y-105010857D01*
X197194714Y-105192286D01*
X197158429Y-105264857D01*
X197122143Y-105301143D01*
X197122143Y-104539143D02*
X197158429Y-104502858D01*
X197194714Y-104539143D01*
X197158429Y-104575429D01*
X197122143Y-104539143D01*
X197194714Y-104539143D01*
X196432714Y-103813429D02*
X196432714Y-104176286D01*
X196795571Y-104212572D01*
X196759286Y-104176286D01*
X196723000Y-104103715D01*
X196723000Y-103922286D01*
X196759286Y-103849715D01*
X196795571Y-103813429D01*
X196868143Y-103777144D01*
X197049571Y-103777144D01*
X197122143Y-103813429D01*
X197158429Y-103849715D01*
X197194714Y-103922286D01*
X197194714Y-104103715D01*
X197158429Y-104176286D01*
X197122143Y-104212572D01*
X197122143Y-102434573D02*
X197158429Y-102470859D01*
X197194714Y-102579716D01*
X197194714Y-102652287D01*
X197158429Y-102761144D01*
X197085857Y-102833716D01*
X197013286Y-102870001D01*
X196868143Y-102906287D01*
X196759286Y-102906287D01*
X196614143Y-102870001D01*
X196541571Y-102833716D01*
X196469000Y-102761144D01*
X196432714Y-102652287D01*
X196432714Y-102579716D01*
X196469000Y-102470859D01*
X196505286Y-102434573D01*
X197158429Y-101817716D02*
X197194714Y-101890287D01*
X197194714Y-102035430D01*
X197158429Y-102108001D01*
X197085857Y-102144287D01*
X196795571Y-102144287D01*
X196723000Y-102108001D01*
X196686714Y-102035430D01*
X196686714Y-101890287D01*
X196723000Y-101817716D01*
X196795571Y-101781430D01*
X196868143Y-101781430D01*
X196940714Y-102144287D01*
X196686714Y-101454858D02*
X197194714Y-101454858D01*
X196759286Y-101454858D02*
X196723000Y-101418573D01*
X196686714Y-101346001D01*
X196686714Y-101237144D01*
X196723000Y-101164573D01*
X196795571Y-101128287D01*
X197194714Y-101128287D01*
X196686714Y-100874287D02*
X196686714Y-100584001D01*
X196432714Y-100765429D02*
X197085857Y-100765429D01*
X197158429Y-100729144D01*
X197194714Y-100656572D01*
X197194714Y-100584001D01*
X197158429Y-100039715D02*
X197194714Y-100112286D01*
X197194714Y-100257429D01*
X197158429Y-100330000D01*
X197085857Y-100366286D01*
X196795571Y-100366286D01*
X196723000Y-100330000D01*
X196686714Y-100257429D01*
X196686714Y-100112286D01*
X196723000Y-100039715D01*
X196795571Y-100003429D01*
X196868143Y-100003429D01*
X196940714Y-100366286D01*
X197194714Y-99676857D02*
X196686714Y-99676857D01*
X196831857Y-99676857D02*
X196759286Y-99640572D01*
X196723000Y-99604286D01*
X196686714Y-99531715D01*
X196686714Y-99459143D01*
X196904429Y-98624572D02*
X196904429Y-98044001D01*
X197194714Y-98334287D02*
X196614143Y-98334287D01*
X158169429Y-122845286D02*
X158205715Y-122809000D01*
X158278286Y-122772714D01*
X158459715Y-122772714D01*
X158532286Y-122809000D01*
X158568572Y-122845286D01*
X158604857Y-122917857D01*
X158604857Y-122990429D01*
X158568572Y-123099286D01*
X158133143Y-123534714D01*
X158604857Y-123534714D01*
X159294286Y-122772714D02*
X158931429Y-122772714D01*
X158895143Y-123135571D01*
X158931429Y-123099286D01*
X159004000Y-123063000D01*
X159185429Y-123063000D01*
X159258000Y-123099286D01*
X159294286Y-123135571D01*
X159330571Y-123208143D01*
X159330571Y-123389571D01*
X159294286Y-123462143D01*
X159258000Y-123498429D01*
X159185429Y-123534714D01*
X159004000Y-123534714D01*
X158931429Y-123498429D01*
X158895143Y-123462143D01*
X155629429Y-122845286D02*
X155665715Y-122809000D01*
X155738286Y-122772714D01*
X155919715Y-122772714D01*
X155992286Y-122809000D01*
X156028572Y-122845286D01*
X156064857Y-122917857D01*
X156064857Y-122990429D01*
X156028572Y-123099286D01*
X155593143Y-123534714D01*
X156064857Y-123534714D01*
X156318857Y-122772714D02*
X156826857Y-122772714D01*
X156500286Y-123534714D01*
X153089429Y-122845286D02*
X153125715Y-122809000D01*
X153198286Y-122772714D01*
X153379715Y-122772714D01*
X153452286Y-122809000D01*
X153488572Y-122845286D01*
X153524857Y-122917857D01*
X153524857Y-122990429D01*
X153488572Y-123099286D01*
X153053143Y-123534714D01*
X153524857Y-123534714D01*
X153887714Y-123534714D02*
X154032857Y-123534714D01*
X154105429Y-123498429D01*
X154141714Y-123462143D01*
X154214286Y-123353286D01*
X154250571Y-123208143D01*
X154250571Y-122917857D01*
X154214286Y-122845286D01*
X154178000Y-122809000D01*
X154105429Y-122772714D01*
X153960286Y-122772714D01*
X153887714Y-122809000D01*
X153851429Y-122845286D01*
X153815143Y-122917857D01*
X153815143Y-123099286D01*
X153851429Y-123171857D01*
X153887714Y-123208143D01*
X153960286Y-123244429D01*
X154105429Y-123244429D01*
X154178000Y-123208143D01*
X154214286Y-123171857D01*
X154250571Y-123099286D01*
X150513143Y-122772714D02*
X150984857Y-122772714D01*
X150730857Y-123063000D01*
X150839715Y-123063000D01*
X150912286Y-123099286D01*
X150948572Y-123135571D01*
X150984857Y-123208143D01*
X150984857Y-123389571D01*
X150948572Y-123462143D01*
X150912286Y-123498429D01*
X150839715Y-123534714D01*
X150622000Y-123534714D01*
X150549429Y-123498429D01*
X150513143Y-123462143D01*
X151710571Y-123534714D02*
X151275143Y-123534714D01*
X151492857Y-123534714D02*
X151492857Y-122772714D01*
X151420286Y-122881571D01*
X151347714Y-122954143D01*
X151275143Y-122990429D01*
X158169429Y-110145286D02*
X158205715Y-110109000D01*
X158278286Y-110072714D01*
X158459715Y-110072714D01*
X158532286Y-110109000D01*
X158568572Y-110145286D01*
X158604857Y-110217857D01*
X158604857Y-110290429D01*
X158568572Y-110399286D01*
X158133143Y-110834714D01*
X158604857Y-110834714D01*
X159258000Y-110326714D02*
X159258000Y-110834714D01*
X159076571Y-110036429D02*
X158895143Y-110580714D01*
X159366857Y-110580714D01*
X155629429Y-110145286D02*
X155665715Y-110109000D01*
X155738286Y-110072714D01*
X155919715Y-110072714D01*
X155992286Y-110109000D01*
X156028572Y-110145286D01*
X156064857Y-110217857D01*
X156064857Y-110290429D01*
X156028572Y-110399286D01*
X155593143Y-110834714D01*
X156064857Y-110834714D01*
X156718000Y-110072714D02*
X156572857Y-110072714D01*
X156500286Y-110109000D01*
X156464000Y-110145286D01*
X156391429Y-110254143D01*
X156355143Y-110399286D01*
X156355143Y-110689571D01*
X156391429Y-110762143D01*
X156427714Y-110798429D01*
X156500286Y-110834714D01*
X156645429Y-110834714D01*
X156718000Y-110798429D01*
X156754286Y-110762143D01*
X156790571Y-110689571D01*
X156790571Y-110508143D01*
X156754286Y-110435571D01*
X156718000Y-110399286D01*
X156645429Y-110363000D01*
X156500286Y-110363000D01*
X156427714Y-110399286D01*
X156391429Y-110435571D01*
X156355143Y-110508143D01*
X153089429Y-110145286D02*
X153125715Y-110109000D01*
X153198286Y-110072714D01*
X153379715Y-110072714D01*
X153452286Y-110109000D01*
X153488572Y-110145286D01*
X153524857Y-110217857D01*
X153524857Y-110290429D01*
X153488572Y-110399286D01*
X153053143Y-110834714D01*
X153524857Y-110834714D01*
X153960286Y-110399286D02*
X153887714Y-110363000D01*
X153851429Y-110326714D01*
X153815143Y-110254143D01*
X153815143Y-110217857D01*
X153851429Y-110145286D01*
X153887714Y-110109000D01*
X153960286Y-110072714D01*
X154105429Y-110072714D01*
X154178000Y-110109000D01*
X154214286Y-110145286D01*
X154250571Y-110217857D01*
X154250571Y-110254143D01*
X154214286Y-110326714D01*
X154178000Y-110363000D01*
X154105429Y-110399286D01*
X153960286Y-110399286D01*
X153887714Y-110435571D01*
X153851429Y-110471857D01*
X153815143Y-110544429D01*
X153815143Y-110689571D01*
X153851429Y-110762143D01*
X153887714Y-110798429D01*
X153960286Y-110834714D01*
X154105429Y-110834714D01*
X154178000Y-110798429D01*
X154214286Y-110762143D01*
X154250571Y-110689571D01*
X154250571Y-110544429D01*
X154214286Y-110471857D01*
X154178000Y-110435571D01*
X154105429Y-110399286D01*
X150513143Y-110072714D02*
X150984857Y-110072714D01*
X150730857Y-110363000D01*
X150839715Y-110363000D01*
X150912286Y-110399286D01*
X150948572Y-110435571D01*
X150984857Y-110508143D01*
X150984857Y-110689571D01*
X150948572Y-110762143D01*
X150912286Y-110798429D01*
X150839715Y-110834714D01*
X150622000Y-110834714D01*
X150549429Y-110798429D01*
X150513143Y-110762143D01*
X151456571Y-110072714D02*
X151529143Y-110072714D01*
X151601714Y-110109000D01*
X151638000Y-110145286D01*
X151674286Y-110217857D01*
X151710571Y-110363000D01*
X151710571Y-110544429D01*
X151674286Y-110689571D01*
X151638000Y-110762143D01*
X151601714Y-110798429D01*
X151529143Y-110834714D01*
X151456571Y-110834714D01*
X151384000Y-110798429D01*
X151347714Y-110762143D01*
X151311429Y-110689571D01*
X151275143Y-110544429D01*
X151275143Y-110363000D01*
X151311429Y-110217857D01*
X151347714Y-110145286D01*
X151384000Y-110109000D01*
X151456571Y-110072714D01*
X158604857Y-109564714D02*
X158169429Y-109564714D01*
X158387143Y-109564714D02*
X158387143Y-108802714D01*
X158314572Y-108911571D01*
X158242000Y-108984143D01*
X158169429Y-109020429D01*
X158858857Y-108802714D02*
X159366857Y-108802714D01*
X159040286Y-109564714D01*
X156064857Y-109564714D02*
X155629429Y-109564714D01*
X155847143Y-109564714D02*
X155847143Y-108802714D01*
X155774572Y-108911571D01*
X155702000Y-108984143D01*
X155629429Y-109020429D01*
X156427714Y-109564714D02*
X156572857Y-109564714D01*
X156645429Y-109528429D01*
X156681714Y-109492143D01*
X156754286Y-109383286D01*
X156790571Y-109238143D01*
X156790571Y-108947857D01*
X156754286Y-108875286D01*
X156718000Y-108839000D01*
X156645429Y-108802714D01*
X156500286Y-108802714D01*
X156427714Y-108839000D01*
X156391429Y-108875286D01*
X156355143Y-108947857D01*
X156355143Y-109129286D01*
X156391429Y-109201857D01*
X156427714Y-109238143D01*
X156500286Y-109274429D01*
X156645429Y-109274429D01*
X156718000Y-109238143D01*
X156754286Y-109201857D01*
X156790571Y-109129286D01*
X153089429Y-108875286D02*
X153125715Y-108839000D01*
X153198286Y-108802714D01*
X153379715Y-108802714D01*
X153452286Y-108839000D01*
X153488572Y-108875286D01*
X153524857Y-108947857D01*
X153524857Y-109020429D01*
X153488572Y-109129286D01*
X153053143Y-109564714D01*
X153524857Y-109564714D01*
X154250571Y-109564714D02*
X153815143Y-109564714D01*
X154032857Y-109564714D02*
X154032857Y-108802714D01*
X153960286Y-108911571D01*
X153887714Y-108984143D01*
X153815143Y-109020429D01*
X150549429Y-108875286D02*
X150585715Y-108839000D01*
X150658286Y-108802714D01*
X150839715Y-108802714D01*
X150912286Y-108839000D01*
X150948572Y-108875286D01*
X150984857Y-108947857D01*
X150984857Y-109020429D01*
X150948572Y-109129286D01*
X150513143Y-109564714D01*
X150984857Y-109564714D01*
X151238857Y-108802714D02*
X151710571Y-108802714D01*
X151456571Y-109093000D01*
X151565429Y-109093000D01*
X151638000Y-109129286D01*
X151674286Y-109165571D01*
X151710571Y-109238143D01*
X151710571Y-109419571D01*
X151674286Y-109492143D01*
X151638000Y-109528429D01*
X151565429Y-109564714D01*
X151347714Y-109564714D01*
X151275143Y-109528429D01*
X151238857Y-109492143D01*
X158604857Y-96864714D02*
X158169429Y-96864714D01*
X158387143Y-96864714D02*
X158387143Y-96102714D01*
X158314572Y-96211571D01*
X158242000Y-96284143D01*
X158169429Y-96320429D01*
X159258000Y-96102714D02*
X159112857Y-96102714D01*
X159040286Y-96139000D01*
X159004000Y-96175286D01*
X158931429Y-96284143D01*
X158895143Y-96429286D01*
X158895143Y-96719571D01*
X158931429Y-96792143D01*
X158967714Y-96828429D01*
X159040286Y-96864714D01*
X159185429Y-96864714D01*
X159258000Y-96828429D01*
X159294286Y-96792143D01*
X159330571Y-96719571D01*
X159330571Y-96538143D01*
X159294286Y-96465571D01*
X159258000Y-96429286D01*
X159185429Y-96393000D01*
X159040286Y-96393000D01*
X158967714Y-96429286D01*
X158931429Y-96465571D01*
X158895143Y-96538143D01*
X156064857Y-96864714D02*
X155629429Y-96864714D01*
X155847143Y-96864714D02*
X155847143Y-96102714D01*
X155774572Y-96211571D01*
X155702000Y-96284143D01*
X155629429Y-96320429D01*
X156500286Y-96429286D02*
X156427714Y-96393000D01*
X156391429Y-96356714D01*
X156355143Y-96284143D01*
X156355143Y-96247857D01*
X156391429Y-96175286D01*
X156427714Y-96139000D01*
X156500286Y-96102714D01*
X156645429Y-96102714D01*
X156718000Y-96139000D01*
X156754286Y-96175286D01*
X156790571Y-96247857D01*
X156790571Y-96284143D01*
X156754286Y-96356714D01*
X156718000Y-96393000D01*
X156645429Y-96429286D01*
X156500286Y-96429286D01*
X156427714Y-96465571D01*
X156391429Y-96501857D01*
X156355143Y-96574429D01*
X156355143Y-96719571D01*
X156391429Y-96792143D01*
X156427714Y-96828429D01*
X156500286Y-96864714D01*
X156645429Y-96864714D01*
X156718000Y-96828429D01*
X156754286Y-96792143D01*
X156790571Y-96719571D01*
X156790571Y-96574429D01*
X156754286Y-96501857D01*
X156718000Y-96465571D01*
X156645429Y-96429286D01*
X153089429Y-96175286D02*
X153125715Y-96139000D01*
X153198286Y-96102714D01*
X153379715Y-96102714D01*
X153452286Y-96139000D01*
X153488572Y-96175286D01*
X153524857Y-96247857D01*
X153524857Y-96320429D01*
X153488572Y-96429286D01*
X153053143Y-96864714D01*
X153524857Y-96864714D01*
X153996571Y-96102714D02*
X154069143Y-96102714D01*
X154141714Y-96139000D01*
X154178000Y-96175286D01*
X154214286Y-96247857D01*
X154250571Y-96393000D01*
X154250571Y-96574429D01*
X154214286Y-96719571D01*
X154178000Y-96792143D01*
X154141714Y-96828429D01*
X154069143Y-96864714D01*
X153996571Y-96864714D01*
X153924000Y-96828429D01*
X153887714Y-96792143D01*
X153851429Y-96719571D01*
X153815143Y-96574429D01*
X153815143Y-96393000D01*
X153851429Y-96247857D01*
X153887714Y-96175286D01*
X153924000Y-96139000D01*
X153996571Y-96102714D01*
X150549429Y-96175286D02*
X150585715Y-96139000D01*
X150658286Y-96102714D01*
X150839715Y-96102714D01*
X150912286Y-96139000D01*
X150948572Y-96175286D01*
X150984857Y-96247857D01*
X150984857Y-96320429D01*
X150948572Y-96429286D01*
X150513143Y-96864714D01*
X150984857Y-96864714D01*
X151275143Y-96175286D02*
X151311429Y-96139000D01*
X151384000Y-96102714D01*
X151565429Y-96102714D01*
X151638000Y-96139000D01*
X151674286Y-96175286D01*
X151710571Y-96247857D01*
X151710571Y-96320429D01*
X151674286Y-96429286D01*
X151238857Y-96864714D01*
X151710571Y-96864714D01*
X158677429Y-82459286D02*
X158604857Y-82423000D01*
X158568572Y-82386714D01*
X158532286Y-82314143D01*
X158532286Y-82277857D01*
X158568572Y-82205286D01*
X158604857Y-82169000D01*
X158677429Y-82132714D01*
X158822572Y-82132714D01*
X158895143Y-82169000D01*
X158931429Y-82205286D01*
X158967714Y-82277857D01*
X158967714Y-82314143D01*
X158931429Y-82386714D01*
X158895143Y-82423000D01*
X158822572Y-82459286D01*
X158677429Y-82459286D01*
X158604857Y-82495571D01*
X158568572Y-82531857D01*
X158532286Y-82604429D01*
X158532286Y-82749571D01*
X158568572Y-82822143D01*
X158604857Y-82858429D01*
X158677429Y-82894714D01*
X158822572Y-82894714D01*
X158895143Y-82858429D01*
X158931429Y-82822143D01*
X158967714Y-82749571D01*
X158967714Y-82604429D01*
X158931429Y-82531857D01*
X158895143Y-82495571D01*
X158822572Y-82459286D01*
X156064857Y-82894714D02*
X155629429Y-82894714D01*
X155847143Y-82894714D02*
X155847143Y-82132714D01*
X155774572Y-82241571D01*
X155702000Y-82314143D01*
X155629429Y-82350429D01*
X156536571Y-82132714D02*
X156609143Y-82132714D01*
X156681714Y-82169000D01*
X156718000Y-82205286D01*
X156754286Y-82277857D01*
X156790571Y-82423000D01*
X156790571Y-82604429D01*
X156754286Y-82749571D01*
X156718000Y-82822143D01*
X156681714Y-82858429D01*
X156609143Y-82894714D01*
X156536571Y-82894714D01*
X156464000Y-82858429D01*
X156427714Y-82822143D01*
X156391429Y-82749571D01*
X156355143Y-82604429D01*
X156355143Y-82423000D01*
X156391429Y-82277857D01*
X156427714Y-82205286D01*
X156464000Y-82169000D01*
X156536571Y-82132714D01*
X153524857Y-82894714D02*
X153089429Y-82894714D01*
X153307143Y-82894714D02*
X153307143Y-82132714D01*
X153234572Y-82241571D01*
X153162000Y-82314143D01*
X153089429Y-82350429D01*
X153815143Y-82205286D02*
X153851429Y-82169000D01*
X153924000Y-82132714D01*
X154105429Y-82132714D01*
X154178000Y-82169000D01*
X154214286Y-82205286D01*
X154250571Y-82277857D01*
X154250571Y-82350429D01*
X154214286Y-82459286D01*
X153778857Y-82894714D01*
X154250571Y-82894714D01*
X150984857Y-82894714D02*
X150549429Y-82894714D01*
X150767143Y-82894714D02*
X150767143Y-82132714D01*
X150694572Y-82241571D01*
X150622000Y-82314143D01*
X150549429Y-82350429D01*
X151638000Y-82386714D02*
X151638000Y-82894714D01*
X151456571Y-82096429D02*
X151275143Y-82640714D01*
X151746857Y-82640714D01*
X158604857Y-95594714D02*
X158750000Y-95594714D01*
X158822572Y-95558429D01*
X158858857Y-95522143D01*
X158931429Y-95413286D01*
X158967714Y-95268143D01*
X158967714Y-94977857D01*
X158931429Y-94905286D01*
X158895143Y-94869000D01*
X158822572Y-94832714D01*
X158677429Y-94832714D01*
X158604857Y-94869000D01*
X158568572Y-94905286D01*
X158532286Y-94977857D01*
X158532286Y-95159286D01*
X158568572Y-95231857D01*
X158604857Y-95268143D01*
X158677429Y-95304429D01*
X158822572Y-95304429D01*
X158895143Y-95268143D01*
X158931429Y-95231857D01*
X158967714Y-95159286D01*
X156064857Y-95594714D02*
X155629429Y-95594714D01*
X155847143Y-95594714D02*
X155847143Y-94832714D01*
X155774572Y-94941571D01*
X155702000Y-95014143D01*
X155629429Y-95050429D01*
X156790571Y-95594714D02*
X156355143Y-95594714D01*
X156572857Y-95594714D02*
X156572857Y-94832714D01*
X156500286Y-94941571D01*
X156427714Y-95014143D01*
X156355143Y-95050429D01*
X153524857Y-95594714D02*
X153089429Y-95594714D01*
X153307143Y-95594714D02*
X153307143Y-94832714D01*
X153234572Y-94941571D01*
X153162000Y-95014143D01*
X153089429Y-95050429D01*
X153778857Y-94832714D02*
X154250571Y-94832714D01*
X153996571Y-95123000D01*
X154105429Y-95123000D01*
X154178000Y-95159286D01*
X154214286Y-95195571D01*
X154250571Y-95268143D01*
X154250571Y-95449571D01*
X154214286Y-95522143D01*
X154178000Y-95558429D01*
X154105429Y-95594714D01*
X153887714Y-95594714D01*
X153815143Y-95558429D01*
X153778857Y-95522143D01*
X150984857Y-95594714D02*
X150549429Y-95594714D01*
X150767143Y-95594714D02*
X150767143Y-94832714D01*
X150694572Y-94941571D01*
X150622000Y-95014143D01*
X150549429Y-95050429D01*
X151674286Y-94832714D02*
X151311429Y-94832714D01*
X151275143Y-95195571D01*
X151311429Y-95159286D01*
X151384000Y-95123000D01*
X151565429Y-95123000D01*
X151638000Y-95159286D01*
X151674286Y-95195571D01*
X151710571Y-95268143D01*
X151710571Y-95449571D01*
X151674286Y-95522143D01*
X151638000Y-95558429D01*
X151565429Y-95594714D01*
X151384000Y-95594714D01*
X151311429Y-95558429D01*
X151275143Y-95522143D01*
X165789428Y-122809000D02*
X165716857Y-122772714D01*
X165608000Y-122772714D01*
X165499143Y-122809000D01*
X165426571Y-122881571D01*
X165390286Y-122954143D01*
X165354000Y-123099286D01*
X165354000Y-123208143D01*
X165390286Y-123353286D01*
X165426571Y-123425857D01*
X165499143Y-123498429D01*
X165608000Y-123534714D01*
X165680571Y-123534714D01*
X165789428Y-123498429D01*
X165825714Y-123462143D01*
X165825714Y-123208143D01*
X165680571Y-123208143D01*
X166152286Y-123534714D02*
X166152286Y-122772714D01*
X166587714Y-123534714D01*
X166587714Y-122772714D01*
X166950572Y-123534714D02*
X166950572Y-122772714D01*
X167132000Y-122772714D01*
X167240857Y-122809000D01*
X167313429Y-122881571D01*
X167349714Y-122954143D01*
X167386000Y-123099286D01*
X167386000Y-123208143D01*
X167349714Y-123353286D01*
X167313429Y-123425857D01*
X167240857Y-123498429D01*
X167132000Y-123534714D01*
X166950572Y-123534714D01*
X163249428Y-122809000D02*
X163176857Y-122772714D01*
X163068000Y-122772714D01*
X162959143Y-122809000D01*
X162886571Y-122881571D01*
X162850286Y-122954143D01*
X162814000Y-123099286D01*
X162814000Y-123208143D01*
X162850286Y-123353286D01*
X162886571Y-123425857D01*
X162959143Y-123498429D01*
X163068000Y-123534714D01*
X163140571Y-123534714D01*
X163249428Y-123498429D01*
X163285714Y-123462143D01*
X163285714Y-123208143D01*
X163140571Y-123208143D01*
X163612286Y-123534714D02*
X163612286Y-122772714D01*
X164047714Y-123534714D01*
X164047714Y-122772714D01*
X164410572Y-123534714D02*
X164410572Y-122772714D01*
X164592000Y-122772714D01*
X164700857Y-122809000D01*
X164773429Y-122881571D01*
X164809714Y-122954143D01*
X164846000Y-123099286D01*
X164846000Y-123208143D01*
X164809714Y-123353286D01*
X164773429Y-123425857D01*
X164700857Y-123498429D01*
X164592000Y-123534714D01*
X164410572Y-123534714D01*
X160709428Y-122809000D02*
X160636857Y-122772714D01*
X160528000Y-122772714D01*
X160419143Y-122809000D01*
X160346571Y-122881571D01*
X160310286Y-122954143D01*
X160274000Y-123099286D01*
X160274000Y-123208143D01*
X160310286Y-123353286D01*
X160346571Y-123425857D01*
X160419143Y-123498429D01*
X160528000Y-123534714D01*
X160600571Y-123534714D01*
X160709428Y-123498429D01*
X160745714Y-123462143D01*
X160745714Y-123208143D01*
X160600571Y-123208143D01*
X161072286Y-123534714D02*
X161072286Y-122772714D01*
X161507714Y-123534714D01*
X161507714Y-122772714D01*
X161870572Y-123534714D02*
X161870572Y-122772714D01*
X162052000Y-122772714D01*
X162160857Y-122809000D01*
X162233429Y-122881571D01*
X162269714Y-122954143D01*
X162306000Y-123099286D01*
X162306000Y-123208143D01*
X162269714Y-123353286D01*
X162233429Y-123425857D01*
X162160857Y-123498429D01*
X162052000Y-123534714D01*
X161870572Y-123534714D01*
X165789428Y-108839000D02*
X165716857Y-108802714D01*
X165608000Y-108802714D01*
X165499143Y-108839000D01*
X165426571Y-108911571D01*
X165390286Y-108984143D01*
X165354000Y-109129286D01*
X165354000Y-109238143D01*
X165390286Y-109383286D01*
X165426571Y-109455857D01*
X165499143Y-109528429D01*
X165608000Y-109564714D01*
X165680571Y-109564714D01*
X165789428Y-109528429D01*
X165825714Y-109492143D01*
X165825714Y-109238143D01*
X165680571Y-109238143D01*
X166152286Y-109564714D02*
X166152286Y-108802714D01*
X166587714Y-109564714D01*
X166587714Y-108802714D01*
X166950572Y-109564714D02*
X166950572Y-108802714D01*
X167132000Y-108802714D01*
X167240857Y-108839000D01*
X167313429Y-108911571D01*
X167349714Y-108984143D01*
X167386000Y-109129286D01*
X167386000Y-109238143D01*
X167349714Y-109383286D01*
X167313429Y-109455857D01*
X167240857Y-109528429D01*
X167132000Y-109564714D01*
X166950572Y-109564714D01*
X163249428Y-108839000D02*
X163176857Y-108802714D01*
X163068000Y-108802714D01*
X162959143Y-108839000D01*
X162886571Y-108911571D01*
X162850286Y-108984143D01*
X162814000Y-109129286D01*
X162814000Y-109238143D01*
X162850286Y-109383286D01*
X162886571Y-109455857D01*
X162959143Y-109528429D01*
X163068000Y-109564714D01*
X163140571Y-109564714D01*
X163249428Y-109528429D01*
X163285714Y-109492143D01*
X163285714Y-109238143D01*
X163140571Y-109238143D01*
X163612286Y-109564714D02*
X163612286Y-108802714D01*
X164047714Y-109564714D01*
X164047714Y-108802714D01*
X164410572Y-109564714D02*
X164410572Y-108802714D01*
X164592000Y-108802714D01*
X164700857Y-108839000D01*
X164773429Y-108911571D01*
X164809714Y-108984143D01*
X164846000Y-109129286D01*
X164846000Y-109238143D01*
X164809714Y-109383286D01*
X164773429Y-109455857D01*
X164700857Y-109528429D01*
X164592000Y-109564714D01*
X164410572Y-109564714D01*
X160709428Y-108839000D02*
X160636857Y-108802714D01*
X160528000Y-108802714D01*
X160419143Y-108839000D01*
X160346571Y-108911571D01*
X160310286Y-108984143D01*
X160274000Y-109129286D01*
X160274000Y-109238143D01*
X160310286Y-109383286D01*
X160346571Y-109455857D01*
X160419143Y-109528429D01*
X160528000Y-109564714D01*
X160600571Y-109564714D01*
X160709428Y-109528429D01*
X160745714Y-109492143D01*
X160745714Y-109238143D01*
X160600571Y-109238143D01*
X161072286Y-109564714D02*
X161072286Y-108802714D01*
X161507714Y-109564714D01*
X161507714Y-108802714D01*
X161870572Y-109564714D02*
X161870572Y-108802714D01*
X162052000Y-108802714D01*
X162160857Y-108839000D01*
X162233429Y-108911571D01*
X162269714Y-108984143D01*
X162306000Y-109129286D01*
X162306000Y-109238143D01*
X162269714Y-109383286D01*
X162233429Y-109455857D01*
X162160857Y-109528429D01*
X162052000Y-109564714D01*
X161870572Y-109564714D01*
X165789428Y-94869000D02*
X165716857Y-94832714D01*
X165608000Y-94832714D01*
X165499143Y-94869000D01*
X165426571Y-94941571D01*
X165390286Y-95014143D01*
X165354000Y-95159286D01*
X165354000Y-95268143D01*
X165390286Y-95413286D01*
X165426571Y-95485857D01*
X165499143Y-95558429D01*
X165608000Y-95594714D01*
X165680571Y-95594714D01*
X165789428Y-95558429D01*
X165825714Y-95522143D01*
X165825714Y-95268143D01*
X165680571Y-95268143D01*
X166152286Y-95594714D02*
X166152286Y-94832714D01*
X166587714Y-95594714D01*
X166587714Y-94832714D01*
X166950572Y-95594714D02*
X166950572Y-94832714D01*
X167132000Y-94832714D01*
X167240857Y-94869000D01*
X167313429Y-94941571D01*
X167349714Y-95014143D01*
X167386000Y-95159286D01*
X167386000Y-95268143D01*
X167349714Y-95413286D01*
X167313429Y-95485857D01*
X167240857Y-95558429D01*
X167132000Y-95594714D01*
X166950572Y-95594714D01*
X163249428Y-94869000D02*
X163176857Y-94832714D01*
X163068000Y-94832714D01*
X162959143Y-94869000D01*
X162886571Y-94941571D01*
X162850286Y-95014143D01*
X162814000Y-95159286D01*
X162814000Y-95268143D01*
X162850286Y-95413286D01*
X162886571Y-95485857D01*
X162959143Y-95558429D01*
X163068000Y-95594714D01*
X163140571Y-95594714D01*
X163249428Y-95558429D01*
X163285714Y-95522143D01*
X163285714Y-95268143D01*
X163140571Y-95268143D01*
X163612286Y-95594714D02*
X163612286Y-94832714D01*
X164047714Y-95594714D01*
X164047714Y-94832714D01*
X164410572Y-95594714D02*
X164410572Y-94832714D01*
X164592000Y-94832714D01*
X164700857Y-94869000D01*
X164773429Y-94941571D01*
X164809714Y-95014143D01*
X164846000Y-95159286D01*
X164846000Y-95268143D01*
X164809714Y-95413286D01*
X164773429Y-95485857D01*
X164700857Y-95558429D01*
X164592000Y-95594714D01*
X164410572Y-95594714D01*
X160709428Y-94869000D02*
X160636857Y-94832714D01*
X160528000Y-94832714D01*
X160419143Y-94869000D01*
X160346571Y-94941571D01*
X160310286Y-95014143D01*
X160274000Y-95159286D01*
X160274000Y-95268143D01*
X160310286Y-95413286D01*
X160346571Y-95485857D01*
X160419143Y-95558429D01*
X160528000Y-95594714D01*
X160600571Y-95594714D01*
X160709428Y-95558429D01*
X160745714Y-95522143D01*
X160745714Y-95268143D01*
X160600571Y-95268143D01*
X161072286Y-95594714D02*
X161072286Y-94832714D01*
X161507714Y-95594714D01*
X161507714Y-94832714D01*
X161870572Y-95594714D02*
X161870572Y-94832714D01*
X162052000Y-94832714D01*
X162160857Y-94869000D01*
X162233429Y-94941571D01*
X162269714Y-95014143D01*
X162306000Y-95159286D01*
X162306000Y-95268143D01*
X162269714Y-95413286D01*
X162233429Y-95485857D01*
X162160857Y-95558429D01*
X162052000Y-95594714D01*
X161870572Y-95594714D01*
X160310286Y-110544429D02*
X160890857Y-110544429D01*
X160600571Y-110834714D02*
X160600571Y-110254143D01*
X161616572Y-110072714D02*
X161253715Y-110072714D01*
X161217429Y-110435571D01*
X161253715Y-110399286D01*
X161326286Y-110363000D01*
X161507715Y-110363000D01*
X161580286Y-110399286D01*
X161616572Y-110435571D01*
X161652857Y-110508143D01*
X161652857Y-110689571D01*
X161616572Y-110762143D01*
X161580286Y-110798429D01*
X161507715Y-110834714D01*
X161326286Y-110834714D01*
X161253715Y-110798429D01*
X161217429Y-110762143D01*
X161870571Y-110072714D02*
X162124571Y-110834714D01*
X162378571Y-110072714D01*
X160310286Y-96574429D02*
X160890857Y-96574429D01*
X160600571Y-96864714D02*
X160600571Y-96284143D01*
X161616572Y-96102714D02*
X161253715Y-96102714D01*
X161217429Y-96465571D01*
X161253715Y-96429286D01*
X161326286Y-96393000D01*
X161507715Y-96393000D01*
X161580286Y-96429286D01*
X161616572Y-96465571D01*
X161652857Y-96538143D01*
X161652857Y-96719571D01*
X161616572Y-96792143D01*
X161580286Y-96828429D01*
X161507715Y-96864714D01*
X161326286Y-96864714D01*
X161253715Y-96828429D01*
X161217429Y-96792143D01*
X161870571Y-96102714D02*
X162124571Y-96864714D01*
X162378571Y-96102714D01*
X160310286Y-82604429D02*
X160890857Y-82604429D01*
X160600571Y-82894714D02*
X160600571Y-82314143D01*
X161616572Y-82132714D02*
X161253715Y-82132714D01*
X161217429Y-82495571D01*
X161253715Y-82459286D01*
X161326286Y-82423000D01*
X161507715Y-82423000D01*
X161580286Y-82459286D01*
X161616572Y-82495571D01*
X161652857Y-82568143D01*
X161652857Y-82749571D01*
X161616572Y-82822143D01*
X161580286Y-82858429D01*
X161507715Y-82894714D01*
X161326286Y-82894714D01*
X161253715Y-82858429D01*
X161217429Y-82822143D01*
X161870571Y-82132714D02*
X162124571Y-82894714D01*
X162378571Y-82132714D01*
X165462857Y-110072714D02*
X165716857Y-110834714D01*
X165970857Y-110072714D01*
X166188572Y-110617000D02*
X166551429Y-110617000D01*
X166116000Y-110834714D02*
X166370000Y-110072714D01*
X166624000Y-110834714D01*
X166841715Y-110617000D02*
X167204572Y-110617000D01*
X166769143Y-110834714D02*
X167023143Y-110072714D01*
X167277143Y-110834714D01*
X162922857Y-110072714D02*
X163176857Y-110834714D01*
X163430857Y-110072714D01*
X163648572Y-110617000D02*
X164011429Y-110617000D01*
X163576000Y-110834714D02*
X163830000Y-110072714D01*
X164084000Y-110834714D01*
X164301715Y-110617000D02*
X164664572Y-110617000D01*
X164229143Y-110834714D02*
X164483143Y-110072714D01*
X164737143Y-110834714D01*
X165462857Y-96102714D02*
X165716857Y-96864714D01*
X165970857Y-96102714D01*
X166188572Y-96647000D02*
X166551429Y-96647000D01*
X166116000Y-96864714D02*
X166370000Y-96102714D01*
X166624000Y-96864714D01*
X166841715Y-96647000D02*
X167204572Y-96647000D01*
X166769143Y-96864714D02*
X167023143Y-96102714D01*
X167277143Y-96864714D01*
X162922857Y-96102714D02*
X163176857Y-96864714D01*
X163430857Y-96102714D01*
X163648572Y-96647000D02*
X164011429Y-96647000D01*
X163576000Y-96864714D02*
X163830000Y-96102714D01*
X164084000Y-96864714D01*
X164301715Y-96647000D02*
X164664572Y-96647000D01*
X164229143Y-96864714D02*
X164483143Y-96102714D01*
X164737143Y-96864714D01*
X165462857Y-82132714D02*
X165716857Y-82894714D01*
X165970857Y-82132714D01*
X166188572Y-82677000D02*
X166551429Y-82677000D01*
X166116000Y-82894714D02*
X166370000Y-82132714D01*
X166624000Y-82894714D01*
X166841715Y-82677000D02*
X167204572Y-82677000D01*
X166769143Y-82894714D02*
X167023143Y-82132714D01*
X167277143Y-82894714D01*
X162922857Y-82132714D02*
X163176857Y-82894714D01*
X163430857Y-82132714D01*
X163648572Y-82677000D02*
X164011429Y-82677000D01*
X163576000Y-82894714D02*
X163830000Y-82132714D01*
X164084000Y-82894714D01*
X164301715Y-82677000D02*
X164664572Y-82677000D01*
X164229143Y-82894714D02*
X164483143Y-82132714D01*
X164737143Y-82894714D01*
X133712857Y-82132714D02*
X133966857Y-82894714D01*
X134220857Y-82132714D01*
X134438572Y-82677000D02*
X134801429Y-82677000D01*
X134366000Y-82894714D02*
X134620000Y-82132714D01*
X134874000Y-82894714D01*
X135091715Y-82677000D02*
X135454572Y-82677000D01*
X135019143Y-82894714D02*
X135273143Y-82132714D01*
X135527143Y-82894714D01*
X131172857Y-82132714D02*
X131426857Y-82894714D01*
X131680857Y-82132714D01*
X131898572Y-82677000D02*
X132261429Y-82677000D01*
X131826000Y-82894714D02*
X132080000Y-82132714D01*
X132334000Y-82894714D01*
X132551715Y-82677000D02*
X132914572Y-82677000D01*
X132479143Y-82894714D02*
X132733143Y-82132714D01*
X132987143Y-82894714D01*
X128560286Y-82604429D02*
X129140857Y-82604429D01*
X128850571Y-82894714D02*
X128850571Y-82314143D01*
X129866572Y-82132714D02*
X129503715Y-82132714D01*
X129467429Y-82495571D01*
X129503715Y-82459286D01*
X129576286Y-82423000D01*
X129757715Y-82423000D01*
X129830286Y-82459286D01*
X129866572Y-82495571D01*
X129902857Y-82568143D01*
X129902857Y-82749571D01*
X129866572Y-82822143D01*
X129830286Y-82858429D01*
X129757715Y-82894714D01*
X129576286Y-82894714D01*
X129503715Y-82858429D01*
X129467429Y-82822143D01*
X130120571Y-82132714D02*
X130374571Y-82894714D01*
X130628571Y-82132714D01*
X126963714Y-82132714D02*
X127036286Y-82132714D01*
X127108857Y-82169000D01*
X127145143Y-82205286D01*
X127181429Y-82277857D01*
X127217714Y-82423000D01*
X127217714Y-82604429D01*
X127181429Y-82749571D01*
X127145143Y-82822143D01*
X127108857Y-82858429D01*
X127036286Y-82894714D01*
X126963714Y-82894714D01*
X126891143Y-82858429D01*
X126854857Y-82822143D01*
X126818572Y-82749571D01*
X126782286Y-82604429D01*
X126782286Y-82423000D01*
X126818572Y-82277857D01*
X126854857Y-82205286D01*
X126891143Y-82169000D01*
X126963714Y-82132714D01*
X124242286Y-82205286D02*
X124278572Y-82169000D01*
X124351143Y-82132714D01*
X124532572Y-82132714D01*
X124605143Y-82169000D01*
X124641429Y-82205286D01*
X124677714Y-82277857D01*
X124677714Y-82350429D01*
X124641429Y-82459286D01*
X124206000Y-82894714D01*
X124677714Y-82894714D01*
X122065143Y-82386714D02*
X122065143Y-82894714D01*
X121883714Y-82096429D02*
X121702286Y-82640714D01*
X122174000Y-82640714D01*
X119525143Y-82132714D02*
X119380000Y-82132714D01*
X119307429Y-82169000D01*
X119271143Y-82205286D01*
X119198572Y-82314143D01*
X119162286Y-82459286D01*
X119162286Y-82749571D01*
X119198572Y-82822143D01*
X119234857Y-82858429D01*
X119307429Y-82894714D01*
X119452572Y-82894714D01*
X119525143Y-82858429D01*
X119561429Y-82822143D01*
X119597714Y-82749571D01*
X119597714Y-82568143D01*
X119561429Y-82495571D01*
X119525143Y-82459286D01*
X119452572Y-82423000D01*
X119307429Y-82423000D01*
X119234857Y-82459286D01*
X119198572Y-82495571D01*
X119162286Y-82568143D01*
X119126000Y-94832714D02*
X119634000Y-94832714D01*
X119307429Y-95594714D01*
X122101429Y-94832714D02*
X121738572Y-94832714D01*
X121702286Y-95195571D01*
X121738572Y-95159286D01*
X121811143Y-95123000D01*
X121992572Y-95123000D01*
X122065143Y-95159286D01*
X122101429Y-95195571D01*
X122137714Y-95268143D01*
X122137714Y-95449571D01*
X122101429Y-95522143D01*
X122065143Y-95558429D01*
X121992572Y-95594714D01*
X121811143Y-95594714D01*
X121738572Y-95558429D01*
X121702286Y-95522143D01*
X124206000Y-94832714D02*
X124677714Y-94832714D01*
X124423714Y-95123000D01*
X124532572Y-95123000D01*
X124605143Y-95159286D01*
X124641429Y-95195571D01*
X124677714Y-95268143D01*
X124677714Y-95449571D01*
X124641429Y-95522143D01*
X124605143Y-95558429D01*
X124532572Y-95594714D01*
X124314857Y-95594714D01*
X124242286Y-95558429D01*
X124206000Y-95522143D01*
X127217714Y-95594714D02*
X126782286Y-95594714D01*
X127000000Y-95594714D02*
X127000000Y-94832714D01*
X126927429Y-94941571D01*
X126854857Y-95014143D01*
X126782286Y-95050429D01*
X128959428Y-94869000D02*
X128886857Y-94832714D01*
X128778000Y-94832714D01*
X128669143Y-94869000D01*
X128596571Y-94941571D01*
X128560286Y-95014143D01*
X128524000Y-95159286D01*
X128524000Y-95268143D01*
X128560286Y-95413286D01*
X128596571Y-95485857D01*
X128669143Y-95558429D01*
X128778000Y-95594714D01*
X128850571Y-95594714D01*
X128959428Y-95558429D01*
X128995714Y-95522143D01*
X128995714Y-95268143D01*
X128850571Y-95268143D01*
X129322286Y-95594714D02*
X129322286Y-94832714D01*
X129757714Y-95594714D01*
X129757714Y-94832714D01*
X130120572Y-95594714D02*
X130120572Y-94832714D01*
X130302000Y-94832714D01*
X130410857Y-94869000D01*
X130483429Y-94941571D01*
X130519714Y-95014143D01*
X130556000Y-95159286D01*
X130556000Y-95268143D01*
X130519714Y-95413286D01*
X130483429Y-95485857D01*
X130410857Y-95558429D01*
X130302000Y-95594714D01*
X130120572Y-95594714D01*
X131499428Y-94869000D02*
X131426857Y-94832714D01*
X131318000Y-94832714D01*
X131209143Y-94869000D01*
X131136571Y-94941571D01*
X131100286Y-95014143D01*
X131064000Y-95159286D01*
X131064000Y-95268143D01*
X131100286Y-95413286D01*
X131136571Y-95485857D01*
X131209143Y-95558429D01*
X131318000Y-95594714D01*
X131390571Y-95594714D01*
X131499428Y-95558429D01*
X131535714Y-95522143D01*
X131535714Y-95268143D01*
X131390571Y-95268143D01*
X131862286Y-95594714D02*
X131862286Y-94832714D01*
X132297714Y-95594714D01*
X132297714Y-94832714D01*
X132660572Y-95594714D02*
X132660572Y-94832714D01*
X132842000Y-94832714D01*
X132950857Y-94869000D01*
X133023429Y-94941571D01*
X133059714Y-95014143D01*
X133096000Y-95159286D01*
X133096000Y-95268143D01*
X133059714Y-95413286D01*
X133023429Y-95485857D01*
X132950857Y-95558429D01*
X132842000Y-95594714D01*
X132660572Y-95594714D01*
X134039428Y-94869000D02*
X133966857Y-94832714D01*
X133858000Y-94832714D01*
X133749143Y-94869000D01*
X133676571Y-94941571D01*
X133640286Y-95014143D01*
X133604000Y-95159286D01*
X133604000Y-95268143D01*
X133640286Y-95413286D01*
X133676571Y-95485857D01*
X133749143Y-95558429D01*
X133858000Y-95594714D01*
X133930571Y-95594714D01*
X134039428Y-95558429D01*
X134075714Y-95522143D01*
X134075714Y-95268143D01*
X133930571Y-95268143D01*
X134402286Y-95594714D02*
X134402286Y-94832714D01*
X134837714Y-95594714D01*
X134837714Y-94832714D01*
X135200572Y-95594714D02*
X135200572Y-94832714D01*
X135382000Y-94832714D01*
X135490857Y-94869000D01*
X135563429Y-94941571D01*
X135599714Y-95014143D01*
X135636000Y-95159286D01*
X135636000Y-95268143D01*
X135599714Y-95413286D01*
X135563429Y-95485857D01*
X135490857Y-95558429D01*
X135382000Y-95594714D01*
X135200572Y-95594714D01*
X131499428Y-108839000D02*
X131426857Y-108802714D01*
X131318000Y-108802714D01*
X131209143Y-108839000D01*
X131136571Y-108911571D01*
X131100286Y-108984143D01*
X131064000Y-109129286D01*
X131064000Y-109238143D01*
X131100286Y-109383286D01*
X131136571Y-109455857D01*
X131209143Y-109528429D01*
X131318000Y-109564714D01*
X131390571Y-109564714D01*
X131499428Y-109528429D01*
X131535714Y-109492143D01*
X131535714Y-109238143D01*
X131390571Y-109238143D01*
X131862286Y-109564714D02*
X131862286Y-108802714D01*
X132297714Y-109564714D01*
X132297714Y-108802714D01*
X132660572Y-109564714D02*
X132660572Y-108802714D01*
X132842000Y-108802714D01*
X132950857Y-108839000D01*
X133023429Y-108911571D01*
X133059714Y-108984143D01*
X133096000Y-109129286D01*
X133096000Y-109238143D01*
X133059714Y-109383286D01*
X133023429Y-109455857D01*
X132950857Y-109528429D01*
X132842000Y-109564714D01*
X132660572Y-109564714D01*
X131100286Y-96574429D02*
X131680857Y-96574429D01*
X131390571Y-96864714D02*
X131390571Y-96284143D01*
X132406572Y-96102714D02*
X132043715Y-96102714D01*
X132007429Y-96465571D01*
X132043715Y-96429286D01*
X132116286Y-96393000D01*
X132297715Y-96393000D01*
X132370286Y-96429286D01*
X132406572Y-96465571D01*
X132442857Y-96538143D01*
X132442857Y-96719571D01*
X132406572Y-96792143D01*
X132370286Y-96828429D01*
X132297715Y-96864714D01*
X132116286Y-96864714D01*
X132043715Y-96828429D01*
X132007429Y-96792143D01*
X132660571Y-96102714D02*
X132914571Y-96864714D01*
X133168571Y-96102714D01*
X128995715Y-110617000D02*
X129358572Y-110617000D01*
X128923143Y-110834714D02*
X129177143Y-110072714D01*
X129431143Y-110834714D01*
X129830286Y-110072714D02*
X129902858Y-110072714D01*
X129975429Y-110109000D01*
X130011715Y-110145286D01*
X130048001Y-110217857D01*
X130084286Y-110363000D01*
X130084286Y-110544429D01*
X130048001Y-110689571D01*
X130011715Y-110762143D01*
X129975429Y-110798429D01*
X129902858Y-110834714D01*
X129830286Y-110834714D01*
X129757715Y-110798429D01*
X129721429Y-110762143D01*
X129685144Y-110689571D01*
X129648858Y-110544429D01*
X129648858Y-110363000D01*
X129685144Y-110217857D01*
X129721429Y-110145286D01*
X129757715Y-110109000D01*
X129830286Y-110072714D01*
X126455715Y-110617000D02*
X126818572Y-110617000D01*
X126383143Y-110834714D02*
X126637143Y-110072714D01*
X126891143Y-110834714D01*
X127108858Y-110145286D02*
X127145144Y-110109000D01*
X127217715Y-110072714D01*
X127399144Y-110072714D01*
X127471715Y-110109000D01*
X127508001Y-110145286D01*
X127544286Y-110217857D01*
X127544286Y-110290429D01*
X127508001Y-110399286D01*
X127072572Y-110834714D01*
X127544286Y-110834714D01*
X123915715Y-110617000D02*
X124278572Y-110617000D01*
X123843143Y-110834714D02*
X124097143Y-110072714D01*
X124351143Y-110834714D01*
X124931715Y-110326714D02*
X124931715Y-110834714D01*
X124750286Y-110036429D02*
X124568858Y-110580714D01*
X125040572Y-110580714D01*
X121375715Y-110617000D02*
X121738572Y-110617000D01*
X121303143Y-110834714D02*
X121557143Y-110072714D01*
X121811143Y-110834714D01*
X122391715Y-110072714D02*
X122246572Y-110072714D01*
X122174001Y-110109000D01*
X122137715Y-110145286D01*
X122065144Y-110254143D01*
X122028858Y-110399286D01*
X122028858Y-110689571D01*
X122065144Y-110762143D01*
X122101429Y-110798429D01*
X122174001Y-110834714D01*
X122319144Y-110834714D01*
X122391715Y-110798429D01*
X122428001Y-110762143D01*
X122464286Y-110689571D01*
X122464286Y-110508143D01*
X122428001Y-110435571D01*
X122391715Y-110399286D01*
X122319144Y-110363000D01*
X122174001Y-110363000D01*
X122101429Y-110399286D01*
X122065144Y-110435571D01*
X122028858Y-110508143D01*
X121375715Y-123317000D02*
X121738572Y-123317000D01*
X121303143Y-123534714D02*
X121557143Y-122772714D01*
X121811143Y-123534714D01*
X121992572Y-122772714D02*
X122500572Y-122772714D01*
X122174001Y-123534714D01*
X123915715Y-123317000D02*
X124278572Y-123317000D01*
X123843143Y-123534714D02*
X124097143Y-122772714D01*
X124351143Y-123534714D01*
X124968001Y-122772714D02*
X124605144Y-122772714D01*
X124568858Y-123135571D01*
X124605144Y-123099286D01*
X124677715Y-123063000D01*
X124859144Y-123063000D01*
X124931715Y-123099286D01*
X124968001Y-123135571D01*
X125004286Y-123208143D01*
X125004286Y-123389571D01*
X124968001Y-123462143D01*
X124931715Y-123498429D01*
X124859144Y-123534714D01*
X124677715Y-123534714D01*
X124605144Y-123498429D01*
X124568858Y-123462143D01*
X126455715Y-123317000D02*
X126818572Y-123317000D01*
X126383143Y-123534714D02*
X126637143Y-122772714D01*
X126891143Y-123534714D01*
X127072572Y-122772714D02*
X127544286Y-122772714D01*
X127290286Y-123063000D01*
X127399144Y-123063000D01*
X127471715Y-123099286D01*
X127508001Y-123135571D01*
X127544286Y-123208143D01*
X127544286Y-123389571D01*
X127508001Y-123462143D01*
X127471715Y-123498429D01*
X127399144Y-123534714D01*
X127181429Y-123534714D01*
X127108858Y-123498429D01*
X127072572Y-123462143D01*
X121012858Y-96647000D02*
X121375715Y-96647000D01*
X120940286Y-96864714D02*
X121194286Y-96102714D01*
X121448286Y-96864714D01*
X122101429Y-96864714D02*
X121666001Y-96864714D01*
X121883715Y-96864714D02*
X121883715Y-96102714D01*
X121811144Y-96211571D01*
X121738572Y-96284143D01*
X121666001Y-96320429D01*
X122754572Y-96356714D02*
X122754572Y-96864714D01*
X122573143Y-96066429D02*
X122391715Y-96610714D01*
X122863429Y-96610714D01*
X123552858Y-96647000D02*
X123915715Y-96647000D01*
X123480286Y-96864714D02*
X123734286Y-96102714D01*
X123988286Y-96864714D01*
X124641429Y-96864714D02*
X124206001Y-96864714D01*
X124423715Y-96864714D02*
X124423715Y-96102714D01*
X124351144Y-96211571D01*
X124278572Y-96284143D01*
X124206001Y-96320429D01*
X124931715Y-96175286D02*
X124968001Y-96139000D01*
X125040572Y-96102714D01*
X125222001Y-96102714D01*
X125294572Y-96139000D01*
X125330858Y-96175286D01*
X125367143Y-96247857D01*
X125367143Y-96320429D01*
X125330858Y-96429286D01*
X124895429Y-96864714D01*
X125367143Y-96864714D01*
X126092858Y-96647000D02*
X126455715Y-96647000D01*
X126020286Y-96864714D02*
X126274286Y-96102714D01*
X126528286Y-96864714D01*
X127181429Y-96864714D02*
X126746001Y-96864714D01*
X126963715Y-96864714D02*
X126963715Y-96102714D01*
X126891144Y-96211571D01*
X126818572Y-96284143D01*
X126746001Y-96320429D01*
X127653143Y-96102714D02*
X127725715Y-96102714D01*
X127798286Y-96139000D01*
X127834572Y-96175286D01*
X127870858Y-96247857D01*
X127907143Y-96393000D01*
X127907143Y-96574429D01*
X127870858Y-96719571D01*
X127834572Y-96792143D01*
X127798286Y-96828429D01*
X127725715Y-96864714D01*
X127653143Y-96864714D01*
X127580572Y-96828429D01*
X127544286Y-96792143D01*
X127508001Y-96719571D01*
X127471715Y-96574429D01*
X127471715Y-96393000D01*
X127508001Y-96247857D01*
X127544286Y-96175286D01*
X127580572Y-96139000D01*
X127653143Y-96102714D01*
X126092858Y-109347000D02*
X126455715Y-109347000D01*
X126020286Y-109564714D02*
X126274286Y-108802714D01*
X126528286Y-109564714D01*
X127181429Y-109564714D02*
X126746001Y-109564714D01*
X126963715Y-109564714D02*
X126963715Y-108802714D01*
X126891144Y-108911571D01*
X126818572Y-108984143D01*
X126746001Y-109020429D01*
X127907143Y-109564714D02*
X127471715Y-109564714D01*
X127689429Y-109564714D02*
X127689429Y-108802714D01*
X127616858Y-108911571D01*
X127544286Y-108984143D01*
X127471715Y-109020429D01*
X123552858Y-109347000D02*
X123915715Y-109347000D01*
X123480286Y-109564714D02*
X123734286Y-108802714D01*
X123988286Y-109564714D01*
X124641429Y-109564714D02*
X124206001Y-109564714D01*
X124423715Y-109564714D02*
X124423715Y-108802714D01*
X124351144Y-108911571D01*
X124278572Y-108984143D01*
X124206001Y-109020429D01*
X124895429Y-108802714D02*
X125367143Y-108802714D01*
X125113143Y-109093000D01*
X125222001Y-109093000D01*
X125294572Y-109129286D01*
X125330858Y-109165571D01*
X125367143Y-109238143D01*
X125367143Y-109419571D01*
X125330858Y-109492143D01*
X125294572Y-109528429D01*
X125222001Y-109564714D01*
X125004286Y-109564714D01*
X124931715Y-109528429D01*
X124895429Y-109492143D01*
X121012858Y-109347000D02*
X121375715Y-109347000D01*
X120940286Y-109564714D02*
X121194286Y-108802714D01*
X121448286Y-109564714D01*
X122101429Y-109564714D02*
X121666001Y-109564714D01*
X121883715Y-109564714D02*
X121883715Y-108802714D01*
X121811144Y-108911571D01*
X121738572Y-108984143D01*
X121666001Y-109020429D01*
X122790858Y-108802714D02*
X122428001Y-108802714D01*
X122391715Y-109165571D01*
X122428001Y-109129286D01*
X122500572Y-109093000D01*
X122682001Y-109093000D01*
X122754572Y-109129286D01*
X122790858Y-109165571D01*
X122827143Y-109238143D01*
X122827143Y-109419571D01*
X122790858Y-109492143D01*
X122754572Y-109528429D01*
X122682001Y-109564714D01*
X122500572Y-109564714D01*
X122428001Y-109528429D01*
X122391715Y-109492143D01*
X128995715Y-109347000D02*
X129358572Y-109347000D01*
X128923143Y-109564714D02*
X129177143Y-108802714D01*
X129431143Y-109564714D01*
X129721429Y-109564714D02*
X129866572Y-109564714D01*
X129939144Y-109528429D01*
X129975429Y-109492143D01*
X130048001Y-109383286D01*
X130084286Y-109238143D01*
X130084286Y-108947857D01*
X130048001Y-108875286D01*
X130011715Y-108839000D01*
X129939144Y-108802714D01*
X129794001Y-108802714D01*
X129721429Y-108839000D01*
X129685144Y-108875286D01*
X129648858Y-108947857D01*
X129648858Y-109129286D01*
X129685144Y-109201857D01*
X129721429Y-109238143D01*
X129794001Y-109274429D01*
X129939144Y-109274429D01*
X130011715Y-109238143D01*
X130048001Y-109201857D01*
X130084286Y-109129286D01*
X128995715Y-123317000D02*
X129358572Y-123317000D01*
X128923143Y-123534714D02*
X129177143Y-122772714D01*
X129431143Y-123534714D01*
X130084286Y-123534714D02*
X129648858Y-123534714D01*
X129866572Y-123534714D02*
X129866572Y-122772714D01*
X129794001Y-122881571D01*
X129721429Y-122954143D01*
X129648858Y-122990429D01*
D13*
X181591857Y-92074999D02*
X181664429Y-91857285D01*
X181664429Y-91494428D01*
X181591857Y-91349285D01*
X181519286Y-91276714D01*
X181374143Y-91204142D01*
X181229000Y-91204142D01*
X181083857Y-91276714D01*
X181011286Y-91349285D01*
X180938714Y-91494428D01*
X180866143Y-91784714D01*
X180793571Y-91929856D01*
X180721000Y-92002428D01*
X180575857Y-92074999D01*
X180430714Y-92074999D01*
X180285571Y-92002428D01*
X180213000Y-91929856D01*
X180140429Y-91784714D01*
X180140429Y-91421856D01*
X180213000Y-91204142D01*
X180140429Y-90696142D02*
X181664429Y-90333285D01*
X180575857Y-90042999D01*
X181664429Y-89752713D01*
X180140429Y-89389856D01*
X181664429Y-88809285D02*
X180140429Y-88809285D01*
X180140429Y-88301285D02*
X180140429Y-87430428D01*
X181664429Y-87865857D02*
X180140429Y-87865857D01*
X181519286Y-86051571D02*
X181591857Y-86124142D01*
X181664429Y-86341856D01*
X181664429Y-86486999D01*
X181591857Y-86704714D01*
X181446714Y-86849856D01*
X181301571Y-86922428D01*
X181011286Y-86994999D01*
X180793571Y-86994999D01*
X180503286Y-86922428D01*
X180358143Y-86849856D01*
X180213000Y-86704714D01*
X180140429Y-86486999D01*
X180140429Y-86341856D01*
X180213000Y-86124142D01*
X180285571Y-86051571D01*
X181664429Y-85398428D02*
X180140429Y-85398428D01*
X180866143Y-85398428D02*
X180866143Y-84527571D01*
X181664429Y-84527571D02*
X180140429Y-84527571D01*
D14*
X171752381Y-82096429D02*
X173687619Y-82096429D01*
X172720000Y-83064048D02*
X172720000Y-81128810D01*
D12*
X128995715Y-96647000D02*
X129358572Y-96647000D01*
X128923143Y-96864714D02*
X129177143Y-96102714D01*
X129431143Y-96864714D01*
X129794001Y-96429286D02*
X129721429Y-96393000D01*
X129685144Y-96356714D01*
X129648858Y-96284143D01*
X129648858Y-96247857D01*
X129685144Y-96175286D01*
X129721429Y-96139000D01*
X129794001Y-96102714D01*
X129939144Y-96102714D01*
X130011715Y-96139000D01*
X130048001Y-96175286D01*
X130084286Y-96247857D01*
X130084286Y-96284143D01*
X130048001Y-96356714D01*
X130011715Y-96393000D01*
X129939144Y-96429286D01*
X129794001Y-96429286D01*
X129721429Y-96465571D01*
X129685144Y-96501857D01*
X129648858Y-96574429D01*
X129648858Y-96719571D01*
X129685144Y-96792143D01*
X129721429Y-96828429D01*
X129794001Y-96864714D01*
X129939144Y-96864714D01*
X130011715Y-96828429D01*
X130048001Y-96792143D01*
X130084286Y-96719571D01*
X130084286Y-96574429D01*
X130048001Y-96501857D01*
X130011715Y-96465571D01*
X129939144Y-96429286D01*
X131499428Y-122809000D02*
X131426857Y-122772714D01*
X131318000Y-122772714D01*
X131209143Y-122809000D01*
X131136571Y-122881571D01*
X131100286Y-122954143D01*
X131064000Y-123099286D01*
X131064000Y-123208143D01*
X131100286Y-123353286D01*
X131136571Y-123425857D01*
X131209143Y-123498429D01*
X131318000Y-123534714D01*
X131390571Y-123534714D01*
X131499428Y-123498429D01*
X131535714Y-123462143D01*
X131535714Y-123208143D01*
X131390571Y-123208143D01*
X131862286Y-123534714D02*
X131862286Y-122772714D01*
X132297714Y-123534714D01*
X132297714Y-122772714D01*
X132660572Y-123534714D02*
X132660572Y-122772714D01*
X132842000Y-122772714D01*
X132950857Y-122809000D01*
X133023429Y-122881571D01*
X133059714Y-122954143D01*
X133096000Y-123099286D01*
X133096000Y-123208143D01*
X133059714Y-123353286D01*
X133023429Y-123425857D01*
X132950857Y-123498429D01*
X132842000Y-123534714D01*
X132660572Y-123534714D01*
X131100286Y-110544429D02*
X131680857Y-110544429D01*
X131390571Y-110834714D02*
X131390571Y-110254143D01*
X132406572Y-110072714D02*
X132043715Y-110072714D01*
X132007429Y-110435571D01*
X132043715Y-110399286D01*
X132116286Y-110363000D01*
X132297715Y-110363000D01*
X132370286Y-110399286D01*
X132406572Y-110435571D01*
X132442857Y-110508143D01*
X132442857Y-110689571D01*
X132406572Y-110762143D01*
X132370286Y-110798429D01*
X132297715Y-110834714D01*
X132116286Y-110834714D01*
X132043715Y-110798429D01*
X132007429Y-110762143D01*
X132660571Y-110072714D02*
X132914571Y-110834714D01*
X133168571Y-110072714D01*
D15*
X211455000Y-75565000D02*
X93345000Y-75565000D01*
X211455000Y-130175000D02*
X211455000Y-75565000D01*
X93345000Y-130175000D02*
X211455000Y-130175000D01*
X93345000Y-75565000D02*
X93345000Y-130175000D01*
D16*
X197853905Y-96592571D02*
X198628000Y-96592571D01*
X198240952Y-96979619D02*
X198240952Y-96205524D01*
X199644000Y-96979619D02*
X199063429Y-96979619D01*
X199353715Y-96979619D02*
X199353715Y-95963619D01*
X199256953Y-96108762D01*
X199160191Y-96205524D01*
X199063429Y-96253905D01*
X200031048Y-96060381D02*
X200079429Y-96012000D01*
X200176191Y-95963619D01*
X200418095Y-95963619D01*
X200514857Y-96012000D01*
X200563238Y-96060381D01*
X200611619Y-96157143D01*
X200611619Y-96253905D01*
X200563238Y-96399048D01*
X199982667Y-96979619D01*
X200611619Y-96979619D01*
X200901905Y-95963619D02*
X201240572Y-96979619D01*
X201579238Y-95963619D01*
X201917905Y-96979619D02*
X201917905Y-95963619D01*
X202159810Y-95963619D01*
X202304952Y-96012000D01*
X202401714Y-96108762D01*
X202450095Y-96205524D01*
X202498476Y-96399048D01*
X202498476Y-96544190D01*
X202450095Y-96737714D01*
X202401714Y-96834476D01*
X202304952Y-96931238D01*
X202159810Y-96979619D01*
X201917905Y-96979619D01*
X203514476Y-96882857D02*
X203466095Y-96931238D01*
X203320952Y-96979619D01*
X203224190Y-96979619D01*
X203079048Y-96931238D01*
X202982286Y-96834476D01*
X202933905Y-96737714D01*
X202885524Y-96544190D01*
X202885524Y-96399048D01*
X202933905Y-96205524D01*
X202982286Y-96108762D01*
X203079048Y-96012000D01*
X203224190Y-95963619D01*
X203320952Y-95963619D01*
X203466095Y-96012000D01*
X203514476Y-96060381D01*
X101358096Y-119204619D02*
X101358096Y-118188619D01*
X101600001Y-118188619D01*
X101745143Y-118237000D01*
X101841905Y-118333762D01*
X101890286Y-118430524D01*
X101938667Y-118624048D01*
X101938667Y-118769190D01*
X101890286Y-118962714D01*
X101841905Y-119059476D01*
X101745143Y-119156238D01*
X101600001Y-119204619D01*
X101358096Y-119204619D01*
X102374096Y-119204619D02*
X102374096Y-118188619D01*
X102809525Y-119156238D02*
X102954668Y-119204619D01*
X103196572Y-119204619D01*
X103293334Y-119156238D01*
X103341715Y-119107857D01*
X103390096Y-119011095D01*
X103390096Y-118914333D01*
X103341715Y-118817571D01*
X103293334Y-118769190D01*
X103196572Y-118720810D01*
X103003049Y-118672429D01*
X102906287Y-118624048D01*
X102857906Y-118575667D01*
X102809525Y-118478905D01*
X102809525Y-118382143D01*
X102857906Y-118285381D01*
X102906287Y-118237000D01*
X103003049Y-118188619D01*
X103244953Y-118188619D01*
X103390096Y-118237000D01*
X103825525Y-119204619D02*
X103825525Y-118188619D01*
X104212572Y-118188619D01*
X104309334Y-118237000D01*
X104357715Y-118285381D01*
X104406096Y-118382143D01*
X104406096Y-118527286D01*
X104357715Y-118624048D01*
X104309334Y-118672429D01*
X104212572Y-118720810D01*
X103825525Y-118720810D01*
X105325334Y-119204619D02*
X104841525Y-119204619D01*
X104841525Y-118188619D01*
X105615620Y-118914333D02*
X106099429Y-118914333D01*
X105518858Y-119204619D02*
X105857525Y-118188619D01*
X106196191Y-119204619D01*
X106728382Y-118720810D02*
X106728382Y-119204619D01*
X106389715Y-118188619D02*
X106728382Y-118720810D01*
X107067048Y-118188619D01*
D12*
X189574714Y-120287142D02*
X188812714Y-120287142D01*
X189574714Y-119851714D02*
X189175571Y-119851714D01*
X189103000Y-119900095D01*
X189066714Y-119996857D01*
X189066714Y-120141999D01*
X189103000Y-120238761D01*
X189139286Y-120287142D01*
X189066714Y-119513047D02*
X189066714Y-119125999D01*
X188812714Y-119367904D02*
X189465857Y-119367904D01*
X189538429Y-119319523D01*
X189574714Y-119222761D01*
X189574714Y-119125999D01*
X189066714Y-118932476D02*
X189066714Y-118545428D01*
X188812714Y-118787333D02*
X189465857Y-118787333D01*
X189538429Y-118738952D01*
X189574714Y-118642190D01*
X189574714Y-118545428D01*
X189066714Y-118206762D02*
X189828714Y-118206762D01*
X189103000Y-118206762D02*
X189066714Y-118110000D01*
X189066714Y-117916477D01*
X189103000Y-117819715D01*
X189139286Y-117771334D01*
X189211857Y-117722953D01*
X189429571Y-117722953D01*
X189502143Y-117771334D01*
X189538429Y-117819715D01*
X189574714Y-117916477D01*
X189574714Y-118110000D01*
X189538429Y-118206762D01*
X189538429Y-117335905D02*
X189574714Y-117239143D01*
X189574714Y-117045619D01*
X189538429Y-116948858D01*
X189465857Y-116900477D01*
X189429571Y-116900477D01*
X189357000Y-116948858D01*
X189320714Y-117045619D01*
X189320714Y-117190762D01*
X189284429Y-117287524D01*
X189211857Y-117335905D01*
X189175571Y-117335905D01*
X189103000Y-117287524D01*
X189066714Y-117190762D01*
X189066714Y-117045619D01*
X189103000Y-116948858D01*
X189502143Y-116465048D02*
X189538429Y-116416667D01*
X189574714Y-116465048D01*
X189538429Y-116513429D01*
X189502143Y-116465048D01*
X189574714Y-116465048D01*
X189103000Y-116465048D02*
X189139286Y-116416667D01*
X189175571Y-116465048D01*
X189139286Y-116513429D01*
X189103000Y-116465048D01*
X189175571Y-116465048D01*
X188776429Y-115255524D02*
X189756143Y-116126381D01*
X188776429Y-114191143D02*
X189756143Y-115062000D01*
X189066714Y-113417048D02*
X189683571Y-113417048D01*
X189756143Y-113465429D01*
X189792429Y-113513810D01*
X189828714Y-113610571D01*
X189828714Y-113755714D01*
X189792429Y-113852476D01*
X189538429Y-113417048D02*
X189574714Y-113513810D01*
X189574714Y-113707333D01*
X189538429Y-113804095D01*
X189502143Y-113852476D01*
X189429571Y-113900857D01*
X189211857Y-113900857D01*
X189139286Y-113852476D01*
X189103000Y-113804095D01*
X189066714Y-113707333D01*
X189066714Y-113513810D01*
X189103000Y-113417048D01*
X189574714Y-112933238D02*
X189066714Y-112933238D01*
X188812714Y-112933238D02*
X188849000Y-112981619D01*
X188885286Y-112933238D01*
X188849000Y-112884857D01*
X188812714Y-112933238D01*
X188885286Y-112933238D01*
X189066714Y-112594571D02*
X189066714Y-112207523D01*
X188812714Y-112449428D02*
X189465857Y-112449428D01*
X189538429Y-112401047D01*
X189574714Y-112304285D01*
X189574714Y-112207523D01*
X189574714Y-111868857D02*
X188812714Y-111868857D01*
X189574714Y-111433429D02*
X189175571Y-111433429D01*
X189103000Y-111481810D01*
X189066714Y-111578572D01*
X189066714Y-111723714D01*
X189103000Y-111820476D01*
X189139286Y-111868857D01*
X189066714Y-110514191D02*
X189574714Y-110514191D01*
X189066714Y-110949619D02*
X189465857Y-110949619D01*
X189538429Y-110901238D01*
X189574714Y-110804476D01*
X189574714Y-110659334D01*
X189538429Y-110562572D01*
X189502143Y-110514191D01*
X189574714Y-110030381D02*
X188812714Y-110030381D01*
X189103000Y-110030381D02*
X189066714Y-109933619D01*
X189066714Y-109740096D01*
X189103000Y-109643334D01*
X189139286Y-109594953D01*
X189211857Y-109546572D01*
X189429571Y-109546572D01*
X189502143Y-109594953D01*
X189538429Y-109643334D01*
X189574714Y-109740096D01*
X189574714Y-109933619D01*
X189538429Y-110030381D01*
X189502143Y-109111143D02*
X189538429Y-109062762D01*
X189574714Y-109111143D01*
X189538429Y-109159524D01*
X189502143Y-109111143D01*
X189574714Y-109111143D01*
X189538429Y-108191905D02*
X189574714Y-108288667D01*
X189574714Y-108482190D01*
X189538429Y-108578952D01*
X189502143Y-108627333D01*
X189429571Y-108675714D01*
X189211857Y-108675714D01*
X189139286Y-108627333D01*
X189103000Y-108578952D01*
X189066714Y-108482190D01*
X189066714Y-108288667D01*
X189103000Y-108191905D01*
X189574714Y-107611333D02*
X189538429Y-107708095D01*
X189502143Y-107756476D01*
X189429571Y-107804857D01*
X189211857Y-107804857D01*
X189139286Y-107756476D01*
X189103000Y-107708095D01*
X189066714Y-107611333D01*
X189066714Y-107466191D01*
X189103000Y-107369429D01*
X189139286Y-107321048D01*
X189211857Y-107272667D01*
X189429571Y-107272667D01*
X189502143Y-107321048D01*
X189538429Y-107369429D01*
X189574714Y-107466191D01*
X189574714Y-107611333D01*
X189574714Y-106837238D02*
X189066714Y-106837238D01*
X189139286Y-106837238D02*
X189103000Y-106788857D01*
X189066714Y-106692095D01*
X189066714Y-106546953D01*
X189103000Y-106450191D01*
X189175571Y-106401810D01*
X189574714Y-106401810D01*
X189175571Y-106401810D02*
X189103000Y-106353429D01*
X189066714Y-106256667D01*
X189066714Y-106111524D01*
X189103000Y-106014762D01*
X189175571Y-105966381D01*
X189574714Y-105966381D01*
X188776429Y-104756857D02*
X189756143Y-105627714D01*
X189066714Y-104418190D02*
X189719857Y-104418190D01*
X189792429Y-104466571D01*
X189828714Y-104563333D01*
X189828714Y-104611714D01*
X188812714Y-104418190D02*
X188849000Y-104466571D01*
X188885286Y-104418190D01*
X188849000Y-104369809D01*
X188812714Y-104418190D01*
X188885286Y-104418190D01*
X189574714Y-103498952D02*
X189175571Y-103498952D01*
X189103000Y-103547333D01*
X189066714Y-103644095D01*
X189066714Y-103837618D01*
X189103000Y-103934380D01*
X189538429Y-103498952D02*
X189574714Y-103595714D01*
X189574714Y-103837618D01*
X189538429Y-103934380D01*
X189465857Y-103982761D01*
X189393286Y-103982761D01*
X189320714Y-103934380D01*
X189284429Y-103837618D01*
X189284429Y-103595714D01*
X189248143Y-103498952D01*
X189066714Y-103015142D02*
X189574714Y-103015142D01*
X189139286Y-103015142D02*
X189103000Y-102966761D01*
X189066714Y-102869999D01*
X189066714Y-102724857D01*
X189103000Y-102628095D01*
X189175571Y-102579714D01*
X189574714Y-102579714D01*
X189538429Y-101708857D02*
X189574714Y-101805619D01*
X189574714Y-101999142D01*
X189538429Y-102095904D01*
X189465857Y-102144285D01*
X189175571Y-102144285D01*
X189103000Y-102095904D01*
X189066714Y-101999142D01*
X189066714Y-101805619D01*
X189103000Y-101708857D01*
X189175571Y-101660476D01*
X189248143Y-101660476D01*
X189320714Y-102144285D01*
X189574714Y-101079904D02*
X189538429Y-101176666D01*
X189465857Y-101225047D01*
X188812714Y-101225047D01*
X189574714Y-100692857D02*
X189066714Y-100692857D01*
X188812714Y-100692857D02*
X188849000Y-100741238D01*
X188885286Y-100692857D01*
X188849000Y-100644476D01*
X188812714Y-100692857D01*
X188885286Y-100692857D01*
X189574714Y-99773619D02*
X189175571Y-99773619D01*
X189103000Y-99822000D01*
X189066714Y-99918762D01*
X189066714Y-100112285D01*
X189103000Y-100209047D01*
X189538429Y-99773619D02*
X189574714Y-99870381D01*
X189574714Y-100112285D01*
X189538429Y-100209047D01*
X189465857Y-100257428D01*
X189393286Y-100257428D01*
X189320714Y-100209047D01*
X189284429Y-100112285D01*
X189284429Y-99870381D01*
X189248143Y-99773619D01*
X189284429Y-99289809D02*
X189284429Y-98515714D01*
X189574714Y-98031904D02*
X189066714Y-98031904D01*
X189139286Y-98031904D02*
X189103000Y-97983523D01*
X189066714Y-97886761D01*
X189066714Y-97741619D01*
X189103000Y-97644857D01*
X189175571Y-97596476D01*
X189574714Y-97596476D01*
X189175571Y-97596476D02*
X189103000Y-97548095D01*
X189066714Y-97451333D01*
X189066714Y-97306190D01*
X189103000Y-97209428D01*
X189175571Y-97161047D01*
X189574714Y-97161047D01*
X189574714Y-96532094D02*
X189538429Y-96628856D01*
X189502143Y-96677237D01*
X189429571Y-96725618D01*
X189211857Y-96725618D01*
X189139286Y-96677237D01*
X189103000Y-96628856D01*
X189066714Y-96532094D01*
X189066714Y-96386952D01*
X189103000Y-96290190D01*
X189139286Y-96241809D01*
X189211857Y-96193428D01*
X189429571Y-96193428D01*
X189502143Y-96241809D01*
X189538429Y-96290190D01*
X189574714Y-96386952D01*
X189574714Y-96532094D01*
X189574714Y-95322571D02*
X188812714Y-95322571D01*
X189538429Y-95322571D02*
X189574714Y-95419333D01*
X189574714Y-95612856D01*
X189538429Y-95709618D01*
X189502143Y-95757999D01*
X189429571Y-95806380D01*
X189211857Y-95806380D01*
X189139286Y-95757999D01*
X189103000Y-95709618D01*
X189066714Y-95612856D01*
X189066714Y-95419333D01*
X189103000Y-95322571D01*
X189066714Y-94403333D02*
X189574714Y-94403333D01*
X189066714Y-94838761D02*
X189465857Y-94838761D01*
X189538429Y-94790380D01*
X189574714Y-94693618D01*
X189574714Y-94548476D01*
X189538429Y-94451714D01*
X189502143Y-94403333D01*
X189574714Y-93774380D02*
X189538429Y-93871142D01*
X189465857Y-93919523D01*
X188812714Y-93919523D01*
X189574714Y-92951905D02*
X189175571Y-92951905D01*
X189103000Y-93000286D01*
X189066714Y-93097048D01*
X189066714Y-93290571D01*
X189103000Y-93387333D01*
X189538429Y-92951905D02*
X189574714Y-93048667D01*
X189574714Y-93290571D01*
X189538429Y-93387333D01*
X189465857Y-93435714D01*
X189393286Y-93435714D01*
X189320714Y-93387333D01*
X189284429Y-93290571D01*
X189284429Y-93048667D01*
X189248143Y-92951905D01*
X189574714Y-92468095D02*
X189066714Y-92468095D01*
X189211857Y-92468095D02*
X189139286Y-92419714D01*
X189103000Y-92371333D01*
X189066714Y-92274571D01*
X189066714Y-92177810D01*
X189284429Y-91839143D02*
X189284429Y-91065048D01*
X189574714Y-90145810D02*
X188812714Y-90145810D01*
X189538429Y-90145810D02*
X189574714Y-90242572D01*
X189574714Y-90436095D01*
X189538429Y-90532857D01*
X189502143Y-90581238D01*
X189429571Y-90629619D01*
X189211857Y-90629619D01*
X189139286Y-90581238D01*
X189103000Y-90532857D01*
X189066714Y-90436095D01*
X189066714Y-90242572D01*
X189103000Y-90145810D01*
X189538429Y-89274953D02*
X189574714Y-89371715D01*
X189574714Y-89565238D01*
X189538429Y-89662000D01*
X189465857Y-89710381D01*
X189175571Y-89710381D01*
X189103000Y-89662000D01*
X189066714Y-89565238D01*
X189066714Y-89371715D01*
X189103000Y-89274953D01*
X189175571Y-89226572D01*
X189248143Y-89226572D01*
X189320714Y-89710381D01*
X189066714Y-88887905D02*
X189574714Y-88646000D01*
X189066714Y-88404096D01*
X189574714Y-88017048D02*
X189066714Y-88017048D01*
X188812714Y-88017048D02*
X188849000Y-88065429D01*
X188885286Y-88017048D01*
X188849000Y-87968667D01*
X188812714Y-88017048D01*
X188885286Y-88017048D01*
X189538429Y-87097810D02*
X189574714Y-87194572D01*
X189574714Y-87388095D01*
X189538429Y-87484857D01*
X189502143Y-87533238D01*
X189429571Y-87581619D01*
X189211857Y-87581619D01*
X189139286Y-87533238D01*
X189103000Y-87484857D01*
X189066714Y-87388095D01*
X189066714Y-87194572D01*
X189103000Y-87097810D01*
X189538429Y-86275334D02*
X189574714Y-86372096D01*
X189574714Y-86565619D01*
X189538429Y-86662381D01*
X189465857Y-86710762D01*
X189175571Y-86710762D01*
X189103000Y-86662381D01*
X189066714Y-86565619D01*
X189066714Y-86372096D01*
X189103000Y-86275334D01*
X189175571Y-86226953D01*
X189248143Y-86226953D01*
X189320714Y-86710762D01*
X189538429Y-85839905D02*
X189574714Y-85743143D01*
X189574714Y-85549619D01*
X189538429Y-85452858D01*
X189465857Y-85404477D01*
X189429571Y-85404477D01*
X189357000Y-85452858D01*
X189320714Y-85549619D01*
X189320714Y-85694762D01*
X189284429Y-85791524D01*
X189211857Y-85839905D01*
X189175571Y-85839905D01*
X189103000Y-85791524D01*
X189066714Y-85694762D01*
X189066714Y-85549619D01*
X189103000Y-85452858D01*
D16*
X203939019Y-94119094D02*
X204664733Y-94119094D01*
X204809876Y-94167474D01*
X204906638Y-94264236D01*
X204955019Y-94409379D01*
X204955019Y-94506141D01*
X204955019Y-93199856D02*
X204422829Y-93199856D01*
X204326067Y-93248237D01*
X204277686Y-93344999D01*
X204277686Y-93538522D01*
X204326067Y-93635284D01*
X204906638Y-93199856D02*
X204955019Y-93296618D01*
X204955019Y-93538522D01*
X204906638Y-93635284D01*
X204809876Y-93683665D01*
X204713114Y-93683665D01*
X204616352Y-93635284D01*
X204567971Y-93538522D01*
X204567971Y-93296618D01*
X204519590Y-93199856D01*
X204277686Y-92716046D02*
X204955019Y-92716046D01*
X204374448Y-92716046D02*
X204326067Y-92667665D01*
X204277686Y-92570903D01*
X204277686Y-92425761D01*
X204326067Y-92328999D01*
X204422829Y-92280618D01*
X204955019Y-92280618D01*
X204906638Y-91409761D02*
X204955019Y-91506523D01*
X204955019Y-91700046D01*
X204906638Y-91796808D01*
X204809876Y-91845189D01*
X204422829Y-91845189D01*
X204326067Y-91796808D01*
X204277686Y-91700046D01*
X204277686Y-91506523D01*
X204326067Y-91409761D01*
X204422829Y-91361380D01*
X204519590Y-91361380D01*
X204616352Y-91845189D01*
X204955019Y-90780808D02*
X204906638Y-90877570D01*
X204809876Y-90925951D01*
X203939019Y-90925951D01*
X204955019Y-90393761D02*
X204277686Y-90393761D01*
X203939019Y-90393761D02*
X203987400Y-90442142D01*
X204035781Y-90393761D01*
X203987400Y-90345380D01*
X203939019Y-90393761D01*
X204035781Y-90393761D01*
X204955019Y-89474523D02*
X204422829Y-89474523D01*
X204326067Y-89522904D01*
X204277686Y-89619666D01*
X204277686Y-89813189D01*
X204326067Y-89909951D01*
X204906638Y-89474523D02*
X204955019Y-89571285D01*
X204955019Y-89813189D01*
X204906638Y-89909951D01*
X204809876Y-89958332D01*
X204713114Y-89958332D01*
X204616352Y-89909951D01*
X204567971Y-89813189D01*
X204567971Y-89571285D01*
X204519590Y-89474523D01*
X204955019Y-88216618D02*
X203939019Y-88216618D01*
X204664733Y-87877952D01*
X203939019Y-87539285D01*
X204955019Y-87539285D01*
X204955019Y-86910332D02*
X204906638Y-87007094D01*
X204858257Y-87055475D01*
X204761495Y-87103856D01*
X204471210Y-87103856D01*
X204374448Y-87055475D01*
X204326067Y-87007094D01*
X204277686Y-86910332D01*
X204277686Y-86765190D01*
X204326067Y-86668428D01*
X204374448Y-86620047D01*
X204471210Y-86571666D01*
X204761495Y-86571666D01*
X204858257Y-86620047D01*
X204906638Y-86668428D01*
X204955019Y-86765190D01*
X204955019Y-86910332D01*
X204955019Y-85700809D02*
X203939019Y-85700809D01*
X204906638Y-85700809D02*
X204955019Y-85797571D01*
X204955019Y-85991094D01*
X204906638Y-86087856D01*
X204858257Y-86136237D01*
X204761495Y-86184618D01*
X204471210Y-86184618D01*
X204374448Y-86136237D01*
X204326067Y-86087856D01*
X204277686Y-85991094D01*
X204277686Y-85797571D01*
X204326067Y-85700809D01*
X204277686Y-84781571D02*
X204955019Y-84781571D01*
X204277686Y-85216999D02*
X204809876Y-85216999D01*
X204906638Y-85168618D01*
X204955019Y-85071856D01*
X204955019Y-84926714D01*
X204906638Y-84829952D01*
X204858257Y-84781571D01*
X204955019Y-84152618D02*
X204906638Y-84249380D01*
X204809876Y-84297761D01*
X203939019Y-84297761D01*
X204955019Y-83330143D02*
X204422829Y-83330143D01*
X204326067Y-83378524D01*
X204277686Y-83475286D01*
X204277686Y-83668809D01*
X204326067Y-83765571D01*
X204906638Y-83330143D02*
X204955019Y-83426905D01*
X204955019Y-83668809D01*
X204906638Y-83765571D01*
X204809876Y-83813952D01*
X204713114Y-83813952D01*
X204616352Y-83765571D01*
X204567971Y-83668809D01*
X204567971Y-83426905D01*
X204519590Y-83330143D01*
X204955019Y-82846333D02*
X204277686Y-82846333D01*
X204471210Y-82846333D02*
X204374448Y-82797952D01*
X204326067Y-82749571D01*
X204277686Y-82652809D01*
X204277686Y-82556048D01*
X204955019Y-81443286D02*
X203939019Y-81443286D01*
X203939019Y-81201381D01*
X203987400Y-81056239D01*
X204084162Y-80959477D01*
X204180924Y-80911096D01*
X204374448Y-80862715D01*
X204519590Y-80862715D01*
X204713114Y-80911096D01*
X204809876Y-80959477D01*
X204906638Y-81056239D01*
X204955019Y-81201381D01*
X204955019Y-81443286D01*
X204906638Y-80040239D02*
X204955019Y-80137001D01*
X204955019Y-80330524D01*
X204906638Y-80427286D01*
X204809876Y-80475667D01*
X204422829Y-80475667D01*
X204326067Y-80427286D01*
X204277686Y-80330524D01*
X204277686Y-80137001D01*
X204326067Y-80040239D01*
X204422829Y-79991858D01*
X204519590Y-79991858D01*
X204616352Y-80475667D01*
X204277686Y-79653191D02*
X204955019Y-79411286D01*
X204277686Y-79169382D01*
X204955019Y-78782334D02*
X204277686Y-78782334D01*
X203939019Y-78782334D02*
X203987400Y-78830715D01*
X204035781Y-78782334D01*
X203987400Y-78733953D01*
X203939019Y-78782334D01*
X204035781Y-78782334D01*
X204906638Y-77863096D02*
X204955019Y-77959858D01*
X204955019Y-78153381D01*
X204906638Y-78250143D01*
X204858257Y-78298524D01*
X204761495Y-78346905D01*
X204471210Y-78346905D01*
X204374448Y-78298524D01*
X204326067Y-78250143D01*
X204277686Y-78153381D01*
X204277686Y-77959858D01*
X204326067Y-77863096D01*
X204906638Y-77040620D02*
X204955019Y-77137382D01*
X204955019Y-77330905D01*
X204906638Y-77427667D01*
X204809876Y-77476048D01*
X204422829Y-77476048D01*
X204326067Y-77427667D01*
X204277686Y-77330905D01*
X204277686Y-77137382D01*
X204326067Y-77040620D01*
X204422829Y-76992239D01*
X204519590Y-76992239D01*
X204616352Y-77476048D01*
X206631419Y-94481950D02*
X205954086Y-94481950D01*
X206050848Y-94481950D02*
X206002467Y-94433569D01*
X205954086Y-94336807D01*
X205954086Y-94191665D01*
X206002467Y-94094903D01*
X206099229Y-94046522D01*
X206631419Y-94046522D01*
X206099229Y-94046522D02*
X206002467Y-93998141D01*
X205954086Y-93901379D01*
X205954086Y-93756236D01*
X206002467Y-93659474D01*
X206099229Y-93611093D01*
X206631419Y-93611093D01*
X206631419Y-93127283D02*
X205954086Y-93127283D01*
X205615419Y-93127283D02*
X205663800Y-93175664D01*
X205712181Y-93127283D01*
X205663800Y-93078902D01*
X205615419Y-93127283D01*
X205712181Y-93127283D01*
X206631419Y-92740235D02*
X205954086Y-92208045D01*
X205954086Y-92740235D02*
X206631419Y-92208045D01*
X206583038Y-91433950D02*
X206631419Y-91530712D01*
X206631419Y-91724235D01*
X206583038Y-91820997D01*
X206486276Y-91869378D01*
X206099229Y-91869378D01*
X206002467Y-91820997D01*
X205954086Y-91724235D01*
X205954086Y-91530712D01*
X206002467Y-91433950D01*
X206099229Y-91385569D01*
X206195990Y-91385569D01*
X206292752Y-91869378D01*
X206631419Y-90514712D02*
X205615419Y-90514712D01*
X206583038Y-90514712D02*
X206631419Y-90611474D01*
X206631419Y-90804997D01*
X206583038Y-90901759D01*
X206534657Y-90950140D01*
X206437895Y-90998521D01*
X206147610Y-90998521D01*
X206050848Y-90950140D01*
X206002467Y-90901759D01*
X205954086Y-90804997D01*
X205954086Y-90611474D01*
X206002467Y-90514712D01*
X206728181Y-90272807D02*
X206728181Y-89498712D01*
X206583038Y-89305188D02*
X206631419Y-89208426D01*
X206631419Y-89014902D01*
X206583038Y-88918141D01*
X206486276Y-88869760D01*
X206437895Y-88869760D01*
X206341133Y-88918141D01*
X206292752Y-89014902D01*
X206292752Y-89160045D01*
X206244371Y-89256807D01*
X206147610Y-89305188D01*
X206099229Y-89305188D01*
X206002467Y-89256807D01*
X205954086Y-89160045D01*
X205954086Y-89014902D01*
X206002467Y-88918141D01*
X206631419Y-88434331D02*
X205954086Y-88434331D01*
X205615419Y-88434331D02*
X205663800Y-88482712D01*
X205712181Y-88434331D01*
X205663800Y-88385950D01*
X205615419Y-88434331D01*
X205712181Y-88434331D01*
X205954086Y-87515093D02*
X206776562Y-87515093D01*
X206873324Y-87563474D01*
X206921705Y-87611855D01*
X206970086Y-87708616D01*
X206970086Y-87853759D01*
X206921705Y-87950521D01*
X206583038Y-87515093D02*
X206631419Y-87611855D01*
X206631419Y-87805378D01*
X206583038Y-87902140D01*
X206534657Y-87950521D01*
X206437895Y-87998902D01*
X206147610Y-87998902D01*
X206050848Y-87950521D01*
X206002467Y-87902140D01*
X205954086Y-87805378D01*
X205954086Y-87611855D01*
X206002467Y-87515093D01*
X205954086Y-87031283D02*
X206631419Y-87031283D01*
X206050848Y-87031283D02*
X206002467Y-86982902D01*
X205954086Y-86886140D01*
X205954086Y-86740998D01*
X206002467Y-86644236D01*
X206099229Y-86595855D01*
X206631419Y-86595855D01*
X206631419Y-85676617D02*
X206099229Y-85676617D01*
X206002467Y-85724998D01*
X205954086Y-85821760D01*
X205954086Y-86015283D01*
X206002467Y-86112045D01*
X206583038Y-85676617D02*
X206631419Y-85773379D01*
X206631419Y-86015283D01*
X206583038Y-86112045D01*
X206486276Y-86160426D01*
X206389514Y-86160426D01*
X206292752Y-86112045D01*
X206244371Y-86015283D01*
X206244371Y-85773379D01*
X206195990Y-85676617D01*
X206631419Y-85047664D02*
X206583038Y-85144426D01*
X206486276Y-85192807D01*
X205615419Y-85192807D01*
X206728181Y-84902522D02*
X206728181Y-84128427D01*
X206583038Y-83451094D02*
X206631419Y-83547856D01*
X206631419Y-83741379D01*
X206583038Y-83838141D01*
X206534657Y-83886522D01*
X206437895Y-83934903D01*
X206147610Y-83934903D01*
X206050848Y-83886522D01*
X206002467Y-83838141D01*
X205954086Y-83741379D01*
X205954086Y-83547856D01*
X206002467Y-83451094D01*
X206631419Y-82870522D02*
X206583038Y-82967284D01*
X206534657Y-83015665D01*
X206437895Y-83064046D01*
X206147610Y-83064046D01*
X206050848Y-83015665D01*
X206002467Y-82967284D01*
X205954086Y-82870522D01*
X205954086Y-82725380D01*
X206002467Y-82628618D01*
X206050848Y-82580237D01*
X206147610Y-82531856D01*
X206437895Y-82531856D01*
X206534657Y-82580237D01*
X206583038Y-82628618D01*
X206631419Y-82725380D01*
X206631419Y-82870522D01*
X205954086Y-82096427D02*
X206631419Y-82096427D01*
X206050848Y-82096427D02*
X206002467Y-82048046D01*
X205954086Y-81951284D01*
X205954086Y-81806142D01*
X206002467Y-81709380D01*
X206099229Y-81660999D01*
X206631419Y-81660999D01*
X205954086Y-81322332D02*
X205954086Y-80935284D01*
X205615419Y-81177189D02*
X206486276Y-81177189D01*
X206583038Y-81128808D01*
X206631419Y-81032046D01*
X206631419Y-80935284D01*
X206631419Y-80596618D02*
X205954086Y-80596618D01*
X206147610Y-80596618D02*
X206050848Y-80548237D01*
X206002467Y-80499856D01*
X205954086Y-80403094D01*
X205954086Y-80306333D01*
X206631419Y-79822523D02*
X206583038Y-79919285D01*
X206534657Y-79967666D01*
X206437895Y-80016047D01*
X206147610Y-80016047D01*
X206050848Y-79967666D01*
X206002467Y-79919285D01*
X205954086Y-79822523D01*
X205954086Y-79677381D01*
X206002467Y-79580619D01*
X206050848Y-79532238D01*
X206147610Y-79483857D01*
X206437895Y-79483857D01*
X206534657Y-79532238D01*
X206583038Y-79580619D01*
X206631419Y-79677381D01*
X206631419Y-79822523D01*
X206631419Y-78903285D02*
X206583038Y-79000047D01*
X206486276Y-79048428D01*
X205615419Y-79048428D01*
X206631419Y-78371095D02*
X206583038Y-78467857D01*
X206486276Y-78516238D01*
X205615419Y-78516238D01*
X206583038Y-77597001D02*
X206631419Y-77693763D01*
X206631419Y-77887286D01*
X206583038Y-77984048D01*
X206486276Y-78032429D01*
X206099229Y-78032429D01*
X206002467Y-77984048D01*
X205954086Y-77887286D01*
X205954086Y-77693763D01*
X206002467Y-77597001D01*
X206099229Y-77548620D01*
X206195990Y-77548620D01*
X206292752Y-78032429D01*
X206631419Y-77113191D02*
X205954086Y-77113191D01*
X206147610Y-77113191D02*
X206050848Y-77064810D01*
X206002467Y-77016429D01*
X205954086Y-76919667D01*
X205954086Y-76822906D01*
X208307819Y-93538523D02*
X207630486Y-93538523D01*
X207727248Y-93538523D02*
X207678867Y-93490142D01*
X207630486Y-93393380D01*
X207630486Y-93248238D01*
X207678867Y-93151476D01*
X207775629Y-93103095D01*
X208307819Y-93103095D01*
X207775629Y-93103095D02*
X207678867Y-93054714D01*
X207630486Y-92957952D01*
X207630486Y-92812809D01*
X207678867Y-92716047D01*
X207775629Y-92667666D01*
X208307819Y-92667666D01*
X208307819Y-92038713D02*
X208259438Y-92135475D01*
X208211057Y-92183856D01*
X208114295Y-92232237D01*
X207824010Y-92232237D01*
X207727248Y-92183856D01*
X207678867Y-92135475D01*
X207630486Y-92038713D01*
X207630486Y-91893571D01*
X207678867Y-91796809D01*
X207727248Y-91748428D01*
X207824010Y-91700047D01*
X208114295Y-91700047D01*
X208211057Y-91748428D01*
X208259438Y-91796809D01*
X208307819Y-91893571D01*
X208307819Y-92038713D01*
X208307819Y-90829190D02*
X207291819Y-90829190D01*
X208259438Y-90829190D02*
X208307819Y-90925952D01*
X208307819Y-91119475D01*
X208259438Y-91216237D01*
X208211057Y-91264618D01*
X208114295Y-91312999D01*
X207824010Y-91312999D01*
X207727248Y-91264618D01*
X207678867Y-91216237D01*
X207630486Y-91119475D01*
X207630486Y-90925952D01*
X207678867Y-90829190D01*
X208259438Y-89958333D02*
X208307819Y-90055095D01*
X208307819Y-90248618D01*
X208259438Y-90345380D01*
X208162676Y-90393761D01*
X207775629Y-90393761D01*
X207678867Y-90345380D01*
X207630486Y-90248618D01*
X207630486Y-90055095D01*
X207678867Y-89958333D01*
X207775629Y-89909952D01*
X207872390Y-89909952D01*
X207969152Y-90393761D01*
X208307819Y-89329380D02*
X208259438Y-89426142D01*
X208162676Y-89474523D01*
X207291819Y-89474523D01*
X208404581Y-89184238D02*
X208404581Y-88410143D01*
X207630486Y-88168238D02*
X208307819Y-88168238D01*
X207727248Y-88168238D02*
X207678867Y-88119857D01*
X207630486Y-88023095D01*
X207630486Y-87877953D01*
X207678867Y-87781191D01*
X207775629Y-87732810D01*
X208307819Y-87732810D01*
X207630486Y-86813572D02*
X208307819Y-86813572D01*
X207630486Y-87249000D02*
X208162676Y-87249000D01*
X208259438Y-87200619D01*
X208307819Y-87103857D01*
X208307819Y-86958715D01*
X208259438Y-86861953D01*
X208211057Y-86813572D01*
X208307819Y-86329762D02*
X207630486Y-86329762D01*
X207727248Y-86329762D02*
X207678867Y-86281381D01*
X207630486Y-86184619D01*
X207630486Y-86039477D01*
X207678867Y-85942715D01*
X207775629Y-85894334D01*
X208307819Y-85894334D01*
X207775629Y-85894334D02*
X207678867Y-85845953D01*
X207630486Y-85749191D01*
X207630486Y-85604048D01*
X207678867Y-85507286D01*
X207775629Y-85458905D01*
X208307819Y-85458905D01*
X208307819Y-84975095D02*
X207291819Y-84975095D01*
X207678867Y-84975095D02*
X207630486Y-84878333D01*
X207630486Y-84684810D01*
X207678867Y-84588048D01*
X207727248Y-84539667D01*
X207824010Y-84491286D01*
X208114295Y-84491286D01*
X208211057Y-84539667D01*
X208259438Y-84588048D01*
X208307819Y-84684810D01*
X208307819Y-84878333D01*
X208259438Y-84975095D01*
X208259438Y-83668810D02*
X208307819Y-83765572D01*
X208307819Y-83959095D01*
X208259438Y-84055857D01*
X208162676Y-84104238D01*
X207775629Y-84104238D01*
X207678867Y-84055857D01*
X207630486Y-83959095D01*
X207630486Y-83765572D01*
X207678867Y-83668810D01*
X207775629Y-83620429D01*
X207872390Y-83620429D01*
X207969152Y-84104238D01*
X208307819Y-83185000D02*
X207630486Y-83185000D01*
X207824010Y-83185000D02*
X207727248Y-83136619D01*
X207678867Y-83088238D01*
X207630486Y-82991476D01*
X207630486Y-82894715D01*
X208211057Y-82556048D02*
X208259438Y-82507667D01*
X208307819Y-82556048D01*
X208259438Y-82604429D01*
X208211057Y-82556048D01*
X208307819Y-82556048D01*
X207678867Y-82556048D02*
X207727248Y-82507667D01*
X207775629Y-82556048D01*
X207727248Y-82604429D01*
X207678867Y-82556048D01*
X207775629Y-82556048D01*
X208307819Y-80765953D02*
X208307819Y-81346524D01*
X208307819Y-81056238D02*
X207291819Y-81056238D01*
X207436962Y-81153000D01*
X207533724Y-81249762D01*
X207582105Y-81346524D01*
X208307819Y-79798334D02*
X208307819Y-80378905D01*
X208307819Y-80088619D02*
X207291819Y-80088619D01*
X207436962Y-80185381D01*
X207533724Y-80282143D01*
X207582105Y-80378905D01*
X207388581Y-79411286D02*
X207340200Y-79362905D01*
X207291819Y-79266143D01*
X207291819Y-79024239D01*
X207340200Y-78927477D01*
X207388581Y-78879096D01*
X207485343Y-78830715D01*
X207582105Y-78830715D01*
X207727248Y-78879096D01*
X208307819Y-79459667D01*
X208307819Y-78830715D01*
X207291819Y-78201762D02*
X207291819Y-78105001D01*
X207340200Y-78008239D01*
X207388581Y-77959858D01*
X207485343Y-77911477D01*
X207678867Y-77863096D01*
X207920771Y-77863096D01*
X208114295Y-77911477D01*
X208211057Y-77959858D01*
X208259438Y-78008239D01*
X208307819Y-78105001D01*
X208307819Y-78201762D01*
X208259438Y-78298524D01*
X208211057Y-78346905D01*
X208114295Y-78395286D01*
X207920771Y-78443667D01*
X207678867Y-78443667D01*
X207485343Y-78395286D01*
X207388581Y-78346905D01*
X207340200Y-78298524D01*
X207291819Y-78201762D01*
X208968219Y-93417570D02*
X208968219Y-93320809D01*
X209016600Y-93224047D01*
X209064981Y-93175666D01*
X209161743Y-93127285D01*
X209355267Y-93078904D01*
X209597171Y-93078904D01*
X209790695Y-93127285D01*
X209887457Y-93175666D01*
X209935838Y-93224047D01*
X209984219Y-93320809D01*
X209984219Y-93417570D01*
X209935838Y-93514332D01*
X209887457Y-93562713D01*
X209790695Y-93611094D01*
X209597171Y-93659475D01*
X209355267Y-93659475D01*
X209161743Y-93611094D01*
X209064981Y-93562713D01*
X209016600Y-93514332D01*
X208968219Y-93417570D01*
X209403648Y-92498332D02*
X209355267Y-92595094D01*
X209306886Y-92643475D01*
X209210124Y-92691856D01*
X209161743Y-92691856D01*
X209064981Y-92643475D01*
X209016600Y-92595094D01*
X208968219Y-92498332D01*
X208968219Y-92304809D01*
X209016600Y-92208047D01*
X209064981Y-92159666D01*
X209161743Y-92111285D01*
X209210124Y-92111285D01*
X209306886Y-92159666D01*
X209355267Y-92208047D01*
X209403648Y-92304809D01*
X209403648Y-92498332D01*
X209452029Y-92595094D01*
X209500410Y-92643475D01*
X209597171Y-92691856D01*
X209790695Y-92691856D01*
X209887457Y-92643475D01*
X209935838Y-92595094D01*
X209984219Y-92498332D01*
X209984219Y-92304809D01*
X209935838Y-92208047D01*
X209887457Y-92159666D01*
X209790695Y-92111285D01*
X209597171Y-92111285D01*
X209500410Y-92159666D01*
X209452029Y-92208047D01*
X209403648Y-92304809D01*
X208919838Y-90950142D02*
X210226124Y-91820999D01*
X209064981Y-90659856D02*
X209016600Y-90611475D01*
X208968219Y-90514713D01*
X208968219Y-90272809D01*
X209016600Y-90176047D01*
X209064981Y-90127666D01*
X209161743Y-90079285D01*
X209258505Y-90079285D01*
X209403648Y-90127666D01*
X209984219Y-90708237D01*
X209984219Y-90079285D01*
X208968219Y-89450332D02*
X208968219Y-89353571D01*
X209016600Y-89256809D01*
X209064981Y-89208428D01*
X209161743Y-89160047D01*
X209355267Y-89111666D01*
X209597171Y-89111666D01*
X209790695Y-89160047D01*
X209887457Y-89208428D01*
X209935838Y-89256809D01*
X209984219Y-89353571D01*
X209984219Y-89450332D01*
X209935838Y-89547094D01*
X209887457Y-89595475D01*
X209790695Y-89643856D01*
X209597171Y-89692237D01*
X209355267Y-89692237D01*
X209161743Y-89643856D01*
X209064981Y-89595475D01*
X209016600Y-89547094D01*
X208968219Y-89450332D01*
X209984219Y-88144047D02*
X209984219Y-88724618D01*
X209984219Y-88434332D02*
X208968219Y-88434332D01*
X209113362Y-88531094D01*
X209210124Y-88627856D01*
X209258505Y-88724618D01*
X208968219Y-87224809D02*
X208968219Y-87708618D01*
X209452029Y-87756999D01*
X209403648Y-87708618D01*
X209355267Y-87611856D01*
X209355267Y-87369952D01*
X209403648Y-87273190D01*
X209452029Y-87224809D01*
X209548790Y-87176428D01*
X209790695Y-87176428D01*
X209887457Y-87224809D01*
X209935838Y-87273190D01*
X209984219Y-87369952D01*
X209984219Y-87611856D01*
X209935838Y-87708618D01*
X209887457Y-87756999D01*
X209306886Y-86063666D02*
X209984219Y-85821761D01*
X209306886Y-85579857D01*
X209935838Y-84805762D02*
X209984219Y-84902524D01*
X209984219Y-85096047D01*
X209935838Y-85192809D01*
X209839076Y-85241190D01*
X209452029Y-85241190D01*
X209355267Y-85192809D01*
X209306886Y-85096047D01*
X209306886Y-84902524D01*
X209355267Y-84805762D01*
X209452029Y-84757381D01*
X209548790Y-84757381D01*
X209645552Y-85241190D01*
X209984219Y-84321952D02*
X209306886Y-84321952D01*
X209500410Y-84321952D02*
X209403648Y-84273571D01*
X209355267Y-84225190D01*
X209306886Y-84128428D01*
X209306886Y-84031667D01*
X209935838Y-83741381D02*
X209984219Y-83644619D01*
X209984219Y-83451095D01*
X209935838Y-83354334D01*
X209839076Y-83305953D01*
X209790695Y-83305953D01*
X209693933Y-83354334D01*
X209645552Y-83451095D01*
X209645552Y-83596238D01*
X209597171Y-83693000D01*
X209500410Y-83741381D01*
X209452029Y-83741381D01*
X209355267Y-83693000D01*
X209306886Y-83596238D01*
X209306886Y-83451095D01*
X209355267Y-83354334D01*
X209984219Y-82870524D02*
X209306886Y-82870524D01*
X208968219Y-82870524D02*
X209016600Y-82918905D01*
X209064981Y-82870524D01*
X209016600Y-82822143D01*
X208968219Y-82870524D01*
X209064981Y-82870524D01*
X209984219Y-82241571D02*
X209935838Y-82338333D01*
X209887457Y-82386714D01*
X209790695Y-82435095D01*
X209500410Y-82435095D01*
X209403648Y-82386714D01*
X209355267Y-82338333D01*
X209306886Y-82241571D01*
X209306886Y-82096429D01*
X209355267Y-81999667D01*
X209403648Y-81951286D01*
X209500410Y-81902905D01*
X209790695Y-81902905D01*
X209887457Y-81951286D01*
X209935838Y-81999667D01*
X209984219Y-82096429D01*
X209984219Y-82241571D01*
X209306886Y-81467476D02*
X209984219Y-81467476D01*
X209403648Y-81467476D02*
X209355267Y-81419095D01*
X209306886Y-81322333D01*
X209306886Y-81177191D01*
X209355267Y-81080429D01*
X209452029Y-81032048D01*
X209984219Y-81032048D01*
X209984219Y-79241953D02*
X209984219Y-79822524D01*
X209984219Y-79532238D02*
X208968219Y-79532238D01*
X209113362Y-79629000D01*
X209210124Y-79725762D01*
X209258505Y-79822524D01*
X209887457Y-78806524D02*
X209935838Y-78758143D01*
X209984219Y-78806524D01*
X209935838Y-78854905D01*
X209887457Y-78806524D01*
X209984219Y-78806524D01*
X209064981Y-78371095D02*
X209016600Y-78322714D01*
X208968219Y-78225952D01*
X208968219Y-77984048D01*
X209016600Y-77887286D01*
X209064981Y-77838905D01*
X209161743Y-77790524D01*
X209258505Y-77790524D01*
X209403648Y-77838905D01*
X209984219Y-78419476D01*
X209984219Y-77790524D01*
D13*
X200787000Y-88265000D02*
X199771000Y-89027000D01*
X202057000Y-88265000D02*
X200787000Y-88265000D01*
X197993000Y-88265000D02*
X199263000Y-88265000D01*
X202057000Y-90805000D02*
X202057000Y-85725000D01*
X197993000Y-90805000D02*
X197993000Y-85725000D01*
X196723000Y-91821000D02*
X203327000Y-91821000D01*
X203327000Y-91821000D02*
X203327000Y-84709000D01*
X203327000Y-84709000D02*
X196723000Y-84709000D01*
X196723000Y-84709000D02*
X196723000Y-91821000D01*
X182245000Y-85090000D02*
X182245000Y-91440000D01*
X186055000Y-85090000D02*
X186055000Y-91440000D01*
X187960000Y-85090000D02*
X187960000Y-91440000D01*
X187325000Y-88900000D02*
X186055000Y-89535000D01*
X186055000Y-89535000D02*
X187325000Y-90170000D01*
X187325000Y-90170000D02*
X187325000Y-88900000D01*
X187960000Y-91440000D02*
X186055000Y-91440000D01*
X187960000Y-85090000D02*
X186055000Y-85090000D01*
X186055000Y-85090000D02*
X182245000Y-85090000D01*
X182245000Y-91440000D02*
X186055000Y-91440000D01*
X108585000Y-120015000D02*
X99695000Y-120015000D01*
X108585000Y-123825000D02*
X99695000Y-123825000D01*
X102235000Y-125095000D02*
X101600000Y-123825000D01*
X101600000Y-123825000D02*
X100965000Y-125095000D01*
X100965000Y-125095000D02*
X102235000Y-125095000D01*
X108585000Y-123825000D02*
X108585000Y-120015000D01*
X99695000Y-120015000D02*
X99695000Y-123825000D01*
D15*
X182753000Y-110617000D02*
X182753000Y-111633000D01*
X182245000Y-111125000D02*
X183261000Y-111125000D01*
X186055000Y-109855000D02*
X186055000Y-112395000D01*
X186055000Y-112395000D02*
X178435000Y-112395000D01*
X178435000Y-112395000D02*
X178435000Y-109855000D01*
X178435000Y-109855000D02*
X186055000Y-109855000D01*
D13*
X105410000Y-100330000D02*
X104648000Y-99568000D01*
X106680000Y-104140000D02*
X105156000Y-105156000D01*
X93345000Y-109220000D02*
X92710000Y-109220000D01*
X92710000Y-109220000D02*
X92710000Y-96520000D01*
X92710000Y-96520000D02*
X93345000Y-96520000D01*
X93345000Y-110490000D02*
X109220000Y-110490000D01*
X109220000Y-110490000D02*
X109220000Y-95250000D01*
X109220000Y-95250000D02*
X93345000Y-95250000D01*
X93345000Y-95250000D02*
X93345000Y-110490000D01*
X107315000Y-98552000D02*
X103505000Y-102362000D01*
X106680000Y-102870000D02*
X106680000Y-105410000D01*
X198120000Y-97790000D02*
X198120000Y-107950000D01*
X198120000Y-107950000D02*
X211455000Y-107950000D01*
X198120000Y-97790000D02*
X211455000Y-97790000D01*
X211455000Y-97790000D02*
X211455000Y-107950000D01*
D15*
X176530000Y-118745000D02*
X177165000Y-118745000D01*
X177165000Y-118745000D02*
X177165000Y-121285000D01*
X177165000Y-121285000D02*
X176530000Y-121285000D01*
X176530000Y-117475000D02*
X177165000Y-117475000D01*
X186055000Y-122555000D02*
X186690000Y-122555000D01*
X186690000Y-117475000D02*
X184785000Y-117475000D01*
X176530000Y-122555000D02*
X178435000Y-122555000D01*
X186690000Y-117475000D02*
X186690000Y-122555000D01*
X176530000Y-117475000D02*
X176530000Y-122555000D01*
D13*
X116840000Y-121412000D02*
X137160000Y-121412000D01*
X116840000Y-112268000D02*
X137160000Y-112268000D01*
X116840000Y-112268000D02*
X116840000Y-121412000D01*
X137160000Y-112268000D02*
X137160000Y-121412000D01*
X132080000Y-112268000D02*
X133350000Y-110998000D01*
X133350000Y-110998000D02*
X130810000Y-110998000D01*
X130810000Y-110998000D02*
X132080000Y-112268000D01*
X116840000Y-107442000D02*
X137160000Y-107442000D01*
X116840000Y-98298000D02*
X137160000Y-98298000D01*
X116840000Y-98298000D02*
X116840000Y-107442000D01*
X137160000Y-98298000D02*
X137160000Y-107442000D01*
X132080000Y-98298000D02*
X133350000Y-97028000D01*
X133350000Y-97028000D02*
X130810000Y-97028000D01*
X130810000Y-97028000D02*
X132080000Y-98298000D01*
X146050000Y-121412000D02*
X171450000Y-121412000D01*
X146050000Y-112268000D02*
X171450000Y-112268000D01*
X146050000Y-112268000D02*
X146050000Y-121412000D01*
X171450000Y-112268000D02*
X171450000Y-121412000D01*
X166370000Y-112268000D02*
X167640000Y-110998000D01*
X167640000Y-110998000D02*
X165100000Y-110998000D01*
X165100000Y-110998000D02*
X166370000Y-112268000D01*
X146050000Y-107442000D02*
X171450000Y-107442000D01*
X146050000Y-98298000D02*
X171450000Y-98298000D01*
X146050000Y-98298000D02*
X146050000Y-107442000D01*
X171450000Y-98298000D02*
X171450000Y-107442000D01*
X166370000Y-98298000D02*
X167640000Y-97028000D01*
X167640000Y-97028000D02*
X165100000Y-97028000D01*
X165100000Y-97028000D02*
X166370000Y-98298000D01*
X146050000Y-93472000D02*
X171450000Y-93472000D01*
X146050000Y-84328000D02*
X171450000Y-84328000D01*
X146050000Y-84328000D02*
X146050000Y-93472000D01*
X171450000Y-84328000D02*
X171450000Y-93472000D01*
X166370000Y-84328000D02*
X167640000Y-83058000D01*
X167640000Y-83058000D02*
X165100000Y-83058000D01*
X165100000Y-83058000D02*
X166370000Y-84328000D01*
X114300000Y-93472000D02*
X139700000Y-93472000D01*
X114300000Y-84328000D02*
X139700000Y-84328000D01*
X114300000Y-84328000D02*
X114300000Y-93472000D01*
X139700000Y-84328000D02*
X139700000Y-93472000D01*
X134620000Y-84328000D02*
X135890000Y-83058000D01*
X135890000Y-83058000D02*
X133350000Y-83058000D01*
X133350000Y-83058000D02*
X134620000Y-84328000D01*
D15*
X188595000Y-109372400D02*
X188595000Y-96367600D01*
X188595000Y-96367600D02*
X175895000Y-96367600D01*
X175895000Y-96367600D02*
X175895000Y-109372400D01*
X175895000Y-109372400D02*
X188595000Y-109372400D01*
D16*
X200436238Y-83777666D02*
X200484619Y-83632523D01*
X200484619Y-83390619D01*
X200436238Y-83293857D01*
X200387857Y-83245476D01*
X200291095Y-83197095D01*
X200194333Y-83197095D01*
X200097571Y-83245476D01*
X200049190Y-83293857D01*
X200000810Y-83390619D01*
X199952429Y-83584142D01*
X199904048Y-83680904D01*
X199855667Y-83729285D01*
X199758905Y-83777666D01*
X199662143Y-83777666D01*
X199565381Y-83729285D01*
X199517000Y-83680904D01*
X199468619Y-83584142D01*
X199468619Y-83342238D01*
X199517000Y-83197095D01*
X199468619Y-82858428D02*
X200484619Y-82616523D01*
X199758905Y-82423000D01*
X200484619Y-82229476D01*
X199468619Y-81987571D01*
X199565381Y-81648904D02*
X199517000Y-81600523D01*
X199468619Y-81503761D01*
X199468619Y-81261857D01*
X199517000Y-81165095D01*
X199565381Y-81116714D01*
X199662143Y-81068333D01*
X199758905Y-81068333D01*
X199904048Y-81116714D01*
X200484619Y-81697285D01*
X200484619Y-81068333D01*
X199952429Y-94445667D02*
X200000810Y-94300524D01*
X200049190Y-94252143D01*
X200145952Y-94203762D01*
X200291095Y-94203762D01*
X200387857Y-94252143D01*
X200436238Y-94300524D01*
X200484619Y-94397286D01*
X200484619Y-94784333D01*
X199468619Y-94784333D01*
X199468619Y-94445667D01*
X199517000Y-94348905D01*
X199565381Y-94300524D01*
X199662143Y-94252143D01*
X199758905Y-94252143D01*
X199855667Y-94300524D01*
X199904048Y-94348905D01*
X199952429Y-94445667D01*
X199952429Y-94784333D01*
X199468619Y-93913476D02*
X199468619Y-93332905D01*
X200484619Y-93623190D02*
X199468619Y-93623190D01*
X200484619Y-92994238D02*
X199468619Y-92994238D01*
X200484619Y-92413667D01*
X199468619Y-92413667D01*
X183375905Y-84231238D02*
X183521048Y-84279619D01*
X183762952Y-84279619D01*
X183859714Y-84231238D01*
X183908095Y-84182857D01*
X183956476Y-84086095D01*
X183956476Y-83989333D01*
X183908095Y-83892571D01*
X183859714Y-83844190D01*
X183762952Y-83795810D01*
X183569429Y-83747429D01*
X183472667Y-83699048D01*
X183424286Y-83650667D01*
X183375905Y-83553905D01*
X183375905Y-83457143D01*
X183424286Y-83360381D01*
X183472667Y-83312000D01*
X183569429Y-83263619D01*
X183811333Y-83263619D01*
X183956476Y-83312000D01*
X184924095Y-84279619D02*
X184343524Y-84279619D01*
X184633810Y-84279619D02*
X184633810Y-83263619D01*
X184537048Y-83408762D01*
X184440286Y-83505524D01*
X184343524Y-83553905D01*
X110314619Y-122669904D02*
X109298619Y-122669904D01*
X109298619Y-122282857D01*
X109347000Y-122186095D01*
X109395381Y-122137714D01*
X109492143Y-122089333D01*
X109637286Y-122089333D01*
X109734048Y-122137714D01*
X109782429Y-122186095D01*
X109830810Y-122282857D01*
X109830810Y-122669904D01*
X109395381Y-121702285D02*
X109347000Y-121653904D01*
X109298619Y-121557142D01*
X109298619Y-121315238D01*
X109347000Y-121218476D01*
X109395381Y-121170095D01*
X109492143Y-121121714D01*
X109588905Y-121121714D01*
X109734048Y-121170095D01*
X110314619Y-121750666D01*
X110314619Y-121121714D01*
X176415096Y-111584619D02*
X176415096Y-110568619D01*
X176657001Y-110568619D01*
X176802143Y-110617000D01*
X176898905Y-110713762D01*
X176947286Y-110810524D01*
X176995667Y-111004048D01*
X176995667Y-111149190D01*
X176947286Y-111342714D01*
X176898905Y-111439476D01*
X176802143Y-111536238D01*
X176657001Y-111584619D01*
X176415096Y-111584619D01*
X177963286Y-111584619D02*
X177382715Y-111584619D01*
X177673001Y-111584619D02*
X177673001Y-110568619D01*
X177576239Y-110713762D01*
X177479477Y-110810524D01*
X177382715Y-110858905D01*
X93738096Y-111965619D02*
X93738096Y-110949619D01*
X94125143Y-110949619D01*
X94221905Y-110998000D01*
X94270286Y-111046381D01*
X94318667Y-111143143D01*
X94318667Y-111288286D01*
X94270286Y-111385048D01*
X94221905Y-111433429D01*
X94125143Y-111481810D01*
X93738096Y-111481810D01*
X94657334Y-110949619D02*
X95286286Y-110949619D01*
X94947620Y-111336667D01*
X95092762Y-111336667D01*
X95189524Y-111385048D01*
X95237905Y-111433429D01*
X95286286Y-111530190D01*
X95286286Y-111772095D01*
X95237905Y-111868857D01*
X95189524Y-111917238D01*
X95092762Y-111965619D01*
X94802477Y-111965619D01*
X94705715Y-111917238D01*
X94657334Y-111868857D01*
X111457619Y-111385047D02*
X111457619Y-110804476D01*
X112473619Y-111094761D02*
X111457619Y-111094761D01*
X112473619Y-110320666D02*
X112425238Y-110417428D01*
X112376857Y-110465809D01*
X112280095Y-110514190D01*
X111989810Y-110514190D01*
X111893048Y-110465809D01*
X111844667Y-110417428D01*
X111796286Y-110320666D01*
X111796286Y-110175524D01*
X111844667Y-110078762D01*
X111893048Y-110030381D01*
X111989810Y-109982000D01*
X112280095Y-109982000D01*
X112376857Y-110030381D01*
X112425238Y-110078762D01*
X112473619Y-110175524D01*
X112473619Y-110320666D01*
X111796286Y-109546571D02*
X112812286Y-109546571D01*
X111844667Y-109546571D02*
X111796286Y-109449809D01*
X111796286Y-109256286D01*
X111844667Y-109159524D01*
X111893048Y-109111143D01*
X111989810Y-109062762D01*
X112280095Y-109062762D01*
X112376857Y-109111143D01*
X112425238Y-109159524D01*
X112473619Y-109256286D01*
X112473619Y-109449809D01*
X112425238Y-109546571D01*
X112376857Y-108627333D02*
X112425238Y-108578952D01*
X112473619Y-108627333D01*
X112425238Y-108675714D01*
X112376857Y-108627333D01*
X112473619Y-108627333D01*
X111844667Y-108627333D02*
X111893048Y-108578952D01*
X111941429Y-108627333D01*
X111893048Y-108675714D01*
X111844667Y-108627333D01*
X111941429Y-108627333D01*
X111941429Y-107030762D02*
X111989810Y-106885619D01*
X112038190Y-106837238D01*
X112134952Y-106788857D01*
X112280095Y-106788857D01*
X112376857Y-106837238D01*
X112425238Y-106885619D01*
X112473619Y-106982381D01*
X112473619Y-107369428D01*
X111457619Y-107369428D01*
X111457619Y-107030762D01*
X111506000Y-106934000D01*
X111554381Y-106885619D01*
X111651143Y-106837238D01*
X111747905Y-106837238D01*
X111844667Y-106885619D01*
X111893048Y-106934000D01*
X111941429Y-107030762D01*
X111941429Y-107369428D01*
X112473619Y-106353428D02*
X111457619Y-106353428D01*
X112473619Y-105772857D01*
X111457619Y-105772857D01*
X112376857Y-104708476D02*
X112425238Y-104756857D01*
X112473619Y-104902000D01*
X112473619Y-104998762D01*
X112425238Y-105143904D01*
X112328476Y-105240666D01*
X112231714Y-105289047D01*
X112038190Y-105337428D01*
X111893048Y-105337428D01*
X111699524Y-105289047D01*
X111602762Y-105240666D01*
X111506000Y-105143904D01*
X111457619Y-104998762D01*
X111457619Y-104902000D01*
X111506000Y-104756857D01*
X111554381Y-104708476D01*
X111941429Y-103160286D02*
X111989810Y-103015143D01*
X112038190Y-102966762D01*
X112134952Y-102918381D01*
X112280095Y-102918381D01*
X112376857Y-102966762D01*
X112425238Y-103015143D01*
X112473619Y-103111905D01*
X112473619Y-103498952D01*
X111457619Y-103498952D01*
X111457619Y-103160286D01*
X111506000Y-103063524D01*
X111554381Y-103015143D01*
X111651143Y-102966762D01*
X111747905Y-102966762D01*
X111844667Y-103015143D01*
X111893048Y-103063524D01*
X111941429Y-103160286D01*
X111941429Y-103498952D01*
X112860667Y-101418572D02*
X112812286Y-101466952D01*
X112667143Y-101563714D01*
X112570381Y-101612095D01*
X112425238Y-101660476D01*
X112183333Y-101708857D01*
X111989810Y-101708857D01*
X111747905Y-101660476D01*
X111602762Y-101612095D01*
X111506000Y-101563714D01*
X111360857Y-101466952D01*
X111312476Y-101418572D01*
X111457619Y-101176667D02*
X111457619Y-100596096D01*
X112473619Y-100886381D02*
X111457619Y-100886381D01*
X112473619Y-99676858D02*
X111989810Y-100015524D01*
X112473619Y-100257429D02*
X111457619Y-100257429D01*
X111457619Y-99870382D01*
X111506000Y-99773620D01*
X111554381Y-99725239D01*
X111651143Y-99676858D01*
X111796286Y-99676858D01*
X111893048Y-99725239D01*
X111941429Y-99773620D01*
X111989810Y-99870382D01*
X111989810Y-100257429D01*
X112473619Y-99241429D02*
X111457619Y-99241429D01*
X111506000Y-98225429D02*
X111457619Y-98322191D01*
X111457619Y-98467334D01*
X111506000Y-98612476D01*
X111602762Y-98709238D01*
X111699524Y-98757619D01*
X111893048Y-98806000D01*
X112038190Y-98806000D01*
X112231714Y-98757619D01*
X112328476Y-98709238D01*
X112425238Y-98612476D01*
X112473619Y-98467334D01*
X112473619Y-98370572D01*
X112425238Y-98225429D01*
X112376857Y-98177048D01*
X112038190Y-98177048D01*
X112038190Y-98370572D01*
X111409238Y-97015905D02*
X112715524Y-97886762D01*
X112473619Y-96677238D02*
X111457619Y-96677238D01*
X111457619Y-96435333D01*
X111506000Y-96290191D01*
X111602762Y-96193429D01*
X111699524Y-96145048D01*
X111893048Y-96096667D01*
X112038190Y-96096667D01*
X112231714Y-96145048D01*
X112328476Y-96193429D01*
X112425238Y-96290191D01*
X112473619Y-96435333D01*
X112473619Y-96677238D01*
X111457619Y-95758000D02*
X111457619Y-95129048D01*
X111844667Y-95467714D01*
X111844667Y-95322572D01*
X111893048Y-95225810D01*
X111941429Y-95177429D01*
X112038190Y-95129048D01*
X112280095Y-95129048D01*
X112376857Y-95177429D01*
X112425238Y-95225810D01*
X112473619Y-95322572D01*
X112473619Y-95612857D01*
X112425238Y-95709619D01*
X112376857Y-95758000D01*
X112860667Y-94790381D02*
X112812286Y-94742000D01*
X112667143Y-94645238D01*
X112570381Y-94596857D01*
X112425238Y-94548476D01*
X112183333Y-94500095D01*
X111989810Y-94500095D01*
X111747905Y-94548476D01*
X111602762Y-94596857D01*
X111506000Y-94645238D01*
X111360857Y-94742000D01*
X111312476Y-94790381D01*
X110163429Y-110514190D02*
X110211810Y-110369047D01*
X110260190Y-110320666D01*
X110356952Y-110272285D01*
X110502095Y-110272285D01*
X110598857Y-110320666D01*
X110647238Y-110369047D01*
X110695619Y-110465809D01*
X110695619Y-110852856D01*
X109679619Y-110852856D01*
X109679619Y-110514190D01*
X109728000Y-110417428D01*
X109776381Y-110369047D01*
X109873143Y-110320666D01*
X109969905Y-110320666D01*
X110066667Y-110369047D01*
X110115048Y-110417428D01*
X110163429Y-110514190D01*
X110163429Y-110852856D01*
X110695619Y-109691713D02*
X110647238Y-109788475D01*
X110598857Y-109836856D01*
X110502095Y-109885237D01*
X110211810Y-109885237D01*
X110115048Y-109836856D01*
X110066667Y-109788475D01*
X110018286Y-109691713D01*
X110018286Y-109546571D01*
X110066667Y-109449809D01*
X110115048Y-109401428D01*
X110211810Y-109353047D01*
X110502095Y-109353047D01*
X110598857Y-109401428D01*
X110647238Y-109449809D01*
X110695619Y-109546571D01*
X110695619Y-109691713D01*
X110018286Y-109062761D02*
X110018286Y-108675713D01*
X109679619Y-108917618D02*
X110550476Y-108917618D01*
X110647238Y-108869237D01*
X110695619Y-108772475D01*
X110695619Y-108675713D01*
X110018286Y-108482190D02*
X110018286Y-108095142D01*
X109679619Y-108337047D02*
X110550476Y-108337047D01*
X110647238Y-108288666D01*
X110695619Y-108191904D01*
X110695619Y-108095142D01*
X110695619Y-107611333D02*
X110647238Y-107708095D01*
X110598857Y-107756476D01*
X110502095Y-107804857D01*
X110211810Y-107804857D01*
X110115048Y-107756476D01*
X110066667Y-107708095D01*
X110018286Y-107611333D01*
X110018286Y-107466191D01*
X110066667Y-107369429D01*
X110115048Y-107321048D01*
X110211810Y-107272667D01*
X110502095Y-107272667D01*
X110598857Y-107321048D01*
X110647238Y-107369429D01*
X110695619Y-107466191D01*
X110695619Y-107611333D01*
X110695619Y-106837238D02*
X110018286Y-106837238D01*
X110115048Y-106837238D02*
X110066667Y-106788857D01*
X110018286Y-106692095D01*
X110018286Y-106546953D01*
X110066667Y-106450191D01*
X110163429Y-106401810D01*
X110695619Y-106401810D01*
X110163429Y-106401810D02*
X110066667Y-106353429D01*
X110018286Y-106256667D01*
X110018286Y-106111524D01*
X110066667Y-106014762D01*
X110163429Y-105966381D01*
X110695619Y-105966381D01*
X110598857Y-105482571D02*
X110647238Y-105434190D01*
X110695619Y-105482571D01*
X110647238Y-105530952D01*
X110598857Y-105482571D01*
X110695619Y-105482571D01*
X110066667Y-105482571D02*
X110115048Y-105434190D01*
X110163429Y-105482571D01*
X110115048Y-105530952D01*
X110066667Y-105482571D01*
X110163429Y-105482571D01*
X110163429Y-103886000D02*
X110211810Y-103740857D01*
X110260190Y-103692476D01*
X110356952Y-103644095D01*
X110502095Y-103644095D01*
X110598857Y-103692476D01*
X110647238Y-103740857D01*
X110695619Y-103837619D01*
X110695619Y-104224666D01*
X109679619Y-104224666D01*
X109679619Y-103886000D01*
X109728000Y-103789238D01*
X109776381Y-103740857D01*
X109873143Y-103692476D01*
X109969905Y-103692476D01*
X110066667Y-103740857D01*
X110115048Y-103789238D01*
X110163429Y-103886000D01*
X110163429Y-104224666D01*
X110695619Y-103208666D02*
X109679619Y-103208666D01*
X110695619Y-102628095D01*
X109679619Y-102628095D01*
X110598857Y-101563714D02*
X110647238Y-101612095D01*
X110695619Y-101757238D01*
X110695619Y-101854000D01*
X110647238Y-101999142D01*
X110550476Y-102095904D01*
X110453714Y-102144285D01*
X110260190Y-102192666D01*
X110115048Y-102192666D01*
X109921524Y-102144285D01*
X109824762Y-102095904D01*
X109728000Y-101999142D01*
X109679619Y-101854000D01*
X109679619Y-101757238D01*
X109728000Y-101612095D01*
X109776381Y-101563714D01*
X110405333Y-100402571D02*
X110405333Y-99918762D01*
X110695619Y-100499333D02*
X109679619Y-100160666D01*
X110695619Y-99822000D01*
X111082667Y-98418953D02*
X111034286Y-98467333D01*
X110889143Y-98564095D01*
X110792381Y-98612476D01*
X110647238Y-98660857D01*
X110405333Y-98709238D01*
X110211810Y-98709238D01*
X109969905Y-98660857D01*
X109824762Y-98612476D01*
X109728000Y-98564095D01*
X109582857Y-98467333D01*
X109534476Y-98418953D01*
X110695619Y-98031905D02*
X109679619Y-98031905D01*
X109679619Y-97790000D01*
X109728000Y-97644858D01*
X109824762Y-97548096D01*
X109921524Y-97499715D01*
X110115048Y-97451334D01*
X110260190Y-97451334D01*
X110453714Y-97499715D01*
X110550476Y-97548096D01*
X110647238Y-97644858D01*
X110695619Y-97790000D01*
X110695619Y-98031905D01*
X110695619Y-96483715D02*
X110695619Y-97064286D01*
X110695619Y-96774000D02*
X109679619Y-96774000D01*
X109824762Y-96870762D01*
X109921524Y-96967524D01*
X109969905Y-97064286D01*
X109776381Y-96096667D02*
X109728000Y-96048286D01*
X109679619Y-95951524D01*
X109679619Y-95709620D01*
X109728000Y-95612858D01*
X109776381Y-95564477D01*
X109873143Y-95516096D01*
X109969905Y-95516096D01*
X110115048Y-95564477D01*
X110695619Y-96145048D01*
X110695619Y-95516096D01*
X111082667Y-95177429D02*
X111034286Y-95129048D01*
X110889143Y-95032286D01*
X110792381Y-94983905D01*
X110647238Y-94935524D01*
X110405333Y-94887143D01*
X110211810Y-94887143D01*
X109969905Y-94935524D01*
X109824762Y-94983905D01*
X109728000Y-95032286D01*
X109582857Y-95129048D01*
X109534476Y-95177429D01*
X104321429Y-98733429D02*
X104369810Y-98588286D01*
X104418190Y-98539905D01*
X104514952Y-98491524D01*
X104660095Y-98491524D01*
X104756857Y-98539905D01*
X104805238Y-98588286D01*
X104853619Y-98685048D01*
X104853619Y-99072095D01*
X103837619Y-99072095D01*
X103837619Y-98733429D01*
X103886000Y-98636667D01*
X103934381Y-98588286D01*
X104031143Y-98539905D01*
X104127905Y-98539905D01*
X104224667Y-98588286D01*
X104273048Y-98636667D01*
X104321429Y-98733429D01*
X104321429Y-99072095D01*
X103583619Y-105700285D02*
X103583619Y-105119714D01*
X104599619Y-105409999D02*
X103583619Y-105409999D01*
X209435096Y-109679619D02*
X209435096Y-108663619D01*
X209822143Y-108663619D01*
X209918905Y-108712000D01*
X209967286Y-108760381D01*
X210015667Y-108857143D01*
X210015667Y-109002286D01*
X209967286Y-109099048D01*
X209918905Y-109147429D01*
X209822143Y-109195810D01*
X209435096Y-109195810D01*
X210983286Y-109679619D02*
X210402715Y-109679619D01*
X210693001Y-109679619D02*
X210693001Y-108663619D01*
X210596239Y-108808762D01*
X210499477Y-108905524D01*
X210402715Y-108953905D01*
X186623477Y-123752429D02*
X186962143Y-123752429D01*
X187107286Y-124284619D02*
X186623477Y-124284619D01*
X186623477Y-123268619D01*
X187107286Y-123268619D01*
X188074905Y-124284619D02*
X187494334Y-124284619D01*
X187784620Y-124284619D02*
X187784620Y-123268619D01*
X187687858Y-123413762D01*
X187591096Y-123510524D01*
X187494334Y-123558905D01*
X138889619Y-117589904D02*
X137873619Y-117589904D01*
X137873619Y-117202857D01*
X137922000Y-117106095D01*
X137970381Y-117057714D01*
X138067143Y-117009333D01*
X138212286Y-117009333D01*
X138309048Y-117057714D01*
X138357429Y-117106095D01*
X138405810Y-117202857D01*
X138405810Y-117589904D01*
X138212286Y-116138476D02*
X138889619Y-116138476D01*
X137825238Y-116380380D02*
X138550952Y-116622285D01*
X138550952Y-115993333D01*
X138889619Y-103619904D02*
X137873619Y-103619904D01*
X137873619Y-103232857D01*
X137922000Y-103136095D01*
X137970381Y-103087714D01*
X138067143Y-103039333D01*
X138212286Y-103039333D01*
X138309048Y-103087714D01*
X138357429Y-103136095D01*
X138405810Y-103232857D01*
X138405810Y-103619904D01*
X137873619Y-102120095D02*
X137873619Y-102603904D01*
X138357429Y-102652285D01*
X138309048Y-102603904D01*
X138260667Y-102507142D01*
X138260667Y-102265238D01*
X138309048Y-102168476D01*
X138357429Y-102120095D01*
X138454190Y-102071714D01*
X138696095Y-102071714D01*
X138792857Y-102120095D01*
X138841238Y-102168476D01*
X138889619Y-102265238D01*
X138889619Y-102507142D01*
X138841238Y-102603904D01*
X138792857Y-102652285D01*
X173179619Y-117589904D02*
X172163619Y-117589904D01*
X172163619Y-117202857D01*
X172212000Y-117106095D01*
X172260381Y-117057714D01*
X172357143Y-117009333D01*
X172502286Y-117009333D01*
X172599048Y-117057714D01*
X172647429Y-117106095D01*
X172695810Y-117202857D01*
X172695810Y-117589904D01*
X173179619Y-116525523D02*
X173179619Y-116331999D01*
X173131238Y-116235238D01*
X173082857Y-116186857D01*
X172937714Y-116090095D01*
X172744190Y-116041714D01*
X172357143Y-116041714D01*
X172260381Y-116090095D01*
X172212000Y-116138476D01*
X172163619Y-116235238D01*
X172163619Y-116428761D01*
X172212000Y-116525523D01*
X172260381Y-116573904D01*
X172357143Y-116622285D01*
X172599048Y-116622285D01*
X172695810Y-116573904D01*
X172744190Y-116525523D01*
X172792571Y-116428761D01*
X172792571Y-116235238D01*
X172744190Y-116138476D01*
X172695810Y-116090095D01*
X172599048Y-116041714D01*
X173179619Y-103619904D02*
X172163619Y-103619904D01*
X172163619Y-103232857D01*
X172212000Y-103136095D01*
X172260381Y-103087714D01*
X172357143Y-103039333D01*
X172502286Y-103039333D01*
X172599048Y-103087714D01*
X172647429Y-103136095D01*
X172695810Y-103232857D01*
X172695810Y-103619904D01*
X172599048Y-102458761D02*
X172550667Y-102555523D01*
X172502286Y-102603904D01*
X172405524Y-102652285D01*
X172357143Y-102652285D01*
X172260381Y-102603904D01*
X172212000Y-102555523D01*
X172163619Y-102458761D01*
X172163619Y-102265238D01*
X172212000Y-102168476D01*
X172260381Y-102120095D01*
X172357143Y-102071714D01*
X172405524Y-102071714D01*
X172502286Y-102120095D01*
X172550667Y-102168476D01*
X172599048Y-102265238D01*
X172599048Y-102458761D01*
X172647429Y-102555523D01*
X172695810Y-102603904D01*
X172792571Y-102652285D01*
X172986095Y-102652285D01*
X173082857Y-102603904D01*
X173131238Y-102555523D01*
X173179619Y-102458761D01*
X173179619Y-102265238D01*
X173131238Y-102168476D01*
X173082857Y-102120095D01*
X172986095Y-102071714D01*
X172792571Y-102071714D01*
X172695810Y-102120095D01*
X172647429Y-102168476D01*
X172599048Y-102265238D01*
X173179619Y-89649904D02*
X172163619Y-89649904D01*
X172163619Y-89262857D01*
X172212000Y-89166095D01*
X172260381Y-89117714D01*
X172357143Y-89069333D01*
X172502286Y-89069333D01*
X172599048Y-89117714D01*
X172647429Y-89166095D01*
X172695810Y-89262857D01*
X172695810Y-89649904D01*
X172163619Y-88730666D02*
X172163619Y-88053333D01*
X173179619Y-88488761D01*
X141429619Y-89649904D02*
X140413619Y-89649904D01*
X140413619Y-89262857D01*
X140462000Y-89166095D01*
X140510381Y-89117714D01*
X140607143Y-89069333D01*
X140752286Y-89069333D01*
X140849048Y-89117714D01*
X140897429Y-89166095D01*
X140945810Y-89262857D01*
X140945810Y-89649904D01*
X140413619Y-88198476D02*
X140413619Y-88391999D01*
X140462000Y-88488761D01*
X140510381Y-88537142D01*
X140655524Y-88633904D01*
X140849048Y-88682285D01*
X141236095Y-88682285D01*
X141332857Y-88633904D01*
X141381238Y-88585523D01*
X141429619Y-88488761D01*
X141429619Y-88295238D01*
X141381238Y-88198476D01*
X141332857Y-88150095D01*
X141236095Y-88101714D01*
X140994190Y-88101714D01*
X140897429Y-88150095D01*
X140849048Y-88198476D01*
X140800667Y-88295238D01*
X140800667Y-88488761D01*
X140849048Y-88585523D01*
X140897429Y-88633904D01*
X140994190Y-88682285D01*
X175810334Y-95661238D02*
X175955477Y-95709619D01*
X176197381Y-95709619D01*
X176294143Y-95661238D01*
X176342524Y-95612857D01*
X176390905Y-95516095D01*
X176390905Y-95419333D01*
X176342524Y-95322571D01*
X176294143Y-95274190D01*
X176197381Y-95225810D01*
X176003858Y-95177429D01*
X175907096Y-95129048D01*
X175858715Y-95080667D01*
X175810334Y-94983905D01*
X175810334Y-94887143D01*
X175858715Y-94790381D01*
X175907096Y-94742000D01*
X176003858Y-94693619D01*
X176245762Y-94693619D01*
X176390905Y-94742000D01*
X176729572Y-94693619D02*
X176971477Y-95709619D01*
X177165000Y-94983905D01*
X177358524Y-95709619D01*
X177600429Y-94693619D01*
X178519667Y-95709619D02*
X177939096Y-95709619D01*
X178229382Y-95709619D02*
X178229382Y-94693619D01*
X178132620Y-94838762D01*
X178035858Y-94935524D01*
X177939096Y-94983905D01*
D13*
X179922715Y-95304429D02*
X179197001Y-95304429D01*
X179197001Y-93780429D01*
X180430715Y-95304429D02*
X180430715Y-94288429D01*
X180430715Y-93780429D02*
X180358144Y-93853000D01*
X180430715Y-93925571D01*
X180503287Y-93853000D01*
X180430715Y-93780429D01*
X180430715Y-93925571D01*
X181809572Y-94288429D02*
X181809572Y-95522143D01*
X181737001Y-95667286D01*
X181664429Y-95739857D01*
X181519286Y-95812429D01*
X181301572Y-95812429D01*
X181156429Y-95739857D01*
X181809572Y-95231857D02*
X181664429Y-95304429D01*
X181374143Y-95304429D01*
X181229001Y-95231857D01*
X181156429Y-95159286D01*
X181083858Y-95014143D01*
X181083858Y-94578714D01*
X181156429Y-94433571D01*
X181229001Y-94361000D01*
X181374143Y-94288429D01*
X181664429Y-94288429D01*
X181809572Y-94361000D01*
X182535286Y-95304429D02*
X182535286Y-93780429D01*
X183188429Y-95304429D02*
X183188429Y-94506143D01*
X183115858Y-94361000D01*
X182970715Y-94288429D01*
X182753000Y-94288429D01*
X182607858Y-94361000D01*
X182535286Y-94433571D01*
X183696429Y-94288429D02*
X184277000Y-94288429D01*
X183914143Y-93780429D02*
X183914143Y-95086714D01*
X183986715Y-95231857D01*
X184131857Y-95304429D01*
X184277000Y-95304429D01*
X184712429Y-95231857D02*
X184857572Y-95304429D01*
X185147857Y-95304429D01*
X185293000Y-95231857D01*
X185365572Y-95086714D01*
X185365572Y-95014143D01*
X185293000Y-94869000D01*
X185147857Y-94796429D01*
X184930143Y-94796429D01*
X184785000Y-94723857D01*
X184712429Y-94578714D01*
X184712429Y-94506143D01*
X184785000Y-94361000D01*
X184930143Y-94288429D01*
X185147857Y-94288429D01*
X185293000Y-94361000D01*
D12*
X186599285Y-110072714D02*
X186744428Y-110072714D01*
X186817000Y-110109000D01*
X186889571Y-110181571D01*
X186925857Y-110326714D01*
X186925857Y-110580714D01*
X186889571Y-110725857D01*
X186817000Y-110798429D01*
X186744428Y-110834714D01*
X186599285Y-110834714D01*
X186526714Y-110798429D01*
X186454143Y-110725857D01*
X186417857Y-110580714D01*
X186417857Y-110326714D01*
X186454143Y-110181571D01*
X186526714Y-110109000D01*
X186599285Y-110072714D01*
X187506429Y-110435571D02*
X187252429Y-110435571D01*
X187252429Y-110834714D02*
X187252429Y-110072714D01*
X187615286Y-110072714D01*
X188159572Y-110435571D02*
X187905572Y-110435571D01*
X187905572Y-110834714D02*
X187905572Y-110072714D01*
X188268429Y-110072714D01*
X186853285Y-94832714D02*
X186998428Y-94832714D01*
X187071000Y-94869000D01*
X187143571Y-94941571D01*
X187179857Y-95086714D01*
X187179857Y-95340714D01*
X187143571Y-95485857D01*
X187071000Y-95558429D01*
X186998428Y-95594714D01*
X186853285Y-95594714D01*
X186780714Y-95558429D01*
X186708143Y-95485857D01*
X186671857Y-95340714D01*
X186671857Y-95086714D01*
X186708143Y-94941571D01*
X186780714Y-94869000D01*
X186853285Y-94832714D01*
X187506429Y-95594714D02*
X187506429Y-94832714D01*
X187941857Y-95594714D01*
X187941857Y-94832714D01*
%LPC*%
D17*
X198026020Y-84137500D03*
X198026020Y-92392500D03*
X202023980Y-84137500D03*
X202023980Y-92392500D03*
D18*
X184150000Y-86995000D03*
D19*
X184150000Y-89535000D03*
D20*
X104140000Y-121920000D03*
X106680000Y-121920000D03*
D21*
X101600000Y-121920000D03*
D22*
X184785000Y-111125000D03*
X179705000Y-111125000D03*
D23*
X99060000Y-107950000D03*
X99060000Y-97790000D03*
D22*
X105156000Y-102870000D03*
D24*
X107950000Y-102870000D03*
X107950000Y-100076000D03*
X107950000Y-105664000D03*
D25*
X111760000Y-127000000D03*
X113030000Y-78740000D03*
X194310000Y-127000000D03*
X187960000Y-78740000D03*
D26*
X125730000Y-127000000D03*
X128270000Y-127000000D03*
X130810000Y-127000000D03*
X133350000Y-127000000D03*
X135890000Y-127000000D03*
X138430000Y-127000000D03*
X140970000Y-127000000D03*
X143510000Y-127000000D03*
X148590000Y-127000000D03*
X151130000Y-127000000D03*
X153670000Y-127000000D03*
X156210000Y-127000000D03*
X158750000Y-127000000D03*
X161290000Y-127000000D03*
X163830000Y-127000000D03*
X166370000Y-127000000D03*
X171450000Y-127000000D03*
X173990000Y-127000000D03*
X176530000Y-127000000D03*
X179070000Y-127000000D03*
X181610000Y-127000000D03*
X184150000Y-127000000D03*
X186690000Y-127000000D03*
X189230000Y-127000000D03*
X116586000Y-78740000D03*
X119126000Y-78740000D03*
X121666000Y-78740000D03*
X124206000Y-78740000D03*
X126746000Y-78740000D03*
X129286000Y-78740000D03*
X131826000Y-78740000D03*
X134366000Y-78740000D03*
X136906000Y-78740000D03*
X139446000Y-78740000D03*
X143510000Y-78740000D03*
X161290000Y-78740000D03*
X158750000Y-78740000D03*
X156210000Y-78740000D03*
X153670000Y-78740000D03*
X151130000Y-78740000D03*
X148590000Y-78740000D03*
X146050000Y-78740000D03*
X166370000Y-78740000D03*
X168910000Y-78740000D03*
X171450000Y-78740000D03*
X173990000Y-78740000D03*
X176530000Y-78740000D03*
X179070000Y-78740000D03*
X181610000Y-78740000D03*
X184150000Y-78740000D03*
X191770000Y-78232000D03*
X194310000Y-78232000D03*
D27*
X191262000Y-81280000D03*
X194818000Y-81280000D03*
X191262000Y-83820000D03*
X194818000Y-83820000D03*
X191262000Y-86360000D03*
X194818000Y-86360000D03*
X191262000Y-88900000D03*
X194818000Y-88900000D03*
X191262000Y-91440000D03*
X194818000Y-91440000D03*
X191262000Y-93980000D03*
X194818000Y-93980000D03*
X191262000Y-96520000D03*
X194818000Y-96520000D03*
X191262000Y-99060000D03*
X194818000Y-99060000D03*
X191262000Y-101600000D03*
X194818000Y-101600000D03*
X191262000Y-104140000D03*
X194818000Y-104140000D03*
X191262000Y-106680000D03*
X194818000Y-106680000D03*
X191262000Y-109220000D03*
X194818000Y-109220000D03*
X191262000Y-111760000D03*
X194818000Y-111760000D03*
X191262000Y-114300000D03*
X194818000Y-114300000D03*
X191262000Y-116840000D03*
X194818000Y-116840000D03*
X191262000Y-119380000D03*
X194818000Y-119380000D03*
X191262000Y-121920000D03*
X194818000Y-121920000D03*
D28*
X208457800Y-102870000D03*
D29*
X204952600Y-102870000D03*
D30*
X199466200Y-102870000D03*
D31*
X206451200Y-98374200D03*
X206451200Y-107365800D03*
D32*
X178435000Y-117754400D03*
X179705000Y-122275600D03*
X180975000Y-117754400D03*
X182245000Y-122275600D03*
X183515000Y-117754400D03*
X184785000Y-122275600D03*
D33*
X132080000Y-113842800D03*
X132080000Y-119837200D03*
X129540000Y-113842800D03*
X129540000Y-119837200D03*
X127000000Y-113842800D03*
X127000000Y-119837200D03*
X124460000Y-113842800D03*
X124460000Y-119837200D03*
X121920000Y-113842800D03*
X121920000Y-119837200D03*
X132080000Y-99872800D03*
X132080000Y-105867200D03*
X129540000Y-99872800D03*
X129540000Y-105867200D03*
X127000000Y-99872800D03*
X127000000Y-105867200D03*
X124460000Y-99872800D03*
X124460000Y-105867200D03*
X121920000Y-99872800D03*
X121920000Y-105867200D03*
X166370000Y-119837200D03*
X166370000Y-113842800D03*
X151130000Y-119837200D03*
X151130000Y-113842800D03*
X163830000Y-113842800D03*
X163830000Y-119837200D03*
X161290000Y-113842800D03*
X161290000Y-119837200D03*
X158750000Y-113842800D03*
X158750000Y-119837200D03*
X156210000Y-113842800D03*
X156210000Y-119837200D03*
X153670000Y-113842800D03*
X153670000Y-119837200D03*
X166370000Y-105867200D03*
X166370000Y-99872800D03*
X151130000Y-105867200D03*
X151130000Y-99872800D03*
X163830000Y-99872800D03*
X163830000Y-105867200D03*
X161290000Y-99872800D03*
X161290000Y-105867200D03*
X158750000Y-99872800D03*
X158750000Y-105867200D03*
X156210000Y-99872800D03*
X156210000Y-105867200D03*
X153670000Y-99872800D03*
X153670000Y-105867200D03*
X166370000Y-91897200D03*
X166370000Y-85902800D03*
X151130000Y-91897200D03*
X151130000Y-85902800D03*
X163830000Y-85902800D03*
X163830000Y-91897200D03*
X161290000Y-85902800D03*
X161290000Y-91897200D03*
X158750000Y-85902800D03*
X158750000Y-91897200D03*
X156210000Y-85902800D03*
X156210000Y-91897200D03*
X153670000Y-85902800D03*
X153670000Y-91897200D03*
X134620000Y-91897200D03*
X134620000Y-85902800D03*
X119380000Y-91897200D03*
X119380000Y-85902800D03*
X132080000Y-85902800D03*
X132080000Y-91897200D03*
X129540000Y-85902800D03*
X129540000Y-91897200D03*
X127000000Y-85902800D03*
X127000000Y-91897200D03*
X124460000Y-85902800D03*
X124460000Y-91897200D03*
X121920000Y-85902800D03*
X121920000Y-91897200D03*
D34*
X179844700Y-107569000D03*
X179844700Y-102870000D03*
X184645300Y-102870000D03*
X184645300Y-107569000D03*
M02*
