G04 #@! TF.FileFunction,Copper,L1,Top,Signal*
%FSLAX46Y46*%
G04 Gerber Fmt 4.6, Leading zero omitted, Abs format (unit mm)*
G04 Created by KiCad (PCBNEW 0.201504221001+5618~22~ubuntu14.04.1-product) date Fri 01 May 2015 04:41:33 PM EDT*
%MOMM*%
G01*
G04 APERTURE LIST*
%ADD10C,0.100000*%
%ADD11C,0.228600*%
%ADD12R,1.590040X2.667000*%
%ADD13O,2.540000X1.854200*%
%ADD14R,2.540000X1.854200*%
%ADD15O,1.854200X2.540000*%
%ADD16R,1.854200X2.540000*%
%ADD17O,4.445000X3.175000*%
%ADD18O,1.524000X2.032000*%
%ADD19O,5.080000X3.048000*%
%ADD20O,2.032000X1.524000*%
%ADD21C,3.937000*%
%ADD22O,1.524000X2.540000*%
%ADD23O,2.540000X1.524000*%
%ADD24C,1.930400*%
%ADD25O,4.572000X3.556000*%
%ADD26O,4.064000X5.080000*%
%ADD27O,5.080000X3.556000*%
%ADD28R,1.498600X2.997200*%
%ADD29R,1.016000X4.495800*%
%ADD30C,0.889000*%
%ADD31C,1.016000*%
%ADD32C,0.508000*%
%ADD33C,0.812800*%
%ADD34C,0.406400*%
%ADD35C,0.203200*%
G04 APERTURE END LIST*
D10*
D11*
X211455000Y-75565000D02*
X93345000Y-75565000D01*
X211455000Y-130175000D02*
X211455000Y-75565000D01*
X93345000Y-130175000D02*
X211455000Y-130175000D01*
X93345000Y-75565000D02*
X93345000Y-130175000D01*
D12*
X198026020Y-84137500D03*
X198026020Y-92392500D03*
X202023980Y-84137500D03*
X202023980Y-92392500D03*
D13*
X184150000Y-86995000D03*
D14*
X184150000Y-89535000D03*
D15*
X104140000Y-121920000D03*
X106680000Y-121920000D03*
D16*
X101600000Y-121920000D03*
D17*
X181610000Y-102870000D03*
X181610000Y-107569000D03*
D18*
X187325000Y-105410000D03*
X187325000Y-100330000D03*
D19*
X99060000Y-107950000D03*
X99060000Y-97790000D03*
D20*
X105156000Y-102870000D03*
D18*
X107950000Y-102870000D03*
X107950000Y-100076000D03*
X107950000Y-105664000D03*
D21*
X111760000Y-127000000D03*
X113030000Y-78740000D03*
X194310000Y-127000000D03*
X187960000Y-78740000D03*
D22*
X125730000Y-127000000D03*
X128270000Y-127000000D03*
X130810000Y-127000000D03*
X133350000Y-127000000D03*
X135890000Y-127000000D03*
X138430000Y-127000000D03*
X140970000Y-127000000D03*
X143510000Y-127000000D03*
X148590000Y-127000000D03*
X151130000Y-127000000D03*
X153670000Y-127000000D03*
X156210000Y-127000000D03*
X158750000Y-127000000D03*
X161290000Y-127000000D03*
X163830000Y-127000000D03*
X166370000Y-127000000D03*
X171450000Y-127000000D03*
X173990000Y-127000000D03*
X176530000Y-127000000D03*
X179070000Y-127000000D03*
X181610000Y-127000000D03*
X184150000Y-127000000D03*
X186690000Y-127000000D03*
X189230000Y-127000000D03*
X116586000Y-78740000D03*
X119126000Y-78740000D03*
X121666000Y-78740000D03*
X124206000Y-78740000D03*
X126746000Y-78740000D03*
X129286000Y-78740000D03*
X131826000Y-78740000D03*
X134366000Y-78740000D03*
X136906000Y-78740000D03*
X139446000Y-78740000D03*
X143510000Y-78740000D03*
X161290000Y-78740000D03*
X158750000Y-78740000D03*
X156210000Y-78740000D03*
X153670000Y-78740000D03*
X151130000Y-78740000D03*
X148590000Y-78740000D03*
X146050000Y-78740000D03*
X166370000Y-78740000D03*
X168910000Y-78740000D03*
X171450000Y-78740000D03*
X173990000Y-78740000D03*
X176530000Y-78740000D03*
X179070000Y-78740000D03*
X181610000Y-78740000D03*
X184150000Y-78740000D03*
X191770000Y-78232000D03*
X194310000Y-78232000D03*
D23*
X191262000Y-81280000D03*
X194818000Y-81280000D03*
X191262000Y-83820000D03*
X194818000Y-83820000D03*
X191262000Y-86360000D03*
X194818000Y-86360000D03*
X191262000Y-88900000D03*
X194818000Y-88900000D03*
X191262000Y-91440000D03*
X194818000Y-91440000D03*
X191262000Y-93980000D03*
X194818000Y-93980000D03*
X191262000Y-96520000D03*
X194818000Y-96520000D03*
X191262000Y-99060000D03*
X194818000Y-99060000D03*
X191262000Y-101600000D03*
X194818000Y-101600000D03*
X191262000Y-104140000D03*
X194818000Y-104140000D03*
X191262000Y-106680000D03*
X194818000Y-106680000D03*
X191262000Y-109220000D03*
X194818000Y-109220000D03*
X191262000Y-111760000D03*
X194818000Y-111760000D03*
X191262000Y-114300000D03*
X194818000Y-114300000D03*
X191262000Y-116840000D03*
X194818000Y-116840000D03*
X191262000Y-119380000D03*
X194818000Y-119380000D03*
X191262000Y-121920000D03*
X194818000Y-121920000D03*
X200025000Y-115570000D03*
X200025000Y-118110000D03*
X200025000Y-113030000D03*
D24*
X208457800Y-102870000D03*
D25*
X204952600Y-102870000D03*
D26*
X199466200Y-102870000D03*
D27*
X206451200Y-98374200D03*
X206451200Y-107365800D03*
D28*
X178435000Y-117754400D03*
X179705000Y-122275600D03*
X180975000Y-117754400D03*
X182245000Y-122275600D03*
X183515000Y-117754400D03*
X184785000Y-122275600D03*
D29*
X162560000Y-99872800D03*
X162560000Y-105867200D03*
X160020000Y-99872800D03*
X160020000Y-105867200D03*
X157480000Y-99872800D03*
X157480000Y-105867200D03*
X154940000Y-99872800D03*
X154940000Y-105867200D03*
X152400000Y-99872800D03*
X152400000Y-105867200D03*
D30*
X177825400Y-86581200D03*
X175877200Y-85746000D03*
X161290000Y-106002700D03*
X184641300Y-119972600D03*
X178695200Y-109837200D03*
X177728400Y-123066900D03*
X183221600Y-115504900D03*
X192872600Y-84922600D03*
D31*
X185800600Y-107060600D02*
X181610000Y-102870000D01*
X185800600Y-119187000D02*
X185800600Y-107060600D01*
X190070400Y-123456800D02*
X185800600Y-119187000D01*
X197368700Y-123456800D02*
X190070400Y-123456800D01*
X202057400Y-118768100D02*
X197368700Y-123456800D01*
X202057400Y-114935400D02*
X202057400Y-118768100D01*
X200152000Y-113030000D02*
X202057400Y-114935400D01*
X200025000Y-113030000D02*
X200152000Y-113030000D01*
D32*
X105918400Y-120141600D02*
X107950000Y-120141600D01*
X104140000Y-121920000D02*
X105918400Y-120141600D01*
X133349900Y-120141600D02*
X107950000Y-120141600D01*
X138430000Y-125221700D02*
X133349900Y-120141600D01*
X138430000Y-127000000D02*
X138430000Y-125221700D01*
X202024000Y-99433400D02*
X202024000Y-92392500D01*
X205460600Y-102870000D02*
X202024000Y-99433400D01*
X107950000Y-120141600D02*
X107950000Y-105410000D01*
X109251500Y-101631500D02*
X107950000Y-100330000D01*
X109251500Y-104108500D02*
X109251500Y-101631500D01*
X107950000Y-105410000D02*
X109251500Y-104108500D01*
X179197600Y-119761300D02*
X179705000Y-120268700D01*
X178435000Y-119761300D02*
X179197600Y-119761300D01*
X179705000Y-122275600D02*
X179705000Y-120268700D01*
X178435000Y-117754400D02*
X178435000Y-115747500D01*
X171753800Y-109066300D02*
X178435000Y-115747500D01*
X171310900Y-108623400D02*
X171753800Y-109066300D01*
X162560000Y-108623400D02*
X171310900Y-108623400D01*
X180490100Y-100330000D02*
X187325000Y-100330000D01*
X171753800Y-109066300D02*
X180490100Y-100330000D01*
X162560000Y-105867200D02*
X162560000Y-108623400D01*
X178239200Y-86995000D02*
X177825400Y-86581200D01*
X184150000Y-86995000D02*
X178239200Y-86995000D01*
X176712400Y-86581200D02*
X175877200Y-85746000D01*
X177825400Y-86581200D02*
X176712400Y-86581200D01*
X178435000Y-117754400D02*
X178435000Y-118002000D01*
X178435000Y-118002000D02*
X178435000Y-119761300D01*
X140970000Y-127000000D02*
X140970000Y-127889100D01*
X140970000Y-127889100D02*
X140970000Y-128778300D01*
X140080800Y-128778300D02*
X138430000Y-128778300D01*
X140970000Y-127889100D02*
X140080800Y-128778300D01*
X138430000Y-127000000D02*
X138430000Y-128778300D01*
X178079100Y-118002000D02*
X178435000Y-118002000D01*
X169976100Y-126105000D02*
X178079100Y-118002000D01*
X169976100Y-126644200D02*
X169976100Y-126105000D01*
X167169400Y-129450900D02*
X169976100Y-126644200D01*
X141642600Y-129450900D02*
X167169400Y-129450900D01*
X140970000Y-128778300D02*
X141642600Y-129450900D01*
D33*
X161290000Y-103393900D02*
X161290000Y-106002700D01*
X161902500Y-102781400D02*
X161290000Y-103393900D01*
X162560000Y-102781400D02*
X161902500Y-102781400D01*
X162560000Y-99872800D02*
X162560000Y-102781400D01*
X132740700Y-121920000D02*
X106680000Y-121920000D01*
X135890000Y-125069300D02*
X132740700Y-121920000D01*
X135890000Y-127000000D02*
X135890000Y-125069300D01*
X184785000Y-122275600D02*
X184785000Y-120116300D01*
X184785000Y-120116300D02*
X184641300Y-119972600D01*
D34*
X180975000Y-112117000D02*
X180975000Y-117754400D01*
X178695200Y-109837200D02*
X180975000Y-112117000D01*
X177728400Y-123268800D02*
X177728400Y-123066900D01*
X178691300Y-124231700D02*
X177728400Y-123268800D01*
X182245000Y-124231700D02*
X178691300Y-124231700D01*
X182245000Y-122275600D02*
X182245000Y-124231700D01*
X183515000Y-117754400D02*
X183515000Y-115798300D01*
X183515000Y-115798300D02*
X183221600Y-115504900D01*
X191770000Y-114300000D02*
X189534500Y-114300000D01*
X105410000Y-100610300D02*
X105410000Y-102870000D01*
X112170700Y-93849600D02*
X105410000Y-100610300D01*
X182826100Y-93849600D02*
X112170700Y-93849600D01*
X189534500Y-100558000D02*
X182826100Y-93849600D01*
X189534500Y-114300000D02*
X189534500Y-100558000D01*
X196773500Y-85928500D02*
X198026000Y-85928500D01*
X195935000Y-85090000D02*
X196773500Y-85928500D01*
X193040000Y-85090000D02*
X195935000Y-85090000D01*
X192872600Y-84922600D02*
X193040000Y-85090000D01*
X198026000Y-84137500D02*
X198026000Y-85928500D01*
X160020000Y-99872800D02*
X160020000Y-97167400D01*
X148590000Y-127000000D02*
X148590000Y-125272500D01*
X148083900Y-124766400D02*
X148590000Y-125272500D01*
X148083900Y-97021000D02*
X148083900Y-124766400D01*
X150594600Y-94510300D02*
X148083900Y-97021000D01*
X157362900Y-94510300D02*
X150594600Y-94510300D01*
X160020000Y-97167400D02*
X157362900Y-94510300D01*
X160020000Y-105867200D02*
X160020000Y-103161800D01*
X151130000Y-127000000D02*
X151130000Y-125272500D01*
X148744600Y-122887100D02*
X151130000Y-125272500D01*
X148744600Y-97294700D02*
X148744600Y-122887100D01*
X150868300Y-95171000D02*
X148744600Y-97294700D01*
X156427100Y-95171000D02*
X150868300Y-95171000D01*
X159054500Y-97798400D02*
X156427100Y-95171000D01*
X159054500Y-102317100D02*
X159054500Y-97798400D01*
X159899200Y-103161800D02*
X159054500Y-102317100D01*
X160020000Y-103161800D02*
X159899200Y-103161800D01*
X157480000Y-99872800D02*
X157480000Y-97167400D01*
X153670000Y-127000000D02*
X153670000Y-125272500D01*
X149405300Y-121007800D02*
X153670000Y-125272500D01*
X149405300Y-97568400D02*
X149405300Y-121007800D01*
X151142000Y-95831700D02*
X149405300Y-97568400D01*
X156144300Y-95831700D02*
X151142000Y-95831700D01*
X157480000Y-97167400D02*
X156144300Y-95831700D01*
X156210000Y-125156600D02*
X156210000Y-127000000D01*
X150066100Y-119012700D02*
X156210000Y-125156600D01*
X150066100Y-97847400D02*
X150066100Y-119012700D01*
X151421000Y-96492500D02*
X150066100Y-97847400D01*
X155246200Y-96492500D02*
X151421000Y-96492500D01*
X156514500Y-97760800D02*
X155246200Y-96492500D01*
X156514500Y-102317100D02*
X156514500Y-97760800D01*
X157359200Y-103161800D02*
X156514500Y-102317100D01*
X157480000Y-103161800D02*
X157359200Y-103161800D01*
X157480000Y-105867200D02*
X157480000Y-103161800D01*
X154940000Y-99872800D02*
X154940000Y-97167400D01*
X158750000Y-127000000D02*
X158750000Y-125272500D01*
X151680600Y-97167400D02*
X154940000Y-97167400D01*
X150747200Y-98100800D02*
X151680600Y-97167400D01*
X150747200Y-117269700D02*
X150747200Y-98100800D01*
X158750000Y-125272500D02*
X150747200Y-117269700D01*
X166886400Y-128727500D02*
X161290000Y-128727500D01*
X167600200Y-128013700D02*
X166886400Y-128727500D01*
X167600200Y-124206300D02*
X167600200Y-128013700D01*
X154940000Y-111546100D02*
X167600200Y-124206300D01*
X154940000Y-105867200D02*
X154940000Y-111546100D01*
X161290000Y-127000000D02*
X161290000Y-128727500D01*
X152400000Y-99872800D02*
X152400000Y-102578200D01*
X163830000Y-127000000D02*
X163830000Y-125272500D01*
X152279200Y-102578200D02*
X152400000Y-102578200D01*
X151434500Y-103422900D02*
X152279200Y-102578200D01*
X151434500Y-112877000D02*
X151434500Y-103422900D01*
X163830000Y-125272500D02*
X151434500Y-112877000D01*
X166370000Y-127000000D02*
X166370000Y-125272500D01*
X152400000Y-105867200D02*
X152400000Y-108572600D01*
X152400000Y-111302500D02*
X152400000Y-108572600D01*
X166370000Y-125272500D02*
X152400000Y-111302500D01*
D35*
G36*
X211035900Y-129755900D02*
X209778829Y-129755900D01*
X209778829Y-102608429D01*
X209578173Y-102122804D01*
X209206950Y-101750933D01*
X208721676Y-101549430D01*
X208196229Y-101548971D01*
X207710604Y-101749627D01*
X207591996Y-101868028D01*
X207256651Y-101289475D01*
X206515094Y-100722466D01*
X205708445Y-100507800D01*
X207269928Y-100507800D01*
X208086421Y-100345389D01*
X208778611Y-99882883D01*
X209241117Y-99190693D01*
X209403528Y-98374200D01*
X209241117Y-97557707D01*
X208778611Y-96865517D01*
X208086421Y-96403011D01*
X207269928Y-96240600D01*
X205632472Y-96240600D01*
X204815979Y-96403011D01*
X204123789Y-96865517D01*
X203661283Y-97557707D01*
X203498872Y-98374200D01*
X203661283Y-99190693D01*
X204123789Y-99882883D01*
X204815979Y-100345389D01*
X205504777Y-100482400D01*
X205105000Y-100482400D01*
X205105000Y-102717600D01*
X205125000Y-102717600D01*
X205125000Y-103022400D01*
X205105000Y-103022400D01*
X205105000Y-105257600D01*
X205504777Y-105257600D01*
X204815979Y-105394611D01*
X204800200Y-105405154D01*
X204800200Y-105257600D01*
X204800200Y-103022400D01*
X204800200Y-102717600D01*
X204800200Y-100482400D01*
X204292200Y-100482400D01*
X203428600Y-100712221D01*
X203428600Y-93847257D01*
X203428600Y-92697300D01*
X203428600Y-92087700D01*
X203428600Y-90937743D01*
X203335794Y-90713689D01*
X203181567Y-90559462D01*
X203181567Y-85471000D01*
X203181567Y-82804000D01*
X203155259Y-82668411D01*
X203076977Y-82549241D01*
X202958799Y-82469469D01*
X202819000Y-82441433D01*
X201228960Y-82441433D01*
X201093371Y-82467741D01*
X200974201Y-82546023D01*
X200894429Y-82664201D01*
X200866393Y-82804000D01*
X200866393Y-85471000D01*
X200892701Y-85606589D01*
X200970983Y-85725759D01*
X201089161Y-85805531D01*
X201228960Y-85833567D01*
X202819000Y-85833567D01*
X202954589Y-85807259D01*
X203073759Y-85728977D01*
X203153531Y-85610799D01*
X203181567Y-85471000D01*
X203181567Y-90559462D01*
X203164311Y-90542206D01*
X202940257Y-90449400D01*
X202697743Y-90449400D01*
X202328780Y-90449400D01*
X202176380Y-90601800D01*
X202176380Y-92240100D01*
X203276200Y-92240100D01*
X203428600Y-92087700D01*
X203428600Y-92697300D01*
X203276200Y-92544900D01*
X202176380Y-92544900D01*
X202176380Y-94183200D01*
X202328780Y-94335600D01*
X202697743Y-94335600D01*
X202940257Y-94335600D01*
X203164311Y-94242794D01*
X203335794Y-94071311D01*
X203428600Y-93847257D01*
X203428600Y-100712221D01*
X203390106Y-100722466D01*
X202648549Y-101289475D01*
X202180425Y-102097104D01*
X202115045Y-102346735D01*
X202214602Y-102717600D01*
X204800200Y-102717600D01*
X204800200Y-103022400D01*
X202214602Y-103022400D01*
X202115045Y-103393265D01*
X202180425Y-103642896D01*
X202648549Y-104450525D01*
X203390106Y-105017534D01*
X204292200Y-105257600D01*
X204800200Y-105257600D01*
X204800200Y-105405154D01*
X204123789Y-105857117D01*
X203661283Y-106549307D01*
X203498872Y-107365800D01*
X203661283Y-108182293D01*
X204123789Y-108874483D01*
X204815979Y-109336989D01*
X205632472Y-109499400D01*
X207269928Y-109499400D01*
X208086421Y-109336989D01*
X208778611Y-108874483D01*
X209241117Y-108182293D01*
X209403528Y-107365800D01*
X209241117Y-106549307D01*
X208778611Y-105857117D01*
X208086421Y-105394611D01*
X207269928Y-105232200D01*
X205708445Y-105232200D01*
X206515094Y-105017534D01*
X207256651Y-104450525D01*
X207591909Y-103872122D01*
X207708650Y-103989067D01*
X208193924Y-104190570D01*
X208719371Y-104191029D01*
X209204996Y-103990373D01*
X209576867Y-103619150D01*
X209778370Y-103133876D01*
X209778829Y-102608429D01*
X209778829Y-129755900D01*
X202921000Y-129755900D01*
X202921000Y-118768100D01*
X202921000Y-114935400D01*
X202855262Y-114604915D01*
X202668058Y-114324743D01*
X201871580Y-113528265D01*
X201871580Y-94183200D01*
X201871580Y-92544900D01*
X201871580Y-92240100D01*
X201871580Y-90601800D01*
X201719180Y-90449400D01*
X201350217Y-90449400D01*
X201107703Y-90449400D01*
X200883649Y-90542206D01*
X200712166Y-90713689D01*
X200619360Y-90937743D01*
X200619360Y-92087700D01*
X200771760Y-92240100D01*
X201871580Y-92240100D01*
X201871580Y-92544900D01*
X200771760Y-92544900D01*
X200619360Y-92697300D01*
X200619360Y-93847257D01*
X200712166Y-94071311D01*
X200883649Y-94242794D01*
X201107703Y-94335600D01*
X201350217Y-94335600D01*
X201719180Y-94335600D01*
X201871580Y-94183200D01*
X201871580Y-113528265D01*
X201853800Y-113510485D01*
X201853800Y-103434728D01*
X201853800Y-102305272D01*
X201672055Y-101391577D01*
X201154488Y-100616984D01*
X200379895Y-100099417D01*
X199466200Y-99917672D01*
X199183607Y-99973883D01*
X199183607Y-93726000D01*
X199183607Y-91059000D01*
X199183607Y-85471000D01*
X199183607Y-82804000D01*
X199157299Y-82668411D01*
X199079017Y-82549241D01*
X198960839Y-82469469D01*
X198821040Y-82441433D01*
X197231000Y-82441433D01*
X197095411Y-82467741D01*
X196976241Y-82546023D01*
X196896469Y-82664201D01*
X196868433Y-82804000D01*
X196868433Y-85233171D01*
X196330131Y-84694869D01*
X196165209Y-84584671D01*
X196390375Y-84247687D01*
X196475447Y-83820000D01*
X196475447Y-81280000D01*
X196390375Y-80852313D01*
X196148110Y-80489737D01*
X195785534Y-80247472D01*
X195427600Y-80176274D01*
X195427600Y-78771847D01*
X195427600Y-77692153D01*
X195342528Y-77264466D01*
X195100263Y-76901890D01*
X194737687Y-76659625D01*
X194310000Y-76574553D01*
X193882313Y-76659625D01*
X193519737Y-76901890D01*
X193277472Y-77264466D01*
X193192400Y-77692153D01*
X193192400Y-78771847D01*
X193277472Y-79199534D01*
X193519737Y-79562110D01*
X193882313Y-79804375D01*
X194310000Y-79889447D01*
X194737687Y-79804375D01*
X195100263Y-79562110D01*
X195342528Y-79199534D01*
X195427600Y-78771847D01*
X195427600Y-80176274D01*
X195357847Y-80162400D01*
X194278153Y-80162400D01*
X193850466Y-80247472D01*
X193487890Y-80489737D01*
X193245625Y-80852313D01*
X193160553Y-81280000D01*
X193245625Y-81707687D01*
X193487890Y-82070263D01*
X193850466Y-82312528D01*
X194278153Y-82397600D01*
X195357847Y-82397600D01*
X195785534Y-82312528D01*
X196148110Y-82070263D01*
X196390375Y-81707687D01*
X196475447Y-81280000D01*
X196475447Y-83820000D01*
X196390375Y-83392313D01*
X196148110Y-83029737D01*
X195785534Y-82787472D01*
X195357847Y-82702400D01*
X194278153Y-82702400D01*
X193850466Y-82787472D01*
X193487890Y-83029737D01*
X193245625Y-83392313D01*
X193160553Y-83820000D01*
X193237704Y-84207869D01*
X193032448Y-84122639D01*
X192859278Y-84122487D01*
X192919447Y-83820000D01*
X192919447Y-81280000D01*
X192887600Y-81119893D01*
X192887600Y-78771847D01*
X192887600Y-77692153D01*
X192802528Y-77264466D01*
X192560263Y-76901890D01*
X192197687Y-76659625D01*
X191770000Y-76574553D01*
X191342313Y-76659625D01*
X190979737Y-76901890D01*
X190737472Y-77264466D01*
X190652400Y-77692153D01*
X190652400Y-78771847D01*
X190737472Y-79199534D01*
X190979737Y-79562110D01*
X191342313Y-79804375D01*
X191770000Y-79889447D01*
X192197687Y-79804375D01*
X192560263Y-79562110D01*
X192802528Y-79199534D01*
X192887600Y-78771847D01*
X192887600Y-81119893D01*
X192834375Y-80852313D01*
X192592110Y-80489737D01*
X192229534Y-80247472D01*
X191801847Y-80162400D01*
X190722153Y-80162400D01*
X190294466Y-80247472D01*
X190284503Y-80254129D01*
X190284503Y-78279736D01*
X189931425Y-77425223D01*
X189278216Y-76770873D01*
X188424320Y-76416304D01*
X187499736Y-76415497D01*
X186645223Y-76768575D01*
X185990873Y-77421784D01*
X185636304Y-78275680D01*
X185635497Y-79200264D01*
X185988575Y-80054777D01*
X186641784Y-80709127D01*
X187495680Y-81063696D01*
X188420264Y-81064503D01*
X189274777Y-80711425D01*
X189929127Y-80058216D01*
X190283696Y-79204320D01*
X190284503Y-78279736D01*
X190284503Y-80254129D01*
X189931890Y-80489737D01*
X189689625Y-80852313D01*
X189604553Y-81280000D01*
X189689625Y-81707687D01*
X189931890Y-82070263D01*
X190294466Y-82312528D01*
X190722153Y-82397600D01*
X191801847Y-82397600D01*
X192229534Y-82312528D01*
X192592110Y-82070263D01*
X192834375Y-81707687D01*
X192919447Y-81280000D01*
X192919447Y-83820000D01*
X192834375Y-83392313D01*
X192592110Y-83029737D01*
X192229534Y-82787472D01*
X191801847Y-82702400D01*
X190722153Y-82702400D01*
X190294466Y-82787472D01*
X189931890Y-83029737D01*
X189689625Y-83392313D01*
X189604553Y-83820000D01*
X189689625Y-84247687D01*
X189931890Y-84610263D01*
X190294466Y-84852528D01*
X190722153Y-84937600D01*
X191801847Y-84937600D01*
X192072533Y-84883757D01*
X192072361Y-85081052D01*
X192169223Y-85315475D01*
X191801847Y-85242400D01*
X190722153Y-85242400D01*
X190294466Y-85327472D01*
X189931890Y-85569737D01*
X189689625Y-85932313D01*
X189604553Y-86360000D01*
X189689625Y-86787687D01*
X189931890Y-87150263D01*
X190294466Y-87392528D01*
X190722153Y-87477600D01*
X191801847Y-87477600D01*
X192229534Y-87392528D01*
X192592110Y-87150263D01*
X192834375Y-86787687D01*
X192919447Y-86360000D01*
X192834375Y-85932313D01*
X192687108Y-85711912D01*
X192712752Y-85722561D01*
X193031052Y-85722839D01*
X193210238Y-85648800D01*
X193435061Y-85648800D01*
X193245625Y-85932313D01*
X193160553Y-86360000D01*
X193245625Y-86787687D01*
X193487890Y-87150263D01*
X193850466Y-87392528D01*
X194278153Y-87477600D01*
X195357847Y-87477600D01*
X195785534Y-87392528D01*
X196148110Y-87150263D01*
X196390375Y-86787687D01*
X196470443Y-86385153D01*
X196559656Y-86444764D01*
X196559657Y-86444764D01*
X196773500Y-86487300D01*
X198026000Y-86487300D01*
X198239844Y-86444764D01*
X198421131Y-86323631D01*
X198542264Y-86142344D01*
X198584800Y-85928500D01*
X198584800Y-85833567D01*
X198821040Y-85833567D01*
X198956629Y-85807259D01*
X199075799Y-85728977D01*
X199155571Y-85610799D01*
X199183607Y-85471000D01*
X199183607Y-91059000D01*
X199157299Y-90923411D01*
X199079017Y-90804241D01*
X198960839Y-90724469D01*
X198821040Y-90696433D01*
X197231000Y-90696433D01*
X197095411Y-90722741D01*
X196976241Y-90801023D01*
X196896469Y-90919201D01*
X196868433Y-91059000D01*
X196868433Y-93726000D01*
X196894741Y-93861589D01*
X196973023Y-93980759D01*
X197091201Y-94060531D01*
X197231000Y-94088567D01*
X198821040Y-94088567D01*
X198956629Y-94062259D01*
X199075799Y-93983977D01*
X199155571Y-93865799D01*
X199183607Y-93726000D01*
X199183607Y-99973883D01*
X198552505Y-100099417D01*
X197777912Y-100616984D01*
X197260345Y-101391577D01*
X197078600Y-102305272D01*
X197078600Y-103434728D01*
X197260345Y-104348423D01*
X197777912Y-105123016D01*
X198552505Y-105640583D01*
X199466200Y-105822328D01*
X200379895Y-105640583D01*
X201154488Y-105123016D01*
X201672055Y-104348423D01*
X201853800Y-103434728D01*
X201853800Y-113510485D01*
X201631158Y-113287844D01*
X201682447Y-113030000D01*
X201597375Y-112602313D01*
X201355110Y-112239737D01*
X200992534Y-111997472D01*
X200564847Y-111912400D01*
X199485153Y-111912400D01*
X199057466Y-111997472D01*
X198694890Y-112239737D01*
X198452625Y-112602313D01*
X198367553Y-113030000D01*
X198452625Y-113457687D01*
X198694890Y-113820263D01*
X199057466Y-114062528D01*
X199485153Y-114147600D01*
X200048285Y-114147600D01*
X200177400Y-114276714D01*
X200177400Y-115417600D01*
X200197400Y-115417600D01*
X200197400Y-115722400D01*
X200177400Y-115722400D01*
X200177400Y-116941600D01*
X200685400Y-116941600D01*
X201193800Y-116780421D01*
X201193800Y-117211953D01*
X200992534Y-117077472D01*
X200564847Y-116992400D01*
X199872600Y-116992400D01*
X199872600Y-116941600D01*
X199872600Y-115722400D01*
X199872600Y-115417600D01*
X199872600Y-114198400D01*
X199364600Y-114198400D01*
X198851312Y-114361128D01*
X198439369Y-114707896D01*
X198194516Y-115206239D01*
X198307363Y-115417600D01*
X199872600Y-115417600D01*
X199872600Y-115722400D01*
X198307363Y-115722400D01*
X198194516Y-115933761D01*
X198439369Y-116432104D01*
X198851312Y-116778872D01*
X199364600Y-116941600D01*
X199872600Y-116941600D01*
X199872600Y-116992400D01*
X199485153Y-116992400D01*
X199057466Y-117077472D01*
X198694890Y-117319737D01*
X198452625Y-117682313D01*
X198367553Y-118110000D01*
X198452625Y-118537687D01*
X198694890Y-118900263D01*
X199057466Y-119142528D01*
X199485153Y-119227600D01*
X200376585Y-119227600D01*
X197010985Y-122593200D01*
X196226328Y-122593200D01*
X196390375Y-122347687D01*
X196475447Y-121920000D01*
X196475447Y-119380000D01*
X196475447Y-116840000D01*
X196475447Y-114300000D01*
X196475447Y-111760000D01*
X196475447Y-109220000D01*
X196475447Y-106680000D01*
X196475447Y-104140000D01*
X196475447Y-101600000D01*
X196475447Y-99060000D01*
X196475447Y-96520000D01*
X196475447Y-93980000D01*
X196475447Y-91440000D01*
X196475447Y-88900000D01*
X196390375Y-88472313D01*
X196148110Y-88109737D01*
X195785534Y-87867472D01*
X195357847Y-87782400D01*
X194278153Y-87782400D01*
X193850466Y-87867472D01*
X193487890Y-88109737D01*
X193245625Y-88472313D01*
X193160553Y-88900000D01*
X193245625Y-89327687D01*
X193487890Y-89690263D01*
X193850466Y-89932528D01*
X194278153Y-90017600D01*
X195357847Y-90017600D01*
X195785534Y-89932528D01*
X196148110Y-89690263D01*
X196390375Y-89327687D01*
X196475447Y-88900000D01*
X196475447Y-91440000D01*
X196390375Y-91012313D01*
X196148110Y-90649737D01*
X195785534Y-90407472D01*
X195357847Y-90322400D01*
X194278153Y-90322400D01*
X193850466Y-90407472D01*
X193487890Y-90649737D01*
X193245625Y-91012313D01*
X193160553Y-91440000D01*
X193245625Y-91867687D01*
X193487890Y-92230263D01*
X193850466Y-92472528D01*
X194278153Y-92557600D01*
X195357847Y-92557600D01*
X195785534Y-92472528D01*
X196148110Y-92230263D01*
X196390375Y-91867687D01*
X196475447Y-91440000D01*
X196475447Y-93980000D01*
X196390375Y-93552313D01*
X196148110Y-93189737D01*
X195785534Y-92947472D01*
X195357847Y-92862400D01*
X194278153Y-92862400D01*
X193850466Y-92947472D01*
X193487890Y-93189737D01*
X193245625Y-93552313D01*
X193160553Y-93980000D01*
X193245625Y-94407687D01*
X193487890Y-94770263D01*
X193850466Y-95012528D01*
X194278153Y-95097600D01*
X195357847Y-95097600D01*
X195785534Y-95012528D01*
X196148110Y-94770263D01*
X196390375Y-94407687D01*
X196475447Y-93980000D01*
X196475447Y-96520000D01*
X196390375Y-96092313D01*
X196148110Y-95729737D01*
X195785534Y-95487472D01*
X195357847Y-95402400D01*
X194278153Y-95402400D01*
X193850466Y-95487472D01*
X193487890Y-95729737D01*
X193245625Y-96092313D01*
X193160553Y-96520000D01*
X193245625Y-96947687D01*
X193487890Y-97310263D01*
X193850466Y-97552528D01*
X194278153Y-97637600D01*
X195357847Y-97637600D01*
X195785534Y-97552528D01*
X196148110Y-97310263D01*
X196390375Y-96947687D01*
X196475447Y-96520000D01*
X196475447Y-99060000D01*
X196390375Y-98632313D01*
X196148110Y-98269737D01*
X195785534Y-98027472D01*
X195357847Y-97942400D01*
X194278153Y-97942400D01*
X193850466Y-98027472D01*
X193487890Y-98269737D01*
X193245625Y-98632313D01*
X193160553Y-99060000D01*
X193245625Y-99487687D01*
X193487890Y-99850263D01*
X193850466Y-100092528D01*
X194278153Y-100177600D01*
X195357847Y-100177600D01*
X195785534Y-100092528D01*
X196148110Y-99850263D01*
X196390375Y-99487687D01*
X196475447Y-99060000D01*
X196475447Y-101600000D01*
X196390375Y-101172313D01*
X196148110Y-100809737D01*
X195785534Y-100567472D01*
X195357847Y-100482400D01*
X194278153Y-100482400D01*
X193850466Y-100567472D01*
X193487890Y-100809737D01*
X193245625Y-101172313D01*
X193160553Y-101600000D01*
X193245625Y-102027687D01*
X193487890Y-102390263D01*
X193850466Y-102632528D01*
X194278153Y-102717600D01*
X195357847Y-102717600D01*
X195785534Y-102632528D01*
X196148110Y-102390263D01*
X196390375Y-102027687D01*
X196475447Y-101600000D01*
X196475447Y-104140000D01*
X196390375Y-103712313D01*
X196148110Y-103349737D01*
X195785534Y-103107472D01*
X195357847Y-103022400D01*
X194278153Y-103022400D01*
X193850466Y-103107472D01*
X193487890Y-103349737D01*
X193245625Y-103712313D01*
X193160553Y-104140000D01*
X193245625Y-104567687D01*
X193487890Y-104930263D01*
X193850466Y-105172528D01*
X194278153Y-105257600D01*
X195357847Y-105257600D01*
X195785534Y-105172528D01*
X196148110Y-104930263D01*
X196390375Y-104567687D01*
X196475447Y-104140000D01*
X196475447Y-106680000D01*
X196390375Y-106252313D01*
X196148110Y-105889737D01*
X195785534Y-105647472D01*
X195357847Y-105562400D01*
X194278153Y-105562400D01*
X193850466Y-105647472D01*
X193487890Y-105889737D01*
X193245625Y-106252313D01*
X193160553Y-106680000D01*
X193245625Y-107107687D01*
X193487890Y-107470263D01*
X193850466Y-107712528D01*
X194278153Y-107797600D01*
X195357847Y-107797600D01*
X195785534Y-107712528D01*
X196148110Y-107470263D01*
X196390375Y-107107687D01*
X196475447Y-106680000D01*
X196475447Y-109220000D01*
X196390375Y-108792313D01*
X196148110Y-108429737D01*
X195785534Y-108187472D01*
X195357847Y-108102400D01*
X194278153Y-108102400D01*
X193850466Y-108187472D01*
X193487890Y-108429737D01*
X193245625Y-108792313D01*
X193160553Y-109220000D01*
X193245625Y-109647687D01*
X193487890Y-110010263D01*
X193850466Y-110252528D01*
X194278153Y-110337600D01*
X195357847Y-110337600D01*
X195785534Y-110252528D01*
X196148110Y-110010263D01*
X196390375Y-109647687D01*
X196475447Y-109220000D01*
X196475447Y-111760000D01*
X196390375Y-111332313D01*
X196148110Y-110969737D01*
X195785534Y-110727472D01*
X195357847Y-110642400D01*
X194278153Y-110642400D01*
X193850466Y-110727472D01*
X193487890Y-110969737D01*
X193245625Y-111332313D01*
X193160553Y-111760000D01*
X193245625Y-112187687D01*
X193487890Y-112550263D01*
X193850466Y-112792528D01*
X194278153Y-112877600D01*
X195357847Y-112877600D01*
X195785534Y-112792528D01*
X196148110Y-112550263D01*
X196390375Y-112187687D01*
X196475447Y-111760000D01*
X196475447Y-114300000D01*
X196390375Y-113872313D01*
X196148110Y-113509737D01*
X195785534Y-113267472D01*
X195357847Y-113182400D01*
X194278153Y-113182400D01*
X193850466Y-113267472D01*
X193487890Y-113509737D01*
X193245625Y-113872313D01*
X193160553Y-114300000D01*
X193245625Y-114727687D01*
X193487890Y-115090263D01*
X193850466Y-115332528D01*
X194278153Y-115417600D01*
X195357847Y-115417600D01*
X195785534Y-115332528D01*
X196148110Y-115090263D01*
X196390375Y-114727687D01*
X196475447Y-114300000D01*
X196475447Y-116840000D01*
X196390375Y-116412313D01*
X196148110Y-116049737D01*
X195785534Y-115807472D01*
X195357847Y-115722400D01*
X194278153Y-115722400D01*
X193850466Y-115807472D01*
X193487890Y-116049737D01*
X193245625Y-116412313D01*
X193160553Y-116840000D01*
X193245625Y-117267687D01*
X193487890Y-117630263D01*
X193850466Y-117872528D01*
X194278153Y-117957600D01*
X195357847Y-117957600D01*
X195785534Y-117872528D01*
X196148110Y-117630263D01*
X196390375Y-117267687D01*
X196475447Y-116840000D01*
X196475447Y-119380000D01*
X196390375Y-118952313D01*
X196148110Y-118589737D01*
X195785534Y-118347472D01*
X195357847Y-118262400D01*
X194278153Y-118262400D01*
X193850466Y-118347472D01*
X193487890Y-118589737D01*
X193245625Y-118952313D01*
X193160553Y-119380000D01*
X193245625Y-119807687D01*
X193487890Y-120170263D01*
X193850466Y-120412528D01*
X194278153Y-120497600D01*
X195357847Y-120497600D01*
X195785534Y-120412528D01*
X196148110Y-120170263D01*
X196390375Y-119807687D01*
X196475447Y-119380000D01*
X196475447Y-121920000D01*
X196390375Y-121492313D01*
X196148110Y-121129737D01*
X195785534Y-120887472D01*
X195357847Y-120802400D01*
X194278153Y-120802400D01*
X193850466Y-120887472D01*
X193487890Y-121129737D01*
X193245625Y-121492313D01*
X193160553Y-121920000D01*
X193245625Y-122347687D01*
X193409671Y-122593200D01*
X192670328Y-122593200D01*
X192834375Y-122347687D01*
X192919447Y-121920000D01*
X192919447Y-119380000D01*
X192919447Y-116840000D01*
X192919447Y-114300000D01*
X192834375Y-113872313D01*
X192592110Y-113509737D01*
X192229534Y-113267472D01*
X191801847Y-113182400D01*
X190722153Y-113182400D01*
X190294466Y-113267472D01*
X190093300Y-113401886D01*
X190093300Y-112658113D01*
X190294466Y-112792528D01*
X190722153Y-112877600D01*
X191801847Y-112877600D01*
X192229534Y-112792528D01*
X192592110Y-112550263D01*
X192834375Y-112187687D01*
X192919447Y-111760000D01*
X192834375Y-111332313D01*
X192592110Y-110969737D01*
X192229534Y-110727472D01*
X191801847Y-110642400D01*
X190722153Y-110642400D01*
X190294466Y-110727472D01*
X190093300Y-110861886D01*
X190093300Y-110118113D01*
X190294466Y-110252528D01*
X190722153Y-110337600D01*
X191801847Y-110337600D01*
X192229534Y-110252528D01*
X192592110Y-110010263D01*
X192834375Y-109647687D01*
X192919447Y-109220000D01*
X192834375Y-108792313D01*
X192592110Y-108429737D01*
X192229534Y-108187472D01*
X191801847Y-108102400D01*
X190722153Y-108102400D01*
X190294466Y-108187472D01*
X190093300Y-108321886D01*
X190093300Y-107578113D01*
X190294466Y-107712528D01*
X190722153Y-107797600D01*
X191801847Y-107797600D01*
X192229534Y-107712528D01*
X192592110Y-107470263D01*
X192834375Y-107107687D01*
X192919447Y-106680000D01*
X192834375Y-106252313D01*
X192592110Y-105889737D01*
X192229534Y-105647472D01*
X191801847Y-105562400D01*
X190722153Y-105562400D01*
X190294466Y-105647472D01*
X190093300Y-105781886D01*
X190093300Y-105038113D01*
X190294466Y-105172528D01*
X190722153Y-105257600D01*
X191801847Y-105257600D01*
X192229534Y-105172528D01*
X192592110Y-104930263D01*
X192834375Y-104567687D01*
X192919447Y-104140000D01*
X192834375Y-103712313D01*
X192592110Y-103349737D01*
X192229534Y-103107472D01*
X191801847Y-103022400D01*
X190722153Y-103022400D01*
X190294466Y-103107472D01*
X190093300Y-103241886D01*
X190093300Y-102498113D01*
X190294466Y-102632528D01*
X190722153Y-102717600D01*
X191801847Y-102717600D01*
X192229534Y-102632528D01*
X192592110Y-102390263D01*
X192834375Y-102027687D01*
X192919447Y-101600000D01*
X192919447Y-99060000D01*
X192919447Y-96520000D01*
X192919447Y-93980000D01*
X192919447Y-91440000D01*
X192919447Y-88900000D01*
X192834375Y-88472313D01*
X192592110Y-88109737D01*
X192229534Y-87867472D01*
X191801847Y-87782400D01*
X190722153Y-87782400D01*
X190294466Y-87867472D01*
X189931890Y-88109737D01*
X189689625Y-88472313D01*
X189604553Y-88900000D01*
X189689625Y-89327687D01*
X189931890Y-89690263D01*
X190294466Y-89932528D01*
X190722153Y-90017600D01*
X191801847Y-90017600D01*
X192229534Y-89932528D01*
X192592110Y-89690263D01*
X192834375Y-89327687D01*
X192919447Y-88900000D01*
X192919447Y-91440000D01*
X192834375Y-91012313D01*
X192592110Y-90649737D01*
X192229534Y-90407472D01*
X191801847Y-90322400D01*
X190722153Y-90322400D01*
X190294466Y-90407472D01*
X189931890Y-90649737D01*
X189689625Y-91012313D01*
X189604553Y-91440000D01*
X189689625Y-91867687D01*
X189931890Y-92230263D01*
X190294466Y-92472528D01*
X190722153Y-92557600D01*
X191801847Y-92557600D01*
X192229534Y-92472528D01*
X192592110Y-92230263D01*
X192834375Y-91867687D01*
X192919447Y-91440000D01*
X192919447Y-93980000D01*
X192834375Y-93552313D01*
X192592110Y-93189737D01*
X192229534Y-92947472D01*
X191801847Y-92862400D01*
X190722153Y-92862400D01*
X190294466Y-92947472D01*
X189931890Y-93189737D01*
X189689625Y-93552313D01*
X189604553Y-93980000D01*
X189689625Y-94407687D01*
X189931890Y-94770263D01*
X190294466Y-95012528D01*
X190722153Y-95097600D01*
X191801847Y-95097600D01*
X192229534Y-95012528D01*
X192592110Y-94770263D01*
X192834375Y-94407687D01*
X192919447Y-93980000D01*
X192919447Y-96520000D01*
X192834375Y-96092313D01*
X192592110Y-95729737D01*
X192229534Y-95487472D01*
X191801847Y-95402400D01*
X190722153Y-95402400D01*
X190294466Y-95487472D01*
X189931890Y-95729737D01*
X189689625Y-96092313D01*
X189604553Y-96520000D01*
X189689625Y-96947687D01*
X189931890Y-97310263D01*
X190294466Y-97552528D01*
X190722153Y-97637600D01*
X191801847Y-97637600D01*
X192229534Y-97552528D01*
X192592110Y-97310263D01*
X192834375Y-96947687D01*
X192919447Y-96520000D01*
X192919447Y-99060000D01*
X192834375Y-98632313D01*
X192592110Y-98269737D01*
X192229534Y-98027472D01*
X191801847Y-97942400D01*
X190722153Y-97942400D01*
X190294466Y-98027472D01*
X189931890Y-98269737D01*
X189689625Y-98632313D01*
X189604553Y-99060000D01*
X189689625Y-99487687D01*
X189931890Y-99850263D01*
X190294466Y-100092528D01*
X190722153Y-100177600D01*
X191801847Y-100177600D01*
X192229534Y-100092528D01*
X192592110Y-99850263D01*
X192834375Y-99487687D01*
X192919447Y-99060000D01*
X192919447Y-101600000D01*
X192834375Y-101172313D01*
X192592110Y-100809737D01*
X192229534Y-100567472D01*
X191801847Y-100482400D01*
X190722153Y-100482400D01*
X190294466Y-100567472D01*
X190093300Y-100701886D01*
X190093300Y-100558000D01*
X190050764Y-100344157D01*
X190050764Y-100344156D01*
X189929631Y-100162869D01*
X185979357Y-96212595D01*
X185979357Y-87384731D01*
X185979357Y-86605269D01*
X185970947Y-86547730D01*
X185687274Y-86016152D01*
X185267600Y-85671259D01*
X185267600Y-79279847D01*
X185267600Y-78200153D01*
X185182528Y-77772466D01*
X184940263Y-77409890D01*
X184577687Y-77167625D01*
X184150000Y-77082553D01*
X183722313Y-77167625D01*
X183359737Y-77409890D01*
X183117472Y-77772466D01*
X183032400Y-78200153D01*
X183032400Y-79279847D01*
X183117472Y-79707534D01*
X183359737Y-80070110D01*
X183722313Y-80312375D01*
X184150000Y-80397447D01*
X184577687Y-80312375D01*
X184940263Y-80070110D01*
X185182528Y-79707534D01*
X185267600Y-79279847D01*
X185267600Y-85671259D01*
X185221769Y-85633595D01*
X184645300Y-85458300D01*
X184302400Y-85458300D01*
X184302400Y-86842600D01*
X185868785Y-86842600D01*
X185979357Y-86605269D01*
X185979357Y-87384731D01*
X185868785Y-87147400D01*
X184302400Y-87147400D01*
X184302400Y-87167400D01*
X183997600Y-87167400D01*
X183997600Y-87147400D01*
X183997600Y-86842600D01*
X183997600Y-85458300D01*
X183654700Y-85458300D01*
X183078231Y-85633595D01*
X182727600Y-85921747D01*
X182727600Y-79279847D01*
X182727600Y-78200153D01*
X182642528Y-77772466D01*
X182400263Y-77409890D01*
X182037687Y-77167625D01*
X181610000Y-77082553D01*
X181182313Y-77167625D01*
X180819737Y-77409890D01*
X180577472Y-77772466D01*
X180492400Y-78200153D01*
X180492400Y-79279847D01*
X180577472Y-79707534D01*
X180819737Y-80070110D01*
X181182313Y-80312375D01*
X181610000Y-80397447D01*
X182037687Y-80312375D01*
X182400263Y-80070110D01*
X182642528Y-79707534D01*
X182727600Y-79279847D01*
X182727600Y-85921747D01*
X182612726Y-86016152D01*
X182329053Y-86547730D01*
X182320643Y-86605269D01*
X182431215Y-86842600D01*
X183997600Y-86842600D01*
X183997600Y-87147400D01*
X182431215Y-87147400D01*
X182320643Y-87384731D01*
X182329053Y-87442270D01*
X182612726Y-87973848D01*
X182943075Y-88245333D01*
X182880000Y-88245333D01*
X182744411Y-88271641D01*
X182625241Y-88349923D01*
X182545469Y-88468101D01*
X182517433Y-88607900D01*
X182517433Y-90462100D01*
X182543741Y-90597689D01*
X182622023Y-90716859D01*
X182740201Y-90796631D01*
X182880000Y-90824667D01*
X185420000Y-90824667D01*
X185555589Y-90798359D01*
X185674759Y-90720077D01*
X185754531Y-90601899D01*
X185782567Y-90462100D01*
X185782567Y-88607900D01*
X185756259Y-88472311D01*
X185677977Y-88353141D01*
X185559799Y-88273369D01*
X185420000Y-88245333D01*
X185356924Y-88245333D01*
X185687274Y-87973848D01*
X185970947Y-87442270D01*
X185979357Y-87384731D01*
X185979357Y-96212595D01*
X183221231Y-93454469D01*
X183039944Y-93333336D01*
X182826100Y-93290800D01*
X180187600Y-93290800D01*
X180187600Y-79279847D01*
X180187600Y-78200153D01*
X180102528Y-77772466D01*
X179860263Y-77409890D01*
X179497687Y-77167625D01*
X179070000Y-77082553D01*
X178642313Y-77167625D01*
X178279737Y-77409890D01*
X178037472Y-77772466D01*
X177952400Y-78200153D01*
X177952400Y-79279847D01*
X178037472Y-79707534D01*
X178279737Y-80070110D01*
X178642313Y-80312375D01*
X179070000Y-80397447D01*
X179497687Y-80312375D01*
X179860263Y-80070110D01*
X180102528Y-79707534D01*
X180187600Y-79279847D01*
X180187600Y-93290800D01*
X177647600Y-93290800D01*
X177647600Y-79279847D01*
X177647600Y-78200153D01*
X177562528Y-77772466D01*
X177320263Y-77409890D01*
X176957687Y-77167625D01*
X176530000Y-77082553D01*
X176102313Y-77167625D01*
X175739737Y-77409890D01*
X175497472Y-77772466D01*
X175412400Y-78200153D01*
X175412400Y-79279847D01*
X175497472Y-79707534D01*
X175739737Y-80070110D01*
X176102313Y-80312375D01*
X176530000Y-80397447D01*
X176957687Y-80312375D01*
X177320263Y-80070110D01*
X177562528Y-79707534D01*
X177647600Y-79279847D01*
X177647600Y-93290800D01*
X175107600Y-93290800D01*
X175107600Y-79279847D01*
X175107600Y-78200153D01*
X175022528Y-77772466D01*
X174780263Y-77409890D01*
X174417687Y-77167625D01*
X173990000Y-77082553D01*
X173562313Y-77167625D01*
X173199737Y-77409890D01*
X172957472Y-77772466D01*
X172872400Y-78200153D01*
X172872400Y-79279847D01*
X172957472Y-79707534D01*
X173199737Y-80070110D01*
X173562313Y-80312375D01*
X173990000Y-80397447D01*
X174417687Y-80312375D01*
X174780263Y-80070110D01*
X175022528Y-79707534D01*
X175107600Y-79279847D01*
X175107600Y-93290800D01*
X172567600Y-93290800D01*
X172567600Y-79279847D01*
X172567600Y-78200153D01*
X172482528Y-77772466D01*
X172240263Y-77409890D01*
X171877687Y-77167625D01*
X171450000Y-77082553D01*
X171022313Y-77167625D01*
X170659737Y-77409890D01*
X170417472Y-77772466D01*
X170332400Y-78200153D01*
X170332400Y-79279847D01*
X170417472Y-79707534D01*
X170659737Y-80070110D01*
X171022313Y-80312375D01*
X171450000Y-80397447D01*
X171877687Y-80312375D01*
X172240263Y-80070110D01*
X172482528Y-79707534D01*
X172567600Y-79279847D01*
X172567600Y-93290800D01*
X170027600Y-93290800D01*
X170027600Y-79279847D01*
X170027600Y-78200153D01*
X169942528Y-77772466D01*
X169700263Y-77409890D01*
X169337687Y-77167625D01*
X168910000Y-77082553D01*
X168482313Y-77167625D01*
X168119737Y-77409890D01*
X167877472Y-77772466D01*
X167792400Y-78200153D01*
X167792400Y-79279847D01*
X167877472Y-79707534D01*
X168119737Y-80070110D01*
X168482313Y-80312375D01*
X168910000Y-80397447D01*
X169337687Y-80312375D01*
X169700263Y-80070110D01*
X169942528Y-79707534D01*
X170027600Y-79279847D01*
X170027600Y-93290800D01*
X167487600Y-93290800D01*
X167487600Y-79279847D01*
X167487600Y-78200153D01*
X167402528Y-77772466D01*
X167160263Y-77409890D01*
X166797687Y-77167625D01*
X166370000Y-77082553D01*
X165942313Y-77167625D01*
X165579737Y-77409890D01*
X165337472Y-77772466D01*
X165252400Y-78200153D01*
X165252400Y-79279847D01*
X165337472Y-79707534D01*
X165579737Y-80070110D01*
X165942313Y-80312375D01*
X166370000Y-80397447D01*
X166797687Y-80312375D01*
X167160263Y-80070110D01*
X167402528Y-79707534D01*
X167487600Y-79279847D01*
X167487600Y-93290800D01*
X162407600Y-93290800D01*
X162407600Y-79279847D01*
X162407600Y-78200153D01*
X162322528Y-77772466D01*
X162080263Y-77409890D01*
X161717687Y-77167625D01*
X161290000Y-77082553D01*
X160862313Y-77167625D01*
X160499737Y-77409890D01*
X160257472Y-77772466D01*
X160172400Y-78200153D01*
X160172400Y-79279847D01*
X160257472Y-79707534D01*
X160499737Y-80070110D01*
X160862313Y-80312375D01*
X161290000Y-80397447D01*
X161717687Y-80312375D01*
X162080263Y-80070110D01*
X162322528Y-79707534D01*
X162407600Y-79279847D01*
X162407600Y-93290800D01*
X159867600Y-93290800D01*
X159867600Y-79279847D01*
X159867600Y-78200153D01*
X159782528Y-77772466D01*
X159540263Y-77409890D01*
X159177687Y-77167625D01*
X158750000Y-77082553D01*
X158322313Y-77167625D01*
X157959737Y-77409890D01*
X157717472Y-77772466D01*
X157632400Y-78200153D01*
X157632400Y-79279847D01*
X157717472Y-79707534D01*
X157959737Y-80070110D01*
X158322313Y-80312375D01*
X158750000Y-80397447D01*
X159177687Y-80312375D01*
X159540263Y-80070110D01*
X159782528Y-79707534D01*
X159867600Y-79279847D01*
X159867600Y-93290800D01*
X157327600Y-93290800D01*
X157327600Y-79279847D01*
X157327600Y-78200153D01*
X157242528Y-77772466D01*
X157000263Y-77409890D01*
X156637687Y-77167625D01*
X156210000Y-77082553D01*
X155782313Y-77167625D01*
X155419737Y-77409890D01*
X155177472Y-77772466D01*
X155092400Y-78200153D01*
X155092400Y-79279847D01*
X155177472Y-79707534D01*
X155419737Y-80070110D01*
X155782313Y-80312375D01*
X156210000Y-80397447D01*
X156637687Y-80312375D01*
X157000263Y-80070110D01*
X157242528Y-79707534D01*
X157327600Y-79279847D01*
X157327600Y-93290800D01*
X154787600Y-93290800D01*
X154787600Y-79279847D01*
X154787600Y-78200153D01*
X154702528Y-77772466D01*
X154460263Y-77409890D01*
X154097687Y-77167625D01*
X153670000Y-77082553D01*
X153242313Y-77167625D01*
X152879737Y-77409890D01*
X152637472Y-77772466D01*
X152552400Y-78200153D01*
X152552400Y-79279847D01*
X152637472Y-79707534D01*
X152879737Y-80070110D01*
X153242313Y-80312375D01*
X153670000Y-80397447D01*
X154097687Y-80312375D01*
X154460263Y-80070110D01*
X154702528Y-79707534D01*
X154787600Y-79279847D01*
X154787600Y-93290800D01*
X152247600Y-93290800D01*
X152247600Y-79279847D01*
X152247600Y-78200153D01*
X152162528Y-77772466D01*
X151920263Y-77409890D01*
X151557687Y-77167625D01*
X151130000Y-77082553D01*
X150702313Y-77167625D01*
X150339737Y-77409890D01*
X150097472Y-77772466D01*
X150012400Y-78200153D01*
X150012400Y-79279847D01*
X150097472Y-79707534D01*
X150339737Y-80070110D01*
X150702313Y-80312375D01*
X151130000Y-80397447D01*
X151557687Y-80312375D01*
X151920263Y-80070110D01*
X152162528Y-79707534D01*
X152247600Y-79279847D01*
X152247600Y-93290800D01*
X149707600Y-93290800D01*
X149707600Y-79279847D01*
X149707600Y-78200153D01*
X149622528Y-77772466D01*
X149380263Y-77409890D01*
X149017687Y-77167625D01*
X148590000Y-77082553D01*
X148162313Y-77167625D01*
X147799737Y-77409890D01*
X147557472Y-77772466D01*
X147472400Y-78200153D01*
X147472400Y-79279847D01*
X147557472Y-79707534D01*
X147799737Y-80070110D01*
X148162313Y-80312375D01*
X148590000Y-80397447D01*
X149017687Y-80312375D01*
X149380263Y-80070110D01*
X149622528Y-79707534D01*
X149707600Y-79279847D01*
X149707600Y-93290800D01*
X147167600Y-93290800D01*
X147167600Y-79279847D01*
X147167600Y-78200153D01*
X147082528Y-77772466D01*
X146840263Y-77409890D01*
X146477687Y-77167625D01*
X146050000Y-77082553D01*
X145622313Y-77167625D01*
X145259737Y-77409890D01*
X145017472Y-77772466D01*
X144932400Y-78200153D01*
X144932400Y-79279847D01*
X145017472Y-79707534D01*
X145259737Y-80070110D01*
X145622313Y-80312375D01*
X146050000Y-80397447D01*
X146477687Y-80312375D01*
X146840263Y-80070110D01*
X147082528Y-79707534D01*
X147167600Y-79279847D01*
X147167600Y-93290800D01*
X144627600Y-93290800D01*
X144627600Y-79279847D01*
X144627600Y-78200153D01*
X144542528Y-77772466D01*
X144300263Y-77409890D01*
X143937687Y-77167625D01*
X143510000Y-77082553D01*
X143082313Y-77167625D01*
X142719737Y-77409890D01*
X142477472Y-77772466D01*
X142392400Y-78200153D01*
X142392400Y-79279847D01*
X142477472Y-79707534D01*
X142719737Y-80070110D01*
X143082313Y-80312375D01*
X143510000Y-80397447D01*
X143937687Y-80312375D01*
X144300263Y-80070110D01*
X144542528Y-79707534D01*
X144627600Y-79279847D01*
X144627600Y-93290800D01*
X140563600Y-93290800D01*
X140563600Y-79279847D01*
X140563600Y-78200153D01*
X140478528Y-77772466D01*
X140236263Y-77409890D01*
X139873687Y-77167625D01*
X139446000Y-77082553D01*
X139018313Y-77167625D01*
X138655737Y-77409890D01*
X138413472Y-77772466D01*
X138328400Y-78200153D01*
X138328400Y-79279847D01*
X138413472Y-79707534D01*
X138655737Y-80070110D01*
X139018313Y-80312375D01*
X139446000Y-80397447D01*
X139873687Y-80312375D01*
X140236263Y-80070110D01*
X140478528Y-79707534D01*
X140563600Y-79279847D01*
X140563600Y-93290800D01*
X138023600Y-93290800D01*
X138023600Y-79279847D01*
X138023600Y-78200153D01*
X137938528Y-77772466D01*
X137696263Y-77409890D01*
X137333687Y-77167625D01*
X136906000Y-77082553D01*
X136478313Y-77167625D01*
X136115737Y-77409890D01*
X135873472Y-77772466D01*
X135788400Y-78200153D01*
X135788400Y-79279847D01*
X135873472Y-79707534D01*
X136115737Y-80070110D01*
X136478313Y-80312375D01*
X136906000Y-80397447D01*
X137333687Y-80312375D01*
X137696263Y-80070110D01*
X137938528Y-79707534D01*
X138023600Y-79279847D01*
X138023600Y-93290800D01*
X135483600Y-93290800D01*
X135483600Y-79279847D01*
X135483600Y-78200153D01*
X135398528Y-77772466D01*
X135156263Y-77409890D01*
X134793687Y-77167625D01*
X134366000Y-77082553D01*
X133938313Y-77167625D01*
X133575737Y-77409890D01*
X133333472Y-77772466D01*
X133248400Y-78200153D01*
X133248400Y-79279847D01*
X133333472Y-79707534D01*
X133575737Y-80070110D01*
X133938313Y-80312375D01*
X134366000Y-80397447D01*
X134793687Y-80312375D01*
X135156263Y-80070110D01*
X135398528Y-79707534D01*
X135483600Y-79279847D01*
X135483600Y-93290800D01*
X132943600Y-93290800D01*
X132943600Y-79279847D01*
X132943600Y-78200153D01*
X132858528Y-77772466D01*
X132616263Y-77409890D01*
X132253687Y-77167625D01*
X131826000Y-77082553D01*
X131398313Y-77167625D01*
X131035737Y-77409890D01*
X130793472Y-77772466D01*
X130708400Y-78200153D01*
X130708400Y-79279847D01*
X130793472Y-79707534D01*
X131035737Y-80070110D01*
X131398313Y-80312375D01*
X131826000Y-80397447D01*
X132253687Y-80312375D01*
X132616263Y-80070110D01*
X132858528Y-79707534D01*
X132943600Y-79279847D01*
X132943600Y-93290800D01*
X130403600Y-93290800D01*
X130403600Y-79279847D01*
X130403600Y-78200153D01*
X130318528Y-77772466D01*
X130076263Y-77409890D01*
X129713687Y-77167625D01*
X129286000Y-77082553D01*
X128858313Y-77167625D01*
X128495737Y-77409890D01*
X128253472Y-77772466D01*
X128168400Y-78200153D01*
X128168400Y-79279847D01*
X128253472Y-79707534D01*
X128495737Y-80070110D01*
X128858313Y-80312375D01*
X129286000Y-80397447D01*
X129713687Y-80312375D01*
X130076263Y-80070110D01*
X130318528Y-79707534D01*
X130403600Y-79279847D01*
X130403600Y-93290800D01*
X127863600Y-93290800D01*
X127863600Y-79279847D01*
X127863600Y-78200153D01*
X127778528Y-77772466D01*
X127536263Y-77409890D01*
X127173687Y-77167625D01*
X126746000Y-77082553D01*
X126318313Y-77167625D01*
X125955737Y-77409890D01*
X125713472Y-77772466D01*
X125628400Y-78200153D01*
X125628400Y-79279847D01*
X125713472Y-79707534D01*
X125955737Y-80070110D01*
X126318313Y-80312375D01*
X126746000Y-80397447D01*
X127173687Y-80312375D01*
X127536263Y-80070110D01*
X127778528Y-79707534D01*
X127863600Y-79279847D01*
X127863600Y-93290800D01*
X125323600Y-93290800D01*
X125323600Y-79279847D01*
X125323600Y-78200153D01*
X125238528Y-77772466D01*
X124996263Y-77409890D01*
X124633687Y-77167625D01*
X124206000Y-77082553D01*
X123778313Y-77167625D01*
X123415737Y-77409890D01*
X123173472Y-77772466D01*
X123088400Y-78200153D01*
X123088400Y-79279847D01*
X123173472Y-79707534D01*
X123415737Y-80070110D01*
X123778313Y-80312375D01*
X124206000Y-80397447D01*
X124633687Y-80312375D01*
X124996263Y-80070110D01*
X125238528Y-79707534D01*
X125323600Y-79279847D01*
X125323600Y-93290800D01*
X122783600Y-93290800D01*
X122783600Y-79279847D01*
X122783600Y-78200153D01*
X122698528Y-77772466D01*
X122456263Y-77409890D01*
X122093687Y-77167625D01*
X121666000Y-77082553D01*
X121238313Y-77167625D01*
X120875737Y-77409890D01*
X120633472Y-77772466D01*
X120548400Y-78200153D01*
X120548400Y-79279847D01*
X120633472Y-79707534D01*
X120875737Y-80070110D01*
X121238313Y-80312375D01*
X121666000Y-80397447D01*
X122093687Y-80312375D01*
X122456263Y-80070110D01*
X122698528Y-79707534D01*
X122783600Y-79279847D01*
X122783600Y-93290800D01*
X120243600Y-93290800D01*
X120243600Y-79279847D01*
X120243600Y-78200153D01*
X120158528Y-77772466D01*
X119916263Y-77409890D01*
X119553687Y-77167625D01*
X119126000Y-77082553D01*
X118698313Y-77167625D01*
X118335737Y-77409890D01*
X118093472Y-77772466D01*
X118008400Y-78200153D01*
X118008400Y-79279847D01*
X118093472Y-79707534D01*
X118335737Y-80070110D01*
X118698313Y-80312375D01*
X119126000Y-80397447D01*
X119553687Y-80312375D01*
X119916263Y-80070110D01*
X120158528Y-79707534D01*
X120243600Y-79279847D01*
X120243600Y-93290800D01*
X117703600Y-93290800D01*
X117703600Y-79279847D01*
X117703600Y-78200153D01*
X117618528Y-77772466D01*
X117376263Y-77409890D01*
X117013687Y-77167625D01*
X116586000Y-77082553D01*
X116158313Y-77167625D01*
X115795737Y-77409890D01*
X115553472Y-77772466D01*
X115468400Y-78200153D01*
X115468400Y-79279847D01*
X115553472Y-79707534D01*
X115795737Y-80070110D01*
X116158313Y-80312375D01*
X116586000Y-80397447D01*
X117013687Y-80312375D01*
X117376263Y-80070110D01*
X117618528Y-79707534D01*
X117703600Y-79279847D01*
X117703600Y-93290800D01*
X115354503Y-93290800D01*
X115354503Y-78279736D01*
X115001425Y-77425223D01*
X114348216Y-76770873D01*
X113494320Y-76416304D01*
X112569736Y-76415497D01*
X111715223Y-76768575D01*
X111060873Y-77421784D01*
X110706304Y-78275680D01*
X110705497Y-79200264D01*
X111058575Y-80054777D01*
X111711784Y-80709127D01*
X112565680Y-81063696D01*
X113490264Y-81064503D01*
X114344777Y-80711425D01*
X114999127Y-80058216D01*
X115353696Y-79204320D01*
X115354503Y-78279736D01*
X115354503Y-93290800D01*
X112170700Y-93290800D01*
X111956857Y-93333335D01*
X111775569Y-93454468D01*
X105014869Y-100215169D01*
X104893736Y-100396456D01*
X104851200Y-100610300D01*
X104851200Y-101757159D01*
X104447442Y-101837472D01*
X104084866Y-102079737D01*
X103842601Y-102442313D01*
X103757529Y-102870000D01*
X103842601Y-103297687D01*
X104084866Y-103660263D01*
X104447442Y-103902528D01*
X104875129Y-103987600D01*
X105436871Y-103987600D01*
X105864558Y-103902528D01*
X106227134Y-103660263D01*
X106469399Y-103297687D01*
X106554471Y-102870000D01*
X106469399Y-102442313D01*
X106227134Y-102079737D01*
X105968800Y-101907124D01*
X105968800Y-100841762D01*
X106582160Y-100228402D01*
X106725173Y-100228402D01*
X106573837Y-100445096D01*
X106722637Y-100962970D01*
X107058292Y-101384480D01*
X107452936Y-101602956D01*
X107159737Y-101798866D01*
X106917472Y-102161442D01*
X106832400Y-102589129D01*
X106832400Y-103150871D01*
X106917472Y-103578558D01*
X107159737Y-103941134D01*
X107452936Y-104137043D01*
X107058292Y-104355520D01*
X106722637Y-104777030D01*
X106573837Y-105294904D01*
X106725175Y-105511600D01*
X107797600Y-105511600D01*
X107797600Y-105491600D01*
X108102400Y-105491600D01*
X108102400Y-105511600D01*
X109174825Y-105511600D01*
X109326163Y-105294904D01*
X109177363Y-104777030D01*
X108841708Y-104355520D01*
X108447063Y-104137043D01*
X108740263Y-103941134D01*
X108982528Y-103578558D01*
X109067600Y-103150871D01*
X109067600Y-102589129D01*
X108982528Y-102161442D01*
X108740263Y-101798866D01*
X108447063Y-101602956D01*
X108841708Y-101384480D01*
X109177363Y-100962970D01*
X109326163Y-100445096D01*
X109174825Y-100228400D01*
X108102400Y-100228400D01*
X108102400Y-100248400D01*
X107797600Y-100248400D01*
X107797600Y-100228400D01*
X107777600Y-100228400D01*
X107777600Y-99923600D01*
X107797600Y-99923600D01*
X107797600Y-99903600D01*
X108102400Y-99903600D01*
X108102400Y-99923600D01*
X109174825Y-99923600D01*
X109326163Y-99706904D01*
X109177363Y-99189030D01*
X108841708Y-98767520D01*
X108370299Y-98506546D01*
X108313761Y-98499516D01*
X108307936Y-98502625D01*
X112402162Y-94408400D01*
X149906237Y-94408400D01*
X147688769Y-96625869D01*
X147567636Y-96807156D01*
X147525100Y-97021000D01*
X147525100Y-124766400D01*
X147567636Y-124980244D01*
X147688769Y-125161531D01*
X148031200Y-125503962D01*
X148031200Y-125515231D01*
X147799737Y-125669890D01*
X147557472Y-126032466D01*
X147472400Y-126460153D01*
X147472400Y-127539847D01*
X147557472Y-127967534D01*
X147799737Y-128330110D01*
X148162313Y-128572375D01*
X148590000Y-128657447D01*
X149017687Y-128572375D01*
X149380263Y-128330110D01*
X149622528Y-127967534D01*
X149707600Y-127539847D01*
X149707600Y-126460153D01*
X149622528Y-126032466D01*
X149380263Y-125669890D01*
X149148800Y-125515231D01*
X149148800Y-125272500D01*
X149106264Y-125058656D01*
X148985131Y-124877369D01*
X148985131Y-124877368D01*
X148642700Y-124534937D01*
X148642700Y-123575462D01*
X150571200Y-125503962D01*
X150571200Y-125515231D01*
X150339737Y-125669890D01*
X150097472Y-126032466D01*
X150012400Y-126460153D01*
X150012400Y-127539847D01*
X150097472Y-127967534D01*
X150339737Y-128330110D01*
X150702313Y-128572375D01*
X151130000Y-128657447D01*
X151557687Y-128572375D01*
X151920263Y-128330110D01*
X152162528Y-127967534D01*
X152247600Y-127539847D01*
X152247600Y-126460153D01*
X152162528Y-126032466D01*
X151920263Y-125669890D01*
X151688800Y-125515231D01*
X151688800Y-125272500D01*
X151646264Y-125058657D01*
X151646264Y-125058656D01*
X151525131Y-124877369D01*
X149303400Y-122655638D01*
X149303400Y-121696162D01*
X153111200Y-125503962D01*
X153111200Y-125515231D01*
X152879737Y-125669890D01*
X152637472Y-126032466D01*
X152552400Y-126460153D01*
X152552400Y-127539847D01*
X152637472Y-127967534D01*
X152879737Y-128330110D01*
X153242313Y-128572375D01*
X153670000Y-128657447D01*
X154097687Y-128572375D01*
X154460263Y-128330110D01*
X154702528Y-127967534D01*
X154787600Y-127539847D01*
X154787600Y-126460153D01*
X154702528Y-126032466D01*
X154460263Y-125669890D01*
X154228800Y-125515231D01*
X154228800Y-125272500D01*
X154186265Y-125058657D01*
X154186264Y-125058656D01*
X154065132Y-124877369D01*
X149964100Y-120776337D01*
X149964100Y-119700962D01*
X155651200Y-125388062D01*
X155651200Y-125515231D01*
X155419737Y-125669890D01*
X155177472Y-126032466D01*
X155092400Y-126460153D01*
X155092400Y-127539847D01*
X155177472Y-127967534D01*
X155419737Y-128330110D01*
X155782313Y-128572375D01*
X156210000Y-128657447D01*
X156637687Y-128572375D01*
X157000263Y-128330110D01*
X157242528Y-127967534D01*
X157327600Y-127539847D01*
X157327600Y-126460153D01*
X157242528Y-126032466D01*
X157000263Y-125669890D01*
X156768800Y-125515231D01*
X156768800Y-125156600D01*
X156726265Y-124942757D01*
X156726264Y-124942756D01*
X156605131Y-124761469D01*
X150624900Y-118781238D01*
X150624900Y-117937662D01*
X158191200Y-125503962D01*
X158191200Y-125515231D01*
X157959737Y-125669890D01*
X157717472Y-126032466D01*
X157632400Y-126460153D01*
X157632400Y-127539847D01*
X157717472Y-127967534D01*
X157959737Y-128330110D01*
X158322313Y-128572375D01*
X158750000Y-128657447D01*
X159177687Y-128572375D01*
X159540263Y-128330110D01*
X159782528Y-127967534D01*
X159867600Y-127539847D01*
X159867600Y-126460153D01*
X159782528Y-126032466D01*
X159540263Y-125669890D01*
X159308800Y-125515231D01*
X159308800Y-125272500D01*
X159266264Y-125058657D01*
X159266264Y-125058656D01*
X159145131Y-124877369D01*
X151306000Y-117038238D01*
X151306000Y-113538762D01*
X163271200Y-125503962D01*
X163271200Y-125515231D01*
X163039737Y-125669890D01*
X162797472Y-126032466D01*
X162712400Y-126460153D01*
X162712400Y-127539847D01*
X162797472Y-127967534D01*
X162931886Y-128168700D01*
X162188113Y-128168700D01*
X162322528Y-127967534D01*
X162407600Y-127539847D01*
X162407600Y-126460153D01*
X162322528Y-126032466D01*
X162080263Y-125669890D01*
X161717687Y-125427625D01*
X161290000Y-125342553D01*
X160862313Y-125427625D01*
X160499737Y-125669890D01*
X160257472Y-126032466D01*
X160172400Y-126460153D01*
X160172400Y-127539847D01*
X160257472Y-127967534D01*
X160499737Y-128330110D01*
X160731200Y-128484768D01*
X160731200Y-128727500D01*
X160773736Y-128941344D01*
X160894869Y-129122631D01*
X161076156Y-129243764D01*
X161290000Y-129286300D01*
X166886400Y-129286300D01*
X167100243Y-129243764D01*
X167100244Y-129243764D01*
X167281531Y-129122631D01*
X167995331Y-128408831D01*
X167995332Y-128408831D01*
X168116464Y-128227544D01*
X168116465Y-128227543D01*
X168159000Y-128013700D01*
X168159000Y-124206300D01*
X168116465Y-123992457D01*
X168116464Y-123992456D01*
X167995332Y-123811169D01*
X163677600Y-119493437D01*
X163677600Y-108236357D01*
X163677600Y-107993843D01*
X163677600Y-106172000D01*
X163525200Y-106019600D01*
X162712400Y-106019600D01*
X162712400Y-108572300D01*
X162864800Y-108724700D01*
X163189257Y-108724700D01*
X163413311Y-108631894D01*
X163584794Y-108460411D01*
X163677600Y-108236357D01*
X163677600Y-119493437D01*
X155498800Y-111314637D01*
X155498800Y-108467810D01*
X155583589Y-108451359D01*
X155702759Y-108373077D01*
X155782531Y-108254899D01*
X155810567Y-108115100D01*
X155810567Y-103619300D01*
X155784259Y-103483711D01*
X155705977Y-103364541D01*
X155587799Y-103284769D01*
X155448000Y-103256733D01*
X154432000Y-103256733D01*
X154296411Y-103283041D01*
X154177241Y-103361323D01*
X154097469Y-103479501D01*
X154069433Y-103619300D01*
X154069433Y-108115100D01*
X154095741Y-108250689D01*
X154174023Y-108369859D01*
X154292201Y-108449631D01*
X154381200Y-108467479D01*
X154381200Y-111546100D01*
X154423736Y-111759944D01*
X154544869Y-111941231D01*
X167041400Y-124437762D01*
X167041400Y-125590468D01*
X166928800Y-125515231D01*
X166928800Y-125272500D01*
X166886264Y-125058656D01*
X166765131Y-124877369D01*
X166765131Y-124877368D01*
X152958800Y-111071037D01*
X152958800Y-108572600D01*
X152958800Y-108467810D01*
X153043589Y-108451359D01*
X153162759Y-108373077D01*
X153242531Y-108254899D01*
X153270567Y-108115100D01*
X153270567Y-103619300D01*
X153244259Y-103483711D01*
X153165977Y-103364541D01*
X153047799Y-103284769D01*
X152908000Y-103256733D01*
X152390929Y-103256733D01*
X152538139Y-103109522D01*
X152613844Y-103094464D01*
X152795131Y-102973331D01*
X152916264Y-102792044D01*
X152958800Y-102578200D01*
X152958800Y-102473410D01*
X153043589Y-102456959D01*
X153162759Y-102378677D01*
X153242531Y-102260499D01*
X153270567Y-102120700D01*
X153270567Y-97726200D01*
X154069433Y-97726200D01*
X154069433Y-102120700D01*
X154095741Y-102256289D01*
X154174023Y-102375459D01*
X154292201Y-102455231D01*
X154432000Y-102483267D01*
X155448000Y-102483267D01*
X155583589Y-102456959D01*
X155702759Y-102378677D01*
X155782531Y-102260499D01*
X155810567Y-102120700D01*
X155810567Y-97847129D01*
X155955700Y-97992262D01*
X155955700Y-102317100D01*
X155998236Y-102530944D01*
X156119369Y-102712231D01*
X156748154Y-103341016D01*
X156717241Y-103361323D01*
X156637469Y-103479501D01*
X156609433Y-103619300D01*
X156609433Y-108115100D01*
X156635741Y-108250689D01*
X156714023Y-108369859D01*
X156832201Y-108449631D01*
X156972000Y-108477667D01*
X157988000Y-108477667D01*
X158123589Y-108451359D01*
X158242759Y-108373077D01*
X158322531Y-108254899D01*
X158350567Y-108115100D01*
X158350567Y-103619300D01*
X158324259Y-103483711D01*
X158245977Y-103364541D01*
X158127799Y-103284769D01*
X158038800Y-103266920D01*
X158038800Y-103161800D01*
X157996264Y-102947956D01*
X157875131Y-102766669D01*
X157693844Y-102645536D01*
X157618139Y-102630477D01*
X157470929Y-102483267D01*
X157988000Y-102483267D01*
X158123589Y-102456959D01*
X158242759Y-102378677D01*
X158322531Y-102260499D01*
X158350567Y-102120700D01*
X158350567Y-97884729D01*
X158495700Y-98029862D01*
X158495700Y-102317100D01*
X158538236Y-102530944D01*
X158659369Y-102712231D01*
X159288154Y-103341016D01*
X159257241Y-103361323D01*
X159177469Y-103479501D01*
X159149433Y-103619300D01*
X159149433Y-108115100D01*
X159175741Y-108250689D01*
X159254023Y-108369859D01*
X159372201Y-108449631D01*
X159512000Y-108477667D01*
X160528000Y-108477667D01*
X160663589Y-108451359D01*
X160782759Y-108373077D01*
X160862531Y-108254899D01*
X160890567Y-108115100D01*
X160890567Y-106703176D01*
X161130152Y-106802661D01*
X161442400Y-106802933D01*
X161442400Y-107993843D01*
X161442400Y-108236357D01*
X161535206Y-108460411D01*
X161706689Y-108631894D01*
X161930743Y-108724700D01*
X162255200Y-108724700D01*
X162407600Y-108572300D01*
X162407600Y-106019600D01*
X162387600Y-106019600D01*
X162387600Y-105714800D01*
X162407600Y-105714800D01*
X162407600Y-105694800D01*
X162712400Y-105694800D01*
X162712400Y-105714800D01*
X163525200Y-105714800D01*
X163677600Y-105562400D01*
X163677600Y-103740557D01*
X163677600Y-103498043D01*
X163584794Y-103273989D01*
X163413311Y-103102506D01*
X163269940Y-103043120D01*
X163322000Y-102781400D01*
X163322000Y-102379175D01*
X163322759Y-102378677D01*
X163402531Y-102260499D01*
X163430567Y-102120700D01*
X163430567Y-97624900D01*
X163404259Y-97489311D01*
X163325977Y-97370141D01*
X163207799Y-97290369D01*
X163068000Y-97262333D01*
X162052000Y-97262333D01*
X161916411Y-97288641D01*
X161797241Y-97366923D01*
X161717469Y-97485101D01*
X161689433Y-97624900D01*
X161689433Y-102061781D01*
X161610895Y-102077404D01*
X161511876Y-102143565D01*
X161363685Y-102242584D01*
X160751185Y-102855085D01*
X160586004Y-103102295D01*
X160576483Y-103150155D01*
X160536264Y-102947956D01*
X160415131Y-102766669D01*
X160233844Y-102645536D01*
X160158139Y-102630477D01*
X160010929Y-102483267D01*
X160528000Y-102483267D01*
X160663589Y-102456959D01*
X160782759Y-102378677D01*
X160862531Y-102260499D01*
X160890567Y-102120700D01*
X160890567Y-97624900D01*
X160864259Y-97489311D01*
X160785977Y-97370141D01*
X160667799Y-97290369D01*
X160578800Y-97272520D01*
X160578800Y-97167400D01*
X160536264Y-96953557D01*
X160536264Y-96953556D01*
X160415131Y-96772269D01*
X158051262Y-94408400D01*
X182594637Y-94408400D01*
X186942130Y-98755892D01*
X186904701Y-98760546D01*
X186433292Y-99021520D01*
X186097637Y-99443030D01*
X185948837Y-99960904D01*
X186100175Y-100177600D01*
X187172600Y-100177600D01*
X187172600Y-100157600D01*
X187477400Y-100157600D01*
X187477400Y-100177600D01*
X187497400Y-100177600D01*
X187497400Y-100482400D01*
X187477400Y-100482400D01*
X187477400Y-101793637D01*
X187688761Y-101906484D01*
X187745299Y-101899454D01*
X188216708Y-101638480D01*
X188552363Y-101216970D01*
X188701163Y-100699096D01*
X188549826Y-100482402D01*
X188668640Y-100482402D01*
X188975700Y-100789462D01*
X188975700Y-114300000D01*
X189018236Y-114513844D01*
X189139369Y-114695131D01*
X189320656Y-114816264D01*
X189534500Y-114858800D01*
X189777231Y-114858800D01*
X189931890Y-115090263D01*
X190294466Y-115332528D01*
X190722153Y-115417600D01*
X191801847Y-115417600D01*
X192229534Y-115332528D01*
X192592110Y-115090263D01*
X192834375Y-114727687D01*
X192919447Y-114300000D01*
X192919447Y-116840000D01*
X192834375Y-116412313D01*
X192592110Y-116049737D01*
X192229534Y-115807472D01*
X191801847Y-115722400D01*
X190722153Y-115722400D01*
X190294466Y-115807472D01*
X189931890Y-116049737D01*
X189689625Y-116412313D01*
X189604553Y-116840000D01*
X189689625Y-117267687D01*
X189931890Y-117630263D01*
X190294466Y-117872528D01*
X190722153Y-117957600D01*
X191801847Y-117957600D01*
X192229534Y-117872528D01*
X192592110Y-117630263D01*
X192834375Y-117267687D01*
X192919447Y-116840000D01*
X192919447Y-119380000D01*
X192834375Y-118952313D01*
X192592110Y-118589737D01*
X192229534Y-118347472D01*
X191801847Y-118262400D01*
X190722153Y-118262400D01*
X190294466Y-118347472D01*
X189931890Y-118589737D01*
X189689625Y-118952313D01*
X189604553Y-119380000D01*
X189689625Y-119807687D01*
X189931890Y-120170263D01*
X190294466Y-120412528D01*
X190722153Y-120497600D01*
X191801847Y-120497600D01*
X192229534Y-120412528D01*
X192592110Y-120170263D01*
X192834375Y-119807687D01*
X192919447Y-119380000D01*
X192919447Y-121920000D01*
X192834375Y-121492313D01*
X192592110Y-121129737D01*
X192229534Y-120887472D01*
X191801847Y-120802400D01*
X190722153Y-120802400D01*
X190294466Y-120887472D01*
X189931890Y-121129737D01*
X189689625Y-121492313D01*
X189629499Y-121794585D01*
X188701163Y-120866249D01*
X188442600Y-120607686D01*
X188442600Y-105690871D01*
X188442600Y-105129129D01*
X188357528Y-104701442D01*
X188115263Y-104338866D01*
X187752687Y-104096601D01*
X187325000Y-104011529D01*
X187172600Y-104041843D01*
X187172600Y-101793637D01*
X187172600Y-100482400D01*
X186100175Y-100482400D01*
X185948837Y-100699096D01*
X186097637Y-101216970D01*
X186433292Y-101638480D01*
X186904701Y-101899454D01*
X186961239Y-101906484D01*
X187172600Y-101793637D01*
X187172600Y-104041843D01*
X186897313Y-104096601D01*
X186534737Y-104338866D01*
X186292472Y-104701442D01*
X186207400Y-105129129D01*
X186207400Y-105690871D01*
X186292472Y-106118558D01*
X186534737Y-106481134D01*
X186897313Y-106723399D01*
X187325000Y-106808471D01*
X187752687Y-106723399D01*
X188115263Y-106481134D01*
X188357528Y-106118558D01*
X188442600Y-105690871D01*
X188442600Y-120607686D01*
X186664200Y-118829286D01*
X186664200Y-107060600D01*
X186609368Y-106784945D01*
X186598462Y-106730115D01*
X186598462Y-106730114D01*
X186411257Y-106449943D01*
X186411257Y-106449942D01*
X183884100Y-103922786D01*
X184090698Y-103613592D01*
X184238608Y-102870000D01*
X184090698Y-102126408D01*
X183669487Y-101496021D01*
X183039100Y-101074810D01*
X182295508Y-100926900D01*
X180924492Y-100926900D01*
X180180900Y-101074810D01*
X179550513Y-101496021D01*
X179129302Y-102126408D01*
X178981392Y-102870000D01*
X179129302Y-103613592D01*
X179550513Y-104243979D01*
X180180900Y-104665190D01*
X180924492Y-104813100D01*
X182295508Y-104813100D01*
X182325766Y-104807081D01*
X184937000Y-107418314D01*
X184937000Y-119187000D01*
X184946117Y-119232835D01*
X184801148Y-119172639D01*
X184626867Y-119172486D01*
X184626867Y-116255800D01*
X184600559Y-116120211D01*
X184522277Y-116001041D01*
X184404099Y-115921269D01*
X184264300Y-115893233D01*
X184238608Y-115893233D01*
X184238608Y-107569000D01*
X184090698Y-106825408D01*
X183669487Y-106195021D01*
X183039100Y-105773810D01*
X182295508Y-105625900D01*
X180924492Y-105625900D01*
X180180900Y-105773810D01*
X179550513Y-106195021D01*
X179129302Y-106825408D01*
X178981392Y-107569000D01*
X179129302Y-108312592D01*
X179550513Y-108942979D01*
X180180900Y-109364190D01*
X180924492Y-109512100D01*
X182295508Y-109512100D01*
X183039100Y-109364190D01*
X183669487Y-108942979D01*
X184090698Y-108312592D01*
X184238608Y-107569000D01*
X184238608Y-115893233D01*
X184073800Y-115893233D01*
X184073800Y-115798300D01*
X184031264Y-115584457D01*
X184031264Y-115584456D01*
X184021643Y-115570058D01*
X184021839Y-115346448D01*
X183900287Y-115052272D01*
X183675412Y-114827004D01*
X183381448Y-114704939D01*
X183063148Y-114704661D01*
X182768972Y-114826213D01*
X182543704Y-115051088D01*
X182421639Y-115345052D01*
X182421361Y-115663352D01*
X182542913Y-115957528D01*
X182554544Y-115969180D01*
X182510941Y-115997823D01*
X182431169Y-116116001D01*
X182403133Y-116255800D01*
X182403133Y-119253000D01*
X182429441Y-119388589D01*
X182507723Y-119507759D01*
X182625901Y-119587531D01*
X182765700Y-119615567D01*
X183923217Y-119615567D01*
X183841339Y-119812752D01*
X183841061Y-120131052D01*
X183962613Y-120425228D01*
X183965444Y-120428064D01*
X183900111Y-120440741D01*
X183780941Y-120519023D01*
X183701169Y-120637201D01*
X183673133Y-120777000D01*
X183673133Y-123774200D01*
X183699441Y-123909789D01*
X183777723Y-124028959D01*
X183895901Y-124108731D01*
X184035700Y-124136767D01*
X185534300Y-124136767D01*
X185669889Y-124110459D01*
X185789059Y-124032177D01*
X185868831Y-123913999D01*
X185896867Y-123774200D01*
X185896867Y-120777000D01*
X185870559Y-120641411D01*
X185792277Y-120522241D01*
X185674099Y-120442469D01*
X185547000Y-120416979D01*
X185547000Y-120154714D01*
X189459743Y-124067457D01*
X189739915Y-124254662D01*
X190070400Y-124320400D01*
X197368700Y-124320400D01*
X197368700Y-124320399D01*
X197699185Y-124254662D01*
X197979357Y-124067457D01*
X202668057Y-119378758D01*
X202668057Y-119378757D01*
X202855262Y-119098586D01*
X202855262Y-119098585D01*
X202866168Y-119043754D01*
X202920999Y-118768100D01*
X202921000Y-118768100D01*
X202921000Y-129755900D01*
X196634503Y-129755900D01*
X196634503Y-126539736D01*
X196281425Y-125685223D01*
X195628216Y-125030873D01*
X194774320Y-124676304D01*
X193849736Y-124675497D01*
X192995223Y-125028575D01*
X192340873Y-125681784D01*
X191986304Y-126535680D01*
X191985497Y-127460264D01*
X192338575Y-128314777D01*
X192991784Y-128969127D01*
X193845680Y-129323696D01*
X194770264Y-129324503D01*
X195624777Y-128971425D01*
X196279127Y-128318216D01*
X196633696Y-127464320D01*
X196634503Y-126539736D01*
X196634503Y-129755900D01*
X190347600Y-129755900D01*
X190347600Y-127539847D01*
X190347600Y-126460153D01*
X190262528Y-126032466D01*
X190020263Y-125669890D01*
X189657687Y-125427625D01*
X189230000Y-125342553D01*
X188802313Y-125427625D01*
X188439737Y-125669890D01*
X188197472Y-126032466D01*
X188112400Y-126460153D01*
X188112400Y-127539847D01*
X188197472Y-127967534D01*
X188439737Y-128330110D01*
X188802313Y-128572375D01*
X189230000Y-128657447D01*
X189657687Y-128572375D01*
X190020263Y-128330110D01*
X190262528Y-127967534D01*
X190347600Y-127539847D01*
X190347600Y-129755900D01*
X187807600Y-129755900D01*
X187807600Y-127539847D01*
X187807600Y-126460153D01*
X187722528Y-126032466D01*
X187480263Y-125669890D01*
X187117687Y-125427625D01*
X186690000Y-125342553D01*
X186262313Y-125427625D01*
X185899737Y-125669890D01*
X185657472Y-126032466D01*
X185572400Y-126460153D01*
X185572400Y-127539847D01*
X185657472Y-127967534D01*
X185899737Y-128330110D01*
X186262313Y-128572375D01*
X186690000Y-128657447D01*
X187117687Y-128572375D01*
X187480263Y-128330110D01*
X187722528Y-127967534D01*
X187807600Y-127539847D01*
X187807600Y-129755900D01*
X185267600Y-129755900D01*
X185267600Y-127539847D01*
X185267600Y-126460153D01*
X185182528Y-126032466D01*
X184940263Y-125669890D01*
X184577687Y-125427625D01*
X184150000Y-125342553D01*
X183722313Y-125427625D01*
X183359737Y-125669890D01*
X183356867Y-125674185D01*
X183356867Y-123774200D01*
X183356867Y-120777000D01*
X183330559Y-120641411D01*
X183252277Y-120522241D01*
X183134099Y-120442469D01*
X182994300Y-120414433D01*
X182086867Y-120414433D01*
X182086867Y-119253000D01*
X182086867Y-116255800D01*
X182060559Y-116120211D01*
X181982277Y-116001041D01*
X181864099Y-115921269D01*
X181724300Y-115893233D01*
X181533800Y-115893233D01*
X181533800Y-112117000D01*
X181491264Y-111903157D01*
X181491264Y-111903156D01*
X181370131Y-111721869D01*
X179495292Y-109847030D01*
X179495439Y-109678748D01*
X179373887Y-109384572D01*
X179149012Y-109159304D01*
X178855048Y-109037239D01*
X178536748Y-109036961D01*
X178242572Y-109158513D01*
X178017304Y-109383388D01*
X177895239Y-109677352D01*
X177894961Y-109995652D01*
X178016513Y-110289828D01*
X178241388Y-110515096D01*
X178535352Y-110637161D01*
X178705047Y-110637309D01*
X180416200Y-112348462D01*
X180416200Y-115893233D01*
X180225700Y-115893233D01*
X180090111Y-115919541D01*
X179970941Y-115997823D01*
X179891169Y-116116001D01*
X179863133Y-116255800D01*
X179863133Y-119253000D01*
X179889441Y-119388589D01*
X179967723Y-119507759D01*
X180085901Y-119587531D01*
X180225700Y-119615567D01*
X181724300Y-119615567D01*
X181859889Y-119589259D01*
X181979059Y-119510977D01*
X182058831Y-119392799D01*
X182086867Y-119253000D01*
X182086867Y-120414433D01*
X181495700Y-120414433D01*
X181360111Y-120440741D01*
X181240941Y-120519023D01*
X181161169Y-120637201D01*
X181133133Y-120777000D01*
X181133133Y-123672900D01*
X181063900Y-123672900D01*
X181063900Y-123652943D01*
X181063900Y-122580400D01*
X181063900Y-121970800D01*
X181063900Y-120898257D01*
X181063900Y-120655743D01*
X180971094Y-120431689D01*
X180799611Y-120260206D01*
X180575557Y-120167400D01*
X180009800Y-120167400D01*
X179857400Y-120319800D01*
X179857400Y-122123200D01*
X180911500Y-122123200D01*
X181063900Y-121970800D01*
X181063900Y-122580400D01*
X180911500Y-122428000D01*
X179857400Y-122428000D01*
X179857400Y-122448000D01*
X179793900Y-122448000D01*
X179793900Y-119374257D01*
X179793900Y-119131743D01*
X179793900Y-118059200D01*
X179793900Y-117449600D01*
X179793900Y-116377057D01*
X179793900Y-116134543D01*
X179701094Y-115910489D01*
X179529611Y-115739006D01*
X179305557Y-115646200D01*
X178739800Y-115646200D01*
X178587400Y-115798600D01*
X178587400Y-117602000D01*
X179641500Y-117602000D01*
X179793900Y-117449600D01*
X179793900Y-118059200D01*
X179641500Y-117906800D01*
X178587400Y-117906800D01*
X178587400Y-119710200D01*
X178739800Y-119862600D01*
X179305557Y-119862600D01*
X179529611Y-119769794D01*
X179701094Y-119598311D01*
X179793900Y-119374257D01*
X179793900Y-122448000D01*
X179552600Y-122448000D01*
X179552600Y-122428000D01*
X179552600Y-122123200D01*
X179552600Y-120319800D01*
X179400200Y-120167400D01*
X178834443Y-120167400D01*
X178610389Y-120260206D01*
X178438906Y-120431689D01*
X178346100Y-120655743D01*
X178346100Y-120898257D01*
X178346100Y-121970800D01*
X178498500Y-122123200D01*
X179552600Y-122123200D01*
X179552600Y-122428000D01*
X178498500Y-122428000D01*
X178359698Y-122566801D01*
X178282600Y-122489567D01*
X178282600Y-119710200D01*
X178282600Y-117906800D01*
X178282600Y-117602000D01*
X178282600Y-115798600D01*
X178130200Y-115646200D01*
X177564443Y-115646200D01*
X177340389Y-115739006D01*
X177168906Y-115910489D01*
X177076100Y-116134543D01*
X177076100Y-116377057D01*
X177076100Y-117449600D01*
X177228500Y-117602000D01*
X178282600Y-117602000D01*
X178282600Y-117906800D01*
X177228500Y-117906800D01*
X177076100Y-118059200D01*
X177076100Y-119131743D01*
X177076100Y-119374257D01*
X177168906Y-119598311D01*
X177340389Y-119769794D01*
X177564443Y-119862600D01*
X178130200Y-119862600D01*
X178282600Y-119710200D01*
X178282600Y-122489567D01*
X178182212Y-122389004D01*
X177888248Y-122266939D01*
X177569948Y-122266661D01*
X177275772Y-122388213D01*
X177050504Y-122613088D01*
X176928439Y-122907052D01*
X176928161Y-123225352D01*
X177049713Y-123519528D01*
X177274588Y-123744796D01*
X177513225Y-123843887D01*
X178296169Y-124626831D01*
X178477456Y-124747964D01*
X178477457Y-124747964D01*
X178691300Y-124790500D01*
X182245000Y-124790500D01*
X182458844Y-124747964D01*
X182640131Y-124626831D01*
X182761264Y-124445544D01*
X182803800Y-124231700D01*
X182803800Y-124136767D01*
X182994300Y-124136767D01*
X183129889Y-124110459D01*
X183249059Y-124032177D01*
X183328831Y-123913999D01*
X183356867Y-123774200D01*
X183356867Y-125674185D01*
X183117472Y-126032466D01*
X183032400Y-126460153D01*
X183032400Y-127539847D01*
X183117472Y-127967534D01*
X183359737Y-128330110D01*
X183722313Y-128572375D01*
X184150000Y-128657447D01*
X184577687Y-128572375D01*
X184940263Y-128330110D01*
X185182528Y-127967534D01*
X185267600Y-127539847D01*
X185267600Y-129755900D01*
X182727600Y-129755900D01*
X182727600Y-127539847D01*
X182727600Y-126460153D01*
X182642528Y-126032466D01*
X182400263Y-125669890D01*
X182037687Y-125427625D01*
X181610000Y-125342553D01*
X181182313Y-125427625D01*
X180819737Y-125669890D01*
X180577472Y-126032466D01*
X180492400Y-126460153D01*
X180492400Y-127539847D01*
X180577472Y-127967534D01*
X180819737Y-128330110D01*
X181182313Y-128572375D01*
X181610000Y-128657447D01*
X182037687Y-128572375D01*
X182400263Y-128330110D01*
X182642528Y-127967534D01*
X182727600Y-127539847D01*
X182727600Y-129755900D01*
X180187600Y-129755900D01*
X180187600Y-127539847D01*
X180187600Y-126460153D01*
X180102528Y-126032466D01*
X179860263Y-125669890D01*
X179497687Y-125427625D01*
X179070000Y-125342553D01*
X178642313Y-125427625D01*
X178279737Y-125669890D01*
X178037472Y-126032466D01*
X177952400Y-126460153D01*
X177952400Y-127539847D01*
X178037472Y-127967534D01*
X178279737Y-128330110D01*
X178642313Y-128572375D01*
X179070000Y-128657447D01*
X179497687Y-128572375D01*
X179860263Y-128330110D01*
X180102528Y-127967534D01*
X180187600Y-127539847D01*
X180187600Y-129755900D01*
X177647600Y-129755900D01*
X177647600Y-127539847D01*
X177647600Y-126460153D01*
X177562528Y-126032466D01*
X177320263Y-125669890D01*
X176957687Y-125427625D01*
X176530000Y-125342553D01*
X176102313Y-125427625D01*
X175739737Y-125669890D01*
X175497472Y-126032466D01*
X175412400Y-126460153D01*
X175412400Y-127539847D01*
X175497472Y-127967534D01*
X175739737Y-128330110D01*
X176102313Y-128572375D01*
X176530000Y-128657447D01*
X176957687Y-128572375D01*
X177320263Y-128330110D01*
X177562528Y-127967534D01*
X177647600Y-127539847D01*
X177647600Y-129755900D01*
X175107600Y-129755900D01*
X175107600Y-127539847D01*
X175107600Y-126460153D01*
X175022528Y-126032466D01*
X174780263Y-125669890D01*
X174417687Y-125427625D01*
X173990000Y-125342553D01*
X173562313Y-125427625D01*
X173199737Y-125669890D01*
X172957472Y-126032466D01*
X172872400Y-126460153D01*
X172872400Y-127539847D01*
X172957472Y-127967534D01*
X173199737Y-128330110D01*
X173562313Y-128572375D01*
X173990000Y-128657447D01*
X174417687Y-128572375D01*
X174780263Y-128330110D01*
X175022528Y-127967534D01*
X175107600Y-127539847D01*
X175107600Y-129755900D01*
X172567600Y-129755900D01*
X172567600Y-127539847D01*
X172567600Y-126460153D01*
X172482528Y-126032466D01*
X172240263Y-125669890D01*
X171877687Y-125427625D01*
X171450000Y-125342553D01*
X171022313Y-125427625D01*
X170659737Y-125669890D01*
X170417472Y-126032466D01*
X170332400Y-126460153D01*
X170332400Y-127539847D01*
X170417472Y-127967534D01*
X170659737Y-128330110D01*
X171022313Y-128572375D01*
X171450000Y-128657447D01*
X171877687Y-128572375D01*
X172240263Y-128330110D01*
X172482528Y-127967534D01*
X172567600Y-127539847D01*
X172567600Y-129755900D01*
X144627600Y-129755900D01*
X144627600Y-127539847D01*
X144627600Y-126460153D01*
X144542528Y-126032466D01*
X144300263Y-125669890D01*
X143937687Y-125427625D01*
X143510000Y-125342553D01*
X143082313Y-125427625D01*
X142719737Y-125669890D01*
X142477472Y-126032466D01*
X142392400Y-126460153D01*
X142392400Y-127539847D01*
X142477472Y-127967534D01*
X142719737Y-128330110D01*
X143082313Y-128572375D01*
X143510000Y-128657447D01*
X143937687Y-128572375D01*
X144300263Y-128330110D01*
X144542528Y-127967534D01*
X144627600Y-127539847D01*
X144627600Y-129755900D01*
X142341600Y-129755900D01*
X142341600Y-127660400D01*
X142341600Y-127152400D01*
X142341600Y-126847600D01*
X142341600Y-126339600D01*
X142178872Y-125826312D01*
X141832104Y-125414369D01*
X141333761Y-125169516D01*
X141122400Y-125282363D01*
X141122400Y-126847600D01*
X142341600Y-126847600D01*
X142341600Y-127152400D01*
X141122400Y-127152400D01*
X141122400Y-128717637D01*
X141333761Y-128830484D01*
X141832104Y-128585631D01*
X142178872Y-128173688D01*
X142341600Y-127660400D01*
X142341600Y-129755900D01*
X140817600Y-129755900D01*
X140817600Y-128717637D01*
X140817600Y-127152400D01*
X140817600Y-126847600D01*
X140817600Y-125282363D01*
X140606239Y-125169516D01*
X140107896Y-125414369D01*
X139761128Y-125826312D01*
X139700000Y-126019126D01*
X139638872Y-125826312D01*
X139292104Y-125414369D01*
X138793761Y-125169516D01*
X138582400Y-125282363D01*
X138582400Y-126847600D01*
X139598400Y-126847600D01*
X139801600Y-126847600D01*
X140817600Y-126847600D01*
X140817600Y-127152400D01*
X139801600Y-127152400D01*
X139598400Y-127152400D01*
X138582400Y-127152400D01*
X138582400Y-128717637D01*
X138793761Y-128830484D01*
X139292104Y-128585631D01*
X139638872Y-128173688D01*
X139700000Y-127980873D01*
X139761128Y-128173688D01*
X140107896Y-128585631D01*
X140606239Y-128830484D01*
X140817600Y-128717637D01*
X140817600Y-129755900D01*
X138277600Y-129755900D01*
X138277600Y-128717637D01*
X138277600Y-127152400D01*
X138277600Y-126847600D01*
X138277600Y-125282363D01*
X138066239Y-125169516D01*
X137567896Y-125414369D01*
X137221128Y-125826312D01*
X137058400Y-126339600D01*
X137058400Y-126847600D01*
X138277600Y-126847600D01*
X138277600Y-127152400D01*
X137058400Y-127152400D01*
X137058400Y-127660400D01*
X137221128Y-128173688D01*
X137567896Y-128585631D01*
X138066239Y-128830484D01*
X138277600Y-128717637D01*
X138277600Y-129755900D01*
X137007600Y-129755900D01*
X137007600Y-127539847D01*
X137007600Y-126460153D01*
X136922528Y-126032466D01*
X136680263Y-125669890D01*
X136652000Y-125651005D01*
X136652000Y-125069300D01*
X136593996Y-124777696D01*
X136593996Y-124777695D01*
X136527834Y-124678676D01*
X136428816Y-124530485D01*
X133279515Y-121381185D01*
X133032305Y-121216004D01*
X132740700Y-121158000D01*
X109326163Y-121158000D01*
X109326163Y-106033096D01*
X109174825Y-105816400D01*
X108102400Y-105816400D01*
X108102400Y-107127637D01*
X108313761Y-107240484D01*
X108370299Y-107233454D01*
X108841708Y-106972480D01*
X109177363Y-106550970D01*
X109326163Y-106033096D01*
X109326163Y-121158000D01*
X107885670Y-121158000D01*
X107865060Y-121054385D01*
X107797600Y-120953423D01*
X107797600Y-107127637D01*
X107797600Y-105816400D01*
X106725175Y-105816400D01*
X106573837Y-106033096D01*
X106722637Y-106550970D01*
X107058292Y-106972480D01*
X107529701Y-107233454D01*
X107586239Y-107240484D01*
X107797600Y-107127637D01*
X107797600Y-120953423D01*
X107587006Y-120638247D01*
X107170868Y-120360193D01*
X106680000Y-120262553D01*
X106189132Y-120360193D01*
X105772994Y-120638247D01*
X105542464Y-120983258D01*
X105501405Y-120848231D01*
X105118848Y-120382726D01*
X104587270Y-120099053D01*
X104529731Y-120090643D01*
X104292400Y-120201215D01*
X104292400Y-121767600D01*
X104312400Y-121767600D01*
X104312400Y-122072400D01*
X104292400Y-122072400D01*
X104292400Y-123638785D01*
X104529731Y-123749357D01*
X104587270Y-123740947D01*
X105118848Y-123457274D01*
X105501405Y-122991769D01*
X105542464Y-122856741D01*
X105772994Y-123201753D01*
X106189132Y-123479807D01*
X106680000Y-123577447D01*
X107170868Y-123479807D01*
X107587006Y-123201753D01*
X107865060Y-122785615D01*
X107885670Y-122682000D01*
X132425069Y-122682000D01*
X135128000Y-125384930D01*
X135128000Y-125651005D01*
X135099737Y-125669890D01*
X134857472Y-126032466D01*
X134772400Y-126460153D01*
X134772400Y-127539847D01*
X134857472Y-127967534D01*
X135099737Y-128330110D01*
X135462313Y-128572375D01*
X135890000Y-128657447D01*
X136317687Y-128572375D01*
X136680263Y-128330110D01*
X136922528Y-127967534D01*
X137007600Y-127539847D01*
X137007600Y-129755900D01*
X134467600Y-129755900D01*
X134467600Y-127539847D01*
X134467600Y-126460153D01*
X134382528Y-126032466D01*
X134140263Y-125669890D01*
X133777687Y-125427625D01*
X133350000Y-125342553D01*
X132922313Y-125427625D01*
X132559737Y-125669890D01*
X132317472Y-126032466D01*
X132232400Y-126460153D01*
X132232400Y-127539847D01*
X132317472Y-127967534D01*
X132559737Y-128330110D01*
X132922313Y-128572375D01*
X133350000Y-128657447D01*
X133777687Y-128572375D01*
X134140263Y-128330110D01*
X134382528Y-127967534D01*
X134467600Y-127539847D01*
X134467600Y-129755900D01*
X131927600Y-129755900D01*
X131927600Y-127539847D01*
X131927600Y-126460153D01*
X131842528Y-126032466D01*
X131600263Y-125669890D01*
X131237687Y-125427625D01*
X130810000Y-125342553D01*
X130382313Y-125427625D01*
X130019737Y-125669890D01*
X129777472Y-126032466D01*
X129692400Y-126460153D01*
X129692400Y-127539847D01*
X129777472Y-127967534D01*
X130019737Y-128330110D01*
X130382313Y-128572375D01*
X130810000Y-128657447D01*
X131237687Y-128572375D01*
X131600263Y-128330110D01*
X131842528Y-127967534D01*
X131927600Y-127539847D01*
X131927600Y-129755900D01*
X129387600Y-129755900D01*
X129387600Y-127539847D01*
X129387600Y-126460153D01*
X129302528Y-126032466D01*
X129060263Y-125669890D01*
X128697687Y-125427625D01*
X128270000Y-125342553D01*
X127842313Y-125427625D01*
X127479737Y-125669890D01*
X127237472Y-126032466D01*
X127152400Y-126460153D01*
X127152400Y-127539847D01*
X127237472Y-127967534D01*
X127479737Y-128330110D01*
X127842313Y-128572375D01*
X128270000Y-128657447D01*
X128697687Y-128572375D01*
X129060263Y-128330110D01*
X129302528Y-127967534D01*
X129387600Y-127539847D01*
X129387600Y-129755900D01*
X126847600Y-129755900D01*
X126847600Y-127539847D01*
X126847600Y-126460153D01*
X126762528Y-126032466D01*
X126520263Y-125669890D01*
X126157687Y-125427625D01*
X125730000Y-125342553D01*
X125302313Y-125427625D01*
X124939737Y-125669890D01*
X124697472Y-126032466D01*
X124612400Y-126460153D01*
X124612400Y-127539847D01*
X124697472Y-127967534D01*
X124939737Y-128330110D01*
X125302313Y-128572375D01*
X125730000Y-128657447D01*
X126157687Y-128572375D01*
X126520263Y-128330110D01*
X126762528Y-127967534D01*
X126847600Y-127539847D01*
X126847600Y-129755900D01*
X114084503Y-129755900D01*
X114084503Y-126539736D01*
X113731425Y-125685223D01*
X113078216Y-125030873D01*
X112224320Y-124676304D01*
X111299736Y-124675497D01*
X110445223Y-125028575D01*
X109790873Y-125681784D01*
X109436304Y-126535680D01*
X109435497Y-127460264D01*
X109788575Y-128314777D01*
X110441784Y-128969127D01*
X111295680Y-129323696D01*
X112220264Y-129324503D01*
X113074777Y-128971425D01*
X113729127Y-128318216D01*
X114083696Y-127464320D01*
X114084503Y-126539736D01*
X114084503Y-129755900D01*
X103987600Y-129755900D01*
X103987600Y-123638785D01*
X103987600Y-122072400D01*
X103967600Y-122072400D01*
X103967600Y-121767600D01*
X103987600Y-121767600D01*
X103987600Y-120201215D01*
X103750269Y-120090643D01*
X103692730Y-120099053D01*
X103161152Y-120382726D01*
X102889667Y-120713075D01*
X102889667Y-120650000D01*
X102863359Y-120514411D01*
X102785077Y-120395241D01*
X102666899Y-120315469D01*
X102527100Y-120287433D01*
X102012328Y-120287433D01*
X102012328Y-107950000D01*
X102012328Y-97790000D01*
X101869252Y-97070708D01*
X101461806Y-96460922D01*
X100852020Y-96053476D01*
X100132728Y-95910400D01*
X97987272Y-95910400D01*
X97267980Y-96053476D01*
X96658194Y-96460922D01*
X96250748Y-97070708D01*
X96107672Y-97790000D01*
X96250748Y-98509292D01*
X96658194Y-99119078D01*
X97267980Y-99526524D01*
X97987272Y-99669600D01*
X100132728Y-99669600D01*
X100852020Y-99526524D01*
X101461806Y-99119078D01*
X101869252Y-98509292D01*
X102012328Y-97790000D01*
X102012328Y-107950000D01*
X101869252Y-107230708D01*
X101461806Y-106620922D01*
X100852020Y-106213476D01*
X100132728Y-106070400D01*
X97987272Y-106070400D01*
X97267980Y-106213476D01*
X96658194Y-106620922D01*
X96250748Y-107230708D01*
X96107672Y-107950000D01*
X96250748Y-108669292D01*
X96658194Y-109279078D01*
X97267980Y-109686524D01*
X97987272Y-109829600D01*
X100132728Y-109829600D01*
X100852020Y-109686524D01*
X101461806Y-109279078D01*
X101869252Y-108669292D01*
X102012328Y-107950000D01*
X102012328Y-120287433D01*
X100672900Y-120287433D01*
X100537311Y-120313741D01*
X100418141Y-120392023D01*
X100338369Y-120510201D01*
X100310333Y-120650000D01*
X100310333Y-123190000D01*
X100336641Y-123325589D01*
X100414923Y-123444759D01*
X100533101Y-123524531D01*
X100672900Y-123552567D01*
X102527100Y-123552567D01*
X102662689Y-123526259D01*
X102781859Y-123447977D01*
X102861631Y-123329799D01*
X102889667Y-123190000D01*
X102889667Y-123126924D01*
X103161152Y-123457274D01*
X103692730Y-123740947D01*
X103750269Y-123749357D01*
X103987600Y-123638785D01*
X103987600Y-129755900D01*
X93764100Y-129755900D01*
X93764100Y-75984100D01*
X211035900Y-75984100D01*
X211035900Y-129755900D01*
X211035900Y-129755900D01*
G37*
X211035900Y-129755900D02*
X209778829Y-129755900D01*
X209778829Y-102608429D01*
X209578173Y-102122804D01*
X209206950Y-101750933D01*
X208721676Y-101549430D01*
X208196229Y-101548971D01*
X207710604Y-101749627D01*
X207591996Y-101868028D01*
X207256651Y-101289475D01*
X206515094Y-100722466D01*
X205708445Y-100507800D01*
X207269928Y-100507800D01*
X208086421Y-100345389D01*
X208778611Y-99882883D01*
X209241117Y-99190693D01*
X209403528Y-98374200D01*
X209241117Y-97557707D01*
X208778611Y-96865517D01*
X208086421Y-96403011D01*
X207269928Y-96240600D01*
X205632472Y-96240600D01*
X204815979Y-96403011D01*
X204123789Y-96865517D01*
X203661283Y-97557707D01*
X203498872Y-98374200D01*
X203661283Y-99190693D01*
X204123789Y-99882883D01*
X204815979Y-100345389D01*
X205504777Y-100482400D01*
X205105000Y-100482400D01*
X205105000Y-102717600D01*
X205125000Y-102717600D01*
X205125000Y-103022400D01*
X205105000Y-103022400D01*
X205105000Y-105257600D01*
X205504777Y-105257600D01*
X204815979Y-105394611D01*
X204800200Y-105405154D01*
X204800200Y-105257600D01*
X204800200Y-103022400D01*
X204800200Y-102717600D01*
X204800200Y-100482400D01*
X204292200Y-100482400D01*
X203428600Y-100712221D01*
X203428600Y-93847257D01*
X203428600Y-92697300D01*
X203428600Y-92087700D01*
X203428600Y-90937743D01*
X203335794Y-90713689D01*
X203181567Y-90559462D01*
X203181567Y-85471000D01*
X203181567Y-82804000D01*
X203155259Y-82668411D01*
X203076977Y-82549241D01*
X202958799Y-82469469D01*
X202819000Y-82441433D01*
X201228960Y-82441433D01*
X201093371Y-82467741D01*
X200974201Y-82546023D01*
X200894429Y-82664201D01*
X200866393Y-82804000D01*
X200866393Y-85471000D01*
X200892701Y-85606589D01*
X200970983Y-85725759D01*
X201089161Y-85805531D01*
X201228960Y-85833567D01*
X202819000Y-85833567D01*
X202954589Y-85807259D01*
X203073759Y-85728977D01*
X203153531Y-85610799D01*
X203181567Y-85471000D01*
X203181567Y-90559462D01*
X203164311Y-90542206D01*
X202940257Y-90449400D01*
X202697743Y-90449400D01*
X202328780Y-90449400D01*
X202176380Y-90601800D01*
X202176380Y-92240100D01*
X203276200Y-92240100D01*
X203428600Y-92087700D01*
X203428600Y-92697300D01*
X203276200Y-92544900D01*
X202176380Y-92544900D01*
X202176380Y-94183200D01*
X202328780Y-94335600D01*
X202697743Y-94335600D01*
X202940257Y-94335600D01*
X203164311Y-94242794D01*
X203335794Y-94071311D01*
X203428600Y-93847257D01*
X203428600Y-100712221D01*
X203390106Y-100722466D01*
X202648549Y-101289475D01*
X202180425Y-102097104D01*
X202115045Y-102346735D01*
X202214602Y-102717600D01*
X204800200Y-102717600D01*
X204800200Y-103022400D01*
X202214602Y-103022400D01*
X202115045Y-103393265D01*
X202180425Y-103642896D01*
X202648549Y-104450525D01*
X203390106Y-105017534D01*
X204292200Y-105257600D01*
X204800200Y-105257600D01*
X204800200Y-105405154D01*
X204123789Y-105857117D01*
X203661283Y-106549307D01*
X203498872Y-107365800D01*
X203661283Y-108182293D01*
X204123789Y-108874483D01*
X204815979Y-109336989D01*
X205632472Y-109499400D01*
X207269928Y-109499400D01*
X208086421Y-109336989D01*
X208778611Y-108874483D01*
X209241117Y-108182293D01*
X209403528Y-107365800D01*
X209241117Y-106549307D01*
X208778611Y-105857117D01*
X208086421Y-105394611D01*
X207269928Y-105232200D01*
X205708445Y-105232200D01*
X206515094Y-105017534D01*
X207256651Y-104450525D01*
X207591909Y-103872122D01*
X207708650Y-103989067D01*
X208193924Y-104190570D01*
X208719371Y-104191029D01*
X209204996Y-103990373D01*
X209576867Y-103619150D01*
X209778370Y-103133876D01*
X209778829Y-102608429D01*
X209778829Y-129755900D01*
X202921000Y-129755900D01*
X202921000Y-118768100D01*
X202921000Y-114935400D01*
X202855262Y-114604915D01*
X202668058Y-114324743D01*
X201871580Y-113528265D01*
X201871580Y-94183200D01*
X201871580Y-92544900D01*
X201871580Y-92240100D01*
X201871580Y-90601800D01*
X201719180Y-90449400D01*
X201350217Y-90449400D01*
X201107703Y-90449400D01*
X200883649Y-90542206D01*
X200712166Y-90713689D01*
X200619360Y-90937743D01*
X200619360Y-92087700D01*
X200771760Y-92240100D01*
X201871580Y-92240100D01*
X201871580Y-92544900D01*
X200771760Y-92544900D01*
X200619360Y-92697300D01*
X200619360Y-93847257D01*
X200712166Y-94071311D01*
X200883649Y-94242794D01*
X201107703Y-94335600D01*
X201350217Y-94335600D01*
X201719180Y-94335600D01*
X201871580Y-94183200D01*
X201871580Y-113528265D01*
X201853800Y-113510485D01*
X201853800Y-103434728D01*
X201853800Y-102305272D01*
X201672055Y-101391577D01*
X201154488Y-100616984D01*
X200379895Y-100099417D01*
X199466200Y-99917672D01*
X199183607Y-99973883D01*
X199183607Y-93726000D01*
X199183607Y-91059000D01*
X199183607Y-85471000D01*
X199183607Y-82804000D01*
X199157299Y-82668411D01*
X199079017Y-82549241D01*
X198960839Y-82469469D01*
X198821040Y-82441433D01*
X197231000Y-82441433D01*
X197095411Y-82467741D01*
X196976241Y-82546023D01*
X196896469Y-82664201D01*
X196868433Y-82804000D01*
X196868433Y-85233171D01*
X196330131Y-84694869D01*
X196165209Y-84584671D01*
X196390375Y-84247687D01*
X196475447Y-83820000D01*
X196475447Y-81280000D01*
X196390375Y-80852313D01*
X196148110Y-80489737D01*
X195785534Y-80247472D01*
X195427600Y-80176274D01*
X195427600Y-78771847D01*
X195427600Y-77692153D01*
X195342528Y-77264466D01*
X195100263Y-76901890D01*
X194737687Y-76659625D01*
X194310000Y-76574553D01*
X193882313Y-76659625D01*
X193519737Y-76901890D01*
X193277472Y-77264466D01*
X193192400Y-77692153D01*
X193192400Y-78771847D01*
X193277472Y-79199534D01*
X193519737Y-79562110D01*
X193882313Y-79804375D01*
X194310000Y-79889447D01*
X194737687Y-79804375D01*
X195100263Y-79562110D01*
X195342528Y-79199534D01*
X195427600Y-78771847D01*
X195427600Y-80176274D01*
X195357847Y-80162400D01*
X194278153Y-80162400D01*
X193850466Y-80247472D01*
X193487890Y-80489737D01*
X193245625Y-80852313D01*
X193160553Y-81280000D01*
X193245625Y-81707687D01*
X193487890Y-82070263D01*
X193850466Y-82312528D01*
X194278153Y-82397600D01*
X195357847Y-82397600D01*
X195785534Y-82312528D01*
X196148110Y-82070263D01*
X196390375Y-81707687D01*
X196475447Y-81280000D01*
X196475447Y-83820000D01*
X196390375Y-83392313D01*
X196148110Y-83029737D01*
X195785534Y-82787472D01*
X195357847Y-82702400D01*
X194278153Y-82702400D01*
X193850466Y-82787472D01*
X193487890Y-83029737D01*
X193245625Y-83392313D01*
X193160553Y-83820000D01*
X193237704Y-84207869D01*
X193032448Y-84122639D01*
X192859278Y-84122487D01*
X192919447Y-83820000D01*
X192919447Y-81280000D01*
X192887600Y-81119893D01*
X192887600Y-78771847D01*
X192887600Y-77692153D01*
X192802528Y-77264466D01*
X192560263Y-76901890D01*
X192197687Y-76659625D01*
X191770000Y-76574553D01*
X191342313Y-76659625D01*
X190979737Y-76901890D01*
X190737472Y-77264466D01*
X190652400Y-77692153D01*
X190652400Y-78771847D01*
X190737472Y-79199534D01*
X190979737Y-79562110D01*
X191342313Y-79804375D01*
X191770000Y-79889447D01*
X192197687Y-79804375D01*
X192560263Y-79562110D01*
X192802528Y-79199534D01*
X192887600Y-78771847D01*
X192887600Y-81119893D01*
X192834375Y-80852313D01*
X192592110Y-80489737D01*
X192229534Y-80247472D01*
X191801847Y-80162400D01*
X190722153Y-80162400D01*
X190294466Y-80247472D01*
X190284503Y-80254129D01*
X190284503Y-78279736D01*
X189931425Y-77425223D01*
X189278216Y-76770873D01*
X188424320Y-76416304D01*
X187499736Y-76415497D01*
X186645223Y-76768575D01*
X185990873Y-77421784D01*
X185636304Y-78275680D01*
X185635497Y-79200264D01*
X185988575Y-80054777D01*
X186641784Y-80709127D01*
X187495680Y-81063696D01*
X188420264Y-81064503D01*
X189274777Y-80711425D01*
X189929127Y-80058216D01*
X190283696Y-79204320D01*
X190284503Y-78279736D01*
X190284503Y-80254129D01*
X189931890Y-80489737D01*
X189689625Y-80852313D01*
X189604553Y-81280000D01*
X189689625Y-81707687D01*
X189931890Y-82070263D01*
X190294466Y-82312528D01*
X190722153Y-82397600D01*
X191801847Y-82397600D01*
X192229534Y-82312528D01*
X192592110Y-82070263D01*
X192834375Y-81707687D01*
X192919447Y-81280000D01*
X192919447Y-83820000D01*
X192834375Y-83392313D01*
X192592110Y-83029737D01*
X192229534Y-82787472D01*
X191801847Y-82702400D01*
X190722153Y-82702400D01*
X190294466Y-82787472D01*
X189931890Y-83029737D01*
X189689625Y-83392313D01*
X189604553Y-83820000D01*
X189689625Y-84247687D01*
X189931890Y-84610263D01*
X190294466Y-84852528D01*
X190722153Y-84937600D01*
X191801847Y-84937600D01*
X192072533Y-84883757D01*
X192072361Y-85081052D01*
X192169223Y-85315475D01*
X191801847Y-85242400D01*
X190722153Y-85242400D01*
X190294466Y-85327472D01*
X189931890Y-85569737D01*
X189689625Y-85932313D01*
X189604553Y-86360000D01*
X189689625Y-86787687D01*
X189931890Y-87150263D01*
X190294466Y-87392528D01*
X190722153Y-87477600D01*
X191801847Y-87477600D01*
X192229534Y-87392528D01*
X192592110Y-87150263D01*
X192834375Y-86787687D01*
X192919447Y-86360000D01*
X192834375Y-85932313D01*
X192687108Y-85711912D01*
X192712752Y-85722561D01*
X193031052Y-85722839D01*
X193210238Y-85648800D01*
X193435061Y-85648800D01*
X193245625Y-85932313D01*
X193160553Y-86360000D01*
X193245625Y-86787687D01*
X193487890Y-87150263D01*
X193850466Y-87392528D01*
X194278153Y-87477600D01*
X195357847Y-87477600D01*
X195785534Y-87392528D01*
X196148110Y-87150263D01*
X196390375Y-86787687D01*
X196470443Y-86385153D01*
X196559656Y-86444764D01*
X196559657Y-86444764D01*
X196773500Y-86487300D01*
X198026000Y-86487300D01*
X198239844Y-86444764D01*
X198421131Y-86323631D01*
X198542264Y-86142344D01*
X198584800Y-85928500D01*
X198584800Y-85833567D01*
X198821040Y-85833567D01*
X198956629Y-85807259D01*
X199075799Y-85728977D01*
X199155571Y-85610799D01*
X199183607Y-85471000D01*
X199183607Y-91059000D01*
X199157299Y-90923411D01*
X199079017Y-90804241D01*
X198960839Y-90724469D01*
X198821040Y-90696433D01*
X197231000Y-90696433D01*
X197095411Y-90722741D01*
X196976241Y-90801023D01*
X196896469Y-90919201D01*
X196868433Y-91059000D01*
X196868433Y-93726000D01*
X196894741Y-93861589D01*
X196973023Y-93980759D01*
X197091201Y-94060531D01*
X197231000Y-94088567D01*
X198821040Y-94088567D01*
X198956629Y-94062259D01*
X199075799Y-93983977D01*
X199155571Y-93865799D01*
X199183607Y-93726000D01*
X199183607Y-99973883D01*
X198552505Y-100099417D01*
X197777912Y-100616984D01*
X197260345Y-101391577D01*
X197078600Y-102305272D01*
X197078600Y-103434728D01*
X197260345Y-104348423D01*
X197777912Y-105123016D01*
X198552505Y-105640583D01*
X199466200Y-105822328D01*
X200379895Y-105640583D01*
X201154488Y-105123016D01*
X201672055Y-104348423D01*
X201853800Y-103434728D01*
X201853800Y-113510485D01*
X201631158Y-113287844D01*
X201682447Y-113030000D01*
X201597375Y-112602313D01*
X201355110Y-112239737D01*
X200992534Y-111997472D01*
X200564847Y-111912400D01*
X199485153Y-111912400D01*
X199057466Y-111997472D01*
X198694890Y-112239737D01*
X198452625Y-112602313D01*
X198367553Y-113030000D01*
X198452625Y-113457687D01*
X198694890Y-113820263D01*
X199057466Y-114062528D01*
X199485153Y-114147600D01*
X200048285Y-114147600D01*
X200177400Y-114276714D01*
X200177400Y-115417600D01*
X200197400Y-115417600D01*
X200197400Y-115722400D01*
X200177400Y-115722400D01*
X200177400Y-116941600D01*
X200685400Y-116941600D01*
X201193800Y-116780421D01*
X201193800Y-117211953D01*
X200992534Y-117077472D01*
X200564847Y-116992400D01*
X199872600Y-116992400D01*
X199872600Y-116941600D01*
X199872600Y-115722400D01*
X199872600Y-115417600D01*
X199872600Y-114198400D01*
X199364600Y-114198400D01*
X198851312Y-114361128D01*
X198439369Y-114707896D01*
X198194516Y-115206239D01*
X198307363Y-115417600D01*
X199872600Y-115417600D01*
X199872600Y-115722400D01*
X198307363Y-115722400D01*
X198194516Y-115933761D01*
X198439369Y-116432104D01*
X198851312Y-116778872D01*
X199364600Y-116941600D01*
X199872600Y-116941600D01*
X199872600Y-116992400D01*
X199485153Y-116992400D01*
X199057466Y-117077472D01*
X198694890Y-117319737D01*
X198452625Y-117682313D01*
X198367553Y-118110000D01*
X198452625Y-118537687D01*
X198694890Y-118900263D01*
X199057466Y-119142528D01*
X199485153Y-119227600D01*
X200376585Y-119227600D01*
X197010985Y-122593200D01*
X196226328Y-122593200D01*
X196390375Y-122347687D01*
X196475447Y-121920000D01*
X196475447Y-119380000D01*
X196475447Y-116840000D01*
X196475447Y-114300000D01*
X196475447Y-111760000D01*
X196475447Y-109220000D01*
X196475447Y-106680000D01*
X196475447Y-104140000D01*
X196475447Y-101600000D01*
X196475447Y-99060000D01*
X196475447Y-96520000D01*
X196475447Y-93980000D01*
X196475447Y-91440000D01*
X196475447Y-88900000D01*
X196390375Y-88472313D01*
X196148110Y-88109737D01*
X195785534Y-87867472D01*
X195357847Y-87782400D01*
X194278153Y-87782400D01*
X193850466Y-87867472D01*
X193487890Y-88109737D01*
X193245625Y-88472313D01*
X193160553Y-88900000D01*
X193245625Y-89327687D01*
X193487890Y-89690263D01*
X193850466Y-89932528D01*
X194278153Y-90017600D01*
X195357847Y-90017600D01*
X195785534Y-89932528D01*
X196148110Y-89690263D01*
X196390375Y-89327687D01*
X196475447Y-88900000D01*
X196475447Y-91440000D01*
X196390375Y-91012313D01*
X196148110Y-90649737D01*
X195785534Y-90407472D01*
X195357847Y-90322400D01*
X194278153Y-90322400D01*
X193850466Y-90407472D01*
X193487890Y-90649737D01*
X193245625Y-91012313D01*
X193160553Y-91440000D01*
X193245625Y-91867687D01*
X193487890Y-92230263D01*
X193850466Y-92472528D01*
X194278153Y-92557600D01*
X195357847Y-92557600D01*
X195785534Y-92472528D01*
X196148110Y-92230263D01*
X196390375Y-91867687D01*
X196475447Y-91440000D01*
X196475447Y-93980000D01*
X196390375Y-93552313D01*
X196148110Y-93189737D01*
X195785534Y-92947472D01*
X195357847Y-92862400D01*
X194278153Y-92862400D01*
X193850466Y-92947472D01*
X193487890Y-93189737D01*
X193245625Y-93552313D01*
X193160553Y-93980000D01*
X193245625Y-94407687D01*
X193487890Y-94770263D01*
X193850466Y-95012528D01*
X194278153Y-95097600D01*
X195357847Y-95097600D01*
X195785534Y-95012528D01*
X196148110Y-94770263D01*
X196390375Y-94407687D01*
X196475447Y-93980000D01*
X196475447Y-96520000D01*
X196390375Y-96092313D01*
X196148110Y-95729737D01*
X195785534Y-95487472D01*
X195357847Y-95402400D01*
X194278153Y-95402400D01*
X193850466Y-95487472D01*
X193487890Y-95729737D01*
X193245625Y-96092313D01*
X193160553Y-96520000D01*
X193245625Y-96947687D01*
X193487890Y-97310263D01*
X193850466Y-97552528D01*
X194278153Y-97637600D01*
X195357847Y-97637600D01*
X195785534Y-97552528D01*
X196148110Y-97310263D01*
X196390375Y-96947687D01*
X196475447Y-96520000D01*
X196475447Y-99060000D01*
X196390375Y-98632313D01*
X196148110Y-98269737D01*
X195785534Y-98027472D01*
X195357847Y-97942400D01*
X194278153Y-97942400D01*
X193850466Y-98027472D01*
X193487890Y-98269737D01*
X193245625Y-98632313D01*
X193160553Y-99060000D01*
X193245625Y-99487687D01*
X193487890Y-99850263D01*
X193850466Y-100092528D01*
X194278153Y-100177600D01*
X195357847Y-100177600D01*
X195785534Y-100092528D01*
X196148110Y-99850263D01*
X196390375Y-99487687D01*
X196475447Y-99060000D01*
X196475447Y-101600000D01*
X196390375Y-101172313D01*
X196148110Y-100809737D01*
X195785534Y-100567472D01*
X195357847Y-100482400D01*
X194278153Y-100482400D01*
X193850466Y-100567472D01*
X193487890Y-100809737D01*
X193245625Y-101172313D01*
X193160553Y-101600000D01*
X193245625Y-102027687D01*
X193487890Y-102390263D01*
X193850466Y-102632528D01*
X194278153Y-102717600D01*
X195357847Y-102717600D01*
X195785534Y-102632528D01*
X196148110Y-102390263D01*
X196390375Y-102027687D01*
X196475447Y-101600000D01*
X196475447Y-104140000D01*
X196390375Y-103712313D01*
X196148110Y-103349737D01*
X195785534Y-103107472D01*
X195357847Y-103022400D01*
X194278153Y-103022400D01*
X193850466Y-103107472D01*
X193487890Y-103349737D01*
X193245625Y-103712313D01*
X193160553Y-104140000D01*
X193245625Y-104567687D01*
X193487890Y-104930263D01*
X193850466Y-105172528D01*
X194278153Y-105257600D01*
X195357847Y-105257600D01*
X195785534Y-105172528D01*
X196148110Y-104930263D01*
X196390375Y-104567687D01*
X196475447Y-104140000D01*
X196475447Y-106680000D01*
X196390375Y-106252313D01*
X196148110Y-105889737D01*
X195785534Y-105647472D01*
X195357847Y-105562400D01*
X194278153Y-105562400D01*
X193850466Y-105647472D01*
X193487890Y-105889737D01*
X193245625Y-106252313D01*
X193160553Y-106680000D01*
X193245625Y-107107687D01*
X193487890Y-107470263D01*
X193850466Y-107712528D01*
X194278153Y-107797600D01*
X195357847Y-107797600D01*
X195785534Y-107712528D01*
X196148110Y-107470263D01*
X196390375Y-107107687D01*
X196475447Y-106680000D01*
X196475447Y-109220000D01*
X196390375Y-108792313D01*
X196148110Y-108429737D01*
X195785534Y-108187472D01*
X195357847Y-108102400D01*
X194278153Y-108102400D01*
X193850466Y-108187472D01*
X193487890Y-108429737D01*
X193245625Y-108792313D01*
X193160553Y-109220000D01*
X193245625Y-109647687D01*
X193487890Y-110010263D01*
X193850466Y-110252528D01*
X194278153Y-110337600D01*
X195357847Y-110337600D01*
X195785534Y-110252528D01*
X196148110Y-110010263D01*
X196390375Y-109647687D01*
X196475447Y-109220000D01*
X196475447Y-111760000D01*
X196390375Y-111332313D01*
X196148110Y-110969737D01*
X195785534Y-110727472D01*
X195357847Y-110642400D01*
X194278153Y-110642400D01*
X193850466Y-110727472D01*
X193487890Y-110969737D01*
X193245625Y-111332313D01*
X193160553Y-111760000D01*
X193245625Y-112187687D01*
X193487890Y-112550263D01*
X193850466Y-112792528D01*
X194278153Y-112877600D01*
X195357847Y-112877600D01*
X195785534Y-112792528D01*
X196148110Y-112550263D01*
X196390375Y-112187687D01*
X196475447Y-111760000D01*
X196475447Y-114300000D01*
X196390375Y-113872313D01*
X196148110Y-113509737D01*
X195785534Y-113267472D01*
X195357847Y-113182400D01*
X194278153Y-113182400D01*
X193850466Y-113267472D01*
X193487890Y-113509737D01*
X193245625Y-113872313D01*
X193160553Y-114300000D01*
X193245625Y-114727687D01*
X193487890Y-115090263D01*
X193850466Y-115332528D01*
X194278153Y-115417600D01*
X195357847Y-115417600D01*
X195785534Y-115332528D01*
X196148110Y-115090263D01*
X196390375Y-114727687D01*
X196475447Y-114300000D01*
X196475447Y-116840000D01*
X196390375Y-116412313D01*
X196148110Y-116049737D01*
X195785534Y-115807472D01*
X195357847Y-115722400D01*
X194278153Y-115722400D01*
X193850466Y-115807472D01*
X193487890Y-116049737D01*
X193245625Y-116412313D01*
X193160553Y-116840000D01*
X193245625Y-117267687D01*
X193487890Y-117630263D01*
X193850466Y-117872528D01*
X194278153Y-117957600D01*
X195357847Y-117957600D01*
X195785534Y-117872528D01*
X196148110Y-117630263D01*
X196390375Y-117267687D01*
X196475447Y-116840000D01*
X196475447Y-119380000D01*
X196390375Y-118952313D01*
X196148110Y-118589737D01*
X195785534Y-118347472D01*
X195357847Y-118262400D01*
X194278153Y-118262400D01*
X193850466Y-118347472D01*
X193487890Y-118589737D01*
X193245625Y-118952313D01*
X193160553Y-119380000D01*
X193245625Y-119807687D01*
X193487890Y-120170263D01*
X193850466Y-120412528D01*
X194278153Y-120497600D01*
X195357847Y-120497600D01*
X195785534Y-120412528D01*
X196148110Y-120170263D01*
X196390375Y-119807687D01*
X196475447Y-119380000D01*
X196475447Y-121920000D01*
X196390375Y-121492313D01*
X196148110Y-121129737D01*
X195785534Y-120887472D01*
X195357847Y-120802400D01*
X194278153Y-120802400D01*
X193850466Y-120887472D01*
X193487890Y-121129737D01*
X193245625Y-121492313D01*
X193160553Y-121920000D01*
X193245625Y-122347687D01*
X193409671Y-122593200D01*
X192670328Y-122593200D01*
X192834375Y-122347687D01*
X192919447Y-121920000D01*
X192919447Y-119380000D01*
X192919447Y-116840000D01*
X192919447Y-114300000D01*
X192834375Y-113872313D01*
X192592110Y-113509737D01*
X192229534Y-113267472D01*
X191801847Y-113182400D01*
X190722153Y-113182400D01*
X190294466Y-113267472D01*
X190093300Y-113401886D01*
X190093300Y-112658113D01*
X190294466Y-112792528D01*
X190722153Y-112877600D01*
X191801847Y-112877600D01*
X192229534Y-112792528D01*
X192592110Y-112550263D01*
X192834375Y-112187687D01*
X192919447Y-111760000D01*
X192834375Y-111332313D01*
X192592110Y-110969737D01*
X192229534Y-110727472D01*
X191801847Y-110642400D01*
X190722153Y-110642400D01*
X190294466Y-110727472D01*
X190093300Y-110861886D01*
X190093300Y-110118113D01*
X190294466Y-110252528D01*
X190722153Y-110337600D01*
X191801847Y-110337600D01*
X192229534Y-110252528D01*
X192592110Y-110010263D01*
X192834375Y-109647687D01*
X192919447Y-109220000D01*
X192834375Y-108792313D01*
X192592110Y-108429737D01*
X192229534Y-108187472D01*
X191801847Y-108102400D01*
X190722153Y-108102400D01*
X190294466Y-108187472D01*
X190093300Y-108321886D01*
X190093300Y-107578113D01*
X190294466Y-107712528D01*
X190722153Y-107797600D01*
X191801847Y-107797600D01*
X192229534Y-107712528D01*
X192592110Y-107470263D01*
X192834375Y-107107687D01*
X192919447Y-106680000D01*
X192834375Y-106252313D01*
X192592110Y-105889737D01*
X192229534Y-105647472D01*
X191801847Y-105562400D01*
X190722153Y-105562400D01*
X190294466Y-105647472D01*
X190093300Y-105781886D01*
X190093300Y-105038113D01*
X190294466Y-105172528D01*
X190722153Y-105257600D01*
X191801847Y-105257600D01*
X192229534Y-105172528D01*
X192592110Y-104930263D01*
X192834375Y-104567687D01*
X192919447Y-104140000D01*
X192834375Y-103712313D01*
X192592110Y-103349737D01*
X192229534Y-103107472D01*
X191801847Y-103022400D01*
X190722153Y-103022400D01*
X190294466Y-103107472D01*
X190093300Y-103241886D01*
X190093300Y-102498113D01*
X190294466Y-102632528D01*
X190722153Y-102717600D01*
X191801847Y-102717600D01*
X192229534Y-102632528D01*
X192592110Y-102390263D01*
X192834375Y-102027687D01*
X192919447Y-101600000D01*
X192919447Y-99060000D01*
X192919447Y-96520000D01*
X192919447Y-93980000D01*
X192919447Y-91440000D01*
X192919447Y-88900000D01*
X192834375Y-88472313D01*
X192592110Y-88109737D01*
X192229534Y-87867472D01*
X191801847Y-87782400D01*
X190722153Y-87782400D01*
X190294466Y-87867472D01*
X189931890Y-88109737D01*
X189689625Y-88472313D01*
X189604553Y-88900000D01*
X189689625Y-89327687D01*
X189931890Y-89690263D01*
X190294466Y-89932528D01*
X190722153Y-90017600D01*
X191801847Y-90017600D01*
X192229534Y-89932528D01*
X192592110Y-89690263D01*
X192834375Y-89327687D01*
X192919447Y-88900000D01*
X192919447Y-91440000D01*
X192834375Y-91012313D01*
X192592110Y-90649737D01*
X192229534Y-90407472D01*
X191801847Y-90322400D01*
X190722153Y-90322400D01*
X190294466Y-90407472D01*
X189931890Y-90649737D01*
X189689625Y-91012313D01*
X189604553Y-91440000D01*
X189689625Y-91867687D01*
X189931890Y-92230263D01*
X190294466Y-92472528D01*
X190722153Y-92557600D01*
X191801847Y-92557600D01*
X192229534Y-92472528D01*
X192592110Y-92230263D01*
X192834375Y-91867687D01*
X192919447Y-91440000D01*
X192919447Y-93980000D01*
X192834375Y-93552313D01*
X192592110Y-93189737D01*
X192229534Y-92947472D01*
X191801847Y-92862400D01*
X190722153Y-92862400D01*
X190294466Y-92947472D01*
X189931890Y-93189737D01*
X189689625Y-93552313D01*
X189604553Y-93980000D01*
X189689625Y-94407687D01*
X189931890Y-94770263D01*
X190294466Y-95012528D01*
X190722153Y-95097600D01*
X191801847Y-95097600D01*
X192229534Y-95012528D01*
X192592110Y-94770263D01*
X192834375Y-94407687D01*
X192919447Y-93980000D01*
X192919447Y-96520000D01*
X192834375Y-96092313D01*
X192592110Y-95729737D01*
X192229534Y-95487472D01*
X191801847Y-95402400D01*
X190722153Y-95402400D01*
X190294466Y-95487472D01*
X189931890Y-95729737D01*
X189689625Y-96092313D01*
X189604553Y-96520000D01*
X189689625Y-96947687D01*
X189931890Y-97310263D01*
X190294466Y-97552528D01*
X190722153Y-97637600D01*
X191801847Y-97637600D01*
X192229534Y-97552528D01*
X192592110Y-97310263D01*
X192834375Y-96947687D01*
X192919447Y-96520000D01*
X192919447Y-99060000D01*
X192834375Y-98632313D01*
X192592110Y-98269737D01*
X192229534Y-98027472D01*
X191801847Y-97942400D01*
X190722153Y-97942400D01*
X190294466Y-98027472D01*
X189931890Y-98269737D01*
X189689625Y-98632313D01*
X189604553Y-99060000D01*
X189689625Y-99487687D01*
X189931890Y-99850263D01*
X190294466Y-100092528D01*
X190722153Y-100177600D01*
X191801847Y-100177600D01*
X192229534Y-100092528D01*
X192592110Y-99850263D01*
X192834375Y-99487687D01*
X192919447Y-99060000D01*
X192919447Y-101600000D01*
X192834375Y-101172313D01*
X192592110Y-100809737D01*
X192229534Y-100567472D01*
X191801847Y-100482400D01*
X190722153Y-100482400D01*
X190294466Y-100567472D01*
X190093300Y-100701886D01*
X190093300Y-100558000D01*
X190050764Y-100344157D01*
X190050764Y-100344156D01*
X189929631Y-100162869D01*
X185979357Y-96212595D01*
X185979357Y-87384731D01*
X185979357Y-86605269D01*
X185970947Y-86547730D01*
X185687274Y-86016152D01*
X185267600Y-85671259D01*
X185267600Y-79279847D01*
X185267600Y-78200153D01*
X185182528Y-77772466D01*
X184940263Y-77409890D01*
X184577687Y-77167625D01*
X184150000Y-77082553D01*
X183722313Y-77167625D01*
X183359737Y-77409890D01*
X183117472Y-77772466D01*
X183032400Y-78200153D01*
X183032400Y-79279847D01*
X183117472Y-79707534D01*
X183359737Y-80070110D01*
X183722313Y-80312375D01*
X184150000Y-80397447D01*
X184577687Y-80312375D01*
X184940263Y-80070110D01*
X185182528Y-79707534D01*
X185267600Y-79279847D01*
X185267600Y-85671259D01*
X185221769Y-85633595D01*
X184645300Y-85458300D01*
X184302400Y-85458300D01*
X184302400Y-86842600D01*
X185868785Y-86842600D01*
X185979357Y-86605269D01*
X185979357Y-87384731D01*
X185868785Y-87147400D01*
X184302400Y-87147400D01*
X184302400Y-87167400D01*
X183997600Y-87167400D01*
X183997600Y-87147400D01*
X183997600Y-86842600D01*
X183997600Y-85458300D01*
X183654700Y-85458300D01*
X183078231Y-85633595D01*
X182727600Y-85921747D01*
X182727600Y-79279847D01*
X182727600Y-78200153D01*
X182642528Y-77772466D01*
X182400263Y-77409890D01*
X182037687Y-77167625D01*
X181610000Y-77082553D01*
X181182313Y-77167625D01*
X180819737Y-77409890D01*
X180577472Y-77772466D01*
X180492400Y-78200153D01*
X180492400Y-79279847D01*
X180577472Y-79707534D01*
X180819737Y-80070110D01*
X181182313Y-80312375D01*
X181610000Y-80397447D01*
X182037687Y-80312375D01*
X182400263Y-80070110D01*
X182642528Y-79707534D01*
X182727600Y-79279847D01*
X182727600Y-85921747D01*
X182612726Y-86016152D01*
X182329053Y-86547730D01*
X182320643Y-86605269D01*
X182431215Y-86842600D01*
X183997600Y-86842600D01*
X183997600Y-87147400D01*
X182431215Y-87147400D01*
X182320643Y-87384731D01*
X182329053Y-87442270D01*
X182612726Y-87973848D01*
X182943075Y-88245333D01*
X182880000Y-88245333D01*
X182744411Y-88271641D01*
X182625241Y-88349923D01*
X182545469Y-88468101D01*
X182517433Y-88607900D01*
X182517433Y-90462100D01*
X182543741Y-90597689D01*
X182622023Y-90716859D01*
X182740201Y-90796631D01*
X182880000Y-90824667D01*
X185420000Y-90824667D01*
X185555589Y-90798359D01*
X185674759Y-90720077D01*
X185754531Y-90601899D01*
X185782567Y-90462100D01*
X185782567Y-88607900D01*
X185756259Y-88472311D01*
X185677977Y-88353141D01*
X185559799Y-88273369D01*
X185420000Y-88245333D01*
X185356924Y-88245333D01*
X185687274Y-87973848D01*
X185970947Y-87442270D01*
X185979357Y-87384731D01*
X185979357Y-96212595D01*
X183221231Y-93454469D01*
X183039944Y-93333336D01*
X182826100Y-93290800D01*
X180187600Y-93290800D01*
X180187600Y-79279847D01*
X180187600Y-78200153D01*
X180102528Y-77772466D01*
X179860263Y-77409890D01*
X179497687Y-77167625D01*
X179070000Y-77082553D01*
X178642313Y-77167625D01*
X178279737Y-77409890D01*
X178037472Y-77772466D01*
X177952400Y-78200153D01*
X177952400Y-79279847D01*
X178037472Y-79707534D01*
X178279737Y-80070110D01*
X178642313Y-80312375D01*
X179070000Y-80397447D01*
X179497687Y-80312375D01*
X179860263Y-80070110D01*
X180102528Y-79707534D01*
X180187600Y-79279847D01*
X180187600Y-93290800D01*
X177647600Y-93290800D01*
X177647600Y-79279847D01*
X177647600Y-78200153D01*
X177562528Y-77772466D01*
X177320263Y-77409890D01*
X176957687Y-77167625D01*
X176530000Y-77082553D01*
X176102313Y-77167625D01*
X175739737Y-77409890D01*
X175497472Y-77772466D01*
X175412400Y-78200153D01*
X175412400Y-79279847D01*
X175497472Y-79707534D01*
X175739737Y-80070110D01*
X176102313Y-80312375D01*
X176530000Y-80397447D01*
X176957687Y-80312375D01*
X177320263Y-80070110D01*
X177562528Y-79707534D01*
X177647600Y-79279847D01*
X177647600Y-93290800D01*
X175107600Y-93290800D01*
X175107600Y-79279847D01*
X175107600Y-78200153D01*
X175022528Y-77772466D01*
X174780263Y-77409890D01*
X174417687Y-77167625D01*
X173990000Y-77082553D01*
X173562313Y-77167625D01*
X173199737Y-77409890D01*
X172957472Y-77772466D01*
X172872400Y-78200153D01*
X172872400Y-79279847D01*
X172957472Y-79707534D01*
X173199737Y-80070110D01*
X173562313Y-80312375D01*
X173990000Y-80397447D01*
X174417687Y-80312375D01*
X174780263Y-80070110D01*
X175022528Y-79707534D01*
X175107600Y-79279847D01*
X175107600Y-93290800D01*
X172567600Y-93290800D01*
X172567600Y-79279847D01*
X172567600Y-78200153D01*
X172482528Y-77772466D01*
X172240263Y-77409890D01*
X171877687Y-77167625D01*
X171450000Y-77082553D01*
X171022313Y-77167625D01*
X170659737Y-77409890D01*
X170417472Y-77772466D01*
X170332400Y-78200153D01*
X170332400Y-79279847D01*
X170417472Y-79707534D01*
X170659737Y-80070110D01*
X171022313Y-80312375D01*
X171450000Y-80397447D01*
X171877687Y-80312375D01*
X172240263Y-80070110D01*
X172482528Y-79707534D01*
X172567600Y-79279847D01*
X172567600Y-93290800D01*
X170027600Y-93290800D01*
X170027600Y-79279847D01*
X170027600Y-78200153D01*
X169942528Y-77772466D01*
X169700263Y-77409890D01*
X169337687Y-77167625D01*
X168910000Y-77082553D01*
X168482313Y-77167625D01*
X168119737Y-77409890D01*
X167877472Y-77772466D01*
X167792400Y-78200153D01*
X167792400Y-79279847D01*
X167877472Y-79707534D01*
X168119737Y-80070110D01*
X168482313Y-80312375D01*
X168910000Y-80397447D01*
X169337687Y-80312375D01*
X169700263Y-80070110D01*
X169942528Y-79707534D01*
X170027600Y-79279847D01*
X170027600Y-93290800D01*
X167487600Y-93290800D01*
X167487600Y-79279847D01*
X167487600Y-78200153D01*
X167402528Y-77772466D01*
X167160263Y-77409890D01*
X166797687Y-77167625D01*
X166370000Y-77082553D01*
X165942313Y-77167625D01*
X165579737Y-77409890D01*
X165337472Y-77772466D01*
X165252400Y-78200153D01*
X165252400Y-79279847D01*
X165337472Y-79707534D01*
X165579737Y-80070110D01*
X165942313Y-80312375D01*
X166370000Y-80397447D01*
X166797687Y-80312375D01*
X167160263Y-80070110D01*
X167402528Y-79707534D01*
X167487600Y-79279847D01*
X167487600Y-93290800D01*
X162407600Y-93290800D01*
X162407600Y-79279847D01*
X162407600Y-78200153D01*
X162322528Y-77772466D01*
X162080263Y-77409890D01*
X161717687Y-77167625D01*
X161290000Y-77082553D01*
X160862313Y-77167625D01*
X160499737Y-77409890D01*
X160257472Y-77772466D01*
X160172400Y-78200153D01*
X160172400Y-79279847D01*
X160257472Y-79707534D01*
X160499737Y-80070110D01*
X160862313Y-80312375D01*
X161290000Y-80397447D01*
X161717687Y-80312375D01*
X162080263Y-80070110D01*
X162322528Y-79707534D01*
X162407600Y-79279847D01*
X162407600Y-93290800D01*
X159867600Y-93290800D01*
X159867600Y-79279847D01*
X159867600Y-78200153D01*
X159782528Y-77772466D01*
X159540263Y-77409890D01*
X159177687Y-77167625D01*
X158750000Y-77082553D01*
X158322313Y-77167625D01*
X157959737Y-77409890D01*
X157717472Y-77772466D01*
X157632400Y-78200153D01*
X157632400Y-79279847D01*
X157717472Y-79707534D01*
X157959737Y-80070110D01*
X158322313Y-80312375D01*
X158750000Y-80397447D01*
X159177687Y-80312375D01*
X159540263Y-80070110D01*
X159782528Y-79707534D01*
X159867600Y-79279847D01*
X159867600Y-93290800D01*
X157327600Y-93290800D01*
X157327600Y-79279847D01*
X157327600Y-78200153D01*
X157242528Y-77772466D01*
X157000263Y-77409890D01*
X156637687Y-77167625D01*
X156210000Y-77082553D01*
X155782313Y-77167625D01*
X155419737Y-77409890D01*
X155177472Y-77772466D01*
X155092400Y-78200153D01*
X155092400Y-79279847D01*
X155177472Y-79707534D01*
X155419737Y-80070110D01*
X155782313Y-80312375D01*
X156210000Y-80397447D01*
X156637687Y-80312375D01*
X157000263Y-80070110D01*
X157242528Y-79707534D01*
X157327600Y-79279847D01*
X157327600Y-93290800D01*
X154787600Y-93290800D01*
X154787600Y-79279847D01*
X154787600Y-78200153D01*
X154702528Y-77772466D01*
X154460263Y-77409890D01*
X154097687Y-77167625D01*
X153670000Y-77082553D01*
X153242313Y-77167625D01*
X152879737Y-77409890D01*
X152637472Y-77772466D01*
X152552400Y-78200153D01*
X152552400Y-79279847D01*
X152637472Y-79707534D01*
X152879737Y-80070110D01*
X153242313Y-80312375D01*
X153670000Y-80397447D01*
X154097687Y-80312375D01*
X154460263Y-80070110D01*
X154702528Y-79707534D01*
X154787600Y-79279847D01*
X154787600Y-93290800D01*
X152247600Y-93290800D01*
X152247600Y-79279847D01*
X152247600Y-78200153D01*
X152162528Y-77772466D01*
X151920263Y-77409890D01*
X151557687Y-77167625D01*
X151130000Y-77082553D01*
X150702313Y-77167625D01*
X150339737Y-77409890D01*
X150097472Y-77772466D01*
X150012400Y-78200153D01*
X150012400Y-79279847D01*
X150097472Y-79707534D01*
X150339737Y-80070110D01*
X150702313Y-80312375D01*
X151130000Y-80397447D01*
X151557687Y-80312375D01*
X151920263Y-80070110D01*
X152162528Y-79707534D01*
X152247600Y-79279847D01*
X152247600Y-93290800D01*
X149707600Y-93290800D01*
X149707600Y-79279847D01*
X149707600Y-78200153D01*
X149622528Y-77772466D01*
X149380263Y-77409890D01*
X149017687Y-77167625D01*
X148590000Y-77082553D01*
X148162313Y-77167625D01*
X147799737Y-77409890D01*
X147557472Y-77772466D01*
X147472400Y-78200153D01*
X147472400Y-79279847D01*
X147557472Y-79707534D01*
X147799737Y-80070110D01*
X148162313Y-80312375D01*
X148590000Y-80397447D01*
X149017687Y-80312375D01*
X149380263Y-80070110D01*
X149622528Y-79707534D01*
X149707600Y-79279847D01*
X149707600Y-93290800D01*
X147167600Y-93290800D01*
X147167600Y-79279847D01*
X147167600Y-78200153D01*
X147082528Y-77772466D01*
X146840263Y-77409890D01*
X146477687Y-77167625D01*
X146050000Y-77082553D01*
X145622313Y-77167625D01*
X145259737Y-77409890D01*
X145017472Y-77772466D01*
X144932400Y-78200153D01*
X144932400Y-79279847D01*
X145017472Y-79707534D01*
X145259737Y-80070110D01*
X145622313Y-80312375D01*
X146050000Y-80397447D01*
X146477687Y-80312375D01*
X146840263Y-80070110D01*
X147082528Y-79707534D01*
X147167600Y-79279847D01*
X147167600Y-93290800D01*
X144627600Y-93290800D01*
X144627600Y-79279847D01*
X144627600Y-78200153D01*
X144542528Y-77772466D01*
X144300263Y-77409890D01*
X143937687Y-77167625D01*
X143510000Y-77082553D01*
X143082313Y-77167625D01*
X142719737Y-77409890D01*
X142477472Y-77772466D01*
X142392400Y-78200153D01*
X142392400Y-79279847D01*
X142477472Y-79707534D01*
X142719737Y-80070110D01*
X143082313Y-80312375D01*
X143510000Y-80397447D01*
X143937687Y-80312375D01*
X144300263Y-80070110D01*
X144542528Y-79707534D01*
X144627600Y-79279847D01*
X144627600Y-93290800D01*
X140563600Y-93290800D01*
X140563600Y-79279847D01*
X140563600Y-78200153D01*
X140478528Y-77772466D01*
X140236263Y-77409890D01*
X139873687Y-77167625D01*
X139446000Y-77082553D01*
X139018313Y-77167625D01*
X138655737Y-77409890D01*
X138413472Y-77772466D01*
X138328400Y-78200153D01*
X138328400Y-79279847D01*
X138413472Y-79707534D01*
X138655737Y-80070110D01*
X139018313Y-80312375D01*
X139446000Y-80397447D01*
X139873687Y-80312375D01*
X140236263Y-80070110D01*
X140478528Y-79707534D01*
X140563600Y-79279847D01*
X140563600Y-93290800D01*
X138023600Y-93290800D01*
X138023600Y-79279847D01*
X138023600Y-78200153D01*
X137938528Y-77772466D01*
X137696263Y-77409890D01*
X137333687Y-77167625D01*
X136906000Y-77082553D01*
X136478313Y-77167625D01*
X136115737Y-77409890D01*
X135873472Y-77772466D01*
X135788400Y-78200153D01*
X135788400Y-79279847D01*
X135873472Y-79707534D01*
X136115737Y-80070110D01*
X136478313Y-80312375D01*
X136906000Y-80397447D01*
X137333687Y-80312375D01*
X137696263Y-80070110D01*
X137938528Y-79707534D01*
X138023600Y-79279847D01*
X138023600Y-93290800D01*
X135483600Y-93290800D01*
X135483600Y-79279847D01*
X135483600Y-78200153D01*
X135398528Y-77772466D01*
X135156263Y-77409890D01*
X134793687Y-77167625D01*
X134366000Y-77082553D01*
X133938313Y-77167625D01*
X133575737Y-77409890D01*
X133333472Y-77772466D01*
X133248400Y-78200153D01*
X133248400Y-79279847D01*
X133333472Y-79707534D01*
X133575737Y-80070110D01*
X133938313Y-80312375D01*
X134366000Y-80397447D01*
X134793687Y-80312375D01*
X135156263Y-80070110D01*
X135398528Y-79707534D01*
X135483600Y-79279847D01*
X135483600Y-93290800D01*
X132943600Y-93290800D01*
X132943600Y-79279847D01*
X132943600Y-78200153D01*
X132858528Y-77772466D01*
X132616263Y-77409890D01*
X132253687Y-77167625D01*
X131826000Y-77082553D01*
X131398313Y-77167625D01*
X131035737Y-77409890D01*
X130793472Y-77772466D01*
X130708400Y-78200153D01*
X130708400Y-79279847D01*
X130793472Y-79707534D01*
X131035737Y-80070110D01*
X131398313Y-80312375D01*
X131826000Y-80397447D01*
X132253687Y-80312375D01*
X132616263Y-80070110D01*
X132858528Y-79707534D01*
X132943600Y-79279847D01*
X132943600Y-93290800D01*
X130403600Y-93290800D01*
X130403600Y-79279847D01*
X130403600Y-78200153D01*
X130318528Y-77772466D01*
X130076263Y-77409890D01*
X129713687Y-77167625D01*
X129286000Y-77082553D01*
X128858313Y-77167625D01*
X128495737Y-77409890D01*
X128253472Y-77772466D01*
X128168400Y-78200153D01*
X128168400Y-79279847D01*
X128253472Y-79707534D01*
X128495737Y-80070110D01*
X128858313Y-80312375D01*
X129286000Y-80397447D01*
X129713687Y-80312375D01*
X130076263Y-80070110D01*
X130318528Y-79707534D01*
X130403600Y-79279847D01*
X130403600Y-93290800D01*
X127863600Y-93290800D01*
X127863600Y-79279847D01*
X127863600Y-78200153D01*
X127778528Y-77772466D01*
X127536263Y-77409890D01*
X127173687Y-77167625D01*
X126746000Y-77082553D01*
X126318313Y-77167625D01*
X125955737Y-77409890D01*
X125713472Y-77772466D01*
X125628400Y-78200153D01*
X125628400Y-79279847D01*
X125713472Y-79707534D01*
X125955737Y-80070110D01*
X126318313Y-80312375D01*
X126746000Y-80397447D01*
X127173687Y-80312375D01*
X127536263Y-80070110D01*
X127778528Y-79707534D01*
X127863600Y-79279847D01*
X127863600Y-93290800D01*
X125323600Y-93290800D01*
X125323600Y-79279847D01*
X125323600Y-78200153D01*
X125238528Y-77772466D01*
X124996263Y-77409890D01*
X124633687Y-77167625D01*
X124206000Y-77082553D01*
X123778313Y-77167625D01*
X123415737Y-77409890D01*
X123173472Y-77772466D01*
X123088400Y-78200153D01*
X123088400Y-79279847D01*
X123173472Y-79707534D01*
X123415737Y-80070110D01*
X123778313Y-80312375D01*
X124206000Y-80397447D01*
X124633687Y-80312375D01*
X124996263Y-80070110D01*
X125238528Y-79707534D01*
X125323600Y-79279847D01*
X125323600Y-93290800D01*
X122783600Y-93290800D01*
X122783600Y-79279847D01*
X122783600Y-78200153D01*
X122698528Y-77772466D01*
X122456263Y-77409890D01*
X122093687Y-77167625D01*
X121666000Y-77082553D01*
X121238313Y-77167625D01*
X120875737Y-77409890D01*
X120633472Y-77772466D01*
X120548400Y-78200153D01*
X120548400Y-79279847D01*
X120633472Y-79707534D01*
X120875737Y-80070110D01*
X121238313Y-80312375D01*
X121666000Y-80397447D01*
X122093687Y-80312375D01*
X122456263Y-80070110D01*
X122698528Y-79707534D01*
X122783600Y-79279847D01*
X122783600Y-93290800D01*
X120243600Y-93290800D01*
X120243600Y-79279847D01*
X120243600Y-78200153D01*
X120158528Y-77772466D01*
X119916263Y-77409890D01*
X119553687Y-77167625D01*
X119126000Y-77082553D01*
X118698313Y-77167625D01*
X118335737Y-77409890D01*
X118093472Y-77772466D01*
X118008400Y-78200153D01*
X118008400Y-79279847D01*
X118093472Y-79707534D01*
X118335737Y-80070110D01*
X118698313Y-80312375D01*
X119126000Y-80397447D01*
X119553687Y-80312375D01*
X119916263Y-80070110D01*
X120158528Y-79707534D01*
X120243600Y-79279847D01*
X120243600Y-93290800D01*
X117703600Y-93290800D01*
X117703600Y-79279847D01*
X117703600Y-78200153D01*
X117618528Y-77772466D01*
X117376263Y-77409890D01*
X117013687Y-77167625D01*
X116586000Y-77082553D01*
X116158313Y-77167625D01*
X115795737Y-77409890D01*
X115553472Y-77772466D01*
X115468400Y-78200153D01*
X115468400Y-79279847D01*
X115553472Y-79707534D01*
X115795737Y-80070110D01*
X116158313Y-80312375D01*
X116586000Y-80397447D01*
X117013687Y-80312375D01*
X117376263Y-80070110D01*
X117618528Y-79707534D01*
X117703600Y-79279847D01*
X117703600Y-93290800D01*
X115354503Y-93290800D01*
X115354503Y-78279736D01*
X115001425Y-77425223D01*
X114348216Y-76770873D01*
X113494320Y-76416304D01*
X112569736Y-76415497D01*
X111715223Y-76768575D01*
X111060873Y-77421784D01*
X110706304Y-78275680D01*
X110705497Y-79200264D01*
X111058575Y-80054777D01*
X111711784Y-80709127D01*
X112565680Y-81063696D01*
X113490264Y-81064503D01*
X114344777Y-80711425D01*
X114999127Y-80058216D01*
X115353696Y-79204320D01*
X115354503Y-78279736D01*
X115354503Y-93290800D01*
X112170700Y-93290800D01*
X111956857Y-93333335D01*
X111775569Y-93454468D01*
X105014869Y-100215169D01*
X104893736Y-100396456D01*
X104851200Y-100610300D01*
X104851200Y-101757159D01*
X104447442Y-101837472D01*
X104084866Y-102079737D01*
X103842601Y-102442313D01*
X103757529Y-102870000D01*
X103842601Y-103297687D01*
X104084866Y-103660263D01*
X104447442Y-103902528D01*
X104875129Y-103987600D01*
X105436871Y-103987600D01*
X105864558Y-103902528D01*
X106227134Y-103660263D01*
X106469399Y-103297687D01*
X106554471Y-102870000D01*
X106469399Y-102442313D01*
X106227134Y-102079737D01*
X105968800Y-101907124D01*
X105968800Y-100841762D01*
X106582160Y-100228402D01*
X106725173Y-100228402D01*
X106573837Y-100445096D01*
X106722637Y-100962970D01*
X107058292Y-101384480D01*
X107452936Y-101602956D01*
X107159737Y-101798866D01*
X106917472Y-102161442D01*
X106832400Y-102589129D01*
X106832400Y-103150871D01*
X106917472Y-103578558D01*
X107159737Y-103941134D01*
X107452936Y-104137043D01*
X107058292Y-104355520D01*
X106722637Y-104777030D01*
X106573837Y-105294904D01*
X106725175Y-105511600D01*
X107797600Y-105511600D01*
X107797600Y-105491600D01*
X108102400Y-105491600D01*
X108102400Y-105511600D01*
X109174825Y-105511600D01*
X109326163Y-105294904D01*
X109177363Y-104777030D01*
X108841708Y-104355520D01*
X108447063Y-104137043D01*
X108740263Y-103941134D01*
X108982528Y-103578558D01*
X109067600Y-103150871D01*
X109067600Y-102589129D01*
X108982528Y-102161442D01*
X108740263Y-101798866D01*
X108447063Y-101602956D01*
X108841708Y-101384480D01*
X109177363Y-100962970D01*
X109326163Y-100445096D01*
X109174825Y-100228400D01*
X108102400Y-100228400D01*
X108102400Y-100248400D01*
X107797600Y-100248400D01*
X107797600Y-100228400D01*
X107777600Y-100228400D01*
X107777600Y-99923600D01*
X107797600Y-99923600D01*
X107797600Y-99903600D01*
X108102400Y-99903600D01*
X108102400Y-99923600D01*
X109174825Y-99923600D01*
X109326163Y-99706904D01*
X109177363Y-99189030D01*
X108841708Y-98767520D01*
X108370299Y-98506546D01*
X108313761Y-98499516D01*
X108307936Y-98502625D01*
X112402162Y-94408400D01*
X149906237Y-94408400D01*
X147688769Y-96625869D01*
X147567636Y-96807156D01*
X147525100Y-97021000D01*
X147525100Y-124766400D01*
X147567636Y-124980244D01*
X147688769Y-125161531D01*
X148031200Y-125503962D01*
X148031200Y-125515231D01*
X147799737Y-125669890D01*
X147557472Y-126032466D01*
X147472400Y-126460153D01*
X147472400Y-127539847D01*
X147557472Y-127967534D01*
X147799737Y-128330110D01*
X148162313Y-128572375D01*
X148590000Y-128657447D01*
X149017687Y-128572375D01*
X149380263Y-128330110D01*
X149622528Y-127967534D01*
X149707600Y-127539847D01*
X149707600Y-126460153D01*
X149622528Y-126032466D01*
X149380263Y-125669890D01*
X149148800Y-125515231D01*
X149148800Y-125272500D01*
X149106264Y-125058656D01*
X148985131Y-124877369D01*
X148985131Y-124877368D01*
X148642700Y-124534937D01*
X148642700Y-123575462D01*
X150571200Y-125503962D01*
X150571200Y-125515231D01*
X150339737Y-125669890D01*
X150097472Y-126032466D01*
X150012400Y-126460153D01*
X150012400Y-127539847D01*
X150097472Y-127967534D01*
X150339737Y-128330110D01*
X150702313Y-128572375D01*
X151130000Y-128657447D01*
X151557687Y-128572375D01*
X151920263Y-128330110D01*
X152162528Y-127967534D01*
X152247600Y-127539847D01*
X152247600Y-126460153D01*
X152162528Y-126032466D01*
X151920263Y-125669890D01*
X151688800Y-125515231D01*
X151688800Y-125272500D01*
X151646264Y-125058657D01*
X151646264Y-125058656D01*
X151525131Y-124877369D01*
X149303400Y-122655638D01*
X149303400Y-121696162D01*
X153111200Y-125503962D01*
X153111200Y-125515231D01*
X152879737Y-125669890D01*
X152637472Y-126032466D01*
X152552400Y-126460153D01*
X152552400Y-127539847D01*
X152637472Y-127967534D01*
X152879737Y-128330110D01*
X153242313Y-128572375D01*
X153670000Y-128657447D01*
X154097687Y-128572375D01*
X154460263Y-128330110D01*
X154702528Y-127967534D01*
X154787600Y-127539847D01*
X154787600Y-126460153D01*
X154702528Y-126032466D01*
X154460263Y-125669890D01*
X154228800Y-125515231D01*
X154228800Y-125272500D01*
X154186265Y-125058657D01*
X154186264Y-125058656D01*
X154065132Y-124877369D01*
X149964100Y-120776337D01*
X149964100Y-119700962D01*
X155651200Y-125388062D01*
X155651200Y-125515231D01*
X155419737Y-125669890D01*
X155177472Y-126032466D01*
X155092400Y-126460153D01*
X155092400Y-127539847D01*
X155177472Y-127967534D01*
X155419737Y-128330110D01*
X155782313Y-128572375D01*
X156210000Y-128657447D01*
X156637687Y-128572375D01*
X157000263Y-128330110D01*
X157242528Y-127967534D01*
X157327600Y-127539847D01*
X157327600Y-126460153D01*
X157242528Y-126032466D01*
X157000263Y-125669890D01*
X156768800Y-125515231D01*
X156768800Y-125156600D01*
X156726265Y-124942757D01*
X156726264Y-124942756D01*
X156605131Y-124761469D01*
X150624900Y-118781238D01*
X150624900Y-117937662D01*
X158191200Y-125503962D01*
X158191200Y-125515231D01*
X157959737Y-125669890D01*
X157717472Y-126032466D01*
X157632400Y-126460153D01*
X157632400Y-127539847D01*
X157717472Y-127967534D01*
X157959737Y-128330110D01*
X158322313Y-128572375D01*
X158750000Y-128657447D01*
X159177687Y-128572375D01*
X159540263Y-128330110D01*
X159782528Y-127967534D01*
X159867600Y-127539847D01*
X159867600Y-126460153D01*
X159782528Y-126032466D01*
X159540263Y-125669890D01*
X159308800Y-125515231D01*
X159308800Y-125272500D01*
X159266264Y-125058657D01*
X159266264Y-125058656D01*
X159145131Y-124877369D01*
X151306000Y-117038238D01*
X151306000Y-113538762D01*
X163271200Y-125503962D01*
X163271200Y-125515231D01*
X163039737Y-125669890D01*
X162797472Y-126032466D01*
X162712400Y-126460153D01*
X162712400Y-127539847D01*
X162797472Y-127967534D01*
X162931886Y-128168700D01*
X162188113Y-128168700D01*
X162322528Y-127967534D01*
X162407600Y-127539847D01*
X162407600Y-126460153D01*
X162322528Y-126032466D01*
X162080263Y-125669890D01*
X161717687Y-125427625D01*
X161290000Y-125342553D01*
X160862313Y-125427625D01*
X160499737Y-125669890D01*
X160257472Y-126032466D01*
X160172400Y-126460153D01*
X160172400Y-127539847D01*
X160257472Y-127967534D01*
X160499737Y-128330110D01*
X160731200Y-128484768D01*
X160731200Y-128727500D01*
X160773736Y-128941344D01*
X160894869Y-129122631D01*
X161076156Y-129243764D01*
X161290000Y-129286300D01*
X166886400Y-129286300D01*
X167100243Y-129243764D01*
X167100244Y-129243764D01*
X167281531Y-129122631D01*
X167995331Y-128408831D01*
X167995332Y-128408831D01*
X168116464Y-128227544D01*
X168116465Y-128227543D01*
X168159000Y-128013700D01*
X168159000Y-124206300D01*
X168116465Y-123992457D01*
X168116464Y-123992456D01*
X167995332Y-123811169D01*
X163677600Y-119493437D01*
X163677600Y-108236357D01*
X163677600Y-107993843D01*
X163677600Y-106172000D01*
X163525200Y-106019600D01*
X162712400Y-106019600D01*
X162712400Y-108572300D01*
X162864800Y-108724700D01*
X163189257Y-108724700D01*
X163413311Y-108631894D01*
X163584794Y-108460411D01*
X163677600Y-108236357D01*
X163677600Y-119493437D01*
X155498800Y-111314637D01*
X155498800Y-108467810D01*
X155583589Y-108451359D01*
X155702759Y-108373077D01*
X155782531Y-108254899D01*
X155810567Y-108115100D01*
X155810567Y-103619300D01*
X155784259Y-103483711D01*
X155705977Y-103364541D01*
X155587799Y-103284769D01*
X155448000Y-103256733D01*
X154432000Y-103256733D01*
X154296411Y-103283041D01*
X154177241Y-103361323D01*
X154097469Y-103479501D01*
X154069433Y-103619300D01*
X154069433Y-108115100D01*
X154095741Y-108250689D01*
X154174023Y-108369859D01*
X154292201Y-108449631D01*
X154381200Y-108467479D01*
X154381200Y-111546100D01*
X154423736Y-111759944D01*
X154544869Y-111941231D01*
X167041400Y-124437762D01*
X167041400Y-125590468D01*
X166928800Y-125515231D01*
X166928800Y-125272500D01*
X166886264Y-125058656D01*
X166765131Y-124877369D01*
X166765131Y-124877368D01*
X152958800Y-111071037D01*
X152958800Y-108572600D01*
X152958800Y-108467810D01*
X153043589Y-108451359D01*
X153162759Y-108373077D01*
X153242531Y-108254899D01*
X153270567Y-108115100D01*
X153270567Y-103619300D01*
X153244259Y-103483711D01*
X153165977Y-103364541D01*
X153047799Y-103284769D01*
X152908000Y-103256733D01*
X152390929Y-103256733D01*
X152538139Y-103109522D01*
X152613844Y-103094464D01*
X152795131Y-102973331D01*
X152916264Y-102792044D01*
X152958800Y-102578200D01*
X152958800Y-102473410D01*
X153043589Y-102456959D01*
X153162759Y-102378677D01*
X153242531Y-102260499D01*
X153270567Y-102120700D01*
X153270567Y-97726200D01*
X154069433Y-97726200D01*
X154069433Y-102120700D01*
X154095741Y-102256289D01*
X154174023Y-102375459D01*
X154292201Y-102455231D01*
X154432000Y-102483267D01*
X155448000Y-102483267D01*
X155583589Y-102456959D01*
X155702759Y-102378677D01*
X155782531Y-102260499D01*
X155810567Y-102120700D01*
X155810567Y-97847129D01*
X155955700Y-97992262D01*
X155955700Y-102317100D01*
X155998236Y-102530944D01*
X156119369Y-102712231D01*
X156748154Y-103341016D01*
X156717241Y-103361323D01*
X156637469Y-103479501D01*
X156609433Y-103619300D01*
X156609433Y-108115100D01*
X156635741Y-108250689D01*
X156714023Y-108369859D01*
X156832201Y-108449631D01*
X156972000Y-108477667D01*
X157988000Y-108477667D01*
X158123589Y-108451359D01*
X158242759Y-108373077D01*
X158322531Y-108254899D01*
X158350567Y-108115100D01*
X158350567Y-103619300D01*
X158324259Y-103483711D01*
X158245977Y-103364541D01*
X158127799Y-103284769D01*
X158038800Y-103266920D01*
X158038800Y-103161800D01*
X157996264Y-102947956D01*
X157875131Y-102766669D01*
X157693844Y-102645536D01*
X157618139Y-102630477D01*
X157470929Y-102483267D01*
X157988000Y-102483267D01*
X158123589Y-102456959D01*
X158242759Y-102378677D01*
X158322531Y-102260499D01*
X158350567Y-102120700D01*
X158350567Y-97884729D01*
X158495700Y-98029862D01*
X158495700Y-102317100D01*
X158538236Y-102530944D01*
X158659369Y-102712231D01*
X159288154Y-103341016D01*
X159257241Y-103361323D01*
X159177469Y-103479501D01*
X159149433Y-103619300D01*
X159149433Y-108115100D01*
X159175741Y-108250689D01*
X159254023Y-108369859D01*
X159372201Y-108449631D01*
X159512000Y-108477667D01*
X160528000Y-108477667D01*
X160663589Y-108451359D01*
X160782759Y-108373077D01*
X160862531Y-108254899D01*
X160890567Y-108115100D01*
X160890567Y-106703176D01*
X161130152Y-106802661D01*
X161442400Y-106802933D01*
X161442400Y-107993843D01*
X161442400Y-108236357D01*
X161535206Y-108460411D01*
X161706689Y-108631894D01*
X161930743Y-108724700D01*
X162255200Y-108724700D01*
X162407600Y-108572300D01*
X162407600Y-106019600D01*
X162387600Y-106019600D01*
X162387600Y-105714800D01*
X162407600Y-105714800D01*
X162407600Y-105694800D01*
X162712400Y-105694800D01*
X162712400Y-105714800D01*
X163525200Y-105714800D01*
X163677600Y-105562400D01*
X163677600Y-103740557D01*
X163677600Y-103498043D01*
X163584794Y-103273989D01*
X163413311Y-103102506D01*
X163269940Y-103043120D01*
X163322000Y-102781400D01*
X163322000Y-102379175D01*
X163322759Y-102378677D01*
X163402531Y-102260499D01*
X163430567Y-102120700D01*
X163430567Y-97624900D01*
X163404259Y-97489311D01*
X163325977Y-97370141D01*
X163207799Y-97290369D01*
X163068000Y-97262333D01*
X162052000Y-97262333D01*
X161916411Y-97288641D01*
X161797241Y-97366923D01*
X161717469Y-97485101D01*
X161689433Y-97624900D01*
X161689433Y-102061781D01*
X161610895Y-102077404D01*
X161511876Y-102143565D01*
X161363685Y-102242584D01*
X160751185Y-102855085D01*
X160586004Y-103102295D01*
X160576483Y-103150155D01*
X160536264Y-102947956D01*
X160415131Y-102766669D01*
X160233844Y-102645536D01*
X160158139Y-102630477D01*
X160010929Y-102483267D01*
X160528000Y-102483267D01*
X160663589Y-102456959D01*
X160782759Y-102378677D01*
X160862531Y-102260499D01*
X160890567Y-102120700D01*
X160890567Y-97624900D01*
X160864259Y-97489311D01*
X160785977Y-97370141D01*
X160667799Y-97290369D01*
X160578800Y-97272520D01*
X160578800Y-97167400D01*
X160536264Y-96953557D01*
X160536264Y-96953556D01*
X160415131Y-96772269D01*
X158051262Y-94408400D01*
X182594637Y-94408400D01*
X186942130Y-98755892D01*
X186904701Y-98760546D01*
X186433292Y-99021520D01*
X186097637Y-99443030D01*
X185948837Y-99960904D01*
X186100175Y-100177600D01*
X187172600Y-100177600D01*
X187172600Y-100157600D01*
X187477400Y-100157600D01*
X187477400Y-100177600D01*
X187497400Y-100177600D01*
X187497400Y-100482400D01*
X187477400Y-100482400D01*
X187477400Y-101793637D01*
X187688761Y-101906484D01*
X187745299Y-101899454D01*
X188216708Y-101638480D01*
X188552363Y-101216970D01*
X188701163Y-100699096D01*
X188549826Y-100482402D01*
X188668640Y-100482402D01*
X188975700Y-100789462D01*
X188975700Y-114300000D01*
X189018236Y-114513844D01*
X189139369Y-114695131D01*
X189320656Y-114816264D01*
X189534500Y-114858800D01*
X189777231Y-114858800D01*
X189931890Y-115090263D01*
X190294466Y-115332528D01*
X190722153Y-115417600D01*
X191801847Y-115417600D01*
X192229534Y-115332528D01*
X192592110Y-115090263D01*
X192834375Y-114727687D01*
X192919447Y-114300000D01*
X192919447Y-116840000D01*
X192834375Y-116412313D01*
X192592110Y-116049737D01*
X192229534Y-115807472D01*
X191801847Y-115722400D01*
X190722153Y-115722400D01*
X190294466Y-115807472D01*
X189931890Y-116049737D01*
X189689625Y-116412313D01*
X189604553Y-116840000D01*
X189689625Y-117267687D01*
X189931890Y-117630263D01*
X190294466Y-117872528D01*
X190722153Y-117957600D01*
X191801847Y-117957600D01*
X192229534Y-117872528D01*
X192592110Y-117630263D01*
X192834375Y-117267687D01*
X192919447Y-116840000D01*
X192919447Y-119380000D01*
X192834375Y-118952313D01*
X192592110Y-118589737D01*
X192229534Y-118347472D01*
X191801847Y-118262400D01*
X190722153Y-118262400D01*
X190294466Y-118347472D01*
X189931890Y-118589737D01*
X189689625Y-118952313D01*
X189604553Y-119380000D01*
X189689625Y-119807687D01*
X189931890Y-120170263D01*
X190294466Y-120412528D01*
X190722153Y-120497600D01*
X191801847Y-120497600D01*
X192229534Y-120412528D01*
X192592110Y-120170263D01*
X192834375Y-119807687D01*
X192919447Y-119380000D01*
X192919447Y-121920000D01*
X192834375Y-121492313D01*
X192592110Y-121129737D01*
X192229534Y-120887472D01*
X191801847Y-120802400D01*
X190722153Y-120802400D01*
X190294466Y-120887472D01*
X189931890Y-121129737D01*
X189689625Y-121492313D01*
X189629499Y-121794585D01*
X188701163Y-120866249D01*
X188442600Y-120607686D01*
X188442600Y-105690871D01*
X188442600Y-105129129D01*
X188357528Y-104701442D01*
X188115263Y-104338866D01*
X187752687Y-104096601D01*
X187325000Y-104011529D01*
X187172600Y-104041843D01*
X187172600Y-101793637D01*
X187172600Y-100482400D01*
X186100175Y-100482400D01*
X185948837Y-100699096D01*
X186097637Y-101216970D01*
X186433292Y-101638480D01*
X186904701Y-101899454D01*
X186961239Y-101906484D01*
X187172600Y-101793637D01*
X187172600Y-104041843D01*
X186897313Y-104096601D01*
X186534737Y-104338866D01*
X186292472Y-104701442D01*
X186207400Y-105129129D01*
X186207400Y-105690871D01*
X186292472Y-106118558D01*
X186534737Y-106481134D01*
X186897313Y-106723399D01*
X187325000Y-106808471D01*
X187752687Y-106723399D01*
X188115263Y-106481134D01*
X188357528Y-106118558D01*
X188442600Y-105690871D01*
X188442600Y-120607686D01*
X186664200Y-118829286D01*
X186664200Y-107060600D01*
X186609368Y-106784945D01*
X186598462Y-106730115D01*
X186598462Y-106730114D01*
X186411257Y-106449943D01*
X186411257Y-106449942D01*
X183884100Y-103922786D01*
X184090698Y-103613592D01*
X184238608Y-102870000D01*
X184090698Y-102126408D01*
X183669487Y-101496021D01*
X183039100Y-101074810D01*
X182295508Y-100926900D01*
X180924492Y-100926900D01*
X180180900Y-101074810D01*
X179550513Y-101496021D01*
X179129302Y-102126408D01*
X178981392Y-102870000D01*
X179129302Y-103613592D01*
X179550513Y-104243979D01*
X180180900Y-104665190D01*
X180924492Y-104813100D01*
X182295508Y-104813100D01*
X182325766Y-104807081D01*
X184937000Y-107418314D01*
X184937000Y-119187000D01*
X184946117Y-119232835D01*
X184801148Y-119172639D01*
X184626867Y-119172486D01*
X184626867Y-116255800D01*
X184600559Y-116120211D01*
X184522277Y-116001041D01*
X184404099Y-115921269D01*
X184264300Y-115893233D01*
X184238608Y-115893233D01*
X184238608Y-107569000D01*
X184090698Y-106825408D01*
X183669487Y-106195021D01*
X183039100Y-105773810D01*
X182295508Y-105625900D01*
X180924492Y-105625900D01*
X180180900Y-105773810D01*
X179550513Y-106195021D01*
X179129302Y-106825408D01*
X178981392Y-107569000D01*
X179129302Y-108312592D01*
X179550513Y-108942979D01*
X180180900Y-109364190D01*
X180924492Y-109512100D01*
X182295508Y-109512100D01*
X183039100Y-109364190D01*
X183669487Y-108942979D01*
X184090698Y-108312592D01*
X184238608Y-107569000D01*
X184238608Y-115893233D01*
X184073800Y-115893233D01*
X184073800Y-115798300D01*
X184031264Y-115584457D01*
X184031264Y-115584456D01*
X184021643Y-115570058D01*
X184021839Y-115346448D01*
X183900287Y-115052272D01*
X183675412Y-114827004D01*
X183381448Y-114704939D01*
X183063148Y-114704661D01*
X182768972Y-114826213D01*
X182543704Y-115051088D01*
X182421639Y-115345052D01*
X182421361Y-115663352D01*
X182542913Y-115957528D01*
X182554544Y-115969180D01*
X182510941Y-115997823D01*
X182431169Y-116116001D01*
X182403133Y-116255800D01*
X182403133Y-119253000D01*
X182429441Y-119388589D01*
X182507723Y-119507759D01*
X182625901Y-119587531D01*
X182765700Y-119615567D01*
X183923217Y-119615567D01*
X183841339Y-119812752D01*
X183841061Y-120131052D01*
X183962613Y-120425228D01*
X183965444Y-120428064D01*
X183900111Y-120440741D01*
X183780941Y-120519023D01*
X183701169Y-120637201D01*
X183673133Y-120777000D01*
X183673133Y-123774200D01*
X183699441Y-123909789D01*
X183777723Y-124028959D01*
X183895901Y-124108731D01*
X184035700Y-124136767D01*
X185534300Y-124136767D01*
X185669889Y-124110459D01*
X185789059Y-124032177D01*
X185868831Y-123913999D01*
X185896867Y-123774200D01*
X185896867Y-120777000D01*
X185870559Y-120641411D01*
X185792277Y-120522241D01*
X185674099Y-120442469D01*
X185547000Y-120416979D01*
X185547000Y-120154714D01*
X189459743Y-124067457D01*
X189739915Y-124254662D01*
X190070400Y-124320400D01*
X197368700Y-124320400D01*
X197368700Y-124320399D01*
X197699185Y-124254662D01*
X197979357Y-124067457D01*
X202668057Y-119378758D01*
X202668057Y-119378757D01*
X202855262Y-119098586D01*
X202855262Y-119098585D01*
X202866168Y-119043754D01*
X202920999Y-118768100D01*
X202921000Y-118768100D01*
X202921000Y-129755900D01*
X196634503Y-129755900D01*
X196634503Y-126539736D01*
X196281425Y-125685223D01*
X195628216Y-125030873D01*
X194774320Y-124676304D01*
X193849736Y-124675497D01*
X192995223Y-125028575D01*
X192340873Y-125681784D01*
X191986304Y-126535680D01*
X191985497Y-127460264D01*
X192338575Y-128314777D01*
X192991784Y-128969127D01*
X193845680Y-129323696D01*
X194770264Y-129324503D01*
X195624777Y-128971425D01*
X196279127Y-128318216D01*
X196633696Y-127464320D01*
X196634503Y-126539736D01*
X196634503Y-129755900D01*
X190347600Y-129755900D01*
X190347600Y-127539847D01*
X190347600Y-126460153D01*
X190262528Y-126032466D01*
X190020263Y-125669890D01*
X189657687Y-125427625D01*
X189230000Y-125342553D01*
X188802313Y-125427625D01*
X188439737Y-125669890D01*
X188197472Y-126032466D01*
X188112400Y-126460153D01*
X188112400Y-127539847D01*
X188197472Y-127967534D01*
X188439737Y-128330110D01*
X188802313Y-128572375D01*
X189230000Y-128657447D01*
X189657687Y-128572375D01*
X190020263Y-128330110D01*
X190262528Y-127967534D01*
X190347600Y-127539847D01*
X190347600Y-129755900D01*
X187807600Y-129755900D01*
X187807600Y-127539847D01*
X187807600Y-126460153D01*
X187722528Y-126032466D01*
X187480263Y-125669890D01*
X187117687Y-125427625D01*
X186690000Y-125342553D01*
X186262313Y-125427625D01*
X185899737Y-125669890D01*
X185657472Y-126032466D01*
X185572400Y-126460153D01*
X185572400Y-127539847D01*
X185657472Y-127967534D01*
X185899737Y-128330110D01*
X186262313Y-128572375D01*
X186690000Y-128657447D01*
X187117687Y-128572375D01*
X187480263Y-128330110D01*
X187722528Y-127967534D01*
X187807600Y-127539847D01*
X187807600Y-129755900D01*
X185267600Y-129755900D01*
X185267600Y-127539847D01*
X185267600Y-126460153D01*
X185182528Y-126032466D01*
X184940263Y-125669890D01*
X184577687Y-125427625D01*
X184150000Y-125342553D01*
X183722313Y-125427625D01*
X183359737Y-125669890D01*
X183356867Y-125674185D01*
X183356867Y-123774200D01*
X183356867Y-120777000D01*
X183330559Y-120641411D01*
X183252277Y-120522241D01*
X183134099Y-120442469D01*
X182994300Y-120414433D01*
X182086867Y-120414433D01*
X182086867Y-119253000D01*
X182086867Y-116255800D01*
X182060559Y-116120211D01*
X181982277Y-116001041D01*
X181864099Y-115921269D01*
X181724300Y-115893233D01*
X181533800Y-115893233D01*
X181533800Y-112117000D01*
X181491264Y-111903157D01*
X181491264Y-111903156D01*
X181370131Y-111721869D01*
X179495292Y-109847030D01*
X179495439Y-109678748D01*
X179373887Y-109384572D01*
X179149012Y-109159304D01*
X178855048Y-109037239D01*
X178536748Y-109036961D01*
X178242572Y-109158513D01*
X178017304Y-109383388D01*
X177895239Y-109677352D01*
X177894961Y-109995652D01*
X178016513Y-110289828D01*
X178241388Y-110515096D01*
X178535352Y-110637161D01*
X178705047Y-110637309D01*
X180416200Y-112348462D01*
X180416200Y-115893233D01*
X180225700Y-115893233D01*
X180090111Y-115919541D01*
X179970941Y-115997823D01*
X179891169Y-116116001D01*
X179863133Y-116255800D01*
X179863133Y-119253000D01*
X179889441Y-119388589D01*
X179967723Y-119507759D01*
X180085901Y-119587531D01*
X180225700Y-119615567D01*
X181724300Y-119615567D01*
X181859889Y-119589259D01*
X181979059Y-119510977D01*
X182058831Y-119392799D01*
X182086867Y-119253000D01*
X182086867Y-120414433D01*
X181495700Y-120414433D01*
X181360111Y-120440741D01*
X181240941Y-120519023D01*
X181161169Y-120637201D01*
X181133133Y-120777000D01*
X181133133Y-123672900D01*
X181063900Y-123672900D01*
X181063900Y-123652943D01*
X181063900Y-122580400D01*
X181063900Y-121970800D01*
X181063900Y-120898257D01*
X181063900Y-120655743D01*
X180971094Y-120431689D01*
X180799611Y-120260206D01*
X180575557Y-120167400D01*
X180009800Y-120167400D01*
X179857400Y-120319800D01*
X179857400Y-122123200D01*
X180911500Y-122123200D01*
X181063900Y-121970800D01*
X181063900Y-122580400D01*
X180911500Y-122428000D01*
X179857400Y-122428000D01*
X179857400Y-122448000D01*
X179793900Y-122448000D01*
X179793900Y-119374257D01*
X179793900Y-119131743D01*
X179793900Y-118059200D01*
X179793900Y-117449600D01*
X179793900Y-116377057D01*
X179793900Y-116134543D01*
X179701094Y-115910489D01*
X179529611Y-115739006D01*
X179305557Y-115646200D01*
X178739800Y-115646200D01*
X178587400Y-115798600D01*
X178587400Y-117602000D01*
X179641500Y-117602000D01*
X179793900Y-117449600D01*
X179793900Y-118059200D01*
X179641500Y-117906800D01*
X178587400Y-117906800D01*
X178587400Y-119710200D01*
X178739800Y-119862600D01*
X179305557Y-119862600D01*
X179529611Y-119769794D01*
X179701094Y-119598311D01*
X179793900Y-119374257D01*
X179793900Y-122448000D01*
X179552600Y-122448000D01*
X179552600Y-122428000D01*
X179552600Y-122123200D01*
X179552600Y-120319800D01*
X179400200Y-120167400D01*
X178834443Y-120167400D01*
X178610389Y-120260206D01*
X178438906Y-120431689D01*
X178346100Y-120655743D01*
X178346100Y-120898257D01*
X178346100Y-121970800D01*
X178498500Y-122123200D01*
X179552600Y-122123200D01*
X179552600Y-122428000D01*
X178498500Y-122428000D01*
X178359698Y-122566801D01*
X178282600Y-122489567D01*
X178282600Y-119710200D01*
X178282600Y-117906800D01*
X178282600Y-117602000D01*
X178282600Y-115798600D01*
X178130200Y-115646200D01*
X177564443Y-115646200D01*
X177340389Y-115739006D01*
X177168906Y-115910489D01*
X177076100Y-116134543D01*
X177076100Y-116377057D01*
X177076100Y-117449600D01*
X177228500Y-117602000D01*
X178282600Y-117602000D01*
X178282600Y-117906800D01*
X177228500Y-117906800D01*
X177076100Y-118059200D01*
X177076100Y-119131743D01*
X177076100Y-119374257D01*
X177168906Y-119598311D01*
X177340389Y-119769794D01*
X177564443Y-119862600D01*
X178130200Y-119862600D01*
X178282600Y-119710200D01*
X178282600Y-122489567D01*
X178182212Y-122389004D01*
X177888248Y-122266939D01*
X177569948Y-122266661D01*
X177275772Y-122388213D01*
X177050504Y-122613088D01*
X176928439Y-122907052D01*
X176928161Y-123225352D01*
X177049713Y-123519528D01*
X177274588Y-123744796D01*
X177513225Y-123843887D01*
X178296169Y-124626831D01*
X178477456Y-124747964D01*
X178477457Y-124747964D01*
X178691300Y-124790500D01*
X182245000Y-124790500D01*
X182458844Y-124747964D01*
X182640131Y-124626831D01*
X182761264Y-124445544D01*
X182803800Y-124231700D01*
X182803800Y-124136767D01*
X182994300Y-124136767D01*
X183129889Y-124110459D01*
X183249059Y-124032177D01*
X183328831Y-123913999D01*
X183356867Y-123774200D01*
X183356867Y-125674185D01*
X183117472Y-126032466D01*
X183032400Y-126460153D01*
X183032400Y-127539847D01*
X183117472Y-127967534D01*
X183359737Y-128330110D01*
X183722313Y-128572375D01*
X184150000Y-128657447D01*
X184577687Y-128572375D01*
X184940263Y-128330110D01*
X185182528Y-127967534D01*
X185267600Y-127539847D01*
X185267600Y-129755900D01*
X182727600Y-129755900D01*
X182727600Y-127539847D01*
X182727600Y-126460153D01*
X182642528Y-126032466D01*
X182400263Y-125669890D01*
X182037687Y-125427625D01*
X181610000Y-125342553D01*
X181182313Y-125427625D01*
X180819737Y-125669890D01*
X180577472Y-126032466D01*
X180492400Y-126460153D01*
X180492400Y-127539847D01*
X180577472Y-127967534D01*
X180819737Y-128330110D01*
X181182313Y-128572375D01*
X181610000Y-128657447D01*
X182037687Y-128572375D01*
X182400263Y-128330110D01*
X182642528Y-127967534D01*
X182727600Y-127539847D01*
X182727600Y-129755900D01*
X180187600Y-129755900D01*
X180187600Y-127539847D01*
X180187600Y-126460153D01*
X180102528Y-126032466D01*
X179860263Y-125669890D01*
X179497687Y-125427625D01*
X179070000Y-125342553D01*
X178642313Y-125427625D01*
X178279737Y-125669890D01*
X178037472Y-126032466D01*
X177952400Y-126460153D01*
X177952400Y-127539847D01*
X178037472Y-127967534D01*
X178279737Y-128330110D01*
X178642313Y-128572375D01*
X179070000Y-128657447D01*
X179497687Y-128572375D01*
X179860263Y-128330110D01*
X180102528Y-127967534D01*
X180187600Y-127539847D01*
X180187600Y-129755900D01*
X177647600Y-129755900D01*
X177647600Y-127539847D01*
X177647600Y-126460153D01*
X177562528Y-126032466D01*
X177320263Y-125669890D01*
X176957687Y-125427625D01*
X176530000Y-125342553D01*
X176102313Y-125427625D01*
X175739737Y-125669890D01*
X175497472Y-126032466D01*
X175412400Y-126460153D01*
X175412400Y-127539847D01*
X175497472Y-127967534D01*
X175739737Y-128330110D01*
X176102313Y-128572375D01*
X176530000Y-128657447D01*
X176957687Y-128572375D01*
X177320263Y-128330110D01*
X177562528Y-127967534D01*
X177647600Y-127539847D01*
X177647600Y-129755900D01*
X175107600Y-129755900D01*
X175107600Y-127539847D01*
X175107600Y-126460153D01*
X175022528Y-126032466D01*
X174780263Y-125669890D01*
X174417687Y-125427625D01*
X173990000Y-125342553D01*
X173562313Y-125427625D01*
X173199737Y-125669890D01*
X172957472Y-126032466D01*
X172872400Y-126460153D01*
X172872400Y-127539847D01*
X172957472Y-127967534D01*
X173199737Y-128330110D01*
X173562313Y-128572375D01*
X173990000Y-128657447D01*
X174417687Y-128572375D01*
X174780263Y-128330110D01*
X175022528Y-127967534D01*
X175107600Y-127539847D01*
X175107600Y-129755900D01*
X172567600Y-129755900D01*
X172567600Y-127539847D01*
X172567600Y-126460153D01*
X172482528Y-126032466D01*
X172240263Y-125669890D01*
X171877687Y-125427625D01*
X171450000Y-125342553D01*
X171022313Y-125427625D01*
X170659737Y-125669890D01*
X170417472Y-126032466D01*
X170332400Y-126460153D01*
X170332400Y-127539847D01*
X170417472Y-127967534D01*
X170659737Y-128330110D01*
X171022313Y-128572375D01*
X171450000Y-128657447D01*
X171877687Y-128572375D01*
X172240263Y-128330110D01*
X172482528Y-127967534D01*
X172567600Y-127539847D01*
X172567600Y-129755900D01*
X144627600Y-129755900D01*
X144627600Y-127539847D01*
X144627600Y-126460153D01*
X144542528Y-126032466D01*
X144300263Y-125669890D01*
X143937687Y-125427625D01*
X143510000Y-125342553D01*
X143082313Y-125427625D01*
X142719737Y-125669890D01*
X142477472Y-126032466D01*
X142392400Y-126460153D01*
X142392400Y-127539847D01*
X142477472Y-127967534D01*
X142719737Y-128330110D01*
X143082313Y-128572375D01*
X143510000Y-128657447D01*
X143937687Y-128572375D01*
X144300263Y-128330110D01*
X144542528Y-127967534D01*
X144627600Y-127539847D01*
X144627600Y-129755900D01*
X142341600Y-129755900D01*
X142341600Y-127660400D01*
X142341600Y-127152400D01*
X142341600Y-126847600D01*
X142341600Y-126339600D01*
X142178872Y-125826312D01*
X141832104Y-125414369D01*
X141333761Y-125169516D01*
X141122400Y-125282363D01*
X141122400Y-126847600D01*
X142341600Y-126847600D01*
X142341600Y-127152400D01*
X141122400Y-127152400D01*
X141122400Y-128717637D01*
X141333761Y-128830484D01*
X141832104Y-128585631D01*
X142178872Y-128173688D01*
X142341600Y-127660400D01*
X142341600Y-129755900D01*
X140817600Y-129755900D01*
X140817600Y-128717637D01*
X140817600Y-127152400D01*
X140817600Y-126847600D01*
X140817600Y-125282363D01*
X140606239Y-125169516D01*
X140107896Y-125414369D01*
X139761128Y-125826312D01*
X139700000Y-126019126D01*
X139638872Y-125826312D01*
X139292104Y-125414369D01*
X138793761Y-125169516D01*
X138582400Y-125282363D01*
X138582400Y-126847600D01*
X139598400Y-126847600D01*
X139801600Y-126847600D01*
X140817600Y-126847600D01*
X140817600Y-127152400D01*
X139801600Y-127152400D01*
X139598400Y-127152400D01*
X138582400Y-127152400D01*
X138582400Y-128717637D01*
X138793761Y-128830484D01*
X139292104Y-128585631D01*
X139638872Y-128173688D01*
X139700000Y-127980873D01*
X139761128Y-128173688D01*
X140107896Y-128585631D01*
X140606239Y-128830484D01*
X140817600Y-128717637D01*
X140817600Y-129755900D01*
X138277600Y-129755900D01*
X138277600Y-128717637D01*
X138277600Y-127152400D01*
X138277600Y-126847600D01*
X138277600Y-125282363D01*
X138066239Y-125169516D01*
X137567896Y-125414369D01*
X137221128Y-125826312D01*
X137058400Y-126339600D01*
X137058400Y-126847600D01*
X138277600Y-126847600D01*
X138277600Y-127152400D01*
X137058400Y-127152400D01*
X137058400Y-127660400D01*
X137221128Y-128173688D01*
X137567896Y-128585631D01*
X138066239Y-128830484D01*
X138277600Y-128717637D01*
X138277600Y-129755900D01*
X137007600Y-129755900D01*
X137007600Y-127539847D01*
X137007600Y-126460153D01*
X136922528Y-126032466D01*
X136680263Y-125669890D01*
X136652000Y-125651005D01*
X136652000Y-125069300D01*
X136593996Y-124777696D01*
X136593996Y-124777695D01*
X136527834Y-124678676D01*
X136428816Y-124530485D01*
X133279515Y-121381185D01*
X133032305Y-121216004D01*
X132740700Y-121158000D01*
X109326163Y-121158000D01*
X109326163Y-106033096D01*
X109174825Y-105816400D01*
X108102400Y-105816400D01*
X108102400Y-107127637D01*
X108313761Y-107240484D01*
X108370299Y-107233454D01*
X108841708Y-106972480D01*
X109177363Y-106550970D01*
X109326163Y-106033096D01*
X109326163Y-121158000D01*
X107885670Y-121158000D01*
X107865060Y-121054385D01*
X107797600Y-120953423D01*
X107797600Y-107127637D01*
X107797600Y-105816400D01*
X106725175Y-105816400D01*
X106573837Y-106033096D01*
X106722637Y-106550970D01*
X107058292Y-106972480D01*
X107529701Y-107233454D01*
X107586239Y-107240484D01*
X107797600Y-107127637D01*
X107797600Y-120953423D01*
X107587006Y-120638247D01*
X107170868Y-120360193D01*
X106680000Y-120262553D01*
X106189132Y-120360193D01*
X105772994Y-120638247D01*
X105542464Y-120983258D01*
X105501405Y-120848231D01*
X105118848Y-120382726D01*
X104587270Y-120099053D01*
X104529731Y-120090643D01*
X104292400Y-120201215D01*
X104292400Y-121767600D01*
X104312400Y-121767600D01*
X104312400Y-122072400D01*
X104292400Y-122072400D01*
X104292400Y-123638785D01*
X104529731Y-123749357D01*
X104587270Y-123740947D01*
X105118848Y-123457274D01*
X105501405Y-122991769D01*
X105542464Y-122856741D01*
X105772994Y-123201753D01*
X106189132Y-123479807D01*
X106680000Y-123577447D01*
X107170868Y-123479807D01*
X107587006Y-123201753D01*
X107865060Y-122785615D01*
X107885670Y-122682000D01*
X132425069Y-122682000D01*
X135128000Y-125384930D01*
X135128000Y-125651005D01*
X135099737Y-125669890D01*
X134857472Y-126032466D01*
X134772400Y-126460153D01*
X134772400Y-127539847D01*
X134857472Y-127967534D01*
X135099737Y-128330110D01*
X135462313Y-128572375D01*
X135890000Y-128657447D01*
X136317687Y-128572375D01*
X136680263Y-128330110D01*
X136922528Y-127967534D01*
X137007600Y-127539847D01*
X137007600Y-129755900D01*
X134467600Y-129755900D01*
X134467600Y-127539847D01*
X134467600Y-126460153D01*
X134382528Y-126032466D01*
X134140263Y-125669890D01*
X133777687Y-125427625D01*
X133350000Y-125342553D01*
X132922313Y-125427625D01*
X132559737Y-125669890D01*
X132317472Y-126032466D01*
X132232400Y-126460153D01*
X132232400Y-127539847D01*
X132317472Y-127967534D01*
X132559737Y-128330110D01*
X132922313Y-128572375D01*
X133350000Y-128657447D01*
X133777687Y-128572375D01*
X134140263Y-128330110D01*
X134382528Y-127967534D01*
X134467600Y-127539847D01*
X134467600Y-129755900D01*
X131927600Y-129755900D01*
X131927600Y-127539847D01*
X131927600Y-126460153D01*
X131842528Y-126032466D01*
X131600263Y-125669890D01*
X131237687Y-125427625D01*
X130810000Y-125342553D01*
X130382313Y-125427625D01*
X130019737Y-125669890D01*
X129777472Y-126032466D01*
X129692400Y-126460153D01*
X129692400Y-127539847D01*
X129777472Y-127967534D01*
X130019737Y-128330110D01*
X130382313Y-128572375D01*
X130810000Y-128657447D01*
X131237687Y-128572375D01*
X131600263Y-128330110D01*
X131842528Y-127967534D01*
X131927600Y-127539847D01*
X131927600Y-129755900D01*
X129387600Y-129755900D01*
X129387600Y-127539847D01*
X129387600Y-126460153D01*
X129302528Y-126032466D01*
X129060263Y-125669890D01*
X128697687Y-125427625D01*
X128270000Y-125342553D01*
X127842313Y-125427625D01*
X127479737Y-125669890D01*
X127237472Y-126032466D01*
X127152400Y-126460153D01*
X127152400Y-127539847D01*
X127237472Y-127967534D01*
X127479737Y-128330110D01*
X127842313Y-128572375D01*
X128270000Y-128657447D01*
X128697687Y-128572375D01*
X129060263Y-128330110D01*
X129302528Y-127967534D01*
X129387600Y-127539847D01*
X129387600Y-129755900D01*
X126847600Y-129755900D01*
X126847600Y-127539847D01*
X126847600Y-126460153D01*
X126762528Y-126032466D01*
X126520263Y-125669890D01*
X126157687Y-125427625D01*
X125730000Y-125342553D01*
X125302313Y-125427625D01*
X124939737Y-125669890D01*
X124697472Y-126032466D01*
X124612400Y-126460153D01*
X124612400Y-127539847D01*
X124697472Y-127967534D01*
X124939737Y-128330110D01*
X125302313Y-128572375D01*
X125730000Y-128657447D01*
X126157687Y-128572375D01*
X126520263Y-128330110D01*
X126762528Y-127967534D01*
X126847600Y-127539847D01*
X126847600Y-129755900D01*
X114084503Y-129755900D01*
X114084503Y-126539736D01*
X113731425Y-125685223D01*
X113078216Y-125030873D01*
X112224320Y-124676304D01*
X111299736Y-124675497D01*
X110445223Y-125028575D01*
X109790873Y-125681784D01*
X109436304Y-126535680D01*
X109435497Y-127460264D01*
X109788575Y-128314777D01*
X110441784Y-128969127D01*
X111295680Y-129323696D01*
X112220264Y-129324503D01*
X113074777Y-128971425D01*
X113729127Y-128318216D01*
X114083696Y-127464320D01*
X114084503Y-126539736D01*
X114084503Y-129755900D01*
X103987600Y-129755900D01*
X103987600Y-123638785D01*
X103987600Y-122072400D01*
X103967600Y-122072400D01*
X103967600Y-121767600D01*
X103987600Y-121767600D01*
X103987600Y-120201215D01*
X103750269Y-120090643D01*
X103692730Y-120099053D01*
X103161152Y-120382726D01*
X102889667Y-120713075D01*
X102889667Y-120650000D01*
X102863359Y-120514411D01*
X102785077Y-120395241D01*
X102666899Y-120315469D01*
X102527100Y-120287433D01*
X102012328Y-120287433D01*
X102012328Y-107950000D01*
X102012328Y-97790000D01*
X101869252Y-97070708D01*
X101461806Y-96460922D01*
X100852020Y-96053476D01*
X100132728Y-95910400D01*
X97987272Y-95910400D01*
X97267980Y-96053476D01*
X96658194Y-96460922D01*
X96250748Y-97070708D01*
X96107672Y-97790000D01*
X96250748Y-98509292D01*
X96658194Y-99119078D01*
X97267980Y-99526524D01*
X97987272Y-99669600D01*
X100132728Y-99669600D01*
X100852020Y-99526524D01*
X101461806Y-99119078D01*
X101869252Y-98509292D01*
X102012328Y-97790000D01*
X102012328Y-107950000D01*
X101869252Y-107230708D01*
X101461806Y-106620922D01*
X100852020Y-106213476D01*
X100132728Y-106070400D01*
X97987272Y-106070400D01*
X97267980Y-106213476D01*
X96658194Y-106620922D01*
X96250748Y-107230708D01*
X96107672Y-107950000D01*
X96250748Y-108669292D01*
X96658194Y-109279078D01*
X97267980Y-109686524D01*
X97987272Y-109829600D01*
X100132728Y-109829600D01*
X100852020Y-109686524D01*
X101461806Y-109279078D01*
X101869252Y-108669292D01*
X102012328Y-107950000D01*
X102012328Y-120287433D01*
X100672900Y-120287433D01*
X100537311Y-120313741D01*
X100418141Y-120392023D01*
X100338369Y-120510201D01*
X100310333Y-120650000D01*
X100310333Y-123190000D01*
X100336641Y-123325589D01*
X100414923Y-123444759D01*
X100533101Y-123524531D01*
X100672900Y-123552567D01*
X102527100Y-123552567D01*
X102662689Y-123526259D01*
X102781859Y-123447977D01*
X102861631Y-123329799D01*
X102889667Y-123190000D01*
X102889667Y-123126924D01*
X103161152Y-123457274D01*
X103692730Y-123740947D01*
X103750269Y-123749357D01*
X103987600Y-123638785D01*
X103987600Y-129755900D01*
X93764100Y-129755900D01*
X93764100Y-75984100D01*
X211035900Y-75984100D01*
X211035900Y-129755900D01*
M02*
