M48
;DRILL file {kicad 0.201504221001+5618~22~ubuntu14.04.1-product} date Fri 01 May 2015 04:41:39 PM EDT
;FORMAT={-:-/ absolute / inch / decimal}
FMAT,2
INCH,TZ
T1C0.025
T2C0.035
T3C0.038
T4C0.039
T5C0.040
T6C0.043
T7C0.063
T8C0.090
T9C0.106
T10C0.124
T11C0.130
%
G90
G05
M72
T1
X6.35Y-4.1733
X6.9243Y-3.3758
X6.9972Y-4.8452
X7.001Y-3.4087
X7.0352Y-4.3243
X7.2134Y-4.5474
X7.2693Y-4.7233
X7.5934Y-3.3434
T2
X4.15Y-4.05
X4.25Y-3.95
X4.25Y-4.05
X4.25Y-4.15
T3
X7.375Y-3.95
X7.375Y-4.15
T4
X7.875Y-4.45
X7.875Y-4.55
X7.875Y-4.65
T5
X4.59Y-3.1
X4.69Y-3.1
X4.79Y-3.1
X4.89Y-3.1
X4.95Y-5.
X4.99Y-3.1
X5.05Y-5.
X5.09Y-3.1
X5.15Y-5.
X5.19Y-3.1
X5.25Y-5.
X5.29Y-3.1
X5.35Y-5.
X5.39Y-3.1
X5.45Y-5.
X5.49Y-3.1
X5.55Y-5.
X5.65Y-3.1
X5.65Y-5.
X5.75Y-3.1
X5.85Y-3.1
X5.85Y-5.
X5.95Y-3.1
X5.95Y-5.
X6.05Y-3.1
X6.05Y-5.
X6.15Y-3.1
X6.15Y-5.
X6.25Y-3.1
X6.25Y-5.
X6.35Y-3.1
X6.35Y-5.
X6.45Y-5.
X6.55Y-3.1
X6.55Y-5.
X6.65Y-3.1
X6.75Y-3.1
X6.75Y-5.
X6.85Y-3.1
X6.85Y-5.
X6.95Y-3.1
X6.95Y-5.
X7.05Y-3.1
X7.05Y-5.
X7.15Y-3.1
X7.15Y-5.
X7.25Y-3.1
X7.25Y-5.
X7.35Y-5.
X7.45Y-5.
X7.55Y-3.1
X7.55Y-3.2
X7.55Y-3.3
X7.55Y-3.4
X7.55Y-3.5
X7.55Y-3.6
X7.55Y-3.7
X7.55Y-3.8
X7.55Y-3.9
X7.55Y-4.
X7.55Y-4.1
X7.55Y-4.2
X7.55Y-4.3
X7.55Y-4.4
X7.55Y-4.5
X7.55Y-4.6
X7.55Y-4.7
X7.55Y-4.8
X7.65Y-3.1
X7.65Y-3.2
X7.65Y-3.3
X7.65Y-3.4
X7.65Y-3.5
X7.65Y-3.6
X7.65Y-3.7
X7.65Y-3.8
X7.65Y-3.9
X7.65Y-4.
X7.65Y-4.1
X7.65Y-4.2
X7.65Y-4.3
X7.65Y-4.4
X7.65Y-4.5
X7.65Y-4.6
X7.65Y-4.7
X7.65Y-4.8
T6
X4.Y-4.8
X4.1Y-4.8
X4.2Y-4.8
X7.25Y-3.425
X7.25Y-3.525
T7
X8.207Y-4.05
T8
X3.9Y-3.85
X3.9Y-4.25
X7.15Y-4.05
X7.15Y-4.235
T9
X8.089Y-4.05
X8.128Y-3.873
X8.128Y-4.227
T10
X7.853Y-4.05
T11
X4.4Y-5.
X4.45Y-3.1
X7.4Y-3.1
X7.65Y-5.
T0
M30
