G04 #@! TF.FileFunction,Copper,L2,Bot,Signal*
%FSLAX46Y46*%
G04 Gerber Fmt 4.6, Leading zero omitted, Abs format (unit mm)*
G04 Created by KiCad (PCBNEW 0.201504221001+5618~22~ubuntu14.04.1-product) date Fri 01 May 2015 04:41:33 PM EDT*
%MOMM*%
G01*
G04 APERTURE LIST*
%ADD10C,0.100000*%
%ADD11C,0.228600*%
%ADD12O,2.540000X1.854200*%
%ADD13R,2.540000X1.854200*%
%ADD14O,1.854200X2.540000*%
%ADD15R,1.854200X2.540000*%
%ADD16O,4.445000X3.175000*%
%ADD17O,1.524000X2.032000*%
%ADD18O,5.080000X3.048000*%
%ADD19O,2.032000X1.524000*%
%ADD20R,2.540000X1.270000*%
%ADD21C,3.937000*%
%ADD22O,1.524000X2.540000*%
%ADD23O,2.540000X1.524000*%
%ADD24C,1.930400*%
%ADD25O,4.572000X3.556000*%
%ADD26O,4.064000X5.080000*%
%ADD27O,5.080000X3.556000*%
%ADD28R,1.270000X2.540000*%
%ADD29R,0.558800X1.330960*%
%ADD30C,0.889000*%
%ADD31C,1.016000*%
%ADD32C,0.508000*%
%ADD33C,0.406400*%
%ADD34C,0.812800*%
%ADD35C,0.203200*%
G04 APERTURE END LIST*
D10*
D11*
X211455000Y-75565000D02*
X93345000Y-75565000D01*
X211455000Y-130175000D02*
X211455000Y-75565000D01*
X93345000Y-130175000D02*
X211455000Y-130175000D01*
X93345000Y-75565000D02*
X93345000Y-130175000D01*
D12*
X184150000Y-86995000D03*
D13*
X184150000Y-89535000D03*
D14*
X104140000Y-121920000D03*
X106680000Y-121920000D03*
D15*
X101600000Y-121920000D03*
D16*
X181610000Y-102870000D03*
X181610000Y-107569000D03*
D17*
X187325000Y-105410000D03*
X187325000Y-100330000D03*
D18*
X99060000Y-107950000D03*
X99060000Y-97790000D03*
D19*
X105156000Y-102870000D03*
D17*
X107950000Y-102870000D03*
X107950000Y-100076000D03*
X107950000Y-105664000D03*
D20*
X186690000Y-112014000D03*
X186690000Y-108966000D03*
D21*
X111760000Y-127000000D03*
X113030000Y-78740000D03*
X194310000Y-127000000D03*
X187960000Y-78740000D03*
D22*
X125730000Y-127000000D03*
X128270000Y-127000000D03*
X130810000Y-127000000D03*
X133350000Y-127000000D03*
X135890000Y-127000000D03*
X138430000Y-127000000D03*
X140970000Y-127000000D03*
X143510000Y-127000000D03*
X148590000Y-127000000D03*
X151130000Y-127000000D03*
X153670000Y-127000000D03*
X156210000Y-127000000D03*
X158750000Y-127000000D03*
X161290000Y-127000000D03*
X163830000Y-127000000D03*
X166370000Y-127000000D03*
X171450000Y-127000000D03*
X173990000Y-127000000D03*
X176530000Y-127000000D03*
X179070000Y-127000000D03*
X181610000Y-127000000D03*
X184150000Y-127000000D03*
X186690000Y-127000000D03*
X189230000Y-127000000D03*
X116586000Y-78740000D03*
X119126000Y-78740000D03*
X121666000Y-78740000D03*
X124206000Y-78740000D03*
X126746000Y-78740000D03*
X129286000Y-78740000D03*
X131826000Y-78740000D03*
X134366000Y-78740000D03*
X136906000Y-78740000D03*
X139446000Y-78740000D03*
X143510000Y-78740000D03*
X161290000Y-78740000D03*
X158750000Y-78740000D03*
X156210000Y-78740000D03*
X153670000Y-78740000D03*
X151130000Y-78740000D03*
X148590000Y-78740000D03*
X146050000Y-78740000D03*
X166370000Y-78740000D03*
X168910000Y-78740000D03*
X171450000Y-78740000D03*
X173990000Y-78740000D03*
X176530000Y-78740000D03*
X179070000Y-78740000D03*
X181610000Y-78740000D03*
X184150000Y-78740000D03*
X191770000Y-78232000D03*
X194310000Y-78232000D03*
D23*
X191262000Y-81280000D03*
X194818000Y-81280000D03*
X191262000Y-83820000D03*
X194818000Y-83820000D03*
X191262000Y-86360000D03*
X194818000Y-86360000D03*
X191262000Y-88900000D03*
X194818000Y-88900000D03*
X191262000Y-91440000D03*
X194818000Y-91440000D03*
X191262000Y-93980000D03*
X194818000Y-93980000D03*
X191262000Y-96520000D03*
X194818000Y-96520000D03*
X191262000Y-99060000D03*
X194818000Y-99060000D03*
X191262000Y-101600000D03*
X194818000Y-101600000D03*
X191262000Y-104140000D03*
X194818000Y-104140000D03*
X191262000Y-106680000D03*
X194818000Y-106680000D03*
X191262000Y-109220000D03*
X194818000Y-109220000D03*
X191262000Y-111760000D03*
X194818000Y-111760000D03*
X191262000Y-114300000D03*
X194818000Y-114300000D03*
X191262000Y-116840000D03*
X194818000Y-116840000D03*
X191262000Y-119380000D03*
X194818000Y-119380000D03*
X191262000Y-121920000D03*
X194818000Y-121920000D03*
X200025000Y-115570000D03*
X200025000Y-118110000D03*
X200025000Y-113030000D03*
D24*
X208457800Y-102870000D03*
D25*
X204952600Y-102870000D03*
D26*
X199466200Y-102870000D03*
D27*
X206451200Y-98374200D03*
X206451200Y-107365800D03*
D28*
X202946000Y-92710000D03*
X205994000Y-92710000D03*
D20*
X205105000Y-118364000D03*
X205105000Y-115316000D03*
D28*
X106934000Y-126365000D03*
X103886000Y-126365000D03*
D20*
X172720000Y-81661000D03*
X172720000Y-84709000D03*
D28*
X198501000Y-80010000D03*
X201549000Y-80010000D03*
D20*
X184785000Y-121539000D03*
X184785000Y-118491000D03*
X178435000Y-118491000D03*
X178435000Y-121539000D03*
D29*
X178749960Y-84383880D03*
X177800000Y-84383880D03*
X176850040Y-84383880D03*
X176850040Y-81986120D03*
X177800000Y-81986120D03*
X178749960Y-81986120D03*
X183829960Y-84383880D03*
X182880000Y-84383880D03*
X181930040Y-84383880D03*
X181930040Y-81986120D03*
X182880000Y-81986120D03*
X183829960Y-81986120D03*
D30*
X177825400Y-86581200D03*
X175877200Y-85746000D03*
X161290000Y-106002700D03*
X184641300Y-119972600D03*
X178695200Y-109837200D03*
X177728400Y-123066900D03*
X183221600Y-115504900D03*
X192872600Y-84922600D03*
D31*
X202946000Y-92710000D02*
X201548700Y-92710000D01*
X199466200Y-94792500D02*
X201548700Y-92710000D01*
X199466200Y-102870000D02*
X199466200Y-94792500D01*
X200025000Y-106731100D02*
X200025000Y-113030000D01*
X199466200Y-106172300D02*
X200025000Y-106731100D01*
X199466200Y-102870000D02*
X199466200Y-106172300D01*
D32*
X184148100Y-85557700D02*
X184150000Y-85559600D01*
X182880000Y-85557700D02*
X184148100Y-85557700D01*
X184150000Y-86995000D02*
X184150000Y-85559600D01*
X182880000Y-84383900D02*
X182880000Y-85557700D01*
X205994000Y-92710000D02*
X204850700Y-92710000D01*
X204850700Y-82168400D02*
X204850700Y-92710000D01*
X202692300Y-80010000D02*
X204850700Y-82168400D01*
X201549000Y-80010000D02*
X202692300Y-80010000D01*
X184150000Y-86995000D02*
X185928300Y-86995000D01*
X187325000Y-92403000D02*
X187325000Y-100330000D01*
X185928300Y-91006300D02*
X187325000Y-92403000D01*
X185928300Y-86995000D02*
X185928300Y-91006300D01*
X186975800Y-107822700D02*
X186690000Y-107822700D01*
X188595300Y-106203200D02*
X186975800Y-107822700D01*
X188595300Y-100330000D02*
X188595300Y-106203200D01*
X187325000Y-100330000D02*
X188595300Y-100330000D01*
X186690000Y-108966000D02*
X186690000Y-107822700D01*
X205105000Y-115316000D02*
X203326700Y-115316000D01*
X197680300Y-117914700D02*
X200025000Y-115570000D01*
X197680300Y-121376100D02*
X197680300Y-117914700D01*
X195832100Y-123224300D02*
X197680300Y-121376100D01*
X190186400Y-123224300D02*
X195832100Y-123224300D01*
X188706400Y-121744300D02*
X190186400Y-123224300D01*
X188706400Y-110982400D02*
X188706400Y-121744300D01*
X186690000Y-108966000D02*
X188706400Y-110982400D01*
X203072700Y-115570000D02*
X203326700Y-115316000D01*
X200025000Y-115570000D02*
X203072700Y-115570000D01*
X204850700Y-93853300D02*
X204850700Y-92710000D01*
X203372600Y-95331400D02*
X204850700Y-93853300D01*
X203372600Y-100782000D02*
X203372600Y-95331400D01*
X205460600Y-102870000D02*
X203372600Y-100782000D01*
X203326700Y-114729100D02*
X203326700Y-115316000D01*
X203650300Y-114405500D02*
X203326700Y-114729100D01*
X203650300Y-114195300D02*
X203650300Y-114405500D01*
X203393200Y-113938200D02*
X203650300Y-114195300D01*
X203393200Y-104937400D02*
X203393200Y-113938200D01*
X205460600Y-102870000D02*
X203393200Y-104937400D01*
X104140000Y-124332700D02*
X103886000Y-124586700D01*
X104140000Y-121920000D02*
X104140000Y-124332700D01*
X103886000Y-126365000D02*
X103886000Y-124586700D01*
X177800000Y-86555800D02*
X177800000Y-84383900D01*
X177825400Y-86581200D02*
X177800000Y-86555800D01*
X172720000Y-84709000D02*
X174498300Y-84709000D01*
X174840200Y-84709000D02*
X175877200Y-85746000D01*
X174498300Y-84709000D02*
X174840200Y-84709000D01*
D33*
X205105000Y-118364000D02*
X203377500Y-118364000D01*
X143510000Y-127000000D02*
X143510000Y-125272500D01*
X201753100Y-118364000D02*
X203377500Y-118364000D01*
X201752500Y-118363400D02*
X201753100Y-118364000D01*
X201752500Y-118110000D02*
X201752500Y-118363400D01*
X187656300Y-125272500D02*
X143510000Y-125272500D01*
X188992900Y-123935900D02*
X187656300Y-125272500D01*
X196478600Y-123935900D02*
X188992900Y-123935900D01*
X201753100Y-118661400D02*
X196478600Y-123935900D01*
X201753100Y-118364000D02*
X201753100Y-118661400D01*
X200025000Y-118110000D02*
X201752500Y-118110000D01*
D34*
X161290000Y-115117200D02*
X161290000Y-106002700D01*
X145842100Y-115117200D02*
X135890000Y-125069300D01*
X161290000Y-115117200D02*
X145842100Y-115117200D01*
X135890000Y-127000000D02*
X135890000Y-125069300D01*
X106680000Y-124180300D02*
X106680000Y-121920000D01*
X106934000Y-124434300D02*
X106680000Y-124180300D01*
X106934000Y-126365000D02*
X106934000Y-124434300D01*
X178435000Y-118491000D02*
X180365700Y-118491000D01*
X184785000Y-121539000D02*
X182854300Y-121539000D01*
X180769300Y-121539000D02*
X182854300Y-121539000D01*
X180769300Y-122090100D02*
X180769300Y-121539000D01*
X178627700Y-124231700D02*
X180769300Y-122090100D01*
X170404500Y-124231700D02*
X178627700Y-124231700D01*
X161290000Y-115117200D02*
X170404500Y-124231700D01*
X180769300Y-118894600D02*
X180365700Y-118491000D01*
X180769300Y-121539000D02*
X180769300Y-118894600D01*
X184785000Y-120116300D02*
X184641300Y-119972600D01*
X184785000Y-121539000D02*
X184785000Y-120116300D01*
D33*
X178750000Y-109782400D02*
X178695200Y-109837200D01*
X178750000Y-84383900D02*
X178750000Y-109782400D01*
X177837500Y-120446500D02*
X178435000Y-120446500D01*
X156210000Y-98819000D02*
X177837500Y-120446500D01*
X156210000Y-80467500D02*
X156210000Y-98819000D01*
X156210000Y-78740000D02*
X156210000Y-80467500D01*
X178163800Y-122631500D02*
X177728400Y-123066900D01*
X178435000Y-122631500D02*
X178163800Y-122631500D01*
X178435000Y-121539000D02*
X178435000Y-122631500D01*
X178435000Y-121539000D02*
X178435000Y-120446500D01*
X184785000Y-117068300D02*
X183221600Y-115504900D01*
X184785000Y-118491000D02*
X184785000Y-117068300D01*
X181910500Y-115504900D02*
X183221600Y-115504900D01*
X170992400Y-104586800D02*
X181910500Y-115504900D01*
X170992400Y-80821300D02*
X170992400Y-104586800D01*
X171346100Y-80467600D02*
X170992400Y-80821300D01*
X172021500Y-80467600D02*
X171346100Y-80467600D01*
X172720000Y-79769100D02*
X172021500Y-80467600D01*
X172720000Y-77748300D02*
X172720000Y-79769100D01*
X173455800Y-77012500D02*
X172720000Y-77748300D01*
X176530000Y-77012500D02*
X173455800Y-77012500D01*
X176530000Y-78740000D02*
X176530000Y-77012500D01*
X105336200Y-118183800D02*
X101600000Y-121920000D01*
X116894000Y-118183800D02*
X105336200Y-118183800D01*
X154921100Y-80156700D02*
X116894000Y-118183800D01*
X154921100Y-77750000D02*
X154921100Y-80156700D01*
X155658600Y-77012500D02*
X154921100Y-77750000D01*
X166370000Y-77012500D02*
X155658600Y-77012500D01*
X166370000Y-78740000D02*
X166370000Y-77012500D01*
X179070000Y-80543100D02*
X179070000Y-78740000D01*
X178750000Y-80863100D02*
X179070000Y-80543100D01*
X178750000Y-81986100D02*
X178750000Y-80863100D01*
D32*
X187325000Y-105410000D02*
X186054700Y-105410000D01*
X186690000Y-112014000D02*
X186690000Y-110870700D01*
X183895700Y-108862400D02*
X183895700Y-107569000D01*
X185904000Y-110870700D02*
X183895700Y-108862400D01*
X186690000Y-110870700D02*
X185904000Y-110870700D01*
X183895700Y-107569000D02*
X186054700Y-105410000D01*
X183895700Y-107569000D02*
X181610000Y-107569000D01*
X176850000Y-109395500D02*
X176850000Y-84383900D01*
X178310700Y-110856200D02*
X176850000Y-109395500D01*
X180418600Y-110856200D02*
X178310700Y-110856200D01*
X181610000Y-109664800D02*
X180418600Y-110856200D01*
X181610000Y-107569000D02*
X181610000Y-109664800D01*
D33*
X131572000Y-80467500D02*
X109169500Y-102870000D01*
X153670000Y-80467500D02*
X131572000Y-80467500D01*
X153670000Y-78740000D02*
X153670000Y-80467500D01*
X107950000Y-102870000D02*
X109169500Y-102870000D01*
X176454400Y-80467500D02*
X173990000Y-80467500D01*
X176850000Y-80863100D02*
X176454400Y-80467500D01*
X176850000Y-81986100D02*
X176850000Y-80863100D01*
X173990000Y-78740000D02*
X173990000Y-80467500D01*
X184150000Y-80543100D02*
X184150000Y-78740000D01*
X183830000Y-80863100D02*
X184150000Y-80543100D01*
X183830000Y-81986100D02*
X183830000Y-80863100D01*
X177800000Y-81986100D02*
X177800000Y-82943900D01*
X197408500Y-79054100D02*
X197408500Y-80010000D01*
X194858900Y-76504500D02*
X197408500Y-79054100D01*
X191770000Y-76504500D02*
X194858900Y-76504500D01*
X198501000Y-80010000D02*
X197408500Y-80010000D01*
X191770000Y-78740000D02*
X191770000Y-76504500D01*
X172720000Y-81661000D02*
X172720000Y-82753500D01*
X173075700Y-83109200D02*
X172720000Y-82753500D01*
X177634700Y-83109200D02*
X173075700Y-83109200D01*
X177800000Y-82943900D02*
X177634700Y-83109200D01*
X177965200Y-83109100D02*
X177800000Y-82943900D01*
X182880000Y-83109100D02*
X177965200Y-83109100D01*
X182880000Y-81986100D02*
X182880000Y-82943900D01*
X182880000Y-82943900D02*
X182880000Y-83109100D01*
X190260700Y-79959500D02*
X191770000Y-79959500D01*
X187111100Y-83109100D02*
X190260700Y-79959500D01*
X182880000Y-83109100D02*
X187111100Y-83109100D01*
X191770000Y-78740000D02*
X191770000Y-79959500D01*
X192755600Y-85039600D02*
X192872600Y-84922600D01*
X187198000Y-85039600D02*
X192755600Y-85039600D01*
X186542300Y-84383900D02*
X187198000Y-85039600D01*
X183830000Y-84383900D02*
X186542300Y-84383900D01*
X181610000Y-80543100D02*
X181610000Y-78740000D01*
X181930000Y-80863100D02*
X181610000Y-80543100D01*
X181930000Y-81986100D02*
X181930000Y-80863100D01*
X181930000Y-87315000D02*
X184150000Y-89535000D01*
X181930000Y-84383900D02*
X181930000Y-87315000D01*
D35*
G36*
X211035900Y-129755900D02*
X196634503Y-129755900D01*
X196634503Y-126539736D01*
X196281425Y-125685223D01*
X195628216Y-125030873D01*
X194774320Y-124676304D01*
X193849736Y-124675497D01*
X192995223Y-125028575D01*
X192340873Y-125681784D01*
X191986304Y-126535680D01*
X191985497Y-127460264D01*
X192338575Y-128314777D01*
X192991784Y-128969127D01*
X193845680Y-129323696D01*
X194770264Y-129324503D01*
X195624777Y-128971425D01*
X196279127Y-128318216D01*
X196633696Y-127464320D01*
X196634503Y-126539736D01*
X196634503Y-129755900D01*
X190347600Y-129755900D01*
X190347600Y-127539847D01*
X190347600Y-126460153D01*
X190262528Y-126032466D01*
X190020263Y-125669890D01*
X189657687Y-125427625D01*
X189230000Y-125342553D01*
X188802313Y-125427625D01*
X188439737Y-125669890D01*
X188197472Y-126032466D01*
X188112400Y-126460153D01*
X188112400Y-127539847D01*
X188197472Y-127967534D01*
X188439737Y-128330110D01*
X188802313Y-128572375D01*
X189230000Y-128657447D01*
X189657687Y-128572375D01*
X190020263Y-128330110D01*
X190262528Y-127967534D01*
X190347600Y-127539847D01*
X190347600Y-129755900D01*
X142087600Y-129755900D01*
X142087600Y-127539847D01*
X142087600Y-126460153D01*
X142002528Y-126032466D01*
X141760263Y-125669890D01*
X141397687Y-125427625D01*
X140970000Y-125342553D01*
X140542313Y-125427625D01*
X140179737Y-125669890D01*
X139937472Y-126032466D01*
X139852400Y-126460153D01*
X139852400Y-127539847D01*
X139937472Y-127967534D01*
X140179737Y-128330110D01*
X140542313Y-128572375D01*
X140970000Y-128657447D01*
X141397687Y-128572375D01*
X141760263Y-128330110D01*
X142002528Y-127967534D01*
X142087600Y-127539847D01*
X142087600Y-129755900D01*
X139547600Y-129755900D01*
X139547600Y-127539847D01*
X139547600Y-126460153D01*
X139462528Y-126032466D01*
X139220263Y-125669890D01*
X138857687Y-125427625D01*
X138430000Y-125342553D01*
X138002313Y-125427625D01*
X137639737Y-125669890D01*
X137397472Y-126032466D01*
X137312400Y-126460153D01*
X137312400Y-127539847D01*
X137397472Y-127967534D01*
X137639737Y-128330110D01*
X138002313Y-128572375D01*
X138430000Y-128657447D01*
X138857687Y-128572375D01*
X139220263Y-128330110D01*
X139462528Y-127967534D01*
X139547600Y-127539847D01*
X139547600Y-129755900D01*
X137261600Y-129755900D01*
X137261600Y-127660400D01*
X137261600Y-127152400D01*
X137261600Y-126847600D01*
X137261600Y-126339600D01*
X137098872Y-125826312D01*
X136752104Y-125414369D01*
X136253761Y-125169516D01*
X136042400Y-125282363D01*
X136042400Y-126847600D01*
X137261600Y-126847600D01*
X137261600Y-127152400D01*
X136042400Y-127152400D01*
X136042400Y-128717637D01*
X136253761Y-128830484D01*
X136752104Y-128585631D01*
X137098872Y-128173688D01*
X137261600Y-127660400D01*
X137261600Y-129755900D01*
X135737600Y-129755900D01*
X135737600Y-128717637D01*
X135737600Y-127152400D01*
X135737600Y-126847600D01*
X135737600Y-125282363D01*
X135526239Y-125169516D01*
X135027896Y-125414369D01*
X134681128Y-125826312D01*
X134518400Y-126339600D01*
X134518400Y-126847600D01*
X135737600Y-126847600D01*
X135737600Y-127152400D01*
X134518400Y-127152400D01*
X134518400Y-127660400D01*
X134681128Y-128173688D01*
X135027896Y-128585631D01*
X135526239Y-128830484D01*
X135737600Y-128717637D01*
X135737600Y-129755900D01*
X134467600Y-129755900D01*
X134467600Y-127539847D01*
X134467600Y-126460153D01*
X134382528Y-126032466D01*
X134140263Y-125669890D01*
X133777687Y-125427625D01*
X133350000Y-125342553D01*
X132922313Y-125427625D01*
X132559737Y-125669890D01*
X132317472Y-126032466D01*
X132232400Y-126460153D01*
X132232400Y-127539847D01*
X132317472Y-127967534D01*
X132559737Y-128330110D01*
X132922313Y-128572375D01*
X133350000Y-128657447D01*
X133777687Y-128572375D01*
X134140263Y-128330110D01*
X134382528Y-127967534D01*
X134467600Y-127539847D01*
X134467600Y-129755900D01*
X131927600Y-129755900D01*
X131927600Y-127539847D01*
X131927600Y-126460153D01*
X131842528Y-126032466D01*
X131600263Y-125669890D01*
X131237687Y-125427625D01*
X130810000Y-125342553D01*
X130382313Y-125427625D01*
X130019737Y-125669890D01*
X129777472Y-126032466D01*
X129692400Y-126460153D01*
X129692400Y-127539847D01*
X129777472Y-127967534D01*
X130019737Y-128330110D01*
X130382313Y-128572375D01*
X130810000Y-128657447D01*
X131237687Y-128572375D01*
X131600263Y-128330110D01*
X131842528Y-127967534D01*
X131927600Y-127539847D01*
X131927600Y-129755900D01*
X129387600Y-129755900D01*
X129387600Y-127539847D01*
X129387600Y-126460153D01*
X129302528Y-126032466D01*
X129060263Y-125669890D01*
X128697687Y-125427625D01*
X128270000Y-125342553D01*
X127842313Y-125427625D01*
X127479737Y-125669890D01*
X127237472Y-126032466D01*
X127152400Y-126460153D01*
X127152400Y-127539847D01*
X127237472Y-127967534D01*
X127479737Y-128330110D01*
X127842313Y-128572375D01*
X128270000Y-128657447D01*
X128697687Y-128572375D01*
X129060263Y-128330110D01*
X129302528Y-127967534D01*
X129387600Y-127539847D01*
X129387600Y-129755900D01*
X126847600Y-129755900D01*
X126847600Y-127539847D01*
X126847600Y-126460153D01*
X126762528Y-126032466D01*
X126520263Y-125669890D01*
X126157687Y-125427625D01*
X125730000Y-125342553D01*
X125302313Y-125427625D01*
X124939737Y-125669890D01*
X124697472Y-126032466D01*
X124612400Y-126460153D01*
X124612400Y-127539847D01*
X124697472Y-127967534D01*
X124939737Y-128330110D01*
X125302313Y-128572375D01*
X125730000Y-128657447D01*
X126157687Y-128572375D01*
X126520263Y-128330110D01*
X126762528Y-127967534D01*
X126847600Y-127539847D01*
X126847600Y-129755900D01*
X114084503Y-129755900D01*
X114084503Y-126539736D01*
X113731425Y-125685223D01*
X113078216Y-125030873D01*
X112224320Y-124676304D01*
X111299736Y-124675497D01*
X110445223Y-125028575D01*
X109790873Y-125681784D01*
X109436304Y-126535680D01*
X109435497Y-127460264D01*
X109788575Y-128314777D01*
X110441784Y-128969127D01*
X111295680Y-129323696D01*
X112220264Y-129324503D01*
X113074777Y-128971425D01*
X113729127Y-128318216D01*
X114083696Y-127464320D01*
X114084503Y-126539736D01*
X114084503Y-129755900D01*
X108216700Y-129755900D01*
X108216700Y-122415300D01*
X108216700Y-122072400D01*
X108216700Y-121767600D01*
X108216700Y-121424700D01*
X108041405Y-120848231D01*
X107658848Y-120382726D01*
X107127270Y-120099053D01*
X107069731Y-120090643D01*
X106832400Y-120201215D01*
X106832400Y-121767600D01*
X108216700Y-121767600D01*
X108216700Y-122072400D01*
X106832400Y-122072400D01*
X106832400Y-123638785D01*
X107069731Y-123749357D01*
X107127270Y-123740947D01*
X107658848Y-123457274D01*
X108041405Y-122991769D01*
X108216700Y-122415300D01*
X108216700Y-129755900D01*
X108178600Y-129755900D01*
X108178600Y-127756257D01*
X108178600Y-127513743D01*
X108178600Y-126669800D01*
X108178600Y-126060200D01*
X108178600Y-125216257D01*
X108178600Y-124973743D01*
X108085794Y-124749689D01*
X107914311Y-124578206D01*
X107690257Y-124485400D01*
X107238800Y-124485400D01*
X107086400Y-124637800D01*
X107086400Y-126212600D01*
X108026200Y-126212600D01*
X108178600Y-126060200D01*
X108178600Y-126669800D01*
X108026200Y-126517400D01*
X107086400Y-126517400D01*
X107086400Y-128092200D01*
X107238800Y-128244600D01*
X107690257Y-128244600D01*
X107914311Y-128151794D01*
X108085794Y-127980311D01*
X108178600Y-127756257D01*
X108178600Y-129755900D01*
X106781600Y-129755900D01*
X106781600Y-128092200D01*
X106781600Y-126517400D01*
X106781600Y-126212600D01*
X106781600Y-124637800D01*
X106629200Y-124485400D01*
X106177743Y-124485400D01*
X105953689Y-124578206D01*
X105782206Y-124749689D01*
X105689400Y-124973743D01*
X105689400Y-125216257D01*
X105689400Y-126060200D01*
X105841800Y-126212600D01*
X106781600Y-126212600D01*
X106781600Y-126517400D01*
X105841800Y-126517400D01*
X105689400Y-126669800D01*
X105689400Y-127513743D01*
X105689400Y-127756257D01*
X105782206Y-127980311D01*
X105953689Y-128151794D01*
X106177743Y-128244600D01*
X106629200Y-128244600D01*
X106781600Y-128092200D01*
X106781600Y-129755900D01*
X93764100Y-129755900D01*
X93764100Y-75984100D01*
X191576949Y-75984100D01*
X191556156Y-75988236D01*
X191374869Y-76109369D01*
X191253736Y-76290656D01*
X191211200Y-76504500D01*
X191211200Y-76747231D01*
X190979737Y-76901890D01*
X190737472Y-77264466D01*
X190652400Y-77692153D01*
X190652400Y-78771847D01*
X190737472Y-79199534D01*
X190871886Y-79400700D01*
X190260700Y-79400700D01*
X190196880Y-79413394D01*
X190283696Y-79204320D01*
X190284503Y-78279736D01*
X189931425Y-77425223D01*
X189278216Y-76770873D01*
X188424320Y-76416304D01*
X187499736Y-76415497D01*
X186645223Y-76768575D01*
X185990873Y-77421784D01*
X185636304Y-78275680D01*
X185635497Y-79200264D01*
X185988575Y-80054777D01*
X186641784Y-80709127D01*
X187495680Y-81063696D01*
X188365482Y-81064455D01*
X186879638Y-82550300D01*
X184420131Y-82550300D01*
X184420131Y-81320640D01*
X184397582Y-81204421D01*
X184388800Y-81191052D01*
X184388800Y-81094562D01*
X184545131Y-80938232D01*
X184545131Y-80938231D01*
X184605697Y-80847587D01*
X184666264Y-80756944D01*
X184666264Y-80756943D01*
X184708799Y-80543100D01*
X184708800Y-80543100D01*
X184708800Y-80224768D01*
X184940263Y-80070110D01*
X185182528Y-79707534D01*
X185267600Y-79279847D01*
X185267600Y-78200153D01*
X185182528Y-77772466D01*
X184940263Y-77409890D01*
X184577687Y-77167625D01*
X184150000Y-77082553D01*
X183722313Y-77167625D01*
X183359737Y-77409890D01*
X183117472Y-77772466D01*
X183032400Y-78200153D01*
X183032400Y-79279847D01*
X183117472Y-79707534D01*
X183359737Y-80070110D01*
X183591200Y-80224768D01*
X183591200Y-80311637D01*
X183434869Y-80467969D01*
X183313736Y-80649256D01*
X183271200Y-80863100D01*
X183271200Y-81032289D01*
X183159400Y-81009869D01*
X182600600Y-81009869D01*
X182488800Y-81031560D01*
X182488800Y-80863100D01*
X182446264Y-80649257D01*
X182446264Y-80649256D01*
X182385697Y-80558612D01*
X182325131Y-80467969D01*
X182325131Y-80467968D01*
X182168800Y-80311637D01*
X182168800Y-80224768D01*
X182400263Y-80070110D01*
X182642528Y-79707534D01*
X182727600Y-79279847D01*
X182727600Y-78200153D01*
X182642528Y-77772466D01*
X182400263Y-77409890D01*
X182037687Y-77167625D01*
X181610000Y-77082553D01*
X181182313Y-77167625D01*
X180819737Y-77409890D01*
X180577472Y-77772466D01*
X180492400Y-78200153D01*
X180492400Y-79279847D01*
X180577472Y-79707534D01*
X180819737Y-80070110D01*
X181051200Y-80224768D01*
X181051200Y-80543100D01*
X181093736Y-80756944D01*
X181214869Y-80938231D01*
X181371200Y-81094562D01*
X181371200Y-81189996D01*
X181363899Y-81200813D01*
X181339869Y-81320640D01*
X181339869Y-82550300D01*
X179340131Y-82550300D01*
X179340131Y-81320640D01*
X179317582Y-81204421D01*
X179308800Y-81191052D01*
X179308800Y-81094562D01*
X179465131Y-80938232D01*
X179465131Y-80938231D01*
X179525697Y-80847587D01*
X179586264Y-80756944D01*
X179586264Y-80756943D01*
X179628799Y-80543100D01*
X179628800Y-80543100D01*
X179628800Y-80224768D01*
X179860263Y-80070110D01*
X180102528Y-79707534D01*
X180187600Y-79279847D01*
X180187600Y-78200153D01*
X180102528Y-77772466D01*
X179860263Y-77409890D01*
X179497687Y-77167625D01*
X179070000Y-77082553D01*
X178642313Y-77167625D01*
X178279737Y-77409890D01*
X178037472Y-77772466D01*
X177952400Y-78200153D01*
X177952400Y-79279847D01*
X178037472Y-79707534D01*
X178279737Y-80070110D01*
X178511200Y-80224768D01*
X178511200Y-80311637D01*
X178354869Y-80467969D01*
X178233736Y-80649256D01*
X178191200Y-80863100D01*
X178191200Y-81032289D01*
X178079400Y-81009869D01*
X177520600Y-81009869D01*
X177408800Y-81031560D01*
X177408800Y-80863100D01*
X177366264Y-80649257D01*
X177366264Y-80649256D01*
X177245131Y-80467969D01*
X177036725Y-80259563D01*
X177320263Y-80070110D01*
X177562528Y-79707534D01*
X177647600Y-79279847D01*
X177647600Y-78200153D01*
X177562528Y-77772466D01*
X177320263Y-77409890D01*
X177088800Y-77255231D01*
X177088800Y-77012500D01*
X177046264Y-76798656D01*
X176925131Y-76617369D01*
X176743844Y-76496236D01*
X176530000Y-76453700D01*
X173455800Y-76453700D01*
X173241956Y-76496236D01*
X173151312Y-76556802D01*
X173060668Y-76617369D01*
X172324869Y-77353169D01*
X172263615Y-77444840D01*
X172240263Y-77409890D01*
X171877687Y-77167625D01*
X171450000Y-77082553D01*
X171022313Y-77167625D01*
X170659737Y-77409890D01*
X170417472Y-77772466D01*
X170332400Y-78200153D01*
X170332400Y-79279847D01*
X170417472Y-79707534D01*
X170659737Y-80070110D01*
X170835731Y-80187705D01*
X170597269Y-80426169D01*
X170476136Y-80607456D01*
X170433600Y-80821300D01*
X170433600Y-104586800D01*
X170476136Y-104800644D01*
X170597269Y-104981931D01*
X181515369Y-115900031D01*
X181696656Y-116021164D01*
X181696657Y-116021164D01*
X181910500Y-116063700D01*
X182648899Y-116063700D01*
X182767788Y-116182796D01*
X183061752Y-116304861D01*
X183231446Y-116305009D01*
X184226200Y-117299762D01*
X184226200Y-117493433D01*
X183515000Y-117493433D01*
X183379411Y-117519741D01*
X183260241Y-117598023D01*
X183180469Y-117716201D01*
X183152433Y-117856000D01*
X183152433Y-119126000D01*
X183178741Y-119261589D01*
X183257023Y-119380759D01*
X183375201Y-119460531D01*
X183515000Y-119488567D01*
X186055000Y-119488567D01*
X186190589Y-119462259D01*
X186309759Y-119383977D01*
X186389531Y-119265799D01*
X186417567Y-119126000D01*
X186417567Y-117856000D01*
X186391259Y-117720411D01*
X186312977Y-117601241D01*
X186194799Y-117521469D01*
X186055000Y-117493433D01*
X185343800Y-117493433D01*
X185343800Y-117068300D01*
X185301264Y-116854456D01*
X185180131Y-116673169D01*
X185180131Y-116673168D01*
X184021692Y-115514729D01*
X184021839Y-115346448D01*
X183900287Y-115052272D01*
X183675412Y-114827004D01*
X183381448Y-114704939D01*
X183063148Y-114704661D01*
X182768972Y-114826213D01*
X182648875Y-114946100D01*
X182141962Y-114946100D01*
X178661662Y-111465800D01*
X180418600Y-111465800D01*
X180651884Y-111419397D01*
X180849652Y-111287252D01*
X182041052Y-110095852D01*
X182173197Y-109898084D01*
X182219600Y-109664800D01*
X182219600Y-109512100D01*
X182295508Y-109512100D01*
X183039100Y-109364190D01*
X183365975Y-109145778D01*
X183464648Y-109293452D01*
X185241877Y-111070681D01*
X185165241Y-111121023D01*
X185085469Y-111239201D01*
X185057433Y-111379000D01*
X185057433Y-112649000D01*
X185083741Y-112784589D01*
X185162023Y-112903759D01*
X185280201Y-112983531D01*
X185420000Y-113011567D01*
X187960000Y-113011567D01*
X188095589Y-112985259D01*
X188096800Y-112984463D01*
X188096800Y-121744300D01*
X188143203Y-121977584D01*
X188275348Y-122175352D01*
X189477096Y-123377100D01*
X188992900Y-123377100D01*
X188779056Y-123419636D01*
X188597769Y-123540769D01*
X187424838Y-124713700D01*
X186664600Y-124713700D01*
X186664600Y-122295257D01*
X186664600Y-121843800D01*
X186664600Y-121234200D01*
X186664600Y-120782743D01*
X186571794Y-120558689D01*
X186400311Y-120387206D01*
X186176257Y-120294400D01*
X185933743Y-120294400D01*
X185089800Y-120294400D01*
X184937400Y-120446800D01*
X184937400Y-121386600D01*
X186512200Y-121386600D01*
X186664600Y-121234200D01*
X186664600Y-121843800D01*
X186512200Y-121691400D01*
X184937400Y-121691400D01*
X184937400Y-122631200D01*
X185089800Y-122783600D01*
X185933743Y-122783600D01*
X186176257Y-122783600D01*
X186400311Y-122690794D01*
X186571794Y-122519311D01*
X186664600Y-122295257D01*
X186664600Y-124713700D01*
X184632600Y-124713700D01*
X184632600Y-122631200D01*
X184632600Y-121691400D01*
X184632600Y-121386600D01*
X184632600Y-120446800D01*
X184480200Y-120294400D01*
X183636257Y-120294400D01*
X183393743Y-120294400D01*
X183169689Y-120387206D01*
X182998206Y-120558689D01*
X182905400Y-120782743D01*
X182905400Y-121234200D01*
X183057800Y-121386600D01*
X184632600Y-121386600D01*
X184632600Y-121691400D01*
X183057800Y-121691400D01*
X182905400Y-121843800D01*
X182905400Y-122295257D01*
X182998206Y-122519311D01*
X183169689Y-122690794D01*
X183393743Y-122783600D01*
X183636257Y-122783600D01*
X184480200Y-122783600D01*
X184632600Y-122631200D01*
X184632600Y-124713700D01*
X180314600Y-124713700D01*
X180314600Y-119247257D01*
X180314600Y-118795800D01*
X180314600Y-118186200D01*
X180314600Y-117734743D01*
X180221794Y-117510689D01*
X180050311Y-117339206D01*
X179826257Y-117246400D01*
X179583743Y-117246400D01*
X178739800Y-117246400D01*
X178587400Y-117398800D01*
X178587400Y-118338600D01*
X180162200Y-118338600D01*
X180314600Y-118186200D01*
X180314600Y-118795800D01*
X180162200Y-118643400D01*
X178587400Y-118643400D01*
X178587400Y-119583200D01*
X178739800Y-119735600D01*
X179583743Y-119735600D01*
X179826257Y-119735600D01*
X180050311Y-119642794D01*
X180221794Y-119471311D01*
X180314600Y-119247257D01*
X180314600Y-124713700D01*
X180067567Y-124713700D01*
X180067567Y-122174000D01*
X180067567Y-120904000D01*
X180041259Y-120768411D01*
X179962977Y-120649241D01*
X179844799Y-120569469D01*
X179705000Y-120541433D01*
X178993800Y-120541433D01*
X178993800Y-120446500D01*
X178951264Y-120232656D01*
X178830131Y-120051369D01*
X178648844Y-119930236D01*
X178435000Y-119887700D01*
X178068962Y-119887700D01*
X177916862Y-119735600D01*
X178130200Y-119735600D01*
X178282600Y-119583200D01*
X178282600Y-118643400D01*
X178262600Y-118643400D01*
X178262600Y-118338600D01*
X178282600Y-118338600D01*
X178282600Y-117398800D01*
X178130200Y-117246400D01*
X177286257Y-117246400D01*
X177043743Y-117246400D01*
X176819689Y-117339206D01*
X176648206Y-117510689D01*
X176555400Y-117734743D01*
X176555400Y-118186200D01*
X176707798Y-118338598D01*
X176555400Y-118338598D01*
X176555400Y-118374138D01*
X170027600Y-111846338D01*
X170027600Y-79279847D01*
X170027600Y-78200153D01*
X169942528Y-77772466D01*
X169700263Y-77409890D01*
X169337687Y-77167625D01*
X168910000Y-77082553D01*
X168482313Y-77167625D01*
X168119737Y-77409890D01*
X167877472Y-77772466D01*
X167792400Y-78200153D01*
X167792400Y-79279847D01*
X167877472Y-79707534D01*
X168119737Y-80070110D01*
X168482313Y-80312375D01*
X168910000Y-80397447D01*
X169337687Y-80312375D01*
X169700263Y-80070110D01*
X169942528Y-79707534D01*
X170027600Y-79279847D01*
X170027600Y-111846338D01*
X156768800Y-98587538D01*
X156768800Y-80467500D01*
X156768800Y-80224768D01*
X157000263Y-80070110D01*
X157242528Y-79707534D01*
X157327600Y-79279847D01*
X157327600Y-78200153D01*
X157242528Y-77772466D01*
X157108113Y-77571300D01*
X157851886Y-77571300D01*
X157717472Y-77772466D01*
X157632400Y-78200153D01*
X157632400Y-79279847D01*
X157717472Y-79707534D01*
X157959737Y-80070110D01*
X158322313Y-80312375D01*
X158750000Y-80397447D01*
X159177687Y-80312375D01*
X159540263Y-80070110D01*
X159782528Y-79707534D01*
X159867600Y-79279847D01*
X159867600Y-78200153D01*
X159782528Y-77772466D01*
X159648113Y-77571300D01*
X160391886Y-77571300D01*
X160257472Y-77772466D01*
X160172400Y-78200153D01*
X160172400Y-79279847D01*
X160257472Y-79707534D01*
X160499737Y-80070110D01*
X160862313Y-80312375D01*
X161290000Y-80397447D01*
X161717687Y-80312375D01*
X162080263Y-80070110D01*
X162322528Y-79707534D01*
X162407600Y-79279847D01*
X162407600Y-78200153D01*
X162322528Y-77772466D01*
X162188113Y-77571300D01*
X165471886Y-77571300D01*
X165337472Y-77772466D01*
X165252400Y-78200153D01*
X165252400Y-79279847D01*
X165337472Y-79707534D01*
X165579737Y-80070110D01*
X165942313Y-80312375D01*
X166370000Y-80397447D01*
X166797687Y-80312375D01*
X167160263Y-80070110D01*
X167402528Y-79707534D01*
X167487600Y-79279847D01*
X167487600Y-78200153D01*
X167402528Y-77772466D01*
X167160263Y-77409890D01*
X166928800Y-77255231D01*
X166928800Y-77012500D01*
X166886264Y-76798656D01*
X166765131Y-76617369D01*
X166583844Y-76496236D01*
X166370000Y-76453700D01*
X155658600Y-76453700D01*
X155444757Y-76496235D01*
X155263469Y-76617368D01*
X154525969Y-77354869D01*
X154474734Y-77431547D01*
X154474733Y-77431547D01*
X154460263Y-77409890D01*
X154097687Y-77167625D01*
X153670000Y-77082553D01*
X153242313Y-77167625D01*
X152879737Y-77409890D01*
X152637472Y-77772466D01*
X152552400Y-78200153D01*
X152552400Y-79279847D01*
X152637472Y-79707534D01*
X152771886Y-79908700D01*
X152028113Y-79908700D01*
X152162528Y-79707534D01*
X152247600Y-79279847D01*
X152247600Y-78200153D01*
X152162528Y-77772466D01*
X151920263Y-77409890D01*
X151557687Y-77167625D01*
X151130000Y-77082553D01*
X150702313Y-77167625D01*
X150339737Y-77409890D01*
X150097472Y-77772466D01*
X150012400Y-78200153D01*
X150012400Y-79279847D01*
X150097472Y-79707534D01*
X150231886Y-79908700D01*
X149488113Y-79908700D01*
X149622528Y-79707534D01*
X149707600Y-79279847D01*
X149707600Y-78200153D01*
X149622528Y-77772466D01*
X149380263Y-77409890D01*
X149017687Y-77167625D01*
X148590000Y-77082553D01*
X148162313Y-77167625D01*
X147799737Y-77409890D01*
X147557472Y-77772466D01*
X147472400Y-78200153D01*
X147472400Y-79279847D01*
X147557472Y-79707534D01*
X147691886Y-79908700D01*
X146948113Y-79908700D01*
X147082528Y-79707534D01*
X147167600Y-79279847D01*
X147167600Y-78200153D01*
X147082528Y-77772466D01*
X146840263Y-77409890D01*
X146477687Y-77167625D01*
X146050000Y-77082553D01*
X145622313Y-77167625D01*
X145259737Y-77409890D01*
X145017472Y-77772466D01*
X144932400Y-78200153D01*
X144932400Y-79279847D01*
X145017472Y-79707534D01*
X145151886Y-79908700D01*
X144408113Y-79908700D01*
X144542528Y-79707534D01*
X144627600Y-79279847D01*
X144627600Y-78200153D01*
X144542528Y-77772466D01*
X144300263Y-77409890D01*
X143937687Y-77167625D01*
X143510000Y-77082553D01*
X143082313Y-77167625D01*
X142719737Y-77409890D01*
X142477472Y-77772466D01*
X142392400Y-78200153D01*
X142392400Y-79279847D01*
X142477472Y-79707534D01*
X142611886Y-79908700D01*
X140344113Y-79908700D01*
X140478528Y-79707534D01*
X140563600Y-79279847D01*
X140563600Y-78200153D01*
X140478528Y-77772466D01*
X140236263Y-77409890D01*
X139873687Y-77167625D01*
X139446000Y-77082553D01*
X139018313Y-77167625D01*
X138655737Y-77409890D01*
X138413472Y-77772466D01*
X138328400Y-78200153D01*
X138328400Y-79279847D01*
X138413472Y-79707534D01*
X138547886Y-79908700D01*
X137804113Y-79908700D01*
X137938528Y-79707534D01*
X138023600Y-79279847D01*
X138023600Y-78200153D01*
X137938528Y-77772466D01*
X137696263Y-77409890D01*
X137333687Y-77167625D01*
X136906000Y-77082553D01*
X136478313Y-77167625D01*
X136115737Y-77409890D01*
X135873472Y-77772466D01*
X135788400Y-78200153D01*
X135788400Y-79279847D01*
X135873472Y-79707534D01*
X136007886Y-79908700D01*
X135264113Y-79908700D01*
X135398528Y-79707534D01*
X135483600Y-79279847D01*
X135483600Y-78200153D01*
X135398528Y-77772466D01*
X135156263Y-77409890D01*
X134793687Y-77167625D01*
X134366000Y-77082553D01*
X133938313Y-77167625D01*
X133575737Y-77409890D01*
X133333472Y-77772466D01*
X133248400Y-78200153D01*
X133248400Y-79279847D01*
X133333472Y-79707534D01*
X133467886Y-79908700D01*
X132724113Y-79908700D01*
X132858528Y-79707534D01*
X132943600Y-79279847D01*
X132943600Y-78200153D01*
X132858528Y-77772466D01*
X132616263Y-77409890D01*
X132253687Y-77167625D01*
X131826000Y-77082553D01*
X131398313Y-77167625D01*
X131035737Y-77409890D01*
X130793472Y-77772466D01*
X130708400Y-78200153D01*
X130708400Y-79279847D01*
X130793472Y-79707534D01*
X131035737Y-80070110D01*
X131121693Y-80127543D01*
X130403600Y-80845636D01*
X130403600Y-79279847D01*
X130403600Y-78200153D01*
X130318528Y-77772466D01*
X130076263Y-77409890D01*
X129713687Y-77167625D01*
X129286000Y-77082553D01*
X128858313Y-77167625D01*
X128495737Y-77409890D01*
X128253472Y-77772466D01*
X128168400Y-78200153D01*
X128168400Y-79279847D01*
X128253472Y-79707534D01*
X128495737Y-80070110D01*
X128858313Y-80312375D01*
X129286000Y-80397447D01*
X129713687Y-80312375D01*
X130076263Y-80070110D01*
X130318528Y-79707534D01*
X130403600Y-79279847D01*
X130403600Y-80845636D01*
X127863600Y-83385636D01*
X127863600Y-79279847D01*
X127863600Y-78200153D01*
X127778528Y-77772466D01*
X127536263Y-77409890D01*
X127173687Y-77167625D01*
X126746000Y-77082553D01*
X126318313Y-77167625D01*
X125955737Y-77409890D01*
X125713472Y-77772466D01*
X125628400Y-78200153D01*
X125628400Y-79279847D01*
X125713472Y-79707534D01*
X125955737Y-80070110D01*
X126318313Y-80312375D01*
X126746000Y-80397447D01*
X127173687Y-80312375D01*
X127536263Y-80070110D01*
X127778528Y-79707534D01*
X127863600Y-79279847D01*
X127863600Y-83385636D01*
X125323600Y-85925636D01*
X125323600Y-79279847D01*
X125323600Y-78200153D01*
X125238528Y-77772466D01*
X124996263Y-77409890D01*
X124633687Y-77167625D01*
X124206000Y-77082553D01*
X123778313Y-77167625D01*
X123415737Y-77409890D01*
X123173472Y-77772466D01*
X123088400Y-78200153D01*
X123088400Y-79279847D01*
X123173472Y-79707534D01*
X123415737Y-80070110D01*
X123778313Y-80312375D01*
X124206000Y-80397447D01*
X124633687Y-80312375D01*
X124996263Y-80070110D01*
X125238528Y-79707534D01*
X125323600Y-79279847D01*
X125323600Y-85925636D01*
X122783600Y-88465636D01*
X122783600Y-79279847D01*
X122783600Y-78200153D01*
X122698528Y-77772466D01*
X122456263Y-77409890D01*
X122093687Y-77167625D01*
X121666000Y-77082553D01*
X121238313Y-77167625D01*
X120875737Y-77409890D01*
X120633472Y-77772466D01*
X120548400Y-78200153D01*
X120548400Y-79279847D01*
X120633472Y-79707534D01*
X120875737Y-80070110D01*
X121238313Y-80312375D01*
X121666000Y-80397447D01*
X122093687Y-80312375D01*
X122456263Y-80070110D01*
X122698528Y-79707534D01*
X122783600Y-79279847D01*
X122783600Y-88465636D01*
X120243600Y-91005636D01*
X120243600Y-79279847D01*
X120243600Y-78200153D01*
X120158528Y-77772466D01*
X119916263Y-77409890D01*
X119553687Y-77167625D01*
X119126000Y-77082553D01*
X118698313Y-77167625D01*
X118335737Y-77409890D01*
X118093472Y-77772466D01*
X118008400Y-78200153D01*
X118008400Y-79279847D01*
X118093472Y-79707534D01*
X118335737Y-80070110D01*
X118698313Y-80312375D01*
X119126000Y-80397447D01*
X119553687Y-80312375D01*
X119916263Y-80070110D01*
X120158528Y-79707534D01*
X120243600Y-79279847D01*
X120243600Y-91005636D01*
X117703600Y-93545636D01*
X117703600Y-79279847D01*
X117703600Y-78200153D01*
X117618528Y-77772466D01*
X117376263Y-77409890D01*
X117013687Y-77167625D01*
X116586000Y-77082553D01*
X116158313Y-77167625D01*
X115795737Y-77409890D01*
X115553472Y-77772466D01*
X115468400Y-78200153D01*
X115468400Y-79279847D01*
X115553472Y-79707534D01*
X115795737Y-80070110D01*
X116158313Y-80312375D01*
X116586000Y-80397447D01*
X117013687Y-80312375D01*
X117376263Y-80070110D01*
X117618528Y-79707534D01*
X117703600Y-79279847D01*
X117703600Y-93545636D01*
X115354503Y-95894733D01*
X115354503Y-78279736D01*
X115001425Y-77425223D01*
X114348216Y-76770873D01*
X113494320Y-76416304D01*
X112569736Y-76415497D01*
X111715223Y-76768575D01*
X111060873Y-77421784D01*
X110706304Y-78275680D01*
X110705497Y-79200264D01*
X111058575Y-80054777D01*
X111711784Y-80709127D01*
X112565680Y-81063696D01*
X113490264Y-81064503D01*
X114344777Y-80711425D01*
X114999127Y-80058216D01*
X115353696Y-79204320D01*
X115354503Y-78279736D01*
X115354503Y-95894733D01*
X108999993Y-102249244D01*
X108982528Y-102161442D01*
X108740263Y-101798866D01*
X108377687Y-101556601D01*
X107957395Y-101473000D01*
X108377687Y-101389399D01*
X108740263Y-101147134D01*
X108982528Y-100784558D01*
X109067600Y-100356871D01*
X109067600Y-99795129D01*
X108982528Y-99367442D01*
X108740263Y-99004866D01*
X108377687Y-98762601D01*
X107950000Y-98677529D01*
X107522313Y-98762601D01*
X107159737Y-99004866D01*
X106917472Y-99367442D01*
X106832400Y-99795129D01*
X106832400Y-100356871D01*
X106917472Y-100784558D01*
X107159737Y-101147134D01*
X107522313Y-101389399D01*
X107942604Y-101473000D01*
X107522313Y-101556601D01*
X107159737Y-101798866D01*
X106917472Y-102161442D01*
X106832400Y-102589129D01*
X106832400Y-103150871D01*
X106917472Y-103578558D01*
X107159737Y-103941134D01*
X107522313Y-104183399D01*
X107942604Y-104267000D01*
X107522313Y-104350601D01*
X107159737Y-104592866D01*
X106917472Y-104955442D01*
X106832400Y-105383129D01*
X106832400Y-105944871D01*
X106917472Y-106372558D01*
X107159737Y-106735134D01*
X107522313Y-106977399D01*
X107950000Y-107062471D01*
X108377687Y-106977399D01*
X108740263Y-106735134D01*
X108982528Y-106372558D01*
X109067600Y-105944871D01*
X109067600Y-105383129D01*
X108982528Y-104955442D01*
X108740263Y-104592866D01*
X108377687Y-104350601D01*
X107957395Y-104267000D01*
X108377687Y-104183399D01*
X108740263Y-103941134D01*
X108982528Y-103578558D01*
X109012316Y-103428800D01*
X109169500Y-103428800D01*
X109383343Y-103386264D01*
X109383344Y-103386264D01*
X109564631Y-103265131D01*
X131803462Y-81026300D01*
X153261237Y-81026300D01*
X116662537Y-117625000D01*
X106554471Y-117625000D01*
X106554471Y-102870000D01*
X106469399Y-102442313D01*
X106227134Y-102079737D01*
X105864558Y-101837472D01*
X105436871Y-101752400D01*
X104875129Y-101752400D01*
X104447442Y-101837472D01*
X104084866Y-102079737D01*
X103842601Y-102442313D01*
X103757529Y-102870000D01*
X103842601Y-103297687D01*
X104084866Y-103660263D01*
X104447442Y-103902528D01*
X104875129Y-103987600D01*
X105436871Y-103987600D01*
X105864558Y-103902528D01*
X106227134Y-103660263D01*
X106469399Y-103297687D01*
X106554471Y-102870000D01*
X106554471Y-117625000D01*
X105336200Y-117625000D01*
X105122357Y-117667535D01*
X104941069Y-117788669D01*
X102442305Y-120287433D01*
X102012328Y-120287433D01*
X102012328Y-107950000D01*
X102012328Y-97790000D01*
X101869252Y-97070708D01*
X101461806Y-96460922D01*
X100852020Y-96053476D01*
X100132728Y-95910400D01*
X97987272Y-95910400D01*
X97267980Y-96053476D01*
X96658194Y-96460922D01*
X96250748Y-97070708D01*
X96107672Y-97790000D01*
X96250748Y-98509292D01*
X96658194Y-99119078D01*
X97267980Y-99526524D01*
X97987272Y-99669600D01*
X100132728Y-99669600D01*
X100852020Y-99526524D01*
X101461806Y-99119078D01*
X101869252Y-98509292D01*
X102012328Y-97790000D01*
X102012328Y-107950000D01*
X101869252Y-107230708D01*
X101461806Y-106620922D01*
X100852020Y-106213476D01*
X100132728Y-106070400D01*
X97987272Y-106070400D01*
X97267980Y-106213476D01*
X96658194Y-106620922D01*
X96250748Y-107230708D01*
X96107672Y-107950000D01*
X96250748Y-108669292D01*
X96658194Y-109279078D01*
X97267980Y-109686524D01*
X97987272Y-109829600D01*
X100132728Y-109829600D01*
X100852020Y-109686524D01*
X101461806Y-109279078D01*
X101869252Y-108669292D01*
X102012328Y-107950000D01*
X102012328Y-120287433D01*
X100672900Y-120287433D01*
X100537311Y-120313741D01*
X100418141Y-120392023D01*
X100338369Y-120510201D01*
X100310333Y-120650000D01*
X100310333Y-123190000D01*
X100336641Y-123325589D01*
X100414923Y-123444759D01*
X100533101Y-123524531D01*
X100672900Y-123552567D01*
X102527100Y-123552567D01*
X102662689Y-123526259D01*
X102781859Y-123447977D01*
X102861631Y-123329799D01*
X102889667Y-123190000D01*
X102889667Y-122457466D01*
X102954940Y-122785615D01*
X103232994Y-123201753D01*
X103530400Y-123400472D01*
X103530400Y-124080196D01*
X103454948Y-124155648D01*
X103322803Y-124353416D01*
X103276400Y-124586700D01*
X103276400Y-124732433D01*
X103251000Y-124732433D01*
X103115411Y-124758741D01*
X102996241Y-124837023D01*
X102916469Y-124955201D01*
X102888433Y-125095000D01*
X102888433Y-127635000D01*
X102914741Y-127770589D01*
X102993023Y-127889759D01*
X103111201Y-127969531D01*
X103251000Y-127997567D01*
X104521000Y-127997567D01*
X104656589Y-127971259D01*
X104775759Y-127892977D01*
X104855531Y-127774799D01*
X104883567Y-127635000D01*
X104883567Y-125095000D01*
X104857259Y-124959411D01*
X104778977Y-124840241D01*
X104660799Y-124760469D01*
X104583591Y-124744985D01*
X104703197Y-124565984D01*
X104749599Y-124332700D01*
X104749600Y-124332700D01*
X104749600Y-123400472D01*
X105047006Y-123201753D01*
X105277535Y-122856741D01*
X105318595Y-122991769D01*
X105701152Y-123457274D01*
X106232730Y-123740947D01*
X106290269Y-123749357D01*
X106527600Y-123638785D01*
X106527600Y-122072400D01*
X106507600Y-122072400D01*
X106507600Y-121767600D01*
X106527600Y-121767600D01*
X106527600Y-120201215D01*
X106290269Y-120090643D01*
X106232730Y-120099053D01*
X105701152Y-120382726D01*
X105318595Y-120848231D01*
X105277535Y-120983258D01*
X105047006Y-120638247D01*
X104630868Y-120360193D01*
X104140000Y-120262553D01*
X104024792Y-120285469D01*
X105567662Y-118742600D01*
X116894000Y-118742600D01*
X117107843Y-118700064D01*
X117107844Y-118700064D01*
X117289131Y-118578931D01*
X155316231Y-80551831D01*
X155316232Y-80551831D01*
X155437364Y-80370544D01*
X155437365Y-80370543D01*
X155479900Y-80156700D01*
X155479900Y-80110309D01*
X155651200Y-80224768D01*
X155651200Y-80467500D01*
X155651200Y-98819000D01*
X155693736Y-99032844D01*
X155814869Y-99214131D01*
X177145880Y-120545142D01*
X177029411Y-120567741D01*
X176910241Y-120646023D01*
X176830469Y-120764201D01*
X176802433Y-120904000D01*
X176802433Y-122174000D01*
X176828741Y-122309589D01*
X176907023Y-122428759D01*
X177025201Y-122508531D01*
X177133489Y-122530247D01*
X177050504Y-122613088D01*
X176928439Y-122907052D01*
X176928161Y-123225352D01*
X177049713Y-123519528D01*
X177274588Y-123744796D01*
X177568552Y-123866861D01*
X177886852Y-123867139D01*
X178181028Y-123745587D01*
X178406296Y-123520712D01*
X178528361Y-123226748D01*
X178528409Y-123171719D01*
X178648844Y-123147764D01*
X178830131Y-123026631D01*
X178951264Y-122845344D01*
X178993800Y-122631500D01*
X178993800Y-122536567D01*
X179705000Y-122536567D01*
X179840589Y-122510259D01*
X179959759Y-122431977D01*
X180039531Y-122313799D01*
X180067567Y-122174000D01*
X180067567Y-124713700D01*
X143510000Y-124713700D01*
X143296156Y-124756236D01*
X143114869Y-124877369D01*
X142993736Y-125058656D01*
X142951200Y-125272500D01*
X142951200Y-125515231D01*
X142719737Y-125669890D01*
X142477472Y-126032466D01*
X142392400Y-126460153D01*
X142392400Y-127539847D01*
X142477472Y-127967534D01*
X142719737Y-128330110D01*
X143082313Y-128572375D01*
X143510000Y-128657447D01*
X143937687Y-128572375D01*
X144300263Y-128330110D01*
X144542528Y-127967534D01*
X144627600Y-127539847D01*
X144627600Y-126460153D01*
X144542528Y-126032466D01*
X144408113Y-125831300D01*
X147691886Y-125831300D01*
X147557472Y-126032466D01*
X147472400Y-126460153D01*
X147472400Y-127539847D01*
X147557472Y-127967534D01*
X147799737Y-128330110D01*
X148162313Y-128572375D01*
X148590000Y-128657447D01*
X149017687Y-128572375D01*
X149380263Y-128330110D01*
X149622528Y-127967534D01*
X149707600Y-127539847D01*
X149707600Y-126460153D01*
X149622528Y-126032466D01*
X149488113Y-125831300D01*
X150231886Y-125831300D01*
X150097472Y-126032466D01*
X150012400Y-126460153D01*
X150012400Y-127539847D01*
X150097472Y-127967534D01*
X150339737Y-128330110D01*
X150702313Y-128572375D01*
X151130000Y-128657447D01*
X151557687Y-128572375D01*
X151920263Y-128330110D01*
X152162528Y-127967534D01*
X152247600Y-127539847D01*
X152247600Y-126460153D01*
X152162528Y-126032466D01*
X152028113Y-125831300D01*
X152771886Y-125831300D01*
X152637472Y-126032466D01*
X152552400Y-126460153D01*
X152552400Y-127539847D01*
X152637472Y-127967534D01*
X152879737Y-128330110D01*
X153242313Y-128572375D01*
X153670000Y-128657447D01*
X154097687Y-128572375D01*
X154460263Y-128330110D01*
X154702528Y-127967534D01*
X154787600Y-127539847D01*
X154787600Y-126460153D01*
X154702528Y-126032466D01*
X154568113Y-125831300D01*
X155311886Y-125831300D01*
X155177472Y-126032466D01*
X155092400Y-126460153D01*
X155092400Y-127539847D01*
X155177472Y-127967534D01*
X155419737Y-128330110D01*
X155782313Y-128572375D01*
X156210000Y-128657447D01*
X156637687Y-128572375D01*
X157000263Y-128330110D01*
X157242528Y-127967534D01*
X157327600Y-127539847D01*
X157327600Y-126460153D01*
X157242528Y-126032466D01*
X157108113Y-125831300D01*
X157851886Y-125831300D01*
X157717472Y-126032466D01*
X157632400Y-126460153D01*
X157632400Y-127539847D01*
X157717472Y-127967534D01*
X157959737Y-128330110D01*
X158322313Y-128572375D01*
X158750000Y-128657447D01*
X159177687Y-128572375D01*
X159540263Y-128330110D01*
X159782528Y-127967534D01*
X159867600Y-127539847D01*
X159867600Y-126460153D01*
X159782528Y-126032466D01*
X159648113Y-125831300D01*
X160391886Y-125831300D01*
X160257472Y-126032466D01*
X160172400Y-126460153D01*
X160172400Y-127539847D01*
X160257472Y-127967534D01*
X160499737Y-128330110D01*
X160862313Y-128572375D01*
X161290000Y-128657447D01*
X161717687Y-128572375D01*
X162080263Y-128330110D01*
X162322528Y-127967534D01*
X162407600Y-127539847D01*
X162407600Y-126460153D01*
X162322528Y-126032466D01*
X162188113Y-125831300D01*
X162931886Y-125831300D01*
X162797472Y-126032466D01*
X162712400Y-126460153D01*
X162712400Y-127539847D01*
X162797472Y-127967534D01*
X163039737Y-128330110D01*
X163402313Y-128572375D01*
X163830000Y-128657447D01*
X164257687Y-128572375D01*
X164620263Y-128330110D01*
X164862528Y-127967534D01*
X164947600Y-127539847D01*
X164947600Y-126460153D01*
X164862528Y-126032466D01*
X164728113Y-125831300D01*
X165471886Y-125831300D01*
X165337472Y-126032466D01*
X165252400Y-126460153D01*
X165252400Y-127539847D01*
X165337472Y-127967534D01*
X165579737Y-128330110D01*
X165942313Y-128572375D01*
X166370000Y-128657447D01*
X166797687Y-128572375D01*
X167160263Y-128330110D01*
X167402528Y-127967534D01*
X167487600Y-127539847D01*
X167487600Y-126460153D01*
X167402528Y-126032466D01*
X167268113Y-125831300D01*
X170551886Y-125831300D01*
X170417472Y-126032466D01*
X170332400Y-126460153D01*
X170332400Y-127539847D01*
X170417472Y-127967534D01*
X170659737Y-128330110D01*
X171022313Y-128572375D01*
X171450000Y-128657447D01*
X171877687Y-128572375D01*
X172240263Y-128330110D01*
X172482528Y-127967534D01*
X172567600Y-127539847D01*
X172567600Y-126460153D01*
X172482528Y-126032466D01*
X172348113Y-125831300D01*
X173091886Y-125831300D01*
X172957472Y-126032466D01*
X172872400Y-126460153D01*
X172872400Y-127539847D01*
X172957472Y-127967534D01*
X173199737Y-128330110D01*
X173562313Y-128572375D01*
X173990000Y-128657447D01*
X174417687Y-128572375D01*
X174780263Y-128330110D01*
X175022528Y-127967534D01*
X175107600Y-127539847D01*
X175107600Y-126460153D01*
X175022528Y-126032466D01*
X174888113Y-125831300D01*
X175631886Y-125831300D01*
X175497472Y-126032466D01*
X175412400Y-126460153D01*
X175412400Y-127539847D01*
X175497472Y-127967534D01*
X175739737Y-128330110D01*
X176102313Y-128572375D01*
X176530000Y-128657447D01*
X176957687Y-128572375D01*
X177320263Y-128330110D01*
X177562528Y-127967534D01*
X177647600Y-127539847D01*
X177647600Y-126460153D01*
X177562528Y-126032466D01*
X177428113Y-125831300D01*
X178171886Y-125831300D01*
X178037472Y-126032466D01*
X177952400Y-126460153D01*
X177952400Y-127539847D01*
X178037472Y-127967534D01*
X178279737Y-128330110D01*
X178642313Y-128572375D01*
X179070000Y-128657447D01*
X179497687Y-128572375D01*
X179860263Y-128330110D01*
X180102528Y-127967534D01*
X180187600Y-127539847D01*
X180187600Y-126460153D01*
X180102528Y-126032466D01*
X179968113Y-125831300D01*
X180711886Y-125831300D01*
X180577472Y-126032466D01*
X180492400Y-126460153D01*
X180492400Y-127539847D01*
X180577472Y-127967534D01*
X180819737Y-128330110D01*
X181182313Y-128572375D01*
X181610000Y-128657447D01*
X182037687Y-128572375D01*
X182400263Y-128330110D01*
X182642528Y-127967534D01*
X182727600Y-127539847D01*
X182727600Y-126460153D01*
X182642528Y-126032466D01*
X182508113Y-125831300D01*
X183251886Y-125831300D01*
X183117472Y-126032466D01*
X183032400Y-126460153D01*
X183032400Y-127539847D01*
X183117472Y-127967534D01*
X183359737Y-128330110D01*
X183722313Y-128572375D01*
X184150000Y-128657447D01*
X184577687Y-128572375D01*
X184940263Y-128330110D01*
X185182528Y-127967534D01*
X185267600Y-127539847D01*
X185267600Y-126460153D01*
X185182528Y-126032466D01*
X185048113Y-125831300D01*
X185791886Y-125831300D01*
X185657472Y-126032466D01*
X185572400Y-126460153D01*
X185572400Y-127539847D01*
X185657472Y-127967534D01*
X185899737Y-128330110D01*
X186262313Y-128572375D01*
X186690000Y-128657447D01*
X187117687Y-128572375D01*
X187480263Y-128330110D01*
X187722528Y-127967534D01*
X187807600Y-127539847D01*
X187807600Y-126460153D01*
X187722528Y-126032466D01*
X187588113Y-125831300D01*
X187656300Y-125831300D01*
X187870143Y-125788764D01*
X187870144Y-125788764D01*
X188051431Y-125667631D01*
X189224362Y-124494700D01*
X196478600Y-124494700D01*
X196692443Y-124452164D01*
X196692444Y-124452164D01*
X196873731Y-124331031D01*
X202148231Y-119056532D01*
X202148231Y-119056531D01*
X202237587Y-118922800D01*
X202237588Y-118922800D01*
X203377500Y-118922800D01*
X203472433Y-118922800D01*
X203472433Y-118999000D01*
X203498741Y-119134589D01*
X203577023Y-119253759D01*
X203695201Y-119333531D01*
X203835000Y-119361567D01*
X206375000Y-119361567D01*
X206510589Y-119335259D01*
X206629759Y-119256977D01*
X206709531Y-119138799D01*
X206737567Y-118999000D01*
X206737567Y-117729000D01*
X206711259Y-117593411D01*
X206632977Y-117474241D01*
X206514799Y-117394469D01*
X206375000Y-117366433D01*
X203835000Y-117366433D01*
X203699411Y-117392741D01*
X203580241Y-117471023D01*
X203500469Y-117589201D01*
X203472433Y-117729000D01*
X203472433Y-117805200D01*
X203377500Y-117805200D01*
X202207988Y-117805200D01*
X202147631Y-117714869D01*
X201966344Y-117593736D01*
X201752500Y-117551200D01*
X201509768Y-117551200D01*
X201355110Y-117319737D01*
X200992534Y-117077472D01*
X200564847Y-116992400D01*
X199485153Y-116992400D01*
X199459627Y-116997477D01*
X199769504Y-116687600D01*
X200564847Y-116687600D01*
X200992534Y-116602528D01*
X201355110Y-116360263D01*
X201475824Y-116179600D01*
X203072700Y-116179600D01*
X203305984Y-116133197D01*
X203484624Y-116013832D01*
X203498741Y-116086589D01*
X203577023Y-116205759D01*
X203695201Y-116285531D01*
X203835000Y-116313567D01*
X206375000Y-116313567D01*
X206510589Y-116287259D01*
X206629759Y-116208977D01*
X206709531Y-116090799D01*
X206737567Y-115951000D01*
X206737567Y-114681000D01*
X206711259Y-114545411D01*
X206632977Y-114426241D01*
X206514799Y-114346469D01*
X206375000Y-114318433D01*
X204259900Y-114318433D01*
X204259900Y-114195300D01*
X204213497Y-113962016D01*
X204081352Y-113764248D01*
X204081352Y-113764247D01*
X204002800Y-113685695D01*
X204002800Y-108693409D01*
X204123789Y-108874483D01*
X204815979Y-109336989D01*
X205632472Y-109499400D01*
X207269928Y-109499400D01*
X208086421Y-109336989D01*
X208778611Y-108874483D01*
X209241117Y-108182293D01*
X209403528Y-107365800D01*
X209241117Y-106549307D01*
X208778611Y-105857117D01*
X208086421Y-105394611D01*
X207269928Y-105232200D01*
X205632472Y-105232200D01*
X204815979Y-105394611D01*
X204123789Y-105857117D01*
X204002800Y-106038190D01*
X204002800Y-105189904D01*
X204222907Y-104969796D01*
X204392848Y-105003600D01*
X205512352Y-105003600D01*
X206328845Y-104841189D01*
X207021035Y-104378683D01*
X207452691Y-103732662D01*
X207708650Y-103989067D01*
X208193924Y-104190570D01*
X208719371Y-104191029D01*
X209204996Y-103990373D01*
X209576867Y-103619150D01*
X209778370Y-103133876D01*
X209778829Y-102608429D01*
X209578173Y-102122804D01*
X209206950Y-101750933D01*
X208721676Y-101549430D01*
X208196229Y-101548971D01*
X207710604Y-101749627D01*
X207452592Y-102007189D01*
X207021035Y-101361317D01*
X206328845Y-100898811D01*
X205512352Y-100736400D01*
X204392848Y-100736400D01*
X204222907Y-100770203D01*
X203982200Y-100529496D01*
X203982200Y-99670979D01*
X204123789Y-99882883D01*
X204815979Y-100345389D01*
X205632472Y-100507800D01*
X207269928Y-100507800D01*
X208086421Y-100345389D01*
X208778611Y-99882883D01*
X209241117Y-99190693D01*
X209403528Y-98374200D01*
X209241117Y-97557707D01*
X208778611Y-96865517D01*
X208086421Y-96403011D01*
X207269928Y-96240600D01*
X205632472Y-96240600D01*
X204815979Y-96403011D01*
X204123789Y-96865517D01*
X203982200Y-97077420D01*
X203982200Y-95583904D01*
X205246165Y-94319938D01*
X205359000Y-94342567D01*
X206629000Y-94342567D01*
X206764589Y-94316259D01*
X206883759Y-94237977D01*
X206963531Y-94119799D01*
X206991567Y-93980000D01*
X206991567Y-91440000D01*
X206965259Y-91304411D01*
X206886977Y-91185241D01*
X206768799Y-91105469D01*
X206629000Y-91077433D01*
X205460300Y-91077433D01*
X205460300Y-82168400D01*
X205413897Y-81935117D01*
X205413897Y-81935116D01*
X205360967Y-81855901D01*
X205281753Y-81737348D01*
X203123352Y-79578948D01*
X202925584Y-79446803D01*
X202692300Y-79400400D01*
X202546567Y-79400400D01*
X202546567Y-78740000D01*
X202520259Y-78604411D01*
X202441977Y-78485241D01*
X202323799Y-78405469D01*
X202184000Y-78377433D01*
X200914000Y-78377433D01*
X200778411Y-78403741D01*
X200659241Y-78482023D01*
X200579469Y-78600201D01*
X200551433Y-78740000D01*
X200551433Y-81280000D01*
X200577741Y-81415589D01*
X200656023Y-81534759D01*
X200774201Y-81614531D01*
X200914000Y-81642567D01*
X202184000Y-81642567D01*
X202319589Y-81616259D01*
X202438759Y-81537977D01*
X202518531Y-81419799D01*
X202546567Y-81280000D01*
X202546567Y-80726371D01*
X204241100Y-82420904D01*
X204241100Y-92710000D01*
X204241100Y-93600796D01*
X203943567Y-93898329D01*
X203943567Y-91440000D01*
X203917259Y-91304411D01*
X203838977Y-91185241D01*
X203720799Y-91105469D01*
X203581000Y-91077433D01*
X202311000Y-91077433D01*
X202175411Y-91103741D01*
X202056241Y-91182023D01*
X201976469Y-91300201D01*
X201948433Y-91440000D01*
X201948433Y-91846400D01*
X201548700Y-91846400D01*
X201218215Y-91912138D01*
X200938043Y-92099342D01*
X198855543Y-94181843D01*
X198668338Y-94462015D01*
X198602600Y-94792500D01*
X198602600Y-100089452D01*
X198552505Y-100099417D01*
X197777912Y-100616984D01*
X197260345Y-101391577D01*
X197078600Y-102305272D01*
X197078600Y-103434728D01*
X197260345Y-104348423D01*
X197777912Y-105123016D01*
X198552505Y-105640583D01*
X198602600Y-105650547D01*
X198602600Y-106172300D01*
X198668338Y-106502785D01*
X198855543Y-106782957D01*
X199161400Y-107088814D01*
X199161400Y-111976798D01*
X199057466Y-111997472D01*
X198694890Y-112239737D01*
X198452625Y-112602313D01*
X198367553Y-113030000D01*
X198452625Y-113457687D01*
X198694890Y-113820263D01*
X199057466Y-114062528D01*
X199485153Y-114147600D01*
X200564847Y-114147600D01*
X200992534Y-114062528D01*
X201355110Y-113820263D01*
X201597375Y-113457687D01*
X201682447Y-113030000D01*
X201597375Y-112602313D01*
X201355110Y-112239737D01*
X200992534Y-111997472D01*
X200888600Y-111976798D01*
X200888600Y-106731100D01*
X200822862Y-106400615D01*
X200635658Y-106120443D01*
X200329800Y-105814585D01*
X200329800Y-105650547D01*
X200379895Y-105640583D01*
X201154488Y-105123016D01*
X201672055Y-104348423D01*
X201853800Y-103434728D01*
X201853800Y-102305272D01*
X201672055Y-101391577D01*
X201154488Y-100616984D01*
X200379895Y-100099417D01*
X200329800Y-100089452D01*
X200329800Y-95150214D01*
X201906414Y-93573600D01*
X201948433Y-93573600D01*
X201948433Y-93980000D01*
X201974741Y-94115589D01*
X202053023Y-94234759D01*
X202171201Y-94314531D01*
X202311000Y-94342567D01*
X203499329Y-94342567D01*
X202941548Y-94900348D01*
X202809403Y-95098116D01*
X202763000Y-95331400D01*
X202763000Y-100782000D01*
X202809403Y-101015284D01*
X202941548Y-101213052D01*
X203007442Y-101278946D01*
X202884165Y-101361317D01*
X202421659Y-102053507D01*
X202259248Y-102870000D01*
X202421659Y-103686493D01*
X202884165Y-104378683D01*
X203007442Y-104461053D01*
X202962148Y-104506348D01*
X202830003Y-104704116D01*
X202783600Y-104937400D01*
X202783600Y-113938200D01*
X202830003Y-114171484D01*
X202906991Y-114286704D01*
X202895648Y-114298048D01*
X202763503Y-114495816D01*
X202717100Y-114729100D01*
X202717100Y-114960400D01*
X201475824Y-114960400D01*
X201355110Y-114779737D01*
X200992534Y-114537472D01*
X200564847Y-114452400D01*
X199485153Y-114452400D01*
X199057466Y-114537472D01*
X198694890Y-114779737D01*
X198452625Y-115142313D01*
X198367553Y-115570000D01*
X198452625Y-115997687D01*
X198565811Y-116167083D01*
X197249248Y-117483648D01*
X197117103Y-117681416D01*
X197070700Y-117914700D01*
X197070700Y-121123595D01*
X196475447Y-121718847D01*
X196475447Y-119380000D01*
X196475447Y-116840000D01*
X196475447Y-114300000D01*
X196475447Y-111760000D01*
X196475447Y-109220000D01*
X196475447Y-106680000D01*
X196475447Y-104140000D01*
X196475447Y-101600000D01*
X196475447Y-99060000D01*
X196475447Y-96520000D01*
X196475447Y-93980000D01*
X196475447Y-91440000D01*
X196475447Y-88900000D01*
X196475447Y-86360000D01*
X196390375Y-85932313D01*
X196148110Y-85569737D01*
X195785534Y-85327472D01*
X195357847Y-85242400D01*
X194278153Y-85242400D01*
X193850466Y-85327472D01*
X193487890Y-85569737D01*
X193245625Y-85932313D01*
X193160553Y-86360000D01*
X193245625Y-86787687D01*
X193487890Y-87150263D01*
X193850466Y-87392528D01*
X194278153Y-87477600D01*
X195357847Y-87477600D01*
X195785534Y-87392528D01*
X196148110Y-87150263D01*
X196390375Y-86787687D01*
X196475447Y-86360000D01*
X196475447Y-88900000D01*
X196390375Y-88472313D01*
X196148110Y-88109737D01*
X195785534Y-87867472D01*
X195357847Y-87782400D01*
X194278153Y-87782400D01*
X193850466Y-87867472D01*
X193487890Y-88109737D01*
X193245625Y-88472313D01*
X193160553Y-88900000D01*
X193245625Y-89327687D01*
X193487890Y-89690263D01*
X193850466Y-89932528D01*
X194278153Y-90017600D01*
X195357847Y-90017600D01*
X195785534Y-89932528D01*
X196148110Y-89690263D01*
X196390375Y-89327687D01*
X196475447Y-88900000D01*
X196475447Y-91440000D01*
X196390375Y-91012313D01*
X196148110Y-90649737D01*
X195785534Y-90407472D01*
X195357847Y-90322400D01*
X194278153Y-90322400D01*
X193850466Y-90407472D01*
X193487890Y-90649737D01*
X193245625Y-91012313D01*
X193160553Y-91440000D01*
X193245625Y-91867687D01*
X193487890Y-92230263D01*
X193850466Y-92472528D01*
X194278153Y-92557600D01*
X195357847Y-92557600D01*
X195785534Y-92472528D01*
X196148110Y-92230263D01*
X196390375Y-91867687D01*
X196475447Y-91440000D01*
X196475447Y-93980000D01*
X196390375Y-93552313D01*
X196148110Y-93189737D01*
X195785534Y-92947472D01*
X195357847Y-92862400D01*
X194278153Y-92862400D01*
X193850466Y-92947472D01*
X193487890Y-93189737D01*
X193245625Y-93552313D01*
X193160553Y-93980000D01*
X193245625Y-94407687D01*
X193487890Y-94770263D01*
X193850466Y-95012528D01*
X194278153Y-95097600D01*
X195357847Y-95097600D01*
X195785534Y-95012528D01*
X196148110Y-94770263D01*
X196390375Y-94407687D01*
X196475447Y-93980000D01*
X196475447Y-96520000D01*
X196390375Y-96092313D01*
X196148110Y-95729737D01*
X195785534Y-95487472D01*
X195357847Y-95402400D01*
X194278153Y-95402400D01*
X193850466Y-95487472D01*
X193487890Y-95729737D01*
X193245625Y-96092313D01*
X193160553Y-96520000D01*
X193245625Y-96947687D01*
X193487890Y-97310263D01*
X193850466Y-97552528D01*
X194278153Y-97637600D01*
X195357847Y-97637600D01*
X195785534Y-97552528D01*
X196148110Y-97310263D01*
X196390375Y-96947687D01*
X196475447Y-96520000D01*
X196475447Y-99060000D01*
X196390375Y-98632313D01*
X196148110Y-98269737D01*
X195785534Y-98027472D01*
X195357847Y-97942400D01*
X194278153Y-97942400D01*
X193850466Y-98027472D01*
X193487890Y-98269737D01*
X193245625Y-98632313D01*
X193160553Y-99060000D01*
X193245625Y-99487687D01*
X193487890Y-99850263D01*
X193850466Y-100092528D01*
X194278153Y-100177600D01*
X195357847Y-100177600D01*
X195785534Y-100092528D01*
X196148110Y-99850263D01*
X196390375Y-99487687D01*
X196475447Y-99060000D01*
X196475447Y-101600000D01*
X196390375Y-101172313D01*
X196148110Y-100809737D01*
X195785534Y-100567472D01*
X195357847Y-100482400D01*
X194278153Y-100482400D01*
X193850466Y-100567472D01*
X193487890Y-100809737D01*
X193245625Y-101172313D01*
X193160553Y-101600000D01*
X193245625Y-102027687D01*
X193487890Y-102390263D01*
X193850466Y-102632528D01*
X194278153Y-102717600D01*
X195357847Y-102717600D01*
X195785534Y-102632528D01*
X196148110Y-102390263D01*
X196390375Y-102027687D01*
X196475447Y-101600000D01*
X196475447Y-104140000D01*
X196390375Y-103712313D01*
X196148110Y-103349737D01*
X195785534Y-103107472D01*
X195357847Y-103022400D01*
X194278153Y-103022400D01*
X193850466Y-103107472D01*
X193487890Y-103349737D01*
X193245625Y-103712313D01*
X193160553Y-104140000D01*
X193245625Y-104567687D01*
X193487890Y-104930263D01*
X193850466Y-105172528D01*
X194278153Y-105257600D01*
X195357847Y-105257600D01*
X195785534Y-105172528D01*
X196148110Y-104930263D01*
X196390375Y-104567687D01*
X196475447Y-104140000D01*
X196475447Y-106680000D01*
X196390375Y-106252313D01*
X196148110Y-105889737D01*
X195785534Y-105647472D01*
X195357847Y-105562400D01*
X194278153Y-105562400D01*
X193850466Y-105647472D01*
X193487890Y-105889737D01*
X193245625Y-106252313D01*
X193160553Y-106680000D01*
X193245625Y-107107687D01*
X193487890Y-107470263D01*
X193850466Y-107712528D01*
X194278153Y-107797600D01*
X195357847Y-107797600D01*
X195785534Y-107712528D01*
X196148110Y-107470263D01*
X196390375Y-107107687D01*
X196475447Y-106680000D01*
X196475447Y-109220000D01*
X196390375Y-108792313D01*
X196148110Y-108429737D01*
X195785534Y-108187472D01*
X195357847Y-108102400D01*
X194278153Y-108102400D01*
X193850466Y-108187472D01*
X193487890Y-108429737D01*
X193245625Y-108792313D01*
X193160553Y-109220000D01*
X193245625Y-109647687D01*
X193487890Y-110010263D01*
X193850466Y-110252528D01*
X194278153Y-110337600D01*
X195357847Y-110337600D01*
X195785534Y-110252528D01*
X196148110Y-110010263D01*
X196390375Y-109647687D01*
X196475447Y-109220000D01*
X196475447Y-111760000D01*
X196390375Y-111332313D01*
X196148110Y-110969737D01*
X195785534Y-110727472D01*
X195357847Y-110642400D01*
X194278153Y-110642400D01*
X193850466Y-110727472D01*
X193487890Y-110969737D01*
X193245625Y-111332313D01*
X193160553Y-111760000D01*
X193245625Y-112187687D01*
X193487890Y-112550263D01*
X193850466Y-112792528D01*
X194278153Y-112877600D01*
X195357847Y-112877600D01*
X195785534Y-112792528D01*
X196148110Y-112550263D01*
X196390375Y-112187687D01*
X196475447Y-111760000D01*
X196475447Y-114300000D01*
X196390375Y-113872313D01*
X196148110Y-113509737D01*
X195785534Y-113267472D01*
X195357847Y-113182400D01*
X194278153Y-113182400D01*
X193850466Y-113267472D01*
X193487890Y-113509737D01*
X193245625Y-113872313D01*
X193160553Y-114300000D01*
X193245625Y-114727687D01*
X193487890Y-115090263D01*
X193850466Y-115332528D01*
X194278153Y-115417600D01*
X195357847Y-115417600D01*
X195785534Y-115332528D01*
X196148110Y-115090263D01*
X196390375Y-114727687D01*
X196475447Y-114300000D01*
X196475447Y-116840000D01*
X196390375Y-116412313D01*
X196148110Y-116049737D01*
X195785534Y-115807472D01*
X195357847Y-115722400D01*
X194278153Y-115722400D01*
X193850466Y-115807472D01*
X193487890Y-116049737D01*
X193245625Y-116412313D01*
X193160553Y-116840000D01*
X193245625Y-117267687D01*
X193487890Y-117630263D01*
X193850466Y-117872528D01*
X194278153Y-117957600D01*
X195357847Y-117957600D01*
X195785534Y-117872528D01*
X196148110Y-117630263D01*
X196390375Y-117267687D01*
X196475447Y-116840000D01*
X196475447Y-119380000D01*
X196390375Y-118952313D01*
X196148110Y-118589737D01*
X195785534Y-118347472D01*
X195357847Y-118262400D01*
X194278153Y-118262400D01*
X193850466Y-118347472D01*
X193487890Y-118589737D01*
X193245625Y-118952313D01*
X193160553Y-119380000D01*
X193245625Y-119807687D01*
X193487890Y-120170263D01*
X193850466Y-120412528D01*
X194278153Y-120497600D01*
X195357847Y-120497600D01*
X195785534Y-120412528D01*
X196148110Y-120170263D01*
X196390375Y-119807687D01*
X196475447Y-119380000D01*
X196475447Y-121718847D01*
X196442073Y-121752221D01*
X196390375Y-121492313D01*
X196148110Y-121129737D01*
X195785534Y-120887472D01*
X195357847Y-120802400D01*
X194278153Y-120802400D01*
X193850466Y-120887472D01*
X193487890Y-121129737D01*
X193245625Y-121492313D01*
X193160553Y-121920000D01*
X193245625Y-122347687D01*
X193424036Y-122614700D01*
X192655963Y-122614700D01*
X192834375Y-122347687D01*
X192919447Y-121920000D01*
X192919447Y-119380000D01*
X192919447Y-116840000D01*
X192919447Y-114300000D01*
X192919447Y-111760000D01*
X192919447Y-109220000D01*
X192919447Y-106680000D01*
X192919447Y-104140000D01*
X192919447Y-101600000D01*
X192919447Y-99060000D01*
X192919447Y-96520000D01*
X192919447Y-93980000D01*
X192919447Y-91440000D01*
X192919447Y-88900000D01*
X192834375Y-88472313D01*
X192592110Y-88109737D01*
X192229534Y-87867472D01*
X191801847Y-87782400D01*
X190722153Y-87782400D01*
X190294466Y-87867472D01*
X189931890Y-88109737D01*
X189689625Y-88472313D01*
X189604553Y-88900000D01*
X189689625Y-89327687D01*
X189931890Y-89690263D01*
X190294466Y-89932528D01*
X190722153Y-90017600D01*
X191801847Y-90017600D01*
X192229534Y-89932528D01*
X192592110Y-89690263D01*
X192834375Y-89327687D01*
X192919447Y-88900000D01*
X192919447Y-91440000D01*
X192834375Y-91012313D01*
X192592110Y-90649737D01*
X192229534Y-90407472D01*
X191801847Y-90322400D01*
X190722153Y-90322400D01*
X190294466Y-90407472D01*
X189931890Y-90649737D01*
X189689625Y-91012313D01*
X189604553Y-91440000D01*
X189689625Y-91867687D01*
X189931890Y-92230263D01*
X190294466Y-92472528D01*
X190722153Y-92557600D01*
X191801847Y-92557600D01*
X192229534Y-92472528D01*
X192592110Y-92230263D01*
X192834375Y-91867687D01*
X192919447Y-91440000D01*
X192919447Y-93980000D01*
X192834375Y-93552313D01*
X192592110Y-93189737D01*
X192229534Y-92947472D01*
X191801847Y-92862400D01*
X190722153Y-92862400D01*
X190294466Y-92947472D01*
X189931890Y-93189737D01*
X189689625Y-93552313D01*
X189604553Y-93980000D01*
X189689625Y-94407687D01*
X189931890Y-94770263D01*
X190294466Y-95012528D01*
X190722153Y-95097600D01*
X191801847Y-95097600D01*
X192229534Y-95012528D01*
X192592110Y-94770263D01*
X192834375Y-94407687D01*
X192919447Y-93980000D01*
X192919447Y-96520000D01*
X192834375Y-96092313D01*
X192592110Y-95729737D01*
X192229534Y-95487472D01*
X191801847Y-95402400D01*
X190722153Y-95402400D01*
X190294466Y-95487472D01*
X189931890Y-95729737D01*
X189689625Y-96092313D01*
X189604553Y-96520000D01*
X189689625Y-96947687D01*
X189931890Y-97310263D01*
X190294466Y-97552528D01*
X190722153Y-97637600D01*
X191801847Y-97637600D01*
X192229534Y-97552528D01*
X192592110Y-97310263D01*
X192834375Y-96947687D01*
X192919447Y-96520000D01*
X192919447Y-99060000D01*
X192834375Y-98632313D01*
X192592110Y-98269737D01*
X192229534Y-98027472D01*
X191801847Y-97942400D01*
X190722153Y-97942400D01*
X190294466Y-98027472D01*
X189931890Y-98269737D01*
X189689625Y-98632313D01*
X189604553Y-99060000D01*
X189689625Y-99487687D01*
X189931890Y-99850263D01*
X190294466Y-100092528D01*
X190722153Y-100177600D01*
X191801847Y-100177600D01*
X192229534Y-100092528D01*
X192592110Y-99850263D01*
X192834375Y-99487687D01*
X192919447Y-99060000D01*
X192919447Y-101600000D01*
X192834375Y-101172313D01*
X192592110Y-100809737D01*
X192229534Y-100567472D01*
X191801847Y-100482400D01*
X190722153Y-100482400D01*
X190294466Y-100567472D01*
X189931890Y-100809737D01*
X189689625Y-101172313D01*
X189604553Y-101600000D01*
X189689625Y-102027687D01*
X189931890Y-102390263D01*
X190294466Y-102632528D01*
X190722153Y-102717600D01*
X191801847Y-102717600D01*
X192229534Y-102632528D01*
X192592110Y-102390263D01*
X192834375Y-102027687D01*
X192919447Y-101600000D01*
X192919447Y-104140000D01*
X192834375Y-103712313D01*
X192592110Y-103349737D01*
X192229534Y-103107472D01*
X191801847Y-103022400D01*
X190722153Y-103022400D01*
X190294466Y-103107472D01*
X189931890Y-103349737D01*
X189689625Y-103712313D01*
X189604553Y-104140000D01*
X189689625Y-104567687D01*
X189931890Y-104930263D01*
X190294466Y-105172528D01*
X190722153Y-105257600D01*
X191801847Y-105257600D01*
X192229534Y-105172528D01*
X192592110Y-104930263D01*
X192834375Y-104567687D01*
X192919447Y-104140000D01*
X192919447Y-106680000D01*
X192834375Y-106252313D01*
X192592110Y-105889737D01*
X192229534Y-105647472D01*
X191801847Y-105562400D01*
X190722153Y-105562400D01*
X190294466Y-105647472D01*
X189931890Y-105889737D01*
X189689625Y-106252313D01*
X189604553Y-106680000D01*
X189689625Y-107107687D01*
X189931890Y-107470263D01*
X190294466Y-107712528D01*
X190722153Y-107797600D01*
X191801847Y-107797600D01*
X192229534Y-107712528D01*
X192592110Y-107470263D01*
X192834375Y-107107687D01*
X192919447Y-106680000D01*
X192919447Y-109220000D01*
X192834375Y-108792313D01*
X192592110Y-108429737D01*
X192229534Y-108187472D01*
X191801847Y-108102400D01*
X190722153Y-108102400D01*
X190294466Y-108187472D01*
X189931890Y-108429737D01*
X189689625Y-108792313D01*
X189604553Y-109220000D01*
X189689625Y-109647687D01*
X189931890Y-110010263D01*
X190294466Y-110252528D01*
X190722153Y-110337600D01*
X191801847Y-110337600D01*
X192229534Y-110252528D01*
X192592110Y-110010263D01*
X192834375Y-109647687D01*
X192919447Y-109220000D01*
X192919447Y-111760000D01*
X192834375Y-111332313D01*
X192592110Y-110969737D01*
X192229534Y-110727472D01*
X191801847Y-110642400D01*
X190722153Y-110642400D01*
X190294466Y-110727472D01*
X189931890Y-110969737D01*
X189689625Y-111332313D01*
X189604553Y-111760000D01*
X189689625Y-112187687D01*
X189931890Y-112550263D01*
X190294466Y-112792528D01*
X190722153Y-112877600D01*
X191801847Y-112877600D01*
X192229534Y-112792528D01*
X192592110Y-112550263D01*
X192834375Y-112187687D01*
X192919447Y-111760000D01*
X192919447Y-114300000D01*
X192834375Y-113872313D01*
X192592110Y-113509737D01*
X192229534Y-113267472D01*
X191801847Y-113182400D01*
X190722153Y-113182400D01*
X190294466Y-113267472D01*
X189931890Y-113509737D01*
X189689625Y-113872313D01*
X189604553Y-114300000D01*
X189689625Y-114727687D01*
X189931890Y-115090263D01*
X190294466Y-115332528D01*
X190722153Y-115417600D01*
X191801847Y-115417600D01*
X192229534Y-115332528D01*
X192592110Y-115090263D01*
X192834375Y-114727687D01*
X192919447Y-114300000D01*
X192919447Y-116840000D01*
X192834375Y-116412313D01*
X192592110Y-116049737D01*
X192229534Y-115807472D01*
X191801847Y-115722400D01*
X190722153Y-115722400D01*
X190294466Y-115807472D01*
X189931890Y-116049737D01*
X189689625Y-116412313D01*
X189604553Y-116840000D01*
X189689625Y-117267687D01*
X189931890Y-117630263D01*
X190294466Y-117872528D01*
X190722153Y-117957600D01*
X191801847Y-117957600D01*
X192229534Y-117872528D01*
X192592110Y-117630263D01*
X192834375Y-117267687D01*
X192919447Y-116840000D01*
X192919447Y-119380000D01*
X192834375Y-118952313D01*
X192592110Y-118589737D01*
X192229534Y-118347472D01*
X191801847Y-118262400D01*
X190722153Y-118262400D01*
X190294466Y-118347472D01*
X189931890Y-118589737D01*
X189689625Y-118952313D01*
X189604553Y-119380000D01*
X189689625Y-119807687D01*
X189931890Y-120170263D01*
X190294466Y-120412528D01*
X190722153Y-120497600D01*
X191801847Y-120497600D01*
X192229534Y-120412528D01*
X192592110Y-120170263D01*
X192834375Y-119807687D01*
X192919447Y-119380000D01*
X192919447Y-121920000D01*
X192834375Y-121492313D01*
X192592110Y-121129737D01*
X192229534Y-120887472D01*
X191801847Y-120802400D01*
X190722153Y-120802400D01*
X190294466Y-120887472D01*
X189931890Y-121129737D01*
X189689625Y-121492313D01*
X189627722Y-121803518D01*
X189316000Y-121491796D01*
X189316000Y-110982400D01*
X189269597Y-110749116D01*
X189137452Y-110551348D01*
X188299938Y-109713834D01*
X188322567Y-109601000D01*
X188322567Y-108331000D01*
X188296259Y-108195411D01*
X188217977Y-108076241D01*
X188099799Y-107996469D01*
X187960000Y-107968433D01*
X187692171Y-107968433D01*
X189026352Y-106634252D01*
X189158497Y-106436484D01*
X189204900Y-106203200D01*
X189204900Y-100330000D01*
X189158497Y-100096716D01*
X189026352Y-99898948D01*
X188828584Y-99766803D01*
X188595300Y-99720400D01*
X188377211Y-99720400D01*
X188357528Y-99621442D01*
X188115263Y-99258866D01*
X187934600Y-99138151D01*
X187934600Y-92403000D01*
X187888197Y-92169716D01*
X187756052Y-91971948D01*
X186537900Y-90753796D01*
X186537900Y-86995000D01*
X186491497Y-86761716D01*
X186359352Y-86563948D01*
X186161584Y-86431803D01*
X185928300Y-86385400D01*
X185630472Y-86385400D01*
X185431753Y-86087994D01*
X185015615Y-85809940D01*
X184759600Y-85759015D01*
X184759600Y-85559600D01*
X184713197Y-85326316D01*
X184581052Y-85128548D01*
X184579152Y-85126648D01*
X184420131Y-85020393D01*
X184420131Y-84942700D01*
X186310838Y-84942700D01*
X186802869Y-85434731D01*
X186984156Y-85555864D01*
X186984157Y-85555864D01*
X187198000Y-85598400D01*
X189912738Y-85598400D01*
X189689625Y-85932313D01*
X189604553Y-86360000D01*
X189689625Y-86787687D01*
X189931890Y-87150263D01*
X190294466Y-87392528D01*
X190722153Y-87477600D01*
X191801847Y-87477600D01*
X192229534Y-87392528D01*
X192592110Y-87150263D01*
X192834375Y-86787687D01*
X192919447Y-86360000D01*
X192834375Y-85932313D01*
X192687108Y-85711912D01*
X192712752Y-85722561D01*
X193031052Y-85722839D01*
X193325228Y-85601287D01*
X193550496Y-85376412D01*
X193672561Y-85082448D01*
X193672839Y-84764148D01*
X193655540Y-84722283D01*
X193850466Y-84852528D01*
X194278153Y-84937600D01*
X195357847Y-84937600D01*
X195785534Y-84852528D01*
X196148110Y-84610263D01*
X196390375Y-84247687D01*
X196475447Y-83820000D01*
X196475447Y-81280000D01*
X196390375Y-80852313D01*
X196148110Y-80489737D01*
X195785534Y-80247472D01*
X195357847Y-80162400D01*
X194278153Y-80162400D01*
X193850466Y-80247472D01*
X193487890Y-80489737D01*
X193245625Y-80852313D01*
X193160553Y-81280000D01*
X193245625Y-81707687D01*
X193487890Y-82070263D01*
X193850466Y-82312528D01*
X194278153Y-82397600D01*
X195357847Y-82397600D01*
X195785534Y-82312528D01*
X196148110Y-82070263D01*
X196390375Y-81707687D01*
X196475447Y-81280000D01*
X196475447Y-83820000D01*
X196390375Y-83392313D01*
X196148110Y-83029737D01*
X195785534Y-82787472D01*
X195357847Y-82702400D01*
X194278153Y-82702400D01*
X193850466Y-82787472D01*
X193487890Y-83029737D01*
X193245625Y-83392313D01*
X193160553Y-83820000D01*
X193237704Y-84207869D01*
X193032448Y-84122639D01*
X192859278Y-84122487D01*
X192919447Y-83820000D01*
X192834375Y-83392313D01*
X192592110Y-83029737D01*
X192229534Y-82787472D01*
X191801847Y-82702400D01*
X190722153Y-82702400D01*
X190294466Y-82787472D01*
X189931890Y-83029737D01*
X189689625Y-83392313D01*
X189604553Y-83820000D01*
X189689625Y-84247687D01*
X189845385Y-84480800D01*
X187429462Y-84480800D01*
X186937431Y-83988769D01*
X186756144Y-83867636D01*
X186542300Y-83825100D01*
X184420131Y-83825100D01*
X184420131Y-83718400D01*
X184410332Y-83667900D01*
X187111100Y-83667900D01*
X187324943Y-83625364D01*
X187324944Y-83625364D01*
X187506231Y-83504231D01*
X189625442Y-81385019D01*
X189689625Y-81707687D01*
X189931890Y-82070263D01*
X190294466Y-82312528D01*
X190722153Y-82397600D01*
X191801847Y-82397600D01*
X192229534Y-82312528D01*
X192592110Y-82070263D01*
X192834375Y-81707687D01*
X192919447Y-81280000D01*
X192834375Y-80852313D01*
X192592110Y-80489737D01*
X192234510Y-80250797D01*
X192286264Y-80173344D01*
X192328800Y-79959500D01*
X192328800Y-79716768D01*
X192560263Y-79562110D01*
X192802528Y-79199534D01*
X192887600Y-78771847D01*
X192887600Y-77692153D01*
X192802528Y-77264466D01*
X192668113Y-77063300D01*
X193411886Y-77063300D01*
X193277472Y-77264466D01*
X193192400Y-77692153D01*
X193192400Y-78771847D01*
X193277472Y-79199534D01*
X193519737Y-79562110D01*
X193882313Y-79804375D01*
X194310000Y-79889447D01*
X194737687Y-79804375D01*
X195100263Y-79562110D01*
X195342528Y-79199534D01*
X195427600Y-78771847D01*
X195427600Y-77863462D01*
X196849700Y-79285562D01*
X196849700Y-80010000D01*
X196892236Y-80223844D01*
X197013369Y-80405131D01*
X197194656Y-80526264D01*
X197408500Y-80568800D01*
X197503433Y-80568800D01*
X197503433Y-81280000D01*
X197529741Y-81415589D01*
X197608023Y-81534759D01*
X197726201Y-81614531D01*
X197866000Y-81642567D01*
X199136000Y-81642567D01*
X199271589Y-81616259D01*
X199390759Y-81537977D01*
X199470531Y-81419799D01*
X199498567Y-81280000D01*
X199498567Y-78740000D01*
X199472259Y-78604411D01*
X199393977Y-78485241D01*
X199275799Y-78405469D01*
X199136000Y-78377433D01*
X197866000Y-78377433D01*
X197730411Y-78403741D01*
X197620562Y-78475900D01*
X195254031Y-76109369D01*
X195072744Y-75988236D01*
X195051950Y-75984100D01*
X211035900Y-75984100D01*
X211035900Y-129755900D01*
X211035900Y-129755900D01*
G37*
X211035900Y-129755900D02*
X196634503Y-129755900D01*
X196634503Y-126539736D01*
X196281425Y-125685223D01*
X195628216Y-125030873D01*
X194774320Y-124676304D01*
X193849736Y-124675497D01*
X192995223Y-125028575D01*
X192340873Y-125681784D01*
X191986304Y-126535680D01*
X191985497Y-127460264D01*
X192338575Y-128314777D01*
X192991784Y-128969127D01*
X193845680Y-129323696D01*
X194770264Y-129324503D01*
X195624777Y-128971425D01*
X196279127Y-128318216D01*
X196633696Y-127464320D01*
X196634503Y-126539736D01*
X196634503Y-129755900D01*
X190347600Y-129755900D01*
X190347600Y-127539847D01*
X190347600Y-126460153D01*
X190262528Y-126032466D01*
X190020263Y-125669890D01*
X189657687Y-125427625D01*
X189230000Y-125342553D01*
X188802313Y-125427625D01*
X188439737Y-125669890D01*
X188197472Y-126032466D01*
X188112400Y-126460153D01*
X188112400Y-127539847D01*
X188197472Y-127967534D01*
X188439737Y-128330110D01*
X188802313Y-128572375D01*
X189230000Y-128657447D01*
X189657687Y-128572375D01*
X190020263Y-128330110D01*
X190262528Y-127967534D01*
X190347600Y-127539847D01*
X190347600Y-129755900D01*
X142087600Y-129755900D01*
X142087600Y-127539847D01*
X142087600Y-126460153D01*
X142002528Y-126032466D01*
X141760263Y-125669890D01*
X141397687Y-125427625D01*
X140970000Y-125342553D01*
X140542313Y-125427625D01*
X140179737Y-125669890D01*
X139937472Y-126032466D01*
X139852400Y-126460153D01*
X139852400Y-127539847D01*
X139937472Y-127967534D01*
X140179737Y-128330110D01*
X140542313Y-128572375D01*
X140970000Y-128657447D01*
X141397687Y-128572375D01*
X141760263Y-128330110D01*
X142002528Y-127967534D01*
X142087600Y-127539847D01*
X142087600Y-129755900D01*
X139547600Y-129755900D01*
X139547600Y-127539847D01*
X139547600Y-126460153D01*
X139462528Y-126032466D01*
X139220263Y-125669890D01*
X138857687Y-125427625D01*
X138430000Y-125342553D01*
X138002313Y-125427625D01*
X137639737Y-125669890D01*
X137397472Y-126032466D01*
X137312400Y-126460153D01*
X137312400Y-127539847D01*
X137397472Y-127967534D01*
X137639737Y-128330110D01*
X138002313Y-128572375D01*
X138430000Y-128657447D01*
X138857687Y-128572375D01*
X139220263Y-128330110D01*
X139462528Y-127967534D01*
X139547600Y-127539847D01*
X139547600Y-129755900D01*
X137261600Y-129755900D01*
X137261600Y-127660400D01*
X137261600Y-127152400D01*
X137261600Y-126847600D01*
X137261600Y-126339600D01*
X137098872Y-125826312D01*
X136752104Y-125414369D01*
X136253761Y-125169516D01*
X136042400Y-125282363D01*
X136042400Y-126847600D01*
X137261600Y-126847600D01*
X137261600Y-127152400D01*
X136042400Y-127152400D01*
X136042400Y-128717637D01*
X136253761Y-128830484D01*
X136752104Y-128585631D01*
X137098872Y-128173688D01*
X137261600Y-127660400D01*
X137261600Y-129755900D01*
X135737600Y-129755900D01*
X135737600Y-128717637D01*
X135737600Y-127152400D01*
X135737600Y-126847600D01*
X135737600Y-125282363D01*
X135526239Y-125169516D01*
X135027896Y-125414369D01*
X134681128Y-125826312D01*
X134518400Y-126339600D01*
X134518400Y-126847600D01*
X135737600Y-126847600D01*
X135737600Y-127152400D01*
X134518400Y-127152400D01*
X134518400Y-127660400D01*
X134681128Y-128173688D01*
X135027896Y-128585631D01*
X135526239Y-128830484D01*
X135737600Y-128717637D01*
X135737600Y-129755900D01*
X134467600Y-129755900D01*
X134467600Y-127539847D01*
X134467600Y-126460153D01*
X134382528Y-126032466D01*
X134140263Y-125669890D01*
X133777687Y-125427625D01*
X133350000Y-125342553D01*
X132922313Y-125427625D01*
X132559737Y-125669890D01*
X132317472Y-126032466D01*
X132232400Y-126460153D01*
X132232400Y-127539847D01*
X132317472Y-127967534D01*
X132559737Y-128330110D01*
X132922313Y-128572375D01*
X133350000Y-128657447D01*
X133777687Y-128572375D01*
X134140263Y-128330110D01*
X134382528Y-127967534D01*
X134467600Y-127539847D01*
X134467600Y-129755900D01*
X131927600Y-129755900D01*
X131927600Y-127539847D01*
X131927600Y-126460153D01*
X131842528Y-126032466D01*
X131600263Y-125669890D01*
X131237687Y-125427625D01*
X130810000Y-125342553D01*
X130382313Y-125427625D01*
X130019737Y-125669890D01*
X129777472Y-126032466D01*
X129692400Y-126460153D01*
X129692400Y-127539847D01*
X129777472Y-127967534D01*
X130019737Y-128330110D01*
X130382313Y-128572375D01*
X130810000Y-128657447D01*
X131237687Y-128572375D01*
X131600263Y-128330110D01*
X131842528Y-127967534D01*
X131927600Y-127539847D01*
X131927600Y-129755900D01*
X129387600Y-129755900D01*
X129387600Y-127539847D01*
X129387600Y-126460153D01*
X129302528Y-126032466D01*
X129060263Y-125669890D01*
X128697687Y-125427625D01*
X128270000Y-125342553D01*
X127842313Y-125427625D01*
X127479737Y-125669890D01*
X127237472Y-126032466D01*
X127152400Y-126460153D01*
X127152400Y-127539847D01*
X127237472Y-127967534D01*
X127479737Y-128330110D01*
X127842313Y-128572375D01*
X128270000Y-128657447D01*
X128697687Y-128572375D01*
X129060263Y-128330110D01*
X129302528Y-127967534D01*
X129387600Y-127539847D01*
X129387600Y-129755900D01*
X126847600Y-129755900D01*
X126847600Y-127539847D01*
X126847600Y-126460153D01*
X126762528Y-126032466D01*
X126520263Y-125669890D01*
X126157687Y-125427625D01*
X125730000Y-125342553D01*
X125302313Y-125427625D01*
X124939737Y-125669890D01*
X124697472Y-126032466D01*
X124612400Y-126460153D01*
X124612400Y-127539847D01*
X124697472Y-127967534D01*
X124939737Y-128330110D01*
X125302313Y-128572375D01*
X125730000Y-128657447D01*
X126157687Y-128572375D01*
X126520263Y-128330110D01*
X126762528Y-127967534D01*
X126847600Y-127539847D01*
X126847600Y-129755900D01*
X114084503Y-129755900D01*
X114084503Y-126539736D01*
X113731425Y-125685223D01*
X113078216Y-125030873D01*
X112224320Y-124676304D01*
X111299736Y-124675497D01*
X110445223Y-125028575D01*
X109790873Y-125681784D01*
X109436304Y-126535680D01*
X109435497Y-127460264D01*
X109788575Y-128314777D01*
X110441784Y-128969127D01*
X111295680Y-129323696D01*
X112220264Y-129324503D01*
X113074777Y-128971425D01*
X113729127Y-128318216D01*
X114083696Y-127464320D01*
X114084503Y-126539736D01*
X114084503Y-129755900D01*
X108216700Y-129755900D01*
X108216700Y-122415300D01*
X108216700Y-122072400D01*
X108216700Y-121767600D01*
X108216700Y-121424700D01*
X108041405Y-120848231D01*
X107658848Y-120382726D01*
X107127270Y-120099053D01*
X107069731Y-120090643D01*
X106832400Y-120201215D01*
X106832400Y-121767600D01*
X108216700Y-121767600D01*
X108216700Y-122072400D01*
X106832400Y-122072400D01*
X106832400Y-123638785D01*
X107069731Y-123749357D01*
X107127270Y-123740947D01*
X107658848Y-123457274D01*
X108041405Y-122991769D01*
X108216700Y-122415300D01*
X108216700Y-129755900D01*
X108178600Y-129755900D01*
X108178600Y-127756257D01*
X108178600Y-127513743D01*
X108178600Y-126669800D01*
X108178600Y-126060200D01*
X108178600Y-125216257D01*
X108178600Y-124973743D01*
X108085794Y-124749689D01*
X107914311Y-124578206D01*
X107690257Y-124485400D01*
X107238800Y-124485400D01*
X107086400Y-124637800D01*
X107086400Y-126212600D01*
X108026200Y-126212600D01*
X108178600Y-126060200D01*
X108178600Y-126669800D01*
X108026200Y-126517400D01*
X107086400Y-126517400D01*
X107086400Y-128092200D01*
X107238800Y-128244600D01*
X107690257Y-128244600D01*
X107914311Y-128151794D01*
X108085794Y-127980311D01*
X108178600Y-127756257D01*
X108178600Y-129755900D01*
X106781600Y-129755900D01*
X106781600Y-128092200D01*
X106781600Y-126517400D01*
X106781600Y-126212600D01*
X106781600Y-124637800D01*
X106629200Y-124485400D01*
X106177743Y-124485400D01*
X105953689Y-124578206D01*
X105782206Y-124749689D01*
X105689400Y-124973743D01*
X105689400Y-125216257D01*
X105689400Y-126060200D01*
X105841800Y-126212600D01*
X106781600Y-126212600D01*
X106781600Y-126517400D01*
X105841800Y-126517400D01*
X105689400Y-126669800D01*
X105689400Y-127513743D01*
X105689400Y-127756257D01*
X105782206Y-127980311D01*
X105953689Y-128151794D01*
X106177743Y-128244600D01*
X106629200Y-128244600D01*
X106781600Y-128092200D01*
X106781600Y-129755900D01*
X93764100Y-129755900D01*
X93764100Y-75984100D01*
X191576949Y-75984100D01*
X191556156Y-75988236D01*
X191374869Y-76109369D01*
X191253736Y-76290656D01*
X191211200Y-76504500D01*
X191211200Y-76747231D01*
X190979737Y-76901890D01*
X190737472Y-77264466D01*
X190652400Y-77692153D01*
X190652400Y-78771847D01*
X190737472Y-79199534D01*
X190871886Y-79400700D01*
X190260700Y-79400700D01*
X190196880Y-79413394D01*
X190283696Y-79204320D01*
X190284503Y-78279736D01*
X189931425Y-77425223D01*
X189278216Y-76770873D01*
X188424320Y-76416304D01*
X187499736Y-76415497D01*
X186645223Y-76768575D01*
X185990873Y-77421784D01*
X185636304Y-78275680D01*
X185635497Y-79200264D01*
X185988575Y-80054777D01*
X186641784Y-80709127D01*
X187495680Y-81063696D01*
X188365482Y-81064455D01*
X186879638Y-82550300D01*
X184420131Y-82550300D01*
X184420131Y-81320640D01*
X184397582Y-81204421D01*
X184388800Y-81191052D01*
X184388800Y-81094562D01*
X184545131Y-80938232D01*
X184545131Y-80938231D01*
X184605697Y-80847587D01*
X184666264Y-80756944D01*
X184666264Y-80756943D01*
X184708799Y-80543100D01*
X184708800Y-80543100D01*
X184708800Y-80224768D01*
X184940263Y-80070110D01*
X185182528Y-79707534D01*
X185267600Y-79279847D01*
X185267600Y-78200153D01*
X185182528Y-77772466D01*
X184940263Y-77409890D01*
X184577687Y-77167625D01*
X184150000Y-77082553D01*
X183722313Y-77167625D01*
X183359737Y-77409890D01*
X183117472Y-77772466D01*
X183032400Y-78200153D01*
X183032400Y-79279847D01*
X183117472Y-79707534D01*
X183359737Y-80070110D01*
X183591200Y-80224768D01*
X183591200Y-80311637D01*
X183434869Y-80467969D01*
X183313736Y-80649256D01*
X183271200Y-80863100D01*
X183271200Y-81032289D01*
X183159400Y-81009869D01*
X182600600Y-81009869D01*
X182488800Y-81031560D01*
X182488800Y-80863100D01*
X182446264Y-80649257D01*
X182446264Y-80649256D01*
X182385697Y-80558612D01*
X182325131Y-80467969D01*
X182325131Y-80467968D01*
X182168800Y-80311637D01*
X182168800Y-80224768D01*
X182400263Y-80070110D01*
X182642528Y-79707534D01*
X182727600Y-79279847D01*
X182727600Y-78200153D01*
X182642528Y-77772466D01*
X182400263Y-77409890D01*
X182037687Y-77167625D01*
X181610000Y-77082553D01*
X181182313Y-77167625D01*
X180819737Y-77409890D01*
X180577472Y-77772466D01*
X180492400Y-78200153D01*
X180492400Y-79279847D01*
X180577472Y-79707534D01*
X180819737Y-80070110D01*
X181051200Y-80224768D01*
X181051200Y-80543100D01*
X181093736Y-80756944D01*
X181214869Y-80938231D01*
X181371200Y-81094562D01*
X181371200Y-81189996D01*
X181363899Y-81200813D01*
X181339869Y-81320640D01*
X181339869Y-82550300D01*
X179340131Y-82550300D01*
X179340131Y-81320640D01*
X179317582Y-81204421D01*
X179308800Y-81191052D01*
X179308800Y-81094562D01*
X179465131Y-80938232D01*
X179465131Y-80938231D01*
X179525697Y-80847587D01*
X179586264Y-80756944D01*
X179586264Y-80756943D01*
X179628799Y-80543100D01*
X179628800Y-80543100D01*
X179628800Y-80224768D01*
X179860263Y-80070110D01*
X180102528Y-79707534D01*
X180187600Y-79279847D01*
X180187600Y-78200153D01*
X180102528Y-77772466D01*
X179860263Y-77409890D01*
X179497687Y-77167625D01*
X179070000Y-77082553D01*
X178642313Y-77167625D01*
X178279737Y-77409890D01*
X178037472Y-77772466D01*
X177952400Y-78200153D01*
X177952400Y-79279847D01*
X178037472Y-79707534D01*
X178279737Y-80070110D01*
X178511200Y-80224768D01*
X178511200Y-80311637D01*
X178354869Y-80467969D01*
X178233736Y-80649256D01*
X178191200Y-80863100D01*
X178191200Y-81032289D01*
X178079400Y-81009869D01*
X177520600Y-81009869D01*
X177408800Y-81031560D01*
X177408800Y-80863100D01*
X177366264Y-80649257D01*
X177366264Y-80649256D01*
X177245131Y-80467969D01*
X177036725Y-80259563D01*
X177320263Y-80070110D01*
X177562528Y-79707534D01*
X177647600Y-79279847D01*
X177647600Y-78200153D01*
X177562528Y-77772466D01*
X177320263Y-77409890D01*
X177088800Y-77255231D01*
X177088800Y-77012500D01*
X177046264Y-76798656D01*
X176925131Y-76617369D01*
X176743844Y-76496236D01*
X176530000Y-76453700D01*
X173455800Y-76453700D01*
X173241956Y-76496236D01*
X173151312Y-76556802D01*
X173060668Y-76617369D01*
X172324869Y-77353169D01*
X172263615Y-77444840D01*
X172240263Y-77409890D01*
X171877687Y-77167625D01*
X171450000Y-77082553D01*
X171022313Y-77167625D01*
X170659737Y-77409890D01*
X170417472Y-77772466D01*
X170332400Y-78200153D01*
X170332400Y-79279847D01*
X170417472Y-79707534D01*
X170659737Y-80070110D01*
X170835731Y-80187705D01*
X170597269Y-80426169D01*
X170476136Y-80607456D01*
X170433600Y-80821300D01*
X170433600Y-104586800D01*
X170476136Y-104800644D01*
X170597269Y-104981931D01*
X181515369Y-115900031D01*
X181696656Y-116021164D01*
X181696657Y-116021164D01*
X181910500Y-116063700D01*
X182648899Y-116063700D01*
X182767788Y-116182796D01*
X183061752Y-116304861D01*
X183231446Y-116305009D01*
X184226200Y-117299762D01*
X184226200Y-117493433D01*
X183515000Y-117493433D01*
X183379411Y-117519741D01*
X183260241Y-117598023D01*
X183180469Y-117716201D01*
X183152433Y-117856000D01*
X183152433Y-119126000D01*
X183178741Y-119261589D01*
X183257023Y-119380759D01*
X183375201Y-119460531D01*
X183515000Y-119488567D01*
X186055000Y-119488567D01*
X186190589Y-119462259D01*
X186309759Y-119383977D01*
X186389531Y-119265799D01*
X186417567Y-119126000D01*
X186417567Y-117856000D01*
X186391259Y-117720411D01*
X186312977Y-117601241D01*
X186194799Y-117521469D01*
X186055000Y-117493433D01*
X185343800Y-117493433D01*
X185343800Y-117068300D01*
X185301264Y-116854456D01*
X185180131Y-116673169D01*
X185180131Y-116673168D01*
X184021692Y-115514729D01*
X184021839Y-115346448D01*
X183900287Y-115052272D01*
X183675412Y-114827004D01*
X183381448Y-114704939D01*
X183063148Y-114704661D01*
X182768972Y-114826213D01*
X182648875Y-114946100D01*
X182141962Y-114946100D01*
X178661662Y-111465800D01*
X180418600Y-111465800D01*
X180651884Y-111419397D01*
X180849652Y-111287252D01*
X182041052Y-110095852D01*
X182173197Y-109898084D01*
X182219600Y-109664800D01*
X182219600Y-109512100D01*
X182295508Y-109512100D01*
X183039100Y-109364190D01*
X183365975Y-109145778D01*
X183464648Y-109293452D01*
X185241877Y-111070681D01*
X185165241Y-111121023D01*
X185085469Y-111239201D01*
X185057433Y-111379000D01*
X185057433Y-112649000D01*
X185083741Y-112784589D01*
X185162023Y-112903759D01*
X185280201Y-112983531D01*
X185420000Y-113011567D01*
X187960000Y-113011567D01*
X188095589Y-112985259D01*
X188096800Y-112984463D01*
X188096800Y-121744300D01*
X188143203Y-121977584D01*
X188275348Y-122175352D01*
X189477096Y-123377100D01*
X188992900Y-123377100D01*
X188779056Y-123419636D01*
X188597769Y-123540769D01*
X187424838Y-124713700D01*
X186664600Y-124713700D01*
X186664600Y-122295257D01*
X186664600Y-121843800D01*
X186664600Y-121234200D01*
X186664600Y-120782743D01*
X186571794Y-120558689D01*
X186400311Y-120387206D01*
X186176257Y-120294400D01*
X185933743Y-120294400D01*
X185089800Y-120294400D01*
X184937400Y-120446800D01*
X184937400Y-121386600D01*
X186512200Y-121386600D01*
X186664600Y-121234200D01*
X186664600Y-121843800D01*
X186512200Y-121691400D01*
X184937400Y-121691400D01*
X184937400Y-122631200D01*
X185089800Y-122783600D01*
X185933743Y-122783600D01*
X186176257Y-122783600D01*
X186400311Y-122690794D01*
X186571794Y-122519311D01*
X186664600Y-122295257D01*
X186664600Y-124713700D01*
X184632600Y-124713700D01*
X184632600Y-122631200D01*
X184632600Y-121691400D01*
X184632600Y-121386600D01*
X184632600Y-120446800D01*
X184480200Y-120294400D01*
X183636257Y-120294400D01*
X183393743Y-120294400D01*
X183169689Y-120387206D01*
X182998206Y-120558689D01*
X182905400Y-120782743D01*
X182905400Y-121234200D01*
X183057800Y-121386600D01*
X184632600Y-121386600D01*
X184632600Y-121691400D01*
X183057800Y-121691400D01*
X182905400Y-121843800D01*
X182905400Y-122295257D01*
X182998206Y-122519311D01*
X183169689Y-122690794D01*
X183393743Y-122783600D01*
X183636257Y-122783600D01*
X184480200Y-122783600D01*
X184632600Y-122631200D01*
X184632600Y-124713700D01*
X180314600Y-124713700D01*
X180314600Y-119247257D01*
X180314600Y-118795800D01*
X180314600Y-118186200D01*
X180314600Y-117734743D01*
X180221794Y-117510689D01*
X180050311Y-117339206D01*
X179826257Y-117246400D01*
X179583743Y-117246400D01*
X178739800Y-117246400D01*
X178587400Y-117398800D01*
X178587400Y-118338600D01*
X180162200Y-118338600D01*
X180314600Y-118186200D01*
X180314600Y-118795800D01*
X180162200Y-118643400D01*
X178587400Y-118643400D01*
X178587400Y-119583200D01*
X178739800Y-119735600D01*
X179583743Y-119735600D01*
X179826257Y-119735600D01*
X180050311Y-119642794D01*
X180221794Y-119471311D01*
X180314600Y-119247257D01*
X180314600Y-124713700D01*
X180067567Y-124713700D01*
X180067567Y-122174000D01*
X180067567Y-120904000D01*
X180041259Y-120768411D01*
X179962977Y-120649241D01*
X179844799Y-120569469D01*
X179705000Y-120541433D01*
X178993800Y-120541433D01*
X178993800Y-120446500D01*
X178951264Y-120232656D01*
X178830131Y-120051369D01*
X178648844Y-119930236D01*
X178435000Y-119887700D01*
X178068962Y-119887700D01*
X177916862Y-119735600D01*
X178130200Y-119735600D01*
X178282600Y-119583200D01*
X178282600Y-118643400D01*
X178262600Y-118643400D01*
X178262600Y-118338600D01*
X178282600Y-118338600D01*
X178282600Y-117398800D01*
X178130200Y-117246400D01*
X177286257Y-117246400D01*
X177043743Y-117246400D01*
X176819689Y-117339206D01*
X176648206Y-117510689D01*
X176555400Y-117734743D01*
X176555400Y-118186200D01*
X176707798Y-118338598D01*
X176555400Y-118338598D01*
X176555400Y-118374138D01*
X170027600Y-111846338D01*
X170027600Y-79279847D01*
X170027600Y-78200153D01*
X169942528Y-77772466D01*
X169700263Y-77409890D01*
X169337687Y-77167625D01*
X168910000Y-77082553D01*
X168482313Y-77167625D01*
X168119737Y-77409890D01*
X167877472Y-77772466D01*
X167792400Y-78200153D01*
X167792400Y-79279847D01*
X167877472Y-79707534D01*
X168119737Y-80070110D01*
X168482313Y-80312375D01*
X168910000Y-80397447D01*
X169337687Y-80312375D01*
X169700263Y-80070110D01*
X169942528Y-79707534D01*
X170027600Y-79279847D01*
X170027600Y-111846338D01*
X156768800Y-98587538D01*
X156768800Y-80467500D01*
X156768800Y-80224768D01*
X157000263Y-80070110D01*
X157242528Y-79707534D01*
X157327600Y-79279847D01*
X157327600Y-78200153D01*
X157242528Y-77772466D01*
X157108113Y-77571300D01*
X157851886Y-77571300D01*
X157717472Y-77772466D01*
X157632400Y-78200153D01*
X157632400Y-79279847D01*
X157717472Y-79707534D01*
X157959737Y-80070110D01*
X158322313Y-80312375D01*
X158750000Y-80397447D01*
X159177687Y-80312375D01*
X159540263Y-80070110D01*
X159782528Y-79707534D01*
X159867600Y-79279847D01*
X159867600Y-78200153D01*
X159782528Y-77772466D01*
X159648113Y-77571300D01*
X160391886Y-77571300D01*
X160257472Y-77772466D01*
X160172400Y-78200153D01*
X160172400Y-79279847D01*
X160257472Y-79707534D01*
X160499737Y-80070110D01*
X160862313Y-80312375D01*
X161290000Y-80397447D01*
X161717687Y-80312375D01*
X162080263Y-80070110D01*
X162322528Y-79707534D01*
X162407600Y-79279847D01*
X162407600Y-78200153D01*
X162322528Y-77772466D01*
X162188113Y-77571300D01*
X165471886Y-77571300D01*
X165337472Y-77772466D01*
X165252400Y-78200153D01*
X165252400Y-79279847D01*
X165337472Y-79707534D01*
X165579737Y-80070110D01*
X165942313Y-80312375D01*
X166370000Y-80397447D01*
X166797687Y-80312375D01*
X167160263Y-80070110D01*
X167402528Y-79707534D01*
X167487600Y-79279847D01*
X167487600Y-78200153D01*
X167402528Y-77772466D01*
X167160263Y-77409890D01*
X166928800Y-77255231D01*
X166928800Y-77012500D01*
X166886264Y-76798656D01*
X166765131Y-76617369D01*
X166583844Y-76496236D01*
X166370000Y-76453700D01*
X155658600Y-76453700D01*
X155444757Y-76496235D01*
X155263469Y-76617368D01*
X154525969Y-77354869D01*
X154474734Y-77431547D01*
X154474733Y-77431547D01*
X154460263Y-77409890D01*
X154097687Y-77167625D01*
X153670000Y-77082553D01*
X153242313Y-77167625D01*
X152879737Y-77409890D01*
X152637472Y-77772466D01*
X152552400Y-78200153D01*
X152552400Y-79279847D01*
X152637472Y-79707534D01*
X152771886Y-79908700D01*
X152028113Y-79908700D01*
X152162528Y-79707534D01*
X152247600Y-79279847D01*
X152247600Y-78200153D01*
X152162528Y-77772466D01*
X151920263Y-77409890D01*
X151557687Y-77167625D01*
X151130000Y-77082553D01*
X150702313Y-77167625D01*
X150339737Y-77409890D01*
X150097472Y-77772466D01*
X150012400Y-78200153D01*
X150012400Y-79279847D01*
X150097472Y-79707534D01*
X150231886Y-79908700D01*
X149488113Y-79908700D01*
X149622528Y-79707534D01*
X149707600Y-79279847D01*
X149707600Y-78200153D01*
X149622528Y-77772466D01*
X149380263Y-77409890D01*
X149017687Y-77167625D01*
X148590000Y-77082553D01*
X148162313Y-77167625D01*
X147799737Y-77409890D01*
X147557472Y-77772466D01*
X147472400Y-78200153D01*
X147472400Y-79279847D01*
X147557472Y-79707534D01*
X147691886Y-79908700D01*
X146948113Y-79908700D01*
X147082528Y-79707534D01*
X147167600Y-79279847D01*
X147167600Y-78200153D01*
X147082528Y-77772466D01*
X146840263Y-77409890D01*
X146477687Y-77167625D01*
X146050000Y-77082553D01*
X145622313Y-77167625D01*
X145259737Y-77409890D01*
X145017472Y-77772466D01*
X144932400Y-78200153D01*
X144932400Y-79279847D01*
X145017472Y-79707534D01*
X145151886Y-79908700D01*
X144408113Y-79908700D01*
X144542528Y-79707534D01*
X144627600Y-79279847D01*
X144627600Y-78200153D01*
X144542528Y-77772466D01*
X144300263Y-77409890D01*
X143937687Y-77167625D01*
X143510000Y-77082553D01*
X143082313Y-77167625D01*
X142719737Y-77409890D01*
X142477472Y-77772466D01*
X142392400Y-78200153D01*
X142392400Y-79279847D01*
X142477472Y-79707534D01*
X142611886Y-79908700D01*
X140344113Y-79908700D01*
X140478528Y-79707534D01*
X140563600Y-79279847D01*
X140563600Y-78200153D01*
X140478528Y-77772466D01*
X140236263Y-77409890D01*
X139873687Y-77167625D01*
X139446000Y-77082553D01*
X139018313Y-77167625D01*
X138655737Y-77409890D01*
X138413472Y-77772466D01*
X138328400Y-78200153D01*
X138328400Y-79279847D01*
X138413472Y-79707534D01*
X138547886Y-79908700D01*
X137804113Y-79908700D01*
X137938528Y-79707534D01*
X138023600Y-79279847D01*
X138023600Y-78200153D01*
X137938528Y-77772466D01*
X137696263Y-77409890D01*
X137333687Y-77167625D01*
X136906000Y-77082553D01*
X136478313Y-77167625D01*
X136115737Y-77409890D01*
X135873472Y-77772466D01*
X135788400Y-78200153D01*
X135788400Y-79279847D01*
X135873472Y-79707534D01*
X136007886Y-79908700D01*
X135264113Y-79908700D01*
X135398528Y-79707534D01*
X135483600Y-79279847D01*
X135483600Y-78200153D01*
X135398528Y-77772466D01*
X135156263Y-77409890D01*
X134793687Y-77167625D01*
X134366000Y-77082553D01*
X133938313Y-77167625D01*
X133575737Y-77409890D01*
X133333472Y-77772466D01*
X133248400Y-78200153D01*
X133248400Y-79279847D01*
X133333472Y-79707534D01*
X133467886Y-79908700D01*
X132724113Y-79908700D01*
X132858528Y-79707534D01*
X132943600Y-79279847D01*
X132943600Y-78200153D01*
X132858528Y-77772466D01*
X132616263Y-77409890D01*
X132253687Y-77167625D01*
X131826000Y-77082553D01*
X131398313Y-77167625D01*
X131035737Y-77409890D01*
X130793472Y-77772466D01*
X130708400Y-78200153D01*
X130708400Y-79279847D01*
X130793472Y-79707534D01*
X131035737Y-80070110D01*
X131121693Y-80127543D01*
X130403600Y-80845636D01*
X130403600Y-79279847D01*
X130403600Y-78200153D01*
X130318528Y-77772466D01*
X130076263Y-77409890D01*
X129713687Y-77167625D01*
X129286000Y-77082553D01*
X128858313Y-77167625D01*
X128495737Y-77409890D01*
X128253472Y-77772466D01*
X128168400Y-78200153D01*
X128168400Y-79279847D01*
X128253472Y-79707534D01*
X128495737Y-80070110D01*
X128858313Y-80312375D01*
X129286000Y-80397447D01*
X129713687Y-80312375D01*
X130076263Y-80070110D01*
X130318528Y-79707534D01*
X130403600Y-79279847D01*
X130403600Y-80845636D01*
X127863600Y-83385636D01*
X127863600Y-79279847D01*
X127863600Y-78200153D01*
X127778528Y-77772466D01*
X127536263Y-77409890D01*
X127173687Y-77167625D01*
X126746000Y-77082553D01*
X126318313Y-77167625D01*
X125955737Y-77409890D01*
X125713472Y-77772466D01*
X125628400Y-78200153D01*
X125628400Y-79279847D01*
X125713472Y-79707534D01*
X125955737Y-80070110D01*
X126318313Y-80312375D01*
X126746000Y-80397447D01*
X127173687Y-80312375D01*
X127536263Y-80070110D01*
X127778528Y-79707534D01*
X127863600Y-79279847D01*
X127863600Y-83385636D01*
X125323600Y-85925636D01*
X125323600Y-79279847D01*
X125323600Y-78200153D01*
X125238528Y-77772466D01*
X124996263Y-77409890D01*
X124633687Y-77167625D01*
X124206000Y-77082553D01*
X123778313Y-77167625D01*
X123415737Y-77409890D01*
X123173472Y-77772466D01*
X123088400Y-78200153D01*
X123088400Y-79279847D01*
X123173472Y-79707534D01*
X123415737Y-80070110D01*
X123778313Y-80312375D01*
X124206000Y-80397447D01*
X124633687Y-80312375D01*
X124996263Y-80070110D01*
X125238528Y-79707534D01*
X125323600Y-79279847D01*
X125323600Y-85925636D01*
X122783600Y-88465636D01*
X122783600Y-79279847D01*
X122783600Y-78200153D01*
X122698528Y-77772466D01*
X122456263Y-77409890D01*
X122093687Y-77167625D01*
X121666000Y-77082553D01*
X121238313Y-77167625D01*
X120875737Y-77409890D01*
X120633472Y-77772466D01*
X120548400Y-78200153D01*
X120548400Y-79279847D01*
X120633472Y-79707534D01*
X120875737Y-80070110D01*
X121238313Y-80312375D01*
X121666000Y-80397447D01*
X122093687Y-80312375D01*
X122456263Y-80070110D01*
X122698528Y-79707534D01*
X122783600Y-79279847D01*
X122783600Y-88465636D01*
X120243600Y-91005636D01*
X120243600Y-79279847D01*
X120243600Y-78200153D01*
X120158528Y-77772466D01*
X119916263Y-77409890D01*
X119553687Y-77167625D01*
X119126000Y-77082553D01*
X118698313Y-77167625D01*
X118335737Y-77409890D01*
X118093472Y-77772466D01*
X118008400Y-78200153D01*
X118008400Y-79279847D01*
X118093472Y-79707534D01*
X118335737Y-80070110D01*
X118698313Y-80312375D01*
X119126000Y-80397447D01*
X119553687Y-80312375D01*
X119916263Y-80070110D01*
X120158528Y-79707534D01*
X120243600Y-79279847D01*
X120243600Y-91005636D01*
X117703600Y-93545636D01*
X117703600Y-79279847D01*
X117703600Y-78200153D01*
X117618528Y-77772466D01*
X117376263Y-77409890D01*
X117013687Y-77167625D01*
X116586000Y-77082553D01*
X116158313Y-77167625D01*
X115795737Y-77409890D01*
X115553472Y-77772466D01*
X115468400Y-78200153D01*
X115468400Y-79279847D01*
X115553472Y-79707534D01*
X115795737Y-80070110D01*
X116158313Y-80312375D01*
X116586000Y-80397447D01*
X117013687Y-80312375D01*
X117376263Y-80070110D01*
X117618528Y-79707534D01*
X117703600Y-79279847D01*
X117703600Y-93545636D01*
X115354503Y-95894733D01*
X115354503Y-78279736D01*
X115001425Y-77425223D01*
X114348216Y-76770873D01*
X113494320Y-76416304D01*
X112569736Y-76415497D01*
X111715223Y-76768575D01*
X111060873Y-77421784D01*
X110706304Y-78275680D01*
X110705497Y-79200264D01*
X111058575Y-80054777D01*
X111711784Y-80709127D01*
X112565680Y-81063696D01*
X113490264Y-81064503D01*
X114344777Y-80711425D01*
X114999127Y-80058216D01*
X115353696Y-79204320D01*
X115354503Y-78279736D01*
X115354503Y-95894733D01*
X108999993Y-102249244D01*
X108982528Y-102161442D01*
X108740263Y-101798866D01*
X108377687Y-101556601D01*
X107957395Y-101473000D01*
X108377687Y-101389399D01*
X108740263Y-101147134D01*
X108982528Y-100784558D01*
X109067600Y-100356871D01*
X109067600Y-99795129D01*
X108982528Y-99367442D01*
X108740263Y-99004866D01*
X108377687Y-98762601D01*
X107950000Y-98677529D01*
X107522313Y-98762601D01*
X107159737Y-99004866D01*
X106917472Y-99367442D01*
X106832400Y-99795129D01*
X106832400Y-100356871D01*
X106917472Y-100784558D01*
X107159737Y-101147134D01*
X107522313Y-101389399D01*
X107942604Y-101473000D01*
X107522313Y-101556601D01*
X107159737Y-101798866D01*
X106917472Y-102161442D01*
X106832400Y-102589129D01*
X106832400Y-103150871D01*
X106917472Y-103578558D01*
X107159737Y-103941134D01*
X107522313Y-104183399D01*
X107942604Y-104267000D01*
X107522313Y-104350601D01*
X107159737Y-104592866D01*
X106917472Y-104955442D01*
X106832400Y-105383129D01*
X106832400Y-105944871D01*
X106917472Y-106372558D01*
X107159737Y-106735134D01*
X107522313Y-106977399D01*
X107950000Y-107062471D01*
X108377687Y-106977399D01*
X108740263Y-106735134D01*
X108982528Y-106372558D01*
X109067600Y-105944871D01*
X109067600Y-105383129D01*
X108982528Y-104955442D01*
X108740263Y-104592866D01*
X108377687Y-104350601D01*
X107957395Y-104267000D01*
X108377687Y-104183399D01*
X108740263Y-103941134D01*
X108982528Y-103578558D01*
X109012316Y-103428800D01*
X109169500Y-103428800D01*
X109383343Y-103386264D01*
X109383344Y-103386264D01*
X109564631Y-103265131D01*
X131803462Y-81026300D01*
X153261237Y-81026300D01*
X116662537Y-117625000D01*
X106554471Y-117625000D01*
X106554471Y-102870000D01*
X106469399Y-102442313D01*
X106227134Y-102079737D01*
X105864558Y-101837472D01*
X105436871Y-101752400D01*
X104875129Y-101752400D01*
X104447442Y-101837472D01*
X104084866Y-102079737D01*
X103842601Y-102442313D01*
X103757529Y-102870000D01*
X103842601Y-103297687D01*
X104084866Y-103660263D01*
X104447442Y-103902528D01*
X104875129Y-103987600D01*
X105436871Y-103987600D01*
X105864558Y-103902528D01*
X106227134Y-103660263D01*
X106469399Y-103297687D01*
X106554471Y-102870000D01*
X106554471Y-117625000D01*
X105336200Y-117625000D01*
X105122357Y-117667535D01*
X104941069Y-117788669D01*
X102442305Y-120287433D01*
X102012328Y-120287433D01*
X102012328Y-107950000D01*
X102012328Y-97790000D01*
X101869252Y-97070708D01*
X101461806Y-96460922D01*
X100852020Y-96053476D01*
X100132728Y-95910400D01*
X97987272Y-95910400D01*
X97267980Y-96053476D01*
X96658194Y-96460922D01*
X96250748Y-97070708D01*
X96107672Y-97790000D01*
X96250748Y-98509292D01*
X96658194Y-99119078D01*
X97267980Y-99526524D01*
X97987272Y-99669600D01*
X100132728Y-99669600D01*
X100852020Y-99526524D01*
X101461806Y-99119078D01*
X101869252Y-98509292D01*
X102012328Y-97790000D01*
X102012328Y-107950000D01*
X101869252Y-107230708D01*
X101461806Y-106620922D01*
X100852020Y-106213476D01*
X100132728Y-106070400D01*
X97987272Y-106070400D01*
X97267980Y-106213476D01*
X96658194Y-106620922D01*
X96250748Y-107230708D01*
X96107672Y-107950000D01*
X96250748Y-108669292D01*
X96658194Y-109279078D01*
X97267980Y-109686524D01*
X97987272Y-109829600D01*
X100132728Y-109829600D01*
X100852020Y-109686524D01*
X101461806Y-109279078D01*
X101869252Y-108669292D01*
X102012328Y-107950000D01*
X102012328Y-120287433D01*
X100672900Y-120287433D01*
X100537311Y-120313741D01*
X100418141Y-120392023D01*
X100338369Y-120510201D01*
X100310333Y-120650000D01*
X100310333Y-123190000D01*
X100336641Y-123325589D01*
X100414923Y-123444759D01*
X100533101Y-123524531D01*
X100672900Y-123552567D01*
X102527100Y-123552567D01*
X102662689Y-123526259D01*
X102781859Y-123447977D01*
X102861631Y-123329799D01*
X102889667Y-123190000D01*
X102889667Y-122457466D01*
X102954940Y-122785615D01*
X103232994Y-123201753D01*
X103530400Y-123400472D01*
X103530400Y-124080196D01*
X103454948Y-124155648D01*
X103322803Y-124353416D01*
X103276400Y-124586700D01*
X103276400Y-124732433D01*
X103251000Y-124732433D01*
X103115411Y-124758741D01*
X102996241Y-124837023D01*
X102916469Y-124955201D01*
X102888433Y-125095000D01*
X102888433Y-127635000D01*
X102914741Y-127770589D01*
X102993023Y-127889759D01*
X103111201Y-127969531D01*
X103251000Y-127997567D01*
X104521000Y-127997567D01*
X104656589Y-127971259D01*
X104775759Y-127892977D01*
X104855531Y-127774799D01*
X104883567Y-127635000D01*
X104883567Y-125095000D01*
X104857259Y-124959411D01*
X104778977Y-124840241D01*
X104660799Y-124760469D01*
X104583591Y-124744985D01*
X104703197Y-124565984D01*
X104749599Y-124332700D01*
X104749600Y-124332700D01*
X104749600Y-123400472D01*
X105047006Y-123201753D01*
X105277535Y-122856741D01*
X105318595Y-122991769D01*
X105701152Y-123457274D01*
X106232730Y-123740947D01*
X106290269Y-123749357D01*
X106527600Y-123638785D01*
X106527600Y-122072400D01*
X106507600Y-122072400D01*
X106507600Y-121767600D01*
X106527600Y-121767600D01*
X106527600Y-120201215D01*
X106290269Y-120090643D01*
X106232730Y-120099053D01*
X105701152Y-120382726D01*
X105318595Y-120848231D01*
X105277535Y-120983258D01*
X105047006Y-120638247D01*
X104630868Y-120360193D01*
X104140000Y-120262553D01*
X104024792Y-120285469D01*
X105567662Y-118742600D01*
X116894000Y-118742600D01*
X117107843Y-118700064D01*
X117107844Y-118700064D01*
X117289131Y-118578931D01*
X155316231Y-80551831D01*
X155316232Y-80551831D01*
X155437364Y-80370544D01*
X155437365Y-80370543D01*
X155479900Y-80156700D01*
X155479900Y-80110309D01*
X155651200Y-80224768D01*
X155651200Y-80467500D01*
X155651200Y-98819000D01*
X155693736Y-99032844D01*
X155814869Y-99214131D01*
X177145880Y-120545142D01*
X177029411Y-120567741D01*
X176910241Y-120646023D01*
X176830469Y-120764201D01*
X176802433Y-120904000D01*
X176802433Y-122174000D01*
X176828741Y-122309589D01*
X176907023Y-122428759D01*
X177025201Y-122508531D01*
X177133489Y-122530247D01*
X177050504Y-122613088D01*
X176928439Y-122907052D01*
X176928161Y-123225352D01*
X177049713Y-123519528D01*
X177274588Y-123744796D01*
X177568552Y-123866861D01*
X177886852Y-123867139D01*
X178181028Y-123745587D01*
X178406296Y-123520712D01*
X178528361Y-123226748D01*
X178528409Y-123171719D01*
X178648844Y-123147764D01*
X178830131Y-123026631D01*
X178951264Y-122845344D01*
X178993800Y-122631500D01*
X178993800Y-122536567D01*
X179705000Y-122536567D01*
X179840589Y-122510259D01*
X179959759Y-122431977D01*
X180039531Y-122313799D01*
X180067567Y-122174000D01*
X180067567Y-124713700D01*
X143510000Y-124713700D01*
X143296156Y-124756236D01*
X143114869Y-124877369D01*
X142993736Y-125058656D01*
X142951200Y-125272500D01*
X142951200Y-125515231D01*
X142719737Y-125669890D01*
X142477472Y-126032466D01*
X142392400Y-126460153D01*
X142392400Y-127539847D01*
X142477472Y-127967534D01*
X142719737Y-128330110D01*
X143082313Y-128572375D01*
X143510000Y-128657447D01*
X143937687Y-128572375D01*
X144300263Y-128330110D01*
X144542528Y-127967534D01*
X144627600Y-127539847D01*
X144627600Y-126460153D01*
X144542528Y-126032466D01*
X144408113Y-125831300D01*
X147691886Y-125831300D01*
X147557472Y-126032466D01*
X147472400Y-126460153D01*
X147472400Y-127539847D01*
X147557472Y-127967534D01*
X147799737Y-128330110D01*
X148162313Y-128572375D01*
X148590000Y-128657447D01*
X149017687Y-128572375D01*
X149380263Y-128330110D01*
X149622528Y-127967534D01*
X149707600Y-127539847D01*
X149707600Y-126460153D01*
X149622528Y-126032466D01*
X149488113Y-125831300D01*
X150231886Y-125831300D01*
X150097472Y-126032466D01*
X150012400Y-126460153D01*
X150012400Y-127539847D01*
X150097472Y-127967534D01*
X150339737Y-128330110D01*
X150702313Y-128572375D01*
X151130000Y-128657447D01*
X151557687Y-128572375D01*
X151920263Y-128330110D01*
X152162528Y-127967534D01*
X152247600Y-127539847D01*
X152247600Y-126460153D01*
X152162528Y-126032466D01*
X152028113Y-125831300D01*
X152771886Y-125831300D01*
X152637472Y-126032466D01*
X152552400Y-126460153D01*
X152552400Y-127539847D01*
X152637472Y-127967534D01*
X152879737Y-128330110D01*
X153242313Y-128572375D01*
X153670000Y-128657447D01*
X154097687Y-128572375D01*
X154460263Y-128330110D01*
X154702528Y-127967534D01*
X154787600Y-127539847D01*
X154787600Y-126460153D01*
X154702528Y-126032466D01*
X154568113Y-125831300D01*
X155311886Y-125831300D01*
X155177472Y-126032466D01*
X155092400Y-126460153D01*
X155092400Y-127539847D01*
X155177472Y-127967534D01*
X155419737Y-128330110D01*
X155782313Y-128572375D01*
X156210000Y-128657447D01*
X156637687Y-128572375D01*
X157000263Y-128330110D01*
X157242528Y-127967534D01*
X157327600Y-127539847D01*
X157327600Y-126460153D01*
X157242528Y-126032466D01*
X157108113Y-125831300D01*
X157851886Y-125831300D01*
X157717472Y-126032466D01*
X157632400Y-126460153D01*
X157632400Y-127539847D01*
X157717472Y-127967534D01*
X157959737Y-128330110D01*
X158322313Y-128572375D01*
X158750000Y-128657447D01*
X159177687Y-128572375D01*
X159540263Y-128330110D01*
X159782528Y-127967534D01*
X159867600Y-127539847D01*
X159867600Y-126460153D01*
X159782528Y-126032466D01*
X159648113Y-125831300D01*
X160391886Y-125831300D01*
X160257472Y-126032466D01*
X160172400Y-126460153D01*
X160172400Y-127539847D01*
X160257472Y-127967534D01*
X160499737Y-128330110D01*
X160862313Y-128572375D01*
X161290000Y-128657447D01*
X161717687Y-128572375D01*
X162080263Y-128330110D01*
X162322528Y-127967534D01*
X162407600Y-127539847D01*
X162407600Y-126460153D01*
X162322528Y-126032466D01*
X162188113Y-125831300D01*
X162931886Y-125831300D01*
X162797472Y-126032466D01*
X162712400Y-126460153D01*
X162712400Y-127539847D01*
X162797472Y-127967534D01*
X163039737Y-128330110D01*
X163402313Y-128572375D01*
X163830000Y-128657447D01*
X164257687Y-128572375D01*
X164620263Y-128330110D01*
X164862528Y-127967534D01*
X164947600Y-127539847D01*
X164947600Y-126460153D01*
X164862528Y-126032466D01*
X164728113Y-125831300D01*
X165471886Y-125831300D01*
X165337472Y-126032466D01*
X165252400Y-126460153D01*
X165252400Y-127539847D01*
X165337472Y-127967534D01*
X165579737Y-128330110D01*
X165942313Y-128572375D01*
X166370000Y-128657447D01*
X166797687Y-128572375D01*
X167160263Y-128330110D01*
X167402528Y-127967534D01*
X167487600Y-127539847D01*
X167487600Y-126460153D01*
X167402528Y-126032466D01*
X167268113Y-125831300D01*
X170551886Y-125831300D01*
X170417472Y-126032466D01*
X170332400Y-126460153D01*
X170332400Y-127539847D01*
X170417472Y-127967534D01*
X170659737Y-128330110D01*
X171022313Y-128572375D01*
X171450000Y-128657447D01*
X171877687Y-128572375D01*
X172240263Y-128330110D01*
X172482528Y-127967534D01*
X172567600Y-127539847D01*
X172567600Y-126460153D01*
X172482528Y-126032466D01*
X172348113Y-125831300D01*
X173091886Y-125831300D01*
X172957472Y-126032466D01*
X172872400Y-126460153D01*
X172872400Y-127539847D01*
X172957472Y-127967534D01*
X173199737Y-128330110D01*
X173562313Y-128572375D01*
X173990000Y-128657447D01*
X174417687Y-128572375D01*
X174780263Y-128330110D01*
X175022528Y-127967534D01*
X175107600Y-127539847D01*
X175107600Y-126460153D01*
X175022528Y-126032466D01*
X174888113Y-125831300D01*
X175631886Y-125831300D01*
X175497472Y-126032466D01*
X175412400Y-126460153D01*
X175412400Y-127539847D01*
X175497472Y-127967534D01*
X175739737Y-128330110D01*
X176102313Y-128572375D01*
X176530000Y-128657447D01*
X176957687Y-128572375D01*
X177320263Y-128330110D01*
X177562528Y-127967534D01*
X177647600Y-127539847D01*
X177647600Y-126460153D01*
X177562528Y-126032466D01*
X177428113Y-125831300D01*
X178171886Y-125831300D01*
X178037472Y-126032466D01*
X177952400Y-126460153D01*
X177952400Y-127539847D01*
X178037472Y-127967534D01*
X178279737Y-128330110D01*
X178642313Y-128572375D01*
X179070000Y-128657447D01*
X179497687Y-128572375D01*
X179860263Y-128330110D01*
X180102528Y-127967534D01*
X180187600Y-127539847D01*
X180187600Y-126460153D01*
X180102528Y-126032466D01*
X179968113Y-125831300D01*
X180711886Y-125831300D01*
X180577472Y-126032466D01*
X180492400Y-126460153D01*
X180492400Y-127539847D01*
X180577472Y-127967534D01*
X180819737Y-128330110D01*
X181182313Y-128572375D01*
X181610000Y-128657447D01*
X182037687Y-128572375D01*
X182400263Y-128330110D01*
X182642528Y-127967534D01*
X182727600Y-127539847D01*
X182727600Y-126460153D01*
X182642528Y-126032466D01*
X182508113Y-125831300D01*
X183251886Y-125831300D01*
X183117472Y-126032466D01*
X183032400Y-126460153D01*
X183032400Y-127539847D01*
X183117472Y-127967534D01*
X183359737Y-128330110D01*
X183722313Y-128572375D01*
X184150000Y-128657447D01*
X184577687Y-128572375D01*
X184940263Y-128330110D01*
X185182528Y-127967534D01*
X185267600Y-127539847D01*
X185267600Y-126460153D01*
X185182528Y-126032466D01*
X185048113Y-125831300D01*
X185791886Y-125831300D01*
X185657472Y-126032466D01*
X185572400Y-126460153D01*
X185572400Y-127539847D01*
X185657472Y-127967534D01*
X185899737Y-128330110D01*
X186262313Y-128572375D01*
X186690000Y-128657447D01*
X187117687Y-128572375D01*
X187480263Y-128330110D01*
X187722528Y-127967534D01*
X187807600Y-127539847D01*
X187807600Y-126460153D01*
X187722528Y-126032466D01*
X187588113Y-125831300D01*
X187656300Y-125831300D01*
X187870143Y-125788764D01*
X187870144Y-125788764D01*
X188051431Y-125667631D01*
X189224362Y-124494700D01*
X196478600Y-124494700D01*
X196692443Y-124452164D01*
X196692444Y-124452164D01*
X196873731Y-124331031D01*
X202148231Y-119056532D01*
X202148231Y-119056531D01*
X202237587Y-118922800D01*
X202237588Y-118922800D01*
X203377500Y-118922800D01*
X203472433Y-118922800D01*
X203472433Y-118999000D01*
X203498741Y-119134589D01*
X203577023Y-119253759D01*
X203695201Y-119333531D01*
X203835000Y-119361567D01*
X206375000Y-119361567D01*
X206510589Y-119335259D01*
X206629759Y-119256977D01*
X206709531Y-119138799D01*
X206737567Y-118999000D01*
X206737567Y-117729000D01*
X206711259Y-117593411D01*
X206632977Y-117474241D01*
X206514799Y-117394469D01*
X206375000Y-117366433D01*
X203835000Y-117366433D01*
X203699411Y-117392741D01*
X203580241Y-117471023D01*
X203500469Y-117589201D01*
X203472433Y-117729000D01*
X203472433Y-117805200D01*
X203377500Y-117805200D01*
X202207988Y-117805200D01*
X202147631Y-117714869D01*
X201966344Y-117593736D01*
X201752500Y-117551200D01*
X201509768Y-117551200D01*
X201355110Y-117319737D01*
X200992534Y-117077472D01*
X200564847Y-116992400D01*
X199485153Y-116992400D01*
X199459627Y-116997477D01*
X199769504Y-116687600D01*
X200564847Y-116687600D01*
X200992534Y-116602528D01*
X201355110Y-116360263D01*
X201475824Y-116179600D01*
X203072700Y-116179600D01*
X203305984Y-116133197D01*
X203484624Y-116013832D01*
X203498741Y-116086589D01*
X203577023Y-116205759D01*
X203695201Y-116285531D01*
X203835000Y-116313567D01*
X206375000Y-116313567D01*
X206510589Y-116287259D01*
X206629759Y-116208977D01*
X206709531Y-116090799D01*
X206737567Y-115951000D01*
X206737567Y-114681000D01*
X206711259Y-114545411D01*
X206632977Y-114426241D01*
X206514799Y-114346469D01*
X206375000Y-114318433D01*
X204259900Y-114318433D01*
X204259900Y-114195300D01*
X204213497Y-113962016D01*
X204081352Y-113764248D01*
X204081352Y-113764247D01*
X204002800Y-113685695D01*
X204002800Y-108693409D01*
X204123789Y-108874483D01*
X204815979Y-109336989D01*
X205632472Y-109499400D01*
X207269928Y-109499400D01*
X208086421Y-109336989D01*
X208778611Y-108874483D01*
X209241117Y-108182293D01*
X209403528Y-107365800D01*
X209241117Y-106549307D01*
X208778611Y-105857117D01*
X208086421Y-105394611D01*
X207269928Y-105232200D01*
X205632472Y-105232200D01*
X204815979Y-105394611D01*
X204123789Y-105857117D01*
X204002800Y-106038190D01*
X204002800Y-105189904D01*
X204222907Y-104969796D01*
X204392848Y-105003600D01*
X205512352Y-105003600D01*
X206328845Y-104841189D01*
X207021035Y-104378683D01*
X207452691Y-103732662D01*
X207708650Y-103989067D01*
X208193924Y-104190570D01*
X208719371Y-104191029D01*
X209204996Y-103990373D01*
X209576867Y-103619150D01*
X209778370Y-103133876D01*
X209778829Y-102608429D01*
X209578173Y-102122804D01*
X209206950Y-101750933D01*
X208721676Y-101549430D01*
X208196229Y-101548971D01*
X207710604Y-101749627D01*
X207452592Y-102007189D01*
X207021035Y-101361317D01*
X206328845Y-100898811D01*
X205512352Y-100736400D01*
X204392848Y-100736400D01*
X204222907Y-100770203D01*
X203982200Y-100529496D01*
X203982200Y-99670979D01*
X204123789Y-99882883D01*
X204815979Y-100345389D01*
X205632472Y-100507800D01*
X207269928Y-100507800D01*
X208086421Y-100345389D01*
X208778611Y-99882883D01*
X209241117Y-99190693D01*
X209403528Y-98374200D01*
X209241117Y-97557707D01*
X208778611Y-96865517D01*
X208086421Y-96403011D01*
X207269928Y-96240600D01*
X205632472Y-96240600D01*
X204815979Y-96403011D01*
X204123789Y-96865517D01*
X203982200Y-97077420D01*
X203982200Y-95583904D01*
X205246165Y-94319938D01*
X205359000Y-94342567D01*
X206629000Y-94342567D01*
X206764589Y-94316259D01*
X206883759Y-94237977D01*
X206963531Y-94119799D01*
X206991567Y-93980000D01*
X206991567Y-91440000D01*
X206965259Y-91304411D01*
X206886977Y-91185241D01*
X206768799Y-91105469D01*
X206629000Y-91077433D01*
X205460300Y-91077433D01*
X205460300Y-82168400D01*
X205413897Y-81935117D01*
X205413897Y-81935116D01*
X205360967Y-81855901D01*
X205281753Y-81737348D01*
X203123352Y-79578948D01*
X202925584Y-79446803D01*
X202692300Y-79400400D01*
X202546567Y-79400400D01*
X202546567Y-78740000D01*
X202520259Y-78604411D01*
X202441977Y-78485241D01*
X202323799Y-78405469D01*
X202184000Y-78377433D01*
X200914000Y-78377433D01*
X200778411Y-78403741D01*
X200659241Y-78482023D01*
X200579469Y-78600201D01*
X200551433Y-78740000D01*
X200551433Y-81280000D01*
X200577741Y-81415589D01*
X200656023Y-81534759D01*
X200774201Y-81614531D01*
X200914000Y-81642567D01*
X202184000Y-81642567D01*
X202319589Y-81616259D01*
X202438759Y-81537977D01*
X202518531Y-81419799D01*
X202546567Y-81280000D01*
X202546567Y-80726371D01*
X204241100Y-82420904D01*
X204241100Y-92710000D01*
X204241100Y-93600796D01*
X203943567Y-93898329D01*
X203943567Y-91440000D01*
X203917259Y-91304411D01*
X203838977Y-91185241D01*
X203720799Y-91105469D01*
X203581000Y-91077433D01*
X202311000Y-91077433D01*
X202175411Y-91103741D01*
X202056241Y-91182023D01*
X201976469Y-91300201D01*
X201948433Y-91440000D01*
X201948433Y-91846400D01*
X201548700Y-91846400D01*
X201218215Y-91912138D01*
X200938043Y-92099342D01*
X198855543Y-94181843D01*
X198668338Y-94462015D01*
X198602600Y-94792500D01*
X198602600Y-100089452D01*
X198552505Y-100099417D01*
X197777912Y-100616984D01*
X197260345Y-101391577D01*
X197078600Y-102305272D01*
X197078600Y-103434728D01*
X197260345Y-104348423D01*
X197777912Y-105123016D01*
X198552505Y-105640583D01*
X198602600Y-105650547D01*
X198602600Y-106172300D01*
X198668338Y-106502785D01*
X198855543Y-106782957D01*
X199161400Y-107088814D01*
X199161400Y-111976798D01*
X199057466Y-111997472D01*
X198694890Y-112239737D01*
X198452625Y-112602313D01*
X198367553Y-113030000D01*
X198452625Y-113457687D01*
X198694890Y-113820263D01*
X199057466Y-114062528D01*
X199485153Y-114147600D01*
X200564847Y-114147600D01*
X200992534Y-114062528D01*
X201355110Y-113820263D01*
X201597375Y-113457687D01*
X201682447Y-113030000D01*
X201597375Y-112602313D01*
X201355110Y-112239737D01*
X200992534Y-111997472D01*
X200888600Y-111976798D01*
X200888600Y-106731100D01*
X200822862Y-106400615D01*
X200635658Y-106120443D01*
X200329800Y-105814585D01*
X200329800Y-105650547D01*
X200379895Y-105640583D01*
X201154488Y-105123016D01*
X201672055Y-104348423D01*
X201853800Y-103434728D01*
X201853800Y-102305272D01*
X201672055Y-101391577D01*
X201154488Y-100616984D01*
X200379895Y-100099417D01*
X200329800Y-100089452D01*
X200329800Y-95150214D01*
X201906414Y-93573600D01*
X201948433Y-93573600D01*
X201948433Y-93980000D01*
X201974741Y-94115589D01*
X202053023Y-94234759D01*
X202171201Y-94314531D01*
X202311000Y-94342567D01*
X203499329Y-94342567D01*
X202941548Y-94900348D01*
X202809403Y-95098116D01*
X202763000Y-95331400D01*
X202763000Y-100782000D01*
X202809403Y-101015284D01*
X202941548Y-101213052D01*
X203007442Y-101278946D01*
X202884165Y-101361317D01*
X202421659Y-102053507D01*
X202259248Y-102870000D01*
X202421659Y-103686493D01*
X202884165Y-104378683D01*
X203007442Y-104461053D01*
X202962148Y-104506348D01*
X202830003Y-104704116D01*
X202783600Y-104937400D01*
X202783600Y-113938200D01*
X202830003Y-114171484D01*
X202906991Y-114286704D01*
X202895648Y-114298048D01*
X202763503Y-114495816D01*
X202717100Y-114729100D01*
X202717100Y-114960400D01*
X201475824Y-114960400D01*
X201355110Y-114779737D01*
X200992534Y-114537472D01*
X200564847Y-114452400D01*
X199485153Y-114452400D01*
X199057466Y-114537472D01*
X198694890Y-114779737D01*
X198452625Y-115142313D01*
X198367553Y-115570000D01*
X198452625Y-115997687D01*
X198565811Y-116167083D01*
X197249248Y-117483648D01*
X197117103Y-117681416D01*
X197070700Y-117914700D01*
X197070700Y-121123595D01*
X196475447Y-121718847D01*
X196475447Y-119380000D01*
X196475447Y-116840000D01*
X196475447Y-114300000D01*
X196475447Y-111760000D01*
X196475447Y-109220000D01*
X196475447Y-106680000D01*
X196475447Y-104140000D01*
X196475447Y-101600000D01*
X196475447Y-99060000D01*
X196475447Y-96520000D01*
X196475447Y-93980000D01*
X196475447Y-91440000D01*
X196475447Y-88900000D01*
X196475447Y-86360000D01*
X196390375Y-85932313D01*
X196148110Y-85569737D01*
X195785534Y-85327472D01*
X195357847Y-85242400D01*
X194278153Y-85242400D01*
X193850466Y-85327472D01*
X193487890Y-85569737D01*
X193245625Y-85932313D01*
X193160553Y-86360000D01*
X193245625Y-86787687D01*
X193487890Y-87150263D01*
X193850466Y-87392528D01*
X194278153Y-87477600D01*
X195357847Y-87477600D01*
X195785534Y-87392528D01*
X196148110Y-87150263D01*
X196390375Y-86787687D01*
X196475447Y-86360000D01*
X196475447Y-88900000D01*
X196390375Y-88472313D01*
X196148110Y-88109737D01*
X195785534Y-87867472D01*
X195357847Y-87782400D01*
X194278153Y-87782400D01*
X193850466Y-87867472D01*
X193487890Y-88109737D01*
X193245625Y-88472313D01*
X193160553Y-88900000D01*
X193245625Y-89327687D01*
X193487890Y-89690263D01*
X193850466Y-89932528D01*
X194278153Y-90017600D01*
X195357847Y-90017600D01*
X195785534Y-89932528D01*
X196148110Y-89690263D01*
X196390375Y-89327687D01*
X196475447Y-88900000D01*
X196475447Y-91440000D01*
X196390375Y-91012313D01*
X196148110Y-90649737D01*
X195785534Y-90407472D01*
X195357847Y-90322400D01*
X194278153Y-90322400D01*
X193850466Y-90407472D01*
X193487890Y-90649737D01*
X193245625Y-91012313D01*
X193160553Y-91440000D01*
X193245625Y-91867687D01*
X193487890Y-92230263D01*
X193850466Y-92472528D01*
X194278153Y-92557600D01*
X195357847Y-92557600D01*
X195785534Y-92472528D01*
X196148110Y-92230263D01*
X196390375Y-91867687D01*
X196475447Y-91440000D01*
X196475447Y-93980000D01*
X196390375Y-93552313D01*
X196148110Y-93189737D01*
X195785534Y-92947472D01*
X195357847Y-92862400D01*
X194278153Y-92862400D01*
X193850466Y-92947472D01*
X193487890Y-93189737D01*
X193245625Y-93552313D01*
X193160553Y-93980000D01*
X193245625Y-94407687D01*
X193487890Y-94770263D01*
X193850466Y-95012528D01*
X194278153Y-95097600D01*
X195357847Y-95097600D01*
X195785534Y-95012528D01*
X196148110Y-94770263D01*
X196390375Y-94407687D01*
X196475447Y-93980000D01*
X196475447Y-96520000D01*
X196390375Y-96092313D01*
X196148110Y-95729737D01*
X195785534Y-95487472D01*
X195357847Y-95402400D01*
X194278153Y-95402400D01*
X193850466Y-95487472D01*
X193487890Y-95729737D01*
X193245625Y-96092313D01*
X193160553Y-96520000D01*
X193245625Y-96947687D01*
X193487890Y-97310263D01*
X193850466Y-97552528D01*
X194278153Y-97637600D01*
X195357847Y-97637600D01*
X195785534Y-97552528D01*
X196148110Y-97310263D01*
X196390375Y-96947687D01*
X196475447Y-96520000D01*
X196475447Y-99060000D01*
X196390375Y-98632313D01*
X196148110Y-98269737D01*
X195785534Y-98027472D01*
X195357847Y-97942400D01*
X194278153Y-97942400D01*
X193850466Y-98027472D01*
X193487890Y-98269737D01*
X193245625Y-98632313D01*
X193160553Y-99060000D01*
X193245625Y-99487687D01*
X193487890Y-99850263D01*
X193850466Y-100092528D01*
X194278153Y-100177600D01*
X195357847Y-100177600D01*
X195785534Y-100092528D01*
X196148110Y-99850263D01*
X196390375Y-99487687D01*
X196475447Y-99060000D01*
X196475447Y-101600000D01*
X196390375Y-101172313D01*
X196148110Y-100809737D01*
X195785534Y-100567472D01*
X195357847Y-100482400D01*
X194278153Y-100482400D01*
X193850466Y-100567472D01*
X193487890Y-100809737D01*
X193245625Y-101172313D01*
X193160553Y-101600000D01*
X193245625Y-102027687D01*
X193487890Y-102390263D01*
X193850466Y-102632528D01*
X194278153Y-102717600D01*
X195357847Y-102717600D01*
X195785534Y-102632528D01*
X196148110Y-102390263D01*
X196390375Y-102027687D01*
X196475447Y-101600000D01*
X196475447Y-104140000D01*
X196390375Y-103712313D01*
X196148110Y-103349737D01*
X195785534Y-103107472D01*
X195357847Y-103022400D01*
X194278153Y-103022400D01*
X193850466Y-103107472D01*
X193487890Y-103349737D01*
X193245625Y-103712313D01*
X193160553Y-104140000D01*
X193245625Y-104567687D01*
X193487890Y-104930263D01*
X193850466Y-105172528D01*
X194278153Y-105257600D01*
X195357847Y-105257600D01*
X195785534Y-105172528D01*
X196148110Y-104930263D01*
X196390375Y-104567687D01*
X196475447Y-104140000D01*
X196475447Y-106680000D01*
X196390375Y-106252313D01*
X196148110Y-105889737D01*
X195785534Y-105647472D01*
X195357847Y-105562400D01*
X194278153Y-105562400D01*
X193850466Y-105647472D01*
X193487890Y-105889737D01*
X193245625Y-106252313D01*
X193160553Y-106680000D01*
X193245625Y-107107687D01*
X193487890Y-107470263D01*
X193850466Y-107712528D01*
X194278153Y-107797600D01*
X195357847Y-107797600D01*
X195785534Y-107712528D01*
X196148110Y-107470263D01*
X196390375Y-107107687D01*
X196475447Y-106680000D01*
X196475447Y-109220000D01*
X196390375Y-108792313D01*
X196148110Y-108429737D01*
X195785534Y-108187472D01*
X195357847Y-108102400D01*
X194278153Y-108102400D01*
X193850466Y-108187472D01*
X193487890Y-108429737D01*
X193245625Y-108792313D01*
X193160553Y-109220000D01*
X193245625Y-109647687D01*
X193487890Y-110010263D01*
X193850466Y-110252528D01*
X194278153Y-110337600D01*
X195357847Y-110337600D01*
X195785534Y-110252528D01*
X196148110Y-110010263D01*
X196390375Y-109647687D01*
X196475447Y-109220000D01*
X196475447Y-111760000D01*
X196390375Y-111332313D01*
X196148110Y-110969737D01*
X195785534Y-110727472D01*
X195357847Y-110642400D01*
X194278153Y-110642400D01*
X193850466Y-110727472D01*
X193487890Y-110969737D01*
X193245625Y-111332313D01*
X193160553Y-111760000D01*
X193245625Y-112187687D01*
X193487890Y-112550263D01*
X193850466Y-112792528D01*
X194278153Y-112877600D01*
X195357847Y-112877600D01*
X195785534Y-112792528D01*
X196148110Y-112550263D01*
X196390375Y-112187687D01*
X196475447Y-111760000D01*
X196475447Y-114300000D01*
X196390375Y-113872313D01*
X196148110Y-113509737D01*
X195785534Y-113267472D01*
X195357847Y-113182400D01*
X194278153Y-113182400D01*
X193850466Y-113267472D01*
X193487890Y-113509737D01*
X193245625Y-113872313D01*
X193160553Y-114300000D01*
X193245625Y-114727687D01*
X193487890Y-115090263D01*
X193850466Y-115332528D01*
X194278153Y-115417600D01*
X195357847Y-115417600D01*
X195785534Y-115332528D01*
X196148110Y-115090263D01*
X196390375Y-114727687D01*
X196475447Y-114300000D01*
X196475447Y-116840000D01*
X196390375Y-116412313D01*
X196148110Y-116049737D01*
X195785534Y-115807472D01*
X195357847Y-115722400D01*
X194278153Y-115722400D01*
X193850466Y-115807472D01*
X193487890Y-116049737D01*
X193245625Y-116412313D01*
X193160553Y-116840000D01*
X193245625Y-117267687D01*
X193487890Y-117630263D01*
X193850466Y-117872528D01*
X194278153Y-117957600D01*
X195357847Y-117957600D01*
X195785534Y-117872528D01*
X196148110Y-117630263D01*
X196390375Y-117267687D01*
X196475447Y-116840000D01*
X196475447Y-119380000D01*
X196390375Y-118952313D01*
X196148110Y-118589737D01*
X195785534Y-118347472D01*
X195357847Y-118262400D01*
X194278153Y-118262400D01*
X193850466Y-118347472D01*
X193487890Y-118589737D01*
X193245625Y-118952313D01*
X193160553Y-119380000D01*
X193245625Y-119807687D01*
X193487890Y-120170263D01*
X193850466Y-120412528D01*
X194278153Y-120497600D01*
X195357847Y-120497600D01*
X195785534Y-120412528D01*
X196148110Y-120170263D01*
X196390375Y-119807687D01*
X196475447Y-119380000D01*
X196475447Y-121718847D01*
X196442073Y-121752221D01*
X196390375Y-121492313D01*
X196148110Y-121129737D01*
X195785534Y-120887472D01*
X195357847Y-120802400D01*
X194278153Y-120802400D01*
X193850466Y-120887472D01*
X193487890Y-121129737D01*
X193245625Y-121492313D01*
X193160553Y-121920000D01*
X193245625Y-122347687D01*
X193424036Y-122614700D01*
X192655963Y-122614700D01*
X192834375Y-122347687D01*
X192919447Y-121920000D01*
X192919447Y-119380000D01*
X192919447Y-116840000D01*
X192919447Y-114300000D01*
X192919447Y-111760000D01*
X192919447Y-109220000D01*
X192919447Y-106680000D01*
X192919447Y-104140000D01*
X192919447Y-101600000D01*
X192919447Y-99060000D01*
X192919447Y-96520000D01*
X192919447Y-93980000D01*
X192919447Y-91440000D01*
X192919447Y-88900000D01*
X192834375Y-88472313D01*
X192592110Y-88109737D01*
X192229534Y-87867472D01*
X191801847Y-87782400D01*
X190722153Y-87782400D01*
X190294466Y-87867472D01*
X189931890Y-88109737D01*
X189689625Y-88472313D01*
X189604553Y-88900000D01*
X189689625Y-89327687D01*
X189931890Y-89690263D01*
X190294466Y-89932528D01*
X190722153Y-90017600D01*
X191801847Y-90017600D01*
X192229534Y-89932528D01*
X192592110Y-89690263D01*
X192834375Y-89327687D01*
X192919447Y-88900000D01*
X192919447Y-91440000D01*
X192834375Y-91012313D01*
X192592110Y-90649737D01*
X192229534Y-90407472D01*
X191801847Y-90322400D01*
X190722153Y-90322400D01*
X190294466Y-90407472D01*
X189931890Y-90649737D01*
X189689625Y-91012313D01*
X189604553Y-91440000D01*
X189689625Y-91867687D01*
X189931890Y-92230263D01*
X190294466Y-92472528D01*
X190722153Y-92557600D01*
X191801847Y-92557600D01*
X192229534Y-92472528D01*
X192592110Y-92230263D01*
X192834375Y-91867687D01*
X192919447Y-91440000D01*
X192919447Y-93980000D01*
X192834375Y-93552313D01*
X192592110Y-93189737D01*
X192229534Y-92947472D01*
X191801847Y-92862400D01*
X190722153Y-92862400D01*
X190294466Y-92947472D01*
X189931890Y-93189737D01*
X189689625Y-93552313D01*
X189604553Y-93980000D01*
X189689625Y-94407687D01*
X189931890Y-94770263D01*
X190294466Y-95012528D01*
X190722153Y-95097600D01*
X191801847Y-95097600D01*
X192229534Y-95012528D01*
X192592110Y-94770263D01*
X192834375Y-94407687D01*
X192919447Y-93980000D01*
X192919447Y-96520000D01*
X192834375Y-96092313D01*
X192592110Y-95729737D01*
X192229534Y-95487472D01*
X191801847Y-95402400D01*
X190722153Y-95402400D01*
X190294466Y-95487472D01*
X189931890Y-95729737D01*
X189689625Y-96092313D01*
X189604553Y-96520000D01*
X189689625Y-96947687D01*
X189931890Y-97310263D01*
X190294466Y-97552528D01*
X190722153Y-97637600D01*
X191801847Y-97637600D01*
X192229534Y-97552528D01*
X192592110Y-97310263D01*
X192834375Y-96947687D01*
X192919447Y-96520000D01*
X192919447Y-99060000D01*
X192834375Y-98632313D01*
X192592110Y-98269737D01*
X192229534Y-98027472D01*
X191801847Y-97942400D01*
X190722153Y-97942400D01*
X190294466Y-98027472D01*
X189931890Y-98269737D01*
X189689625Y-98632313D01*
X189604553Y-99060000D01*
X189689625Y-99487687D01*
X189931890Y-99850263D01*
X190294466Y-100092528D01*
X190722153Y-100177600D01*
X191801847Y-100177600D01*
X192229534Y-100092528D01*
X192592110Y-99850263D01*
X192834375Y-99487687D01*
X192919447Y-99060000D01*
X192919447Y-101600000D01*
X192834375Y-101172313D01*
X192592110Y-100809737D01*
X192229534Y-100567472D01*
X191801847Y-100482400D01*
X190722153Y-100482400D01*
X190294466Y-100567472D01*
X189931890Y-100809737D01*
X189689625Y-101172313D01*
X189604553Y-101600000D01*
X189689625Y-102027687D01*
X189931890Y-102390263D01*
X190294466Y-102632528D01*
X190722153Y-102717600D01*
X191801847Y-102717600D01*
X192229534Y-102632528D01*
X192592110Y-102390263D01*
X192834375Y-102027687D01*
X192919447Y-101600000D01*
X192919447Y-104140000D01*
X192834375Y-103712313D01*
X192592110Y-103349737D01*
X192229534Y-103107472D01*
X191801847Y-103022400D01*
X190722153Y-103022400D01*
X190294466Y-103107472D01*
X189931890Y-103349737D01*
X189689625Y-103712313D01*
X189604553Y-104140000D01*
X189689625Y-104567687D01*
X189931890Y-104930263D01*
X190294466Y-105172528D01*
X190722153Y-105257600D01*
X191801847Y-105257600D01*
X192229534Y-105172528D01*
X192592110Y-104930263D01*
X192834375Y-104567687D01*
X192919447Y-104140000D01*
X192919447Y-106680000D01*
X192834375Y-106252313D01*
X192592110Y-105889737D01*
X192229534Y-105647472D01*
X191801847Y-105562400D01*
X190722153Y-105562400D01*
X190294466Y-105647472D01*
X189931890Y-105889737D01*
X189689625Y-106252313D01*
X189604553Y-106680000D01*
X189689625Y-107107687D01*
X189931890Y-107470263D01*
X190294466Y-107712528D01*
X190722153Y-107797600D01*
X191801847Y-107797600D01*
X192229534Y-107712528D01*
X192592110Y-107470263D01*
X192834375Y-107107687D01*
X192919447Y-106680000D01*
X192919447Y-109220000D01*
X192834375Y-108792313D01*
X192592110Y-108429737D01*
X192229534Y-108187472D01*
X191801847Y-108102400D01*
X190722153Y-108102400D01*
X190294466Y-108187472D01*
X189931890Y-108429737D01*
X189689625Y-108792313D01*
X189604553Y-109220000D01*
X189689625Y-109647687D01*
X189931890Y-110010263D01*
X190294466Y-110252528D01*
X190722153Y-110337600D01*
X191801847Y-110337600D01*
X192229534Y-110252528D01*
X192592110Y-110010263D01*
X192834375Y-109647687D01*
X192919447Y-109220000D01*
X192919447Y-111760000D01*
X192834375Y-111332313D01*
X192592110Y-110969737D01*
X192229534Y-110727472D01*
X191801847Y-110642400D01*
X190722153Y-110642400D01*
X190294466Y-110727472D01*
X189931890Y-110969737D01*
X189689625Y-111332313D01*
X189604553Y-111760000D01*
X189689625Y-112187687D01*
X189931890Y-112550263D01*
X190294466Y-112792528D01*
X190722153Y-112877600D01*
X191801847Y-112877600D01*
X192229534Y-112792528D01*
X192592110Y-112550263D01*
X192834375Y-112187687D01*
X192919447Y-111760000D01*
X192919447Y-114300000D01*
X192834375Y-113872313D01*
X192592110Y-113509737D01*
X192229534Y-113267472D01*
X191801847Y-113182400D01*
X190722153Y-113182400D01*
X190294466Y-113267472D01*
X189931890Y-113509737D01*
X189689625Y-113872313D01*
X189604553Y-114300000D01*
X189689625Y-114727687D01*
X189931890Y-115090263D01*
X190294466Y-115332528D01*
X190722153Y-115417600D01*
X191801847Y-115417600D01*
X192229534Y-115332528D01*
X192592110Y-115090263D01*
X192834375Y-114727687D01*
X192919447Y-114300000D01*
X192919447Y-116840000D01*
X192834375Y-116412313D01*
X192592110Y-116049737D01*
X192229534Y-115807472D01*
X191801847Y-115722400D01*
X190722153Y-115722400D01*
X190294466Y-115807472D01*
X189931890Y-116049737D01*
X189689625Y-116412313D01*
X189604553Y-116840000D01*
X189689625Y-117267687D01*
X189931890Y-117630263D01*
X190294466Y-117872528D01*
X190722153Y-117957600D01*
X191801847Y-117957600D01*
X192229534Y-117872528D01*
X192592110Y-117630263D01*
X192834375Y-117267687D01*
X192919447Y-116840000D01*
X192919447Y-119380000D01*
X192834375Y-118952313D01*
X192592110Y-118589737D01*
X192229534Y-118347472D01*
X191801847Y-118262400D01*
X190722153Y-118262400D01*
X190294466Y-118347472D01*
X189931890Y-118589737D01*
X189689625Y-118952313D01*
X189604553Y-119380000D01*
X189689625Y-119807687D01*
X189931890Y-120170263D01*
X190294466Y-120412528D01*
X190722153Y-120497600D01*
X191801847Y-120497600D01*
X192229534Y-120412528D01*
X192592110Y-120170263D01*
X192834375Y-119807687D01*
X192919447Y-119380000D01*
X192919447Y-121920000D01*
X192834375Y-121492313D01*
X192592110Y-121129737D01*
X192229534Y-120887472D01*
X191801847Y-120802400D01*
X190722153Y-120802400D01*
X190294466Y-120887472D01*
X189931890Y-121129737D01*
X189689625Y-121492313D01*
X189627722Y-121803518D01*
X189316000Y-121491796D01*
X189316000Y-110982400D01*
X189269597Y-110749116D01*
X189137452Y-110551348D01*
X188299938Y-109713834D01*
X188322567Y-109601000D01*
X188322567Y-108331000D01*
X188296259Y-108195411D01*
X188217977Y-108076241D01*
X188099799Y-107996469D01*
X187960000Y-107968433D01*
X187692171Y-107968433D01*
X189026352Y-106634252D01*
X189158497Y-106436484D01*
X189204900Y-106203200D01*
X189204900Y-100330000D01*
X189158497Y-100096716D01*
X189026352Y-99898948D01*
X188828584Y-99766803D01*
X188595300Y-99720400D01*
X188377211Y-99720400D01*
X188357528Y-99621442D01*
X188115263Y-99258866D01*
X187934600Y-99138151D01*
X187934600Y-92403000D01*
X187888197Y-92169716D01*
X187756052Y-91971948D01*
X186537900Y-90753796D01*
X186537900Y-86995000D01*
X186491497Y-86761716D01*
X186359352Y-86563948D01*
X186161584Y-86431803D01*
X185928300Y-86385400D01*
X185630472Y-86385400D01*
X185431753Y-86087994D01*
X185015615Y-85809940D01*
X184759600Y-85759015D01*
X184759600Y-85559600D01*
X184713197Y-85326316D01*
X184581052Y-85128548D01*
X184579152Y-85126648D01*
X184420131Y-85020393D01*
X184420131Y-84942700D01*
X186310838Y-84942700D01*
X186802869Y-85434731D01*
X186984156Y-85555864D01*
X186984157Y-85555864D01*
X187198000Y-85598400D01*
X189912738Y-85598400D01*
X189689625Y-85932313D01*
X189604553Y-86360000D01*
X189689625Y-86787687D01*
X189931890Y-87150263D01*
X190294466Y-87392528D01*
X190722153Y-87477600D01*
X191801847Y-87477600D01*
X192229534Y-87392528D01*
X192592110Y-87150263D01*
X192834375Y-86787687D01*
X192919447Y-86360000D01*
X192834375Y-85932313D01*
X192687108Y-85711912D01*
X192712752Y-85722561D01*
X193031052Y-85722839D01*
X193325228Y-85601287D01*
X193550496Y-85376412D01*
X193672561Y-85082448D01*
X193672839Y-84764148D01*
X193655540Y-84722283D01*
X193850466Y-84852528D01*
X194278153Y-84937600D01*
X195357847Y-84937600D01*
X195785534Y-84852528D01*
X196148110Y-84610263D01*
X196390375Y-84247687D01*
X196475447Y-83820000D01*
X196475447Y-81280000D01*
X196390375Y-80852313D01*
X196148110Y-80489737D01*
X195785534Y-80247472D01*
X195357847Y-80162400D01*
X194278153Y-80162400D01*
X193850466Y-80247472D01*
X193487890Y-80489737D01*
X193245625Y-80852313D01*
X193160553Y-81280000D01*
X193245625Y-81707687D01*
X193487890Y-82070263D01*
X193850466Y-82312528D01*
X194278153Y-82397600D01*
X195357847Y-82397600D01*
X195785534Y-82312528D01*
X196148110Y-82070263D01*
X196390375Y-81707687D01*
X196475447Y-81280000D01*
X196475447Y-83820000D01*
X196390375Y-83392313D01*
X196148110Y-83029737D01*
X195785534Y-82787472D01*
X195357847Y-82702400D01*
X194278153Y-82702400D01*
X193850466Y-82787472D01*
X193487890Y-83029737D01*
X193245625Y-83392313D01*
X193160553Y-83820000D01*
X193237704Y-84207869D01*
X193032448Y-84122639D01*
X192859278Y-84122487D01*
X192919447Y-83820000D01*
X192834375Y-83392313D01*
X192592110Y-83029737D01*
X192229534Y-82787472D01*
X191801847Y-82702400D01*
X190722153Y-82702400D01*
X190294466Y-82787472D01*
X189931890Y-83029737D01*
X189689625Y-83392313D01*
X189604553Y-83820000D01*
X189689625Y-84247687D01*
X189845385Y-84480800D01*
X187429462Y-84480800D01*
X186937431Y-83988769D01*
X186756144Y-83867636D01*
X186542300Y-83825100D01*
X184420131Y-83825100D01*
X184420131Y-83718400D01*
X184410332Y-83667900D01*
X187111100Y-83667900D01*
X187324943Y-83625364D01*
X187324944Y-83625364D01*
X187506231Y-83504231D01*
X189625442Y-81385019D01*
X189689625Y-81707687D01*
X189931890Y-82070263D01*
X190294466Y-82312528D01*
X190722153Y-82397600D01*
X191801847Y-82397600D01*
X192229534Y-82312528D01*
X192592110Y-82070263D01*
X192834375Y-81707687D01*
X192919447Y-81280000D01*
X192834375Y-80852313D01*
X192592110Y-80489737D01*
X192234510Y-80250797D01*
X192286264Y-80173344D01*
X192328800Y-79959500D01*
X192328800Y-79716768D01*
X192560263Y-79562110D01*
X192802528Y-79199534D01*
X192887600Y-78771847D01*
X192887600Y-77692153D01*
X192802528Y-77264466D01*
X192668113Y-77063300D01*
X193411886Y-77063300D01*
X193277472Y-77264466D01*
X193192400Y-77692153D01*
X193192400Y-78771847D01*
X193277472Y-79199534D01*
X193519737Y-79562110D01*
X193882313Y-79804375D01*
X194310000Y-79889447D01*
X194737687Y-79804375D01*
X195100263Y-79562110D01*
X195342528Y-79199534D01*
X195427600Y-78771847D01*
X195427600Y-77863462D01*
X196849700Y-79285562D01*
X196849700Y-80010000D01*
X196892236Y-80223844D01*
X197013369Y-80405131D01*
X197194656Y-80526264D01*
X197408500Y-80568800D01*
X197503433Y-80568800D01*
X197503433Y-81280000D01*
X197529741Y-81415589D01*
X197608023Y-81534759D01*
X197726201Y-81614531D01*
X197866000Y-81642567D01*
X199136000Y-81642567D01*
X199271589Y-81616259D01*
X199390759Y-81537977D01*
X199470531Y-81419799D01*
X199498567Y-81280000D01*
X199498567Y-78740000D01*
X199472259Y-78604411D01*
X199393977Y-78485241D01*
X199275799Y-78405469D01*
X199136000Y-78377433D01*
X197866000Y-78377433D01*
X197730411Y-78403741D01*
X197620562Y-78475900D01*
X195254031Y-76109369D01*
X195072744Y-75988236D01*
X195051950Y-75984100D01*
X211035900Y-75984100D01*
X211035900Y-129755900D01*
M02*
