G04 #@! TF.FileFunction,Legend,Bot*
%FSLAX46Y46*%
G04 Gerber Fmt 4.6, Leading zero omitted, Abs format (unit mm)*
G04 Created by KiCad (PCBNEW 0.201504221001+5618~22~ubuntu14.04.1-product) date Fri 01 May 2015 04:41:33 PM EDT*
%MOMM*%
G01*
G04 APERTURE LIST*
%ADD10C,0.100000*%
%ADD11C,0.228600*%
%ADD12C,0.127000*%
%ADD13C,0.381000*%
%ADD14C,0.254000*%
%ADD15O,2.540000X1.854200*%
%ADD16R,2.540000X1.854200*%
%ADD17O,1.854200X2.540000*%
%ADD18R,1.854200X2.540000*%
%ADD19O,4.445000X3.175000*%
%ADD20O,1.524000X2.032000*%
%ADD21O,5.080000X3.048000*%
%ADD22O,2.032000X1.524000*%
%ADD23R,2.540000X1.270000*%
%ADD24C,3.937000*%
%ADD25O,1.524000X2.540000*%
%ADD26O,2.540000X1.524000*%
%ADD27C,1.930400*%
%ADD28O,4.572000X3.556000*%
%ADD29O,4.064000X5.080000*%
%ADD30O,5.080000X3.556000*%
%ADD31R,1.270000X2.540000*%
%ADD32R,0.762000X1.534160*%
G04 APERTURE END LIST*
D10*
D11*
X211455000Y-75565000D02*
X93345000Y-75565000D01*
X211455000Y-130175000D02*
X211455000Y-75565000D01*
X93345000Y-130175000D02*
X211455000Y-130175000D01*
X93345000Y-75565000D02*
X93345000Y-130175000D01*
D12*
X188087000Y-111252000D02*
X188087000Y-112776000D01*
X188087000Y-112776000D02*
X185293000Y-112776000D01*
X185293000Y-112776000D02*
X185293000Y-111252000D01*
X185293000Y-109728000D02*
X185293000Y-108204000D01*
X185293000Y-108204000D02*
X188087000Y-108204000D01*
X188087000Y-108204000D02*
X188087000Y-109728000D01*
X203708000Y-94107000D02*
X202184000Y-94107000D01*
X202184000Y-94107000D02*
X202184000Y-91313000D01*
X202184000Y-91313000D02*
X203708000Y-91313000D01*
X205232000Y-91313000D02*
X206756000Y-91313000D01*
X206756000Y-91313000D02*
X206756000Y-94107000D01*
X206756000Y-94107000D02*
X205232000Y-94107000D01*
X206502000Y-117602000D02*
X206502000Y-119126000D01*
X206502000Y-119126000D02*
X203708000Y-119126000D01*
X203708000Y-119126000D02*
X203708000Y-117602000D01*
X203708000Y-116078000D02*
X203708000Y-114554000D01*
X203708000Y-114554000D02*
X206502000Y-114554000D01*
X206502000Y-114554000D02*
X206502000Y-116078000D01*
X106172000Y-124968000D02*
X107696000Y-124968000D01*
X107696000Y-124968000D02*
X107696000Y-127762000D01*
X107696000Y-127762000D02*
X106172000Y-127762000D01*
X104648000Y-127762000D02*
X103124000Y-127762000D01*
X103124000Y-127762000D02*
X103124000Y-124968000D01*
X103124000Y-124968000D02*
X104648000Y-124968000D01*
X171323000Y-82423000D02*
X171323000Y-80899000D01*
X171323000Y-80899000D02*
X174117000Y-80899000D01*
X174117000Y-80899000D02*
X174117000Y-82423000D01*
X174117000Y-83947000D02*
X174117000Y-85471000D01*
X174117000Y-85471000D02*
X171323000Y-85471000D01*
X171323000Y-85471000D02*
X171323000Y-83947000D01*
X199263000Y-81407000D02*
X197739000Y-81407000D01*
X197739000Y-81407000D02*
X197739000Y-78613000D01*
X197739000Y-78613000D02*
X199263000Y-78613000D01*
X200787000Y-78613000D02*
X202311000Y-78613000D01*
X202311000Y-78613000D02*
X202311000Y-81407000D01*
X202311000Y-81407000D02*
X200787000Y-81407000D01*
X186182000Y-120777000D02*
X186182000Y-122301000D01*
X186182000Y-122301000D02*
X183388000Y-122301000D01*
X183388000Y-122301000D02*
X183388000Y-120777000D01*
X183388000Y-119253000D02*
X183388000Y-117729000D01*
X183388000Y-117729000D02*
X186182000Y-117729000D01*
X186182000Y-117729000D02*
X186182000Y-119253000D01*
X177038000Y-119253000D02*
X177038000Y-117729000D01*
X177038000Y-117729000D02*
X179832000Y-117729000D01*
X179832000Y-117729000D02*
X179832000Y-119253000D01*
X179832000Y-120777000D02*
X179832000Y-122301000D01*
X179832000Y-122301000D02*
X177038000Y-122301000D01*
X177038000Y-122301000D02*
X177038000Y-120777000D01*
D13*
X178816000Y-83185000D02*
X176784000Y-83185000D01*
D11*
X179578000Y-84709000D02*
X179578000Y-84201000D01*
X179832000Y-84455000D02*
X179324000Y-84455000D01*
D13*
X183896000Y-83185000D02*
X181864000Y-83185000D01*
D11*
X184658000Y-84709000D02*
X184658000Y-84201000D01*
X184912000Y-84455000D02*
X184404000Y-84455000D01*
D14*
X189435619Y-110320667D02*
X188951810Y-109982001D01*
X189435619Y-109740096D02*
X188419619Y-109740096D01*
X188419619Y-110127143D01*
X188468000Y-110223905D01*
X188516381Y-110272286D01*
X188613143Y-110320667D01*
X188758286Y-110320667D01*
X188855048Y-110272286D01*
X188903429Y-110223905D01*
X188951810Y-110127143D01*
X188951810Y-109740096D01*
X188419619Y-110659334D02*
X188419619Y-111288286D01*
X188806667Y-110949620D01*
X188806667Y-111094762D01*
X188855048Y-111191524D01*
X188903429Y-111239905D01*
X189000190Y-111288286D01*
X189242095Y-111288286D01*
X189338857Y-111239905D01*
X189387238Y-111191524D01*
X189435619Y-111094762D01*
X189435619Y-110804477D01*
X189387238Y-110707715D01*
X189338857Y-110659334D01*
X183847619Y-109111143D02*
X183847619Y-108627334D01*
X184331429Y-108578953D01*
X184283048Y-108627334D01*
X184234667Y-108724096D01*
X184234667Y-108966000D01*
X184283048Y-109062762D01*
X184331429Y-109111143D01*
X184428190Y-109159524D01*
X184670095Y-109159524D01*
X184766857Y-109111143D01*
X184815238Y-109062762D01*
X184863619Y-108966000D01*
X184863619Y-108724096D01*
X184815238Y-108627334D01*
X184766857Y-108578953D01*
X184766857Y-109594953D02*
X184815238Y-109643334D01*
X184863619Y-109594953D01*
X184815238Y-109546572D01*
X184766857Y-109594953D01*
X184863619Y-109594953D01*
X184863619Y-110610953D02*
X184863619Y-110030382D01*
X184863619Y-110320668D02*
X183847619Y-110320668D01*
X183992762Y-110223906D01*
X184089524Y-110127144D01*
X184137905Y-110030382D01*
X184863619Y-111578572D02*
X184863619Y-110998001D01*
X184863619Y-111288287D02*
X183847619Y-111288287D01*
X183992762Y-111191525D01*
X184089524Y-111094763D01*
X184137905Y-110998001D01*
X184863619Y-112014001D02*
X183847619Y-112014001D01*
X184476571Y-112110763D02*
X184863619Y-112401048D01*
X184186286Y-112401048D02*
X184573333Y-112014001D01*
X204639333Y-95358857D02*
X204687714Y-95407238D01*
X204832857Y-95455619D01*
X204929619Y-95455619D01*
X205074761Y-95407238D01*
X205171523Y-95310476D01*
X205219904Y-95213714D01*
X205268285Y-95020190D01*
X205268285Y-94875048D01*
X205219904Y-94681524D01*
X205171523Y-94584762D01*
X205074761Y-94488000D01*
X204929619Y-94439619D01*
X204832857Y-94439619D01*
X204687714Y-94488000D01*
X204639333Y-94536381D01*
X203671714Y-95455619D02*
X204252285Y-95455619D01*
X203961999Y-95455619D02*
X203961999Y-94439619D01*
X204058761Y-94584762D01*
X204155523Y-94681524D01*
X204252285Y-94729905D01*
X205558571Y-90883619D02*
X206139142Y-90883619D01*
X205848856Y-90883619D02*
X205848856Y-89867619D01*
X205945618Y-90012762D01*
X206042380Y-90109524D01*
X206139142Y-90157905D01*
X204929618Y-89867619D02*
X204832857Y-89867619D01*
X204736095Y-89916000D01*
X204687714Y-89964381D01*
X204639333Y-90061143D01*
X204590952Y-90254667D01*
X204590952Y-90496571D01*
X204639333Y-90690095D01*
X204687714Y-90786857D01*
X204736095Y-90835238D01*
X204832857Y-90883619D01*
X204929618Y-90883619D01*
X205026380Y-90835238D01*
X205074761Y-90786857D01*
X205123142Y-90690095D01*
X205171523Y-90496571D01*
X205171523Y-90254667D01*
X205123142Y-90061143D01*
X205074761Y-89964381D01*
X205026380Y-89916000D01*
X204929618Y-89867619D01*
X203720095Y-90206286D02*
X203720095Y-90883619D01*
X204155523Y-90206286D02*
X204155523Y-90738476D01*
X204107142Y-90835238D01*
X204010380Y-90883619D01*
X203865238Y-90883619D01*
X203768476Y-90835238D01*
X203720095Y-90786857D01*
X202897619Y-90351429D02*
X203236285Y-90351429D01*
X203236285Y-90883619D02*
X203236285Y-89867619D01*
X202752476Y-89867619D01*
X207753857Y-116670667D02*
X207802238Y-116622286D01*
X207850619Y-116477143D01*
X207850619Y-116380381D01*
X207802238Y-116235239D01*
X207705476Y-116138477D01*
X207608714Y-116090096D01*
X207415190Y-116041715D01*
X207270048Y-116041715D01*
X207076524Y-116090096D01*
X206979762Y-116138477D01*
X206883000Y-116235239D01*
X206834619Y-116380381D01*
X206834619Y-116477143D01*
X206883000Y-116622286D01*
X206931381Y-116670667D01*
X206931381Y-117057715D02*
X206883000Y-117106096D01*
X206834619Y-117202858D01*
X206834619Y-117444762D01*
X206883000Y-117541524D01*
X206931381Y-117589905D01*
X207028143Y-117638286D01*
X207124905Y-117638286D01*
X207270048Y-117589905D01*
X207850619Y-117009334D01*
X207850619Y-117638286D01*
X203278619Y-115751429D02*
X203278619Y-115170858D01*
X203278619Y-115461144D02*
X202262619Y-115461144D01*
X202407762Y-115364382D01*
X202504524Y-115267620D01*
X202552905Y-115170858D01*
X202262619Y-116380382D02*
X202262619Y-116477143D01*
X202311000Y-116573905D01*
X202359381Y-116622286D01*
X202456143Y-116670667D01*
X202649667Y-116719048D01*
X202891571Y-116719048D01*
X203085095Y-116670667D01*
X203181857Y-116622286D01*
X203230238Y-116573905D01*
X203278619Y-116477143D01*
X203278619Y-116380382D01*
X203230238Y-116283620D01*
X203181857Y-116235239D01*
X203085095Y-116186858D01*
X202891571Y-116138477D01*
X202649667Y-116138477D01*
X202456143Y-116186858D01*
X202359381Y-116235239D01*
X202311000Y-116283620D01*
X202262619Y-116380382D01*
X202601286Y-117589905D02*
X203278619Y-117589905D01*
X202601286Y-117154477D02*
X203133476Y-117154477D01*
X203230238Y-117202858D01*
X203278619Y-117299620D01*
X203278619Y-117444762D01*
X203230238Y-117541524D01*
X203181857Y-117589905D01*
X202746429Y-118412381D02*
X202746429Y-118073715D01*
X203278619Y-118073715D02*
X202262619Y-118073715D01*
X202262619Y-118557524D01*
X105579333Y-124441857D02*
X105627714Y-124490238D01*
X105772857Y-124538619D01*
X105869619Y-124538619D01*
X106014761Y-124490238D01*
X106111523Y-124393476D01*
X106159904Y-124296714D01*
X106208285Y-124103190D01*
X106208285Y-123958048D01*
X106159904Y-123764524D01*
X106111523Y-123667762D01*
X106014761Y-123571000D01*
X105869619Y-123522619D01*
X105772857Y-123522619D01*
X105627714Y-123571000D01*
X105579333Y-123619381D01*
X105240666Y-123522619D02*
X104611714Y-123522619D01*
X104950380Y-123909667D01*
X104805238Y-123909667D01*
X104708476Y-123958048D01*
X104660095Y-124006429D01*
X104611714Y-124103190D01*
X104611714Y-124345095D01*
X104660095Y-124441857D01*
X104708476Y-124490238D01*
X104805238Y-124538619D01*
X105095523Y-124538619D01*
X105192285Y-124490238D01*
X105240666Y-124441857D01*
X106498571Y-129110619D02*
X107079142Y-129110619D01*
X106788856Y-129110619D02*
X106788856Y-128094619D01*
X106885618Y-128239762D01*
X106982380Y-128336524D01*
X107079142Y-128384905D01*
X105869618Y-128094619D02*
X105772857Y-128094619D01*
X105676095Y-128143000D01*
X105627714Y-128191381D01*
X105579333Y-128288143D01*
X105530952Y-128481667D01*
X105530952Y-128723571D01*
X105579333Y-128917095D01*
X105627714Y-129013857D01*
X105676095Y-129062238D01*
X105772857Y-129110619D01*
X105869618Y-129110619D01*
X105966380Y-129062238D01*
X106014761Y-129013857D01*
X106063142Y-128917095D01*
X106111523Y-128723571D01*
X106111523Y-128481667D01*
X106063142Y-128288143D01*
X106014761Y-128191381D01*
X105966380Y-128143000D01*
X105869618Y-128094619D01*
X104660095Y-128433286D02*
X104660095Y-129110619D01*
X105095523Y-128433286D02*
X105095523Y-128965476D01*
X105047142Y-129062238D01*
X104950380Y-129110619D01*
X104805238Y-129110619D01*
X104708476Y-129062238D01*
X104660095Y-129013857D01*
X103837619Y-128578429D02*
X104176285Y-128578429D01*
X104176285Y-129110619D02*
X104176285Y-128094619D01*
X103692476Y-128094619D01*
X170796857Y-83015667D02*
X170845238Y-82967286D01*
X170893619Y-82822143D01*
X170893619Y-82725381D01*
X170845238Y-82580239D01*
X170748476Y-82483477D01*
X170651714Y-82435096D01*
X170458190Y-82386715D01*
X170313048Y-82386715D01*
X170119524Y-82435096D01*
X170022762Y-82483477D01*
X169926000Y-82580239D01*
X169877619Y-82725381D01*
X169877619Y-82822143D01*
X169926000Y-82967286D01*
X169974381Y-83015667D01*
X170216286Y-83886524D02*
X170893619Y-83886524D01*
X169829238Y-83644620D02*
X170554952Y-83402715D01*
X170554952Y-84031667D01*
X174449619Y-81515858D02*
X174449619Y-81612619D01*
X174498000Y-81709381D01*
X174546381Y-81757762D01*
X174643143Y-81806143D01*
X174836667Y-81854524D01*
X175078571Y-81854524D01*
X175272095Y-81806143D01*
X175368857Y-81757762D01*
X175417238Y-81709381D01*
X175465619Y-81612619D01*
X175465619Y-81515858D01*
X175417238Y-81419096D01*
X175368857Y-81370715D01*
X175272095Y-81322334D01*
X175078571Y-81273953D01*
X174836667Y-81273953D01*
X174643143Y-81322334D01*
X174546381Y-81370715D01*
X174498000Y-81419096D01*
X174449619Y-81515858D01*
X175368857Y-82289953D02*
X175417238Y-82338334D01*
X175465619Y-82289953D01*
X175417238Y-82241572D01*
X175368857Y-82289953D01*
X175465619Y-82289953D01*
X175465619Y-83305953D02*
X175465619Y-82725382D01*
X175465619Y-83015668D02*
X174449619Y-83015668D01*
X174594762Y-82918906D01*
X174691524Y-82822144D01*
X174739905Y-82725382D01*
X174788286Y-84176810D02*
X175465619Y-84176810D01*
X174788286Y-83741382D02*
X175320476Y-83741382D01*
X175417238Y-83789763D01*
X175465619Y-83886525D01*
X175465619Y-84031667D01*
X175417238Y-84128429D01*
X175368857Y-84176810D01*
X174933429Y-84999286D02*
X174933429Y-84660620D01*
X175465619Y-84660620D02*
X174449619Y-84660620D01*
X174449619Y-85144429D01*
X200194333Y-82658857D02*
X200242714Y-82707238D01*
X200387857Y-82755619D01*
X200484619Y-82755619D01*
X200629761Y-82707238D01*
X200726523Y-82610476D01*
X200774904Y-82513714D01*
X200823285Y-82320190D01*
X200823285Y-82175048D01*
X200774904Y-81981524D01*
X200726523Y-81884762D01*
X200629761Y-81788000D01*
X200484619Y-81739619D01*
X200387857Y-81739619D01*
X200242714Y-81788000D01*
X200194333Y-81836381D01*
X199275095Y-81739619D02*
X199758904Y-81739619D01*
X199807285Y-82223429D01*
X199758904Y-82175048D01*
X199662142Y-82126667D01*
X199420238Y-82126667D01*
X199323476Y-82175048D01*
X199275095Y-82223429D01*
X199226714Y-82320190D01*
X199226714Y-82562095D01*
X199275095Y-82658857D01*
X199323476Y-82707238D01*
X199420238Y-82755619D01*
X199662142Y-82755619D01*
X199758904Y-82707238D01*
X199807285Y-82658857D01*
X201694142Y-77167619D02*
X201597381Y-77167619D01*
X201500619Y-77216000D01*
X201452238Y-77264381D01*
X201403857Y-77361143D01*
X201355476Y-77554667D01*
X201355476Y-77796571D01*
X201403857Y-77990095D01*
X201452238Y-78086857D01*
X201500619Y-78135238D01*
X201597381Y-78183619D01*
X201694142Y-78183619D01*
X201790904Y-78135238D01*
X201839285Y-78086857D01*
X201887666Y-77990095D01*
X201936047Y-77796571D01*
X201936047Y-77554667D01*
X201887666Y-77361143D01*
X201839285Y-77264381D01*
X201790904Y-77216000D01*
X201694142Y-77167619D01*
X200920047Y-78086857D02*
X200871666Y-78135238D01*
X200920047Y-78183619D01*
X200968428Y-78135238D01*
X200920047Y-78086857D01*
X200920047Y-78183619D01*
X199904047Y-78183619D02*
X200484618Y-78183619D01*
X200194332Y-78183619D02*
X200194332Y-77167619D01*
X200291094Y-77312762D01*
X200387856Y-77409524D01*
X200484618Y-77457905D01*
X199033190Y-77506286D02*
X199033190Y-78183619D01*
X199468618Y-77506286D02*
X199468618Y-78038476D01*
X199420237Y-78135238D01*
X199323475Y-78183619D01*
X199178333Y-78183619D01*
X199081571Y-78135238D01*
X199033190Y-78086857D01*
X198210714Y-77651429D02*
X198549380Y-77651429D01*
X198549380Y-78183619D02*
X198549380Y-77167619D01*
X198065571Y-77167619D01*
X187530619Y-119845667D02*
X187046810Y-119507001D01*
X187530619Y-119265096D02*
X186514619Y-119265096D01*
X186514619Y-119652143D01*
X186563000Y-119748905D01*
X186611381Y-119797286D01*
X186708143Y-119845667D01*
X186853286Y-119845667D01*
X186950048Y-119797286D01*
X186998429Y-119748905D01*
X187046810Y-119652143D01*
X187046810Y-119265096D01*
X187530619Y-120813286D02*
X187530619Y-120232715D01*
X187530619Y-120523001D02*
X186514619Y-120523001D01*
X186659762Y-120426239D01*
X186756524Y-120329477D01*
X186804905Y-120232715D01*
X181942619Y-118636143D02*
X181942619Y-118152334D01*
X182426429Y-118103953D01*
X182378048Y-118152334D01*
X182329667Y-118249096D01*
X182329667Y-118491000D01*
X182378048Y-118587762D01*
X182426429Y-118636143D01*
X182523190Y-118684524D01*
X182765095Y-118684524D01*
X182861857Y-118636143D01*
X182910238Y-118587762D01*
X182958619Y-118491000D01*
X182958619Y-118249096D01*
X182910238Y-118152334D01*
X182861857Y-118103953D01*
X182861857Y-119119953D02*
X182910238Y-119168334D01*
X182958619Y-119119953D01*
X182910238Y-119071572D01*
X182861857Y-119119953D01*
X182958619Y-119119953D01*
X182958619Y-120135953D02*
X182958619Y-119555382D01*
X182958619Y-119845668D02*
X181942619Y-119845668D01*
X182087762Y-119748906D01*
X182184524Y-119652144D01*
X182232905Y-119555382D01*
X182958619Y-121103572D02*
X182958619Y-120523001D01*
X182958619Y-120813287D02*
X181942619Y-120813287D01*
X182087762Y-120716525D01*
X182184524Y-120619763D01*
X182232905Y-120523001D01*
X182958619Y-121539001D02*
X181942619Y-121539001D01*
X182571571Y-121635763D02*
X182958619Y-121926048D01*
X182281286Y-121926048D02*
X182668333Y-121539001D01*
X176608619Y-119845667D02*
X176124810Y-119507001D01*
X176608619Y-119265096D02*
X175592619Y-119265096D01*
X175592619Y-119652143D01*
X175641000Y-119748905D01*
X175689381Y-119797286D01*
X175786143Y-119845667D01*
X175931286Y-119845667D01*
X176028048Y-119797286D01*
X176076429Y-119748905D01*
X176124810Y-119652143D01*
X176124810Y-119265096D01*
X175689381Y-120232715D02*
X175641000Y-120281096D01*
X175592619Y-120377858D01*
X175592619Y-120619762D01*
X175641000Y-120716524D01*
X175689381Y-120764905D01*
X175786143Y-120813286D01*
X175882905Y-120813286D01*
X176028048Y-120764905D01*
X176608619Y-120184334D01*
X176608619Y-120813286D01*
X180164619Y-118636143D02*
X180164619Y-118152334D01*
X180648429Y-118103953D01*
X180600048Y-118152334D01*
X180551667Y-118249096D01*
X180551667Y-118491000D01*
X180600048Y-118587762D01*
X180648429Y-118636143D01*
X180745190Y-118684524D01*
X180987095Y-118684524D01*
X181083857Y-118636143D01*
X181132238Y-118587762D01*
X181180619Y-118491000D01*
X181180619Y-118249096D01*
X181132238Y-118152334D01*
X181083857Y-118103953D01*
X181083857Y-119119953D02*
X181132238Y-119168334D01*
X181180619Y-119119953D01*
X181132238Y-119071572D01*
X181083857Y-119119953D01*
X181180619Y-119119953D01*
X181180619Y-120135953D02*
X181180619Y-119555382D01*
X181180619Y-119845668D02*
X180164619Y-119845668D01*
X180309762Y-119748906D01*
X180406524Y-119652144D01*
X180454905Y-119555382D01*
X181180619Y-121103572D02*
X181180619Y-120523001D01*
X181180619Y-120813287D02*
X180164619Y-120813287D01*
X180309762Y-120716525D01*
X180406524Y-120619763D01*
X180454905Y-120523001D01*
X181180619Y-121539001D02*
X180164619Y-121539001D01*
X180793571Y-121635763D02*
X181180619Y-121926048D01*
X180503286Y-121926048D02*
X180890333Y-121539001D01*
D12*
X179299810Y-81527952D02*
X179711048Y-81527952D01*
X179759429Y-81552143D01*
X179783619Y-81576333D01*
X179807810Y-81624714D01*
X179807810Y-81721476D01*
X179783619Y-81769857D01*
X179759429Y-81794048D01*
X179711048Y-81818238D01*
X179299810Y-81818238D01*
X179807810Y-82326238D02*
X179807810Y-82035952D01*
X179807810Y-82181095D02*
X179299810Y-82181095D01*
X179372381Y-82132714D01*
X179420762Y-82084333D01*
X179444952Y-82035952D01*
X176251810Y-81588427D02*
X175743810Y-81588427D01*
X176106667Y-81757761D01*
X175743810Y-81927094D01*
X176251810Y-81927094D01*
X176106667Y-82144808D02*
X176106667Y-82386713D01*
X176251810Y-82096427D02*
X175743810Y-82265760D01*
X176251810Y-82435094D01*
X175743810Y-82556046D02*
X176251810Y-82894713D01*
X175743810Y-82894713D02*
X176251810Y-82556046D01*
X175743810Y-83305952D02*
X175743810Y-83209190D01*
X175768000Y-83160809D01*
X175792190Y-83136618D01*
X175864762Y-83088237D01*
X175961524Y-83064047D01*
X176155048Y-83064047D01*
X176203429Y-83088237D01*
X176227619Y-83112428D01*
X176251810Y-83160809D01*
X176251810Y-83257571D01*
X176227619Y-83305952D01*
X176203429Y-83330142D01*
X176155048Y-83354333D01*
X176034095Y-83354333D01*
X175985714Y-83330142D01*
X175961524Y-83305952D01*
X175937333Y-83257571D01*
X175937333Y-83160809D01*
X175961524Y-83112428D01*
X175985714Y-83088237D01*
X176034095Y-83064047D01*
X175961524Y-83644619D02*
X175937333Y-83596238D01*
X175913143Y-83572047D01*
X175864762Y-83547857D01*
X175840571Y-83547857D01*
X175792190Y-83572047D01*
X175768000Y-83596238D01*
X175743810Y-83644619D01*
X175743810Y-83741381D01*
X175768000Y-83789762D01*
X175792190Y-83813952D01*
X175840571Y-83838143D01*
X175864762Y-83838143D01*
X175913143Y-83813952D01*
X175937333Y-83789762D01*
X175961524Y-83741381D01*
X175961524Y-83644619D01*
X175985714Y-83596238D01*
X176009905Y-83572047D01*
X176058286Y-83547857D01*
X176155048Y-83547857D01*
X176203429Y-83572047D01*
X176227619Y-83596238D01*
X176251810Y-83644619D01*
X176251810Y-83741381D01*
X176227619Y-83789762D01*
X176203429Y-83813952D01*
X176155048Y-83838143D01*
X176058286Y-83838143D01*
X176009905Y-83813952D01*
X175985714Y-83789762D01*
X175961524Y-83741381D01*
X176251810Y-84321953D02*
X176251810Y-84031667D01*
X176251810Y-84176810D02*
X175743810Y-84176810D01*
X175816381Y-84128429D01*
X175864762Y-84080048D01*
X175888952Y-84031667D01*
X175743810Y-84491286D02*
X175743810Y-84829953D01*
X176251810Y-84612239D01*
X184379810Y-81527952D02*
X184791048Y-81527952D01*
X184839429Y-81552143D01*
X184863619Y-81576333D01*
X184887810Y-81624714D01*
X184887810Y-81721476D01*
X184863619Y-81769857D01*
X184839429Y-81794048D01*
X184791048Y-81818238D01*
X184379810Y-81818238D01*
X184428190Y-82035952D02*
X184404000Y-82060142D01*
X184379810Y-82108523D01*
X184379810Y-82229476D01*
X184404000Y-82277857D01*
X184428190Y-82302047D01*
X184476571Y-82326238D01*
X184524952Y-82326238D01*
X184597524Y-82302047D01*
X184887810Y-82011761D01*
X184887810Y-82326238D01*
X181331810Y-81588427D02*
X180823810Y-81588427D01*
X181186667Y-81757761D01*
X180823810Y-81927094D01*
X181331810Y-81927094D01*
X181186667Y-82144808D02*
X181186667Y-82386713D01*
X181331810Y-82096427D02*
X180823810Y-82265760D01*
X181331810Y-82435094D01*
X180823810Y-82556046D02*
X181331810Y-82894713D01*
X180823810Y-82894713D02*
X181331810Y-82556046D01*
X180823810Y-83305952D02*
X180823810Y-83209190D01*
X180848000Y-83160809D01*
X180872190Y-83136618D01*
X180944762Y-83088237D01*
X181041524Y-83064047D01*
X181235048Y-83064047D01*
X181283429Y-83088237D01*
X181307619Y-83112428D01*
X181331810Y-83160809D01*
X181331810Y-83257571D01*
X181307619Y-83305952D01*
X181283429Y-83330142D01*
X181235048Y-83354333D01*
X181114095Y-83354333D01*
X181065714Y-83330142D01*
X181041524Y-83305952D01*
X181017333Y-83257571D01*
X181017333Y-83160809D01*
X181041524Y-83112428D01*
X181065714Y-83088237D01*
X181114095Y-83064047D01*
X181041524Y-83644619D02*
X181017333Y-83596238D01*
X180993143Y-83572047D01*
X180944762Y-83547857D01*
X180920571Y-83547857D01*
X180872190Y-83572047D01*
X180848000Y-83596238D01*
X180823810Y-83644619D01*
X180823810Y-83741381D01*
X180848000Y-83789762D01*
X180872190Y-83813952D01*
X180920571Y-83838143D01*
X180944762Y-83838143D01*
X180993143Y-83813952D01*
X181017333Y-83789762D01*
X181041524Y-83741381D01*
X181041524Y-83644619D01*
X181065714Y-83596238D01*
X181089905Y-83572047D01*
X181138286Y-83547857D01*
X181235048Y-83547857D01*
X181283429Y-83572047D01*
X181307619Y-83596238D01*
X181331810Y-83644619D01*
X181331810Y-83741381D01*
X181307619Y-83789762D01*
X181283429Y-83813952D01*
X181235048Y-83838143D01*
X181138286Y-83838143D01*
X181089905Y-83813952D01*
X181065714Y-83789762D01*
X181041524Y-83741381D01*
X181331810Y-84321953D02*
X181331810Y-84031667D01*
X181331810Y-84176810D02*
X180823810Y-84176810D01*
X180896381Y-84128429D01*
X180944762Y-84080048D01*
X180968952Y-84031667D01*
X180823810Y-84491286D02*
X180823810Y-84829953D01*
X181331810Y-84612239D01*
%LPC*%
D15*
X184150000Y-86995000D03*
D16*
X184150000Y-89535000D03*
D17*
X104140000Y-121920000D03*
X106680000Y-121920000D03*
D18*
X101600000Y-121920000D03*
D19*
X181610000Y-102870000D03*
X181610000Y-107569000D03*
D20*
X187325000Y-105410000D03*
X187325000Y-100330000D03*
D21*
X99060000Y-107950000D03*
X99060000Y-97790000D03*
D22*
X105156000Y-102870000D03*
D20*
X107950000Y-102870000D03*
X107950000Y-100076000D03*
X107950000Y-105664000D03*
D23*
X186690000Y-112014000D03*
X186690000Y-108966000D03*
D24*
X111760000Y-127000000D03*
X113030000Y-78740000D03*
X194310000Y-127000000D03*
X187960000Y-78740000D03*
D25*
X125730000Y-127000000D03*
X128270000Y-127000000D03*
X130810000Y-127000000D03*
X133350000Y-127000000D03*
X135890000Y-127000000D03*
X138430000Y-127000000D03*
X140970000Y-127000000D03*
X143510000Y-127000000D03*
X148590000Y-127000000D03*
X151130000Y-127000000D03*
X153670000Y-127000000D03*
X156210000Y-127000000D03*
X158750000Y-127000000D03*
X161290000Y-127000000D03*
X163830000Y-127000000D03*
X166370000Y-127000000D03*
X171450000Y-127000000D03*
X173990000Y-127000000D03*
X176530000Y-127000000D03*
X179070000Y-127000000D03*
X181610000Y-127000000D03*
X184150000Y-127000000D03*
X186690000Y-127000000D03*
X189230000Y-127000000D03*
X116586000Y-78740000D03*
X119126000Y-78740000D03*
X121666000Y-78740000D03*
X124206000Y-78740000D03*
X126746000Y-78740000D03*
X129286000Y-78740000D03*
X131826000Y-78740000D03*
X134366000Y-78740000D03*
X136906000Y-78740000D03*
X139446000Y-78740000D03*
X143510000Y-78740000D03*
X161290000Y-78740000D03*
X158750000Y-78740000D03*
X156210000Y-78740000D03*
X153670000Y-78740000D03*
X151130000Y-78740000D03*
X148590000Y-78740000D03*
X146050000Y-78740000D03*
X166370000Y-78740000D03*
X168910000Y-78740000D03*
X171450000Y-78740000D03*
X173990000Y-78740000D03*
X176530000Y-78740000D03*
X179070000Y-78740000D03*
X181610000Y-78740000D03*
X184150000Y-78740000D03*
X191770000Y-78232000D03*
X194310000Y-78232000D03*
D26*
X191262000Y-81280000D03*
X194818000Y-81280000D03*
X191262000Y-83820000D03*
X194818000Y-83820000D03*
X191262000Y-86360000D03*
X194818000Y-86360000D03*
X191262000Y-88900000D03*
X194818000Y-88900000D03*
X191262000Y-91440000D03*
X194818000Y-91440000D03*
X191262000Y-93980000D03*
X194818000Y-93980000D03*
X191262000Y-96520000D03*
X194818000Y-96520000D03*
X191262000Y-99060000D03*
X194818000Y-99060000D03*
X191262000Y-101600000D03*
X194818000Y-101600000D03*
X191262000Y-104140000D03*
X194818000Y-104140000D03*
X191262000Y-106680000D03*
X194818000Y-106680000D03*
X191262000Y-109220000D03*
X194818000Y-109220000D03*
X191262000Y-111760000D03*
X194818000Y-111760000D03*
X191262000Y-114300000D03*
X194818000Y-114300000D03*
X191262000Y-116840000D03*
X194818000Y-116840000D03*
X191262000Y-119380000D03*
X194818000Y-119380000D03*
X191262000Y-121920000D03*
X194818000Y-121920000D03*
X200025000Y-115570000D03*
X200025000Y-118110000D03*
X200025000Y-113030000D03*
D27*
X208457800Y-102870000D03*
D28*
X204952600Y-102870000D03*
D29*
X199466200Y-102870000D03*
D30*
X206451200Y-98374200D03*
X206451200Y-107365800D03*
D31*
X202946000Y-92710000D03*
X205994000Y-92710000D03*
D23*
X205105000Y-118364000D03*
X205105000Y-115316000D03*
D31*
X106934000Y-126365000D03*
X103886000Y-126365000D03*
D23*
X172720000Y-81661000D03*
X172720000Y-84709000D03*
D31*
X198501000Y-80010000D03*
X201549000Y-80010000D03*
D23*
X184785000Y-121539000D03*
X184785000Y-118491000D03*
X178435000Y-118491000D03*
X178435000Y-121539000D03*
D32*
X178749960Y-84383880D03*
X177800000Y-84383880D03*
X176850040Y-84383880D03*
X176850040Y-81986120D03*
X177800000Y-81986120D03*
X178749960Y-81986120D03*
X183829960Y-84383880D03*
X182880000Y-84383880D03*
X181930040Y-84383880D03*
X181930040Y-81986120D03*
X182880000Y-81986120D03*
X183829960Y-81986120D03*
M02*
