G04 #@! TF.FileFunction,Copper,L1,Top,Signal*
%FSLAX46Y46*%
G04 Gerber Fmt 4.6, Leading zero omitted, Abs format (unit mm)*
G04 Created by KiCad (PCBNEW 0.201505061231+5645~23~ubuntu14.04.1-product) date Fri 08 May 2015 03:52:48 PM EDT*
%MOMM*%
G01*
G04 APERTURE LIST*
%ADD10C,0.100000*%
%ADD11C,0.228600*%
%ADD12R,1.590040X2.667000*%
%ADD13O,2.540000X1.854200*%
%ADD14R,2.540000X1.854200*%
%ADD15O,1.854200X2.540000*%
%ADD16R,1.854200X2.540000*%
%ADD17O,4.445000X3.175000*%
%ADD18O,1.524000X2.032000*%
%ADD19O,5.080000X3.048000*%
%ADD20O,2.032000X1.524000*%
%ADD21C,3.937000*%
%ADD22O,1.524000X2.540000*%
%ADD23O,2.540000X1.524000*%
%ADD24C,1.930400*%
%ADD25O,4.572000X3.556000*%
%ADD26O,4.064000X5.080000*%
%ADD27O,5.080000X3.556000*%
%ADD28R,1.498600X2.997200*%
%ADD29R,1.016000X4.495800*%
%ADD30C,0.889000*%
%ADD31C,1.016000*%
%ADD32C,0.508000*%
%ADD33C,0.812800*%
%ADD34C,0.406400*%
%ADD35C,0.203200*%
G04 APERTURE END LIST*
D10*
D11*
X211455000Y-75565000D02*
X93345000Y-75565000D01*
X211455000Y-130175000D02*
X211455000Y-75565000D01*
X93345000Y-130175000D02*
X211455000Y-130175000D01*
X93345000Y-75565000D02*
X93345000Y-130175000D01*
D12*
X198026020Y-84137500D03*
X198026020Y-92392500D03*
X202023980Y-84137500D03*
X202023980Y-92392500D03*
D13*
X184150000Y-86995000D03*
D14*
X184150000Y-89535000D03*
D15*
X104140000Y-121920000D03*
X106680000Y-121920000D03*
D16*
X101600000Y-121920000D03*
D17*
X181610000Y-102870000D03*
X181610000Y-107569000D03*
D18*
X187325000Y-105410000D03*
X187325000Y-100330000D03*
D19*
X99060000Y-107950000D03*
X99060000Y-97790000D03*
D20*
X105156000Y-102870000D03*
D18*
X107950000Y-102870000D03*
X107950000Y-100076000D03*
X107950000Y-105664000D03*
D21*
X111760000Y-127000000D03*
X113030000Y-78740000D03*
X194310000Y-127000000D03*
X187960000Y-78740000D03*
D22*
X125730000Y-127000000D03*
X128270000Y-127000000D03*
X130810000Y-127000000D03*
X133350000Y-127000000D03*
X135890000Y-127000000D03*
X138430000Y-127000000D03*
X140970000Y-127000000D03*
X143510000Y-127000000D03*
X148590000Y-127000000D03*
X151130000Y-127000000D03*
X153670000Y-127000000D03*
X156210000Y-127000000D03*
X158750000Y-127000000D03*
X161290000Y-127000000D03*
X163830000Y-127000000D03*
X166370000Y-127000000D03*
X171450000Y-127000000D03*
X173990000Y-127000000D03*
X176530000Y-127000000D03*
X179070000Y-127000000D03*
X181610000Y-127000000D03*
X184150000Y-127000000D03*
X186690000Y-127000000D03*
X189230000Y-127000000D03*
X116586000Y-78740000D03*
X119126000Y-78740000D03*
X121666000Y-78740000D03*
X124206000Y-78740000D03*
X126746000Y-78740000D03*
X129286000Y-78740000D03*
X131826000Y-78740000D03*
X134366000Y-78740000D03*
X136906000Y-78740000D03*
X139446000Y-78740000D03*
X143510000Y-78740000D03*
X161290000Y-78740000D03*
X158750000Y-78740000D03*
X156210000Y-78740000D03*
X153670000Y-78740000D03*
X151130000Y-78740000D03*
X148590000Y-78740000D03*
X146050000Y-78740000D03*
X166370000Y-78740000D03*
X168910000Y-78740000D03*
X171450000Y-78740000D03*
X173990000Y-78740000D03*
X176530000Y-78740000D03*
X179070000Y-78740000D03*
X181610000Y-78740000D03*
X184150000Y-78740000D03*
X191770000Y-78232000D03*
X194310000Y-78232000D03*
D23*
X191262000Y-81280000D03*
X194818000Y-81280000D03*
X191262000Y-83820000D03*
X194818000Y-83820000D03*
X191262000Y-86360000D03*
X194818000Y-86360000D03*
X191262000Y-88900000D03*
X194818000Y-88900000D03*
X191262000Y-91440000D03*
X194818000Y-91440000D03*
X191262000Y-93980000D03*
X194818000Y-93980000D03*
X191262000Y-96520000D03*
X194818000Y-96520000D03*
X191262000Y-99060000D03*
X194818000Y-99060000D03*
X191262000Y-101600000D03*
X194818000Y-101600000D03*
X191262000Y-104140000D03*
X194818000Y-104140000D03*
X191262000Y-106680000D03*
X194818000Y-106680000D03*
X191262000Y-109220000D03*
X194818000Y-109220000D03*
X191262000Y-111760000D03*
X194818000Y-111760000D03*
X191262000Y-114300000D03*
X194818000Y-114300000D03*
X191262000Y-116840000D03*
X194818000Y-116840000D03*
X191262000Y-119380000D03*
X194818000Y-119380000D03*
X191262000Y-121920000D03*
X194818000Y-121920000D03*
D24*
X208457800Y-102870000D03*
D25*
X204952600Y-102870000D03*
D26*
X199466200Y-102870000D03*
D27*
X206451200Y-98374200D03*
X206451200Y-107365800D03*
D28*
X178435000Y-117754400D03*
X179705000Y-122275600D03*
X180975000Y-117754400D03*
X182245000Y-122275600D03*
X183515000Y-117754400D03*
X184785000Y-122275600D03*
D29*
X132080000Y-99872800D03*
X132080000Y-105867200D03*
X129540000Y-99872800D03*
X129540000Y-105867200D03*
X127000000Y-99872800D03*
X127000000Y-105867200D03*
X124460000Y-99872800D03*
X124460000Y-105867200D03*
X121920000Y-99872800D03*
X121920000Y-105867200D03*
X132080000Y-113842800D03*
X132080000Y-119837200D03*
X129540000Y-113842800D03*
X129540000Y-119837200D03*
X127000000Y-113842800D03*
X127000000Y-119837200D03*
X124460000Y-113842800D03*
X124460000Y-119837200D03*
X121920000Y-113842800D03*
X121920000Y-119837200D03*
X166370000Y-119837200D03*
X166370000Y-113842800D03*
X151130000Y-119837200D03*
X151130000Y-113842800D03*
X163830000Y-113842800D03*
X163830000Y-119837200D03*
X161290000Y-113842800D03*
X161290000Y-119837200D03*
X158750000Y-113842800D03*
X158750000Y-119837200D03*
X156210000Y-113842800D03*
X156210000Y-119837200D03*
X153670000Y-113842800D03*
X153670000Y-119837200D03*
X166370000Y-105867200D03*
X166370000Y-99872800D03*
X151130000Y-105867200D03*
X151130000Y-99872800D03*
X163830000Y-99872800D03*
X163830000Y-105867200D03*
X161290000Y-99872800D03*
X161290000Y-105867200D03*
X158750000Y-99872800D03*
X158750000Y-105867200D03*
X156210000Y-99872800D03*
X156210000Y-105867200D03*
X153670000Y-99872800D03*
X153670000Y-105867200D03*
X166370000Y-91897200D03*
X166370000Y-85902800D03*
X151130000Y-91897200D03*
X151130000Y-85902800D03*
X163830000Y-85902800D03*
X163830000Y-91897200D03*
X161290000Y-85902800D03*
X161290000Y-91897200D03*
X158750000Y-85902800D03*
X158750000Y-91897200D03*
X156210000Y-85902800D03*
X156210000Y-91897200D03*
X153670000Y-85902800D03*
X153670000Y-91897200D03*
X134620000Y-91897200D03*
X134620000Y-85902800D03*
X119380000Y-91897200D03*
X119380000Y-85902800D03*
X132080000Y-85902800D03*
X132080000Y-91897200D03*
X129540000Y-85902800D03*
X129540000Y-91897200D03*
X127000000Y-85902800D03*
X127000000Y-91897200D03*
X124460000Y-85902800D03*
X124460000Y-91897200D03*
X121920000Y-85902800D03*
X121920000Y-91897200D03*
D30*
X149400200Y-90504400D03*
X162560000Y-88546300D03*
X149400200Y-106628000D03*
X181244900Y-111967800D03*
X208280000Y-114300000D03*
X177853600Y-86939700D03*
X165155500Y-90379000D03*
X174310200Y-86944600D03*
X189070100Y-120082000D03*
X184731100Y-120062400D03*
X162509300Y-112623500D03*
X161939600Y-102875900D03*
X180647000Y-115520400D03*
X179786000Y-120015100D03*
X183432200Y-115536300D03*
X177273900Y-107178100D03*
X186766200Y-121517600D03*
X189230800Y-85090000D03*
X139241100Y-117559900D03*
X138098800Y-116625600D03*
X128955800Y-110126000D03*
X131145000Y-111028000D03*
X126351000Y-109360400D03*
X125107900Y-109006400D03*
X123363900Y-109479300D03*
X123226200Y-108051700D03*
X154683200Y-125272500D03*
X130794400Y-113842800D03*
X128262300Y-114989100D03*
X123020800Y-111137400D03*
X123173200Y-118630200D03*
X120687100Y-109438200D03*
X123386400Y-122542600D03*
X122476000Y-82948800D03*
X156743600Y-82940900D03*
X169792300Y-83820000D03*
X154512000Y-82920200D03*
X167610800Y-84995600D03*
X152400000Y-91897200D03*
X172045300Y-90685900D03*
X152400000Y-89765000D03*
X169115700Y-91032100D03*
X160020000Y-97786700D03*
X173515600Y-92500400D03*
X159967400Y-104341600D03*
X176940100Y-93481100D03*
X158219300Y-96018300D03*
X168902500Y-94439100D03*
X157480000Y-104171300D03*
X173692000Y-95354000D03*
X153718100Y-96898500D03*
X167605900Y-96590300D03*
X152456100Y-105867200D03*
X169501600Y-97790000D03*
X152400000Y-97167400D03*
X167582300Y-98739400D03*
X152595300Y-110229700D03*
X169836200Y-100811400D03*
X186808200Y-102055100D03*
X157518800Y-115283000D03*
X171175500Y-113901000D03*
X157504800Y-113842800D03*
X168720200Y-115697700D03*
D31*
X163830000Y-99872800D02*
X166370000Y-99872800D01*
X163830000Y-85902800D02*
X166370000Y-85902800D01*
X163830000Y-113843000D02*
X163830200Y-113843000D01*
X163830200Y-113843000D02*
X163830000Y-113842800D01*
X163830200Y-113843000D02*
X166370000Y-113843000D01*
X166370000Y-99872800D02*
X166370000Y-96862600D01*
X181610000Y-102870000D02*
X178625200Y-102870000D01*
X169367200Y-102870000D02*
X178625200Y-102870000D01*
X166370000Y-99872800D02*
X169367200Y-102870000D01*
X166370000Y-95849500D02*
X166370000Y-96862600D01*
X167640300Y-94579200D02*
X166370000Y-95849500D01*
X167640300Y-87173100D02*
X167640300Y-94579200D01*
X166370000Y-85902800D02*
X167640300Y-87173100D01*
X166370000Y-113842800D02*
X166370000Y-113843000D01*
X132080000Y-85902800D02*
X134620000Y-85902800D01*
X144798600Y-85902800D02*
X149400200Y-90504400D01*
X134620000Y-85902800D02*
X144798600Y-85902800D01*
X163830000Y-87276300D02*
X163830000Y-85902800D01*
X162560000Y-88546300D02*
X163830000Y-87276300D01*
X143510000Y-127000000D02*
X143510000Y-124967700D01*
X168245000Y-111967800D02*
X166370000Y-113842800D01*
X181244900Y-111967800D02*
X168245000Y-111967800D01*
X149400200Y-119077500D02*
X143510000Y-124967700D01*
X149400200Y-106628000D02*
X149400200Y-119077500D01*
D32*
X166369800Y-105867000D02*
X166370000Y-105867000D01*
X166369800Y-105867000D02*
X166370000Y-105867200D01*
X163830000Y-119837100D02*
X163830000Y-119837200D01*
X163830100Y-119837000D02*
X163830000Y-119837100D01*
X202024000Y-99433400D02*
X202024000Y-92392500D01*
X205460600Y-102870000D02*
X202024000Y-99433400D01*
X129540000Y-91897200D02*
X132080000Y-91897200D01*
X163830000Y-105867000D02*
X163830000Y-105867200D01*
X161290000Y-105867000D02*
X163830000Y-105867000D01*
X163830000Y-105867000D02*
X166369800Y-105867000D01*
X109221300Y-104138700D02*
X107950000Y-105410000D01*
X109221300Y-101601300D02*
X109221300Y-104138700D01*
X107950000Y-100330000D02*
X109221300Y-101601300D01*
X161290000Y-119837000D02*
X161290200Y-119837000D01*
X161290200Y-119837000D02*
X163830100Y-119837000D01*
X161290200Y-119837000D02*
X161290000Y-119837200D01*
X163830100Y-119837000D02*
X166370000Y-119837000D01*
X161290000Y-105867000D02*
X161290000Y-105867200D01*
X166370000Y-119837000D02*
X166370000Y-119837200D01*
X178435000Y-117754400D02*
X178435000Y-119761300D01*
X178435000Y-119837000D02*
X166370000Y-119837000D01*
X178435000Y-119837000D02*
X178435000Y-119761300D01*
X132080000Y-91897200D02*
X133616800Y-91897200D01*
X133616800Y-91897200D02*
X134620000Y-91897200D01*
X184150000Y-86995000D02*
X182371700Y-86995000D01*
X182316400Y-86939700D02*
X177853600Y-86939700D01*
X182371700Y-86995000D02*
X182316400Y-86939700D01*
X163830000Y-91897200D02*
X165100000Y-91897200D01*
X165100000Y-91897200D02*
X166370000Y-91897200D01*
X177848700Y-86944600D02*
X177853600Y-86939700D01*
X174310200Y-86944600D02*
X177848700Y-86944600D01*
X161290000Y-91897200D02*
X162560000Y-91897200D01*
X162560000Y-91897200D02*
X163830000Y-91897200D01*
X178435000Y-121005600D02*
X179705000Y-122275600D01*
X178435000Y-119837000D02*
X178435000Y-121005600D01*
X179705000Y-122275600D02*
X179705000Y-124282500D01*
X165155500Y-91841700D02*
X165155500Y-90379000D01*
X165100000Y-91897200D02*
X165155500Y-91841700D01*
X132080000Y-105867200D02*
X132080000Y-103111000D01*
X132334000Y-103111000D02*
X133616800Y-101828200D01*
X132080000Y-103111000D02*
X132334000Y-103111000D01*
X134899500Y-103110900D02*
X133616800Y-101828200D01*
X140197500Y-103110900D02*
X134899500Y-103110900D01*
X133616800Y-101828200D02*
X133616800Y-91897200D01*
X140197500Y-118069700D02*
X138430000Y-119837200D01*
X140197500Y-103110900D02*
X140197500Y-118069700D01*
X138430000Y-119837200D02*
X132080000Y-119837200D01*
X140970000Y-125221700D02*
X138430000Y-125221700D01*
X140970000Y-127000000D02*
X140970000Y-125221700D01*
X138430000Y-127000000D02*
X138430000Y-125221700D01*
X138430000Y-119837200D02*
X138430000Y-125221700D01*
X162560000Y-102148800D02*
X162560000Y-91897200D01*
X162892400Y-102481200D02*
X162560000Y-102148800D01*
X162892400Y-103270600D02*
X162892400Y-102481200D01*
X161846300Y-104316700D02*
X162892400Y-103270600D01*
X161290000Y-104316700D02*
X161846300Y-104316700D01*
X161290000Y-105867000D02*
X161290000Y-104316700D01*
X160084200Y-103110900D02*
X140197500Y-103110900D01*
X161290000Y-104316700D02*
X160084200Y-103110900D01*
X187890900Y-124282500D02*
X179705000Y-124282500D01*
X189070100Y-123103300D02*
X187890900Y-124282500D01*
X202006600Y-106324000D02*
X205460600Y-102870000D01*
X202006600Y-117050500D02*
X202006600Y-106324000D01*
X195845600Y-123211500D02*
X202006600Y-117050500D01*
X189178300Y-123211500D02*
X195845600Y-123211500D01*
X189070100Y-123103300D02*
X189178300Y-123211500D01*
X189070100Y-120082000D02*
X189070100Y-123103300D01*
D33*
X161290000Y-85902800D02*
X161290000Y-88811400D01*
X161290000Y-99426600D02*
X161290000Y-96964200D01*
X184785000Y-122275600D02*
X184785000Y-120116300D01*
X161290000Y-113842800D02*
X162509300Y-112623500D01*
X184785000Y-120116300D02*
X184731100Y-120062400D01*
X129540000Y-85902800D02*
X129540000Y-88811400D01*
X132080000Y-99872800D02*
X132080000Y-96964200D01*
X138991500Y-88811400D02*
X129540000Y-88811400D01*
X144986000Y-94805900D02*
X138991500Y-88811400D01*
X160121300Y-94805900D02*
X144986000Y-94805900D01*
X160121300Y-89322600D02*
X160121300Y-94805900D01*
X160632500Y-88811400D02*
X160121300Y-89322600D01*
X161290000Y-88811400D02*
X160632500Y-88811400D01*
X161290000Y-95974600D02*
X160121300Y-94805900D01*
X161290000Y-96964200D02*
X161290000Y-95974600D01*
X130911300Y-96964200D02*
X132080000Y-96964200D01*
X128371300Y-94424200D02*
X130911300Y-96964200D01*
X128371300Y-89322600D02*
X128371300Y-94424200D01*
X128882500Y-88811400D02*
X128371300Y-89322600D01*
X129540000Y-88811400D02*
X128882500Y-88811400D01*
X132080000Y-113842800D02*
X132080000Y-116751400D01*
X128858800Y-116751400D02*
X128371200Y-117239000D01*
X132080000Y-116751400D02*
X128858800Y-116751400D01*
X133844600Y-124954600D02*
X135890000Y-127000000D01*
X130909400Y-124954600D02*
X133844600Y-124954600D01*
X128371200Y-122416400D02*
X130909400Y-124954600D01*
X128371200Y-117239000D02*
X128371200Y-122416400D01*
X119571700Y-98503300D02*
X119571700Y-116928500D01*
X121681300Y-96393700D02*
X119571700Y-98503300D01*
X126401800Y-96393700D02*
X121681300Y-96393700D01*
X128371300Y-94424200D02*
X126401800Y-96393700D01*
X128060700Y-116928500D02*
X119571700Y-116928500D01*
X128371200Y-117239000D02*
X128060700Y-116928500D01*
X113259300Y-116928500D02*
X108267800Y-121920000D01*
X119571700Y-116928500D02*
X113259300Y-116928500D01*
X106680000Y-121920000D02*
X108267800Y-121920000D01*
X161290000Y-99426600D02*
X161290000Y-99872800D01*
X161290000Y-99872800D02*
X161290000Y-102781400D01*
X161845100Y-102781400D02*
X161939600Y-102875900D01*
X161290000Y-102781400D02*
X161845100Y-102781400D01*
D34*
X180975000Y-117754400D02*
X180975000Y-115798300D01*
X180924900Y-115798300D02*
X180975000Y-115798300D01*
X180647000Y-115520400D02*
X180924900Y-115798300D01*
X180090400Y-120319500D02*
X179786000Y-120015100D01*
X182245000Y-120319500D02*
X180090400Y-120319500D01*
X182245000Y-122275600D02*
X182245000Y-120319500D01*
X183515000Y-117754400D02*
X183515000Y-115798300D01*
X183432200Y-115715500D02*
X183432200Y-115536300D01*
X183515000Y-115798300D02*
X183432200Y-115715500D01*
D32*
X184340800Y-107123900D02*
X186054700Y-105410000D01*
X184340800Y-107569000D02*
X184340800Y-107123900D01*
X187325000Y-105410000D02*
X186054700Y-105410000D01*
X181610000Y-107569000D02*
X184340800Y-107569000D01*
X178488300Y-107178100D02*
X178879200Y-107569000D01*
X177273900Y-107178100D02*
X178488300Y-107178100D01*
X181610000Y-107569000D02*
X178879200Y-107569000D01*
D34*
X191770000Y-114300000D02*
X189534500Y-114300000D01*
X186766200Y-117068300D02*
X186766200Y-121517600D01*
X189534500Y-114300000D02*
X186766200Y-117068300D01*
X196773500Y-85928500D02*
X198026000Y-85928500D01*
X195935000Y-85090000D02*
X196773500Y-85928500D01*
X189230800Y-85090000D02*
X195935000Y-85090000D01*
X198026000Y-84137500D02*
X198026000Y-85928500D01*
X129540000Y-99872800D02*
X129540000Y-102578200D01*
X139241100Y-116482500D02*
X139241100Y-117559900D01*
X130505500Y-107746900D02*
X139241100Y-116482500D01*
X130505500Y-103422900D02*
X130505500Y-107746900D01*
X129660800Y-102578200D02*
X130505500Y-103422900D01*
X129540000Y-102578200D02*
X129660800Y-102578200D01*
X138098800Y-116450200D02*
X138098800Y-116625600D01*
X130221200Y-108572600D02*
X138098800Y-116450200D01*
X129540000Y-108572600D02*
X130221200Y-108572600D01*
X129540000Y-105867200D02*
X129540000Y-108572600D01*
X127000000Y-99872800D02*
X127000000Y-102578200D01*
X128955800Y-109593900D02*
X128955800Y-110126000D01*
X127965500Y-108603600D02*
X128955800Y-109593900D01*
X127965500Y-103422900D02*
X127965500Y-108603600D01*
X127120800Y-102578200D02*
X127965500Y-103422900D01*
X127000000Y-102578200D02*
X127120800Y-102578200D01*
X127000000Y-105867200D02*
X127000000Y-108572600D01*
X128582200Y-111028000D02*
X131145000Y-111028000D01*
X128053800Y-110499600D02*
X128582200Y-111028000D01*
X128053800Y-109626400D02*
X128053800Y-110499600D01*
X127000000Y-108572600D02*
X128053800Y-109626400D01*
X126010000Y-109019400D02*
X126351000Y-109360400D01*
X126010000Y-104007500D02*
X126010000Y-109019400D01*
X124580700Y-102578200D02*
X126010000Y-104007500D01*
X124460000Y-102578200D02*
X124580700Y-102578200D01*
X124460000Y-99872800D02*
X124460000Y-102578200D01*
X124674100Y-108572600D02*
X125107900Y-109006400D01*
X124460000Y-108572600D02*
X124674100Y-108572600D01*
X124460000Y-105867200D02*
X124460000Y-108572600D01*
X121920000Y-99872800D02*
X121920000Y-102578200D01*
X122129200Y-109479300D02*
X123363900Y-109479300D01*
X120954500Y-108304600D02*
X122129200Y-109479300D01*
X120954500Y-103422900D02*
X120954500Y-108304600D01*
X121799200Y-102578200D02*
X120954500Y-103422900D01*
X121920000Y-102578200D02*
X121799200Y-102578200D01*
X123226100Y-108051700D02*
X123226200Y-108051700D01*
X123226100Y-107173300D02*
X123226100Y-108051700D01*
X121920000Y-105867200D02*
X123226100Y-107173300D01*
X171450000Y-127000000D02*
X171450000Y-125272500D01*
X171450000Y-125272500D02*
X154683200Y-125272500D01*
X129540000Y-113842800D02*
X130794400Y-113842800D01*
X137843000Y-128727500D02*
X173990000Y-128727500D01*
X137160000Y-128044500D02*
X137843000Y-128727500D01*
X137160000Y-126009200D02*
X137160000Y-128044500D01*
X135189000Y-124038200D02*
X137160000Y-126009200D01*
X132869000Y-124038200D02*
X135189000Y-124038200D01*
X129540000Y-120709200D02*
X132869000Y-124038200D01*
X129540000Y-119837200D02*
X129540000Y-120709200D01*
X173990000Y-127000000D02*
X173990000Y-128727500D01*
X127116000Y-113842800D02*
X128262300Y-114989100D01*
X127000000Y-113842800D02*
X127116000Y-113842800D01*
X178346300Y-129451200D02*
X179070000Y-128727500D01*
X131028600Y-129451200D02*
X178346300Y-129451200D01*
X129540000Y-127962600D02*
X131028600Y-129451200D01*
X129540000Y-125082600D02*
X129540000Y-127962600D01*
X127000000Y-122542600D02*
X129540000Y-125082600D01*
X127000000Y-119837200D02*
X127000000Y-122542600D01*
X179070000Y-127000000D02*
X179070000Y-128727500D01*
X124460000Y-111137400D02*
X123020800Y-111137400D01*
X124460000Y-113842800D02*
X124460000Y-111137400D01*
X124380200Y-119837200D02*
X123173200Y-118630200D01*
X124460000Y-119837200D02*
X124380200Y-119837200D01*
X120687100Y-109904500D02*
X120687100Y-109438200D01*
X121920000Y-111137400D02*
X120687100Y-109904500D01*
X121920000Y-113842800D02*
X121920000Y-111137400D01*
X121920000Y-119837200D02*
X121920000Y-122542600D01*
X121920000Y-122542600D02*
X123386400Y-122542600D01*
X124066100Y-81419900D02*
X126746000Y-78740000D01*
X122655200Y-81419900D02*
X124066100Y-81419900D01*
X120345500Y-83729600D02*
X122655200Y-81419900D01*
X120345500Y-88347100D02*
X120345500Y-83729600D01*
X119500800Y-89191800D02*
X120345500Y-88347100D01*
X119380000Y-89191800D02*
X119500800Y-89191800D01*
X119380000Y-91897200D02*
X119380000Y-89191800D01*
X123617200Y-77012500D02*
X129286000Y-77012500D01*
X122936000Y-77693700D02*
X123617200Y-77012500D01*
X122936000Y-79737700D02*
X122936000Y-77693700D01*
X119476300Y-83197400D02*
X122936000Y-79737700D01*
X119380000Y-83197400D02*
X119476300Y-83197400D01*
X119380000Y-85902800D02*
X119380000Y-83197400D01*
X129286000Y-78740000D02*
X129286000Y-77012500D01*
X126255400Y-80467500D02*
X131826000Y-80467500D01*
X122885500Y-83837400D02*
X126255400Y-80467500D01*
X122885500Y-88347100D02*
X122885500Y-83837400D01*
X122040800Y-89191800D02*
X122885500Y-88347100D01*
X121920000Y-89191800D02*
X122040800Y-89191800D01*
X121920000Y-91897200D02*
X121920000Y-89191800D01*
X131826000Y-78740000D02*
X131826000Y-80467500D01*
X122227400Y-83197400D02*
X122476000Y-82948800D01*
X121920000Y-83197400D02*
X122227400Y-83197400D01*
X121920000Y-85902800D02*
X121920000Y-83197400D01*
X136233100Y-76339600D02*
X136906000Y-77012500D01*
X121814800Y-76339600D02*
X136233100Y-76339600D01*
X120396000Y-77758400D02*
X121814800Y-76339600D01*
X120396000Y-80853400D02*
X120396000Y-77758400D01*
X118412100Y-82837300D02*
X120396000Y-80853400D01*
X118412100Y-94339100D02*
X118412100Y-82837300D01*
X118675600Y-94602600D02*
X118412100Y-94339100D01*
X124460000Y-94602600D02*
X118675600Y-94602600D01*
X124460000Y-91897200D02*
X124460000Y-94602600D01*
X136906000Y-78740000D02*
X136906000Y-77012500D01*
X124460000Y-85902800D02*
X124460000Y-83197400D01*
X139446000Y-78740000D02*
X139446000Y-80467500D01*
X126255400Y-81402000D02*
X124460000Y-83197400D01*
X138511500Y-81402000D02*
X126255400Y-81402000D01*
X139446000Y-80467500D02*
X138511500Y-81402000D01*
X141444200Y-82533300D02*
X143510000Y-80467500D01*
X126962300Y-82533300D02*
X141444200Y-82533300D01*
X126034500Y-83461100D02*
X126962300Y-82533300D01*
X126034500Y-88347100D02*
X126034500Y-83461100D01*
X126879200Y-89191800D02*
X126034500Y-88347100D01*
X127000000Y-89191800D02*
X126879200Y-89191800D01*
X127000000Y-91897200D02*
X127000000Y-89191800D01*
X143510000Y-78740000D02*
X143510000Y-80467500D01*
X143320200Y-83197300D02*
X146050000Y-80467500D01*
X128833600Y-83197300D02*
X143320200Y-83197300D01*
X127000000Y-85030900D02*
X128833600Y-83197300D01*
X127000000Y-85902800D02*
X127000000Y-85030900D01*
X146050000Y-78740000D02*
X146050000Y-80467500D01*
X191160800Y-81889200D02*
X191770000Y-81280000D01*
X160058200Y-81889200D02*
X191160800Y-81889200D01*
X158750000Y-83197400D02*
X160058200Y-81889200D01*
X158750000Y-85902800D02*
X158750000Y-83197400D01*
X193090500Y-81785300D02*
X193090500Y-81280000D01*
X192325800Y-82550000D02*
X193090500Y-81785300D01*
X161226600Y-82550000D02*
X192325800Y-82550000D01*
X160020000Y-83756600D02*
X161226600Y-82550000D01*
X160020000Y-88038900D02*
X160020000Y-83756600D01*
X158867100Y-89191800D02*
X160020000Y-88038900D01*
X158750000Y-89191800D02*
X158867100Y-89191800D01*
X158750000Y-91897200D02*
X158750000Y-89191800D01*
X194310000Y-81280000D02*
X193090500Y-81280000D01*
X169792300Y-83820000D02*
X191770000Y-83820000D01*
X156487100Y-83197400D02*
X156743600Y-82940900D01*
X156210000Y-83197400D02*
X156487100Y-83197400D01*
X156210000Y-85902800D02*
X156210000Y-83197400D01*
X196545500Y-80737200D02*
X196545500Y-83820000D01*
X195818300Y-80010000D02*
X196545500Y-80737200D01*
X190121000Y-80010000D02*
X195818300Y-80010000D01*
X188956000Y-81175000D02*
X190121000Y-80010000D01*
X159801100Y-81175000D02*
X188956000Y-81175000D01*
X157175500Y-83800600D02*
X159801100Y-81175000D01*
X157175500Y-88347100D02*
X157175500Y-83800600D01*
X156330800Y-89191800D02*
X157175500Y-88347100D01*
X156210000Y-89191800D02*
X156330800Y-89191800D01*
X156210000Y-91897200D02*
X156210000Y-89191800D01*
X194310000Y-83820000D02*
X196545500Y-83820000D01*
X154234800Y-83197400D02*
X154512000Y-82920200D01*
X153670000Y-83197400D02*
X154234800Y-83197400D01*
X153670000Y-85902800D02*
X153670000Y-83197400D01*
X187238100Y-86360000D02*
X191770000Y-86360000D01*
X185873700Y-84995600D02*
X187238100Y-86360000D01*
X167610800Y-84995600D02*
X185873700Y-84995600D01*
X194310000Y-86360000D02*
X193090500Y-86360000D01*
X153670000Y-91897200D02*
X152400000Y-91897200D01*
X172279100Y-90919700D02*
X172045300Y-90685900D01*
X185665500Y-90919700D02*
X172279100Y-90919700D01*
X188955200Y-87630000D02*
X185665500Y-90919700D01*
X192325800Y-87630000D02*
X188955200Y-87630000D01*
X193090500Y-86865300D02*
X192325800Y-87630000D01*
X193090500Y-86360000D02*
X193090500Y-86865300D01*
X152400000Y-87172800D02*
X152400000Y-89765000D01*
X151130000Y-85902800D02*
X152400000Y-87172800D01*
X191770000Y-88900000D02*
X189534500Y-88900000D01*
X186836200Y-91598300D02*
X189534500Y-88900000D01*
X169681900Y-91598300D02*
X186836200Y-91598300D01*
X169115700Y-91032100D02*
X169681900Y-91598300D01*
X199278600Y-86166900D02*
X196545500Y-88900000D01*
X199278600Y-80911300D02*
X199278600Y-86166900D01*
X194666800Y-76299500D02*
X199278600Y-80911300D01*
X165971900Y-76299500D02*
X194666800Y-76299500D01*
X161757200Y-80514200D02*
X165971900Y-76299500D01*
X153086800Y-80514200D02*
X161757200Y-80514200D01*
X150164500Y-83436500D02*
X153086800Y-80514200D01*
X150164500Y-88347100D02*
X150164500Y-83436500D01*
X151009200Y-89191800D02*
X150164500Y-88347100D01*
X151130000Y-89191800D02*
X151009200Y-89191800D01*
X151130000Y-91897200D02*
X151130000Y-89191800D01*
X194310000Y-88900000D02*
X196545500Y-88900000D01*
X191770000Y-91440000D02*
X189534500Y-91440000D01*
X160019900Y-97786700D02*
X160020000Y-97786700D01*
X160019900Y-97702700D02*
X160019900Y-97786700D01*
X159484600Y-97167400D02*
X160019900Y-97702700D01*
X158750000Y-97167400D02*
X159484600Y-97167400D01*
X158750000Y-99872800D02*
X158750000Y-97167400D01*
X188474100Y-92500400D02*
X173515600Y-92500400D01*
X189534500Y-91440000D02*
X188474100Y-92500400D01*
X159967400Y-104649800D02*
X159967400Y-104341600D01*
X158750000Y-105867200D02*
X159967400Y-104649800D01*
X193090500Y-91945300D02*
X193090500Y-91440000D01*
X192325800Y-92710000D02*
X193090500Y-91945300D01*
X189418600Y-92710000D02*
X192325800Y-92710000D01*
X188647500Y-93481100D02*
X189418600Y-92710000D01*
X176940100Y-93481100D02*
X188647500Y-93481100D01*
X194310000Y-91440000D02*
X193090500Y-91440000D01*
X157070200Y-97167400D02*
X158219300Y-96018300D01*
X156210000Y-97167400D02*
X157070200Y-97167400D01*
X191770000Y-93980000D02*
X189534500Y-93980000D01*
X156210000Y-99872800D02*
X156210000Y-97167400D01*
X189075400Y-94439100D02*
X189534500Y-93980000D01*
X168902500Y-94439100D02*
X189075400Y-94439100D01*
X156210000Y-105441300D02*
X157480000Y-104171300D01*
X156210000Y-105867200D02*
X156210000Y-105441300D01*
X194310000Y-93980000D02*
X193090500Y-93980000D01*
X193090500Y-94485300D02*
X193090500Y-93980000D01*
X192325800Y-95250000D02*
X193090500Y-94485300D01*
X173796000Y-95250000D02*
X192325800Y-95250000D01*
X173692000Y-95354000D02*
X173796000Y-95250000D01*
X153718100Y-97119300D02*
X153718100Y-96898500D01*
X153670000Y-97167400D02*
X153718100Y-97119300D01*
X191770000Y-96520000D02*
X189534500Y-96520000D01*
X189464200Y-96590300D02*
X167605900Y-96590300D01*
X189534500Y-96520000D02*
X189464200Y-96590300D01*
X153670000Y-99872800D02*
X153670000Y-97167400D01*
X194310000Y-96520000D02*
X193090500Y-96520000D01*
X153670000Y-105867200D02*
X152456100Y-105867200D01*
X193090500Y-97025300D02*
X193090500Y-96520000D01*
X192325800Y-97790000D02*
X193090500Y-97025300D01*
X169501600Y-97790000D02*
X192325800Y-97790000D01*
X191770000Y-99060000D02*
X189534500Y-99060000D01*
X189213900Y-98739400D02*
X167582300Y-98739400D01*
X189534500Y-99060000D02*
X189213900Y-98739400D01*
X151130000Y-99872800D02*
X151130000Y-97167400D01*
X151130000Y-97167400D02*
X152400000Y-97167400D01*
X193090500Y-99565300D02*
X193090500Y-99060000D01*
X192376200Y-100279600D02*
X193090500Y-99565300D01*
X189859400Y-100279600D02*
X192376200Y-100279600D01*
X184919500Y-105219500D02*
X189859400Y-100279600D01*
X177719000Y-105219500D02*
X184919500Y-105219500D01*
X174365900Y-108572600D02*
X177719000Y-105219500D01*
X151130000Y-108572600D02*
X174365900Y-108572600D01*
X151130000Y-105867200D02*
X151130000Y-108572600D01*
X194310000Y-99060000D02*
X193090500Y-99060000D01*
X192989500Y-101094700D02*
X192989500Y-101600000D01*
X193804600Y-100279600D02*
X192989500Y-101094700D01*
X195835000Y-100279600D02*
X193804600Y-100279600D01*
X199989400Y-96125200D02*
X195835000Y-100279600D01*
X199989400Y-91524500D02*
X199989400Y-96125200D01*
X200912500Y-90601400D02*
X199989400Y-91524500D01*
X203029600Y-90601400D02*
X200912500Y-90601400D01*
X209907400Y-97479200D02*
X203029600Y-90601400D01*
X209907400Y-110156100D02*
X209907400Y-97479200D01*
X195549600Y-124513900D02*
X209907400Y-110156100D01*
X190852900Y-124513900D02*
X195549600Y-124513900D01*
X190372700Y-124994100D02*
X190852900Y-124513900D01*
X175604600Y-124994100D02*
X190372700Y-124994100D01*
X173153100Y-122542600D02*
X175604600Y-124994100D01*
X151130000Y-122542600D02*
X173153100Y-122542600D01*
X151130000Y-119837200D02*
X151130000Y-122542600D01*
X191770000Y-101600000D02*
X192989500Y-101600000D01*
X151130000Y-113842800D02*
X151130000Y-111137400D01*
X152037700Y-110229700D02*
X152595300Y-110229700D01*
X151130000Y-111137400D02*
X152037700Y-110229700D01*
X185564500Y-100811400D02*
X186808200Y-102055100D01*
X169836200Y-100811400D02*
X185564500Y-100811400D01*
X189534500Y-105180300D02*
X189534500Y-104140000D01*
X185085500Y-109629300D02*
X189534500Y-105180300D01*
X154477300Y-109629300D02*
X185085500Y-109629300D01*
X152704500Y-111402100D02*
X154477300Y-109629300D01*
X152704500Y-116287100D02*
X152704500Y-111402100D01*
X153549200Y-117131800D02*
X152704500Y-116287100D01*
X153670000Y-117131800D02*
X153549200Y-117131800D01*
X153670000Y-119837200D02*
X153670000Y-117131800D01*
X191770000Y-104140000D02*
X189534500Y-104140000D01*
X193090500Y-104645300D02*
X193090500Y-104140000D01*
X192325800Y-105410000D02*
X193090500Y-104645300D01*
X190245700Y-105410000D02*
X192325800Y-105410000D01*
X185323500Y-110332200D02*
X190245700Y-105410000D01*
X156298100Y-110332200D02*
X185323500Y-110332200D01*
X153670000Y-112960300D02*
X156298100Y-110332200D01*
X153670000Y-113842800D02*
X153670000Y-112960300D01*
X194310000Y-104140000D02*
X193090500Y-104140000D01*
X191770000Y-106680000D02*
X192989500Y-106680000D01*
X156210000Y-119837200D02*
X156210000Y-117131800D01*
X185886800Y-113901000D02*
X171175500Y-113901000D01*
X189297800Y-110490000D02*
X185886800Y-113901000D01*
X195798700Y-110490000D02*
X189297800Y-110490000D01*
X196545500Y-109743200D02*
X195798700Y-110490000D01*
X196545500Y-108661200D02*
X196545500Y-109743200D01*
X195884700Y-108000400D02*
X196545500Y-108661200D01*
X193804600Y-108000400D02*
X195884700Y-108000400D01*
X192989500Y-107185300D02*
X193804600Y-108000400D01*
X192989500Y-106680000D02*
X192989500Y-107185300D01*
X157518800Y-115971400D02*
X157518800Y-115283000D01*
X156358400Y-117131800D02*
X157518800Y-115971400D01*
X156210000Y-117131800D02*
X156358400Y-117131800D01*
X194310000Y-106680000D02*
X196545500Y-106680000D01*
X174605500Y-115697700D02*
X168720200Y-115697700D01*
X175684900Y-114618300D02*
X174605500Y-115697700D01*
X186104000Y-114618300D02*
X175684900Y-114618300D01*
X187692300Y-113030000D02*
X186104000Y-114618300D01*
X195787200Y-113030000D02*
X187692300Y-113030000D01*
X197263800Y-111553400D02*
X195787200Y-113030000D01*
X197263800Y-107398300D02*
X197263800Y-111553400D01*
X196545500Y-106680000D02*
X197263800Y-107398300D01*
X156210000Y-113842800D02*
X157504800Y-113842800D01*
X158750000Y-119837200D02*
X158750000Y-117131800D01*
X191770000Y-109220000D02*
X189534500Y-109220000D01*
X166484800Y-117131800D02*
X158750000Y-117131800D01*
X167686100Y-115930500D02*
X166484800Y-117131800D01*
X167686100Y-115399900D02*
X167686100Y-115930500D01*
X170130200Y-112955800D02*
X167686100Y-115399900D01*
X185798700Y-112955800D02*
X170130200Y-112955800D01*
X189534500Y-109220000D02*
X185798700Y-112955800D01*
X193090500Y-108714700D02*
X193090500Y-109220000D01*
X192353700Y-107977900D02*
X193090500Y-108714700D01*
X188612300Y-107977900D02*
X192353700Y-107977900D01*
X185587900Y-111002300D02*
X188612300Y-107977900D01*
X158885100Y-111002300D02*
X185587900Y-111002300D01*
X158750000Y-111137400D02*
X158885100Y-111002300D01*
X158750000Y-113842800D02*
X158750000Y-111137400D01*
X194310000Y-109220000D02*
X193090500Y-109220000D01*
D35*
G36*
X160580059Y-103043120D02*
X160436689Y-103102506D01*
X160265206Y-103273989D01*
X160172400Y-103498043D01*
X160172400Y-103560387D01*
X160127248Y-103541639D01*
X159808948Y-103541361D01*
X159620548Y-103619206D01*
X159594259Y-103483711D01*
X159515977Y-103364541D01*
X159397799Y-103284769D01*
X159258000Y-103256733D01*
X158242000Y-103256733D01*
X158106411Y-103283041D01*
X157987241Y-103361323D01*
X157907469Y-103479501D01*
X157906920Y-103482237D01*
X157639848Y-103371339D01*
X157321548Y-103371061D01*
X157053118Y-103481974D01*
X156975977Y-103364541D01*
X156857799Y-103284769D01*
X156718000Y-103256733D01*
X155702000Y-103256733D01*
X155566411Y-103283041D01*
X155447241Y-103361323D01*
X155367469Y-103479501D01*
X155339433Y-103619300D01*
X155339433Y-108013800D01*
X154540567Y-108013800D01*
X154540567Y-103619300D01*
X154540567Y-102120700D01*
X154540567Y-97624900D01*
X154514259Y-97489311D01*
X154435977Y-97370141D01*
X154398966Y-97345158D01*
X154518061Y-97058348D01*
X154518339Y-96740048D01*
X154396787Y-96445872D01*
X154171912Y-96220604D01*
X153877948Y-96098539D01*
X153559648Y-96098261D01*
X153265472Y-96219813D01*
X153040204Y-96444688D01*
X152972305Y-96608204D01*
X152853812Y-96489504D01*
X152559848Y-96367439D01*
X152241548Y-96367161D01*
X151947372Y-96488713D01*
X151827275Y-96608600D01*
X151130000Y-96608600D01*
X150916156Y-96651136D01*
X150734869Y-96772269D01*
X150613736Y-96953556D01*
X150571200Y-97167400D01*
X150571200Y-97272189D01*
X150486411Y-97288641D01*
X150367241Y-97366923D01*
X150287469Y-97485101D01*
X150259433Y-97624900D01*
X150259433Y-102120700D01*
X150285741Y-102256289D01*
X150364023Y-102375459D01*
X150482201Y-102455231D01*
X150622000Y-102483267D01*
X151638000Y-102483267D01*
X151773589Y-102456959D01*
X151892759Y-102378677D01*
X151972531Y-102260499D01*
X152000567Y-102120700D01*
X152000567Y-97867876D01*
X152240152Y-97967361D01*
X152558452Y-97967639D01*
X152799433Y-97868066D01*
X152799433Y-102120700D01*
X152825741Y-102256289D01*
X152904023Y-102375459D01*
X153022201Y-102455231D01*
X153162000Y-102483267D01*
X154178000Y-102483267D01*
X154313589Y-102456959D01*
X154432759Y-102378677D01*
X154512531Y-102260499D01*
X154540567Y-102120700D01*
X154540567Y-103619300D01*
X154514259Y-103483711D01*
X154435977Y-103364541D01*
X154317799Y-103284769D01*
X154178000Y-103256733D01*
X153162000Y-103256733D01*
X153026411Y-103283041D01*
X152907241Y-103361323D01*
X152827469Y-103479501D01*
X152799433Y-103619300D01*
X152799433Y-105143428D01*
X152615948Y-105067239D01*
X152297648Y-105066961D01*
X152003472Y-105188513D01*
X152000567Y-105191412D01*
X152000567Y-103619300D01*
X151974259Y-103483711D01*
X151895977Y-103364541D01*
X151777799Y-103284769D01*
X151638000Y-103256733D01*
X150622000Y-103256733D01*
X150486411Y-103283041D01*
X150367241Y-103361323D01*
X150287469Y-103479501D01*
X150259433Y-103619300D01*
X150259433Y-106606045D01*
X150198062Y-106297515D01*
X150010857Y-106017343D01*
X149730685Y-105830138D01*
X149400200Y-105764400D01*
X149069715Y-105830138D01*
X148789543Y-106017343D01*
X148602338Y-106297515D01*
X148536600Y-106628000D01*
X148536600Y-118719785D01*
X142899343Y-124357043D01*
X142712138Y-124637215D01*
X142646400Y-124967700D01*
X142646400Y-125779646D01*
X142477472Y-126032466D01*
X142392400Y-126460153D01*
X142392400Y-127539847D01*
X142477472Y-127967534D01*
X142611886Y-128168700D01*
X142180453Y-128168700D01*
X142341600Y-127660400D01*
X142341600Y-127152400D01*
X142341600Y-126847600D01*
X142341600Y-126339600D01*
X142178872Y-125826312D01*
X141832104Y-125414369D01*
X141333761Y-125169516D01*
X141122400Y-125282363D01*
X141122400Y-126847600D01*
X142341600Y-126847600D01*
X142341600Y-127152400D01*
X141122400Y-127152400D01*
X141122400Y-127172400D01*
X140817600Y-127172400D01*
X140817600Y-127152400D01*
X140817600Y-126847600D01*
X140817600Y-125282363D01*
X140606239Y-125169516D01*
X140107896Y-125414369D01*
X139761128Y-125826312D01*
X139700000Y-126019126D01*
X139638872Y-125826312D01*
X139292104Y-125414369D01*
X138793761Y-125169516D01*
X138582400Y-125282363D01*
X138582400Y-126847600D01*
X139598400Y-126847600D01*
X139801600Y-126847600D01*
X140817600Y-126847600D01*
X140817600Y-127152400D01*
X139801600Y-127152400D01*
X139598400Y-127152400D01*
X138582400Y-127152400D01*
X138582400Y-127172400D01*
X138277600Y-127172400D01*
X138277600Y-127152400D01*
X138257600Y-127152400D01*
X138257600Y-126847600D01*
X138277600Y-126847600D01*
X138277600Y-125282363D01*
X138066239Y-125169516D01*
X137567896Y-125414369D01*
X137470789Y-125529727D01*
X135584131Y-123643069D01*
X135402844Y-123521936D01*
X135189000Y-123479400D01*
X133197600Y-123479400D01*
X133100462Y-123479400D01*
X132232402Y-122611340D01*
X132232402Y-122542302D01*
X132384800Y-122694700D01*
X132709257Y-122694700D01*
X132933311Y-122601894D01*
X133104794Y-122430411D01*
X133197600Y-122206357D01*
X133197600Y-121963843D01*
X133197600Y-120142000D01*
X133045200Y-119989600D01*
X132232400Y-119989600D01*
X132232400Y-120009600D01*
X131927600Y-120009600D01*
X131927600Y-119989600D01*
X131114800Y-119989600D01*
X130962400Y-120142000D01*
X130962400Y-121341338D01*
X130410567Y-120789505D01*
X130410567Y-117589300D01*
X130395840Y-117513400D01*
X130962400Y-117513400D01*
X130962400Y-117710557D01*
X130962400Y-119532400D01*
X131114800Y-119684800D01*
X131927600Y-119684800D01*
X131927600Y-119664800D01*
X132232400Y-119664800D01*
X132232400Y-119684800D01*
X133045200Y-119684800D01*
X133197600Y-119532400D01*
X133197600Y-117710557D01*
X133197600Y-117468043D01*
X133104794Y-117243989D01*
X132933311Y-117072506D01*
X132789940Y-117013120D01*
X132842000Y-116751400D01*
X132842000Y-116349175D01*
X132842759Y-116348677D01*
X132922531Y-116230499D01*
X132950567Y-116090700D01*
X132950567Y-112092229D01*
X137306247Y-116447909D01*
X137298839Y-116465752D01*
X137298561Y-116784052D01*
X137420113Y-117078228D01*
X137644988Y-117303496D01*
X137938952Y-117425561D01*
X138257252Y-117425839D01*
X138466298Y-117339462D01*
X138441139Y-117400052D01*
X138440861Y-117718352D01*
X138562413Y-118012528D01*
X138787288Y-118237796D01*
X139081252Y-118359861D01*
X139399552Y-118360139D01*
X139693728Y-118238587D01*
X139918996Y-118013712D01*
X140041061Y-117719748D01*
X140041339Y-117401448D01*
X139919787Y-117107272D01*
X139799900Y-116987175D01*
X139799900Y-116482500D01*
X139757364Y-116268657D01*
X139757364Y-116268656D01*
X139636231Y-116087369D01*
X135737600Y-112188738D01*
X135737600Y-94266357D01*
X135737600Y-94023843D01*
X135737600Y-92202000D01*
X135585200Y-92049600D01*
X134772400Y-92049600D01*
X134772400Y-94602300D01*
X134924800Y-94754700D01*
X135249257Y-94754700D01*
X135473311Y-94661894D01*
X135644794Y-94490411D01*
X135737600Y-94266357D01*
X135737600Y-112188738D01*
X134467600Y-110918738D01*
X134467600Y-94602300D01*
X134467600Y-92049600D01*
X133654800Y-92049600D01*
X133502400Y-92202000D01*
X133502400Y-94023843D01*
X133502400Y-94266357D01*
X133595206Y-94490411D01*
X133766689Y-94661894D01*
X133990743Y-94754700D01*
X134315200Y-94754700D01*
X134467600Y-94602300D01*
X134467600Y-110918738D01*
X133197600Y-109648738D01*
X132232402Y-108683540D01*
X132232402Y-108572302D01*
X132384800Y-108724700D01*
X132709257Y-108724700D01*
X132933311Y-108631894D01*
X133104794Y-108460411D01*
X133197600Y-108236357D01*
X133197600Y-107993843D01*
X133197600Y-106172000D01*
X133197600Y-105562400D01*
X133197600Y-103740557D01*
X133197600Y-103498043D01*
X133197600Y-94266357D01*
X133197600Y-94023843D01*
X133197600Y-92202000D01*
X133045200Y-92049600D01*
X132232400Y-92049600D01*
X132232400Y-94602300D01*
X132384800Y-94754700D01*
X132709257Y-94754700D01*
X132933311Y-94661894D01*
X133104794Y-94490411D01*
X133197600Y-94266357D01*
X133197600Y-103498043D01*
X133104794Y-103273989D01*
X132933311Y-103102506D01*
X132709257Y-103009700D01*
X132384800Y-103009700D01*
X132232400Y-103162100D01*
X132232400Y-105714800D01*
X133045200Y-105714800D01*
X133197600Y-105562400D01*
X133197600Y-106172000D01*
X133045200Y-106019600D01*
X132232400Y-106019600D01*
X132232400Y-106039600D01*
X131927600Y-106039600D01*
X131927600Y-106019600D01*
X131907600Y-106019600D01*
X131907600Y-105714800D01*
X131927600Y-105714800D01*
X131927600Y-103162100D01*
X131775200Y-103009700D01*
X131450743Y-103009700D01*
X131226689Y-103102506D01*
X131055206Y-103273989D01*
X131041339Y-103307466D01*
X131021764Y-103209057D01*
X131021764Y-103209056D01*
X130900631Y-103027769D01*
X130271845Y-102398983D01*
X130302759Y-102378677D01*
X130382531Y-102260499D01*
X130410567Y-102120700D01*
X130410567Y-97624900D01*
X130389067Y-97514096D01*
X130619695Y-97668196D01*
X130911300Y-97726200D01*
X131209433Y-97726200D01*
X131209433Y-102120700D01*
X131235741Y-102256289D01*
X131314023Y-102375459D01*
X131432201Y-102455231D01*
X131572000Y-102483267D01*
X132588000Y-102483267D01*
X132723589Y-102456959D01*
X132842759Y-102378677D01*
X132922531Y-102260499D01*
X132950567Y-102120700D01*
X132950567Y-97624900D01*
X132924259Y-97489311D01*
X132845977Y-97370141D01*
X132842000Y-97367456D01*
X132842000Y-96964200D01*
X132783996Y-96672595D01*
X132618815Y-96425385D01*
X132371605Y-96260204D01*
X132080000Y-96202200D01*
X131927600Y-96202200D01*
X131927600Y-94602300D01*
X131927600Y-92049600D01*
X131114800Y-92049600D01*
X130962400Y-92202000D01*
X130962400Y-94023843D01*
X130962400Y-94266357D01*
X131055206Y-94490411D01*
X131226689Y-94661894D01*
X131450743Y-94754700D01*
X131775200Y-94754700D01*
X131927600Y-94602300D01*
X131927600Y-96202200D01*
X131226930Y-96202200D01*
X130657600Y-95632869D01*
X129692402Y-94667671D01*
X129692402Y-94602302D01*
X129844800Y-94754700D01*
X130169257Y-94754700D01*
X130393311Y-94661894D01*
X130564794Y-94490411D01*
X130657600Y-94266357D01*
X130657600Y-94023843D01*
X130657600Y-92202000D01*
X130505200Y-92049600D01*
X129692400Y-92049600D01*
X129692400Y-92069600D01*
X129387600Y-92069600D01*
X129387600Y-92049600D01*
X129367600Y-92049600D01*
X129367600Y-91744800D01*
X129387600Y-91744800D01*
X129387600Y-91724800D01*
X129692400Y-91724800D01*
X129692400Y-91744800D01*
X130505200Y-91744800D01*
X130657600Y-91592400D01*
X130657600Y-89770557D01*
X130657600Y-89573400D01*
X130962400Y-89573400D01*
X130962400Y-89770557D01*
X130962400Y-91592400D01*
X131114800Y-91744800D01*
X131927600Y-91744800D01*
X131927600Y-91724800D01*
X132232400Y-91724800D01*
X132232400Y-91744800D01*
X133045200Y-91744800D01*
X133197600Y-91592400D01*
X133197600Y-89770557D01*
X133197600Y-89573400D01*
X133502400Y-89573400D01*
X133502400Y-89770557D01*
X133502400Y-91592400D01*
X133654800Y-91744800D01*
X134467600Y-91744800D01*
X134467600Y-91724800D01*
X134772400Y-91724800D01*
X134772400Y-91744800D01*
X135585200Y-91744800D01*
X135737600Y-91592400D01*
X135737600Y-89770557D01*
X135737600Y-89573400D01*
X138675869Y-89573400D01*
X144447184Y-95344715D01*
X144447185Y-95344715D01*
X144694395Y-95509896D01*
X144986000Y-95567900D01*
X157539987Y-95567900D01*
X157419339Y-95858452D01*
X157419190Y-96028147D01*
X156838738Y-96608600D01*
X156210000Y-96608600D01*
X155996156Y-96651136D01*
X155814869Y-96772269D01*
X155693736Y-96953556D01*
X155651200Y-97167400D01*
X155651200Y-97272189D01*
X155566411Y-97288641D01*
X155447241Y-97366923D01*
X155367469Y-97485101D01*
X155339433Y-97624900D01*
X155339433Y-102120700D01*
X155365741Y-102256289D01*
X155444023Y-102375459D01*
X155562201Y-102455231D01*
X155702000Y-102483267D01*
X156718000Y-102483267D01*
X156853589Y-102456959D01*
X156972759Y-102378677D01*
X157052531Y-102260499D01*
X157080567Y-102120700D01*
X157080567Y-97724137D01*
X157284043Y-97683664D01*
X157284044Y-97683664D01*
X157465331Y-97562531D01*
X158209469Y-96818392D01*
X158323983Y-96818492D01*
X158233736Y-96953556D01*
X158191200Y-97167400D01*
X158191200Y-97272189D01*
X158106411Y-97288641D01*
X157987241Y-97366923D01*
X157907469Y-97485101D01*
X157879433Y-97624900D01*
X157879433Y-102120700D01*
X157905741Y-102256289D01*
X157984023Y-102375459D01*
X158102201Y-102455231D01*
X158242000Y-102483267D01*
X159258000Y-102483267D01*
X159393589Y-102456959D01*
X159512759Y-102378677D01*
X159592531Y-102260499D01*
X159620567Y-102120700D01*
X159620567Y-98487176D01*
X159860152Y-98586661D01*
X160178452Y-98586939D01*
X160419433Y-98487366D01*
X160419433Y-102120700D01*
X160445741Y-102256289D01*
X160524023Y-102375459D01*
X160528000Y-102378143D01*
X160528000Y-102781400D01*
X160580059Y-103043120D01*
X160580059Y-103043120D01*
G37*
X160580059Y-103043120D02*
X160436689Y-103102506D01*
X160265206Y-103273989D01*
X160172400Y-103498043D01*
X160172400Y-103560387D01*
X160127248Y-103541639D01*
X159808948Y-103541361D01*
X159620548Y-103619206D01*
X159594259Y-103483711D01*
X159515977Y-103364541D01*
X159397799Y-103284769D01*
X159258000Y-103256733D01*
X158242000Y-103256733D01*
X158106411Y-103283041D01*
X157987241Y-103361323D01*
X157907469Y-103479501D01*
X157906920Y-103482237D01*
X157639848Y-103371339D01*
X157321548Y-103371061D01*
X157053118Y-103481974D01*
X156975977Y-103364541D01*
X156857799Y-103284769D01*
X156718000Y-103256733D01*
X155702000Y-103256733D01*
X155566411Y-103283041D01*
X155447241Y-103361323D01*
X155367469Y-103479501D01*
X155339433Y-103619300D01*
X155339433Y-108013800D01*
X154540567Y-108013800D01*
X154540567Y-103619300D01*
X154540567Y-102120700D01*
X154540567Y-97624900D01*
X154514259Y-97489311D01*
X154435977Y-97370141D01*
X154398966Y-97345158D01*
X154518061Y-97058348D01*
X154518339Y-96740048D01*
X154396787Y-96445872D01*
X154171912Y-96220604D01*
X153877948Y-96098539D01*
X153559648Y-96098261D01*
X153265472Y-96219813D01*
X153040204Y-96444688D01*
X152972305Y-96608204D01*
X152853812Y-96489504D01*
X152559848Y-96367439D01*
X152241548Y-96367161D01*
X151947372Y-96488713D01*
X151827275Y-96608600D01*
X151130000Y-96608600D01*
X150916156Y-96651136D01*
X150734869Y-96772269D01*
X150613736Y-96953556D01*
X150571200Y-97167400D01*
X150571200Y-97272189D01*
X150486411Y-97288641D01*
X150367241Y-97366923D01*
X150287469Y-97485101D01*
X150259433Y-97624900D01*
X150259433Y-102120700D01*
X150285741Y-102256289D01*
X150364023Y-102375459D01*
X150482201Y-102455231D01*
X150622000Y-102483267D01*
X151638000Y-102483267D01*
X151773589Y-102456959D01*
X151892759Y-102378677D01*
X151972531Y-102260499D01*
X152000567Y-102120700D01*
X152000567Y-97867876D01*
X152240152Y-97967361D01*
X152558452Y-97967639D01*
X152799433Y-97868066D01*
X152799433Y-102120700D01*
X152825741Y-102256289D01*
X152904023Y-102375459D01*
X153022201Y-102455231D01*
X153162000Y-102483267D01*
X154178000Y-102483267D01*
X154313589Y-102456959D01*
X154432759Y-102378677D01*
X154512531Y-102260499D01*
X154540567Y-102120700D01*
X154540567Y-103619300D01*
X154514259Y-103483711D01*
X154435977Y-103364541D01*
X154317799Y-103284769D01*
X154178000Y-103256733D01*
X153162000Y-103256733D01*
X153026411Y-103283041D01*
X152907241Y-103361323D01*
X152827469Y-103479501D01*
X152799433Y-103619300D01*
X152799433Y-105143428D01*
X152615948Y-105067239D01*
X152297648Y-105066961D01*
X152003472Y-105188513D01*
X152000567Y-105191412D01*
X152000567Y-103619300D01*
X151974259Y-103483711D01*
X151895977Y-103364541D01*
X151777799Y-103284769D01*
X151638000Y-103256733D01*
X150622000Y-103256733D01*
X150486411Y-103283041D01*
X150367241Y-103361323D01*
X150287469Y-103479501D01*
X150259433Y-103619300D01*
X150259433Y-106606045D01*
X150198062Y-106297515D01*
X150010857Y-106017343D01*
X149730685Y-105830138D01*
X149400200Y-105764400D01*
X149069715Y-105830138D01*
X148789543Y-106017343D01*
X148602338Y-106297515D01*
X148536600Y-106628000D01*
X148536600Y-118719785D01*
X142899343Y-124357043D01*
X142712138Y-124637215D01*
X142646400Y-124967700D01*
X142646400Y-125779646D01*
X142477472Y-126032466D01*
X142392400Y-126460153D01*
X142392400Y-127539847D01*
X142477472Y-127967534D01*
X142611886Y-128168700D01*
X142180453Y-128168700D01*
X142341600Y-127660400D01*
X142341600Y-127152400D01*
X142341600Y-126847600D01*
X142341600Y-126339600D01*
X142178872Y-125826312D01*
X141832104Y-125414369D01*
X141333761Y-125169516D01*
X141122400Y-125282363D01*
X141122400Y-126847600D01*
X142341600Y-126847600D01*
X142341600Y-127152400D01*
X141122400Y-127152400D01*
X141122400Y-127172400D01*
X140817600Y-127172400D01*
X140817600Y-127152400D01*
X140817600Y-126847600D01*
X140817600Y-125282363D01*
X140606239Y-125169516D01*
X140107896Y-125414369D01*
X139761128Y-125826312D01*
X139700000Y-126019126D01*
X139638872Y-125826312D01*
X139292104Y-125414369D01*
X138793761Y-125169516D01*
X138582400Y-125282363D01*
X138582400Y-126847600D01*
X139598400Y-126847600D01*
X139801600Y-126847600D01*
X140817600Y-126847600D01*
X140817600Y-127152400D01*
X139801600Y-127152400D01*
X139598400Y-127152400D01*
X138582400Y-127152400D01*
X138582400Y-127172400D01*
X138277600Y-127172400D01*
X138277600Y-127152400D01*
X138257600Y-127152400D01*
X138257600Y-126847600D01*
X138277600Y-126847600D01*
X138277600Y-125282363D01*
X138066239Y-125169516D01*
X137567896Y-125414369D01*
X137470789Y-125529727D01*
X135584131Y-123643069D01*
X135402844Y-123521936D01*
X135189000Y-123479400D01*
X133197600Y-123479400D01*
X133100462Y-123479400D01*
X132232402Y-122611340D01*
X132232402Y-122542302D01*
X132384800Y-122694700D01*
X132709257Y-122694700D01*
X132933311Y-122601894D01*
X133104794Y-122430411D01*
X133197600Y-122206357D01*
X133197600Y-121963843D01*
X133197600Y-120142000D01*
X133045200Y-119989600D01*
X132232400Y-119989600D01*
X132232400Y-120009600D01*
X131927600Y-120009600D01*
X131927600Y-119989600D01*
X131114800Y-119989600D01*
X130962400Y-120142000D01*
X130962400Y-121341338D01*
X130410567Y-120789505D01*
X130410567Y-117589300D01*
X130395840Y-117513400D01*
X130962400Y-117513400D01*
X130962400Y-117710557D01*
X130962400Y-119532400D01*
X131114800Y-119684800D01*
X131927600Y-119684800D01*
X131927600Y-119664800D01*
X132232400Y-119664800D01*
X132232400Y-119684800D01*
X133045200Y-119684800D01*
X133197600Y-119532400D01*
X133197600Y-117710557D01*
X133197600Y-117468043D01*
X133104794Y-117243989D01*
X132933311Y-117072506D01*
X132789940Y-117013120D01*
X132842000Y-116751400D01*
X132842000Y-116349175D01*
X132842759Y-116348677D01*
X132922531Y-116230499D01*
X132950567Y-116090700D01*
X132950567Y-112092229D01*
X137306247Y-116447909D01*
X137298839Y-116465752D01*
X137298561Y-116784052D01*
X137420113Y-117078228D01*
X137644988Y-117303496D01*
X137938952Y-117425561D01*
X138257252Y-117425839D01*
X138466298Y-117339462D01*
X138441139Y-117400052D01*
X138440861Y-117718352D01*
X138562413Y-118012528D01*
X138787288Y-118237796D01*
X139081252Y-118359861D01*
X139399552Y-118360139D01*
X139693728Y-118238587D01*
X139918996Y-118013712D01*
X140041061Y-117719748D01*
X140041339Y-117401448D01*
X139919787Y-117107272D01*
X139799900Y-116987175D01*
X139799900Y-116482500D01*
X139757364Y-116268657D01*
X139757364Y-116268656D01*
X139636231Y-116087369D01*
X135737600Y-112188738D01*
X135737600Y-94266357D01*
X135737600Y-94023843D01*
X135737600Y-92202000D01*
X135585200Y-92049600D01*
X134772400Y-92049600D01*
X134772400Y-94602300D01*
X134924800Y-94754700D01*
X135249257Y-94754700D01*
X135473311Y-94661894D01*
X135644794Y-94490411D01*
X135737600Y-94266357D01*
X135737600Y-112188738D01*
X134467600Y-110918738D01*
X134467600Y-94602300D01*
X134467600Y-92049600D01*
X133654800Y-92049600D01*
X133502400Y-92202000D01*
X133502400Y-94023843D01*
X133502400Y-94266357D01*
X133595206Y-94490411D01*
X133766689Y-94661894D01*
X133990743Y-94754700D01*
X134315200Y-94754700D01*
X134467600Y-94602300D01*
X134467600Y-110918738D01*
X133197600Y-109648738D01*
X132232402Y-108683540D01*
X132232402Y-108572302D01*
X132384800Y-108724700D01*
X132709257Y-108724700D01*
X132933311Y-108631894D01*
X133104794Y-108460411D01*
X133197600Y-108236357D01*
X133197600Y-107993843D01*
X133197600Y-106172000D01*
X133197600Y-105562400D01*
X133197600Y-103740557D01*
X133197600Y-103498043D01*
X133197600Y-94266357D01*
X133197600Y-94023843D01*
X133197600Y-92202000D01*
X133045200Y-92049600D01*
X132232400Y-92049600D01*
X132232400Y-94602300D01*
X132384800Y-94754700D01*
X132709257Y-94754700D01*
X132933311Y-94661894D01*
X133104794Y-94490411D01*
X133197600Y-94266357D01*
X133197600Y-103498043D01*
X133104794Y-103273989D01*
X132933311Y-103102506D01*
X132709257Y-103009700D01*
X132384800Y-103009700D01*
X132232400Y-103162100D01*
X132232400Y-105714800D01*
X133045200Y-105714800D01*
X133197600Y-105562400D01*
X133197600Y-106172000D01*
X133045200Y-106019600D01*
X132232400Y-106019600D01*
X132232400Y-106039600D01*
X131927600Y-106039600D01*
X131927600Y-106019600D01*
X131907600Y-106019600D01*
X131907600Y-105714800D01*
X131927600Y-105714800D01*
X131927600Y-103162100D01*
X131775200Y-103009700D01*
X131450743Y-103009700D01*
X131226689Y-103102506D01*
X131055206Y-103273989D01*
X131041339Y-103307466D01*
X131021764Y-103209057D01*
X131021764Y-103209056D01*
X130900631Y-103027769D01*
X130271845Y-102398983D01*
X130302759Y-102378677D01*
X130382531Y-102260499D01*
X130410567Y-102120700D01*
X130410567Y-97624900D01*
X130389067Y-97514096D01*
X130619695Y-97668196D01*
X130911300Y-97726200D01*
X131209433Y-97726200D01*
X131209433Y-102120700D01*
X131235741Y-102256289D01*
X131314023Y-102375459D01*
X131432201Y-102455231D01*
X131572000Y-102483267D01*
X132588000Y-102483267D01*
X132723589Y-102456959D01*
X132842759Y-102378677D01*
X132922531Y-102260499D01*
X132950567Y-102120700D01*
X132950567Y-97624900D01*
X132924259Y-97489311D01*
X132845977Y-97370141D01*
X132842000Y-97367456D01*
X132842000Y-96964200D01*
X132783996Y-96672595D01*
X132618815Y-96425385D01*
X132371605Y-96260204D01*
X132080000Y-96202200D01*
X131927600Y-96202200D01*
X131927600Y-94602300D01*
X131927600Y-92049600D01*
X131114800Y-92049600D01*
X130962400Y-92202000D01*
X130962400Y-94023843D01*
X130962400Y-94266357D01*
X131055206Y-94490411D01*
X131226689Y-94661894D01*
X131450743Y-94754700D01*
X131775200Y-94754700D01*
X131927600Y-94602300D01*
X131927600Y-96202200D01*
X131226930Y-96202200D01*
X130657600Y-95632869D01*
X129692402Y-94667671D01*
X129692402Y-94602302D01*
X129844800Y-94754700D01*
X130169257Y-94754700D01*
X130393311Y-94661894D01*
X130564794Y-94490411D01*
X130657600Y-94266357D01*
X130657600Y-94023843D01*
X130657600Y-92202000D01*
X130505200Y-92049600D01*
X129692400Y-92049600D01*
X129692400Y-92069600D01*
X129387600Y-92069600D01*
X129387600Y-92049600D01*
X129367600Y-92049600D01*
X129367600Y-91744800D01*
X129387600Y-91744800D01*
X129387600Y-91724800D01*
X129692400Y-91724800D01*
X129692400Y-91744800D01*
X130505200Y-91744800D01*
X130657600Y-91592400D01*
X130657600Y-89770557D01*
X130657600Y-89573400D01*
X130962400Y-89573400D01*
X130962400Y-89770557D01*
X130962400Y-91592400D01*
X131114800Y-91744800D01*
X131927600Y-91744800D01*
X131927600Y-91724800D01*
X132232400Y-91724800D01*
X132232400Y-91744800D01*
X133045200Y-91744800D01*
X133197600Y-91592400D01*
X133197600Y-89770557D01*
X133197600Y-89573400D01*
X133502400Y-89573400D01*
X133502400Y-89770557D01*
X133502400Y-91592400D01*
X133654800Y-91744800D01*
X134467600Y-91744800D01*
X134467600Y-91724800D01*
X134772400Y-91724800D01*
X134772400Y-91744800D01*
X135585200Y-91744800D01*
X135737600Y-91592400D01*
X135737600Y-89770557D01*
X135737600Y-89573400D01*
X138675869Y-89573400D01*
X144447184Y-95344715D01*
X144447185Y-95344715D01*
X144694395Y-95509896D01*
X144986000Y-95567900D01*
X157539987Y-95567900D01*
X157419339Y-95858452D01*
X157419190Y-96028147D01*
X156838738Y-96608600D01*
X156210000Y-96608600D01*
X155996156Y-96651136D01*
X155814869Y-96772269D01*
X155693736Y-96953556D01*
X155651200Y-97167400D01*
X155651200Y-97272189D01*
X155566411Y-97288641D01*
X155447241Y-97366923D01*
X155367469Y-97485101D01*
X155339433Y-97624900D01*
X155339433Y-102120700D01*
X155365741Y-102256289D01*
X155444023Y-102375459D01*
X155562201Y-102455231D01*
X155702000Y-102483267D01*
X156718000Y-102483267D01*
X156853589Y-102456959D01*
X156972759Y-102378677D01*
X157052531Y-102260499D01*
X157080567Y-102120700D01*
X157080567Y-97724137D01*
X157284043Y-97683664D01*
X157284044Y-97683664D01*
X157465331Y-97562531D01*
X158209469Y-96818392D01*
X158323983Y-96818492D01*
X158233736Y-96953556D01*
X158191200Y-97167400D01*
X158191200Y-97272189D01*
X158106411Y-97288641D01*
X157987241Y-97366923D01*
X157907469Y-97485101D01*
X157879433Y-97624900D01*
X157879433Y-102120700D01*
X157905741Y-102256289D01*
X157984023Y-102375459D01*
X158102201Y-102455231D01*
X158242000Y-102483267D01*
X159258000Y-102483267D01*
X159393589Y-102456959D01*
X159512759Y-102378677D01*
X159592531Y-102260499D01*
X159620567Y-102120700D01*
X159620567Y-98487176D01*
X159860152Y-98586661D01*
X160178452Y-98586939D01*
X160419433Y-98487366D01*
X160419433Y-102120700D01*
X160445741Y-102256289D01*
X160524023Y-102375459D01*
X160528000Y-102378143D01*
X160528000Y-102781400D01*
X160580059Y-103043120D01*
G36*
X165497038Y-75984100D02*
X162407600Y-79073538D01*
X162407600Y-78200153D01*
X162322528Y-77772466D01*
X162080263Y-77409890D01*
X161717687Y-77167625D01*
X161290000Y-77082553D01*
X160862313Y-77167625D01*
X160499737Y-77409890D01*
X160257472Y-77772466D01*
X160172400Y-78200153D01*
X160172400Y-79279847D01*
X160257472Y-79707534D01*
X160423090Y-79955400D01*
X159616909Y-79955400D01*
X159782528Y-79707534D01*
X159867600Y-79279847D01*
X159867600Y-78200153D01*
X159782528Y-77772466D01*
X159540263Y-77409890D01*
X159177687Y-77167625D01*
X158750000Y-77082553D01*
X158322313Y-77167625D01*
X157959737Y-77409890D01*
X157717472Y-77772466D01*
X157632400Y-78200153D01*
X157632400Y-79279847D01*
X157717472Y-79707534D01*
X157883090Y-79955400D01*
X157076909Y-79955400D01*
X157242528Y-79707534D01*
X157327600Y-79279847D01*
X157327600Y-78200153D01*
X157242528Y-77772466D01*
X157000263Y-77409890D01*
X156637687Y-77167625D01*
X156210000Y-77082553D01*
X155782313Y-77167625D01*
X155419737Y-77409890D01*
X155177472Y-77772466D01*
X155092400Y-78200153D01*
X155092400Y-79279847D01*
X155177472Y-79707534D01*
X155343090Y-79955400D01*
X154536909Y-79955400D01*
X154702528Y-79707534D01*
X154787600Y-79279847D01*
X154787600Y-78200153D01*
X154702528Y-77772466D01*
X154460263Y-77409890D01*
X154097687Y-77167625D01*
X153670000Y-77082553D01*
X153242313Y-77167625D01*
X152879737Y-77409890D01*
X152637472Y-77772466D01*
X152552400Y-78200153D01*
X152552400Y-79279847D01*
X152637472Y-79707534D01*
X152844304Y-80017080D01*
X152691669Y-80119069D01*
X152247600Y-80563138D01*
X152247600Y-79279847D01*
X152247600Y-78200153D01*
X152162528Y-77772466D01*
X151920263Y-77409890D01*
X151557687Y-77167625D01*
X151130000Y-77082553D01*
X150702313Y-77167625D01*
X150339737Y-77409890D01*
X150097472Y-77772466D01*
X150012400Y-78200153D01*
X150012400Y-79279847D01*
X150097472Y-79707534D01*
X150339737Y-80070110D01*
X150702313Y-80312375D01*
X151130000Y-80397447D01*
X151557687Y-80312375D01*
X151920263Y-80070110D01*
X152162528Y-79707534D01*
X152247600Y-79279847D01*
X152247600Y-80563138D01*
X149769369Y-83041369D01*
X149707600Y-83133812D01*
X149707600Y-79279847D01*
X149707600Y-78200153D01*
X149622528Y-77772466D01*
X149380263Y-77409890D01*
X149017687Y-77167625D01*
X148590000Y-77082553D01*
X148162313Y-77167625D01*
X147799737Y-77409890D01*
X147557472Y-77772466D01*
X147472400Y-78200153D01*
X147472400Y-79279847D01*
X147557472Y-79707534D01*
X147799737Y-80070110D01*
X148162313Y-80312375D01*
X148590000Y-80397447D01*
X149017687Y-80312375D01*
X149380263Y-80070110D01*
X149622528Y-79707534D01*
X149707600Y-79279847D01*
X149707600Y-83133812D01*
X149648236Y-83222656D01*
X149605700Y-83436500D01*
X149605700Y-88347100D01*
X149648236Y-88560944D01*
X149769369Y-88742231D01*
X150398154Y-89371016D01*
X150367241Y-89391323D01*
X150287469Y-89509501D01*
X150259433Y-89649300D01*
X150259433Y-90482450D01*
X150198062Y-90173914D01*
X150010857Y-89893742D01*
X145409257Y-85292143D01*
X145129085Y-85104938D01*
X144798600Y-85039200D01*
X135490567Y-85039200D01*
X135490567Y-83756100D01*
X143320200Y-83756100D01*
X143534043Y-83713564D01*
X143534044Y-83713564D01*
X143715331Y-83592431D01*
X146445131Y-80862631D01*
X146566264Y-80681344D01*
X146566264Y-80681343D01*
X146608799Y-80467500D01*
X146608800Y-80467500D01*
X146608800Y-80224768D01*
X146840263Y-80070110D01*
X147082528Y-79707534D01*
X147167600Y-79279847D01*
X147167600Y-78200153D01*
X147082528Y-77772466D01*
X146840263Y-77409890D01*
X146477687Y-77167625D01*
X146050000Y-77082553D01*
X145622313Y-77167625D01*
X145259737Y-77409890D01*
X145017472Y-77772466D01*
X144932400Y-78200153D01*
X144932400Y-79279847D01*
X145017472Y-79707534D01*
X145259737Y-80070110D01*
X145491200Y-80224768D01*
X145491200Y-80236038D01*
X143088738Y-82638500D01*
X142129262Y-82638500D01*
X143905131Y-80862632D01*
X143905131Y-80862631D01*
X143965697Y-80771987D01*
X144026264Y-80681344D01*
X144026264Y-80681343D01*
X144068799Y-80467500D01*
X144068800Y-80467500D01*
X144068800Y-80224768D01*
X144300263Y-80070110D01*
X144542528Y-79707534D01*
X144627600Y-79279847D01*
X144627600Y-78200153D01*
X144542528Y-77772466D01*
X144300263Y-77409890D01*
X143937687Y-77167625D01*
X143510000Y-77082553D01*
X143082313Y-77167625D01*
X142719737Y-77409890D01*
X142477472Y-77772466D01*
X142392400Y-78200153D01*
X142392400Y-79279847D01*
X142477472Y-79707534D01*
X142719737Y-80070110D01*
X142951200Y-80224768D01*
X142951200Y-80236037D01*
X141212737Y-81974500D01*
X126962300Y-81974500D01*
X126748456Y-82017036D01*
X126657812Y-82077602D01*
X126567168Y-82138169D01*
X125639369Y-83065969D01*
X125518236Y-83247256D01*
X125475700Y-83461100D01*
X125475700Y-88347100D01*
X125518236Y-88560944D01*
X125639369Y-88742231D01*
X126268154Y-89371016D01*
X126237241Y-89391323D01*
X126157469Y-89509501D01*
X126129433Y-89649300D01*
X126129433Y-94145100D01*
X126155741Y-94280689D01*
X126234023Y-94399859D01*
X126352201Y-94479631D01*
X126492000Y-94507667D01*
X127210202Y-94507667D01*
X126086169Y-95631700D01*
X121681300Y-95631700D01*
X121389695Y-95689704D01*
X121142485Y-95854885D01*
X119032885Y-97964485D01*
X118867704Y-98211695D01*
X118809700Y-98503300D01*
X118809700Y-116166500D01*
X117703600Y-116166500D01*
X117703600Y-79279847D01*
X117703600Y-78200153D01*
X117618528Y-77772466D01*
X117376263Y-77409890D01*
X117013687Y-77167625D01*
X116586000Y-77082553D01*
X116158313Y-77167625D01*
X115795737Y-77409890D01*
X115553472Y-77772466D01*
X115468400Y-78200153D01*
X115468400Y-79279847D01*
X115553472Y-79707534D01*
X115795737Y-80070110D01*
X116158313Y-80312375D01*
X116586000Y-80397447D01*
X117013687Y-80312375D01*
X117376263Y-80070110D01*
X117618528Y-79707534D01*
X117703600Y-79279847D01*
X117703600Y-116166500D01*
X115354503Y-116166500D01*
X115354503Y-78279736D01*
X115001425Y-77425223D01*
X114348216Y-76770873D01*
X113494320Y-76416304D01*
X112569736Y-76415497D01*
X111715223Y-76768575D01*
X111060873Y-77421784D01*
X110706304Y-78275680D01*
X110705497Y-79200264D01*
X111058575Y-80054777D01*
X111711784Y-80709127D01*
X112565680Y-81063696D01*
X113490264Y-81064503D01*
X114344777Y-80711425D01*
X114999127Y-80058216D01*
X115353696Y-79204320D01*
X115354503Y-78279736D01*
X115354503Y-116166500D01*
X113259300Y-116166500D01*
X112967695Y-116224504D01*
X112720485Y-116389685D01*
X109326163Y-119784006D01*
X109326163Y-106033096D01*
X109326163Y-105294904D01*
X109177363Y-104777030D01*
X108841708Y-104355520D01*
X108447063Y-104137043D01*
X108740263Y-103941134D01*
X108982528Y-103578558D01*
X109067600Y-103150871D01*
X109067600Y-102589129D01*
X108982528Y-102161442D01*
X108740263Y-101798866D01*
X108447063Y-101602956D01*
X108841708Y-101384480D01*
X109177363Y-100962970D01*
X109326163Y-100445096D01*
X109326163Y-99706904D01*
X109177363Y-99189030D01*
X108841708Y-98767520D01*
X108370299Y-98506546D01*
X108313761Y-98499516D01*
X108102400Y-98612363D01*
X108102400Y-99923600D01*
X109174825Y-99923600D01*
X109326163Y-99706904D01*
X109326163Y-100445096D01*
X109174825Y-100228400D01*
X108102400Y-100228400D01*
X108102400Y-100248400D01*
X107797600Y-100248400D01*
X107797600Y-100228400D01*
X107797600Y-99923600D01*
X107797600Y-98612363D01*
X107586239Y-98499516D01*
X107529701Y-98506546D01*
X107058292Y-98767520D01*
X106722637Y-99189030D01*
X106573837Y-99706904D01*
X106725175Y-99923600D01*
X107797600Y-99923600D01*
X107797600Y-100228400D01*
X106725175Y-100228400D01*
X106573837Y-100445096D01*
X106722637Y-100962970D01*
X107058292Y-101384480D01*
X107452936Y-101602956D01*
X107159737Y-101798866D01*
X106917472Y-102161442D01*
X106832400Y-102589129D01*
X106832400Y-103150871D01*
X106917472Y-103578558D01*
X107159737Y-103941134D01*
X107452936Y-104137043D01*
X107058292Y-104355520D01*
X106722637Y-104777030D01*
X106573837Y-105294904D01*
X106725175Y-105511600D01*
X107797600Y-105511600D01*
X107797600Y-105491600D01*
X108102400Y-105491600D01*
X108102400Y-105511600D01*
X109174825Y-105511600D01*
X109326163Y-105294904D01*
X109326163Y-106033096D01*
X109174825Y-105816400D01*
X108102400Y-105816400D01*
X108102400Y-107127637D01*
X108313761Y-107240484D01*
X108370299Y-107233454D01*
X108841708Y-106972480D01*
X109177363Y-106550970D01*
X109326163Y-106033096D01*
X109326163Y-119784006D01*
X107952169Y-121158000D01*
X107885670Y-121158000D01*
X107865060Y-121054385D01*
X107797600Y-120953423D01*
X107797600Y-107127637D01*
X107797600Y-105816400D01*
X106725175Y-105816400D01*
X106573837Y-106033096D01*
X106722637Y-106550970D01*
X107058292Y-106972480D01*
X107529701Y-107233454D01*
X107586239Y-107240484D01*
X107797600Y-107127637D01*
X107797600Y-120953423D01*
X107587006Y-120638247D01*
X107170868Y-120360193D01*
X106680000Y-120262553D01*
X106554471Y-120287522D01*
X106554471Y-102870000D01*
X106469399Y-102442313D01*
X106227134Y-102079737D01*
X105864558Y-101837472D01*
X105436871Y-101752400D01*
X104875129Y-101752400D01*
X104447442Y-101837472D01*
X104084866Y-102079737D01*
X103842601Y-102442313D01*
X103757529Y-102870000D01*
X103842601Y-103297687D01*
X104084866Y-103660263D01*
X104447442Y-103902528D01*
X104875129Y-103987600D01*
X105436871Y-103987600D01*
X105864558Y-103902528D01*
X106227134Y-103660263D01*
X106469399Y-103297687D01*
X106554471Y-102870000D01*
X106554471Y-120287522D01*
X106189132Y-120360193D01*
X105772994Y-120638247D01*
X105542464Y-120983258D01*
X105501405Y-120848231D01*
X105118848Y-120382726D01*
X104587270Y-120099053D01*
X104529731Y-120090643D01*
X104292400Y-120201215D01*
X104292400Y-121767600D01*
X104312400Y-121767600D01*
X104312400Y-122072400D01*
X104292400Y-122072400D01*
X104292400Y-123638785D01*
X104529731Y-123749357D01*
X104587270Y-123740947D01*
X105118848Y-123457274D01*
X105501405Y-122991769D01*
X105542464Y-122856741D01*
X105772994Y-123201753D01*
X106189132Y-123479807D01*
X106680000Y-123577447D01*
X107170868Y-123479807D01*
X107587006Y-123201753D01*
X107865060Y-122785615D01*
X107885670Y-122682000D01*
X108267800Y-122682000D01*
X108267800Y-122681999D01*
X108559404Y-122623996D01*
X108559405Y-122623996D01*
X108806615Y-122458815D01*
X113574929Y-117690500D01*
X119571700Y-117690500D01*
X121049433Y-117690500D01*
X121049433Y-122085100D01*
X121075741Y-122220689D01*
X121154023Y-122339859D01*
X121272201Y-122419631D01*
X121361200Y-122437479D01*
X121361200Y-122542600D01*
X121403736Y-122756444D01*
X121524869Y-122937731D01*
X121706156Y-123058864D01*
X121920000Y-123101400D01*
X122813699Y-123101400D01*
X122932588Y-123220496D01*
X123226552Y-123342561D01*
X123544852Y-123342839D01*
X123839028Y-123221287D01*
X124064296Y-122996412D01*
X124186361Y-122702448D01*
X124186583Y-122447667D01*
X124968000Y-122447667D01*
X125103589Y-122421359D01*
X125222759Y-122343077D01*
X125302531Y-122224899D01*
X125330567Y-122085100D01*
X125330567Y-117690500D01*
X126129433Y-117690500D01*
X126129433Y-122085100D01*
X126155741Y-122220689D01*
X126234023Y-122339859D01*
X126352201Y-122419631D01*
X126441200Y-122437479D01*
X126441200Y-122542600D01*
X126483736Y-122756444D01*
X126604869Y-122937731D01*
X128981200Y-125314062D01*
X128981200Y-125617061D01*
X128697687Y-125427625D01*
X128270000Y-125342553D01*
X127842313Y-125427625D01*
X127479737Y-125669890D01*
X127237472Y-126032466D01*
X127152400Y-126460153D01*
X127152400Y-127539847D01*
X127237472Y-127967534D01*
X127479737Y-128330110D01*
X127842313Y-128572375D01*
X128270000Y-128657447D01*
X128697687Y-128572375D01*
X129060263Y-128330110D01*
X129093337Y-128280609D01*
X129093338Y-128280609D01*
X129144869Y-128357731D01*
X130543038Y-129755900D01*
X126847600Y-129755900D01*
X126847600Y-127539847D01*
X126847600Y-126460153D01*
X126762528Y-126032466D01*
X126520263Y-125669890D01*
X126157687Y-125427625D01*
X125730000Y-125342553D01*
X125302313Y-125427625D01*
X124939737Y-125669890D01*
X124697472Y-126032466D01*
X124612400Y-126460153D01*
X124612400Y-127539847D01*
X124697472Y-127967534D01*
X124939737Y-128330110D01*
X125302313Y-128572375D01*
X125730000Y-128657447D01*
X126157687Y-128572375D01*
X126520263Y-128330110D01*
X126762528Y-127967534D01*
X126847600Y-127539847D01*
X126847600Y-129755900D01*
X114084503Y-129755900D01*
X114084503Y-126539736D01*
X113731425Y-125685223D01*
X113078216Y-125030873D01*
X112224320Y-124676304D01*
X111299736Y-124675497D01*
X110445223Y-125028575D01*
X109790873Y-125681784D01*
X109436304Y-126535680D01*
X109435497Y-127460264D01*
X109788575Y-128314777D01*
X110441784Y-128969127D01*
X111295680Y-129323696D01*
X112220264Y-129324503D01*
X113074777Y-128971425D01*
X113729127Y-128318216D01*
X114083696Y-127464320D01*
X114084503Y-126539736D01*
X114084503Y-129755900D01*
X103987600Y-129755900D01*
X103987600Y-123638785D01*
X103987600Y-122072400D01*
X103967600Y-122072400D01*
X103967600Y-121767600D01*
X103987600Y-121767600D01*
X103987600Y-120201215D01*
X103750269Y-120090643D01*
X103692730Y-120099053D01*
X103161152Y-120382726D01*
X102889667Y-120713075D01*
X102889667Y-120650000D01*
X102863359Y-120514411D01*
X102785077Y-120395241D01*
X102666899Y-120315469D01*
X102527100Y-120287433D01*
X102012328Y-120287433D01*
X102012328Y-107950000D01*
X102012328Y-97790000D01*
X101869252Y-97070708D01*
X101461806Y-96460922D01*
X100852020Y-96053476D01*
X100132728Y-95910400D01*
X97987272Y-95910400D01*
X97267980Y-96053476D01*
X96658194Y-96460922D01*
X96250748Y-97070708D01*
X96107672Y-97790000D01*
X96250748Y-98509292D01*
X96658194Y-99119078D01*
X97267980Y-99526524D01*
X97987272Y-99669600D01*
X100132728Y-99669600D01*
X100852020Y-99526524D01*
X101461806Y-99119078D01*
X101869252Y-98509292D01*
X102012328Y-97790000D01*
X102012328Y-107950000D01*
X101869252Y-107230708D01*
X101461806Y-106620922D01*
X100852020Y-106213476D01*
X100132728Y-106070400D01*
X97987272Y-106070400D01*
X97267980Y-106213476D01*
X96658194Y-106620922D01*
X96250748Y-107230708D01*
X96107672Y-107950000D01*
X96250748Y-108669292D01*
X96658194Y-109279078D01*
X97267980Y-109686524D01*
X97987272Y-109829600D01*
X100132728Y-109829600D01*
X100852020Y-109686524D01*
X101461806Y-109279078D01*
X101869252Y-108669292D01*
X102012328Y-107950000D01*
X102012328Y-120287433D01*
X100672900Y-120287433D01*
X100537311Y-120313741D01*
X100418141Y-120392023D01*
X100338369Y-120510201D01*
X100310333Y-120650000D01*
X100310333Y-123190000D01*
X100336641Y-123325589D01*
X100414923Y-123444759D01*
X100533101Y-123524531D01*
X100672900Y-123552567D01*
X102527100Y-123552567D01*
X102662689Y-123526259D01*
X102781859Y-123447977D01*
X102861631Y-123329799D01*
X102889667Y-123190000D01*
X102889667Y-123126924D01*
X103161152Y-123457274D01*
X103692730Y-123740947D01*
X103750269Y-123749357D01*
X103987600Y-123638785D01*
X103987600Y-129755900D01*
X93764100Y-129755900D01*
X93764100Y-75984100D01*
X121380038Y-75984100D01*
X120000869Y-77363269D01*
X119942990Y-77449890D01*
X119916263Y-77409890D01*
X119553687Y-77167625D01*
X119126000Y-77082553D01*
X118698313Y-77167625D01*
X118335737Y-77409890D01*
X118093472Y-77772466D01*
X118008400Y-78200153D01*
X118008400Y-79279847D01*
X118093472Y-79707534D01*
X118335737Y-80070110D01*
X118698313Y-80312375D01*
X119126000Y-80397447D01*
X119553687Y-80312375D01*
X119837200Y-80122938D01*
X119837200Y-80621938D01*
X118016969Y-82442169D01*
X117895836Y-82623456D01*
X117853300Y-82837300D01*
X117853300Y-94339100D01*
X117895836Y-94552944D01*
X118016969Y-94734231D01*
X118280469Y-94997731D01*
X118461756Y-95118864D01*
X118461757Y-95118864D01*
X118675600Y-95161400D01*
X124460000Y-95161400D01*
X124673844Y-95118864D01*
X124855131Y-94997731D01*
X124976264Y-94816444D01*
X125018800Y-94602600D01*
X125018800Y-94497810D01*
X125103589Y-94481359D01*
X125222759Y-94403077D01*
X125302531Y-94284899D01*
X125330567Y-94145100D01*
X125330567Y-89649300D01*
X125304259Y-89513711D01*
X125225977Y-89394541D01*
X125107799Y-89314769D01*
X124968000Y-89286733D01*
X123952000Y-89286733D01*
X123816411Y-89313041D01*
X123697241Y-89391323D01*
X123617469Y-89509501D01*
X123589433Y-89649300D01*
X123589433Y-94043800D01*
X122790567Y-94043800D01*
X122790567Y-89649300D01*
X122764259Y-89513711D01*
X122685977Y-89394541D01*
X122651555Y-89371306D01*
X123280631Y-88742231D01*
X123401764Y-88560944D01*
X123401764Y-88560943D01*
X123444299Y-88347100D01*
X123444300Y-88347100D01*
X123444300Y-84068862D01*
X123589433Y-83923729D01*
X123589433Y-88150700D01*
X123615741Y-88286289D01*
X123694023Y-88405459D01*
X123812201Y-88485231D01*
X123952000Y-88513267D01*
X124968000Y-88513267D01*
X125103589Y-88486959D01*
X125222759Y-88408677D01*
X125302531Y-88290499D01*
X125330567Y-88150700D01*
X125330567Y-83654900D01*
X125304259Y-83519311D01*
X125225977Y-83400141D01*
X125119437Y-83328224D01*
X126486862Y-81960800D01*
X138511500Y-81960800D01*
X138725343Y-81918264D01*
X138725344Y-81918264D01*
X138906631Y-81797131D01*
X139841131Y-80862631D01*
X139841132Y-80862631D01*
X139962264Y-80681344D01*
X139962265Y-80681343D01*
X140004800Y-80467500D01*
X140004800Y-80224768D01*
X140236263Y-80070110D01*
X140478528Y-79707534D01*
X140563600Y-79279847D01*
X140563600Y-78200153D01*
X140478528Y-77772466D01*
X140236263Y-77409890D01*
X139873687Y-77167625D01*
X139446000Y-77082553D01*
X139018313Y-77167625D01*
X138655737Y-77409890D01*
X138413472Y-77772466D01*
X138328400Y-78200153D01*
X138328400Y-79279847D01*
X138413472Y-79707534D01*
X138655737Y-80070110D01*
X138887200Y-80224768D01*
X138887200Y-80236037D01*
X138280037Y-80843200D01*
X135483600Y-80843200D01*
X135483600Y-79279847D01*
X135483600Y-78200153D01*
X135398528Y-77772466D01*
X135156263Y-77409890D01*
X134793687Y-77167625D01*
X134366000Y-77082553D01*
X133938313Y-77167625D01*
X133575737Y-77409890D01*
X133333472Y-77772466D01*
X133248400Y-78200153D01*
X133248400Y-79279847D01*
X133333472Y-79707534D01*
X133575737Y-80070110D01*
X133938313Y-80312375D01*
X134366000Y-80397447D01*
X134793687Y-80312375D01*
X135156263Y-80070110D01*
X135398528Y-79707534D01*
X135483600Y-79279847D01*
X135483600Y-80843200D01*
X132234114Y-80843200D01*
X132342264Y-80681344D01*
X132384800Y-80467500D01*
X132384800Y-80224768D01*
X132616263Y-80070110D01*
X132858528Y-79707534D01*
X132943600Y-79279847D01*
X132943600Y-78200153D01*
X132858528Y-77772466D01*
X132616263Y-77409890D01*
X132253687Y-77167625D01*
X131826000Y-77082553D01*
X131398313Y-77167625D01*
X131035737Y-77409890D01*
X130793472Y-77772466D01*
X130708400Y-78200153D01*
X130708400Y-79279847D01*
X130793472Y-79707534D01*
X130927886Y-79908700D01*
X130184113Y-79908700D01*
X130318528Y-79707534D01*
X130403600Y-79279847D01*
X130403600Y-78200153D01*
X130318528Y-77772466D01*
X130076263Y-77409890D01*
X129844800Y-77255231D01*
X129844800Y-77012500D01*
X129822104Y-76898400D01*
X136001638Y-76898400D01*
X136347200Y-77243962D01*
X136347200Y-77255231D01*
X136115737Y-77409890D01*
X135873472Y-77772466D01*
X135788400Y-78200153D01*
X135788400Y-79279847D01*
X135873472Y-79707534D01*
X136115737Y-80070110D01*
X136478313Y-80312375D01*
X136906000Y-80397447D01*
X137333687Y-80312375D01*
X137696263Y-80070110D01*
X137938528Y-79707534D01*
X138023600Y-79279847D01*
X138023600Y-78200153D01*
X137938528Y-77772466D01*
X137696263Y-77409890D01*
X137464800Y-77255231D01*
X137464800Y-77012500D01*
X137422264Y-76798657D01*
X137422264Y-76798656D01*
X137301131Y-76617369D01*
X136667862Y-75984100D01*
X165497038Y-75984100D01*
X165497038Y-75984100D01*
G37*
X165497038Y-75984100D02*
X162407600Y-79073538D01*
X162407600Y-78200153D01*
X162322528Y-77772466D01*
X162080263Y-77409890D01*
X161717687Y-77167625D01*
X161290000Y-77082553D01*
X160862313Y-77167625D01*
X160499737Y-77409890D01*
X160257472Y-77772466D01*
X160172400Y-78200153D01*
X160172400Y-79279847D01*
X160257472Y-79707534D01*
X160423090Y-79955400D01*
X159616909Y-79955400D01*
X159782528Y-79707534D01*
X159867600Y-79279847D01*
X159867600Y-78200153D01*
X159782528Y-77772466D01*
X159540263Y-77409890D01*
X159177687Y-77167625D01*
X158750000Y-77082553D01*
X158322313Y-77167625D01*
X157959737Y-77409890D01*
X157717472Y-77772466D01*
X157632400Y-78200153D01*
X157632400Y-79279847D01*
X157717472Y-79707534D01*
X157883090Y-79955400D01*
X157076909Y-79955400D01*
X157242528Y-79707534D01*
X157327600Y-79279847D01*
X157327600Y-78200153D01*
X157242528Y-77772466D01*
X157000263Y-77409890D01*
X156637687Y-77167625D01*
X156210000Y-77082553D01*
X155782313Y-77167625D01*
X155419737Y-77409890D01*
X155177472Y-77772466D01*
X155092400Y-78200153D01*
X155092400Y-79279847D01*
X155177472Y-79707534D01*
X155343090Y-79955400D01*
X154536909Y-79955400D01*
X154702528Y-79707534D01*
X154787600Y-79279847D01*
X154787600Y-78200153D01*
X154702528Y-77772466D01*
X154460263Y-77409890D01*
X154097687Y-77167625D01*
X153670000Y-77082553D01*
X153242313Y-77167625D01*
X152879737Y-77409890D01*
X152637472Y-77772466D01*
X152552400Y-78200153D01*
X152552400Y-79279847D01*
X152637472Y-79707534D01*
X152844304Y-80017080D01*
X152691669Y-80119069D01*
X152247600Y-80563138D01*
X152247600Y-79279847D01*
X152247600Y-78200153D01*
X152162528Y-77772466D01*
X151920263Y-77409890D01*
X151557687Y-77167625D01*
X151130000Y-77082553D01*
X150702313Y-77167625D01*
X150339737Y-77409890D01*
X150097472Y-77772466D01*
X150012400Y-78200153D01*
X150012400Y-79279847D01*
X150097472Y-79707534D01*
X150339737Y-80070110D01*
X150702313Y-80312375D01*
X151130000Y-80397447D01*
X151557687Y-80312375D01*
X151920263Y-80070110D01*
X152162528Y-79707534D01*
X152247600Y-79279847D01*
X152247600Y-80563138D01*
X149769369Y-83041369D01*
X149707600Y-83133812D01*
X149707600Y-79279847D01*
X149707600Y-78200153D01*
X149622528Y-77772466D01*
X149380263Y-77409890D01*
X149017687Y-77167625D01*
X148590000Y-77082553D01*
X148162313Y-77167625D01*
X147799737Y-77409890D01*
X147557472Y-77772466D01*
X147472400Y-78200153D01*
X147472400Y-79279847D01*
X147557472Y-79707534D01*
X147799737Y-80070110D01*
X148162313Y-80312375D01*
X148590000Y-80397447D01*
X149017687Y-80312375D01*
X149380263Y-80070110D01*
X149622528Y-79707534D01*
X149707600Y-79279847D01*
X149707600Y-83133812D01*
X149648236Y-83222656D01*
X149605700Y-83436500D01*
X149605700Y-88347100D01*
X149648236Y-88560944D01*
X149769369Y-88742231D01*
X150398154Y-89371016D01*
X150367241Y-89391323D01*
X150287469Y-89509501D01*
X150259433Y-89649300D01*
X150259433Y-90482450D01*
X150198062Y-90173914D01*
X150010857Y-89893742D01*
X145409257Y-85292143D01*
X145129085Y-85104938D01*
X144798600Y-85039200D01*
X135490567Y-85039200D01*
X135490567Y-83756100D01*
X143320200Y-83756100D01*
X143534043Y-83713564D01*
X143534044Y-83713564D01*
X143715331Y-83592431D01*
X146445131Y-80862631D01*
X146566264Y-80681344D01*
X146566264Y-80681343D01*
X146608799Y-80467500D01*
X146608800Y-80467500D01*
X146608800Y-80224768D01*
X146840263Y-80070110D01*
X147082528Y-79707534D01*
X147167600Y-79279847D01*
X147167600Y-78200153D01*
X147082528Y-77772466D01*
X146840263Y-77409890D01*
X146477687Y-77167625D01*
X146050000Y-77082553D01*
X145622313Y-77167625D01*
X145259737Y-77409890D01*
X145017472Y-77772466D01*
X144932400Y-78200153D01*
X144932400Y-79279847D01*
X145017472Y-79707534D01*
X145259737Y-80070110D01*
X145491200Y-80224768D01*
X145491200Y-80236038D01*
X143088738Y-82638500D01*
X142129262Y-82638500D01*
X143905131Y-80862632D01*
X143905131Y-80862631D01*
X143965697Y-80771987D01*
X144026264Y-80681344D01*
X144026264Y-80681343D01*
X144068799Y-80467500D01*
X144068800Y-80467500D01*
X144068800Y-80224768D01*
X144300263Y-80070110D01*
X144542528Y-79707534D01*
X144627600Y-79279847D01*
X144627600Y-78200153D01*
X144542528Y-77772466D01*
X144300263Y-77409890D01*
X143937687Y-77167625D01*
X143510000Y-77082553D01*
X143082313Y-77167625D01*
X142719737Y-77409890D01*
X142477472Y-77772466D01*
X142392400Y-78200153D01*
X142392400Y-79279847D01*
X142477472Y-79707534D01*
X142719737Y-80070110D01*
X142951200Y-80224768D01*
X142951200Y-80236037D01*
X141212737Y-81974500D01*
X126962300Y-81974500D01*
X126748456Y-82017036D01*
X126657812Y-82077602D01*
X126567168Y-82138169D01*
X125639369Y-83065969D01*
X125518236Y-83247256D01*
X125475700Y-83461100D01*
X125475700Y-88347100D01*
X125518236Y-88560944D01*
X125639369Y-88742231D01*
X126268154Y-89371016D01*
X126237241Y-89391323D01*
X126157469Y-89509501D01*
X126129433Y-89649300D01*
X126129433Y-94145100D01*
X126155741Y-94280689D01*
X126234023Y-94399859D01*
X126352201Y-94479631D01*
X126492000Y-94507667D01*
X127210202Y-94507667D01*
X126086169Y-95631700D01*
X121681300Y-95631700D01*
X121389695Y-95689704D01*
X121142485Y-95854885D01*
X119032885Y-97964485D01*
X118867704Y-98211695D01*
X118809700Y-98503300D01*
X118809700Y-116166500D01*
X117703600Y-116166500D01*
X117703600Y-79279847D01*
X117703600Y-78200153D01*
X117618528Y-77772466D01*
X117376263Y-77409890D01*
X117013687Y-77167625D01*
X116586000Y-77082553D01*
X116158313Y-77167625D01*
X115795737Y-77409890D01*
X115553472Y-77772466D01*
X115468400Y-78200153D01*
X115468400Y-79279847D01*
X115553472Y-79707534D01*
X115795737Y-80070110D01*
X116158313Y-80312375D01*
X116586000Y-80397447D01*
X117013687Y-80312375D01*
X117376263Y-80070110D01*
X117618528Y-79707534D01*
X117703600Y-79279847D01*
X117703600Y-116166500D01*
X115354503Y-116166500D01*
X115354503Y-78279736D01*
X115001425Y-77425223D01*
X114348216Y-76770873D01*
X113494320Y-76416304D01*
X112569736Y-76415497D01*
X111715223Y-76768575D01*
X111060873Y-77421784D01*
X110706304Y-78275680D01*
X110705497Y-79200264D01*
X111058575Y-80054777D01*
X111711784Y-80709127D01*
X112565680Y-81063696D01*
X113490264Y-81064503D01*
X114344777Y-80711425D01*
X114999127Y-80058216D01*
X115353696Y-79204320D01*
X115354503Y-78279736D01*
X115354503Y-116166500D01*
X113259300Y-116166500D01*
X112967695Y-116224504D01*
X112720485Y-116389685D01*
X109326163Y-119784006D01*
X109326163Y-106033096D01*
X109326163Y-105294904D01*
X109177363Y-104777030D01*
X108841708Y-104355520D01*
X108447063Y-104137043D01*
X108740263Y-103941134D01*
X108982528Y-103578558D01*
X109067600Y-103150871D01*
X109067600Y-102589129D01*
X108982528Y-102161442D01*
X108740263Y-101798866D01*
X108447063Y-101602956D01*
X108841708Y-101384480D01*
X109177363Y-100962970D01*
X109326163Y-100445096D01*
X109326163Y-99706904D01*
X109177363Y-99189030D01*
X108841708Y-98767520D01*
X108370299Y-98506546D01*
X108313761Y-98499516D01*
X108102400Y-98612363D01*
X108102400Y-99923600D01*
X109174825Y-99923600D01*
X109326163Y-99706904D01*
X109326163Y-100445096D01*
X109174825Y-100228400D01*
X108102400Y-100228400D01*
X108102400Y-100248400D01*
X107797600Y-100248400D01*
X107797600Y-100228400D01*
X107797600Y-99923600D01*
X107797600Y-98612363D01*
X107586239Y-98499516D01*
X107529701Y-98506546D01*
X107058292Y-98767520D01*
X106722637Y-99189030D01*
X106573837Y-99706904D01*
X106725175Y-99923600D01*
X107797600Y-99923600D01*
X107797600Y-100228400D01*
X106725175Y-100228400D01*
X106573837Y-100445096D01*
X106722637Y-100962970D01*
X107058292Y-101384480D01*
X107452936Y-101602956D01*
X107159737Y-101798866D01*
X106917472Y-102161442D01*
X106832400Y-102589129D01*
X106832400Y-103150871D01*
X106917472Y-103578558D01*
X107159737Y-103941134D01*
X107452936Y-104137043D01*
X107058292Y-104355520D01*
X106722637Y-104777030D01*
X106573837Y-105294904D01*
X106725175Y-105511600D01*
X107797600Y-105511600D01*
X107797600Y-105491600D01*
X108102400Y-105491600D01*
X108102400Y-105511600D01*
X109174825Y-105511600D01*
X109326163Y-105294904D01*
X109326163Y-106033096D01*
X109174825Y-105816400D01*
X108102400Y-105816400D01*
X108102400Y-107127637D01*
X108313761Y-107240484D01*
X108370299Y-107233454D01*
X108841708Y-106972480D01*
X109177363Y-106550970D01*
X109326163Y-106033096D01*
X109326163Y-119784006D01*
X107952169Y-121158000D01*
X107885670Y-121158000D01*
X107865060Y-121054385D01*
X107797600Y-120953423D01*
X107797600Y-107127637D01*
X107797600Y-105816400D01*
X106725175Y-105816400D01*
X106573837Y-106033096D01*
X106722637Y-106550970D01*
X107058292Y-106972480D01*
X107529701Y-107233454D01*
X107586239Y-107240484D01*
X107797600Y-107127637D01*
X107797600Y-120953423D01*
X107587006Y-120638247D01*
X107170868Y-120360193D01*
X106680000Y-120262553D01*
X106554471Y-120287522D01*
X106554471Y-102870000D01*
X106469399Y-102442313D01*
X106227134Y-102079737D01*
X105864558Y-101837472D01*
X105436871Y-101752400D01*
X104875129Y-101752400D01*
X104447442Y-101837472D01*
X104084866Y-102079737D01*
X103842601Y-102442313D01*
X103757529Y-102870000D01*
X103842601Y-103297687D01*
X104084866Y-103660263D01*
X104447442Y-103902528D01*
X104875129Y-103987600D01*
X105436871Y-103987600D01*
X105864558Y-103902528D01*
X106227134Y-103660263D01*
X106469399Y-103297687D01*
X106554471Y-102870000D01*
X106554471Y-120287522D01*
X106189132Y-120360193D01*
X105772994Y-120638247D01*
X105542464Y-120983258D01*
X105501405Y-120848231D01*
X105118848Y-120382726D01*
X104587270Y-120099053D01*
X104529731Y-120090643D01*
X104292400Y-120201215D01*
X104292400Y-121767600D01*
X104312400Y-121767600D01*
X104312400Y-122072400D01*
X104292400Y-122072400D01*
X104292400Y-123638785D01*
X104529731Y-123749357D01*
X104587270Y-123740947D01*
X105118848Y-123457274D01*
X105501405Y-122991769D01*
X105542464Y-122856741D01*
X105772994Y-123201753D01*
X106189132Y-123479807D01*
X106680000Y-123577447D01*
X107170868Y-123479807D01*
X107587006Y-123201753D01*
X107865060Y-122785615D01*
X107885670Y-122682000D01*
X108267800Y-122682000D01*
X108267800Y-122681999D01*
X108559404Y-122623996D01*
X108559405Y-122623996D01*
X108806615Y-122458815D01*
X113574929Y-117690500D01*
X119571700Y-117690500D01*
X121049433Y-117690500D01*
X121049433Y-122085100D01*
X121075741Y-122220689D01*
X121154023Y-122339859D01*
X121272201Y-122419631D01*
X121361200Y-122437479D01*
X121361200Y-122542600D01*
X121403736Y-122756444D01*
X121524869Y-122937731D01*
X121706156Y-123058864D01*
X121920000Y-123101400D01*
X122813699Y-123101400D01*
X122932588Y-123220496D01*
X123226552Y-123342561D01*
X123544852Y-123342839D01*
X123839028Y-123221287D01*
X124064296Y-122996412D01*
X124186361Y-122702448D01*
X124186583Y-122447667D01*
X124968000Y-122447667D01*
X125103589Y-122421359D01*
X125222759Y-122343077D01*
X125302531Y-122224899D01*
X125330567Y-122085100D01*
X125330567Y-117690500D01*
X126129433Y-117690500D01*
X126129433Y-122085100D01*
X126155741Y-122220689D01*
X126234023Y-122339859D01*
X126352201Y-122419631D01*
X126441200Y-122437479D01*
X126441200Y-122542600D01*
X126483736Y-122756444D01*
X126604869Y-122937731D01*
X128981200Y-125314062D01*
X128981200Y-125617061D01*
X128697687Y-125427625D01*
X128270000Y-125342553D01*
X127842313Y-125427625D01*
X127479737Y-125669890D01*
X127237472Y-126032466D01*
X127152400Y-126460153D01*
X127152400Y-127539847D01*
X127237472Y-127967534D01*
X127479737Y-128330110D01*
X127842313Y-128572375D01*
X128270000Y-128657447D01*
X128697687Y-128572375D01*
X129060263Y-128330110D01*
X129093337Y-128280609D01*
X129093338Y-128280609D01*
X129144869Y-128357731D01*
X130543038Y-129755900D01*
X126847600Y-129755900D01*
X126847600Y-127539847D01*
X126847600Y-126460153D01*
X126762528Y-126032466D01*
X126520263Y-125669890D01*
X126157687Y-125427625D01*
X125730000Y-125342553D01*
X125302313Y-125427625D01*
X124939737Y-125669890D01*
X124697472Y-126032466D01*
X124612400Y-126460153D01*
X124612400Y-127539847D01*
X124697472Y-127967534D01*
X124939737Y-128330110D01*
X125302313Y-128572375D01*
X125730000Y-128657447D01*
X126157687Y-128572375D01*
X126520263Y-128330110D01*
X126762528Y-127967534D01*
X126847600Y-127539847D01*
X126847600Y-129755900D01*
X114084503Y-129755900D01*
X114084503Y-126539736D01*
X113731425Y-125685223D01*
X113078216Y-125030873D01*
X112224320Y-124676304D01*
X111299736Y-124675497D01*
X110445223Y-125028575D01*
X109790873Y-125681784D01*
X109436304Y-126535680D01*
X109435497Y-127460264D01*
X109788575Y-128314777D01*
X110441784Y-128969127D01*
X111295680Y-129323696D01*
X112220264Y-129324503D01*
X113074777Y-128971425D01*
X113729127Y-128318216D01*
X114083696Y-127464320D01*
X114084503Y-126539736D01*
X114084503Y-129755900D01*
X103987600Y-129755900D01*
X103987600Y-123638785D01*
X103987600Y-122072400D01*
X103967600Y-122072400D01*
X103967600Y-121767600D01*
X103987600Y-121767600D01*
X103987600Y-120201215D01*
X103750269Y-120090643D01*
X103692730Y-120099053D01*
X103161152Y-120382726D01*
X102889667Y-120713075D01*
X102889667Y-120650000D01*
X102863359Y-120514411D01*
X102785077Y-120395241D01*
X102666899Y-120315469D01*
X102527100Y-120287433D01*
X102012328Y-120287433D01*
X102012328Y-107950000D01*
X102012328Y-97790000D01*
X101869252Y-97070708D01*
X101461806Y-96460922D01*
X100852020Y-96053476D01*
X100132728Y-95910400D01*
X97987272Y-95910400D01*
X97267980Y-96053476D01*
X96658194Y-96460922D01*
X96250748Y-97070708D01*
X96107672Y-97790000D01*
X96250748Y-98509292D01*
X96658194Y-99119078D01*
X97267980Y-99526524D01*
X97987272Y-99669600D01*
X100132728Y-99669600D01*
X100852020Y-99526524D01*
X101461806Y-99119078D01*
X101869252Y-98509292D01*
X102012328Y-97790000D01*
X102012328Y-107950000D01*
X101869252Y-107230708D01*
X101461806Y-106620922D01*
X100852020Y-106213476D01*
X100132728Y-106070400D01*
X97987272Y-106070400D01*
X97267980Y-106213476D01*
X96658194Y-106620922D01*
X96250748Y-107230708D01*
X96107672Y-107950000D01*
X96250748Y-108669292D01*
X96658194Y-109279078D01*
X97267980Y-109686524D01*
X97987272Y-109829600D01*
X100132728Y-109829600D01*
X100852020Y-109686524D01*
X101461806Y-109279078D01*
X101869252Y-108669292D01*
X102012328Y-107950000D01*
X102012328Y-120287433D01*
X100672900Y-120287433D01*
X100537311Y-120313741D01*
X100418141Y-120392023D01*
X100338369Y-120510201D01*
X100310333Y-120650000D01*
X100310333Y-123190000D01*
X100336641Y-123325589D01*
X100414923Y-123444759D01*
X100533101Y-123524531D01*
X100672900Y-123552567D01*
X102527100Y-123552567D01*
X102662689Y-123526259D01*
X102781859Y-123447977D01*
X102861631Y-123329799D01*
X102889667Y-123190000D01*
X102889667Y-123126924D01*
X103161152Y-123457274D01*
X103692730Y-123740947D01*
X103750269Y-123749357D01*
X103987600Y-123638785D01*
X103987600Y-129755900D01*
X93764100Y-129755900D01*
X93764100Y-75984100D01*
X121380038Y-75984100D01*
X120000869Y-77363269D01*
X119942990Y-77449890D01*
X119916263Y-77409890D01*
X119553687Y-77167625D01*
X119126000Y-77082553D01*
X118698313Y-77167625D01*
X118335737Y-77409890D01*
X118093472Y-77772466D01*
X118008400Y-78200153D01*
X118008400Y-79279847D01*
X118093472Y-79707534D01*
X118335737Y-80070110D01*
X118698313Y-80312375D01*
X119126000Y-80397447D01*
X119553687Y-80312375D01*
X119837200Y-80122938D01*
X119837200Y-80621938D01*
X118016969Y-82442169D01*
X117895836Y-82623456D01*
X117853300Y-82837300D01*
X117853300Y-94339100D01*
X117895836Y-94552944D01*
X118016969Y-94734231D01*
X118280469Y-94997731D01*
X118461756Y-95118864D01*
X118461757Y-95118864D01*
X118675600Y-95161400D01*
X124460000Y-95161400D01*
X124673844Y-95118864D01*
X124855131Y-94997731D01*
X124976264Y-94816444D01*
X125018800Y-94602600D01*
X125018800Y-94497810D01*
X125103589Y-94481359D01*
X125222759Y-94403077D01*
X125302531Y-94284899D01*
X125330567Y-94145100D01*
X125330567Y-89649300D01*
X125304259Y-89513711D01*
X125225977Y-89394541D01*
X125107799Y-89314769D01*
X124968000Y-89286733D01*
X123952000Y-89286733D01*
X123816411Y-89313041D01*
X123697241Y-89391323D01*
X123617469Y-89509501D01*
X123589433Y-89649300D01*
X123589433Y-94043800D01*
X122790567Y-94043800D01*
X122790567Y-89649300D01*
X122764259Y-89513711D01*
X122685977Y-89394541D01*
X122651555Y-89371306D01*
X123280631Y-88742231D01*
X123401764Y-88560944D01*
X123401764Y-88560943D01*
X123444299Y-88347100D01*
X123444300Y-88347100D01*
X123444300Y-84068862D01*
X123589433Y-83923729D01*
X123589433Y-88150700D01*
X123615741Y-88286289D01*
X123694023Y-88405459D01*
X123812201Y-88485231D01*
X123952000Y-88513267D01*
X124968000Y-88513267D01*
X125103589Y-88486959D01*
X125222759Y-88408677D01*
X125302531Y-88290499D01*
X125330567Y-88150700D01*
X125330567Y-83654900D01*
X125304259Y-83519311D01*
X125225977Y-83400141D01*
X125119437Y-83328224D01*
X126486862Y-81960800D01*
X138511500Y-81960800D01*
X138725343Y-81918264D01*
X138725344Y-81918264D01*
X138906631Y-81797131D01*
X139841131Y-80862631D01*
X139841132Y-80862631D01*
X139962264Y-80681344D01*
X139962265Y-80681343D01*
X140004800Y-80467500D01*
X140004800Y-80224768D01*
X140236263Y-80070110D01*
X140478528Y-79707534D01*
X140563600Y-79279847D01*
X140563600Y-78200153D01*
X140478528Y-77772466D01*
X140236263Y-77409890D01*
X139873687Y-77167625D01*
X139446000Y-77082553D01*
X139018313Y-77167625D01*
X138655737Y-77409890D01*
X138413472Y-77772466D01*
X138328400Y-78200153D01*
X138328400Y-79279847D01*
X138413472Y-79707534D01*
X138655737Y-80070110D01*
X138887200Y-80224768D01*
X138887200Y-80236037D01*
X138280037Y-80843200D01*
X135483600Y-80843200D01*
X135483600Y-79279847D01*
X135483600Y-78200153D01*
X135398528Y-77772466D01*
X135156263Y-77409890D01*
X134793687Y-77167625D01*
X134366000Y-77082553D01*
X133938313Y-77167625D01*
X133575737Y-77409890D01*
X133333472Y-77772466D01*
X133248400Y-78200153D01*
X133248400Y-79279847D01*
X133333472Y-79707534D01*
X133575737Y-80070110D01*
X133938313Y-80312375D01*
X134366000Y-80397447D01*
X134793687Y-80312375D01*
X135156263Y-80070110D01*
X135398528Y-79707534D01*
X135483600Y-79279847D01*
X135483600Y-80843200D01*
X132234114Y-80843200D01*
X132342264Y-80681344D01*
X132384800Y-80467500D01*
X132384800Y-80224768D01*
X132616263Y-80070110D01*
X132858528Y-79707534D01*
X132943600Y-79279847D01*
X132943600Y-78200153D01*
X132858528Y-77772466D01*
X132616263Y-77409890D01*
X132253687Y-77167625D01*
X131826000Y-77082553D01*
X131398313Y-77167625D01*
X131035737Y-77409890D01*
X130793472Y-77772466D01*
X130708400Y-78200153D01*
X130708400Y-79279847D01*
X130793472Y-79707534D01*
X130927886Y-79908700D01*
X130184113Y-79908700D01*
X130318528Y-79707534D01*
X130403600Y-79279847D01*
X130403600Y-78200153D01*
X130318528Y-77772466D01*
X130076263Y-77409890D01*
X129844800Y-77255231D01*
X129844800Y-77012500D01*
X129822104Y-76898400D01*
X136001638Y-76898400D01*
X136347200Y-77243962D01*
X136347200Y-77255231D01*
X136115737Y-77409890D01*
X135873472Y-77772466D01*
X135788400Y-78200153D01*
X135788400Y-79279847D01*
X135873472Y-79707534D01*
X136115737Y-80070110D01*
X136478313Y-80312375D01*
X136906000Y-80397447D01*
X137333687Y-80312375D01*
X137696263Y-80070110D01*
X137938528Y-79707534D01*
X138023600Y-79279847D01*
X138023600Y-78200153D01*
X137938528Y-77772466D01*
X137696263Y-77409890D01*
X137464800Y-77255231D01*
X137464800Y-77012500D01*
X137422264Y-76798657D01*
X137422264Y-76798656D01*
X137301131Y-76617369D01*
X136667862Y-75984100D01*
X165497038Y-75984100D01*
G36*
X180174180Y-104660700D02*
X177719000Y-104660700D01*
X177505156Y-104703236D01*
X177323868Y-104824369D01*
X174134437Y-108013800D01*
X167487600Y-108013800D01*
X167487600Y-107993843D01*
X167487600Y-106172000D01*
X167487600Y-105562400D01*
X167487600Y-103740557D01*
X167487600Y-103498043D01*
X167394794Y-103273989D01*
X167223311Y-103102506D01*
X166999257Y-103009700D01*
X166674800Y-103009700D01*
X166522400Y-103162100D01*
X166522400Y-105714800D01*
X167335200Y-105714800D01*
X167487600Y-105562400D01*
X167487600Y-106172000D01*
X167335200Y-106019600D01*
X166522400Y-106019600D01*
X166522400Y-106039600D01*
X166217600Y-106039600D01*
X166217600Y-106019600D01*
X166217600Y-105714800D01*
X166217600Y-103162100D01*
X166065200Y-103009700D01*
X165740743Y-103009700D01*
X165516689Y-103102506D01*
X165345206Y-103273989D01*
X165252400Y-103498043D01*
X165252400Y-103740557D01*
X165252400Y-105562400D01*
X165404800Y-105714800D01*
X166217600Y-105714800D01*
X166217600Y-106019600D01*
X165404800Y-106019600D01*
X165252400Y-106172000D01*
X165252400Y-107993843D01*
X165252400Y-108013800D01*
X164947600Y-108013800D01*
X164947600Y-107993843D01*
X164947600Y-106172000D01*
X164947600Y-105562400D01*
X164947600Y-103740557D01*
X164947600Y-103498043D01*
X164854794Y-103273989D01*
X164683311Y-103102506D01*
X164459257Y-103009700D01*
X164134800Y-103009700D01*
X163982400Y-103162100D01*
X163982400Y-105714800D01*
X164795200Y-105714800D01*
X164947600Y-105562400D01*
X164947600Y-106172000D01*
X164795200Y-106019600D01*
X163982400Y-106019600D01*
X163982400Y-106039600D01*
X163677600Y-106039600D01*
X163677600Y-106019600D01*
X163677600Y-105714800D01*
X163677600Y-103162100D01*
X163525200Y-103009700D01*
X163200743Y-103009700D01*
X162976689Y-103102506D01*
X162805206Y-103273989D01*
X162712400Y-103498043D01*
X162712400Y-103740557D01*
X162712400Y-105562400D01*
X162864800Y-105714800D01*
X163677600Y-105714800D01*
X163677600Y-106019600D01*
X162864800Y-106019600D01*
X162712400Y-106172000D01*
X162712400Y-107993843D01*
X162712400Y-108013800D01*
X162407600Y-108013800D01*
X162407600Y-107993843D01*
X162407600Y-106172000D01*
X162255200Y-106019600D01*
X161442400Y-106019600D01*
X161442400Y-106039600D01*
X161137600Y-106039600D01*
X161137600Y-106019600D01*
X160324800Y-106019600D01*
X160172400Y-106172000D01*
X160172400Y-107993843D01*
X160172400Y-108013800D01*
X159620567Y-108013800D01*
X159620567Y-105786895D01*
X160172400Y-105235062D01*
X160172400Y-105562400D01*
X160324800Y-105714800D01*
X161137600Y-105714800D01*
X161137600Y-105694800D01*
X161442400Y-105694800D01*
X161442400Y-105714800D01*
X162255200Y-105714800D01*
X162407600Y-105562400D01*
X162407600Y-103740557D01*
X162407600Y-103539241D01*
X162617496Y-103329712D01*
X162739561Y-103035748D01*
X162739839Y-102717448D01*
X162618287Y-102423272D01*
X162407600Y-102212216D01*
X162407600Y-94266357D01*
X162407600Y-94023843D01*
X162407600Y-92202000D01*
X162255200Y-92049600D01*
X161442400Y-92049600D01*
X161442400Y-94602300D01*
X161594800Y-94754700D01*
X161919257Y-94754700D01*
X162143311Y-94661894D01*
X162314794Y-94490411D01*
X162407600Y-94266357D01*
X162407600Y-102212216D01*
X162393412Y-102198004D01*
X162192075Y-102114401D01*
X162192073Y-102114400D01*
X162160567Y-102093348D01*
X162160567Y-97624900D01*
X162134259Y-97489311D01*
X162055977Y-97370141D01*
X162052000Y-97367456D01*
X162052000Y-96964200D01*
X162052000Y-95974600D01*
X161993996Y-95682995D01*
X161828815Y-95435785D01*
X161828815Y-95435784D01*
X161066465Y-94673434D01*
X161137600Y-94602300D01*
X161137600Y-92049600D01*
X161117600Y-92049600D01*
X161117600Y-91744800D01*
X161137600Y-91744800D01*
X161137600Y-91724800D01*
X161442400Y-91724800D01*
X161442400Y-91744800D01*
X162255200Y-91744800D01*
X162407600Y-91592400D01*
X162407600Y-89770557D01*
X162407600Y-89528043D01*
X162340585Y-89366255D01*
X162560000Y-89409899D01*
X162779414Y-89366255D01*
X162712400Y-89528043D01*
X162712400Y-89770557D01*
X162712400Y-91592400D01*
X162864800Y-91744800D01*
X163677600Y-91744800D01*
X163677600Y-89192100D01*
X163525200Y-89039700D01*
X163287914Y-89039700D01*
X163814347Y-88513267D01*
X164338000Y-88513267D01*
X164473589Y-88486959D01*
X164592759Y-88408677D01*
X164672531Y-88290499D01*
X164700567Y-88150700D01*
X164700567Y-86766400D01*
X165499433Y-86766400D01*
X165499433Y-88150700D01*
X165525741Y-88286289D01*
X165604023Y-88405459D01*
X165722201Y-88485231D01*
X165862000Y-88513267D01*
X166776700Y-88513267D01*
X166776700Y-89039700D01*
X166674800Y-89039700D01*
X166522400Y-89192100D01*
X166522400Y-91744800D01*
X166542400Y-91744800D01*
X166542400Y-92049600D01*
X166522400Y-92049600D01*
X166522400Y-92069600D01*
X166217600Y-92069600D01*
X166217600Y-92049600D01*
X166217600Y-91744800D01*
X166217600Y-89192100D01*
X166065200Y-89039700D01*
X165740743Y-89039700D01*
X165516689Y-89132506D01*
X165345206Y-89303989D01*
X165252400Y-89528043D01*
X165252400Y-89770557D01*
X165252400Y-91592400D01*
X165404800Y-91744800D01*
X166217600Y-91744800D01*
X166217600Y-92049600D01*
X165404800Y-92049600D01*
X165252400Y-92202000D01*
X165252400Y-94023843D01*
X165252400Y-94266357D01*
X165345206Y-94490411D01*
X165516689Y-94661894D01*
X165740743Y-94754700D01*
X166065200Y-94754700D01*
X166217598Y-94602302D01*
X166217598Y-94754700D01*
X166217600Y-94754700D01*
X166243485Y-94754700D01*
X166217600Y-94780585D01*
X165759343Y-95238843D01*
X165572138Y-95519015D01*
X165506400Y-95849500D01*
X165506400Y-96862600D01*
X165506400Y-97590159D01*
X165499433Y-97624900D01*
X165499433Y-99009200D01*
X164947600Y-99009200D01*
X164947600Y-94266357D01*
X164947600Y-94023843D01*
X164947600Y-92202000D01*
X164947600Y-91592400D01*
X164947600Y-89770557D01*
X164947600Y-89528043D01*
X164854794Y-89303989D01*
X164683311Y-89132506D01*
X164459257Y-89039700D01*
X164134800Y-89039700D01*
X163982400Y-89192100D01*
X163982400Y-91744800D01*
X164795200Y-91744800D01*
X164947600Y-91592400D01*
X164947600Y-92202000D01*
X164795200Y-92049600D01*
X163982400Y-92049600D01*
X163982400Y-94602300D01*
X164134800Y-94754700D01*
X164459257Y-94754700D01*
X164683311Y-94661894D01*
X164854794Y-94490411D01*
X164947600Y-94266357D01*
X164947600Y-99009200D01*
X164700567Y-99009200D01*
X164700567Y-97624900D01*
X164674259Y-97489311D01*
X164595977Y-97370141D01*
X164477799Y-97290369D01*
X164338000Y-97262333D01*
X163677600Y-97262333D01*
X163677600Y-94602300D01*
X163677600Y-92049600D01*
X162864800Y-92049600D01*
X162712400Y-92202000D01*
X162712400Y-94023843D01*
X162712400Y-94266357D01*
X162805206Y-94490411D01*
X162976689Y-94661894D01*
X163200743Y-94754700D01*
X163525200Y-94754700D01*
X163677600Y-94602300D01*
X163677600Y-97262333D01*
X163322000Y-97262333D01*
X163186411Y-97288641D01*
X163067241Y-97366923D01*
X162987469Y-97485101D01*
X162959433Y-97624900D01*
X162959433Y-102120700D01*
X162985741Y-102256289D01*
X163064023Y-102375459D01*
X163182201Y-102455231D01*
X163322000Y-102483267D01*
X164338000Y-102483267D01*
X164473589Y-102456959D01*
X164592759Y-102378677D01*
X164672531Y-102260499D01*
X164700567Y-102120700D01*
X164700567Y-100736400D01*
X165499433Y-100736400D01*
X165499433Y-102120700D01*
X165525741Y-102256289D01*
X165604023Y-102375459D01*
X165722201Y-102455231D01*
X165862000Y-102483267D01*
X166878000Y-102483267D01*
X167013589Y-102456959D01*
X167132759Y-102378677D01*
X167212531Y-102260499D01*
X167240567Y-102120700D01*
X167240567Y-101964681D01*
X168756543Y-103480657D01*
X169036715Y-103667862D01*
X169367200Y-103733600D01*
X178625200Y-103733600D01*
X179209488Y-103733600D01*
X179550513Y-104243979D01*
X180174180Y-104660700D01*
X180174180Y-104660700D01*
G37*
X180174180Y-104660700D02*
X177719000Y-104660700D01*
X177505156Y-104703236D01*
X177323868Y-104824369D01*
X174134437Y-108013800D01*
X167487600Y-108013800D01*
X167487600Y-107993843D01*
X167487600Y-106172000D01*
X167487600Y-105562400D01*
X167487600Y-103740557D01*
X167487600Y-103498043D01*
X167394794Y-103273989D01*
X167223311Y-103102506D01*
X166999257Y-103009700D01*
X166674800Y-103009700D01*
X166522400Y-103162100D01*
X166522400Y-105714800D01*
X167335200Y-105714800D01*
X167487600Y-105562400D01*
X167487600Y-106172000D01*
X167335200Y-106019600D01*
X166522400Y-106019600D01*
X166522400Y-106039600D01*
X166217600Y-106039600D01*
X166217600Y-106019600D01*
X166217600Y-105714800D01*
X166217600Y-103162100D01*
X166065200Y-103009700D01*
X165740743Y-103009700D01*
X165516689Y-103102506D01*
X165345206Y-103273989D01*
X165252400Y-103498043D01*
X165252400Y-103740557D01*
X165252400Y-105562400D01*
X165404800Y-105714800D01*
X166217600Y-105714800D01*
X166217600Y-106019600D01*
X165404800Y-106019600D01*
X165252400Y-106172000D01*
X165252400Y-107993843D01*
X165252400Y-108013800D01*
X164947600Y-108013800D01*
X164947600Y-107993843D01*
X164947600Y-106172000D01*
X164947600Y-105562400D01*
X164947600Y-103740557D01*
X164947600Y-103498043D01*
X164854794Y-103273989D01*
X164683311Y-103102506D01*
X164459257Y-103009700D01*
X164134800Y-103009700D01*
X163982400Y-103162100D01*
X163982400Y-105714800D01*
X164795200Y-105714800D01*
X164947600Y-105562400D01*
X164947600Y-106172000D01*
X164795200Y-106019600D01*
X163982400Y-106019600D01*
X163982400Y-106039600D01*
X163677600Y-106039600D01*
X163677600Y-106019600D01*
X163677600Y-105714800D01*
X163677600Y-103162100D01*
X163525200Y-103009700D01*
X163200743Y-103009700D01*
X162976689Y-103102506D01*
X162805206Y-103273989D01*
X162712400Y-103498043D01*
X162712400Y-103740557D01*
X162712400Y-105562400D01*
X162864800Y-105714800D01*
X163677600Y-105714800D01*
X163677600Y-106019600D01*
X162864800Y-106019600D01*
X162712400Y-106172000D01*
X162712400Y-107993843D01*
X162712400Y-108013800D01*
X162407600Y-108013800D01*
X162407600Y-107993843D01*
X162407600Y-106172000D01*
X162255200Y-106019600D01*
X161442400Y-106019600D01*
X161442400Y-106039600D01*
X161137600Y-106039600D01*
X161137600Y-106019600D01*
X160324800Y-106019600D01*
X160172400Y-106172000D01*
X160172400Y-107993843D01*
X160172400Y-108013800D01*
X159620567Y-108013800D01*
X159620567Y-105786895D01*
X160172400Y-105235062D01*
X160172400Y-105562400D01*
X160324800Y-105714800D01*
X161137600Y-105714800D01*
X161137600Y-105694800D01*
X161442400Y-105694800D01*
X161442400Y-105714800D01*
X162255200Y-105714800D01*
X162407600Y-105562400D01*
X162407600Y-103740557D01*
X162407600Y-103539241D01*
X162617496Y-103329712D01*
X162739561Y-103035748D01*
X162739839Y-102717448D01*
X162618287Y-102423272D01*
X162407600Y-102212216D01*
X162407600Y-94266357D01*
X162407600Y-94023843D01*
X162407600Y-92202000D01*
X162255200Y-92049600D01*
X161442400Y-92049600D01*
X161442400Y-94602300D01*
X161594800Y-94754700D01*
X161919257Y-94754700D01*
X162143311Y-94661894D01*
X162314794Y-94490411D01*
X162407600Y-94266357D01*
X162407600Y-102212216D01*
X162393412Y-102198004D01*
X162192075Y-102114401D01*
X162192073Y-102114400D01*
X162160567Y-102093348D01*
X162160567Y-97624900D01*
X162134259Y-97489311D01*
X162055977Y-97370141D01*
X162052000Y-97367456D01*
X162052000Y-96964200D01*
X162052000Y-95974600D01*
X161993996Y-95682995D01*
X161828815Y-95435785D01*
X161828815Y-95435784D01*
X161066465Y-94673434D01*
X161137600Y-94602300D01*
X161137600Y-92049600D01*
X161117600Y-92049600D01*
X161117600Y-91744800D01*
X161137600Y-91744800D01*
X161137600Y-91724800D01*
X161442400Y-91724800D01*
X161442400Y-91744800D01*
X162255200Y-91744800D01*
X162407600Y-91592400D01*
X162407600Y-89770557D01*
X162407600Y-89528043D01*
X162340585Y-89366255D01*
X162560000Y-89409899D01*
X162779414Y-89366255D01*
X162712400Y-89528043D01*
X162712400Y-89770557D01*
X162712400Y-91592400D01*
X162864800Y-91744800D01*
X163677600Y-91744800D01*
X163677600Y-89192100D01*
X163525200Y-89039700D01*
X163287914Y-89039700D01*
X163814347Y-88513267D01*
X164338000Y-88513267D01*
X164473589Y-88486959D01*
X164592759Y-88408677D01*
X164672531Y-88290499D01*
X164700567Y-88150700D01*
X164700567Y-86766400D01*
X165499433Y-86766400D01*
X165499433Y-88150700D01*
X165525741Y-88286289D01*
X165604023Y-88405459D01*
X165722201Y-88485231D01*
X165862000Y-88513267D01*
X166776700Y-88513267D01*
X166776700Y-89039700D01*
X166674800Y-89039700D01*
X166522400Y-89192100D01*
X166522400Y-91744800D01*
X166542400Y-91744800D01*
X166542400Y-92049600D01*
X166522400Y-92049600D01*
X166522400Y-92069600D01*
X166217600Y-92069600D01*
X166217600Y-92049600D01*
X166217600Y-91744800D01*
X166217600Y-89192100D01*
X166065200Y-89039700D01*
X165740743Y-89039700D01*
X165516689Y-89132506D01*
X165345206Y-89303989D01*
X165252400Y-89528043D01*
X165252400Y-89770557D01*
X165252400Y-91592400D01*
X165404800Y-91744800D01*
X166217600Y-91744800D01*
X166217600Y-92049600D01*
X165404800Y-92049600D01*
X165252400Y-92202000D01*
X165252400Y-94023843D01*
X165252400Y-94266357D01*
X165345206Y-94490411D01*
X165516689Y-94661894D01*
X165740743Y-94754700D01*
X166065200Y-94754700D01*
X166217598Y-94602302D01*
X166217598Y-94754700D01*
X166217600Y-94754700D01*
X166243485Y-94754700D01*
X166217600Y-94780585D01*
X165759343Y-95238843D01*
X165572138Y-95519015D01*
X165506400Y-95849500D01*
X165506400Y-96862600D01*
X165506400Y-97590159D01*
X165499433Y-97624900D01*
X165499433Y-99009200D01*
X164947600Y-99009200D01*
X164947600Y-94266357D01*
X164947600Y-94023843D01*
X164947600Y-92202000D01*
X164947600Y-91592400D01*
X164947600Y-89770557D01*
X164947600Y-89528043D01*
X164854794Y-89303989D01*
X164683311Y-89132506D01*
X164459257Y-89039700D01*
X164134800Y-89039700D01*
X163982400Y-89192100D01*
X163982400Y-91744800D01*
X164795200Y-91744800D01*
X164947600Y-91592400D01*
X164947600Y-92202000D01*
X164795200Y-92049600D01*
X163982400Y-92049600D01*
X163982400Y-94602300D01*
X164134800Y-94754700D01*
X164459257Y-94754700D01*
X164683311Y-94661894D01*
X164854794Y-94490411D01*
X164947600Y-94266357D01*
X164947600Y-99009200D01*
X164700567Y-99009200D01*
X164700567Y-97624900D01*
X164674259Y-97489311D01*
X164595977Y-97370141D01*
X164477799Y-97290369D01*
X164338000Y-97262333D01*
X163677600Y-97262333D01*
X163677600Y-94602300D01*
X163677600Y-92049600D01*
X162864800Y-92049600D01*
X162712400Y-92202000D01*
X162712400Y-94023843D01*
X162712400Y-94266357D01*
X162805206Y-94490411D01*
X162976689Y-94661894D01*
X163200743Y-94754700D01*
X163525200Y-94754700D01*
X163677600Y-94602300D01*
X163677600Y-97262333D01*
X163322000Y-97262333D01*
X163186411Y-97288641D01*
X163067241Y-97366923D01*
X162987469Y-97485101D01*
X162959433Y-97624900D01*
X162959433Y-102120700D01*
X162985741Y-102256289D01*
X163064023Y-102375459D01*
X163182201Y-102455231D01*
X163322000Y-102483267D01*
X164338000Y-102483267D01*
X164473589Y-102456959D01*
X164592759Y-102378677D01*
X164672531Y-102260499D01*
X164700567Y-102120700D01*
X164700567Y-100736400D01*
X165499433Y-100736400D01*
X165499433Y-102120700D01*
X165525741Y-102256289D01*
X165604023Y-102375459D01*
X165722201Y-102455231D01*
X165862000Y-102483267D01*
X166878000Y-102483267D01*
X167013589Y-102456959D01*
X167132759Y-102378677D01*
X167212531Y-102260499D01*
X167240567Y-102120700D01*
X167240567Y-101964681D01*
X168756543Y-103480657D01*
X169036715Y-103667862D01*
X169367200Y-103733600D01*
X178625200Y-103733600D01*
X179209488Y-103733600D01*
X179550513Y-104243979D01*
X180174180Y-104660700D01*
G36*
X189847029Y-99723260D02*
X189645557Y-99763335D01*
X189464269Y-99884468D01*
X188679976Y-100668760D01*
X188549825Y-100482400D01*
X187477400Y-100482400D01*
X187477400Y-100502400D01*
X187172600Y-100502400D01*
X187172600Y-100482400D01*
X186100175Y-100482400D01*
X186069575Y-100526213D01*
X185959631Y-100416269D01*
X185778344Y-100295136D01*
X185564500Y-100252600D01*
X170408900Y-100252600D01*
X170290012Y-100133504D01*
X169996048Y-100011439D01*
X169677748Y-100011161D01*
X169383572Y-100132713D01*
X169158304Y-100357588D01*
X169036239Y-100651552D01*
X169035961Y-100969852D01*
X169157513Y-101264028D01*
X169382388Y-101489296D01*
X169676352Y-101611361D01*
X169994652Y-101611639D01*
X170288828Y-101490087D01*
X170408924Y-101370200D01*
X179738817Y-101370200D01*
X179550513Y-101496021D01*
X179209488Y-102006400D01*
X178625200Y-102006400D01*
X169724913Y-102006400D01*
X167240567Y-99522053D01*
X167240567Y-99463835D01*
X167422452Y-99539361D01*
X167740752Y-99539639D01*
X168034928Y-99418087D01*
X168155024Y-99298200D01*
X186212967Y-99298200D01*
X186097637Y-99443030D01*
X185948837Y-99960904D01*
X186100175Y-100177600D01*
X187172600Y-100177600D01*
X187172600Y-100157600D01*
X187477400Y-100157600D01*
X187477400Y-100177600D01*
X188549825Y-100177600D01*
X188701163Y-99960904D01*
X188552363Y-99443030D01*
X188437032Y-99298200D01*
X188982438Y-99298200D01*
X189139369Y-99455131D01*
X189320656Y-99576264D01*
X189320657Y-99576264D01*
X189534500Y-99618800D01*
X189777231Y-99618800D01*
X189847029Y-99723260D01*
X189847029Y-99723260D01*
G37*
X189847029Y-99723260D02*
X189645557Y-99763335D01*
X189464269Y-99884468D01*
X188679976Y-100668760D01*
X188549825Y-100482400D01*
X187477400Y-100482400D01*
X187477400Y-100502400D01*
X187172600Y-100502400D01*
X187172600Y-100482400D01*
X186100175Y-100482400D01*
X186069575Y-100526213D01*
X185959631Y-100416269D01*
X185778344Y-100295136D01*
X185564500Y-100252600D01*
X170408900Y-100252600D01*
X170290012Y-100133504D01*
X169996048Y-100011439D01*
X169677748Y-100011161D01*
X169383572Y-100132713D01*
X169158304Y-100357588D01*
X169036239Y-100651552D01*
X169035961Y-100969852D01*
X169157513Y-101264028D01*
X169382388Y-101489296D01*
X169676352Y-101611361D01*
X169994652Y-101611639D01*
X170288828Y-101490087D01*
X170408924Y-101370200D01*
X179738817Y-101370200D01*
X179550513Y-101496021D01*
X179209488Y-102006400D01*
X178625200Y-102006400D01*
X169724913Y-102006400D01*
X167240567Y-99522053D01*
X167240567Y-99463835D01*
X167422452Y-99539361D01*
X167740752Y-99539639D01*
X168034928Y-99418087D01*
X168155024Y-99298200D01*
X186212967Y-99298200D01*
X186097637Y-99443030D01*
X185948837Y-99960904D01*
X186100175Y-100177600D01*
X187172600Y-100177600D01*
X187172600Y-100157600D01*
X187477400Y-100157600D01*
X187477400Y-100177600D01*
X188549825Y-100177600D01*
X188701163Y-99960904D01*
X188552363Y-99443030D01*
X188437032Y-99298200D01*
X188982438Y-99298200D01*
X189139369Y-99455131D01*
X189320656Y-99576264D01*
X189320657Y-99576264D01*
X189534500Y-99618800D01*
X189777231Y-99618800D01*
X189847029Y-99723260D01*
G36*
X189879061Y-87071200D02*
X188955200Y-87071200D01*
X188741356Y-87113736D01*
X188650712Y-87174302D01*
X188560068Y-87234869D01*
X185782567Y-90012370D01*
X185782567Y-88607900D01*
X185756259Y-88472311D01*
X185677977Y-88353141D01*
X185559799Y-88273369D01*
X185420000Y-88245333D01*
X185356924Y-88245333D01*
X185687274Y-87973848D01*
X185970947Y-87442270D01*
X185979357Y-87384731D01*
X185868785Y-87147400D01*
X184302400Y-87147400D01*
X184302400Y-87167400D01*
X183997600Y-87167400D01*
X183997600Y-87147400D01*
X182431215Y-87147400D01*
X182320643Y-87384731D01*
X182329053Y-87442270D01*
X182612726Y-87973848D01*
X182943075Y-88245333D01*
X182880000Y-88245333D01*
X182744411Y-88271641D01*
X182625241Y-88349923D01*
X182545469Y-88468101D01*
X182517433Y-88607900D01*
X182517433Y-90360900D01*
X172776722Y-90360900D01*
X172723987Y-90233272D01*
X172499112Y-90008004D01*
X172205148Y-89885939D01*
X171886848Y-89885661D01*
X171592672Y-90007213D01*
X171367404Y-90232088D01*
X171245339Y-90526052D01*
X171245061Y-90844352D01*
X171325695Y-91039500D01*
X169915794Y-91039500D01*
X169915939Y-90873648D01*
X169794387Y-90579472D01*
X169569512Y-90354204D01*
X169275548Y-90232139D01*
X168957248Y-90231861D01*
X168663072Y-90353413D01*
X168503900Y-90512307D01*
X168503900Y-87173100D01*
X168438162Y-86842615D01*
X168438161Y-86842614D01*
X168376042Y-86749647D01*
X168250957Y-86562443D01*
X168250957Y-86562442D01*
X167484104Y-85795589D01*
X167769252Y-85795839D01*
X168063428Y-85674287D01*
X168183524Y-85554400D01*
X183338668Y-85554400D01*
X183078231Y-85633595D01*
X182612726Y-86016152D01*
X182329053Y-86547730D01*
X182320643Y-86605269D01*
X182431215Y-86842600D01*
X183997600Y-86842600D01*
X183997600Y-86822600D01*
X184302400Y-86822600D01*
X184302400Y-86842600D01*
X185868785Y-86842600D01*
X185979357Y-86605269D01*
X185970947Y-86547730D01*
X185687274Y-86016152D01*
X185221769Y-85633595D01*
X184961331Y-85554400D01*
X185642238Y-85554400D01*
X186842969Y-86755131D01*
X187024256Y-86876264D01*
X187024257Y-86876264D01*
X187238100Y-86918800D01*
X189777231Y-86918800D01*
X189879061Y-87071200D01*
X189879061Y-87071200D01*
G37*
X189879061Y-87071200D02*
X188955200Y-87071200D01*
X188741356Y-87113736D01*
X188650712Y-87174302D01*
X188560068Y-87234869D01*
X185782567Y-90012370D01*
X185782567Y-88607900D01*
X185756259Y-88472311D01*
X185677977Y-88353141D01*
X185559799Y-88273369D01*
X185420000Y-88245333D01*
X185356924Y-88245333D01*
X185687274Y-87973848D01*
X185970947Y-87442270D01*
X185979357Y-87384731D01*
X185868785Y-87147400D01*
X184302400Y-87147400D01*
X184302400Y-87167400D01*
X183997600Y-87167400D01*
X183997600Y-87147400D01*
X182431215Y-87147400D01*
X182320643Y-87384731D01*
X182329053Y-87442270D01*
X182612726Y-87973848D01*
X182943075Y-88245333D01*
X182880000Y-88245333D01*
X182744411Y-88271641D01*
X182625241Y-88349923D01*
X182545469Y-88468101D01*
X182517433Y-88607900D01*
X182517433Y-90360900D01*
X172776722Y-90360900D01*
X172723987Y-90233272D01*
X172499112Y-90008004D01*
X172205148Y-89885939D01*
X171886848Y-89885661D01*
X171592672Y-90007213D01*
X171367404Y-90232088D01*
X171245339Y-90526052D01*
X171245061Y-90844352D01*
X171325695Y-91039500D01*
X169915794Y-91039500D01*
X169915939Y-90873648D01*
X169794387Y-90579472D01*
X169569512Y-90354204D01*
X169275548Y-90232139D01*
X168957248Y-90231861D01*
X168663072Y-90353413D01*
X168503900Y-90512307D01*
X168503900Y-87173100D01*
X168438162Y-86842615D01*
X168438161Y-86842614D01*
X168376042Y-86749647D01*
X168250957Y-86562443D01*
X168250957Y-86562442D01*
X167484104Y-85795589D01*
X167769252Y-85795839D01*
X168063428Y-85674287D01*
X168183524Y-85554400D01*
X183338668Y-85554400D01*
X183078231Y-85633595D01*
X182612726Y-86016152D01*
X182329053Y-86547730D01*
X182320643Y-86605269D01*
X182431215Y-86842600D01*
X183997600Y-86842600D01*
X183997600Y-86822600D01*
X184302400Y-86822600D01*
X184302400Y-86842600D01*
X185868785Y-86842600D01*
X185979357Y-86605269D01*
X185970947Y-86547730D01*
X185687274Y-86016152D01*
X185221769Y-85633595D01*
X184961331Y-85554400D01*
X185642238Y-85554400D01*
X186842969Y-86755131D01*
X187024256Y-86876264D01*
X187024257Y-86876264D01*
X187238100Y-86918800D01*
X189777231Y-86918800D01*
X189879061Y-87071200D01*
G36*
X209348600Y-109924637D02*
X201871580Y-117401657D01*
X201871580Y-94183200D01*
X201871580Y-92544900D01*
X200771760Y-92544900D01*
X200619360Y-92697300D01*
X200619360Y-93847257D01*
X200712166Y-94071311D01*
X200883649Y-94242794D01*
X201107703Y-94335600D01*
X201350217Y-94335600D01*
X201719180Y-94335600D01*
X201871580Y-94183200D01*
X201871580Y-117401657D01*
X201853800Y-117419437D01*
X201853800Y-103434728D01*
X201853800Y-102305272D01*
X201672055Y-101391577D01*
X201154488Y-100616984D01*
X200379895Y-100099417D01*
X199466200Y-99917672D01*
X198552505Y-100099417D01*
X197777912Y-100616984D01*
X197260345Y-101391577D01*
X197078600Y-102305272D01*
X197078600Y-103434728D01*
X197260345Y-104348423D01*
X197777912Y-105123016D01*
X198552505Y-105640583D01*
X199466200Y-105822328D01*
X200379895Y-105640583D01*
X201154488Y-105123016D01*
X201672055Y-104348423D01*
X201853800Y-103434728D01*
X201853800Y-117419437D01*
X196475447Y-122797790D01*
X196475447Y-121920000D01*
X196475447Y-119380000D01*
X196475447Y-116840000D01*
X196390375Y-116412313D01*
X196148110Y-116049737D01*
X195785534Y-115807472D01*
X195357847Y-115722400D01*
X194278153Y-115722400D01*
X193850466Y-115807472D01*
X193487890Y-116049737D01*
X193245625Y-116412313D01*
X193160553Y-116840000D01*
X193245625Y-117267687D01*
X193487890Y-117630263D01*
X193850466Y-117872528D01*
X194278153Y-117957600D01*
X195357847Y-117957600D01*
X195785534Y-117872528D01*
X196148110Y-117630263D01*
X196390375Y-117267687D01*
X196475447Y-116840000D01*
X196475447Y-119380000D01*
X196390375Y-118952313D01*
X196148110Y-118589737D01*
X195785534Y-118347472D01*
X195357847Y-118262400D01*
X194278153Y-118262400D01*
X193850466Y-118347472D01*
X193487890Y-118589737D01*
X193245625Y-118952313D01*
X193160553Y-119380000D01*
X193245625Y-119807687D01*
X193487890Y-120170263D01*
X193850466Y-120412528D01*
X194278153Y-120497600D01*
X195357847Y-120497600D01*
X195785534Y-120412528D01*
X196148110Y-120170263D01*
X196390375Y-119807687D01*
X196475447Y-119380000D01*
X196475447Y-121920000D01*
X196390375Y-121492313D01*
X196148110Y-121129737D01*
X195785534Y-120887472D01*
X195357847Y-120802400D01*
X194278153Y-120802400D01*
X193850466Y-120887472D01*
X193487890Y-121129737D01*
X193245625Y-121492313D01*
X193160553Y-121920000D01*
X193245625Y-122347687D01*
X193487890Y-122710263D01*
X193850466Y-122952528D01*
X194278153Y-123037600D01*
X195357847Y-123037600D01*
X195785534Y-122952528D01*
X196148110Y-122710263D01*
X196390375Y-122347687D01*
X196475447Y-121920000D01*
X196475447Y-122797790D01*
X195318137Y-123955100D01*
X192919447Y-123955100D01*
X192919447Y-121920000D01*
X192919447Y-119380000D01*
X192919447Y-116840000D01*
X192834375Y-116412313D01*
X192592110Y-116049737D01*
X192229534Y-115807472D01*
X191801847Y-115722400D01*
X190722153Y-115722400D01*
X190294466Y-115807472D01*
X189931890Y-116049737D01*
X189689625Y-116412313D01*
X189604553Y-116840000D01*
X189689625Y-117267687D01*
X189931890Y-117630263D01*
X190294466Y-117872528D01*
X190722153Y-117957600D01*
X191801847Y-117957600D01*
X192229534Y-117872528D01*
X192592110Y-117630263D01*
X192834375Y-117267687D01*
X192919447Y-116840000D01*
X192919447Y-119380000D01*
X192834375Y-118952313D01*
X192592110Y-118589737D01*
X192229534Y-118347472D01*
X191801847Y-118262400D01*
X190722153Y-118262400D01*
X190294466Y-118347472D01*
X189931890Y-118589737D01*
X189689625Y-118952313D01*
X189604553Y-119380000D01*
X189689625Y-119807687D01*
X189931890Y-120170263D01*
X190294466Y-120412528D01*
X190722153Y-120497600D01*
X191801847Y-120497600D01*
X192229534Y-120412528D01*
X192592110Y-120170263D01*
X192834375Y-119807687D01*
X192919447Y-119380000D01*
X192919447Y-121920000D01*
X192834375Y-121492313D01*
X192592110Y-121129737D01*
X192229534Y-120887472D01*
X191801847Y-120802400D01*
X190722153Y-120802400D01*
X190294466Y-120887472D01*
X189931890Y-121129737D01*
X189689625Y-121492313D01*
X189604553Y-121920000D01*
X189689625Y-122347687D01*
X189931890Y-122710263D01*
X190294466Y-122952528D01*
X190722153Y-123037600D01*
X191801847Y-123037600D01*
X192229534Y-122952528D01*
X192592110Y-122710263D01*
X192834375Y-122347687D01*
X192919447Y-121920000D01*
X192919447Y-123955100D01*
X190852900Y-123955100D01*
X190639056Y-123997636D01*
X190548412Y-124058202D01*
X190457768Y-124118769D01*
X190141237Y-124435300D01*
X181063900Y-124435300D01*
X181063900Y-123895457D01*
X181063900Y-123652943D01*
X181063900Y-122580400D01*
X180911500Y-122428000D01*
X179857400Y-122428000D01*
X179857400Y-124231400D01*
X180009800Y-124383800D01*
X180575557Y-124383800D01*
X180799611Y-124290994D01*
X180971094Y-124119511D01*
X181063900Y-123895457D01*
X181063900Y-124435300D01*
X179552600Y-124435300D01*
X179552600Y-124231400D01*
X179552600Y-122428000D01*
X178498500Y-122428000D01*
X178346100Y-122580400D01*
X178346100Y-123652943D01*
X178346100Y-123895457D01*
X178438906Y-124119511D01*
X178610389Y-124290994D01*
X178834443Y-124383800D01*
X179400200Y-124383800D01*
X179552600Y-124231400D01*
X179552600Y-124435300D01*
X178282600Y-124435300D01*
X178282600Y-119710200D01*
X178282600Y-117906800D01*
X178282600Y-117602000D01*
X178282600Y-115798600D01*
X178130200Y-115646200D01*
X177564443Y-115646200D01*
X177340389Y-115739006D01*
X177168906Y-115910489D01*
X177076100Y-116134543D01*
X177076100Y-116377057D01*
X177076100Y-117449600D01*
X177228500Y-117602000D01*
X178282600Y-117602000D01*
X178282600Y-117906800D01*
X177228500Y-117906800D01*
X177076100Y-118059200D01*
X177076100Y-119131743D01*
X177076100Y-119374257D01*
X177168906Y-119598311D01*
X177340389Y-119769794D01*
X177564443Y-119862600D01*
X178130200Y-119862600D01*
X178282600Y-119710200D01*
X178282600Y-124435300D01*
X175836062Y-124435300D01*
X173548231Y-122147469D01*
X173366944Y-122026336D01*
X173153100Y-121983800D01*
X167487600Y-121983800D01*
X167487600Y-121963843D01*
X167487600Y-120142000D01*
X167335200Y-119989600D01*
X166522400Y-119989600D01*
X166522400Y-120009600D01*
X166217600Y-120009600D01*
X166217600Y-119989600D01*
X165404800Y-119989600D01*
X165252400Y-120142000D01*
X165252400Y-121963843D01*
X165252400Y-121983800D01*
X164947600Y-121983800D01*
X164947600Y-121963843D01*
X164947600Y-120142000D01*
X164795200Y-119989600D01*
X163982400Y-119989600D01*
X163982400Y-120009600D01*
X163677600Y-120009600D01*
X163677600Y-119989600D01*
X162864800Y-119989600D01*
X162712400Y-120142000D01*
X162712400Y-121963843D01*
X162712400Y-121983800D01*
X162407600Y-121983800D01*
X162407600Y-121963843D01*
X162407600Y-120142000D01*
X162255200Y-119989600D01*
X161442400Y-119989600D01*
X161442400Y-120009600D01*
X161137600Y-120009600D01*
X161137600Y-119989600D01*
X160324800Y-119989600D01*
X160172400Y-120142000D01*
X160172400Y-121963843D01*
X160172400Y-121983800D01*
X159620567Y-121983800D01*
X159620567Y-117690600D01*
X160172400Y-117690600D01*
X160172400Y-117710557D01*
X160172400Y-119532400D01*
X160324800Y-119684800D01*
X161137600Y-119684800D01*
X161137600Y-119664800D01*
X161442400Y-119664800D01*
X161442400Y-119684800D01*
X162255200Y-119684800D01*
X162407600Y-119532400D01*
X162407600Y-117710557D01*
X162407600Y-117690600D01*
X162712400Y-117690600D01*
X162712400Y-117710557D01*
X162712400Y-119532400D01*
X162864800Y-119684800D01*
X163677600Y-119684800D01*
X163677600Y-119664800D01*
X163982400Y-119664800D01*
X163982400Y-119684800D01*
X164795200Y-119684800D01*
X164947600Y-119532400D01*
X164947600Y-117710557D01*
X164947600Y-117690600D01*
X165252400Y-117690600D01*
X165252400Y-117710557D01*
X165252400Y-119532400D01*
X165404800Y-119684800D01*
X166217600Y-119684800D01*
X166217600Y-119664800D01*
X166522400Y-119664800D01*
X166522400Y-119684800D01*
X167335200Y-119684800D01*
X167487600Y-119532400D01*
X167487600Y-117710557D01*
X167487600Y-117468043D01*
X167394794Y-117243989D01*
X167278833Y-117128028D01*
X168081231Y-116325631D01*
X168135473Y-116244452D01*
X168266388Y-116375596D01*
X168560352Y-116497661D01*
X168878652Y-116497939D01*
X169172828Y-116376387D01*
X169292924Y-116256500D01*
X174605500Y-116256500D01*
X174819343Y-116213964D01*
X174819344Y-116213964D01*
X175000631Y-116092831D01*
X175916362Y-115177100D01*
X179923215Y-115177100D01*
X179847039Y-115360552D01*
X179846761Y-115678852D01*
X179968313Y-115973028D01*
X179984302Y-115989045D01*
X179970941Y-115997823D01*
X179891169Y-116116001D01*
X179863133Y-116255800D01*
X179863133Y-119215066D01*
X179793900Y-119215006D01*
X179793900Y-119131743D01*
X179793900Y-118059200D01*
X179793900Y-117449600D01*
X179793900Y-116377057D01*
X179793900Y-116134543D01*
X179701094Y-115910489D01*
X179529611Y-115739006D01*
X179305557Y-115646200D01*
X178739800Y-115646200D01*
X178587400Y-115798600D01*
X178587400Y-117602000D01*
X179641500Y-117602000D01*
X179793900Y-117449600D01*
X179793900Y-118059200D01*
X179641500Y-117906800D01*
X178587400Y-117906800D01*
X178587400Y-119710200D01*
X178739800Y-119862600D01*
X178986032Y-119862600D01*
X178985766Y-120167400D01*
X178834443Y-120167400D01*
X178610389Y-120260206D01*
X178438906Y-120431689D01*
X178346100Y-120655743D01*
X178346100Y-120898257D01*
X178346100Y-121970800D01*
X178498500Y-122123200D01*
X179552600Y-122123200D01*
X179552600Y-122103200D01*
X179857400Y-122103200D01*
X179857400Y-122123200D01*
X180911500Y-122123200D01*
X181063900Y-121970800D01*
X181063900Y-120898257D01*
X181063900Y-120878300D01*
X181133133Y-120878300D01*
X181133133Y-123774200D01*
X181159441Y-123909789D01*
X181237723Y-124028959D01*
X181355901Y-124108731D01*
X181495700Y-124136767D01*
X182994300Y-124136767D01*
X183129889Y-124110459D01*
X183249059Y-124032177D01*
X183328831Y-123913999D01*
X183356867Y-123774200D01*
X183356867Y-120777000D01*
X183330559Y-120641411D01*
X183252277Y-120522241D01*
X183134099Y-120442469D01*
X182994300Y-120414433D01*
X182803800Y-120414433D01*
X182803800Y-120319500D01*
X182761264Y-120105656D01*
X182640131Y-119924369D01*
X182458844Y-119803236D01*
X182245000Y-119760700D01*
X180546593Y-119760700D01*
X180486625Y-119615567D01*
X181724300Y-119615567D01*
X181859889Y-119589259D01*
X181979059Y-119510977D01*
X182058831Y-119392799D01*
X182086867Y-119253000D01*
X182086867Y-116255800D01*
X182060559Y-116120211D01*
X181982277Y-116001041D01*
X181864099Y-115921269D01*
X181724300Y-115893233D01*
X181533800Y-115893233D01*
X181533800Y-115798300D01*
X181491264Y-115584456D01*
X181447102Y-115518363D01*
X181447239Y-115361948D01*
X181370860Y-115177100D01*
X182715017Y-115177100D01*
X182632239Y-115376452D01*
X182631961Y-115694752D01*
X182717811Y-115902524D01*
X182630111Y-115919541D01*
X182510941Y-115997823D01*
X182431169Y-116116001D01*
X182403133Y-116255800D01*
X182403133Y-119253000D01*
X182429441Y-119388589D01*
X182507723Y-119507759D01*
X182625901Y-119587531D01*
X182765700Y-119615567D01*
X184050306Y-119615567D01*
X183931139Y-119902552D01*
X183930861Y-120220852D01*
X184012692Y-120418897D01*
X183900111Y-120440741D01*
X183780941Y-120519023D01*
X183701169Y-120637201D01*
X183673133Y-120777000D01*
X183673133Y-123774200D01*
X183699441Y-123909789D01*
X183777723Y-124028959D01*
X183895901Y-124108731D01*
X184035700Y-124136767D01*
X185534300Y-124136767D01*
X185669889Y-124110459D01*
X185789059Y-124032177D01*
X185868831Y-123913999D01*
X185896867Y-123774200D01*
X185896867Y-120777000D01*
X185870559Y-120641411D01*
X185792277Y-120522241D01*
X185674099Y-120442469D01*
X185547000Y-120416979D01*
X185547000Y-120116300D01*
X185531222Y-120036982D01*
X185531339Y-119903948D01*
X185409787Y-119609772D01*
X185184912Y-119384504D01*
X184890948Y-119262439D01*
X184625020Y-119262206D01*
X184626867Y-119253000D01*
X184626867Y-116255800D01*
X184600559Y-116120211D01*
X184522277Y-116001041D01*
X184404099Y-115921269D01*
X184264300Y-115893233D01*
X184150323Y-115893233D01*
X184232161Y-115696148D01*
X184232439Y-115377848D01*
X184149490Y-115177100D01*
X186104000Y-115177100D01*
X186317843Y-115134564D01*
X186317844Y-115134564D01*
X186499131Y-115013431D01*
X187923762Y-113588800D01*
X189879061Y-113588800D01*
X189777231Y-113741200D01*
X189534500Y-113741200D01*
X189320656Y-113783736D01*
X189139368Y-113904869D01*
X186371069Y-116673169D01*
X186249936Y-116854456D01*
X186207400Y-117068300D01*
X186207400Y-120944899D01*
X186088304Y-121063788D01*
X185966239Y-121357752D01*
X185965961Y-121676052D01*
X186087513Y-121970228D01*
X186312388Y-122195496D01*
X186606352Y-122317561D01*
X186924652Y-122317839D01*
X187218828Y-122196287D01*
X187444096Y-121971412D01*
X187566161Y-121677448D01*
X187566439Y-121359148D01*
X187444887Y-121064972D01*
X187325000Y-120944875D01*
X187325000Y-117299762D01*
X189765962Y-114858800D01*
X189777231Y-114858800D01*
X189931890Y-115090263D01*
X190294466Y-115332528D01*
X190722153Y-115417600D01*
X191801847Y-115417600D01*
X192229534Y-115332528D01*
X192592110Y-115090263D01*
X192834375Y-114727687D01*
X192919447Y-114300000D01*
X192834375Y-113872313D01*
X192644938Y-113588800D01*
X193435061Y-113588800D01*
X193245625Y-113872313D01*
X193160553Y-114300000D01*
X193245625Y-114727687D01*
X193487890Y-115090263D01*
X193850466Y-115332528D01*
X194278153Y-115417600D01*
X195357847Y-115417600D01*
X195785534Y-115332528D01*
X196148110Y-115090263D01*
X196390375Y-114727687D01*
X196475447Y-114300000D01*
X196390375Y-113872313D01*
X196148110Y-113509737D01*
X196101909Y-113478867D01*
X196101909Y-113478866D01*
X196182331Y-113425131D01*
X197658931Y-111948531D01*
X197780064Y-111767244D01*
X197780064Y-111767243D01*
X197822600Y-111553400D01*
X197822600Y-107398300D01*
X197780065Y-107184457D01*
X197780064Y-107184456D01*
X197658932Y-107003169D01*
X196940631Y-106284869D01*
X196759344Y-106163736D01*
X196545500Y-106121200D01*
X196302768Y-106121200D01*
X196148110Y-105889737D01*
X195785534Y-105647472D01*
X195357847Y-105562400D01*
X194278153Y-105562400D01*
X193850466Y-105647472D01*
X193487890Y-105889737D01*
X193273491Y-106210607D01*
X193203344Y-106163736D01*
X192989500Y-106121200D01*
X192746768Y-106121200D01*
X192592789Y-105890753D01*
X192720931Y-105805131D01*
X193485631Y-105040431D01*
X193537219Y-104963223D01*
X193850466Y-105172528D01*
X194278153Y-105257600D01*
X195357847Y-105257600D01*
X195785534Y-105172528D01*
X196148110Y-104930263D01*
X196390375Y-104567687D01*
X196475447Y-104140000D01*
X196390375Y-103712313D01*
X196148110Y-103349737D01*
X195785534Y-103107472D01*
X195357847Y-103022400D01*
X194278153Y-103022400D01*
X193850466Y-103107472D01*
X193487890Y-103349737D01*
X193333231Y-103581200D01*
X193090500Y-103581200D01*
X192876656Y-103623736D01*
X192806508Y-103670607D01*
X192592110Y-103349737D01*
X192229534Y-103107472D01*
X191801847Y-103022400D01*
X190722153Y-103022400D01*
X190294466Y-103107472D01*
X189931890Y-103349737D01*
X189777231Y-103581200D01*
X189534500Y-103581200D01*
X189320656Y-103623736D01*
X189139369Y-103744869D01*
X189018236Y-103926156D01*
X188975700Y-104140000D01*
X188975700Y-104948838D01*
X188442600Y-105481938D01*
X188442600Y-105129129D01*
X188357528Y-104701442D01*
X188115263Y-104338866D01*
X187752687Y-104096601D01*
X187325000Y-104011529D01*
X186897313Y-104096601D01*
X186702474Y-104226787D01*
X189672908Y-101256354D01*
X189604553Y-101600000D01*
X189689625Y-102027687D01*
X189931890Y-102390263D01*
X190294466Y-102632528D01*
X190722153Y-102717600D01*
X191801847Y-102717600D01*
X192229534Y-102632528D01*
X192592110Y-102390263D01*
X192746768Y-102158800D01*
X192989500Y-102158800D01*
X193203344Y-102116264D01*
X193273491Y-102069392D01*
X193487890Y-102390263D01*
X193850466Y-102632528D01*
X194278153Y-102717600D01*
X195357847Y-102717600D01*
X195785534Y-102632528D01*
X196148110Y-102390263D01*
X196390375Y-102027687D01*
X196475447Y-101600000D01*
X196390375Y-101172313D01*
X196148110Y-100809737D01*
X196088095Y-100769636D01*
X196230131Y-100674731D01*
X200384531Y-96520331D01*
X200505664Y-96339044D01*
X200505664Y-96339043D01*
X200548200Y-96125200D01*
X200548200Y-91755962D01*
X200619360Y-91684802D01*
X200619360Y-92087700D01*
X200771760Y-92240100D01*
X201871580Y-92240100D01*
X201871580Y-92220100D01*
X202176380Y-92220100D01*
X202176380Y-92240100D01*
X203276200Y-92240100D01*
X203428600Y-92087700D01*
X203428600Y-91790662D01*
X208029658Y-96391720D01*
X207269928Y-96240600D01*
X205632472Y-96240600D01*
X204815979Y-96403011D01*
X204123789Y-96865517D01*
X203661283Y-97557707D01*
X203498872Y-98374200D01*
X203661283Y-99190693D01*
X204123789Y-99882883D01*
X204815979Y-100345389D01*
X205504777Y-100482400D01*
X205105000Y-100482400D01*
X205105000Y-102717600D01*
X205125000Y-102717600D01*
X205125000Y-103022400D01*
X205105000Y-103022400D01*
X205105000Y-105257600D01*
X205504777Y-105257600D01*
X204815979Y-105394611D01*
X204800200Y-105405154D01*
X204800200Y-105257600D01*
X204800200Y-103022400D01*
X204800200Y-102717600D01*
X204800200Y-100482400D01*
X204292200Y-100482400D01*
X203428600Y-100712221D01*
X203428600Y-93847257D01*
X203428600Y-92697300D01*
X203276200Y-92544900D01*
X202176380Y-92544900D01*
X202176380Y-94183200D01*
X202328780Y-94335600D01*
X202697743Y-94335600D01*
X202940257Y-94335600D01*
X203164311Y-94242794D01*
X203335794Y-94071311D01*
X203428600Y-93847257D01*
X203428600Y-100712221D01*
X203390106Y-100722466D01*
X202648549Y-101289475D01*
X202180425Y-102097104D01*
X202115045Y-102346735D01*
X202214602Y-102717600D01*
X204800200Y-102717600D01*
X204800200Y-103022400D01*
X202214602Y-103022400D01*
X202115045Y-103393265D01*
X202180425Y-103642896D01*
X202648549Y-104450525D01*
X203390106Y-105017534D01*
X204292200Y-105257600D01*
X204800200Y-105257600D01*
X204800200Y-105405154D01*
X204123789Y-105857117D01*
X203661283Y-106549307D01*
X203498872Y-107365800D01*
X203661283Y-108182293D01*
X204123789Y-108874483D01*
X204815979Y-109336989D01*
X205632472Y-109499400D01*
X207269928Y-109499400D01*
X208086421Y-109336989D01*
X208778611Y-108874483D01*
X209241117Y-108182293D01*
X209348600Y-107641940D01*
X209348600Y-109924637D01*
X209348600Y-109924637D01*
G37*
X209348600Y-109924637D02*
X201871580Y-117401657D01*
X201871580Y-94183200D01*
X201871580Y-92544900D01*
X200771760Y-92544900D01*
X200619360Y-92697300D01*
X200619360Y-93847257D01*
X200712166Y-94071311D01*
X200883649Y-94242794D01*
X201107703Y-94335600D01*
X201350217Y-94335600D01*
X201719180Y-94335600D01*
X201871580Y-94183200D01*
X201871580Y-117401657D01*
X201853800Y-117419437D01*
X201853800Y-103434728D01*
X201853800Y-102305272D01*
X201672055Y-101391577D01*
X201154488Y-100616984D01*
X200379895Y-100099417D01*
X199466200Y-99917672D01*
X198552505Y-100099417D01*
X197777912Y-100616984D01*
X197260345Y-101391577D01*
X197078600Y-102305272D01*
X197078600Y-103434728D01*
X197260345Y-104348423D01*
X197777912Y-105123016D01*
X198552505Y-105640583D01*
X199466200Y-105822328D01*
X200379895Y-105640583D01*
X201154488Y-105123016D01*
X201672055Y-104348423D01*
X201853800Y-103434728D01*
X201853800Y-117419437D01*
X196475447Y-122797790D01*
X196475447Y-121920000D01*
X196475447Y-119380000D01*
X196475447Y-116840000D01*
X196390375Y-116412313D01*
X196148110Y-116049737D01*
X195785534Y-115807472D01*
X195357847Y-115722400D01*
X194278153Y-115722400D01*
X193850466Y-115807472D01*
X193487890Y-116049737D01*
X193245625Y-116412313D01*
X193160553Y-116840000D01*
X193245625Y-117267687D01*
X193487890Y-117630263D01*
X193850466Y-117872528D01*
X194278153Y-117957600D01*
X195357847Y-117957600D01*
X195785534Y-117872528D01*
X196148110Y-117630263D01*
X196390375Y-117267687D01*
X196475447Y-116840000D01*
X196475447Y-119380000D01*
X196390375Y-118952313D01*
X196148110Y-118589737D01*
X195785534Y-118347472D01*
X195357847Y-118262400D01*
X194278153Y-118262400D01*
X193850466Y-118347472D01*
X193487890Y-118589737D01*
X193245625Y-118952313D01*
X193160553Y-119380000D01*
X193245625Y-119807687D01*
X193487890Y-120170263D01*
X193850466Y-120412528D01*
X194278153Y-120497600D01*
X195357847Y-120497600D01*
X195785534Y-120412528D01*
X196148110Y-120170263D01*
X196390375Y-119807687D01*
X196475447Y-119380000D01*
X196475447Y-121920000D01*
X196390375Y-121492313D01*
X196148110Y-121129737D01*
X195785534Y-120887472D01*
X195357847Y-120802400D01*
X194278153Y-120802400D01*
X193850466Y-120887472D01*
X193487890Y-121129737D01*
X193245625Y-121492313D01*
X193160553Y-121920000D01*
X193245625Y-122347687D01*
X193487890Y-122710263D01*
X193850466Y-122952528D01*
X194278153Y-123037600D01*
X195357847Y-123037600D01*
X195785534Y-122952528D01*
X196148110Y-122710263D01*
X196390375Y-122347687D01*
X196475447Y-121920000D01*
X196475447Y-122797790D01*
X195318137Y-123955100D01*
X192919447Y-123955100D01*
X192919447Y-121920000D01*
X192919447Y-119380000D01*
X192919447Y-116840000D01*
X192834375Y-116412313D01*
X192592110Y-116049737D01*
X192229534Y-115807472D01*
X191801847Y-115722400D01*
X190722153Y-115722400D01*
X190294466Y-115807472D01*
X189931890Y-116049737D01*
X189689625Y-116412313D01*
X189604553Y-116840000D01*
X189689625Y-117267687D01*
X189931890Y-117630263D01*
X190294466Y-117872528D01*
X190722153Y-117957600D01*
X191801847Y-117957600D01*
X192229534Y-117872528D01*
X192592110Y-117630263D01*
X192834375Y-117267687D01*
X192919447Y-116840000D01*
X192919447Y-119380000D01*
X192834375Y-118952313D01*
X192592110Y-118589737D01*
X192229534Y-118347472D01*
X191801847Y-118262400D01*
X190722153Y-118262400D01*
X190294466Y-118347472D01*
X189931890Y-118589737D01*
X189689625Y-118952313D01*
X189604553Y-119380000D01*
X189689625Y-119807687D01*
X189931890Y-120170263D01*
X190294466Y-120412528D01*
X190722153Y-120497600D01*
X191801847Y-120497600D01*
X192229534Y-120412528D01*
X192592110Y-120170263D01*
X192834375Y-119807687D01*
X192919447Y-119380000D01*
X192919447Y-121920000D01*
X192834375Y-121492313D01*
X192592110Y-121129737D01*
X192229534Y-120887472D01*
X191801847Y-120802400D01*
X190722153Y-120802400D01*
X190294466Y-120887472D01*
X189931890Y-121129737D01*
X189689625Y-121492313D01*
X189604553Y-121920000D01*
X189689625Y-122347687D01*
X189931890Y-122710263D01*
X190294466Y-122952528D01*
X190722153Y-123037600D01*
X191801847Y-123037600D01*
X192229534Y-122952528D01*
X192592110Y-122710263D01*
X192834375Y-122347687D01*
X192919447Y-121920000D01*
X192919447Y-123955100D01*
X190852900Y-123955100D01*
X190639056Y-123997636D01*
X190548412Y-124058202D01*
X190457768Y-124118769D01*
X190141237Y-124435300D01*
X181063900Y-124435300D01*
X181063900Y-123895457D01*
X181063900Y-123652943D01*
X181063900Y-122580400D01*
X180911500Y-122428000D01*
X179857400Y-122428000D01*
X179857400Y-124231400D01*
X180009800Y-124383800D01*
X180575557Y-124383800D01*
X180799611Y-124290994D01*
X180971094Y-124119511D01*
X181063900Y-123895457D01*
X181063900Y-124435300D01*
X179552600Y-124435300D01*
X179552600Y-124231400D01*
X179552600Y-122428000D01*
X178498500Y-122428000D01*
X178346100Y-122580400D01*
X178346100Y-123652943D01*
X178346100Y-123895457D01*
X178438906Y-124119511D01*
X178610389Y-124290994D01*
X178834443Y-124383800D01*
X179400200Y-124383800D01*
X179552600Y-124231400D01*
X179552600Y-124435300D01*
X178282600Y-124435300D01*
X178282600Y-119710200D01*
X178282600Y-117906800D01*
X178282600Y-117602000D01*
X178282600Y-115798600D01*
X178130200Y-115646200D01*
X177564443Y-115646200D01*
X177340389Y-115739006D01*
X177168906Y-115910489D01*
X177076100Y-116134543D01*
X177076100Y-116377057D01*
X177076100Y-117449600D01*
X177228500Y-117602000D01*
X178282600Y-117602000D01*
X178282600Y-117906800D01*
X177228500Y-117906800D01*
X177076100Y-118059200D01*
X177076100Y-119131743D01*
X177076100Y-119374257D01*
X177168906Y-119598311D01*
X177340389Y-119769794D01*
X177564443Y-119862600D01*
X178130200Y-119862600D01*
X178282600Y-119710200D01*
X178282600Y-124435300D01*
X175836062Y-124435300D01*
X173548231Y-122147469D01*
X173366944Y-122026336D01*
X173153100Y-121983800D01*
X167487600Y-121983800D01*
X167487600Y-121963843D01*
X167487600Y-120142000D01*
X167335200Y-119989600D01*
X166522400Y-119989600D01*
X166522400Y-120009600D01*
X166217600Y-120009600D01*
X166217600Y-119989600D01*
X165404800Y-119989600D01*
X165252400Y-120142000D01*
X165252400Y-121963843D01*
X165252400Y-121983800D01*
X164947600Y-121983800D01*
X164947600Y-121963843D01*
X164947600Y-120142000D01*
X164795200Y-119989600D01*
X163982400Y-119989600D01*
X163982400Y-120009600D01*
X163677600Y-120009600D01*
X163677600Y-119989600D01*
X162864800Y-119989600D01*
X162712400Y-120142000D01*
X162712400Y-121963843D01*
X162712400Y-121983800D01*
X162407600Y-121983800D01*
X162407600Y-121963843D01*
X162407600Y-120142000D01*
X162255200Y-119989600D01*
X161442400Y-119989600D01*
X161442400Y-120009600D01*
X161137600Y-120009600D01*
X161137600Y-119989600D01*
X160324800Y-119989600D01*
X160172400Y-120142000D01*
X160172400Y-121963843D01*
X160172400Y-121983800D01*
X159620567Y-121983800D01*
X159620567Y-117690600D01*
X160172400Y-117690600D01*
X160172400Y-117710557D01*
X160172400Y-119532400D01*
X160324800Y-119684800D01*
X161137600Y-119684800D01*
X161137600Y-119664800D01*
X161442400Y-119664800D01*
X161442400Y-119684800D01*
X162255200Y-119684800D01*
X162407600Y-119532400D01*
X162407600Y-117710557D01*
X162407600Y-117690600D01*
X162712400Y-117690600D01*
X162712400Y-117710557D01*
X162712400Y-119532400D01*
X162864800Y-119684800D01*
X163677600Y-119684800D01*
X163677600Y-119664800D01*
X163982400Y-119664800D01*
X163982400Y-119684800D01*
X164795200Y-119684800D01*
X164947600Y-119532400D01*
X164947600Y-117710557D01*
X164947600Y-117690600D01*
X165252400Y-117690600D01*
X165252400Y-117710557D01*
X165252400Y-119532400D01*
X165404800Y-119684800D01*
X166217600Y-119684800D01*
X166217600Y-119664800D01*
X166522400Y-119664800D01*
X166522400Y-119684800D01*
X167335200Y-119684800D01*
X167487600Y-119532400D01*
X167487600Y-117710557D01*
X167487600Y-117468043D01*
X167394794Y-117243989D01*
X167278833Y-117128028D01*
X168081231Y-116325631D01*
X168135473Y-116244452D01*
X168266388Y-116375596D01*
X168560352Y-116497661D01*
X168878652Y-116497939D01*
X169172828Y-116376387D01*
X169292924Y-116256500D01*
X174605500Y-116256500D01*
X174819343Y-116213964D01*
X174819344Y-116213964D01*
X175000631Y-116092831D01*
X175916362Y-115177100D01*
X179923215Y-115177100D01*
X179847039Y-115360552D01*
X179846761Y-115678852D01*
X179968313Y-115973028D01*
X179984302Y-115989045D01*
X179970941Y-115997823D01*
X179891169Y-116116001D01*
X179863133Y-116255800D01*
X179863133Y-119215066D01*
X179793900Y-119215006D01*
X179793900Y-119131743D01*
X179793900Y-118059200D01*
X179793900Y-117449600D01*
X179793900Y-116377057D01*
X179793900Y-116134543D01*
X179701094Y-115910489D01*
X179529611Y-115739006D01*
X179305557Y-115646200D01*
X178739800Y-115646200D01*
X178587400Y-115798600D01*
X178587400Y-117602000D01*
X179641500Y-117602000D01*
X179793900Y-117449600D01*
X179793900Y-118059200D01*
X179641500Y-117906800D01*
X178587400Y-117906800D01*
X178587400Y-119710200D01*
X178739800Y-119862600D01*
X178986032Y-119862600D01*
X178985766Y-120167400D01*
X178834443Y-120167400D01*
X178610389Y-120260206D01*
X178438906Y-120431689D01*
X178346100Y-120655743D01*
X178346100Y-120898257D01*
X178346100Y-121970800D01*
X178498500Y-122123200D01*
X179552600Y-122123200D01*
X179552600Y-122103200D01*
X179857400Y-122103200D01*
X179857400Y-122123200D01*
X180911500Y-122123200D01*
X181063900Y-121970800D01*
X181063900Y-120898257D01*
X181063900Y-120878300D01*
X181133133Y-120878300D01*
X181133133Y-123774200D01*
X181159441Y-123909789D01*
X181237723Y-124028959D01*
X181355901Y-124108731D01*
X181495700Y-124136767D01*
X182994300Y-124136767D01*
X183129889Y-124110459D01*
X183249059Y-124032177D01*
X183328831Y-123913999D01*
X183356867Y-123774200D01*
X183356867Y-120777000D01*
X183330559Y-120641411D01*
X183252277Y-120522241D01*
X183134099Y-120442469D01*
X182994300Y-120414433D01*
X182803800Y-120414433D01*
X182803800Y-120319500D01*
X182761264Y-120105656D01*
X182640131Y-119924369D01*
X182458844Y-119803236D01*
X182245000Y-119760700D01*
X180546593Y-119760700D01*
X180486625Y-119615567D01*
X181724300Y-119615567D01*
X181859889Y-119589259D01*
X181979059Y-119510977D01*
X182058831Y-119392799D01*
X182086867Y-119253000D01*
X182086867Y-116255800D01*
X182060559Y-116120211D01*
X181982277Y-116001041D01*
X181864099Y-115921269D01*
X181724300Y-115893233D01*
X181533800Y-115893233D01*
X181533800Y-115798300D01*
X181491264Y-115584456D01*
X181447102Y-115518363D01*
X181447239Y-115361948D01*
X181370860Y-115177100D01*
X182715017Y-115177100D01*
X182632239Y-115376452D01*
X182631961Y-115694752D01*
X182717811Y-115902524D01*
X182630111Y-115919541D01*
X182510941Y-115997823D01*
X182431169Y-116116001D01*
X182403133Y-116255800D01*
X182403133Y-119253000D01*
X182429441Y-119388589D01*
X182507723Y-119507759D01*
X182625901Y-119587531D01*
X182765700Y-119615567D01*
X184050306Y-119615567D01*
X183931139Y-119902552D01*
X183930861Y-120220852D01*
X184012692Y-120418897D01*
X183900111Y-120440741D01*
X183780941Y-120519023D01*
X183701169Y-120637201D01*
X183673133Y-120777000D01*
X183673133Y-123774200D01*
X183699441Y-123909789D01*
X183777723Y-124028959D01*
X183895901Y-124108731D01*
X184035700Y-124136767D01*
X185534300Y-124136767D01*
X185669889Y-124110459D01*
X185789059Y-124032177D01*
X185868831Y-123913999D01*
X185896867Y-123774200D01*
X185896867Y-120777000D01*
X185870559Y-120641411D01*
X185792277Y-120522241D01*
X185674099Y-120442469D01*
X185547000Y-120416979D01*
X185547000Y-120116300D01*
X185531222Y-120036982D01*
X185531339Y-119903948D01*
X185409787Y-119609772D01*
X185184912Y-119384504D01*
X184890948Y-119262439D01*
X184625020Y-119262206D01*
X184626867Y-119253000D01*
X184626867Y-116255800D01*
X184600559Y-116120211D01*
X184522277Y-116001041D01*
X184404099Y-115921269D01*
X184264300Y-115893233D01*
X184150323Y-115893233D01*
X184232161Y-115696148D01*
X184232439Y-115377848D01*
X184149490Y-115177100D01*
X186104000Y-115177100D01*
X186317843Y-115134564D01*
X186317844Y-115134564D01*
X186499131Y-115013431D01*
X187923762Y-113588800D01*
X189879061Y-113588800D01*
X189777231Y-113741200D01*
X189534500Y-113741200D01*
X189320656Y-113783736D01*
X189139368Y-113904869D01*
X186371069Y-116673169D01*
X186249936Y-116854456D01*
X186207400Y-117068300D01*
X186207400Y-120944899D01*
X186088304Y-121063788D01*
X185966239Y-121357752D01*
X185965961Y-121676052D01*
X186087513Y-121970228D01*
X186312388Y-122195496D01*
X186606352Y-122317561D01*
X186924652Y-122317839D01*
X187218828Y-122196287D01*
X187444096Y-121971412D01*
X187566161Y-121677448D01*
X187566439Y-121359148D01*
X187444887Y-121064972D01*
X187325000Y-120944875D01*
X187325000Y-117299762D01*
X189765962Y-114858800D01*
X189777231Y-114858800D01*
X189931890Y-115090263D01*
X190294466Y-115332528D01*
X190722153Y-115417600D01*
X191801847Y-115417600D01*
X192229534Y-115332528D01*
X192592110Y-115090263D01*
X192834375Y-114727687D01*
X192919447Y-114300000D01*
X192834375Y-113872313D01*
X192644938Y-113588800D01*
X193435061Y-113588800D01*
X193245625Y-113872313D01*
X193160553Y-114300000D01*
X193245625Y-114727687D01*
X193487890Y-115090263D01*
X193850466Y-115332528D01*
X194278153Y-115417600D01*
X195357847Y-115417600D01*
X195785534Y-115332528D01*
X196148110Y-115090263D01*
X196390375Y-114727687D01*
X196475447Y-114300000D01*
X196390375Y-113872313D01*
X196148110Y-113509737D01*
X196101909Y-113478867D01*
X196101909Y-113478866D01*
X196182331Y-113425131D01*
X197658931Y-111948531D01*
X197780064Y-111767244D01*
X197780064Y-111767243D01*
X197822600Y-111553400D01*
X197822600Y-107398300D01*
X197780065Y-107184457D01*
X197780064Y-107184456D01*
X197658932Y-107003169D01*
X196940631Y-106284869D01*
X196759344Y-106163736D01*
X196545500Y-106121200D01*
X196302768Y-106121200D01*
X196148110Y-105889737D01*
X195785534Y-105647472D01*
X195357847Y-105562400D01*
X194278153Y-105562400D01*
X193850466Y-105647472D01*
X193487890Y-105889737D01*
X193273491Y-106210607D01*
X193203344Y-106163736D01*
X192989500Y-106121200D01*
X192746768Y-106121200D01*
X192592789Y-105890753D01*
X192720931Y-105805131D01*
X193485631Y-105040431D01*
X193537219Y-104963223D01*
X193850466Y-105172528D01*
X194278153Y-105257600D01*
X195357847Y-105257600D01*
X195785534Y-105172528D01*
X196148110Y-104930263D01*
X196390375Y-104567687D01*
X196475447Y-104140000D01*
X196390375Y-103712313D01*
X196148110Y-103349737D01*
X195785534Y-103107472D01*
X195357847Y-103022400D01*
X194278153Y-103022400D01*
X193850466Y-103107472D01*
X193487890Y-103349737D01*
X193333231Y-103581200D01*
X193090500Y-103581200D01*
X192876656Y-103623736D01*
X192806508Y-103670607D01*
X192592110Y-103349737D01*
X192229534Y-103107472D01*
X191801847Y-103022400D01*
X190722153Y-103022400D01*
X190294466Y-103107472D01*
X189931890Y-103349737D01*
X189777231Y-103581200D01*
X189534500Y-103581200D01*
X189320656Y-103623736D01*
X189139369Y-103744869D01*
X189018236Y-103926156D01*
X188975700Y-104140000D01*
X188975700Y-104948838D01*
X188442600Y-105481938D01*
X188442600Y-105129129D01*
X188357528Y-104701442D01*
X188115263Y-104338866D01*
X187752687Y-104096601D01*
X187325000Y-104011529D01*
X186897313Y-104096601D01*
X186702474Y-104226787D01*
X189672908Y-101256354D01*
X189604553Y-101600000D01*
X189689625Y-102027687D01*
X189931890Y-102390263D01*
X190294466Y-102632528D01*
X190722153Y-102717600D01*
X191801847Y-102717600D01*
X192229534Y-102632528D01*
X192592110Y-102390263D01*
X192746768Y-102158800D01*
X192989500Y-102158800D01*
X193203344Y-102116264D01*
X193273491Y-102069392D01*
X193487890Y-102390263D01*
X193850466Y-102632528D01*
X194278153Y-102717600D01*
X195357847Y-102717600D01*
X195785534Y-102632528D01*
X196148110Y-102390263D01*
X196390375Y-102027687D01*
X196475447Y-101600000D01*
X196390375Y-101172313D01*
X196148110Y-100809737D01*
X196088095Y-100769636D01*
X196230131Y-100674731D01*
X200384531Y-96520331D01*
X200505664Y-96339044D01*
X200505664Y-96339043D01*
X200548200Y-96125200D01*
X200548200Y-91755962D01*
X200619360Y-91684802D01*
X200619360Y-92087700D01*
X200771760Y-92240100D01*
X201871580Y-92240100D01*
X201871580Y-92220100D01*
X202176380Y-92220100D01*
X202176380Y-92240100D01*
X203276200Y-92240100D01*
X203428600Y-92087700D01*
X203428600Y-91790662D01*
X208029658Y-96391720D01*
X207269928Y-96240600D01*
X205632472Y-96240600D01*
X204815979Y-96403011D01*
X204123789Y-96865517D01*
X203661283Y-97557707D01*
X203498872Y-98374200D01*
X203661283Y-99190693D01*
X204123789Y-99882883D01*
X204815979Y-100345389D01*
X205504777Y-100482400D01*
X205105000Y-100482400D01*
X205105000Y-102717600D01*
X205125000Y-102717600D01*
X205125000Y-103022400D01*
X205105000Y-103022400D01*
X205105000Y-105257600D01*
X205504777Y-105257600D01*
X204815979Y-105394611D01*
X204800200Y-105405154D01*
X204800200Y-105257600D01*
X204800200Y-103022400D01*
X204800200Y-102717600D01*
X204800200Y-100482400D01*
X204292200Y-100482400D01*
X203428600Y-100712221D01*
X203428600Y-93847257D01*
X203428600Y-92697300D01*
X203276200Y-92544900D01*
X202176380Y-92544900D01*
X202176380Y-94183200D01*
X202328780Y-94335600D01*
X202697743Y-94335600D01*
X202940257Y-94335600D01*
X203164311Y-94242794D01*
X203335794Y-94071311D01*
X203428600Y-93847257D01*
X203428600Y-100712221D01*
X203390106Y-100722466D01*
X202648549Y-101289475D01*
X202180425Y-102097104D01*
X202115045Y-102346735D01*
X202214602Y-102717600D01*
X204800200Y-102717600D01*
X204800200Y-103022400D01*
X202214602Y-103022400D01*
X202115045Y-103393265D01*
X202180425Y-103642896D01*
X202648549Y-104450525D01*
X203390106Y-105017534D01*
X204292200Y-105257600D01*
X204800200Y-105257600D01*
X204800200Y-105405154D01*
X204123789Y-105857117D01*
X203661283Y-106549307D01*
X203498872Y-107365800D01*
X203661283Y-108182293D01*
X204123789Y-108874483D01*
X204815979Y-109336989D01*
X205632472Y-109499400D01*
X207269928Y-109499400D01*
X208086421Y-109336989D01*
X208778611Y-108874483D01*
X209241117Y-108182293D01*
X209348600Y-107641940D01*
X209348600Y-109924637D01*
G36*
X211035900Y-129755900D02*
X178831862Y-129755900D01*
X179465131Y-129122632D01*
X179465131Y-129122631D01*
X179525697Y-129031987D01*
X179586264Y-128941344D01*
X179586264Y-128941343D01*
X179628799Y-128727500D01*
X179628800Y-128727500D01*
X179628800Y-128484768D01*
X179860263Y-128330110D01*
X180102528Y-127967534D01*
X180187600Y-127539847D01*
X180187600Y-126460153D01*
X180102528Y-126032466D01*
X179860263Y-125669890D01*
X179685174Y-125552900D01*
X180994825Y-125552900D01*
X180819737Y-125669890D01*
X180577472Y-126032466D01*
X180492400Y-126460153D01*
X180492400Y-127539847D01*
X180577472Y-127967534D01*
X180819737Y-128330110D01*
X181182313Y-128572375D01*
X181610000Y-128657447D01*
X182037687Y-128572375D01*
X182400263Y-128330110D01*
X182642528Y-127967534D01*
X182727600Y-127539847D01*
X182727600Y-126460153D01*
X182642528Y-126032466D01*
X182400263Y-125669890D01*
X182225174Y-125552900D01*
X183534825Y-125552900D01*
X183359737Y-125669890D01*
X183117472Y-126032466D01*
X183032400Y-126460153D01*
X183032400Y-127539847D01*
X183117472Y-127967534D01*
X183359737Y-128330110D01*
X183722313Y-128572375D01*
X184150000Y-128657447D01*
X184577687Y-128572375D01*
X184940263Y-128330110D01*
X185182528Y-127967534D01*
X185267600Y-127539847D01*
X185267600Y-126460153D01*
X185182528Y-126032466D01*
X184940263Y-125669890D01*
X184765174Y-125552900D01*
X186074825Y-125552900D01*
X185899737Y-125669890D01*
X185657472Y-126032466D01*
X185572400Y-126460153D01*
X185572400Y-127539847D01*
X185657472Y-127967534D01*
X185899737Y-128330110D01*
X186262313Y-128572375D01*
X186690000Y-128657447D01*
X187117687Y-128572375D01*
X187480263Y-128330110D01*
X187722528Y-127967534D01*
X187807600Y-127539847D01*
X187807600Y-126460153D01*
X187722528Y-126032466D01*
X187480263Y-125669890D01*
X187305174Y-125552900D01*
X188614825Y-125552900D01*
X188439737Y-125669890D01*
X188197472Y-126032466D01*
X188112400Y-126460153D01*
X188112400Y-127539847D01*
X188197472Y-127967534D01*
X188439737Y-128330110D01*
X188802313Y-128572375D01*
X189230000Y-128657447D01*
X189657687Y-128572375D01*
X190020263Y-128330110D01*
X190262528Y-127967534D01*
X190347600Y-127539847D01*
X190347600Y-126460153D01*
X190262528Y-126032466D01*
X190020263Y-125669890D01*
X189845174Y-125552900D01*
X190372700Y-125552900D01*
X190586543Y-125510364D01*
X190586544Y-125510364D01*
X190767831Y-125389231D01*
X191084362Y-125072700D01*
X192951020Y-125072700D01*
X192340873Y-125681784D01*
X191986304Y-126535680D01*
X191985497Y-127460264D01*
X192338575Y-128314777D01*
X192991784Y-128969127D01*
X193845680Y-129323696D01*
X194770264Y-129324503D01*
X195624777Y-128971425D01*
X196279127Y-128318216D01*
X196633696Y-127464320D01*
X196634503Y-126539736D01*
X196281425Y-125685223D01*
X195650028Y-125052723D01*
X195763443Y-125030164D01*
X195763444Y-125030164D01*
X195944731Y-124909031D01*
X210302531Y-110551232D01*
X210302531Y-110551231D01*
X210423664Y-110369944D01*
X210466199Y-110156100D01*
X210466200Y-110156100D01*
X210466200Y-97479200D01*
X210423664Y-97265357D01*
X210423664Y-97265356D01*
X210302531Y-97084069D01*
X203424731Y-90206269D01*
X203243444Y-90085136D01*
X203181567Y-90072827D01*
X203181567Y-85471000D01*
X203181567Y-82804000D01*
X203155259Y-82668411D01*
X203076977Y-82549241D01*
X202958799Y-82469469D01*
X202819000Y-82441433D01*
X201228960Y-82441433D01*
X201093371Y-82467741D01*
X200974201Y-82546023D01*
X200894429Y-82664201D01*
X200866393Y-82804000D01*
X200866393Y-85471000D01*
X200892701Y-85606589D01*
X200970983Y-85725759D01*
X201089161Y-85805531D01*
X201228960Y-85833567D01*
X202819000Y-85833567D01*
X202954589Y-85807259D01*
X203073759Y-85728977D01*
X203153531Y-85610799D01*
X203181567Y-85471000D01*
X203181567Y-90072827D01*
X203029600Y-90042600D01*
X200912500Y-90042600D01*
X200698657Y-90085135D01*
X200517369Y-90206268D01*
X199594269Y-91129369D01*
X199473136Y-91310656D01*
X199430600Y-91524500D01*
X199430600Y-95893738D01*
X199183607Y-96140730D01*
X199183607Y-93726000D01*
X199183607Y-91059000D01*
X199157299Y-90923411D01*
X199079017Y-90804241D01*
X198960839Y-90724469D01*
X198821040Y-90696433D01*
X197231000Y-90696433D01*
X197095411Y-90722741D01*
X196976241Y-90801023D01*
X196896469Y-90919201D01*
X196868433Y-91059000D01*
X196868433Y-93726000D01*
X196894741Y-93861589D01*
X196973023Y-93980759D01*
X197091201Y-94060531D01*
X197231000Y-94088567D01*
X198821040Y-94088567D01*
X198956629Y-94062259D01*
X199075799Y-93983977D01*
X199155571Y-93865799D01*
X199183607Y-93726000D01*
X199183607Y-96140730D01*
X196440421Y-98883916D01*
X196390375Y-98632313D01*
X196148110Y-98269737D01*
X195785534Y-98027472D01*
X195357847Y-97942400D01*
X194278153Y-97942400D01*
X193850466Y-98027472D01*
X193487890Y-98269737D01*
X193333231Y-98501200D01*
X193090500Y-98501200D01*
X192876656Y-98543736D01*
X192806508Y-98590607D01*
X192592789Y-98270753D01*
X192720931Y-98185131D01*
X193485631Y-97420431D01*
X193537219Y-97343223D01*
X193850466Y-97552528D01*
X194278153Y-97637600D01*
X195357847Y-97637600D01*
X195785534Y-97552528D01*
X196148110Y-97310263D01*
X196390375Y-96947687D01*
X196475447Y-96520000D01*
X196390375Y-96092313D01*
X196148110Y-95729737D01*
X195785534Y-95487472D01*
X195357847Y-95402400D01*
X194278153Y-95402400D01*
X193850466Y-95487472D01*
X193487890Y-95729737D01*
X193333231Y-95961200D01*
X193090500Y-95961200D01*
X192876656Y-96003736D01*
X192806508Y-96050607D01*
X192592789Y-95730753D01*
X192720931Y-95645131D01*
X193485631Y-94880431D01*
X193537219Y-94803223D01*
X193850466Y-95012528D01*
X194278153Y-95097600D01*
X195357847Y-95097600D01*
X195785534Y-95012528D01*
X196148110Y-94770263D01*
X196390375Y-94407687D01*
X196475447Y-93980000D01*
X196390375Y-93552313D01*
X196148110Y-93189737D01*
X195785534Y-92947472D01*
X195357847Y-92862400D01*
X194278153Y-92862400D01*
X193850466Y-92947472D01*
X193487890Y-93189737D01*
X193333231Y-93421200D01*
X193090500Y-93421200D01*
X192876656Y-93463736D01*
X192806508Y-93510607D01*
X192592789Y-93190753D01*
X192720931Y-93105131D01*
X193485631Y-92340431D01*
X193537219Y-92263223D01*
X193850466Y-92472528D01*
X194278153Y-92557600D01*
X195357847Y-92557600D01*
X195785534Y-92472528D01*
X196148110Y-92230263D01*
X196390375Y-91867687D01*
X196475447Y-91440000D01*
X196390375Y-91012313D01*
X196148110Y-90649737D01*
X195785534Y-90407472D01*
X195357847Y-90322400D01*
X194278153Y-90322400D01*
X193850466Y-90407472D01*
X193487890Y-90649737D01*
X193333231Y-90881200D01*
X193090500Y-90881200D01*
X192876656Y-90923736D01*
X192806508Y-90970607D01*
X192592110Y-90649737D01*
X192229534Y-90407472D01*
X191801847Y-90322400D01*
X190722153Y-90322400D01*
X190294466Y-90407472D01*
X189931890Y-90649737D01*
X189777231Y-90881200D01*
X189534500Y-90881200D01*
X189320656Y-90923736D01*
X189139369Y-91044869D01*
X188242638Y-91941600D01*
X187283162Y-91941600D01*
X189765962Y-89458800D01*
X189777231Y-89458800D01*
X189931890Y-89690263D01*
X190294466Y-89932528D01*
X190722153Y-90017600D01*
X191801847Y-90017600D01*
X192229534Y-89932528D01*
X192592110Y-89690263D01*
X192834375Y-89327687D01*
X192919447Y-88900000D01*
X192834375Y-88472313D01*
X192592789Y-88110753D01*
X192720931Y-88025131D01*
X193485631Y-87260431D01*
X193537219Y-87183223D01*
X193850466Y-87392528D01*
X194278153Y-87477600D01*
X195357847Y-87477600D01*
X195785534Y-87392528D01*
X196148110Y-87150263D01*
X196390375Y-86787687D01*
X196470443Y-86385153D01*
X196559656Y-86444764D01*
X196559657Y-86444764D01*
X196773500Y-86487300D01*
X198026000Y-86487300D01*
X198203181Y-86452056D01*
X196314037Y-88341200D01*
X196302768Y-88341200D01*
X196148110Y-88109737D01*
X195785534Y-87867472D01*
X195357847Y-87782400D01*
X194278153Y-87782400D01*
X193850466Y-87867472D01*
X193487890Y-88109737D01*
X193245625Y-88472313D01*
X193160553Y-88900000D01*
X193245625Y-89327687D01*
X193487890Y-89690263D01*
X193850466Y-89932528D01*
X194278153Y-90017600D01*
X195357847Y-90017600D01*
X195785534Y-89932528D01*
X196148110Y-89690263D01*
X196302768Y-89458800D01*
X196545500Y-89458800D01*
X196759343Y-89416264D01*
X196759344Y-89416264D01*
X196940631Y-89295131D01*
X199673731Y-86562031D01*
X199794864Y-86380744D01*
X199794864Y-86380743D01*
X199837400Y-86166900D01*
X199837400Y-80911300D01*
X199794864Y-80697457D01*
X199794864Y-80697456D01*
X199673731Y-80516169D01*
X195141662Y-75984100D01*
X211035900Y-75984100D01*
X211035900Y-129755900D01*
X211035900Y-129755900D01*
G37*
X211035900Y-129755900D02*
X178831862Y-129755900D01*
X179465131Y-129122632D01*
X179465131Y-129122631D01*
X179525697Y-129031987D01*
X179586264Y-128941344D01*
X179586264Y-128941343D01*
X179628799Y-128727500D01*
X179628800Y-128727500D01*
X179628800Y-128484768D01*
X179860263Y-128330110D01*
X180102528Y-127967534D01*
X180187600Y-127539847D01*
X180187600Y-126460153D01*
X180102528Y-126032466D01*
X179860263Y-125669890D01*
X179685174Y-125552900D01*
X180994825Y-125552900D01*
X180819737Y-125669890D01*
X180577472Y-126032466D01*
X180492400Y-126460153D01*
X180492400Y-127539847D01*
X180577472Y-127967534D01*
X180819737Y-128330110D01*
X181182313Y-128572375D01*
X181610000Y-128657447D01*
X182037687Y-128572375D01*
X182400263Y-128330110D01*
X182642528Y-127967534D01*
X182727600Y-127539847D01*
X182727600Y-126460153D01*
X182642528Y-126032466D01*
X182400263Y-125669890D01*
X182225174Y-125552900D01*
X183534825Y-125552900D01*
X183359737Y-125669890D01*
X183117472Y-126032466D01*
X183032400Y-126460153D01*
X183032400Y-127539847D01*
X183117472Y-127967534D01*
X183359737Y-128330110D01*
X183722313Y-128572375D01*
X184150000Y-128657447D01*
X184577687Y-128572375D01*
X184940263Y-128330110D01*
X185182528Y-127967534D01*
X185267600Y-127539847D01*
X185267600Y-126460153D01*
X185182528Y-126032466D01*
X184940263Y-125669890D01*
X184765174Y-125552900D01*
X186074825Y-125552900D01*
X185899737Y-125669890D01*
X185657472Y-126032466D01*
X185572400Y-126460153D01*
X185572400Y-127539847D01*
X185657472Y-127967534D01*
X185899737Y-128330110D01*
X186262313Y-128572375D01*
X186690000Y-128657447D01*
X187117687Y-128572375D01*
X187480263Y-128330110D01*
X187722528Y-127967534D01*
X187807600Y-127539847D01*
X187807600Y-126460153D01*
X187722528Y-126032466D01*
X187480263Y-125669890D01*
X187305174Y-125552900D01*
X188614825Y-125552900D01*
X188439737Y-125669890D01*
X188197472Y-126032466D01*
X188112400Y-126460153D01*
X188112400Y-127539847D01*
X188197472Y-127967534D01*
X188439737Y-128330110D01*
X188802313Y-128572375D01*
X189230000Y-128657447D01*
X189657687Y-128572375D01*
X190020263Y-128330110D01*
X190262528Y-127967534D01*
X190347600Y-127539847D01*
X190347600Y-126460153D01*
X190262528Y-126032466D01*
X190020263Y-125669890D01*
X189845174Y-125552900D01*
X190372700Y-125552900D01*
X190586543Y-125510364D01*
X190586544Y-125510364D01*
X190767831Y-125389231D01*
X191084362Y-125072700D01*
X192951020Y-125072700D01*
X192340873Y-125681784D01*
X191986304Y-126535680D01*
X191985497Y-127460264D01*
X192338575Y-128314777D01*
X192991784Y-128969127D01*
X193845680Y-129323696D01*
X194770264Y-129324503D01*
X195624777Y-128971425D01*
X196279127Y-128318216D01*
X196633696Y-127464320D01*
X196634503Y-126539736D01*
X196281425Y-125685223D01*
X195650028Y-125052723D01*
X195763443Y-125030164D01*
X195763444Y-125030164D01*
X195944731Y-124909031D01*
X210302531Y-110551232D01*
X210302531Y-110551231D01*
X210423664Y-110369944D01*
X210466199Y-110156100D01*
X210466200Y-110156100D01*
X210466200Y-97479200D01*
X210423664Y-97265357D01*
X210423664Y-97265356D01*
X210302531Y-97084069D01*
X203424731Y-90206269D01*
X203243444Y-90085136D01*
X203181567Y-90072827D01*
X203181567Y-85471000D01*
X203181567Y-82804000D01*
X203155259Y-82668411D01*
X203076977Y-82549241D01*
X202958799Y-82469469D01*
X202819000Y-82441433D01*
X201228960Y-82441433D01*
X201093371Y-82467741D01*
X200974201Y-82546023D01*
X200894429Y-82664201D01*
X200866393Y-82804000D01*
X200866393Y-85471000D01*
X200892701Y-85606589D01*
X200970983Y-85725759D01*
X201089161Y-85805531D01*
X201228960Y-85833567D01*
X202819000Y-85833567D01*
X202954589Y-85807259D01*
X203073759Y-85728977D01*
X203153531Y-85610799D01*
X203181567Y-85471000D01*
X203181567Y-90072827D01*
X203029600Y-90042600D01*
X200912500Y-90042600D01*
X200698657Y-90085135D01*
X200517369Y-90206268D01*
X199594269Y-91129369D01*
X199473136Y-91310656D01*
X199430600Y-91524500D01*
X199430600Y-95893738D01*
X199183607Y-96140730D01*
X199183607Y-93726000D01*
X199183607Y-91059000D01*
X199157299Y-90923411D01*
X199079017Y-90804241D01*
X198960839Y-90724469D01*
X198821040Y-90696433D01*
X197231000Y-90696433D01*
X197095411Y-90722741D01*
X196976241Y-90801023D01*
X196896469Y-90919201D01*
X196868433Y-91059000D01*
X196868433Y-93726000D01*
X196894741Y-93861589D01*
X196973023Y-93980759D01*
X197091201Y-94060531D01*
X197231000Y-94088567D01*
X198821040Y-94088567D01*
X198956629Y-94062259D01*
X199075799Y-93983977D01*
X199155571Y-93865799D01*
X199183607Y-93726000D01*
X199183607Y-96140730D01*
X196440421Y-98883916D01*
X196390375Y-98632313D01*
X196148110Y-98269737D01*
X195785534Y-98027472D01*
X195357847Y-97942400D01*
X194278153Y-97942400D01*
X193850466Y-98027472D01*
X193487890Y-98269737D01*
X193333231Y-98501200D01*
X193090500Y-98501200D01*
X192876656Y-98543736D01*
X192806508Y-98590607D01*
X192592789Y-98270753D01*
X192720931Y-98185131D01*
X193485631Y-97420431D01*
X193537219Y-97343223D01*
X193850466Y-97552528D01*
X194278153Y-97637600D01*
X195357847Y-97637600D01*
X195785534Y-97552528D01*
X196148110Y-97310263D01*
X196390375Y-96947687D01*
X196475447Y-96520000D01*
X196390375Y-96092313D01*
X196148110Y-95729737D01*
X195785534Y-95487472D01*
X195357847Y-95402400D01*
X194278153Y-95402400D01*
X193850466Y-95487472D01*
X193487890Y-95729737D01*
X193333231Y-95961200D01*
X193090500Y-95961200D01*
X192876656Y-96003736D01*
X192806508Y-96050607D01*
X192592789Y-95730753D01*
X192720931Y-95645131D01*
X193485631Y-94880431D01*
X193537219Y-94803223D01*
X193850466Y-95012528D01*
X194278153Y-95097600D01*
X195357847Y-95097600D01*
X195785534Y-95012528D01*
X196148110Y-94770263D01*
X196390375Y-94407687D01*
X196475447Y-93980000D01*
X196390375Y-93552313D01*
X196148110Y-93189737D01*
X195785534Y-92947472D01*
X195357847Y-92862400D01*
X194278153Y-92862400D01*
X193850466Y-92947472D01*
X193487890Y-93189737D01*
X193333231Y-93421200D01*
X193090500Y-93421200D01*
X192876656Y-93463736D01*
X192806508Y-93510607D01*
X192592789Y-93190753D01*
X192720931Y-93105131D01*
X193485631Y-92340431D01*
X193537219Y-92263223D01*
X193850466Y-92472528D01*
X194278153Y-92557600D01*
X195357847Y-92557600D01*
X195785534Y-92472528D01*
X196148110Y-92230263D01*
X196390375Y-91867687D01*
X196475447Y-91440000D01*
X196390375Y-91012313D01*
X196148110Y-90649737D01*
X195785534Y-90407472D01*
X195357847Y-90322400D01*
X194278153Y-90322400D01*
X193850466Y-90407472D01*
X193487890Y-90649737D01*
X193333231Y-90881200D01*
X193090500Y-90881200D01*
X192876656Y-90923736D01*
X192806508Y-90970607D01*
X192592110Y-90649737D01*
X192229534Y-90407472D01*
X191801847Y-90322400D01*
X190722153Y-90322400D01*
X190294466Y-90407472D01*
X189931890Y-90649737D01*
X189777231Y-90881200D01*
X189534500Y-90881200D01*
X189320656Y-90923736D01*
X189139369Y-91044869D01*
X188242638Y-91941600D01*
X187283162Y-91941600D01*
X189765962Y-89458800D01*
X189777231Y-89458800D01*
X189931890Y-89690263D01*
X190294466Y-89932528D01*
X190722153Y-90017600D01*
X191801847Y-90017600D01*
X192229534Y-89932528D01*
X192592110Y-89690263D01*
X192834375Y-89327687D01*
X192919447Y-88900000D01*
X192834375Y-88472313D01*
X192592789Y-88110753D01*
X192720931Y-88025131D01*
X193485631Y-87260431D01*
X193537219Y-87183223D01*
X193850466Y-87392528D01*
X194278153Y-87477600D01*
X195357847Y-87477600D01*
X195785534Y-87392528D01*
X196148110Y-87150263D01*
X196390375Y-86787687D01*
X196470443Y-86385153D01*
X196559656Y-86444764D01*
X196559657Y-86444764D01*
X196773500Y-86487300D01*
X198026000Y-86487300D01*
X198203181Y-86452056D01*
X196314037Y-88341200D01*
X196302768Y-88341200D01*
X196148110Y-88109737D01*
X195785534Y-87867472D01*
X195357847Y-87782400D01*
X194278153Y-87782400D01*
X193850466Y-87867472D01*
X193487890Y-88109737D01*
X193245625Y-88472313D01*
X193160553Y-88900000D01*
X193245625Y-89327687D01*
X193487890Y-89690263D01*
X193850466Y-89932528D01*
X194278153Y-90017600D01*
X195357847Y-90017600D01*
X195785534Y-89932528D01*
X196148110Y-89690263D01*
X196302768Y-89458800D01*
X196545500Y-89458800D01*
X196759343Y-89416264D01*
X196759344Y-89416264D01*
X196940631Y-89295131D01*
X199673731Y-86562031D01*
X199794864Y-86380744D01*
X199794864Y-86380743D01*
X199837400Y-86166900D01*
X199837400Y-80911300D01*
X199794864Y-80697457D01*
X199794864Y-80697456D01*
X199673731Y-80516169D01*
X195141662Y-75984100D01*
X211035900Y-75984100D01*
X211035900Y-129755900D01*
M02*
