G04 #@! TF.FileFunction,Copper,L2,Bot,Signal*
%FSLAX46Y46*%
G04 Gerber Fmt 4.6, Leading zero omitted, Abs format (unit mm)*
G04 Created by KiCad (PCBNEW 0.201505061231+5645~23~ubuntu14.04.1-product) date Fri 08 May 2015 03:52:48 PM EDT*
%MOMM*%
G01*
G04 APERTURE LIST*
%ADD10C,0.100000*%
%ADD11C,0.228600*%
%ADD12O,2.540000X1.854200*%
%ADD13R,2.540000X1.854200*%
%ADD14O,1.854200X2.540000*%
%ADD15R,1.854200X2.540000*%
%ADD16O,4.445000X3.175000*%
%ADD17O,1.524000X2.032000*%
%ADD18O,5.080000X3.048000*%
%ADD19O,2.032000X1.524000*%
%ADD20R,2.540000X1.270000*%
%ADD21C,3.937000*%
%ADD22O,1.524000X2.540000*%
%ADD23O,2.540000X1.524000*%
%ADD24C,1.930400*%
%ADD25O,4.572000X3.556000*%
%ADD26O,4.064000X5.080000*%
%ADD27O,5.080000X3.556000*%
%ADD28R,1.270000X2.540000*%
%ADD29R,0.558800X1.330960*%
%ADD30C,0.889000*%
%ADD31C,1.016000*%
%ADD32C,0.508000*%
%ADD33C,0.812800*%
%ADD34C,0.406400*%
%ADD35C,0.203200*%
G04 APERTURE END LIST*
D10*
D11*
X211455000Y-75565000D02*
X93345000Y-75565000D01*
X211455000Y-130175000D02*
X211455000Y-75565000D01*
X93345000Y-130175000D02*
X211455000Y-130175000D01*
X93345000Y-75565000D02*
X93345000Y-130175000D01*
D12*
X184150000Y-86995000D03*
D13*
X184150000Y-89535000D03*
D14*
X104140000Y-121920000D03*
X106680000Y-121920000D03*
D15*
X101600000Y-121920000D03*
D16*
X181610000Y-102870000D03*
X181610000Y-107569000D03*
D17*
X187325000Y-105410000D03*
X187325000Y-100330000D03*
D18*
X99060000Y-107950000D03*
X99060000Y-97790000D03*
D19*
X105156000Y-102870000D03*
D17*
X107950000Y-102870000D03*
X107950000Y-100076000D03*
X107950000Y-105664000D03*
D20*
X186690000Y-112014000D03*
X186690000Y-108966000D03*
D21*
X111760000Y-127000000D03*
X113030000Y-78740000D03*
X194310000Y-127000000D03*
X187960000Y-78740000D03*
D22*
X125730000Y-127000000D03*
X128270000Y-127000000D03*
X130810000Y-127000000D03*
X133350000Y-127000000D03*
X135890000Y-127000000D03*
X138430000Y-127000000D03*
X140970000Y-127000000D03*
X143510000Y-127000000D03*
X148590000Y-127000000D03*
X151130000Y-127000000D03*
X153670000Y-127000000D03*
X156210000Y-127000000D03*
X158750000Y-127000000D03*
X161290000Y-127000000D03*
X163830000Y-127000000D03*
X166370000Y-127000000D03*
X171450000Y-127000000D03*
X173990000Y-127000000D03*
X176530000Y-127000000D03*
X179070000Y-127000000D03*
X181610000Y-127000000D03*
X184150000Y-127000000D03*
X186690000Y-127000000D03*
X189230000Y-127000000D03*
X116586000Y-78740000D03*
X119126000Y-78740000D03*
X121666000Y-78740000D03*
X124206000Y-78740000D03*
X126746000Y-78740000D03*
X129286000Y-78740000D03*
X131826000Y-78740000D03*
X134366000Y-78740000D03*
X136906000Y-78740000D03*
X139446000Y-78740000D03*
X143510000Y-78740000D03*
X161290000Y-78740000D03*
X158750000Y-78740000D03*
X156210000Y-78740000D03*
X153670000Y-78740000D03*
X151130000Y-78740000D03*
X148590000Y-78740000D03*
X146050000Y-78740000D03*
X166370000Y-78740000D03*
X168910000Y-78740000D03*
X171450000Y-78740000D03*
X173990000Y-78740000D03*
X176530000Y-78740000D03*
X179070000Y-78740000D03*
X181610000Y-78740000D03*
X184150000Y-78740000D03*
X191770000Y-78232000D03*
X194310000Y-78232000D03*
D23*
X191262000Y-81280000D03*
X194818000Y-81280000D03*
X191262000Y-83820000D03*
X194818000Y-83820000D03*
X191262000Y-86360000D03*
X194818000Y-86360000D03*
X191262000Y-88900000D03*
X194818000Y-88900000D03*
X191262000Y-91440000D03*
X194818000Y-91440000D03*
X191262000Y-93980000D03*
X194818000Y-93980000D03*
X191262000Y-96520000D03*
X194818000Y-96520000D03*
X191262000Y-99060000D03*
X194818000Y-99060000D03*
X191262000Y-101600000D03*
X194818000Y-101600000D03*
X191262000Y-104140000D03*
X194818000Y-104140000D03*
X191262000Y-106680000D03*
X194818000Y-106680000D03*
X191262000Y-109220000D03*
X194818000Y-109220000D03*
X191262000Y-111760000D03*
X194818000Y-111760000D03*
X191262000Y-114300000D03*
X194818000Y-114300000D03*
X191262000Y-116840000D03*
X194818000Y-116840000D03*
X191262000Y-119380000D03*
X194818000Y-119380000D03*
X191262000Y-121920000D03*
X194818000Y-121920000D03*
D24*
X208457800Y-102870000D03*
D25*
X204952600Y-102870000D03*
D26*
X199466200Y-102870000D03*
D27*
X206451200Y-98374200D03*
X206451200Y-107365800D03*
D28*
X202946000Y-92710000D03*
X205994000Y-92710000D03*
D20*
X205105000Y-118364000D03*
X205105000Y-115316000D03*
D28*
X106934000Y-126365000D03*
X103886000Y-126365000D03*
D20*
X172720000Y-81661000D03*
X172720000Y-84709000D03*
D28*
X198501000Y-80010000D03*
X201549000Y-80010000D03*
D20*
X184785000Y-121539000D03*
X184785000Y-118491000D03*
X178435000Y-118491000D03*
X178435000Y-121539000D03*
D29*
X178749960Y-84383880D03*
X177800000Y-84383880D03*
X176850040Y-84383880D03*
X176850040Y-81986120D03*
X177800000Y-81986120D03*
X178749960Y-81986120D03*
X183829960Y-84383880D03*
X182880000Y-84383880D03*
X181930040Y-84383880D03*
X181930040Y-81986120D03*
X182880000Y-81986120D03*
X183829960Y-81986120D03*
D30*
X149400200Y-90504400D03*
X162560000Y-88546300D03*
X149400200Y-106628000D03*
X181244900Y-111967800D03*
X208280000Y-114300000D03*
X177853600Y-86939700D03*
X165155500Y-90379000D03*
X174310200Y-86944600D03*
X189070100Y-120082000D03*
X184731100Y-120062400D03*
X162509300Y-112623500D03*
X161939600Y-102875900D03*
X180647000Y-115520400D03*
X179786000Y-120015100D03*
X183432200Y-115536300D03*
X177273900Y-107178100D03*
X186766200Y-121517600D03*
X189230800Y-85090000D03*
X139241100Y-117559900D03*
X138098800Y-116625600D03*
X128955800Y-110126000D03*
X131145000Y-111028000D03*
X126351000Y-109360400D03*
X125107900Y-109006400D03*
X123363900Y-109479300D03*
X123226200Y-108051700D03*
X154683200Y-125272500D03*
X130794400Y-113842800D03*
X128262300Y-114989100D03*
X123020800Y-111137400D03*
X123173200Y-118630200D03*
X120687100Y-109438200D03*
X123386400Y-122542600D03*
X122476000Y-82948800D03*
X156743600Y-82940900D03*
X169792300Y-83820000D03*
X154512000Y-82920200D03*
X167610800Y-84995600D03*
X152400000Y-91897200D03*
X172045300Y-90685900D03*
X152400000Y-89765000D03*
X169115700Y-91032100D03*
X160020000Y-97786700D03*
X173515600Y-92500400D03*
X159967400Y-104341600D03*
X176940100Y-93481100D03*
X158219300Y-96018300D03*
X168902500Y-94439100D03*
X157480000Y-104171300D03*
X173692000Y-95354000D03*
X153718100Y-96898500D03*
X167605900Y-96590300D03*
X152456100Y-105867200D03*
X169501600Y-97790000D03*
X152400000Y-97167400D03*
X167582300Y-98739400D03*
X152595300Y-110229700D03*
X169836200Y-100811400D03*
X186808200Y-102055100D03*
X157518800Y-115283000D03*
X171175500Y-113901000D03*
X157504800Y-113842800D03*
X168720200Y-115697700D03*
D31*
X205105000Y-118364000D02*
X205105000Y-116966700D01*
X202946000Y-99390200D02*
X202946000Y-92710000D01*
X199466200Y-102870000D02*
X202946000Y-99390200D01*
X151358300Y-88546300D02*
X149400200Y-90504400D01*
X162560000Y-88546300D02*
X151358300Y-88546300D01*
X184657600Y-108555100D02*
X181244900Y-111967800D01*
X184657600Y-105917600D02*
X184657600Y-108555100D01*
X181610000Y-102870000D02*
X184657600Y-105917600D01*
X202539600Y-116966700D02*
X205105000Y-116966700D01*
X202487300Y-116914400D02*
X202539600Y-116966700D01*
X199466200Y-113893300D02*
X202487300Y-116914400D01*
X199466200Y-102870000D02*
X199466200Y-113893300D01*
X149400200Y-90504400D02*
X149400200Y-106628000D01*
X195957300Y-123444400D02*
X202487300Y-116914400D01*
X190116300Y-123444400D02*
X195957300Y-123444400D01*
X188027300Y-121355400D02*
X190116300Y-123444400D01*
X188027300Y-120842000D02*
X188027300Y-121355400D01*
X187863300Y-120678000D02*
X188027300Y-120842000D01*
X187863300Y-118232600D02*
X187863300Y-120678000D01*
X181598500Y-111967800D02*
X187863300Y-118232600D01*
X181244900Y-111967800D02*
X181598500Y-111967800D01*
D32*
X205105000Y-115316000D02*
X207264000Y-115316000D01*
X207264000Y-115316000D02*
X208280000Y-114300000D01*
X204850700Y-82168400D02*
X204850700Y-92710000D01*
X202692300Y-80010000D02*
X204850700Y-82168400D01*
X205994000Y-92710000D02*
X204850700Y-92710000D01*
X103886000Y-126365000D02*
X103886000Y-124586700D01*
X205994000Y-92710000D02*
X207137300Y-92710000D01*
X205105000Y-115316000D02*
X205105000Y-114172700D01*
X209511400Y-95084100D02*
X207137300Y-92710000D01*
X209511400Y-99320000D02*
X209511400Y-95084100D01*
X205961400Y-102870000D02*
X209511400Y-99320000D01*
X205460600Y-102870000D02*
X205961400Y-102870000D01*
X203395900Y-112463600D02*
X205105000Y-114172700D01*
X203395900Y-104934700D02*
X203395900Y-112463600D01*
X205460600Y-102870000D02*
X203395900Y-104934700D01*
X107950000Y-105410000D02*
X107950000Y-107188300D01*
X104140000Y-124332700D02*
X104140000Y-121920000D01*
X103886000Y-124586700D02*
X104140000Y-124332700D01*
X177800000Y-86886100D02*
X177800000Y-84383900D01*
X177853600Y-86939700D02*
X177800000Y-86886100D01*
X171830900Y-84709000D02*
X172074600Y-84709000D01*
X171830900Y-84709000D02*
X170941700Y-84709000D01*
X172720000Y-84709000D02*
X172558700Y-84709000D01*
X172558700Y-84709000D02*
X172074600Y-84709000D01*
X174310200Y-86460500D02*
X174310200Y-86944600D01*
X172558700Y-84709000D02*
X174310200Y-86460500D01*
X201549000Y-80010000D02*
X202692300Y-80010000D01*
X182881900Y-85559600D02*
X182880000Y-85557700D01*
X184150000Y-85559600D02*
X182881900Y-85559600D01*
X184150000Y-86995000D02*
X184150000Y-85559600D01*
X182880000Y-84383900D02*
X182880000Y-85557700D01*
X187325000Y-100330000D02*
X186689900Y-100330000D01*
X186689900Y-100330000D02*
X186054700Y-100330000D01*
X186689900Y-87756600D02*
X185928300Y-86995000D01*
X186689900Y-100330000D02*
X186689900Y-87756600D01*
X184150000Y-86995000D02*
X185928300Y-86995000D01*
X185855300Y-100529400D02*
X186054700Y-100330000D01*
X185855300Y-106988000D02*
X185855300Y-100529400D01*
X186690000Y-107822700D02*
X185855300Y-106988000D01*
X165271700Y-90379000D02*
X165155500Y-90379000D01*
X170941700Y-84709000D02*
X165271700Y-90379000D01*
X138430000Y-127000000D02*
X138430000Y-125221700D01*
X122567300Y-125221700D02*
X111702800Y-114357200D01*
X138430000Y-125221700D02*
X122567300Y-125221700D01*
X104140000Y-121920000D02*
X111702800Y-114357200D01*
X111702800Y-110941100D02*
X107950000Y-107188300D01*
X111702800Y-114357200D02*
X111702800Y-110941100D01*
X186690000Y-108394300D02*
X186690000Y-107822700D01*
X186690000Y-108966000D02*
X186690000Y-108394300D01*
X189070100Y-117026300D02*
X189070100Y-120082000D01*
X184899400Y-112855600D02*
X189070100Y-117026300D01*
X184899400Y-110756600D02*
X184899400Y-112855600D01*
X186690000Y-108966000D02*
X184899400Y-110756600D01*
D33*
X184785000Y-121539000D02*
X184785000Y-120243300D01*
X106934000Y-124104700D02*
X106934000Y-126365000D01*
X106680000Y-123850700D02*
X106934000Y-124104700D01*
X106680000Y-121920000D02*
X106680000Y-123850700D01*
X173619600Y-112623500D02*
X178435000Y-117438900D01*
X162509300Y-112623500D02*
X173619600Y-112623500D01*
X184731100Y-120189400D02*
X184731100Y-120062400D01*
X184785000Y-120243300D02*
X184731100Y-120189400D01*
X178435000Y-118491000D02*
X178435000Y-117829500D01*
X178435000Y-117829500D02*
X178435000Y-117438900D01*
X183125000Y-120062400D02*
X184731100Y-120062400D01*
X180892100Y-117829500D02*
X183125000Y-120062400D01*
X178435000Y-117829500D02*
X180892100Y-117829500D01*
X162509300Y-103445600D02*
X161939600Y-102875900D01*
X162509300Y-112623500D02*
X162509300Y-103445600D01*
D34*
X178750000Y-84383900D02*
X178750000Y-85506900D01*
X178249700Y-113123100D02*
X180647000Y-115520400D01*
X178249700Y-98930300D02*
X178249700Y-113123100D01*
X178828000Y-98352000D02*
X178249700Y-98930300D01*
X178828000Y-85584900D02*
X178828000Y-98352000D01*
X178750000Y-85506900D02*
X178828000Y-85584900D01*
X179354600Y-120446500D02*
X179786000Y-120015100D01*
X178435000Y-120446500D02*
X179354600Y-120446500D01*
X178435000Y-121539000D02*
X178435000Y-120446500D01*
X168353000Y-120446500D02*
X178435000Y-120446500D01*
X164631200Y-116724700D02*
X168353000Y-120446500D01*
X157685000Y-116724700D02*
X164631200Y-116724700D01*
X148399700Y-107439400D02*
X157685000Y-116724700D01*
X148399700Y-87755100D02*
X148399700Y-107439400D01*
X155687300Y-80467500D02*
X148399700Y-87755100D01*
X156210000Y-80467500D02*
X155687300Y-80467500D01*
X156210000Y-78740000D02*
X156210000Y-80467500D01*
X184785000Y-118491000D02*
X184785000Y-117398500D01*
X183432200Y-116045700D02*
X183432200Y-115536300D01*
X184785000Y-117398500D02*
X183432200Y-116045700D01*
X179617100Y-77012500D02*
X176530000Y-77012500D01*
X180307400Y-77702800D02*
X179617100Y-77012500D01*
X180307400Y-98274100D02*
X180307400Y-77702800D01*
X178910600Y-99670900D02*
X180307400Y-98274100D01*
X178910600Y-111014700D02*
X178910600Y-99670900D01*
X183432200Y-115536300D02*
X178910600Y-111014700D01*
X176530000Y-78740000D02*
X176530000Y-77012500D01*
X166370000Y-78740000D02*
X166370000Y-77012500D01*
X101600000Y-121920000D02*
X101600000Y-120192500D01*
X102094600Y-119697900D02*
X101600000Y-120192500D01*
X102094600Y-102070600D02*
X102094600Y-119697900D01*
X107000100Y-97165100D02*
X102094600Y-102070600D01*
X135018400Y-97165100D02*
X107000100Y-97165100D01*
X152400000Y-79783500D02*
X135018400Y-97165100D01*
X152400000Y-77731100D02*
X152400000Y-79783500D01*
X153118600Y-77012500D02*
X152400000Y-77731100D01*
X166370000Y-77012500D02*
X153118600Y-77012500D01*
X178750000Y-80787500D02*
X179070000Y-80467500D01*
X178750000Y-81986100D02*
X178750000Y-80787500D01*
X179070000Y-78740000D02*
X179070000Y-80467500D01*
D32*
X187476000Y-110870700D02*
X186690000Y-110870700D01*
X188480800Y-109865900D02*
X187476000Y-110870700D01*
X188480800Y-108090100D02*
X188480800Y-109865900D01*
X187325000Y-106934300D02*
X188480800Y-108090100D01*
X187325000Y-105410000D02*
X187325000Y-106934300D01*
X186690000Y-112014000D02*
X186690000Y-110870700D01*
X176850000Y-91975100D02*
X176850000Y-84383900D01*
X177892900Y-93018000D02*
X176850000Y-91975100D01*
X177892900Y-93944300D02*
X177892900Y-93018000D01*
X177273900Y-94563300D02*
X177892900Y-93944300D01*
X177273900Y-107178100D02*
X177273900Y-94563300D01*
D34*
X105410000Y-102870000D02*
X105410000Y-101650500D01*
X186766200Y-122118100D02*
X186766200Y-121517600D01*
X186252700Y-122631600D02*
X186766200Y-122118100D01*
X169490700Y-122631600D02*
X186252700Y-122631600D01*
X164393200Y-117534100D02*
X169490700Y-122631600D01*
X157154600Y-117534100D02*
X164393200Y-117534100D01*
X138194500Y-98574000D02*
X157154600Y-117534100D01*
X107460000Y-98574000D02*
X138194500Y-98574000D01*
X105410000Y-100624000D02*
X107460000Y-98574000D01*
X105410000Y-101650500D02*
X105410000Y-100624000D01*
X106730500Y-103344600D02*
X106730500Y-102870000D01*
X105983900Y-104091200D02*
X106730500Y-103344600D01*
X104364200Y-104091200D02*
X105983900Y-104091200D01*
X103670000Y-103397000D02*
X104364200Y-104091200D01*
X103670000Y-101429600D02*
X103670000Y-103397000D01*
X107273800Y-97825800D02*
X103670000Y-101429600D01*
X136311700Y-97825800D02*
X107273800Y-97825800D01*
X153670000Y-80467500D02*
X136311700Y-97825800D01*
X153670000Y-78740000D02*
X153670000Y-80467500D01*
X107950000Y-102870000D02*
X106730500Y-102870000D01*
X176454400Y-80467500D02*
X173990000Y-80467500D01*
X176850000Y-80863100D02*
X176454400Y-80467500D01*
X176850000Y-81986100D02*
X176850000Y-80863100D01*
X173990000Y-78740000D02*
X173990000Y-80467500D01*
X183830000Y-80787500D02*
X184150000Y-80467500D01*
X183830000Y-81986100D02*
X183830000Y-80787500D01*
X184150000Y-78740000D02*
X184150000Y-80467500D01*
X177800000Y-81986100D02*
X177800000Y-83109100D01*
X173075600Y-83109100D02*
X177800000Y-83109100D01*
X172720000Y-82753500D02*
X173075600Y-83109100D01*
X172720000Y-81661000D02*
X172720000Y-82753500D01*
X191770000Y-78740000D02*
X191770000Y-76504500D01*
X191820500Y-80010000D02*
X191770000Y-79959500D01*
X198501000Y-80010000D02*
X191820500Y-80010000D01*
X191770000Y-78740000D02*
X191770000Y-79959500D01*
X191570900Y-76305400D02*
X191770000Y-76504500D01*
X184352000Y-76305400D02*
X191570900Y-76305400D01*
X182880000Y-77777400D02*
X184352000Y-76305400D01*
X182880000Y-81986100D02*
X182880000Y-77777400D01*
X172720000Y-77754400D02*
X172720000Y-81661000D01*
X174122700Y-76351700D02*
X172720000Y-77754400D01*
X181454300Y-76351700D02*
X174122700Y-76351700D01*
X182880000Y-77777400D02*
X181454300Y-76351700D01*
X188524700Y-84383900D02*
X189230800Y-85090000D01*
X183830000Y-84383900D02*
X188524700Y-84383900D01*
X181930000Y-80787500D02*
X181610000Y-80467500D01*
X181930000Y-81986100D02*
X181930000Y-80787500D01*
X181610000Y-78740000D02*
X181610000Y-80467500D01*
X181930000Y-87315000D02*
X181930000Y-84383900D01*
X184150000Y-89535000D02*
X181930000Y-87315000D01*
X139241100Y-117651100D02*
X139241100Y-117559900D01*
X148590000Y-127000000D02*
X139241100Y-117651100D01*
X140755600Y-116625600D02*
X151130000Y-127000000D01*
X138098800Y-116625600D02*
X140755600Y-116625600D01*
X153670000Y-127000000D02*
X153670000Y-125272500D01*
X150336900Y-125272500D02*
X153670000Y-125272500D01*
X140484000Y-115419600D02*
X150336900Y-125272500D01*
X131091500Y-115419600D02*
X140484000Y-115419600D01*
X128955800Y-113283900D02*
X131091500Y-115419600D01*
X128955800Y-110126000D02*
X128955800Y-113283900D01*
X156210000Y-127000000D02*
X156210000Y-125272500D01*
X154711700Y-123774200D02*
X156210000Y-125272500D01*
X150891900Y-123774200D02*
X154711700Y-123774200D01*
X138145700Y-111028000D02*
X150891900Y-123774200D01*
X131145000Y-111028000D02*
X138145700Y-111028000D01*
X156484900Y-123007400D02*
X158750000Y-125272500D01*
X151059600Y-123007400D02*
X156484900Y-123007400D01*
X137276100Y-109223900D02*
X151059600Y-123007400D01*
X126487500Y-109223900D02*
X137276100Y-109223900D01*
X126351000Y-109360400D02*
X126487500Y-109223900D01*
X158750000Y-127000000D02*
X158750000Y-125272500D01*
X161290000Y-127000000D02*
X161290000Y-125272500D01*
X125655900Y-108458400D02*
X125107900Y-109006400D01*
X140187600Y-108458400D02*
X125655900Y-108458400D01*
X154075800Y-122346600D02*
X140187600Y-108458400D01*
X158364100Y-122346600D02*
X154075800Y-122346600D01*
X161290000Y-125272500D02*
X158364100Y-122346600D01*
X163830000Y-127000000D02*
X163830000Y-125272500D01*
X124133600Y-108709600D02*
X123363900Y-109479300D01*
X124133700Y-108709600D02*
X124133600Y-108709600D01*
X124133700Y-108592700D02*
X124133700Y-108709600D01*
X124928700Y-107797700D02*
X124133700Y-108592700D01*
X140461300Y-107797700D02*
X124928700Y-107797700D01*
X154162000Y-121498400D02*
X140461300Y-107797700D01*
X160055900Y-121498400D02*
X154162000Y-121498400D01*
X163830000Y-125272500D02*
X160055900Y-121498400D01*
X166370000Y-127000000D02*
X166370000Y-125272500D01*
X161935100Y-120837600D02*
X166370000Y-125272500D01*
X154435600Y-120837600D02*
X161935100Y-120837600D01*
X140735000Y-107137000D02*
X154435600Y-120837600D01*
X124140900Y-107137000D02*
X140735000Y-107137000D01*
X123226200Y-108051700D02*
X124140900Y-107137000D01*
X140026100Y-113842800D02*
X130794400Y-113842800D01*
X150618200Y-124434900D02*
X140026100Y-113842800D01*
X153845600Y-124434900D02*
X150618200Y-124434900D01*
X154683200Y-125272500D02*
X153845600Y-124434900D01*
X176530000Y-127000000D02*
X176530000Y-128727500D01*
X134449000Y-121175800D02*
X128262300Y-114989100D01*
X140928900Y-121175800D02*
X134449000Y-121175800D01*
X146045900Y-126292800D02*
X140928900Y-121175800D01*
X146045900Y-126694900D02*
X146045900Y-126292800D01*
X148078500Y-128727500D02*
X146045900Y-126694900D01*
X176530000Y-128727500D02*
X148078500Y-128727500D01*
X181610000Y-127000000D02*
X181610000Y-125272500D01*
X167572400Y-125272500D02*
X181610000Y-125272500D01*
X162476800Y-120176900D02*
X167572400Y-125272500D01*
X154709300Y-120176900D02*
X162476800Y-120176900D01*
X141008700Y-106476300D02*
X154709300Y-120176900D01*
X123526000Y-106476300D02*
X141008700Y-106476300D01*
X122311000Y-107691300D02*
X123526000Y-106476300D01*
X122311000Y-110427600D02*
X122311000Y-107691300D01*
X123020800Y-111137400D02*
X122311000Y-110427600D01*
X184150000Y-127000000D02*
X184150000Y-125272500D01*
X182830700Y-123953200D02*
X184150000Y-125272500D01*
X168122000Y-123953200D02*
X182830700Y-123953200D01*
X163024400Y-118855600D02*
X168122000Y-123953200D01*
X155256800Y-118855600D02*
X163024400Y-118855600D01*
X142216800Y-105815600D02*
X155256800Y-118855600D01*
X123252300Y-105815600D02*
X142216800Y-105815600D01*
X121631200Y-107436700D02*
X123252300Y-105815600D01*
X121631200Y-117088200D02*
X121631200Y-107436700D01*
X123173200Y-118630200D02*
X121631200Y-117088200D01*
X186690000Y-127000000D02*
X186690000Y-125272500D01*
X184709900Y-123292400D02*
X186690000Y-125272500D01*
X168476200Y-123292400D02*
X184709900Y-123292400D01*
X163378700Y-118194900D02*
X168476200Y-123292400D01*
X155530500Y-118194900D02*
X163378700Y-118194900D01*
X142490500Y-105154900D02*
X155530500Y-118194900D01*
X122943100Y-105154900D02*
X142490500Y-105154900D01*
X120687100Y-107410900D02*
X122943100Y-105154900D01*
X120687100Y-109438200D02*
X120687100Y-107410900D01*
X189230000Y-127000000D02*
X189230000Y-128727500D01*
X141361200Y-122542600D02*
X123386400Y-122542600D01*
X144975400Y-126156800D02*
X141361200Y-122542600D01*
X144975400Y-126558900D02*
X144975400Y-126156800D01*
X147805500Y-129389000D02*
X144975400Y-126558900D01*
X188568500Y-129389000D02*
X147805500Y-129389000D01*
X189230000Y-128727500D02*
X188568500Y-129389000D01*
X134366000Y-78740000D02*
X134366000Y-80467500D01*
X131884700Y-82948800D02*
X122476000Y-82948800D01*
X134366000Y-80467500D02*
X131884700Y-82948800D01*
X168913200Y-82940900D02*
X156743600Y-82940900D01*
X169792300Y-83820000D02*
X168913200Y-82940900D01*
X156587400Y-84995600D02*
X167610800Y-84995600D01*
X154512000Y-82920200D02*
X156587400Y-84995600D01*
X170754500Y-91976700D02*
X172045300Y-90685900D01*
X152479500Y-91976700D02*
X170754500Y-91976700D01*
X152400000Y-91897200D02*
X152479500Y-91976700D01*
X168866700Y-91281100D02*
X169115700Y-91032100D01*
X153916100Y-91281100D02*
X168866700Y-91281100D01*
X152400000Y-89765000D02*
X153916100Y-91281100D01*
X168229300Y-97786700D02*
X173515600Y-92500400D01*
X160020000Y-97786700D02*
X168229300Y-97786700D01*
X174281900Y-96139300D02*
X176940100Y-93481100D01*
X174281900Y-97649400D02*
X174281900Y-96139300D01*
X169965700Y-101965600D02*
X174281900Y-97649400D01*
X161574100Y-101965600D02*
X169965700Y-101965600D01*
X160296300Y-103243400D02*
X161574100Y-101965600D01*
X160296300Y-104012700D02*
X160296300Y-103243400D01*
X159967400Y-104341600D02*
X160296300Y-104012700D01*
X159798500Y-94439100D02*
X168902500Y-94439100D01*
X158219300Y-96018300D02*
X159798500Y-94439100D01*
X168693100Y-100352900D02*
X173692000Y-95354000D01*
X161298400Y-100352900D02*
X168693100Y-100352900D01*
X157480000Y-104171300D02*
X161298400Y-100352900D01*
X159498000Y-96590300D02*
X167605900Y-96590300D01*
X159137500Y-96950800D02*
X159498000Y-96590300D01*
X153770400Y-96950800D02*
X159137500Y-96950800D01*
X153718100Y-96898500D02*
X153770400Y-96950800D01*
X169501600Y-98108900D02*
X169501600Y-97790000D01*
X167918300Y-99692200D02*
X169501600Y-98108900D01*
X158631100Y-99692200D02*
X167918300Y-99692200D01*
X152456100Y-105867200D02*
X158631100Y-99692200D01*
X153972000Y-98739400D02*
X152400000Y-97167400D01*
X167582300Y-98739400D02*
X153972000Y-98739400D01*
X193090500Y-102105300D02*
X193090500Y-101600000D01*
X192376200Y-102819600D02*
X193090500Y-102105300D01*
X187572700Y-102819600D02*
X192376200Y-102819600D01*
X186808200Y-102055100D02*
X187572700Y-102819600D01*
X194310000Y-101600000D02*
X193090500Y-101600000D01*
X169351200Y-101296400D02*
X169836200Y-100811400D01*
X161308500Y-101296400D02*
X169351200Y-101296400D01*
X159543900Y-103061000D02*
X161308500Y-101296400D01*
X159543900Y-103396700D02*
X159543900Y-103061000D01*
X152710900Y-110229700D02*
X159543900Y-103396700D01*
X152595300Y-110229700D02*
X152710900Y-110229700D01*
X164123900Y-115283000D02*
X157518800Y-115283000D01*
X165440600Y-116599700D02*
X164123900Y-115283000D01*
X169093900Y-116599700D02*
X165440600Y-116599700D01*
X171175500Y-114518100D02*
X169093900Y-116599700D01*
X171175500Y-113901000D02*
X171175500Y-114518100D01*
X166865300Y-113842800D02*
X157504800Y-113842800D01*
X168720200Y-115697700D02*
X166865300Y-113842800D01*
D35*
G36*
X176719383Y-92706588D02*
X176487472Y-92802413D01*
X176262204Y-93027288D01*
X176140139Y-93321252D01*
X176139990Y-93490946D01*
X175110439Y-94520497D01*
X175110439Y-86786148D01*
X174988887Y-86491972D01*
X174910426Y-86413373D01*
X174873397Y-86227216D01*
X174741252Y-86029448D01*
X174272574Y-85560770D01*
X174324531Y-85483799D01*
X174352567Y-85344000D01*
X174352567Y-84074000D01*
X174326259Y-83938411D01*
X174247977Y-83819241D01*
X174129799Y-83739469D01*
X173990000Y-83711433D01*
X171450000Y-83711433D01*
X171314411Y-83737741D01*
X171195241Y-83816023D01*
X171115469Y-83934201D01*
X171087433Y-84074000D01*
X171087433Y-84099400D01*
X170941700Y-84099400D01*
X170708416Y-84145803D01*
X170592539Y-84223229D01*
X170592539Y-83661548D01*
X170470987Y-83367372D01*
X170246112Y-83142104D01*
X170027600Y-83051369D01*
X170027600Y-79279847D01*
X170027600Y-78200153D01*
X169942528Y-77772466D01*
X169700263Y-77409890D01*
X169337687Y-77167625D01*
X168910000Y-77082553D01*
X168482313Y-77167625D01*
X168119737Y-77409890D01*
X167877472Y-77772466D01*
X167792400Y-78200153D01*
X167792400Y-79279847D01*
X167877472Y-79707534D01*
X168119737Y-80070110D01*
X168482313Y-80312375D01*
X168910000Y-80397447D01*
X169337687Y-80312375D01*
X169700263Y-80070110D01*
X169942528Y-79707534D01*
X170027600Y-79279847D01*
X170027600Y-83051369D01*
X169952148Y-83020039D01*
X169782452Y-83019890D01*
X169308331Y-82545769D01*
X169127044Y-82424636D01*
X168913200Y-82382100D01*
X157316300Y-82382100D01*
X157197412Y-82263004D01*
X156903448Y-82140939D01*
X156585148Y-82140661D01*
X156290972Y-82262213D01*
X156065704Y-82487088D01*
X155943639Y-82781052D01*
X155943361Y-83099352D01*
X156064913Y-83393528D01*
X156289788Y-83618796D01*
X156583752Y-83740861D01*
X156902052Y-83741139D01*
X157196228Y-83619587D01*
X157316324Y-83499700D01*
X168681738Y-83499700D01*
X168992207Y-83810169D01*
X168992061Y-83978452D01*
X169113613Y-84272628D01*
X169338488Y-84497896D01*
X169632452Y-84619961D01*
X169950752Y-84620239D01*
X170244928Y-84498687D01*
X170470196Y-84273812D01*
X170592261Y-83979848D01*
X170592539Y-83661548D01*
X170592539Y-84223229D01*
X170510648Y-84277948D01*
X165209649Y-89578946D01*
X164997048Y-89578761D01*
X164702872Y-89700313D01*
X164477604Y-89925188D01*
X164355539Y-90219152D01*
X164355261Y-90537452D01*
X164431639Y-90722300D01*
X154147562Y-90722300D01*
X153200092Y-89774830D01*
X153200239Y-89606548D01*
X153078687Y-89312372D01*
X152853812Y-89087104D01*
X152559848Y-88965039D01*
X152241548Y-88964761D01*
X151947372Y-89086313D01*
X151722104Y-89311188D01*
X151600039Y-89605152D01*
X151599761Y-89923452D01*
X151721313Y-90217628D01*
X151946188Y-90442896D01*
X152240152Y-90564961D01*
X152409847Y-90565109D01*
X153262637Y-91417900D01*
X153052061Y-91417900D01*
X152853812Y-91219304D01*
X152559848Y-91097239D01*
X152241548Y-91096961D01*
X151947372Y-91218513D01*
X151722104Y-91443388D01*
X151600039Y-91737352D01*
X151599761Y-92055652D01*
X151721313Y-92349828D01*
X151946188Y-92575096D01*
X152240152Y-92697161D01*
X152558452Y-92697439D01*
X152852628Y-92575887D01*
X152893085Y-92535500D01*
X170754500Y-92535500D01*
X170968343Y-92492964D01*
X170968344Y-92492964D01*
X171149631Y-92371831D01*
X172035469Y-91485992D01*
X172203752Y-91486139D01*
X172497928Y-91364587D01*
X172723196Y-91139712D01*
X172845261Y-90845748D01*
X172845539Y-90527448D01*
X172723987Y-90233272D01*
X172499112Y-90008004D01*
X172205148Y-89885939D01*
X171886848Y-89885661D01*
X171592672Y-90007213D01*
X171367404Y-90232088D01*
X171245339Y-90526052D01*
X171245190Y-90695747D01*
X170523037Y-91417900D01*
X169821837Y-91417900D01*
X169915661Y-91191948D01*
X169915939Y-90873648D01*
X169794387Y-90579472D01*
X169569512Y-90354204D01*
X169275548Y-90232139D01*
X168957248Y-90231861D01*
X168663072Y-90353413D01*
X168437804Y-90578288D01*
X168378004Y-90722300D01*
X165879284Y-90722300D01*
X165942327Y-90570476D01*
X171100655Y-85412148D01*
X171113741Y-85479589D01*
X171192023Y-85598759D01*
X171310201Y-85678531D01*
X171450000Y-85706567D01*
X172694163Y-85706567D01*
X173587143Y-86599547D01*
X173510239Y-86784752D01*
X173509961Y-87103052D01*
X173631513Y-87397228D01*
X173856388Y-87622496D01*
X174150352Y-87744561D01*
X174468652Y-87744839D01*
X174762828Y-87623287D01*
X174988096Y-87398412D01*
X175110161Y-87104448D01*
X175110439Y-86786148D01*
X175110439Y-94520497D01*
X174475617Y-95155320D01*
X174370687Y-94901372D01*
X174145812Y-94676104D01*
X173851848Y-94554039D01*
X173533548Y-94553761D01*
X173239372Y-94675313D01*
X173014104Y-94900188D01*
X172892039Y-95194152D01*
X172891890Y-95363847D01*
X170298486Y-97957251D01*
X170301561Y-97949848D01*
X170301839Y-97631548D01*
X170180287Y-97337372D01*
X169955412Y-97112104D01*
X169770811Y-97035450D01*
X173505769Y-93300492D01*
X173674052Y-93300639D01*
X173968228Y-93179087D01*
X174193496Y-92954212D01*
X174315561Y-92660248D01*
X174315839Y-92341948D01*
X174194287Y-92047772D01*
X173969412Y-91822504D01*
X173675448Y-91700439D01*
X173357148Y-91700161D01*
X173062972Y-91821713D01*
X172837704Y-92046588D01*
X172715639Y-92340552D01*
X172715490Y-92510247D01*
X168356346Y-96869391D01*
X168405861Y-96750148D01*
X168406139Y-96431848D01*
X168284587Y-96137672D01*
X168059712Y-95912404D01*
X167765748Y-95790339D01*
X167447448Y-95790061D01*
X167153272Y-95911613D01*
X167033175Y-96031500D01*
X159498000Y-96031500D01*
X159284156Y-96074036D01*
X159102869Y-96195169D01*
X158947804Y-96350233D01*
X159019261Y-96178148D01*
X159019409Y-96008452D01*
X160029962Y-94997900D01*
X168329799Y-94997900D01*
X168448688Y-95116996D01*
X168742652Y-95239061D01*
X169060952Y-95239339D01*
X169355128Y-95117787D01*
X169580396Y-94892912D01*
X169702461Y-94598948D01*
X169702739Y-94280648D01*
X169581187Y-93986472D01*
X169356312Y-93761204D01*
X169062348Y-93639139D01*
X168744048Y-93638861D01*
X168449872Y-93760413D01*
X168329775Y-93880300D01*
X159798500Y-93880300D01*
X159584656Y-93922836D01*
X159403369Y-94043969D01*
X158229130Y-95218207D01*
X158060848Y-95218061D01*
X157766672Y-95339613D01*
X157541404Y-95564488D01*
X157419339Y-95858452D01*
X157419061Y-96176752D01*
X157508000Y-96392000D01*
X154343008Y-96392000D01*
X154171912Y-96220604D01*
X153877948Y-96098539D01*
X153559648Y-96098261D01*
X153265472Y-96219813D01*
X153040204Y-96444688D01*
X152972305Y-96608204D01*
X152853812Y-96489504D01*
X152559848Y-96367439D01*
X152241548Y-96367161D01*
X151947372Y-96488713D01*
X151722104Y-96713588D01*
X151600039Y-97007552D01*
X151599761Y-97325852D01*
X151721313Y-97620028D01*
X151946188Y-97845296D01*
X152240152Y-97967361D01*
X152409847Y-97967509D01*
X153576869Y-99134531D01*
X153758156Y-99255664D01*
X153758157Y-99255665D01*
X153972000Y-99298200D01*
X158234838Y-99298200D01*
X152465930Y-105067107D01*
X152297648Y-105066961D01*
X152003472Y-105188513D01*
X151778204Y-105413388D01*
X151656139Y-105707352D01*
X151655861Y-106025652D01*
X151777413Y-106319828D01*
X152002288Y-106545096D01*
X152296252Y-106667161D01*
X152614552Y-106667439D01*
X152908728Y-106545887D01*
X153133996Y-106321012D01*
X153256061Y-106027048D01*
X153256209Y-105857352D01*
X158862561Y-100251000D01*
X160610038Y-100251000D01*
X157489830Y-103371207D01*
X157321548Y-103371061D01*
X157027372Y-103492613D01*
X156802104Y-103717488D01*
X156680039Y-104011452D01*
X156679761Y-104329752D01*
X156801313Y-104623928D01*
X157026188Y-104849196D01*
X157220469Y-104929868D01*
X152720629Y-109429708D01*
X152436848Y-109429461D01*
X152142672Y-109551013D01*
X151917404Y-109775888D01*
X151802696Y-110052134D01*
X148958500Y-107207938D01*
X148958500Y-87986562D01*
X153756977Y-83188084D01*
X153833313Y-83372828D01*
X154058188Y-83598096D01*
X154352152Y-83720161D01*
X154521847Y-83720309D01*
X156192269Y-85390731D01*
X156373556Y-85511864D01*
X156373557Y-85511864D01*
X156587400Y-85554400D01*
X167038099Y-85554400D01*
X167156988Y-85673496D01*
X167450952Y-85795561D01*
X167769252Y-85795839D01*
X168063428Y-85674287D01*
X168288696Y-85449412D01*
X168410761Y-85155448D01*
X168411039Y-84837148D01*
X168289487Y-84542972D01*
X168064612Y-84317704D01*
X167770648Y-84195639D01*
X167452348Y-84195361D01*
X167158172Y-84316913D01*
X167038075Y-84436800D01*
X156818862Y-84436800D01*
X155312092Y-82930030D01*
X155312239Y-82761748D01*
X155190687Y-82467572D01*
X154965812Y-82242304D01*
X154779939Y-82165122D01*
X155918762Y-81026300D01*
X156210000Y-81026300D01*
X156423844Y-80983764D01*
X156605131Y-80862631D01*
X156726264Y-80681344D01*
X156768800Y-80467500D01*
X156768800Y-80224768D01*
X157000263Y-80070110D01*
X157242528Y-79707534D01*
X157327600Y-79279847D01*
X157327600Y-78200153D01*
X157242528Y-77772466D01*
X157108113Y-77571300D01*
X157851886Y-77571300D01*
X157717472Y-77772466D01*
X157632400Y-78200153D01*
X157632400Y-79279847D01*
X157717472Y-79707534D01*
X157959737Y-80070110D01*
X158322313Y-80312375D01*
X158750000Y-80397447D01*
X159177687Y-80312375D01*
X159540263Y-80070110D01*
X159782528Y-79707534D01*
X159867600Y-79279847D01*
X159867600Y-78200153D01*
X159782528Y-77772466D01*
X159648113Y-77571300D01*
X160391886Y-77571300D01*
X160257472Y-77772466D01*
X160172400Y-78200153D01*
X160172400Y-79279847D01*
X160257472Y-79707534D01*
X160499737Y-80070110D01*
X160862313Y-80312375D01*
X161290000Y-80397447D01*
X161717687Y-80312375D01*
X162080263Y-80070110D01*
X162322528Y-79707534D01*
X162407600Y-79279847D01*
X162407600Y-78200153D01*
X162322528Y-77772466D01*
X162188113Y-77571300D01*
X165471886Y-77571300D01*
X165337472Y-77772466D01*
X165252400Y-78200153D01*
X165252400Y-79279847D01*
X165337472Y-79707534D01*
X165579737Y-80070110D01*
X165942313Y-80312375D01*
X166370000Y-80397447D01*
X166797687Y-80312375D01*
X167160263Y-80070110D01*
X167402528Y-79707534D01*
X167487600Y-79279847D01*
X167487600Y-78200153D01*
X167402528Y-77772466D01*
X167160263Y-77409890D01*
X166928800Y-77255231D01*
X166928800Y-77012500D01*
X166886264Y-76798656D01*
X166765131Y-76617369D01*
X166583844Y-76496236D01*
X166370000Y-76453700D01*
X153118600Y-76453700D01*
X152904756Y-76496236D01*
X152723469Y-76617369D01*
X152004869Y-77335969D01*
X151937869Y-77436240D01*
X151920263Y-77409890D01*
X151557687Y-77167625D01*
X151130000Y-77082553D01*
X150702313Y-77167625D01*
X150339737Y-77409890D01*
X150097472Y-77772466D01*
X150012400Y-78200153D01*
X150012400Y-79279847D01*
X150097472Y-79707534D01*
X150339737Y-80070110D01*
X150702313Y-80312375D01*
X151018056Y-80375180D01*
X149707600Y-81685636D01*
X149707600Y-79279847D01*
X149707600Y-78200153D01*
X149622528Y-77772466D01*
X149380263Y-77409890D01*
X149017687Y-77167625D01*
X148590000Y-77082553D01*
X148162313Y-77167625D01*
X147799737Y-77409890D01*
X147557472Y-77772466D01*
X147472400Y-78200153D01*
X147472400Y-79279847D01*
X147557472Y-79707534D01*
X147799737Y-80070110D01*
X148162313Y-80312375D01*
X148590000Y-80397447D01*
X149017687Y-80312375D01*
X149380263Y-80070110D01*
X149622528Y-79707534D01*
X149707600Y-79279847D01*
X149707600Y-81685636D01*
X147167600Y-84225636D01*
X147167600Y-79279847D01*
X147167600Y-78200153D01*
X147082528Y-77772466D01*
X146840263Y-77409890D01*
X146477687Y-77167625D01*
X146050000Y-77082553D01*
X145622313Y-77167625D01*
X145259737Y-77409890D01*
X145017472Y-77772466D01*
X144932400Y-78200153D01*
X144932400Y-79279847D01*
X145017472Y-79707534D01*
X145259737Y-80070110D01*
X145622313Y-80312375D01*
X146050000Y-80397447D01*
X146477687Y-80312375D01*
X146840263Y-80070110D01*
X147082528Y-79707534D01*
X147167600Y-79279847D01*
X147167600Y-84225636D01*
X144627600Y-86765636D01*
X144627600Y-79279847D01*
X144627600Y-78200153D01*
X144542528Y-77772466D01*
X144300263Y-77409890D01*
X143937687Y-77167625D01*
X143510000Y-77082553D01*
X143082313Y-77167625D01*
X142719737Y-77409890D01*
X142477472Y-77772466D01*
X142392400Y-78200153D01*
X142392400Y-79279847D01*
X142477472Y-79707534D01*
X142719737Y-80070110D01*
X143082313Y-80312375D01*
X143510000Y-80397447D01*
X143937687Y-80312375D01*
X144300263Y-80070110D01*
X144542528Y-79707534D01*
X144627600Y-79279847D01*
X144627600Y-86765636D01*
X140563600Y-90829636D01*
X140563600Y-79279847D01*
X140563600Y-78200153D01*
X140478528Y-77772466D01*
X140236263Y-77409890D01*
X139873687Y-77167625D01*
X139446000Y-77082553D01*
X139018313Y-77167625D01*
X138655737Y-77409890D01*
X138413472Y-77772466D01*
X138328400Y-78200153D01*
X138328400Y-79279847D01*
X138413472Y-79707534D01*
X138655737Y-80070110D01*
X139018313Y-80312375D01*
X139446000Y-80397447D01*
X139873687Y-80312375D01*
X140236263Y-80070110D01*
X140478528Y-79707534D01*
X140563600Y-79279847D01*
X140563600Y-90829636D01*
X138023600Y-93369636D01*
X138023600Y-79279847D01*
X138023600Y-78200153D01*
X137938528Y-77772466D01*
X137696263Y-77409890D01*
X137333687Y-77167625D01*
X136906000Y-77082553D01*
X136478313Y-77167625D01*
X136115737Y-77409890D01*
X135873472Y-77772466D01*
X135788400Y-78200153D01*
X135788400Y-79279847D01*
X135873472Y-79707534D01*
X136115737Y-80070110D01*
X136478313Y-80312375D01*
X136906000Y-80397447D01*
X137333687Y-80312375D01*
X137696263Y-80070110D01*
X137938528Y-79707534D01*
X138023600Y-79279847D01*
X138023600Y-93369636D01*
X135483600Y-95909636D01*
X135483600Y-79279847D01*
X135483600Y-78200153D01*
X135398528Y-77772466D01*
X135156263Y-77409890D01*
X134793687Y-77167625D01*
X134366000Y-77082553D01*
X133938313Y-77167625D01*
X133575737Y-77409890D01*
X133333472Y-77772466D01*
X133248400Y-78200153D01*
X133248400Y-79279847D01*
X133333472Y-79707534D01*
X133575737Y-80070110D01*
X133807200Y-80224768D01*
X133807200Y-80236038D01*
X132943600Y-81099638D01*
X132943600Y-79279847D01*
X132943600Y-78200153D01*
X132858528Y-77772466D01*
X132616263Y-77409890D01*
X132253687Y-77167625D01*
X131826000Y-77082553D01*
X131398313Y-77167625D01*
X131035737Y-77409890D01*
X130793472Y-77772466D01*
X130708400Y-78200153D01*
X130708400Y-79279847D01*
X130793472Y-79707534D01*
X131035737Y-80070110D01*
X131398313Y-80312375D01*
X131826000Y-80397447D01*
X132253687Y-80312375D01*
X132616263Y-80070110D01*
X132858528Y-79707534D01*
X132943600Y-79279847D01*
X132943600Y-81099638D01*
X131653238Y-82390000D01*
X130403600Y-82390000D01*
X130403600Y-79279847D01*
X130403600Y-78200153D01*
X130318528Y-77772466D01*
X130076263Y-77409890D01*
X129713687Y-77167625D01*
X129286000Y-77082553D01*
X128858313Y-77167625D01*
X128495737Y-77409890D01*
X128253472Y-77772466D01*
X128168400Y-78200153D01*
X128168400Y-79279847D01*
X128253472Y-79707534D01*
X128495737Y-80070110D01*
X128858313Y-80312375D01*
X129286000Y-80397447D01*
X129713687Y-80312375D01*
X130076263Y-80070110D01*
X130318528Y-79707534D01*
X130403600Y-79279847D01*
X130403600Y-82390000D01*
X127863600Y-82390000D01*
X127863600Y-79279847D01*
X127863600Y-78200153D01*
X127778528Y-77772466D01*
X127536263Y-77409890D01*
X127173687Y-77167625D01*
X126746000Y-77082553D01*
X126318313Y-77167625D01*
X125955737Y-77409890D01*
X125713472Y-77772466D01*
X125628400Y-78200153D01*
X125628400Y-79279847D01*
X125713472Y-79707534D01*
X125955737Y-80070110D01*
X126318313Y-80312375D01*
X126746000Y-80397447D01*
X127173687Y-80312375D01*
X127536263Y-80070110D01*
X127778528Y-79707534D01*
X127863600Y-79279847D01*
X127863600Y-82390000D01*
X125323600Y-82390000D01*
X125323600Y-79279847D01*
X125323600Y-78200153D01*
X125238528Y-77772466D01*
X124996263Y-77409890D01*
X124633687Y-77167625D01*
X124206000Y-77082553D01*
X123778313Y-77167625D01*
X123415737Y-77409890D01*
X123173472Y-77772466D01*
X123088400Y-78200153D01*
X123088400Y-79279847D01*
X123173472Y-79707534D01*
X123415737Y-80070110D01*
X123778313Y-80312375D01*
X124206000Y-80397447D01*
X124633687Y-80312375D01*
X124996263Y-80070110D01*
X125238528Y-79707534D01*
X125323600Y-79279847D01*
X125323600Y-82390000D01*
X123048700Y-82390000D01*
X122929812Y-82270904D01*
X122783600Y-82210191D01*
X122783600Y-79279847D01*
X122783600Y-78200153D01*
X122698528Y-77772466D01*
X122456263Y-77409890D01*
X122093687Y-77167625D01*
X121666000Y-77082553D01*
X121238313Y-77167625D01*
X120875737Y-77409890D01*
X120633472Y-77772466D01*
X120548400Y-78200153D01*
X120548400Y-79279847D01*
X120633472Y-79707534D01*
X120875737Y-80070110D01*
X121238313Y-80312375D01*
X121666000Y-80397447D01*
X122093687Y-80312375D01*
X122456263Y-80070110D01*
X122698528Y-79707534D01*
X122783600Y-79279847D01*
X122783600Y-82210191D01*
X122635848Y-82148839D01*
X122317548Y-82148561D01*
X122023372Y-82270113D01*
X121798104Y-82494988D01*
X121676039Y-82788952D01*
X121675761Y-83107252D01*
X121797313Y-83401428D01*
X122022188Y-83626696D01*
X122316152Y-83748761D01*
X122634452Y-83749039D01*
X122928628Y-83627487D01*
X123048724Y-83507600D01*
X131884700Y-83507600D01*
X132098543Y-83465064D01*
X132098544Y-83465064D01*
X132279831Y-83343931D01*
X134761131Y-80862631D01*
X134882264Y-80681344D01*
X134882264Y-80681343D01*
X134924800Y-80467500D01*
X134924800Y-80224768D01*
X135156263Y-80070110D01*
X135398528Y-79707534D01*
X135483600Y-79279847D01*
X135483600Y-95909636D01*
X134786937Y-96606300D01*
X120243600Y-96606300D01*
X120243600Y-79279847D01*
X120243600Y-78200153D01*
X120158528Y-77772466D01*
X119916263Y-77409890D01*
X119553687Y-77167625D01*
X119126000Y-77082553D01*
X118698313Y-77167625D01*
X118335737Y-77409890D01*
X118093472Y-77772466D01*
X118008400Y-78200153D01*
X118008400Y-79279847D01*
X118093472Y-79707534D01*
X118335737Y-80070110D01*
X118698313Y-80312375D01*
X119126000Y-80397447D01*
X119553687Y-80312375D01*
X119916263Y-80070110D01*
X120158528Y-79707534D01*
X120243600Y-79279847D01*
X120243600Y-96606300D01*
X117703600Y-96606300D01*
X117703600Y-79279847D01*
X117703600Y-78200153D01*
X117618528Y-77772466D01*
X117376263Y-77409890D01*
X117013687Y-77167625D01*
X116586000Y-77082553D01*
X116158313Y-77167625D01*
X115795737Y-77409890D01*
X115553472Y-77772466D01*
X115468400Y-78200153D01*
X115468400Y-79279847D01*
X115553472Y-79707534D01*
X115795737Y-80070110D01*
X116158313Y-80312375D01*
X116586000Y-80397447D01*
X117013687Y-80312375D01*
X117376263Y-80070110D01*
X117618528Y-79707534D01*
X117703600Y-79279847D01*
X117703600Y-96606300D01*
X115354503Y-96606300D01*
X115354503Y-78279736D01*
X115001425Y-77425223D01*
X114348216Y-76770873D01*
X113494320Y-76416304D01*
X112569736Y-76415497D01*
X111715223Y-76768575D01*
X111060873Y-77421784D01*
X110706304Y-78275680D01*
X110705497Y-79200264D01*
X111058575Y-80054777D01*
X111711784Y-80709127D01*
X112565680Y-81063696D01*
X113490264Y-81064503D01*
X114344777Y-80711425D01*
X114999127Y-80058216D01*
X115353696Y-79204320D01*
X115354503Y-78279736D01*
X115354503Y-96606300D01*
X107000100Y-96606300D01*
X106786257Y-96648835D01*
X106604969Y-96769968D01*
X102012328Y-101362609D01*
X102012328Y-97790000D01*
X101869252Y-97070708D01*
X101461806Y-96460922D01*
X100852020Y-96053476D01*
X100132728Y-95910400D01*
X97987272Y-95910400D01*
X97267980Y-96053476D01*
X96658194Y-96460922D01*
X96250748Y-97070708D01*
X96107672Y-97790000D01*
X96250748Y-98509292D01*
X96658194Y-99119078D01*
X97267980Y-99526524D01*
X97987272Y-99669600D01*
X100132728Y-99669600D01*
X100852020Y-99526524D01*
X101461806Y-99119078D01*
X101869252Y-98509292D01*
X102012328Y-97790000D01*
X102012328Y-101362609D01*
X101699469Y-101675469D01*
X101578336Y-101856756D01*
X101535800Y-102070600D01*
X101535800Y-106731661D01*
X101461806Y-106620922D01*
X100852020Y-106213476D01*
X100132728Y-106070400D01*
X97987272Y-106070400D01*
X97267980Y-106213476D01*
X96658194Y-106620922D01*
X96250748Y-107230708D01*
X96107672Y-107950000D01*
X96250748Y-108669292D01*
X96658194Y-109279078D01*
X97267980Y-109686524D01*
X97987272Y-109829600D01*
X100132728Y-109829600D01*
X100852020Y-109686524D01*
X101461806Y-109279078D01*
X101535800Y-109168338D01*
X101535800Y-119466438D01*
X101204869Y-119797369D01*
X101083736Y-119978656D01*
X101041200Y-120192500D01*
X101041200Y-120287433D01*
X100672900Y-120287433D01*
X100537311Y-120313741D01*
X100418141Y-120392023D01*
X100338369Y-120510201D01*
X100310333Y-120650000D01*
X100310333Y-123190000D01*
X100336641Y-123325589D01*
X100414923Y-123444759D01*
X100533101Y-123524531D01*
X100672900Y-123552567D01*
X102527100Y-123552567D01*
X102662689Y-123526259D01*
X102781859Y-123447977D01*
X102861631Y-123329799D01*
X102889667Y-123190000D01*
X102889667Y-122457466D01*
X102954940Y-122785615D01*
X103232994Y-123201753D01*
X103530400Y-123400472D01*
X103530400Y-124080196D01*
X103454948Y-124155648D01*
X103322803Y-124353416D01*
X103276400Y-124586700D01*
X103276400Y-124732433D01*
X103251000Y-124732433D01*
X103115411Y-124758741D01*
X102996241Y-124837023D01*
X102916469Y-124955201D01*
X102888433Y-125095000D01*
X102888433Y-127635000D01*
X102914741Y-127770589D01*
X102993023Y-127889759D01*
X103111201Y-127969531D01*
X103251000Y-127997567D01*
X104521000Y-127997567D01*
X104656589Y-127971259D01*
X104775759Y-127892977D01*
X104855531Y-127774799D01*
X104883567Y-127635000D01*
X104883567Y-125095000D01*
X104857259Y-124959411D01*
X104778977Y-124840241D01*
X104660799Y-124760469D01*
X104583591Y-124744985D01*
X104703197Y-124565984D01*
X104749599Y-124332700D01*
X104749600Y-124332700D01*
X104749600Y-123400472D01*
X105047006Y-123201753D01*
X105325060Y-122785615D01*
X105410000Y-122358594D01*
X105494940Y-122785615D01*
X105772994Y-123201753D01*
X105918000Y-123298642D01*
X105918000Y-123850700D01*
X105976004Y-124142305D01*
X106141185Y-124389515D01*
X106172000Y-124420330D01*
X106172000Y-124757074D01*
X106163411Y-124758741D01*
X106044241Y-124837023D01*
X105964469Y-124955201D01*
X105936433Y-125095000D01*
X105936433Y-127635000D01*
X105962741Y-127770589D01*
X106041023Y-127889759D01*
X106159201Y-127969531D01*
X106299000Y-127997567D01*
X107569000Y-127997567D01*
X107704589Y-127971259D01*
X107823759Y-127892977D01*
X107903531Y-127774799D01*
X107931567Y-127635000D01*
X107931567Y-125095000D01*
X107905259Y-124959411D01*
X107826977Y-124840241D01*
X107708799Y-124760469D01*
X107696000Y-124757902D01*
X107696000Y-124104700D01*
X107637996Y-123813095D01*
X107472815Y-123565885D01*
X107472815Y-123565884D01*
X107442000Y-123535069D01*
X107442000Y-123298642D01*
X107587006Y-123201753D01*
X107865060Y-122785615D01*
X107962700Y-122294747D01*
X107962700Y-121545253D01*
X107865060Y-121054385D01*
X107587006Y-120638247D01*
X107170868Y-120360193D01*
X106680000Y-120262553D01*
X106654473Y-120267630D01*
X111702800Y-115219304D01*
X122136248Y-125652752D01*
X122334016Y-125784897D01*
X122567300Y-125831300D01*
X124831886Y-125831300D01*
X124697472Y-126032466D01*
X124612400Y-126460153D01*
X124612400Y-127539847D01*
X124697472Y-127967534D01*
X124939737Y-128330110D01*
X125302313Y-128572375D01*
X125730000Y-128657447D01*
X126157687Y-128572375D01*
X126520263Y-128330110D01*
X126762528Y-127967534D01*
X126847600Y-127539847D01*
X126847600Y-126460153D01*
X126762528Y-126032466D01*
X126628113Y-125831300D01*
X127371886Y-125831300D01*
X127237472Y-126032466D01*
X127152400Y-126460153D01*
X127152400Y-127539847D01*
X127237472Y-127967534D01*
X127479737Y-128330110D01*
X127842313Y-128572375D01*
X128270000Y-128657447D01*
X128697687Y-128572375D01*
X129060263Y-128330110D01*
X129302528Y-127967534D01*
X129387600Y-127539847D01*
X129387600Y-126460153D01*
X129302528Y-126032466D01*
X129168113Y-125831300D01*
X129911886Y-125831300D01*
X129777472Y-126032466D01*
X129692400Y-126460153D01*
X129692400Y-127539847D01*
X129777472Y-127967534D01*
X130019737Y-128330110D01*
X130382313Y-128572375D01*
X130810000Y-128657447D01*
X131237687Y-128572375D01*
X131600263Y-128330110D01*
X131842528Y-127967534D01*
X131927600Y-127539847D01*
X131927600Y-126460153D01*
X131842528Y-126032466D01*
X131708113Y-125831300D01*
X132451886Y-125831300D01*
X132317472Y-126032466D01*
X132232400Y-126460153D01*
X132232400Y-127539847D01*
X132317472Y-127967534D01*
X132559737Y-128330110D01*
X132922313Y-128572375D01*
X133350000Y-128657447D01*
X133777687Y-128572375D01*
X134140263Y-128330110D01*
X134382528Y-127967534D01*
X134467600Y-127539847D01*
X134467600Y-126460153D01*
X134382528Y-126032466D01*
X134248113Y-125831300D01*
X134991886Y-125831300D01*
X134857472Y-126032466D01*
X134772400Y-126460153D01*
X134772400Y-127539847D01*
X134857472Y-127967534D01*
X135099737Y-128330110D01*
X135462313Y-128572375D01*
X135890000Y-128657447D01*
X136317687Y-128572375D01*
X136680263Y-128330110D01*
X136922528Y-127967534D01*
X137007600Y-127539847D01*
X137007600Y-126460153D01*
X136922528Y-126032466D01*
X136788113Y-125831300D01*
X137531886Y-125831300D01*
X137397472Y-126032466D01*
X137312400Y-126460153D01*
X137312400Y-127539847D01*
X137397472Y-127967534D01*
X137639737Y-128330110D01*
X138002313Y-128572375D01*
X138430000Y-128657447D01*
X138857687Y-128572375D01*
X139220263Y-128330110D01*
X139462528Y-127967534D01*
X139547600Y-127539847D01*
X139547600Y-126460153D01*
X139462528Y-126032466D01*
X139220263Y-125669890D01*
X139039600Y-125549175D01*
X139039600Y-125221700D01*
X138993197Y-124988416D01*
X138861052Y-124790648D01*
X138663284Y-124658503D01*
X138430000Y-124612100D01*
X122819804Y-124612100D01*
X112312400Y-114104696D01*
X112312400Y-110941100D01*
X112265997Y-110707817D01*
X112265997Y-110707816D01*
X112213067Y-110628601D01*
X112133853Y-110510048D01*
X108559600Y-106935795D01*
X108559600Y-106855848D01*
X108740263Y-106735134D01*
X108982528Y-106372558D01*
X109067600Y-105944871D01*
X109067600Y-105383129D01*
X108982528Y-104955442D01*
X108740263Y-104592866D01*
X108377687Y-104350601D01*
X107957395Y-104267000D01*
X108377687Y-104183399D01*
X108740263Y-103941134D01*
X108982528Y-103578558D01*
X109067600Y-103150871D01*
X109067600Y-102589129D01*
X108982528Y-102161442D01*
X108740263Y-101798866D01*
X108377687Y-101556601D01*
X107957395Y-101473000D01*
X108377687Y-101389399D01*
X108740263Y-101147134D01*
X108982528Y-100784558D01*
X109067600Y-100356871D01*
X109067600Y-99795129D01*
X108982528Y-99367442D01*
X108825745Y-99132800D01*
X137963037Y-99132800D01*
X156466337Y-117636100D01*
X155761961Y-117636100D01*
X142885631Y-104759769D01*
X142704344Y-104638636D01*
X142490500Y-104596100D01*
X122943100Y-104596100D01*
X122729256Y-104638636D01*
X122547969Y-104759769D01*
X120291969Y-107015769D01*
X120170836Y-107197056D01*
X120128300Y-107410900D01*
X120128300Y-108865499D01*
X120009204Y-108984388D01*
X119887139Y-109278352D01*
X119886861Y-109596652D01*
X120008413Y-109890828D01*
X120233288Y-110116096D01*
X120527252Y-110238161D01*
X120845552Y-110238439D01*
X121072400Y-110144706D01*
X121072400Y-117088200D01*
X121114936Y-117302044D01*
X121236069Y-117483331D01*
X122373107Y-118620369D01*
X122372961Y-118788652D01*
X122494513Y-119082828D01*
X122719388Y-119308096D01*
X123013352Y-119430161D01*
X123331652Y-119430439D01*
X123625828Y-119308887D01*
X123851096Y-119084012D01*
X123973161Y-118790048D01*
X123973439Y-118471748D01*
X123851887Y-118177572D01*
X123627012Y-117952304D01*
X123333048Y-117830239D01*
X123163352Y-117830090D01*
X122190000Y-116856738D01*
X122190000Y-111096862D01*
X122220707Y-111127569D01*
X122220561Y-111295852D01*
X122342113Y-111590028D01*
X122566988Y-111815296D01*
X122860952Y-111937361D01*
X123179252Y-111937639D01*
X123473428Y-111816087D01*
X123698696Y-111591212D01*
X123820761Y-111297248D01*
X123821039Y-110978948D01*
X123699487Y-110684772D01*
X123474612Y-110459504D01*
X123180648Y-110337439D01*
X123010952Y-110337290D01*
X122869800Y-110196138D01*
X122869800Y-110116837D01*
X122910088Y-110157196D01*
X123204052Y-110279261D01*
X123522352Y-110279539D01*
X123816528Y-110157987D01*
X124041796Y-109933112D01*
X124163861Y-109639148D01*
X124164009Y-109469452D01*
X124354719Y-109278742D01*
X124429213Y-109459028D01*
X124654088Y-109684296D01*
X124948052Y-109806361D01*
X125266352Y-109806639D01*
X125560528Y-109685087D01*
X125602242Y-109643445D01*
X125672313Y-109813028D01*
X125897188Y-110038296D01*
X126191152Y-110160361D01*
X126509452Y-110160639D01*
X126803628Y-110039087D01*
X127028896Y-109814212D01*
X127041980Y-109782700D01*
X128232015Y-109782700D01*
X128155839Y-109966152D01*
X128155561Y-110284452D01*
X128277113Y-110578628D01*
X128397000Y-110698724D01*
X128397000Y-113283900D01*
X128439536Y-113497744D01*
X128560669Y-113679031D01*
X130696369Y-115814731D01*
X130877656Y-115935864D01*
X130877657Y-115935864D01*
X131091500Y-115978400D01*
X137614629Y-115978400D01*
X137420904Y-116171788D01*
X137298839Y-116465752D01*
X137298561Y-116784052D01*
X137420113Y-117078228D01*
X137644988Y-117303496D01*
X137938952Y-117425561D01*
X138257252Y-117425839D01*
X138466298Y-117339462D01*
X138441139Y-117400052D01*
X138440861Y-117718352D01*
X138562413Y-118012528D01*
X138787288Y-118237796D01*
X139081252Y-118359861D01*
X139159667Y-118359929D01*
X147472400Y-126672662D01*
X147472400Y-127331137D01*
X146604700Y-126463437D01*
X146604700Y-126292800D01*
X146562164Y-126078957D01*
X146562164Y-126078956D01*
X146441031Y-125897669D01*
X141324031Y-120780669D01*
X141142744Y-120659536D01*
X140928900Y-120617000D01*
X134680462Y-120617000D01*
X129062392Y-114998930D01*
X129062539Y-114830648D01*
X128940987Y-114536472D01*
X128716112Y-114311204D01*
X128422148Y-114189139D01*
X128103848Y-114188861D01*
X127809672Y-114310413D01*
X127584404Y-114535288D01*
X127462339Y-114829252D01*
X127462061Y-115147552D01*
X127583613Y-115441728D01*
X127808488Y-115666996D01*
X128102452Y-115789061D01*
X128272147Y-115789209D01*
X134053869Y-121570931D01*
X134235156Y-121692064D01*
X134235157Y-121692064D01*
X134449000Y-121734600D01*
X140697438Y-121734600D01*
X140946638Y-121983800D01*
X123959100Y-121983800D01*
X123840212Y-121864704D01*
X123546248Y-121742639D01*
X123227948Y-121742361D01*
X122933772Y-121863913D01*
X122708504Y-122088788D01*
X122586439Y-122382752D01*
X122586161Y-122701052D01*
X122707713Y-122995228D01*
X122932588Y-123220496D01*
X123226552Y-123342561D01*
X123544852Y-123342839D01*
X123839028Y-123221287D01*
X123959124Y-123101400D01*
X141129737Y-123101400D01*
X143256977Y-125228639D01*
X143146239Y-125169516D01*
X142647896Y-125414369D01*
X142301128Y-125826312D01*
X142138400Y-126339600D01*
X142138400Y-126847600D01*
X143357600Y-126847600D01*
X143357600Y-126827600D01*
X143662400Y-126827600D01*
X143662400Y-126847600D01*
X143682400Y-126847600D01*
X143682400Y-127152400D01*
X143662400Y-127152400D01*
X143662400Y-128717637D01*
X143873761Y-128830484D01*
X144372104Y-128585631D01*
X144718872Y-128173688D01*
X144881600Y-127660400D01*
X144881600Y-127255362D01*
X147382138Y-129755900D01*
X143357600Y-129755900D01*
X143357600Y-128717637D01*
X143357600Y-127152400D01*
X142138400Y-127152400D01*
X142138400Y-127660400D01*
X142301128Y-128173688D01*
X142647896Y-128585631D01*
X143146239Y-128830484D01*
X143357600Y-128717637D01*
X143357600Y-129755900D01*
X142087600Y-129755900D01*
X142087600Y-127539847D01*
X142087600Y-126460153D01*
X142002528Y-126032466D01*
X141760263Y-125669890D01*
X141397687Y-125427625D01*
X140970000Y-125342553D01*
X140542313Y-125427625D01*
X140179737Y-125669890D01*
X139937472Y-126032466D01*
X139852400Y-126460153D01*
X139852400Y-127539847D01*
X139937472Y-127967534D01*
X140179737Y-128330110D01*
X140542313Y-128572375D01*
X140970000Y-128657447D01*
X141397687Y-128572375D01*
X141760263Y-128330110D01*
X142002528Y-127967534D01*
X142087600Y-127539847D01*
X142087600Y-129755900D01*
X114084503Y-129755900D01*
X114084503Y-126539736D01*
X113731425Y-125685223D01*
X113078216Y-125030873D01*
X112224320Y-124676304D01*
X111299736Y-124675497D01*
X110445223Y-125028575D01*
X109790873Y-125681784D01*
X109436304Y-126535680D01*
X109435497Y-127460264D01*
X109788575Y-128314777D01*
X110441784Y-128969127D01*
X111295680Y-129323696D01*
X112220264Y-129324503D01*
X113074777Y-128971425D01*
X113729127Y-128318216D01*
X114083696Y-127464320D01*
X114084503Y-126539736D01*
X114084503Y-129755900D01*
X93764100Y-129755900D01*
X93764100Y-75984100D01*
X173700037Y-75984100D01*
X172324869Y-77359269D01*
X172265653Y-77447890D01*
X172240263Y-77409890D01*
X171877687Y-77167625D01*
X171450000Y-77082553D01*
X171022313Y-77167625D01*
X170659737Y-77409890D01*
X170417472Y-77772466D01*
X170332400Y-78200153D01*
X170332400Y-79279847D01*
X170417472Y-79707534D01*
X170659737Y-80070110D01*
X171022313Y-80312375D01*
X171450000Y-80397447D01*
X171877687Y-80312375D01*
X172161200Y-80122938D01*
X172161200Y-80663433D01*
X171450000Y-80663433D01*
X171314411Y-80689741D01*
X171195241Y-80768023D01*
X171115469Y-80886201D01*
X171087433Y-81026000D01*
X171087433Y-82296000D01*
X171113741Y-82431589D01*
X171192023Y-82550759D01*
X171310201Y-82630531D01*
X171450000Y-82658567D01*
X172161200Y-82658567D01*
X172161200Y-82753500D01*
X172203736Y-82967344D01*
X172324869Y-83148631D01*
X172680468Y-83504231D01*
X172680469Y-83504231D01*
X172771112Y-83564797D01*
X172861756Y-83625364D01*
X172861757Y-83625364D01*
X173075600Y-83667900D01*
X176269996Y-83667900D01*
X176259869Y-83718400D01*
X176259869Y-84286022D01*
X176240400Y-84383900D01*
X176240400Y-91975100D01*
X176286803Y-92208384D01*
X176418948Y-92406152D01*
X176719383Y-92706588D01*
X176719383Y-92706588D01*
G37*
X176719383Y-92706588D02*
X176487472Y-92802413D01*
X176262204Y-93027288D01*
X176140139Y-93321252D01*
X176139990Y-93490946D01*
X175110439Y-94520497D01*
X175110439Y-86786148D01*
X174988887Y-86491972D01*
X174910426Y-86413373D01*
X174873397Y-86227216D01*
X174741252Y-86029448D01*
X174272574Y-85560770D01*
X174324531Y-85483799D01*
X174352567Y-85344000D01*
X174352567Y-84074000D01*
X174326259Y-83938411D01*
X174247977Y-83819241D01*
X174129799Y-83739469D01*
X173990000Y-83711433D01*
X171450000Y-83711433D01*
X171314411Y-83737741D01*
X171195241Y-83816023D01*
X171115469Y-83934201D01*
X171087433Y-84074000D01*
X171087433Y-84099400D01*
X170941700Y-84099400D01*
X170708416Y-84145803D01*
X170592539Y-84223229D01*
X170592539Y-83661548D01*
X170470987Y-83367372D01*
X170246112Y-83142104D01*
X170027600Y-83051369D01*
X170027600Y-79279847D01*
X170027600Y-78200153D01*
X169942528Y-77772466D01*
X169700263Y-77409890D01*
X169337687Y-77167625D01*
X168910000Y-77082553D01*
X168482313Y-77167625D01*
X168119737Y-77409890D01*
X167877472Y-77772466D01*
X167792400Y-78200153D01*
X167792400Y-79279847D01*
X167877472Y-79707534D01*
X168119737Y-80070110D01*
X168482313Y-80312375D01*
X168910000Y-80397447D01*
X169337687Y-80312375D01*
X169700263Y-80070110D01*
X169942528Y-79707534D01*
X170027600Y-79279847D01*
X170027600Y-83051369D01*
X169952148Y-83020039D01*
X169782452Y-83019890D01*
X169308331Y-82545769D01*
X169127044Y-82424636D01*
X168913200Y-82382100D01*
X157316300Y-82382100D01*
X157197412Y-82263004D01*
X156903448Y-82140939D01*
X156585148Y-82140661D01*
X156290972Y-82262213D01*
X156065704Y-82487088D01*
X155943639Y-82781052D01*
X155943361Y-83099352D01*
X156064913Y-83393528D01*
X156289788Y-83618796D01*
X156583752Y-83740861D01*
X156902052Y-83741139D01*
X157196228Y-83619587D01*
X157316324Y-83499700D01*
X168681738Y-83499700D01*
X168992207Y-83810169D01*
X168992061Y-83978452D01*
X169113613Y-84272628D01*
X169338488Y-84497896D01*
X169632452Y-84619961D01*
X169950752Y-84620239D01*
X170244928Y-84498687D01*
X170470196Y-84273812D01*
X170592261Y-83979848D01*
X170592539Y-83661548D01*
X170592539Y-84223229D01*
X170510648Y-84277948D01*
X165209649Y-89578946D01*
X164997048Y-89578761D01*
X164702872Y-89700313D01*
X164477604Y-89925188D01*
X164355539Y-90219152D01*
X164355261Y-90537452D01*
X164431639Y-90722300D01*
X154147562Y-90722300D01*
X153200092Y-89774830D01*
X153200239Y-89606548D01*
X153078687Y-89312372D01*
X152853812Y-89087104D01*
X152559848Y-88965039D01*
X152241548Y-88964761D01*
X151947372Y-89086313D01*
X151722104Y-89311188D01*
X151600039Y-89605152D01*
X151599761Y-89923452D01*
X151721313Y-90217628D01*
X151946188Y-90442896D01*
X152240152Y-90564961D01*
X152409847Y-90565109D01*
X153262637Y-91417900D01*
X153052061Y-91417900D01*
X152853812Y-91219304D01*
X152559848Y-91097239D01*
X152241548Y-91096961D01*
X151947372Y-91218513D01*
X151722104Y-91443388D01*
X151600039Y-91737352D01*
X151599761Y-92055652D01*
X151721313Y-92349828D01*
X151946188Y-92575096D01*
X152240152Y-92697161D01*
X152558452Y-92697439D01*
X152852628Y-92575887D01*
X152893085Y-92535500D01*
X170754500Y-92535500D01*
X170968343Y-92492964D01*
X170968344Y-92492964D01*
X171149631Y-92371831D01*
X172035469Y-91485992D01*
X172203752Y-91486139D01*
X172497928Y-91364587D01*
X172723196Y-91139712D01*
X172845261Y-90845748D01*
X172845539Y-90527448D01*
X172723987Y-90233272D01*
X172499112Y-90008004D01*
X172205148Y-89885939D01*
X171886848Y-89885661D01*
X171592672Y-90007213D01*
X171367404Y-90232088D01*
X171245339Y-90526052D01*
X171245190Y-90695747D01*
X170523037Y-91417900D01*
X169821837Y-91417900D01*
X169915661Y-91191948D01*
X169915939Y-90873648D01*
X169794387Y-90579472D01*
X169569512Y-90354204D01*
X169275548Y-90232139D01*
X168957248Y-90231861D01*
X168663072Y-90353413D01*
X168437804Y-90578288D01*
X168378004Y-90722300D01*
X165879284Y-90722300D01*
X165942327Y-90570476D01*
X171100655Y-85412148D01*
X171113741Y-85479589D01*
X171192023Y-85598759D01*
X171310201Y-85678531D01*
X171450000Y-85706567D01*
X172694163Y-85706567D01*
X173587143Y-86599547D01*
X173510239Y-86784752D01*
X173509961Y-87103052D01*
X173631513Y-87397228D01*
X173856388Y-87622496D01*
X174150352Y-87744561D01*
X174468652Y-87744839D01*
X174762828Y-87623287D01*
X174988096Y-87398412D01*
X175110161Y-87104448D01*
X175110439Y-86786148D01*
X175110439Y-94520497D01*
X174475617Y-95155320D01*
X174370687Y-94901372D01*
X174145812Y-94676104D01*
X173851848Y-94554039D01*
X173533548Y-94553761D01*
X173239372Y-94675313D01*
X173014104Y-94900188D01*
X172892039Y-95194152D01*
X172891890Y-95363847D01*
X170298486Y-97957251D01*
X170301561Y-97949848D01*
X170301839Y-97631548D01*
X170180287Y-97337372D01*
X169955412Y-97112104D01*
X169770811Y-97035450D01*
X173505769Y-93300492D01*
X173674052Y-93300639D01*
X173968228Y-93179087D01*
X174193496Y-92954212D01*
X174315561Y-92660248D01*
X174315839Y-92341948D01*
X174194287Y-92047772D01*
X173969412Y-91822504D01*
X173675448Y-91700439D01*
X173357148Y-91700161D01*
X173062972Y-91821713D01*
X172837704Y-92046588D01*
X172715639Y-92340552D01*
X172715490Y-92510247D01*
X168356346Y-96869391D01*
X168405861Y-96750148D01*
X168406139Y-96431848D01*
X168284587Y-96137672D01*
X168059712Y-95912404D01*
X167765748Y-95790339D01*
X167447448Y-95790061D01*
X167153272Y-95911613D01*
X167033175Y-96031500D01*
X159498000Y-96031500D01*
X159284156Y-96074036D01*
X159102869Y-96195169D01*
X158947804Y-96350233D01*
X159019261Y-96178148D01*
X159019409Y-96008452D01*
X160029962Y-94997900D01*
X168329799Y-94997900D01*
X168448688Y-95116996D01*
X168742652Y-95239061D01*
X169060952Y-95239339D01*
X169355128Y-95117787D01*
X169580396Y-94892912D01*
X169702461Y-94598948D01*
X169702739Y-94280648D01*
X169581187Y-93986472D01*
X169356312Y-93761204D01*
X169062348Y-93639139D01*
X168744048Y-93638861D01*
X168449872Y-93760413D01*
X168329775Y-93880300D01*
X159798500Y-93880300D01*
X159584656Y-93922836D01*
X159403369Y-94043969D01*
X158229130Y-95218207D01*
X158060848Y-95218061D01*
X157766672Y-95339613D01*
X157541404Y-95564488D01*
X157419339Y-95858452D01*
X157419061Y-96176752D01*
X157508000Y-96392000D01*
X154343008Y-96392000D01*
X154171912Y-96220604D01*
X153877948Y-96098539D01*
X153559648Y-96098261D01*
X153265472Y-96219813D01*
X153040204Y-96444688D01*
X152972305Y-96608204D01*
X152853812Y-96489504D01*
X152559848Y-96367439D01*
X152241548Y-96367161D01*
X151947372Y-96488713D01*
X151722104Y-96713588D01*
X151600039Y-97007552D01*
X151599761Y-97325852D01*
X151721313Y-97620028D01*
X151946188Y-97845296D01*
X152240152Y-97967361D01*
X152409847Y-97967509D01*
X153576869Y-99134531D01*
X153758156Y-99255664D01*
X153758157Y-99255665D01*
X153972000Y-99298200D01*
X158234838Y-99298200D01*
X152465930Y-105067107D01*
X152297648Y-105066961D01*
X152003472Y-105188513D01*
X151778204Y-105413388D01*
X151656139Y-105707352D01*
X151655861Y-106025652D01*
X151777413Y-106319828D01*
X152002288Y-106545096D01*
X152296252Y-106667161D01*
X152614552Y-106667439D01*
X152908728Y-106545887D01*
X153133996Y-106321012D01*
X153256061Y-106027048D01*
X153256209Y-105857352D01*
X158862561Y-100251000D01*
X160610038Y-100251000D01*
X157489830Y-103371207D01*
X157321548Y-103371061D01*
X157027372Y-103492613D01*
X156802104Y-103717488D01*
X156680039Y-104011452D01*
X156679761Y-104329752D01*
X156801313Y-104623928D01*
X157026188Y-104849196D01*
X157220469Y-104929868D01*
X152720629Y-109429708D01*
X152436848Y-109429461D01*
X152142672Y-109551013D01*
X151917404Y-109775888D01*
X151802696Y-110052134D01*
X148958500Y-107207938D01*
X148958500Y-87986562D01*
X153756977Y-83188084D01*
X153833313Y-83372828D01*
X154058188Y-83598096D01*
X154352152Y-83720161D01*
X154521847Y-83720309D01*
X156192269Y-85390731D01*
X156373556Y-85511864D01*
X156373557Y-85511864D01*
X156587400Y-85554400D01*
X167038099Y-85554400D01*
X167156988Y-85673496D01*
X167450952Y-85795561D01*
X167769252Y-85795839D01*
X168063428Y-85674287D01*
X168288696Y-85449412D01*
X168410761Y-85155448D01*
X168411039Y-84837148D01*
X168289487Y-84542972D01*
X168064612Y-84317704D01*
X167770648Y-84195639D01*
X167452348Y-84195361D01*
X167158172Y-84316913D01*
X167038075Y-84436800D01*
X156818862Y-84436800D01*
X155312092Y-82930030D01*
X155312239Y-82761748D01*
X155190687Y-82467572D01*
X154965812Y-82242304D01*
X154779939Y-82165122D01*
X155918762Y-81026300D01*
X156210000Y-81026300D01*
X156423844Y-80983764D01*
X156605131Y-80862631D01*
X156726264Y-80681344D01*
X156768800Y-80467500D01*
X156768800Y-80224768D01*
X157000263Y-80070110D01*
X157242528Y-79707534D01*
X157327600Y-79279847D01*
X157327600Y-78200153D01*
X157242528Y-77772466D01*
X157108113Y-77571300D01*
X157851886Y-77571300D01*
X157717472Y-77772466D01*
X157632400Y-78200153D01*
X157632400Y-79279847D01*
X157717472Y-79707534D01*
X157959737Y-80070110D01*
X158322313Y-80312375D01*
X158750000Y-80397447D01*
X159177687Y-80312375D01*
X159540263Y-80070110D01*
X159782528Y-79707534D01*
X159867600Y-79279847D01*
X159867600Y-78200153D01*
X159782528Y-77772466D01*
X159648113Y-77571300D01*
X160391886Y-77571300D01*
X160257472Y-77772466D01*
X160172400Y-78200153D01*
X160172400Y-79279847D01*
X160257472Y-79707534D01*
X160499737Y-80070110D01*
X160862313Y-80312375D01*
X161290000Y-80397447D01*
X161717687Y-80312375D01*
X162080263Y-80070110D01*
X162322528Y-79707534D01*
X162407600Y-79279847D01*
X162407600Y-78200153D01*
X162322528Y-77772466D01*
X162188113Y-77571300D01*
X165471886Y-77571300D01*
X165337472Y-77772466D01*
X165252400Y-78200153D01*
X165252400Y-79279847D01*
X165337472Y-79707534D01*
X165579737Y-80070110D01*
X165942313Y-80312375D01*
X166370000Y-80397447D01*
X166797687Y-80312375D01*
X167160263Y-80070110D01*
X167402528Y-79707534D01*
X167487600Y-79279847D01*
X167487600Y-78200153D01*
X167402528Y-77772466D01*
X167160263Y-77409890D01*
X166928800Y-77255231D01*
X166928800Y-77012500D01*
X166886264Y-76798656D01*
X166765131Y-76617369D01*
X166583844Y-76496236D01*
X166370000Y-76453700D01*
X153118600Y-76453700D01*
X152904756Y-76496236D01*
X152723469Y-76617369D01*
X152004869Y-77335969D01*
X151937869Y-77436240D01*
X151920263Y-77409890D01*
X151557687Y-77167625D01*
X151130000Y-77082553D01*
X150702313Y-77167625D01*
X150339737Y-77409890D01*
X150097472Y-77772466D01*
X150012400Y-78200153D01*
X150012400Y-79279847D01*
X150097472Y-79707534D01*
X150339737Y-80070110D01*
X150702313Y-80312375D01*
X151018056Y-80375180D01*
X149707600Y-81685636D01*
X149707600Y-79279847D01*
X149707600Y-78200153D01*
X149622528Y-77772466D01*
X149380263Y-77409890D01*
X149017687Y-77167625D01*
X148590000Y-77082553D01*
X148162313Y-77167625D01*
X147799737Y-77409890D01*
X147557472Y-77772466D01*
X147472400Y-78200153D01*
X147472400Y-79279847D01*
X147557472Y-79707534D01*
X147799737Y-80070110D01*
X148162313Y-80312375D01*
X148590000Y-80397447D01*
X149017687Y-80312375D01*
X149380263Y-80070110D01*
X149622528Y-79707534D01*
X149707600Y-79279847D01*
X149707600Y-81685636D01*
X147167600Y-84225636D01*
X147167600Y-79279847D01*
X147167600Y-78200153D01*
X147082528Y-77772466D01*
X146840263Y-77409890D01*
X146477687Y-77167625D01*
X146050000Y-77082553D01*
X145622313Y-77167625D01*
X145259737Y-77409890D01*
X145017472Y-77772466D01*
X144932400Y-78200153D01*
X144932400Y-79279847D01*
X145017472Y-79707534D01*
X145259737Y-80070110D01*
X145622313Y-80312375D01*
X146050000Y-80397447D01*
X146477687Y-80312375D01*
X146840263Y-80070110D01*
X147082528Y-79707534D01*
X147167600Y-79279847D01*
X147167600Y-84225636D01*
X144627600Y-86765636D01*
X144627600Y-79279847D01*
X144627600Y-78200153D01*
X144542528Y-77772466D01*
X144300263Y-77409890D01*
X143937687Y-77167625D01*
X143510000Y-77082553D01*
X143082313Y-77167625D01*
X142719737Y-77409890D01*
X142477472Y-77772466D01*
X142392400Y-78200153D01*
X142392400Y-79279847D01*
X142477472Y-79707534D01*
X142719737Y-80070110D01*
X143082313Y-80312375D01*
X143510000Y-80397447D01*
X143937687Y-80312375D01*
X144300263Y-80070110D01*
X144542528Y-79707534D01*
X144627600Y-79279847D01*
X144627600Y-86765636D01*
X140563600Y-90829636D01*
X140563600Y-79279847D01*
X140563600Y-78200153D01*
X140478528Y-77772466D01*
X140236263Y-77409890D01*
X139873687Y-77167625D01*
X139446000Y-77082553D01*
X139018313Y-77167625D01*
X138655737Y-77409890D01*
X138413472Y-77772466D01*
X138328400Y-78200153D01*
X138328400Y-79279847D01*
X138413472Y-79707534D01*
X138655737Y-80070110D01*
X139018313Y-80312375D01*
X139446000Y-80397447D01*
X139873687Y-80312375D01*
X140236263Y-80070110D01*
X140478528Y-79707534D01*
X140563600Y-79279847D01*
X140563600Y-90829636D01*
X138023600Y-93369636D01*
X138023600Y-79279847D01*
X138023600Y-78200153D01*
X137938528Y-77772466D01*
X137696263Y-77409890D01*
X137333687Y-77167625D01*
X136906000Y-77082553D01*
X136478313Y-77167625D01*
X136115737Y-77409890D01*
X135873472Y-77772466D01*
X135788400Y-78200153D01*
X135788400Y-79279847D01*
X135873472Y-79707534D01*
X136115737Y-80070110D01*
X136478313Y-80312375D01*
X136906000Y-80397447D01*
X137333687Y-80312375D01*
X137696263Y-80070110D01*
X137938528Y-79707534D01*
X138023600Y-79279847D01*
X138023600Y-93369636D01*
X135483600Y-95909636D01*
X135483600Y-79279847D01*
X135483600Y-78200153D01*
X135398528Y-77772466D01*
X135156263Y-77409890D01*
X134793687Y-77167625D01*
X134366000Y-77082553D01*
X133938313Y-77167625D01*
X133575737Y-77409890D01*
X133333472Y-77772466D01*
X133248400Y-78200153D01*
X133248400Y-79279847D01*
X133333472Y-79707534D01*
X133575737Y-80070110D01*
X133807200Y-80224768D01*
X133807200Y-80236038D01*
X132943600Y-81099638D01*
X132943600Y-79279847D01*
X132943600Y-78200153D01*
X132858528Y-77772466D01*
X132616263Y-77409890D01*
X132253687Y-77167625D01*
X131826000Y-77082553D01*
X131398313Y-77167625D01*
X131035737Y-77409890D01*
X130793472Y-77772466D01*
X130708400Y-78200153D01*
X130708400Y-79279847D01*
X130793472Y-79707534D01*
X131035737Y-80070110D01*
X131398313Y-80312375D01*
X131826000Y-80397447D01*
X132253687Y-80312375D01*
X132616263Y-80070110D01*
X132858528Y-79707534D01*
X132943600Y-79279847D01*
X132943600Y-81099638D01*
X131653238Y-82390000D01*
X130403600Y-82390000D01*
X130403600Y-79279847D01*
X130403600Y-78200153D01*
X130318528Y-77772466D01*
X130076263Y-77409890D01*
X129713687Y-77167625D01*
X129286000Y-77082553D01*
X128858313Y-77167625D01*
X128495737Y-77409890D01*
X128253472Y-77772466D01*
X128168400Y-78200153D01*
X128168400Y-79279847D01*
X128253472Y-79707534D01*
X128495737Y-80070110D01*
X128858313Y-80312375D01*
X129286000Y-80397447D01*
X129713687Y-80312375D01*
X130076263Y-80070110D01*
X130318528Y-79707534D01*
X130403600Y-79279847D01*
X130403600Y-82390000D01*
X127863600Y-82390000D01*
X127863600Y-79279847D01*
X127863600Y-78200153D01*
X127778528Y-77772466D01*
X127536263Y-77409890D01*
X127173687Y-77167625D01*
X126746000Y-77082553D01*
X126318313Y-77167625D01*
X125955737Y-77409890D01*
X125713472Y-77772466D01*
X125628400Y-78200153D01*
X125628400Y-79279847D01*
X125713472Y-79707534D01*
X125955737Y-80070110D01*
X126318313Y-80312375D01*
X126746000Y-80397447D01*
X127173687Y-80312375D01*
X127536263Y-80070110D01*
X127778528Y-79707534D01*
X127863600Y-79279847D01*
X127863600Y-82390000D01*
X125323600Y-82390000D01*
X125323600Y-79279847D01*
X125323600Y-78200153D01*
X125238528Y-77772466D01*
X124996263Y-77409890D01*
X124633687Y-77167625D01*
X124206000Y-77082553D01*
X123778313Y-77167625D01*
X123415737Y-77409890D01*
X123173472Y-77772466D01*
X123088400Y-78200153D01*
X123088400Y-79279847D01*
X123173472Y-79707534D01*
X123415737Y-80070110D01*
X123778313Y-80312375D01*
X124206000Y-80397447D01*
X124633687Y-80312375D01*
X124996263Y-80070110D01*
X125238528Y-79707534D01*
X125323600Y-79279847D01*
X125323600Y-82390000D01*
X123048700Y-82390000D01*
X122929812Y-82270904D01*
X122783600Y-82210191D01*
X122783600Y-79279847D01*
X122783600Y-78200153D01*
X122698528Y-77772466D01*
X122456263Y-77409890D01*
X122093687Y-77167625D01*
X121666000Y-77082553D01*
X121238313Y-77167625D01*
X120875737Y-77409890D01*
X120633472Y-77772466D01*
X120548400Y-78200153D01*
X120548400Y-79279847D01*
X120633472Y-79707534D01*
X120875737Y-80070110D01*
X121238313Y-80312375D01*
X121666000Y-80397447D01*
X122093687Y-80312375D01*
X122456263Y-80070110D01*
X122698528Y-79707534D01*
X122783600Y-79279847D01*
X122783600Y-82210191D01*
X122635848Y-82148839D01*
X122317548Y-82148561D01*
X122023372Y-82270113D01*
X121798104Y-82494988D01*
X121676039Y-82788952D01*
X121675761Y-83107252D01*
X121797313Y-83401428D01*
X122022188Y-83626696D01*
X122316152Y-83748761D01*
X122634452Y-83749039D01*
X122928628Y-83627487D01*
X123048724Y-83507600D01*
X131884700Y-83507600D01*
X132098543Y-83465064D01*
X132098544Y-83465064D01*
X132279831Y-83343931D01*
X134761131Y-80862631D01*
X134882264Y-80681344D01*
X134882264Y-80681343D01*
X134924800Y-80467500D01*
X134924800Y-80224768D01*
X135156263Y-80070110D01*
X135398528Y-79707534D01*
X135483600Y-79279847D01*
X135483600Y-95909636D01*
X134786937Y-96606300D01*
X120243600Y-96606300D01*
X120243600Y-79279847D01*
X120243600Y-78200153D01*
X120158528Y-77772466D01*
X119916263Y-77409890D01*
X119553687Y-77167625D01*
X119126000Y-77082553D01*
X118698313Y-77167625D01*
X118335737Y-77409890D01*
X118093472Y-77772466D01*
X118008400Y-78200153D01*
X118008400Y-79279847D01*
X118093472Y-79707534D01*
X118335737Y-80070110D01*
X118698313Y-80312375D01*
X119126000Y-80397447D01*
X119553687Y-80312375D01*
X119916263Y-80070110D01*
X120158528Y-79707534D01*
X120243600Y-79279847D01*
X120243600Y-96606300D01*
X117703600Y-96606300D01*
X117703600Y-79279847D01*
X117703600Y-78200153D01*
X117618528Y-77772466D01*
X117376263Y-77409890D01*
X117013687Y-77167625D01*
X116586000Y-77082553D01*
X116158313Y-77167625D01*
X115795737Y-77409890D01*
X115553472Y-77772466D01*
X115468400Y-78200153D01*
X115468400Y-79279847D01*
X115553472Y-79707534D01*
X115795737Y-80070110D01*
X116158313Y-80312375D01*
X116586000Y-80397447D01*
X117013687Y-80312375D01*
X117376263Y-80070110D01*
X117618528Y-79707534D01*
X117703600Y-79279847D01*
X117703600Y-96606300D01*
X115354503Y-96606300D01*
X115354503Y-78279736D01*
X115001425Y-77425223D01*
X114348216Y-76770873D01*
X113494320Y-76416304D01*
X112569736Y-76415497D01*
X111715223Y-76768575D01*
X111060873Y-77421784D01*
X110706304Y-78275680D01*
X110705497Y-79200264D01*
X111058575Y-80054777D01*
X111711784Y-80709127D01*
X112565680Y-81063696D01*
X113490264Y-81064503D01*
X114344777Y-80711425D01*
X114999127Y-80058216D01*
X115353696Y-79204320D01*
X115354503Y-78279736D01*
X115354503Y-96606300D01*
X107000100Y-96606300D01*
X106786257Y-96648835D01*
X106604969Y-96769968D01*
X102012328Y-101362609D01*
X102012328Y-97790000D01*
X101869252Y-97070708D01*
X101461806Y-96460922D01*
X100852020Y-96053476D01*
X100132728Y-95910400D01*
X97987272Y-95910400D01*
X97267980Y-96053476D01*
X96658194Y-96460922D01*
X96250748Y-97070708D01*
X96107672Y-97790000D01*
X96250748Y-98509292D01*
X96658194Y-99119078D01*
X97267980Y-99526524D01*
X97987272Y-99669600D01*
X100132728Y-99669600D01*
X100852020Y-99526524D01*
X101461806Y-99119078D01*
X101869252Y-98509292D01*
X102012328Y-97790000D01*
X102012328Y-101362609D01*
X101699469Y-101675469D01*
X101578336Y-101856756D01*
X101535800Y-102070600D01*
X101535800Y-106731661D01*
X101461806Y-106620922D01*
X100852020Y-106213476D01*
X100132728Y-106070400D01*
X97987272Y-106070400D01*
X97267980Y-106213476D01*
X96658194Y-106620922D01*
X96250748Y-107230708D01*
X96107672Y-107950000D01*
X96250748Y-108669292D01*
X96658194Y-109279078D01*
X97267980Y-109686524D01*
X97987272Y-109829600D01*
X100132728Y-109829600D01*
X100852020Y-109686524D01*
X101461806Y-109279078D01*
X101535800Y-109168338D01*
X101535800Y-119466438D01*
X101204869Y-119797369D01*
X101083736Y-119978656D01*
X101041200Y-120192500D01*
X101041200Y-120287433D01*
X100672900Y-120287433D01*
X100537311Y-120313741D01*
X100418141Y-120392023D01*
X100338369Y-120510201D01*
X100310333Y-120650000D01*
X100310333Y-123190000D01*
X100336641Y-123325589D01*
X100414923Y-123444759D01*
X100533101Y-123524531D01*
X100672900Y-123552567D01*
X102527100Y-123552567D01*
X102662689Y-123526259D01*
X102781859Y-123447977D01*
X102861631Y-123329799D01*
X102889667Y-123190000D01*
X102889667Y-122457466D01*
X102954940Y-122785615D01*
X103232994Y-123201753D01*
X103530400Y-123400472D01*
X103530400Y-124080196D01*
X103454948Y-124155648D01*
X103322803Y-124353416D01*
X103276400Y-124586700D01*
X103276400Y-124732433D01*
X103251000Y-124732433D01*
X103115411Y-124758741D01*
X102996241Y-124837023D01*
X102916469Y-124955201D01*
X102888433Y-125095000D01*
X102888433Y-127635000D01*
X102914741Y-127770589D01*
X102993023Y-127889759D01*
X103111201Y-127969531D01*
X103251000Y-127997567D01*
X104521000Y-127997567D01*
X104656589Y-127971259D01*
X104775759Y-127892977D01*
X104855531Y-127774799D01*
X104883567Y-127635000D01*
X104883567Y-125095000D01*
X104857259Y-124959411D01*
X104778977Y-124840241D01*
X104660799Y-124760469D01*
X104583591Y-124744985D01*
X104703197Y-124565984D01*
X104749599Y-124332700D01*
X104749600Y-124332700D01*
X104749600Y-123400472D01*
X105047006Y-123201753D01*
X105325060Y-122785615D01*
X105410000Y-122358594D01*
X105494940Y-122785615D01*
X105772994Y-123201753D01*
X105918000Y-123298642D01*
X105918000Y-123850700D01*
X105976004Y-124142305D01*
X106141185Y-124389515D01*
X106172000Y-124420330D01*
X106172000Y-124757074D01*
X106163411Y-124758741D01*
X106044241Y-124837023D01*
X105964469Y-124955201D01*
X105936433Y-125095000D01*
X105936433Y-127635000D01*
X105962741Y-127770589D01*
X106041023Y-127889759D01*
X106159201Y-127969531D01*
X106299000Y-127997567D01*
X107569000Y-127997567D01*
X107704589Y-127971259D01*
X107823759Y-127892977D01*
X107903531Y-127774799D01*
X107931567Y-127635000D01*
X107931567Y-125095000D01*
X107905259Y-124959411D01*
X107826977Y-124840241D01*
X107708799Y-124760469D01*
X107696000Y-124757902D01*
X107696000Y-124104700D01*
X107637996Y-123813095D01*
X107472815Y-123565885D01*
X107472815Y-123565884D01*
X107442000Y-123535069D01*
X107442000Y-123298642D01*
X107587006Y-123201753D01*
X107865060Y-122785615D01*
X107962700Y-122294747D01*
X107962700Y-121545253D01*
X107865060Y-121054385D01*
X107587006Y-120638247D01*
X107170868Y-120360193D01*
X106680000Y-120262553D01*
X106654473Y-120267630D01*
X111702800Y-115219304D01*
X122136248Y-125652752D01*
X122334016Y-125784897D01*
X122567300Y-125831300D01*
X124831886Y-125831300D01*
X124697472Y-126032466D01*
X124612400Y-126460153D01*
X124612400Y-127539847D01*
X124697472Y-127967534D01*
X124939737Y-128330110D01*
X125302313Y-128572375D01*
X125730000Y-128657447D01*
X126157687Y-128572375D01*
X126520263Y-128330110D01*
X126762528Y-127967534D01*
X126847600Y-127539847D01*
X126847600Y-126460153D01*
X126762528Y-126032466D01*
X126628113Y-125831300D01*
X127371886Y-125831300D01*
X127237472Y-126032466D01*
X127152400Y-126460153D01*
X127152400Y-127539847D01*
X127237472Y-127967534D01*
X127479737Y-128330110D01*
X127842313Y-128572375D01*
X128270000Y-128657447D01*
X128697687Y-128572375D01*
X129060263Y-128330110D01*
X129302528Y-127967534D01*
X129387600Y-127539847D01*
X129387600Y-126460153D01*
X129302528Y-126032466D01*
X129168113Y-125831300D01*
X129911886Y-125831300D01*
X129777472Y-126032466D01*
X129692400Y-126460153D01*
X129692400Y-127539847D01*
X129777472Y-127967534D01*
X130019737Y-128330110D01*
X130382313Y-128572375D01*
X130810000Y-128657447D01*
X131237687Y-128572375D01*
X131600263Y-128330110D01*
X131842528Y-127967534D01*
X131927600Y-127539847D01*
X131927600Y-126460153D01*
X131842528Y-126032466D01*
X131708113Y-125831300D01*
X132451886Y-125831300D01*
X132317472Y-126032466D01*
X132232400Y-126460153D01*
X132232400Y-127539847D01*
X132317472Y-127967534D01*
X132559737Y-128330110D01*
X132922313Y-128572375D01*
X133350000Y-128657447D01*
X133777687Y-128572375D01*
X134140263Y-128330110D01*
X134382528Y-127967534D01*
X134467600Y-127539847D01*
X134467600Y-126460153D01*
X134382528Y-126032466D01*
X134248113Y-125831300D01*
X134991886Y-125831300D01*
X134857472Y-126032466D01*
X134772400Y-126460153D01*
X134772400Y-127539847D01*
X134857472Y-127967534D01*
X135099737Y-128330110D01*
X135462313Y-128572375D01*
X135890000Y-128657447D01*
X136317687Y-128572375D01*
X136680263Y-128330110D01*
X136922528Y-127967534D01*
X137007600Y-127539847D01*
X137007600Y-126460153D01*
X136922528Y-126032466D01*
X136788113Y-125831300D01*
X137531886Y-125831300D01*
X137397472Y-126032466D01*
X137312400Y-126460153D01*
X137312400Y-127539847D01*
X137397472Y-127967534D01*
X137639737Y-128330110D01*
X138002313Y-128572375D01*
X138430000Y-128657447D01*
X138857687Y-128572375D01*
X139220263Y-128330110D01*
X139462528Y-127967534D01*
X139547600Y-127539847D01*
X139547600Y-126460153D01*
X139462528Y-126032466D01*
X139220263Y-125669890D01*
X139039600Y-125549175D01*
X139039600Y-125221700D01*
X138993197Y-124988416D01*
X138861052Y-124790648D01*
X138663284Y-124658503D01*
X138430000Y-124612100D01*
X122819804Y-124612100D01*
X112312400Y-114104696D01*
X112312400Y-110941100D01*
X112265997Y-110707817D01*
X112265997Y-110707816D01*
X112213067Y-110628601D01*
X112133853Y-110510048D01*
X108559600Y-106935795D01*
X108559600Y-106855848D01*
X108740263Y-106735134D01*
X108982528Y-106372558D01*
X109067600Y-105944871D01*
X109067600Y-105383129D01*
X108982528Y-104955442D01*
X108740263Y-104592866D01*
X108377687Y-104350601D01*
X107957395Y-104267000D01*
X108377687Y-104183399D01*
X108740263Y-103941134D01*
X108982528Y-103578558D01*
X109067600Y-103150871D01*
X109067600Y-102589129D01*
X108982528Y-102161442D01*
X108740263Y-101798866D01*
X108377687Y-101556601D01*
X107957395Y-101473000D01*
X108377687Y-101389399D01*
X108740263Y-101147134D01*
X108982528Y-100784558D01*
X109067600Y-100356871D01*
X109067600Y-99795129D01*
X108982528Y-99367442D01*
X108825745Y-99132800D01*
X137963037Y-99132800D01*
X156466337Y-117636100D01*
X155761961Y-117636100D01*
X142885631Y-104759769D01*
X142704344Y-104638636D01*
X142490500Y-104596100D01*
X122943100Y-104596100D01*
X122729256Y-104638636D01*
X122547969Y-104759769D01*
X120291969Y-107015769D01*
X120170836Y-107197056D01*
X120128300Y-107410900D01*
X120128300Y-108865499D01*
X120009204Y-108984388D01*
X119887139Y-109278352D01*
X119886861Y-109596652D01*
X120008413Y-109890828D01*
X120233288Y-110116096D01*
X120527252Y-110238161D01*
X120845552Y-110238439D01*
X121072400Y-110144706D01*
X121072400Y-117088200D01*
X121114936Y-117302044D01*
X121236069Y-117483331D01*
X122373107Y-118620369D01*
X122372961Y-118788652D01*
X122494513Y-119082828D01*
X122719388Y-119308096D01*
X123013352Y-119430161D01*
X123331652Y-119430439D01*
X123625828Y-119308887D01*
X123851096Y-119084012D01*
X123973161Y-118790048D01*
X123973439Y-118471748D01*
X123851887Y-118177572D01*
X123627012Y-117952304D01*
X123333048Y-117830239D01*
X123163352Y-117830090D01*
X122190000Y-116856738D01*
X122190000Y-111096862D01*
X122220707Y-111127569D01*
X122220561Y-111295852D01*
X122342113Y-111590028D01*
X122566988Y-111815296D01*
X122860952Y-111937361D01*
X123179252Y-111937639D01*
X123473428Y-111816087D01*
X123698696Y-111591212D01*
X123820761Y-111297248D01*
X123821039Y-110978948D01*
X123699487Y-110684772D01*
X123474612Y-110459504D01*
X123180648Y-110337439D01*
X123010952Y-110337290D01*
X122869800Y-110196138D01*
X122869800Y-110116837D01*
X122910088Y-110157196D01*
X123204052Y-110279261D01*
X123522352Y-110279539D01*
X123816528Y-110157987D01*
X124041796Y-109933112D01*
X124163861Y-109639148D01*
X124164009Y-109469452D01*
X124354719Y-109278742D01*
X124429213Y-109459028D01*
X124654088Y-109684296D01*
X124948052Y-109806361D01*
X125266352Y-109806639D01*
X125560528Y-109685087D01*
X125602242Y-109643445D01*
X125672313Y-109813028D01*
X125897188Y-110038296D01*
X126191152Y-110160361D01*
X126509452Y-110160639D01*
X126803628Y-110039087D01*
X127028896Y-109814212D01*
X127041980Y-109782700D01*
X128232015Y-109782700D01*
X128155839Y-109966152D01*
X128155561Y-110284452D01*
X128277113Y-110578628D01*
X128397000Y-110698724D01*
X128397000Y-113283900D01*
X128439536Y-113497744D01*
X128560669Y-113679031D01*
X130696369Y-115814731D01*
X130877656Y-115935864D01*
X130877657Y-115935864D01*
X131091500Y-115978400D01*
X137614629Y-115978400D01*
X137420904Y-116171788D01*
X137298839Y-116465752D01*
X137298561Y-116784052D01*
X137420113Y-117078228D01*
X137644988Y-117303496D01*
X137938952Y-117425561D01*
X138257252Y-117425839D01*
X138466298Y-117339462D01*
X138441139Y-117400052D01*
X138440861Y-117718352D01*
X138562413Y-118012528D01*
X138787288Y-118237796D01*
X139081252Y-118359861D01*
X139159667Y-118359929D01*
X147472400Y-126672662D01*
X147472400Y-127331137D01*
X146604700Y-126463437D01*
X146604700Y-126292800D01*
X146562164Y-126078957D01*
X146562164Y-126078956D01*
X146441031Y-125897669D01*
X141324031Y-120780669D01*
X141142744Y-120659536D01*
X140928900Y-120617000D01*
X134680462Y-120617000D01*
X129062392Y-114998930D01*
X129062539Y-114830648D01*
X128940987Y-114536472D01*
X128716112Y-114311204D01*
X128422148Y-114189139D01*
X128103848Y-114188861D01*
X127809672Y-114310413D01*
X127584404Y-114535288D01*
X127462339Y-114829252D01*
X127462061Y-115147552D01*
X127583613Y-115441728D01*
X127808488Y-115666996D01*
X128102452Y-115789061D01*
X128272147Y-115789209D01*
X134053869Y-121570931D01*
X134235156Y-121692064D01*
X134235157Y-121692064D01*
X134449000Y-121734600D01*
X140697438Y-121734600D01*
X140946638Y-121983800D01*
X123959100Y-121983800D01*
X123840212Y-121864704D01*
X123546248Y-121742639D01*
X123227948Y-121742361D01*
X122933772Y-121863913D01*
X122708504Y-122088788D01*
X122586439Y-122382752D01*
X122586161Y-122701052D01*
X122707713Y-122995228D01*
X122932588Y-123220496D01*
X123226552Y-123342561D01*
X123544852Y-123342839D01*
X123839028Y-123221287D01*
X123959124Y-123101400D01*
X141129737Y-123101400D01*
X143256977Y-125228639D01*
X143146239Y-125169516D01*
X142647896Y-125414369D01*
X142301128Y-125826312D01*
X142138400Y-126339600D01*
X142138400Y-126847600D01*
X143357600Y-126847600D01*
X143357600Y-126827600D01*
X143662400Y-126827600D01*
X143662400Y-126847600D01*
X143682400Y-126847600D01*
X143682400Y-127152400D01*
X143662400Y-127152400D01*
X143662400Y-128717637D01*
X143873761Y-128830484D01*
X144372104Y-128585631D01*
X144718872Y-128173688D01*
X144881600Y-127660400D01*
X144881600Y-127255362D01*
X147382138Y-129755900D01*
X143357600Y-129755900D01*
X143357600Y-128717637D01*
X143357600Y-127152400D01*
X142138400Y-127152400D01*
X142138400Y-127660400D01*
X142301128Y-128173688D01*
X142647896Y-128585631D01*
X143146239Y-128830484D01*
X143357600Y-128717637D01*
X143357600Y-129755900D01*
X142087600Y-129755900D01*
X142087600Y-127539847D01*
X142087600Y-126460153D01*
X142002528Y-126032466D01*
X141760263Y-125669890D01*
X141397687Y-125427625D01*
X140970000Y-125342553D01*
X140542313Y-125427625D01*
X140179737Y-125669890D01*
X139937472Y-126032466D01*
X139852400Y-126460153D01*
X139852400Y-127539847D01*
X139937472Y-127967534D01*
X140179737Y-128330110D01*
X140542313Y-128572375D01*
X140970000Y-128657447D01*
X141397687Y-128572375D01*
X141760263Y-128330110D01*
X142002528Y-127967534D01*
X142087600Y-127539847D01*
X142087600Y-129755900D01*
X114084503Y-129755900D01*
X114084503Y-126539736D01*
X113731425Y-125685223D01*
X113078216Y-125030873D01*
X112224320Y-124676304D01*
X111299736Y-124675497D01*
X110445223Y-125028575D01*
X109790873Y-125681784D01*
X109436304Y-126535680D01*
X109435497Y-127460264D01*
X109788575Y-128314777D01*
X110441784Y-128969127D01*
X111295680Y-129323696D01*
X112220264Y-129324503D01*
X113074777Y-128971425D01*
X113729127Y-128318216D01*
X114083696Y-127464320D01*
X114084503Y-126539736D01*
X114084503Y-129755900D01*
X93764100Y-129755900D01*
X93764100Y-75984100D01*
X173700037Y-75984100D01*
X172324869Y-77359269D01*
X172265653Y-77447890D01*
X172240263Y-77409890D01*
X171877687Y-77167625D01*
X171450000Y-77082553D01*
X171022313Y-77167625D01*
X170659737Y-77409890D01*
X170417472Y-77772466D01*
X170332400Y-78200153D01*
X170332400Y-79279847D01*
X170417472Y-79707534D01*
X170659737Y-80070110D01*
X171022313Y-80312375D01*
X171450000Y-80397447D01*
X171877687Y-80312375D01*
X172161200Y-80122938D01*
X172161200Y-80663433D01*
X171450000Y-80663433D01*
X171314411Y-80689741D01*
X171195241Y-80768023D01*
X171115469Y-80886201D01*
X171087433Y-81026000D01*
X171087433Y-82296000D01*
X171113741Y-82431589D01*
X171192023Y-82550759D01*
X171310201Y-82630531D01*
X171450000Y-82658567D01*
X172161200Y-82658567D01*
X172161200Y-82753500D01*
X172203736Y-82967344D01*
X172324869Y-83148631D01*
X172680468Y-83504231D01*
X172680469Y-83504231D01*
X172771112Y-83564797D01*
X172861756Y-83625364D01*
X172861757Y-83625364D01*
X173075600Y-83667900D01*
X176269996Y-83667900D01*
X176259869Y-83718400D01*
X176259869Y-84286022D01*
X176240400Y-84383900D01*
X176240400Y-91975100D01*
X176286803Y-92208384D01*
X176418948Y-92406152D01*
X176719383Y-92706588D01*
G36*
X211035900Y-129755900D02*
X210121000Y-129755900D01*
X210121000Y-99320000D01*
X210121000Y-95084100D01*
X210074597Y-94850816D01*
X209942452Y-94653048D01*
X209942452Y-94653047D01*
X207568352Y-92278948D01*
X207370584Y-92146803D01*
X207137300Y-92100400D01*
X206991567Y-92100400D01*
X206991567Y-91440000D01*
X206965259Y-91304411D01*
X206886977Y-91185241D01*
X206768799Y-91105469D01*
X206629000Y-91077433D01*
X205460300Y-91077433D01*
X205460300Y-82168400D01*
X205413897Y-81935117D01*
X205413897Y-81935116D01*
X205360967Y-81855901D01*
X205281753Y-81737348D01*
X203123352Y-79578948D01*
X202925584Y-79446803D01*
X202692300Y-79400400D01*
X202546567Y-79400400D01*
X202546567Y-78740000D01*
X202520259Y-78604411D01*
X202441977Y-78485241D01*
X202323799Y-78405469D01*
X202184000Y-78377433D01*
X200914000Y-78377433D01*
X200778411Y-78403741D01*
X200659241Y-78482023D01*
X200579469Y-78600201D01*
X200551433Y-78740000D01*
X200551433Y-81280000D01*
X200577741Y-81415589D01*
X200656023Y-81534759D01*
X200774201Y-81614531D01*
X200914000Y-81642567D01*
X202184000Y-81642567D01*
X202319589Y-81616259D01*
X202438759Y-81537977D01*
X202518531Y-81419799D01*
X202546567Y-81280000D01*
X202546567Y-80726371D01*
X204241100Y-82420904D01*
X204241100Y-92710000D01*
X204287503Y-92943284D01*
X204419648Y-93141052D01*
X204617416Y-93273197D01*
X204850700Y-93319600D01*
X204996433Y-93319600D01*
X204996433Y-93980000D01*
X205022741Y-94115589D01*
X205101023Y-94234759D01*
X205219201Y-94314531D01*
X205359000Y-94342567D01*
X206629000Y-94342567D01*
X206764589Y-94316259D01*
X206883759Y-94237977D01*
X206963531Y-94119799D01*
X206991567Y-93980000D01*
X206991567Y-93426371D01*
X208901800Y-95336604D01*
X208901800Y-97049882D01*
X208778611Y-96865517D01*
X208086421Y-96403011D01*
X207269928Y-96240600D01*
X205632472Y-96240600D01*
X204815979Y-96403011D01*
X204190600Y-96820875D01*
X204190600Y-94101257D01*
X204190600Y-93858743D01*
X204190600Y-93014800D01*
X204190600Y-92405200D01*
X204190600Y-91561257D01*
X204190600Y-91318743D01*
X204097794Y-91094689D01*
X203926311Y-90923206D01*
X203702257Y-90830400D01*
X203250800Y-90830400D01*
X203098400Y-90982800D01*
X203098400Y-92557600D01*
X204038200Y-92557600D01*
X204190600Y-92405200D01*
X204190600Y-93014800D01*
X204038200Y-92862400D01*
X203098400Y-92862400D01*
X203098400Y-94437200D01*
X203250800Y-94589600D01*
X203702257Y-94589600D01*
X203926311Y-94496794D01*
X204097794Y-94325311D01*
X204190600Y-94101257D01*
X204190600Y-96820875D01*
X204123789Y-96865517D01*
X203661283Y-97557707D01*
X203498872Y-98374200D01*
X203661283Y-99190693D01*
X204123789Y-99882883D01*
X204815979Y-100345389D01*
X205632472Y-100507800D01*
X207269928Y-100507800D01*
X207509063Y-100460232D01*
X206773425Y-101195870D01*
X206328845Y-100898811D01*
X205512352Y-100736400D01*
X204392848Y-100736400D01*
X203576355Y-100898811D01*
X202884165Y-101361317D01*
X202793600Y-101496857D01*
X202793600Y-94437200D01*
X202793600Y-92862400D01*
X202793600Y-92557600D01*
X202793600Y-90982800D01*
X202641200Y-90830400D01*
X202189743Y-90830400D01*
X201965689Y-90923206D01*
X201794206Y-91094689D01*
X201701400Y-91318743D01*
X201701400Y-91561257D01*
X201701400Y-92405200D01*
X201853800Y-92557600D01*
X202793600Y-92557600D01*
X202793600Y-92862400D01*
X201853800Y-92862400D01*
X201701400Y-93014800D01*
X201701400Y-93858743D01*
X201701400Y-94101257D01*
X201794206Y-94325311D01*
X201965689Y-94496794D01*
X202189743Y-94589600D01*
X202641200Y-94589600D01*
X202793600Y-94437200D01*
X202793600Y-101496857D01*
X202421659Y-102053507D01*
X202259248Y-102870000D01*
X202421659Y-103686493D01*
X202884165Y-104378683D01*
X203007442Y-104461053D01*
X202964848Y-104503648D01*
X202832703Y-104701416D01*
X202786300Y-104934700D01*
X202786300Y-112463600D01*
X202832703Y-112696884D01*
X202964848Y-112894652D01*
X204388628Y-114318433D01*
X203835000Y-114318433D01*
X203699411Y-114344741D01*
X203580241Y-114423023D01*
X203500469Y-114541201D01*
X203472433Y-114681000D01*
X203472433Y-115951000D01*
X203498741Y-116086589D01*
X203577023Y-116205759D01*
X203695201Y-116285531D01*
X203835000Y-116313567D01*
X206375000Y-116313567D01*
X206510589Y-116287259D01*
X206629759Y-116208977D01*
X206709531Y-116090799D01*
X206737567Y-115951000D01*
X206737567Y-115925600D01*
X207264000Y-115925600D01*
X207497284Y-115879197D01*
X207695052Y-115747052D01*
X208341949Y-115100154D01*
X208438452Y-115100239D01*
X208732628Y-114978687D01*
X208957896Y-114753812D01*
X209079961Y-114459848D01*
X209080239Y-114141548D01*
X208958687Y-113847372D01*
X208733812Y-113622104D01*
X208439848Y-113500039D01*
X208121548Y-113499761D01*
X207827372Y-113621313D01*
X207602104Y-113846188D01*
X207480039Y-114140152D01*
X207479953Y-114237942D01*
X207011496Y-114706400D01*
X206737567Y-114706400D01*
X206737567Y-114681000D01*
X206711259Y-114545411D01*
X206632977Y-114426241D01*
X206514799Y-114346469D01*
X206375000Y-114318433D01*
X205714600Y-114318433D01*
X205714600Y-114172700D01*
X205668197Y-113939416D01*
X205536052Y-113741648D01*
X205536052Y-113741647D01*
X204005500Y-112211095D01*
X204005500Y-108697450D01*
X204123789Y-108874483D01*
X204815979Y-109336989D01*
X205632472Y-109499400D01*
X207269928Y-109499400D01*
X208086421Y-109336989D01*
X208778611Y-108874483D01*
X209241117Y-108182293D01*
X209403528Y-107365800D01*
X209241117Y-106549307D01*
X208778611Y-105857117D01*
X208086421Y-105394611D01*
X207269928Y-105232200D01*
X205632472Y-105232200D01*
X204815979Y-105394611D01*
X204123789Y-105857117D01*
X204005500Y-106034149D01*
X204005500Y-105187204D01*
X204222907Y-104969796D01*
X204392848Y-105003600D01*
X205512352Y-105003600D01*
X206328845Y-104841189D01*
X207021035Y-104378683D01*
X207452691Y-103732662D01*
X207708650Y-103989067D01*
X208193924Y-104190570D01*
X208719371Y-104191029D01*
X209204996Y-103990373D01*
X209576867Y-103619150D01*
X209778370Y-103133876D01*
X209778829Y-102608429D01*
X209578173Y-102122804D01*
X209206950Y-101750933D01*
X208721676Y-101549430D01*
X208196229Y-101548971D01*
X208108132Y-101585371D01*
X209942452Y-99751052D01*
X210074597Y-99553284D01*
X210120999Y-99320000D01*
X210121000Y-99320000D01*
X210121000Y-129755900D01*
X206984600Y-129755900D01*
X206984600Y-119120257D01*
X206984600Y-118668800D01*
X206984600Y-118059200D01*
X206984600Y-117607743D01*
X206891794Y-117383689D01*
X206720311Y-117212206D01*
X206496257Y-117119400D01*
X206253743Y-117119400D01*
X205409800Y-117119400D01*
X205257400Y-117271800D01*
X205257400Y-118211600D01*
X206832200Y-118211600D01*
X206984600Y-118059200D01*
X206984600Y-118668800D01*
X206832200Y-118516400D01*
X205257400Y-118516400D01*
X205257400Y-119456200D01*
X205409800Y-119608600D01*
X206253743Y-119608600D01*
X206496257Y-119608600D01*
X206720311Y-119515794D01*
X206891794Y-119344311D01*
X206984600Y-119120257D01*
X206984600Y-129755900D01*
X204952600Y-129755900D01*
X204952600Y-119456200D01*
X204952600Y-118516400D01*
X204952600Y-118211600D01*
X204952600Y-117271800D01*
X204800200Y-117119400D01*
X203956257Y-117119400D01*
X203713743Y-117119400D01*
X203489689Y-117212206D01*
X203318206Y-117383689D01*
X203225400Y-117607743D01*
X203225400Y-118059200D01*
X203377800Y-118211600D01*
X204952600Y-118211600D01*
X204952600Y-118516400D01*
X203377800Y-118516400D01*
X203225400Y-118668800D01*
X203225400Y-119120257D01*
X203318206Y-119344311D01*
X203489689Y-119515794D01*
X203713743Y-119608600D01*
X203956257Y-119608600D01*
X204800200Y-119608600D01*
X204952600Y-119456200D01*
X204952600Y-129755900D01*
X202107800Y-129755900D01*
X202107800Y-103530400D01*
X202107800Y-103022400D01*
X202107800Y-102717600D01*
X202107800Y-102209600D01*
X201848399Y-101210304D01*
X201226330Y-100386344D01*
X200336297Y-99863159D01*
X200029273Y-99781109D01*
X199618600Y-99877470D01*
X199618600Y-102717600D01*
X202107800Y-102717600D01*
X202107800Y-103022400D01*
X199618600Y-103022400D01*
X199618600Y-105862530D01*
X200029273Y-105958891D01*
X200336297Y-105876841D01*
X201226330Y-105353656D01*
X201848399Y-104529696D01*
X202107800Y-103530400D01*
X202107800Y-129755900D01*
X199313800Y-129755900D01*
X199313800Y-105862530D01*
X199313800Y-103022400D01*
X199313800Y-102717600D01*
X199313800Y-99877470D01*
X198903127Y-99781109D01*
X198596103Y-99863159D01*
X197706070Y-100386344D01*
X197084001Y-101210304D01*
X196824600Y-102209600D01*
X196824600Y-102717600D01*
X199313800Y-102717600D01*
X199313800Y-103022400D01*
X196824600Y-103022400D01*
X196824600Y-103530400D01*
X197084001Y-104529696D01*
X197706070Y-105353656D01*
X198596103Y-105876841D01*
X198903127Y-105958891D01*
X199313800Y-105862530D01*
X199313800Y-129755900D01*
X196634503Y-129755900D01*
X196634503Y-126539736D01*
X196475447Y-126154791D01*
X196475447Y-121920000D01*
X196475447Y-119380000D01*
X196475447Y-116840000D01*
X196475447Y-114300000D01*
X196475447Y-111760000D01*
X196475447Y-109220000D01*
X196475447Y-106680000D01*
X196475447Y-104140000D01*
X196475447Y-101600000D01*
X196475447Y-99060000D01*
X196475447Y-96520000D01*
X196475447Y-93980000D01*
X196475447Y-91440000D01*
X196475447Y-88900000D01*
X196475447Y-86360000D01*
X196475447Y-83820000D01*
X196390375Y-83392313D01*
X196148110Y-83029737D01*
X195785534Y-82787472D01*
X195357847Y-82702400D01*
X194278153Y-82702400D01*
X193850466Y-82787472D01*
X193487890Y-83029737D01*
X193245625Y-83392313D01*
X193160553Y-83820000D01*
X193245625Y-84247687D01*
X193487890Y-84610263D01*
X193850466Y-84852528D01*
X194278153Y-84937600D01*
X195357847Y-84937600D01*
X195785534Y-84852528D01*
X196148110Y-84610263D01*
X196390375Y-84247687D01*
X196475447Y-83820000D01*
X196475447Y-86360000D01*
X196390375Y-85932313D01*
X196148110Y-85569737D01*
X195785534Y-85327472D01*
X195357847Y-85242400D01*
X194278153Y-85242400D01*
X193850466Y-85327472D01*
X193487890Y-85569737D01*
X193245625Y-85932313D01*
X193160553Y-86360000D01*
X193245625Y-86787687D01*
X193487890Y-87150263D01*
X193850466Y-87392528D01*
X194278153Y-87477600D01*
X195357847Y-87477600D01*
X195785534Y-87392528D01*
X196148110Y-87150263D01*
X196390375Y-86787687D01*
X196475447Y-86360000D01*
X196475447Y-88900000D01*
X196390375Y-88472313D01*
X196148110Y-88109737D01*
X195785534Y-87867472D01*
X195357847Y-87782400D01*
X194278153Y-87782400D01*
X193850466Y-87867472D01*
X193487890Y-88109737D01*
X193245625Y-88472313D01*
X193160553Y-88900000D01*
X193245625Y-89327687D01*
X193487890Y-89690263D01*
X193850466Y-89932528D01*
X194278153Y-90017600D01*
X195357847Y-90017600D01*
X195785534Y-89932528D01*
X196148110Y-89690263D01*
X196390375Y-89327687D01*
X196475447Y-88900000D01*
X196475447Y-91440000D01*
X196390375Y-91012313D01*
X196148110Y-90649737D01*
X195785534Y-90407472D01*
X195357847Y-90322400D01*
X194278153Y-90322400D01*
X193850466Y-90407472D01*
X193487890Y-90649737D01*
X193245625Y-91012313D01*
X193160553Y-91440000D01*
X193245625Y-91867687D01*
X193487890Y-92230263D01*
X193850466Y-92472528D01*
X194278153Y-92557600D01*
X195357847Y-92557600D01*
X195785534Y-92472528D01*
X196148110Y-92230263D01*
X196390375Y-91867687D01*
X196475447Y-91440000D01*
X196475447Y-93980000D01*
X196390375Y-93552313D01*
X196148110Y-93189737D01*
X195785534Y-92947472D01*
X195357847Y-92862400D01*
X194278153Y-92862400D01*
X193850466Y-92947472D01*
X193487890Y-93189737D01*
X193245625Y-93552313D01*
X193160553Y-93980000D01*
X193245625Y-94407687D01*
X193487890Y-94770263D01*
X193850466Y-95012528D01*
X194278153Y-95097600D01*
X195357847Y-95097600D01*
X195785534Y-95012528D01*
X196148110Y-94770263D01*
X196390375Y-94407687D01*
X196475447Y-93980000D01*
X196475447Y-96520000D01*
X196390375Y-96092313D01*
X196148110Y-95729737D01*
X195785534Y-95487472D01*
X195357847Y-95402400D01*
X194278153Y-95402400D01*
X193850466Y-95487472D01*
X193487890Y-95729737D01*
X193245625Y-96092313D01*
X193160553Y-96520000D01*
X193245625Y-96947687D01*
X193487890Y-97310263D01*
X193850466Y-97552528D01*
X194278153Y-97637600D01*
X195357847Y-97637600D01*
X195785534Y-97552528D01*
X196148110Y-97310263D01*
X196390375Y-96947687D01*
X196475447Y-96520000D01*
X196475447Y-99060000D01*
X196390375Y-98632313D01*
X196148110Y-98269737D01*
X195785534Y-98027472D01*
X195357847Y-97942400D01*
X194278153Y-97942400D01*
X193850466Y-98027472D01*
X193487890Y-98269737D01*
X193245625Y-98632313D01*
X193160553Y-99060000D01*
X193245625Y-99487687D01*
X193487890Y-99850263D01*
X193850466Y-100092528D01*
X194278153Y-100177600D01*
X195357847Y-100177600D01*
X195785534Y-100092528D01*
X196148110Y-99850263D01*
X196390375Y-99487687D01*
X196475447Y-99060000D01*
X196475447Y-101600000D01*
X196390375Y-101172313D01*
X196148110Y-100809737D01*
X195785534Y-100567472D01*
X195357847Y-100482400D01*
X194278153Y-100482400D01*
X193850466Y-100567472D01*
X193487890Y-100809737D01*
X193333231Y-101041200D01*
X193090500Y-101041200D01*
X192919447Y-101075224D01*
X192919447Y-99060000D01*
X192919447Y-96520000D01*
X192919447Y-93980000D01*
X192919447Y-91440000D01*
X192919447Y-88900000D01*
X192919447Y-86360000D01*
X192919447Y-83820000D01*
X192834375Y-83392313D01*
X192592110Y-83029737D01*
X192229534Y-82787472D01*
X191801847Y-82702400D01*
X190722153Y-82702400D01*
X190294466Y-82787472D01*
X189931890Y-83029737D01*
X189689625Y-83392313D01*
X189604553Y-83820000D01*
X189689625Y-84247687D01*
X189931890Y-84610263D01*
X190294466Y-84852528D01*
X190722153Y-84937600D01*
X191801847Y-84937600D01*
X192229534Y-84852528D01*
X192592110Y-84610263D01*
X192834375Y-84247687D01*
X192919447Y-83820000D01*
X192919447Y-86360000D01*
X192834375Y-85932313D01*
X192592110Y-85569737D01*
X192229534Y-85327472D01*
X191801847Y-85242400D01*
X190722153Y-85242400D01*
X190294466Y-85327472D01*
X189931890Y-85569737D01*
X189689625Y-85932313D01*
X189604553Y-86360000D01*
X189689625Y-86787687D01*
X189931890Y-87150263D01*
X190294466Y-87392528D01*
X190722153Y-87477600D01*
X191801847Y-87477600D01*
X192229534Y-87392528D01*
X192592110Y-87150263D01*
X192834375Y-86787687D01*
X192919447Y-86360000D01*
X192919447Y-88900000D01*
X192834375Y-88472313D01*
X192592110Y-88109737D01*
X192229534Y-87867472D01*
X191801847Y-87782400D01*
X190722153Y-87782400D01*
X190294466Y-87867472D01*
X189931890Y-88109737D01*
X189689625Y-88472313D01*
X189604553Y-88900000D01*
X189689625Y-89327687D01*
X189931890Y-89690263D01*
X190294466Y-89932528D01*
X190722153Y-90017600D01*
X191801847Y-90017600D01*
X192229534Y-89932528D01*
X192592110Y-89690263D01*
X192834375Y-89327687D01*
X192919447Y-88900000D01*
X192919447Y-91440000D01*
X192834375Y-91012313D01*
X192592110Y-90649737D01*
X192229534Y-90407472D01*
X191801847Y-90322400D01*
X190722153Y-90322400D01*
X190294466Y-90407472D01*
X189931890Y-90649737D01*
X189689625Y-91012313D01*
X189604553Y-91440000D01*
X189689625Y-91867687D01*
X189931890Y-92230263D01*
X190294466Y-92472528D01*
X190722153Y-92557600D01*
X191801847Y-92557600D01*
X192229534Y-92472528D01*
X192592110Y-92230263D01*
X192834375Y-91867687D01*
X192919447Y-91440000D01*
X192919447Y-93980000D01*
X192834375Y-93552313D01*
X192592110Y-93189737D01*
X192229534Y-92947472D01*
X191801847Y-92862400D01*
X190722153Y-92862400D01*
X190294466Y-92947472D01*
X189931890Y-93189737D01*
X189689625Y-93552313D01*
X189604553Y-93980000D01*
X189689625Y-94407687D01*
X189931890Y-94770263D01*
X190294466Y-95012528D01*
X190722153Y-95097600D01*
X191801847Y-95097600D01*
X192229534Y-95012528D01*
X192592110Y-94770263D01*
X192834375Y-94407687D01*
X192919447Y-93980000D01*
X192919447Y-96520000D01*
X192834375Y-96092313D01*
X192592110Y-95729737D01*
X192229534Y-95487472D01*
X191801847Y-95402400D01*
X190722153Y-95402400D01*
X190294466Y-95487472D01*
X189931890Y-95729737D01*
X189689625Y-96092313D01*
X189604553Y-96520000D01*
X189689625Y-96947687D01*
X189931890Y-97310263D01*
X190294466Y-97552528D01*
X190722153Y-97637600D01*
X191801847Y-97637600D01*
X192229534Y-97552528D01*
X192592110Y-97310263D01*
X192834375Y-96947687D01*
X192919447Y-96520000D01*
X192919447Y-99060000D01*
X192834375Y-98632313D01*
X192592110Y-98269737D01*
X192229534Y-98027472D01*
X191801847Y-97942400D01*
X190722153Y-97942400D01*
X190294466Y-98027472D01*
X189931890Y-98269737D01*
X189689625Y-98632313D01*
X189604553Y-99060000D01*
X189689625Y-99487687D01*
X189931890Y-99850263D01*
X190294466Y-100092528D01*
X190722153Y-100177600D01*
X191801847Y-100177600D01*
X192229534Y-100092528D01*
X192592110Y-99850263D01*
X192834375Y-99487687D01*
X192919447Y-99060000D01*
X192919447Y-101075224D01*
X192876656Y-101083736D01*
X192806508Y-101130607D01*
X192592110Y-100809737D01*
X192229534Y-100567472D01*
X191801847Y-100482400D01*
X190722153Y-100482400D01*
X190294466Y-100567472D01*
X189931890Y-100809737D01*
X189689625Y-101172313D01*
X189604553Y-101600000D01*
X189689625Y-102027687D01*
X189845385Y-102260800D01*
X187804161Y-102260800D01*
X187608292Y-102064930D01*
X187608439Y-101896648D01*
X187522700Y-101689146D01*
X187752687Y-101643399D01*
X188115263Y-101401134D01*
X188357528Y-101038558D01*
X188442600Y-100610871D01*
X188442600Y-100049129D01*
X188357528Y-99621442D01*
X188115263Y-99258866D01*
X187752687Y-99016601D01*
X187325000Y-98931529D01*
X187299500Y-98936601D01*
X187299500Y-87756600D01*
X187253097Y-87523316D01*
X187120952Y-87325548D01*
X186359352Y-86563948D01*
X186161584Y-86431803D01*
X185928300Y-86385400D01*
X185630472Y-86385400D01*
X185431753Y-86087994D01*
X185015615Y-85809940D01*
X184759600Y-85759015D01*
X184759600Y-85559600D01*
X184713197Y-85326316D01*
X184581052Y-85128548D01*
X184420131Y-85021023D01*
X184420131Y-84942700D01*
X188293238Y-84942700D01*
X188430707Y-85080169D01*
X188430561Y-85248452D01*
X188552113Y-85542628D01*
X188776988Y-85767896D01*
X189070952Y-85889961D01*
X189389252Y-85890239D01*
X189683428Y-85768687D01*
X189908696Y-85543812D01*
X190030761Y-85249848D01*
X190031039Y-84931548D01*
X189909487Y-84637372D01*
X189684612Y-84412104D01*
X189390648Y-84290039D01*
X189220952Y-84289890D01*
X188919831Y-83988769D01*
X188738544Y-83867636D01*
X188524700Y-83825100D01*
X184420131Y-83825100D01*
X184420131Y-83718400D01*
X184397582Y-83602181D01*
X184330483Y-83500035D01*
X184229187Y-83431659D01*
X184109360Y-83407629D01*
X183550560Y-83407629D01*
X183434341Y-83430178D01*
X183354617Y-83482548D01*
X183279227Y-83431659D01*
X183159400Y-83407629D01*
X182600600Y-83407629D01*
X182484381Y-83430178D01*
X182404657Y-83482548D01*
X182329267Y-83431659D01*
X182209440Y-83407629D01*
X181650640Y-83407629D01*
X181534421Y-83430178D01*
X181432275Y-83497277D01*
X181363899Y-83598573D01*
X181339869Y-83718400D01*
X181339869Y-85049360D01*
X181362418Y-85165579D01*
X181371200Y-85178947D01*
X181371200Y-87315000D01*
X181413736Y-87528844D01*
X181534869Y-87710131D01*
X182517433Y-88692695D01*
X182517433Y-90462100D01*
X182543741Y-90597689D01*
X182622023Y-90716859D01*
X182740201Y-90796631D01*
X182880000Y-90824667D01*
X185420000Y-90824667D01*
X185555589Y-90798359D01*
X185674759Y-90720077D01*
X185754531Y-90601899D01*
X185782567Y-90462100D01*
X185782567Y-88607900D01*
X185756259Y-88472311D01*
X185677977Y-88353141D01*
X185559799Y-88273369D01*
X185420000Y-88245333D01*
X184687466Y-88245333D01*
X185015615Y-88180060D01*
X185431753Y-87902006D01*
X185630472Y-87604600D01*
X185675796Y-87604600D01*
X186080300Y-88009104D01*
X186080300Y-99720400D01*
X186054700Y-99720400D01*
X185821416Y-99766803D01*
X185623648Y-99898948D01*
X185424248Y-100098348D01*
X185292103Y-100296116D01*
X185245700Y-100529400D01*
X185245700Y-106988000D01*
X185292103Y-107221284D01*
X185424248Y-107419052D01*
X185973629Y-107968433D01*
X185420000Y-107968433D01*
X185284411Y-107994741D01*
X185165241Y-108073023D01*
X185085469Y-108191201D01*
X185057433Y-108331000D01*
X185057433Y-109601000D01*
X185079445Y-109714450D01*
X184468348Y-110325548D01*
X184385983Y-110448815D01*
X184385983Y-103363398D01*
X184385983Y-102376602D01*
X184333176Y-102170006D01*
X183906347Y-101424179D01*
X183226593Y-100898465D01*
X182397400Y-100672900D01*
X181762400Y-100672900D01*
X181762400Y-102717600D01*
X184284013Y-102717600D01*
X184385983Y-102376602D01*
X184385983Y-103363398D01*
X184284013Y-103022400D01*
X181762400Y-103022400D01*
X181762400Y-105067100D01*
X182397400Y-105067100D01*
X183226593Y-104841535D01*
X183906347Y-104315821D01*
X184333176Y-103569994D01*
X184385983Y-103363398D01*
X184385983Y-110448815D01*
X184336203Y-110523316D01*
X184289800Y-110756600D01*
X184289800Y-112855600D01*
X184336203Y-113088884D01*
X184468348Y-113286652D01*
X188460500Y-117278804D01*
X188460500Y-119560011D01*
X188392204Y-119628188D01*
X188270139Y-119922152D01*
X188269861Y-120240452D01*
X188391413Y-120534628D01*
X188616288Y-120759896D01*
X188910252Y-120881961D01*
X189228552Y-120882239D01*
X189522728Y-120760687D01*
X189747996Y-120535812D01*
X189870061Y-120241848D01*
X189870204Y-120077943D01*
X189931890Y-120170263D01*
X190294466Y-120412528D01*
X190722153Y-120497600D01*
X191801847Y-120497600D01*
X192229534Y-120412528D01*
X192592110Y-120170263D01*
X192834375Y-119807687D01*
X192919447Y-119380000D01*
X192834375Y-118952313D01*
X192592110Y-118589737D01*
X192229534Y-118347472D01*
X191801847Y-118262400D01*
X190722153Y-118262400D01*
X190294466Y-118347472D01*
X189931890Y-118589737D01*
X189689625Y-118952313D01*
X189679700Y-119002209D01*
X189679700Y-117217790D01*
X189689625Y-117267687D01*
X189931890Y-117630263D01*
X190294466Y-117872528D01*
X190722153Y-117957600D01*
X191801847Y-117957600D01*
X192229534Y-117872528D01*
X192592110Y-117630263D01*
X192834375Y-117267687D01*
X192919447Y-116840000D01*
X192919447Y-114300000D01*
X192919447Y-111760000D01*
X192919447Y-109220000D01*
X192919447Y-106680000D01*
X192834375Y-106252313D01*
X192592110Y-105889737D01*
X192229534Y-105647472D01*
X191801847Y-105562400D01*
X190722153Y-105562400D01*
X190294466Y-105647472D01*
X189931890Y-105889737D01*
X189689625Y-106252313D01*
X189604553Y-106680000D01*
X189689625Y-107107687D01*
X189931890Y-107470263D01*
X190294466Y-107712528D01*
X190722153Y-107797600D01*
X191801847Y-107797600D01*
X192229534Y-107712528D01*
X192592110Y-107470263D01*
X192834375Y-107107687D01*
X192919447Y-106680000D01*
X192919447Y-109220000D01*
X192834375Y-108792313D01*
X192592110Y-108429737D01*
X192229534Y-108187472D01*
X191801847Y-108102400D01*
X190722153Y-108102400D01*
X190294466Y-108187472D01*
X189931890Y-108429737D01*
X189689625Y-108792313D01*
X189604553Y-109220000D01*
X189689625Y-109647687D01*
X189931890Y-110010263D01*
X190294466Y-110252528D01*
X190722153Y-110337600D01*
X191801847Y-110337600D01*
X192229534Y-110252528D01*
X192592110Y-110010263D01*
X192834375Y-109647687D01*
X192919447Y-109220000D01*
X192919447Y-111760000D01*
X192834375Y-111332313D01*
X192592110Y-110969737D01*
X192229534Y-110727472D01*
X191801847Y-110642400D01*
X190722153Y-110642400D01*
X190294466Y-110727472D01*
X189931890Y-110969737D01*
X189689625Y-111332313D01*
X189604553Y-111760000D01*
X189689625Y-112187687D01*
X189931890Y-112550263D01*
X190294466Y-112792528D01*
X190722153Y-112877600D01*
X191801847Y-112877600D01*
X192229534Y-112792528D01*
X192592110Y-112550263D01*
X192834375Y-112187687D01*
X192919447Y-111760000D01*
X192919447Y-114300000D01*
X192834375Y-113872313D01*
X192592110Y-113509737D01*
X192229534Y-113267472D01*
X191801847Y-113182400D01*
X190722153Y-113182400D01*
X190294466Y-113267472D01*
X189931890Y-113509737D01*
X189689625Y-113872313D01*
X189604553Y-114300000D01*
X189689625Y-114727687D01*
X189931890Y-115090263D01*
X190294466Y-115332528D01*
X190722153Y-115417600D01*
X191801847Y-115417600D01*
X192229534Y-115332528D01*
X192592110Y-115090263D01*
X192834375Y-114727687D01*
X192919447Y-114300000D01*
X192919447Y-116840000D01*
X192834375Y-116412313D01*
X192592110Y-116049737D01*
X192229534Y-115807472D01*
X191801847Y-115722400D01*
X190722153Y-115722400D01*
X190294466Y-115807472D01*
X189931890Y-116049737D01*
X189689625Y-116412313D01*
X189618348Y-116770644D01*
X189580367Y-116713801D01*
X189501153Y-116595248D01*
X185917471Y-113011567D01*
X187960000Y-113011567D01*
X188095589Y-112985259D01*
X188214759Y-112906977D01*
X188294531Y-112788799D01*
X188322567Y-112649000D01*
X188322567Y-111379000D01*
X188296259Y-111243411D01*
X188217977Y-111124241D01*
X188138327Y-111070476D01*
X188911852Y-110296952D01*
X189043997Y-110099184D01*
X189090400Y-109865900D01*
X189090400Y-108090100D01*
X189043997Y-107856816D01*
X188911852Y-107659048D01*
X187934600Y-106681796D01*
X187934600Y-106601848D01*
X188115263Y-106481134D01*
X188357528Y-106118558D01*
X188442600Y-105690871D01*
X188442600Y-105129129D01*
X188357528Y-104701442D01*
X188115263Y-104338866D01*
X187752687Y-104096601D01*
X187325000Y-104011529D01*
X186897313Y-104096601D01*
X186534737Y-104338866D01*
X186464900Y-104443384D01*
X186464900Y-102778884D01*
X186648352Y-102855061D01*
X186818047Y-102855209D01*
X187177569Y-103214731D01*
X187358856Y-103335864D01*
X187358857Y-103335864D01*
X187572700Y-103378400D01*
X189912738Y-103378400D01*
X189689625Y-103712313D01*
X189604553Y-104140000D01*
X189689625Y-104567687D01*
X189931890Y-104930263D01*
X190294466Y-105172528D01*
X190722153Y-105257600D01*
X191801847Y-105257600D01*
X192229534Y-105172528D01*
X192592110Y-104930263D01*
X192834375Y-104567687D01*
X192919447Y-104140000D01*
X192834375Y-103712313D01*
X192592110Y-103349737D01*
X192575636Y-103338729D01*
X192590043Y-103335864D01*
X192590044Y-103335864D01*
X192771331Y-103214731D01*
X193485631Y-102500431D01*
X193537219Y-102423223D01*
X193850466Y-102632528D01*
X194278153Y-102717600D01*
X195357847Y-102717600D01*
X195785534Y-102632528D01*
X196148110Y-102390263D01*
X196390375Y-102027687D01*
X196475447Y-101600000D01*
X196475447Y-104140000D01*
X196390375Y-103712313D01*
X196148110Y-103349737D01*
X195785534Y-103107472D01*
X195357847Y-103022400D01*
X194278153Y-103022400D01*
X193850466Y-103107472D01*
X193487890Y-103349737D01*
X193245625Y-103712313D01*
X193160553Y-104140000D01*
X193245625Y-104567687D01*
X193487890Y-104930263D01*
X193850466Y-105172528D01*
X194278153Y-105257600D01*
X195357847Y-105257600D01*
X195785534Y-105172528D01*
X196148110Y-104930263D01*
X196390375Y-104567687D01*
X196475447Y-104140000D01*
X196475447Y-106680000D01*
X196390375Y-106252313D01*
X196148110Y-105889737D01*
X195785534Y-105647472D01*
X195357847Y-105562400D01*
X194278153Y-105562400D01*
X193850466Y-105647472D01*
X193487890Y-105889737D01*
X193245625Y-106252313D01*
X193160553Y-106680000D01*
X193245625Y-107107687D01*
X193487890Y-107470263D01*
X193850466Y-107712528D01*
X194278153Y-107797600D01*
X195357847Y-107797600D01*
X195785534Y-107712528D01*
X196148110Y-107470263D01*
X196390375Y-107107687D01*
X196475447Y-106680000D01*
X196475447Y-109220000D01*
X196390375Y-108792313D01*
X196148110Y-108429737D01*
X195785534Y-108187472D01*
X195357847Y-108102400D01*
X194278153Y-108102400D01*
X193850466Y-108187472D01*
X193487890Y-108429737D01*
X193245625Y-108792313D01*
X193160553Y-109220000D01*
X193245625Y-109647687D01*
X193487890Y-110010263D01*
X193850466Y-110252528D01*
X194278153Y-110337600D01*
X195357847Y-110337600D01*
X195785534Y-110252528D01*
X196148110Y-110010263D01*
X196390375Y-109647687D01*
X196475447Y-109220000D01*
X196475447Y-111760000D01*
X196390375Y-111332313D01*
X196148110Y-110969737D01*
X195785534Y-110727472D01*
X195357847Y-110642400D01*
X194278153Y-110642400D01*
X193850466Y-110727472D01*
X193487890Y-110969737D01*
X193245625Y-111332313D01*
X193160553Y-111760000D01*
X193245625Y-112187687D01*
X193487890Y-112550263D01*
X193850466Y-112792528D01*
X194278153Y-112877600D01*
X195357847Y-112877600D01*
X195785534Y-112792528D01*
X196148110Y-112550263D01*
X196390375Y-112187687D01*
X196475447Y-111760000D01*
X196475447Y-114300000D01*
X196390375Y-113872313D01*
X196148110Y-113509737D01*
X195785534Y-113267472D01*
X195357847Y-113182400D01*
X194278153Y-113182400D01*
X193850466Y-113267472D01*
X193487890Y-113509737D01*
X193245625Y-113872313D01*
X193160553Y-114300000D01*
X193245625Y-114727687D01*
X193487890Y-115090263D01*
X193850466Y-115332528D01*
X194278153Y-115417600D01*
X195357847Y-115417600D01*
X195785534Y-115332528D01*
X196148110Y-115090263D01*
X196390375Y-114727687D01*
X196475447Y-114300000D01*
X196475447Y-116840000D01*
X196390375Y-116412313D01*
X196148110Y-116049737D01*
X195785534Y-115807472D01*
X195357847Y-115722400D01*
X194278153Y-115722400D01*
X193850466Y-115807472D01*
X193487890Y-116049737D01*
X193245625Y-116412313D01*
X193160553Y-116840000D01*
X193245625Y-117267687D01*
X193487890Y-117630263D01*
X193850466Y-117872528D01*
X194278153Y-117957600D01*
X195357847Y-117957600D01*
X195785534Y-117872528D01*
X196148110Y-117630263D01*
X196390375Y-117267687D01*
X196475447Y-116840000D01*
X196475447Y-119380000D01*
X196390375Y-118952313D01*
X196148110Y-118589737D01*
X195785534Y-118347472D01*
X195357847Y-118262400D01*
X194278153Y-118262400D01*
X193850466Y-118347472D01*
X193487890Y-118589737D01*
X193245625Y-118952313D01*
X193160553Y-119380000D01*
X193245625Y-119807687D01*
X193487890Y-120170263D01*
X193850466Y-120412528D01*
X194278153Y-120497600D01*
X195357847Y-120497600D01*
X195785534Y-120412528D01*
X196148110Y-120170263D01*
X196390375Y-119807687D01*
X196475447Y-119380000D01*
X196475447Y-121920000D01*
X196390375Y-121492313D01*
X196148110Y-121129737D01*
X195785534Y-120887472D01*
X195357847Y-120802400D01*
X194278153Y-120802400D01*
X193850466Y-120887472D01*
X193487890Y-121129737D01*
X193245625Y-121492313D01*
X193160553Y-121920000D01*
X193245625Y-122347687D01*
X193487890Y-122710263D01*
X193850466Y-122952528D01*
X194278153Y-123037600D01*
X195357847Y-123037600D01*
X195785534Y-122952528D01*
X196148110Y-122710263D01*
X196390375Y-122347687D01*
X196475447Y-121920000D01*
X196475447Y-126154791D01*
X196281425Y-125685223D01*
X195628216Y-125030873D01*
X194774320Y-124676304D01*
X193849736Y-124675497D01*
X192995223Y-125028575D01*
X192919447Y-125104218D01*
X192919447Y-121920000D01*
X192834375Y-121492313D01*
X192592110Y-121129737D01*
X192229534Y-120887472D01*
X191801847Y-120802400D01*
X190722153Y-120802400D01*
X190294466Y-120887472D01*
X189931890Y-121129737D01*
X189689625Y-121492313D01*
X189604553Y-121920000D01*
X189689625Y-122347687D01*
X189931890Y-122710263D01*
X190294466Y-122952528D01*
X190722153Y-123037600D01*
X191801847Y-123037600D01*
X192229534Y-122952528D01*
X192592110Y-122710263D01*
X192834375Y-122347687D01*
X192919447Y-121920000D01*
X192919447Y-125104218D01*
X192340873Y-125681784D01*
X191986304Y-126535680D01*
X191985497Y-127460264D01*
X192338575Y-128314777D01*
X192991784Y-128969127D01*
X193845680Y-129323696D01*
X194770264Y-129324503D01*
X195624777Y-128971425D01*
X196279127Y-128318216D01*
X196633696Y-127464320D01*
X196634503Y-126539736D01*
X196634503Y-129755900D01*
X188991861Y-129755900D01*
X189625131Y-129122631D01*
X189746264Y-128941344D01*
X189746264Y-128941343D01*
X189788799Y-128727500D01*
X189788800Y-128727500D01*
X189788800Y-128484768D01*
X190020263Y-128330110D01*
X190262528Y-127967534D01*
X190347600Y-127539847D01*
X190347600Y-126460153D01*
X190262528Y-126032466D01*
X190020263Y-125669890D01*
X189657687Y-125427625D01*
X189230000Y-125342553D01*
X188802313Y-125427625D01*
X188439737Y-125669890D01*
X188197472Y-126032466D01*
X188112400Y-126460153D01*
X188112400Y-127539847D01*
X188197472Y-127967534D01*
X188439737Y-128330110D01*
X188671200Y-128484768D01*
X188671200Y-128496038D01*
X188337038Y-128830200D01*
X177068371Y-128830200D01*
X177088800Y-128727500D01*
X177088800Y-128484768D01*
X177320263Y-128330110D01*
X177562528Y-127967534D01*
X177647600Y-127539847D01*
X177647600Y-126460153D01*
X177562528Y-126032466D01*
X177428113Y-125831300D01*
X178171886Y-125831300D01*
X178037472Y-126032466D01*
X177952400Y-126460153D01*
X177952400Y-127539847D01*
X178037472Y-127967534D01*
X178279737Y-128330110D01*
X178642313Y-128572375D01*
X179070000Y-128657447D01*
X179497687Y-128572375D01*
X179860263Y-128330110D01*
X180102528Y-127967534D01*
X180187600Y-127539847D01*
X180187600Y-126460153D01*
X180102528Y-126032466D01*
X179968113Y-125831300D01*
X180711886Y-125831300D01*
X180577472Y-126032466D01*
X180492400Y-126460153D01*
X180492400Y-127539847D01*
X180577472Y-127967534D01*
X180819737Y-128330110D01*
X181182313Y-128572375D01*
X181610000Y-128657447D01*
X182037687Y-128572375D01*
X182400263Y-128330110D01*
X182642528Y-127967534D01*
X182727600Y-127539847D01*
X182727600Y-126460153D01*
X182642528Y-126032466D01*
X182400263Y-125669890D01*
X182168800Y-125515231D01*
X182168800Y-125272500D01*
X182126264Y-125058656D01*
X182005131Y-124877369D01*
X181823844Y-124756236D01*
X181610000Y-124713700D01*
X167803862Y-124713700D01*
X162871931Y-119781769D01*
X162690644Y-119660636D01*
X162476800Y-119618100D01*
X154940762Y-119618100D01*
X141697062Y-106374400D01*
X141985338Y-106374400D01*
X154861669Y-119250731D01*
X155042956Y-119371864D01*
X155042957Y-119371864D01*
X155256800Y-119414400D01*
X162792938Y-119414400D01*
X167726869Y-124348331D01*
X167908156Y-124469464D01*
X167908157Y-124469464D01*
X168122000Y-124512000D01*
X182599237Y-124512000D01*
X183591200Y-125503962D01*
X183591200Y-125515231D01*
X183359737Y-125669890D01*
X183117472Y-126032466D01*
X183032400Y-126460153D01*
X183032400Y-127539847D01*
X183117472Y-127967534D01*
X183359737Y-128330110D01*
X183722313Y-128572375D01*
X184150000Y-128657447D01*
X184577687Y-128572375D01*
X184940263Y-128330110D01*
X185182528Y-127967534D01*
X185267600Y-127539847D01*
X185267600Y-126460153D01*
X185182528Y-126032466D01*
X184940263Y-125669890D01*
X184708800Y-125515231D01*
X184708800Y-125272500D01*
X184666264Y-125058657D01*
X184666264Y-125058656D01*
X184545131Y-124877369D01*
X183518962Y-123851200D01*
X184478438Y-123851200D01*
X186131200Y-125503962D01*
X186131200Y-125515231D01*
X185899737Y-125669890D01*
X185657472Y-126032466D01*
X185572400Y-126460153D01*
X185572400Y-127539847D01*
X185657472Y-127967534D01*
X185899737Y-128330110D01*
X186262313Y-128572375D01*
X186690000Y-128657447D01*
X187117687Y-128572375D01*
X187480263Y-128330110D01*
X187722528Y-127967534D01*
X187807600Y-127539847D01*
X187807600Y-126460153D01*
X187722528Y-126032466D01*
X187480263Y-125669890D01*
X187248800Y-125515231D01*
X187248800Y-125272500D01*
X187206264Y-125058657D01*
X187206264Y-125058656D01*
X187085131Y-124877369D01*
X185398162Y-123190400D01*
X186252700Y-123190400D01*
X186466543Y-123147864D01*
X186466544Y-123147864D01*
X186647831Y-123026731D01*
X187161331Y-122513231D01*
X187161332Y-122513231D01*
X187282464Y-122331944D01*
X187282465Y-122331943D01*
X187325000Y-122118100D01*
X187325000Y-122090300D01*
X187444096Y-121971412D01*
X187566161Y-121677448D01*
X187566439Y-121359148D01*
X187444887Y-121064972D01*
X187220012Y-120839704D01*
X186926048Y-120717639D01*
X186607748Y-120717361D01*
X186398157Y-120803962D01*
X186391259Y-120768411D01*
X186312977Y-120649241D01*
X186194799Y-120569469D01*
X186055000Y-120541433D01*
X185547000Y-120541433D01*
X185547000Y-120243300D01*
X185531112Y-120163427D01*
X185531339Y-119903948D01*
X185409787Y-119609772D01*
X185288793Y-119488567D01*
X186055000Y-119488567D01*
X186190589Y-119462259D01*
X186309759Y-119383977D01*
X186389531Y-119265799D01*
X186417567Y-119126000D01*
X186417567Y-117856000D01*
X186391259Y-117720411D01*
X186312977Y-117601241D01*
X186194799Y-117521469D01*
X186055000Y-117493433D01*
X185343800Y-117493433D01*
X185343800Y-117398500D01*
X185301264Y-117184657D01*
X185301264Y-117184656D01*
X185180131Y-117003369D01*
X184126754Y-115949992D01*
X184232161Y-115696148D01*
X184232439Y-115377848D01*
X184110887Y-115083672D01*
X183886012Y-114858404D01*
X183592048Y-114736339D01*
X183422352Y-114736190D01*
X179469400Y-110783238D01*
X179469400Y-108821584D01*
X179550513Y-108942979D01*
X180180900Y-109364190D01*
X180924492Y-109512100D01*
X182295508Y-109512100D01*
X183039100Y-109364190D01*
X183669487Y-108942979D01*
X184090698Y-108312592D01*
X184238608Y-107569000D01*
X184090698Y-106825408D01*
X183669487Y-106195021D01*
X183039100Y-105773810D01*
X182295508Y-105625900D01*
X180924492Y-105625900D01*
X180180900Y-105773810D01*
X179550513Y-106195021D01*
X179469400Y-106316415D01*
X179469400Y-104436273D01*
X179993407Y-104841535D01*
X180822600Y-105067100D01*
X181457600Y-105067100D01*
X181457600Y-103022400D01*
X181437600Y-103022400D01*
X181437600Y-102717600D01*
X181457600Y-102717600D01*
X181457600Y-100672900D01*
X180822600Y-100672900D01*
X179993407Y-100898465D01*
X179469400Y-101303726D01*
X179469400Y-99902362D01*
X180702531Y-98669231D01*
X180702532Y-98669231D01*
X180823664Y-98487944D01*
X180823665Y-98487943D01*
X180866200Y-98274100D01*
X180866200Y-80101155D01*
X181051200Y-80224768D01*
X181051200Y-80467500D01*
X181093736Y-80681344D01*
X181214869Y-80862631D01*
X181371200Y-81018962D01*
X181371200Y-81189996D01*
X181363899Y-81200813D01*
X181339869Y-81320640D01*
X181339869Y-82651600D01*
X181362418Y-82767819D01*
X181429517Y-82869965D01*
X181530813Y-82938341D01*
X181650640Y-82962371D01*
X182209440Y-82962371D01*
X182325659Y-82939822D01*
X182405382Y-82887451D01*
X182480773Y-82938341D01*
X182600600Y-82962371D01*
X183159400Y-82962371D01*
X183275619Y-82939822D01*
X183355342Y-82887451D01*
X183430733Y-82938341D01*
X183550560Y-82962371D01*
X184109360Y-82962371D01*
X184225579Y-82939822D01*
X184327725Y-82872723D01*
X184396101Y-82771427D01*
X184420131Y-82651600D01*
X184420131Y-81320640D01*
X184397582Y-81204421D01*
X184388800Y-81191052D01*
X184388800Y-81018962D01*
X184545131Y-80862632D01*
X184545131Y-80862631D01*
X184605697Y-80771987D01*
X184666264Y-80681344D01*
X184666264Y-80681343D01*
X184708799Y-80467500D01*
X184708800Y-80467500D01*
X184708800Y-80224768D01*
X184940263Y-80070110D01*
X185182528Y-79707534D01*
X185267600Y-79279847D01*
X185267600Y-78200153D01*
X185182528Y-77772466D01*
X184940263Y-77409890D01*
X184577687Y-77167625D01*
X184329420Y-77118241D01*
X184583462Y-76864200D01*
X186549430Y-76864200D01*
X185990873Y-77421784D01*
X185636304Y-78275680D01*
X185635497Y-79200264D01*
X185988575Y-80054777D01*
X186641784Y-80709127D01*
X187495680Y-81063696D01*
X188420264Y-81064503D01*
X189274777Y-80711425D01*
X189929127Y-80058216D01*
X190283696Y-79204320D01*
X190284503Y-78279736D01*
X189931425Y-77425223D01*
X189371380Y-76864200D01*
X191036144Y-76864200D01*
X190979737Y-76901890D01*
X190737472Y-77264466D01*
X190652400Y-77692153D01*
X190652400Y-78771847D01*
X190737472Y-79199534D01*
X190979737Y-79562110D01*
X191211200Y-79716768D01*
X191211200Y-79959500D01*
X191251559Y-80162400D01*
X190722153Y-80162400D01*
X190294466Y-80247472D01*
X189931890Y-80489737D01*
X189689625Y-80852313D01*
X189604553Y-81280000D01*
X189689625Y-81707687D01*
X189931890Y-82070263D01*
X190294466Y-82312528D01*
X190722153Y-82397600D01*
X191801847Y-82397600D01*
X192229534Y-82312528D01*
X192592110Y-82070263D01*
X192834375Y-81707687D01*
X192919447Y-81280000D01*
X192834375Y-80852313D01*
X192644938Y-80568800D01*
X193435061Y-80568800D01*
X193245625Y-80852313D01*
X193160553Y-81280000D01*
X193245625Y-81707687D01*
X193487890Y-82070263D01*
X193850466Y-82312528D01*
X194278153Y-82397600D01*
X195357847Y-82397600D01*
X195785534Y-82312528D01*
X196148110Y-82070263D01*
X196390375Y-81707687D01*
X196475447Y-81280000D01*
X196390375Y-80852313D01*
X196200938Y-80568800D01*
X197503433Y-80568800D01*
X197503433Y-81280000D01*
X197529741Y-81415589D01*
X197608023Y-81534759D01*
X197726201Y-81614531D01*
X197866000Y-81642567D01*
X199136000Y-81642567D01*
X199271589Y-81616259D01*
X199390759Y-81537977D01*
X199470531Y-81419799D01*
X199498567Y-81280000D01*
X199498567Y-78740000D01*
X199472259Y-78604411D01*
X199393977Y-78485241D01*
X199275799Y-78405469D01*
X199136000Y-78377433D01*
X197866000Y-78377433D01*
X197730411Y-78403741D01*
X197611241Y-78482023D01*
X197531469Y-78600201D01*
X197503433Y-78740000D01*
X197503433Y-79451200D01*
X195174370Y-79451200D01*
X195342528Y-79199534D01*
X195427600Y-78771847D01*
X195427600Y-77692153D01*
X195342528Y-77264466D01*
X195100263Y-76901890D01*
X194737687Y-76659625D01*
X194310000Y-76574553D01*
X193882313Y-76659625D01*
X193519737Y-76901890D01*
X193277472Y-77264466D01*
X193192400Y-77692153D01*
X193192400Y-78771847D01*
X193277472Y-79199534D01*
X193445629Y-79451200D01*
X192634370Y-79451200D01*
X192802528Y-79199534D01*
X192887600Y-78771847D01*
X192887600Y-77692153D01*
X192802528Y-77264466D01*
X192560263Y-76901890D01*
X192328800Y-76747231D01*
X192328800Y-76504500D01*
X192286264Y-76290657D01*
X192286264Y-76290656D01*
X192165131Y-76109369D01*
X192039862Y-75984100D01*
X211035900Y-75984100D01*
X211035900Y-129755900D01*
X211035900Y-129755900D01*
G37*
X211035900Y-129755900D02*
X210121000Y-129755900D01*
X210121000Y-99320000D01*
X210121000Y-95084100D01*
X210074597Y-94850816D01*
X209942452Y-94653048D01*
X209942452Y-94653047D01*
X207568352Y-92278948D01*
X207370584Y-92146803D01*
X207137300Y-92100400D01*
X206991567Y-92100400D01*
X206991567Y-91440000D01*
X206965259Y-91304411D01*
X206886977Y-91185241D01*
X206768799Y-91105469D01*
X206629000Y-91077433D01*
X205460300Y-91077433D01*
X205460300Y-82168400D01*
X205413897Y-81935117D01*
X205413897Y-81935116D01*
X205360967Y-81855901D01*
X205281753Y-81737348D01*
X203123352Y-79578948D01*
X202925584Y-79446803D01*
X202692300Y-79400400D01*
X202546567Y-79400400D01*
X202546567Y-78740000D01*
X202520259Y-78604411D01*
X202441977Y-78485241D01*
X202323799Y-78405469D01*
X202184000Y-78377433D01*
X200914000Y-78377433D01*
X200778411Y-78403741D01*
X200659241Y-78482023D01*
X200579469Y-78600201D01*
X200551433Y-78740000D01*
X200551433Y-81280000D01*
X200577741Y-81415589D01*
X200656023Y-81534759D01*
X200774201Y-81614531D01*
X200914000Y-81642567D01*
X202184000Y-81642567D01*
X202319589Y-81616259D01*
X202438759Y-81537977D01*
X202518531Y-81419799D01*
X202546567Y-81280000D01*
X202546567Y-80726371D01*
X204241100Y-82420904D01*
X204241100Y-92710000D01*
X204287503Y-92943284D01*
X204419648Y-93141052D01*
X204617416Y-93273197D01*
X204850700Y-93319600D01*
X204996433Y-93319600D01*
X204996433Y-93980000D01*
X205022741Y-94115589D01*
X205101023Y-94234759D01*
X205219201Y-94314531D01*
X205359000Y-94342567D01*
X206629000Y-94342567D01*
X206764589Y-94316259D01*
X206883759Y-94237977D01*
X206963531Y-94119799D01*
X206991567Y-93980000D01*
X206991567Y-93426371D01*
X208901800Y-95336604D01*
X208901800Y-97049882D01*
X208778611Y-96865517D01*
X208086421Y-96403011D01*
X207269928Y-96240600D01*
X205632472Y-96240600D01*
X204815979Y-96403011D01*
X204190600Y-96820875D01*
X204190600Y-94101257D01*
X204190600Y-93858743D01*
X204190600Y-93014800D01*
X204190600Y-92405200D01*
X204190600Y-91561257D01*
X204190600Y-91318743D01*
X204097794Y-91094689D01*
X203926311Y-90923206D01*
X203702257Y-90830400D01*
X203250800Y-90830400D01*
X203098400Y-90982800D01*
X203098400Y-92557600D01*
X204038200Y-92557600D01*
X204190600Y-92405200D01*
X204190600Y-93014800D01*
X204038200Y-92862400D01*
X203098400Y-92862400D01*
X203098400Y-94437200D01*
X203250800Y-94589600D01*
X203702257Y-94589600D01*
X203926311Y-94496794D01*
X204097794Y-94325311D01*
X204190600Y-94101257D01*
X204190600Y-96820875D01*
X204123789Y-96865517D01*
X203661283Y-97557707D01*
X203498872Y-98374200D01*
X203661283Y-99190693D01*
X204123789Y-99882883D01*
X204815979Y-100345389D01*
X205632472Y-100507800D01*
X207269928Y-100507800D01*
X207509063Y-100460232D01*
X206773425Y-101195870D01*
X206328845Y-100898811D01*
X205512352Y-100736400D01*
X204392848Y-100736400D01*
X203576355Y-100898811D01*
X202884165Y-101361317D01*
X202793600Y-101496857D01*
X202793600Y-94437200D01*
X202793600Y-92862400D01*
X202793600Y-92557600D01*
X202793600Y-90982800D01*
X202641200Y-90830400D01*
X202189743Y-90830400D01*
X201965689Y-90923206D01*
X201794206Y-91094689D01*
X201701400Y-91318743D01*
X201701400Y-91561257D01*
X201701400Y-92405200D01*
X201853800Y-92557600D01*
X202793600Y-92557600D01*
X202793600Y-92862400D01*
X201853800Y-92862400D01*
X201701400Y-93014800D01*
X201701400Y-93858743D01*
X201701400Y-94101257D01*
X201794206Y-94325311D01*
X201965689Y-94496794D01*
X202189743Y-94589600D01*
X202641200Y-94589600D01*
X202793600Y-94437200D01*
X202793600Y-101496857D01*
X202421659Y-102053507D01*
X202259248Y-102870000D01*
X202421659Y-103686493D01*
X202884165Y-104378683D01*
X203007442Y-104461053D01*
X202964848Y-104503648D01*
X202832703Y-104701416D01*
X202786300Y-104934700D01*
X202786300Y-112463600D01*
X202832703Y-112696884D01*
X202964848Y-112894652D01*
X204388628Y-114318433D01*
X203835000Y-114318433D01*
X203699411Y-114344741D01*
X203580241Y-114423023D01*
X203500469Y-114541201D01*
X203472433Y-114681000D01*
X203472433Y-115951000D01*
X203498741Y-116086589D01*
X203577023Y-116205759D01*
X203695201Y-116285531D01*
X203835000Y-116313567D01*
X206375000Y-116313567D01*
X206510589Y-116287259D01*
X206629759Y-116208977D01*
X206709531Y-116090799D01*
X206737567Y-115951000D01*
X206737567Y-115925600D01*
X207264000Y-115925600D01*
X207497284Y-115879197D01*
X207695052Y-115747052D01*
X208341949Y-115100154D01*
X208438452Y-115100239D01*
X208732628Y-114978687D01*
X208957896Y-114753812D01*
X209079961Y-114459848D01*
X209080239Y-114141548D01*
X208958687Y-113847372D01*
X208733812Y-113622104D01*
X208439848Y-113500039D01*
X208121548Y-113499761D01*
X207827372Y-113621313D01*
X207602104Y-113846188D01*
X207480039Y-114140152D01*
X207479953Y-114237942D01*
X207011496Y-114706400D01*
X206737567Y-114706400D01*
X206737567Y-114681000D01*
X206711259Y-114545411D01*
X206632977Y-114426241D01*
X206514799Y-114346469D01*
X206375000Y-114318433D01*
X205714600Y-114318433D01*
X205714600Y-114172700D01*
X205668197Y-113939416D01*
X205536052Y-113741648D01*
X205536052Y-113741647D01*
X204005500Y-112211095D01*
X204005500Y-108697450D01*
X204123789Y-108874483D01*
X204815979Y-109336989D01*
X205632472Y-109499400D01*
X207269928Y-109499400D01*
X208086421Y-109336989D01*
X208778611Y-108874483D01*
X209241117Y-108182293D01*
X209403528Y-107365800D01*
X209241117Y-106549307D01*
X208778611Y-105857117D01*
X208086421Y-105394611D01*
X207269928Y-105232200D01*
X205632472Y-105232200D01*
X204815979Y-105394611D01*
X204123789Y-105857117D01*
X204005500Y-106034149D01*
X204005500Y-105187204D01*
X204222907Y-104969796D01*
X204392848Y-105003600D01*
X205512352Y-105003600D01*
X206328845Y-104841189D01*
X207021035Y-104378683D01*
X207452691Y-103732662D01*
X207708650Y-103989067D01*
X208193924Y-104190570D01*
X208719371Y-104191029D01*
X209204996Y-103990373D01*
X209576867Y-103619150D01*
X209778370Y-103133876D01*
X209778829Y-102608429D01*
X209578173Y-102122804D01*
X209206950Y-101750933D01*
X208721676Y-101549430D01*
X208196229Y-101548971D01*
X208108132Y-101585371D01*
X209942452Y-99751052D01*
X210074597Y-99553284D01*
X210120999Y-99320000D01*
X210121000Y-99320000D01*
X210121000Y-129755900D01*
X206984600Y-129755900D01*
X206984600Y-119120257D01*
X206984600Y-118668800D01*
X206984600Y-118059200D01*
X206984600Y-117607743D01*
X206891794Y-117383689D01*
X206720311Y-117212206D01*
X206496257Y-117119400D01*
X206253743Y-117119400D01*
X205409800Y-117119400D01*
X205257400Y-117271800D01*
X205257400Y-118211600D01*
X206832200Y-118211600D01*
X206984600Y-118059200D01*
X206984600Y-118668800D01*
X206832200Y-118516400D01*
X205257400Y-118516400D01*
X205257400Y-119456200D01*
X205409800Y-119608600D01*
X206253743Y-119608600D01*
X206496257Y-119608600D01*
X206720311Y-119515794D01*
X206891794Y-119344311D01*
X206984600Y-119120257D01*
X206984600Y-129755900D01*
X204952600Y-129755900D01*
X204952600Y-119456200D01*
X204952600Y-118516400D01*
X204952600Y-118211600D01*
X204952600Y-117271800D01*
X204800200Y-117119400D01*
X203956257Y-117119400D01*
X203713743Y-117119400D01*
X203489689Y-117212206D01*
X203318206Y-117383689D01*
X203225400Y-117607743D01*
X203225400Y-118059200D01*
X203377800Y-118211600D01*
X204952600Y-118211600D01*
X204952600Y-118516400D01*
X203377800Y-118516400D01*
X203225400Y-118668800D01*
X203225400Y-119120257D01*
X203318206Y-119344311D01*
X203489689Y-119515794D01*
X203713743Y-119608600D01*
X203956257Y-119608600D01*
X204800200Y-119608600D01*
X204952600Y-119456200D01*
X204952600Y-129755900D01*
X202107800Y-129755900D01*
X202107800Y-103530400D01*
X202107800Y-103022400D01*
X202107800Y-102717600D01*
X202107800Y-102209600D01*
X201848399Y-101210304D01*
X201226330Y-100386344D01*
X200336297Y-99863159D01*
X200029273Y-99781109D01*
X199618600Y-99877470D01*
X199618600Y-102717600D01*
X202107800Y-102717600D01*
X202107800Y-103022400D01*
X199618600Y-103022400D01*
X199618600Y-105862530D01*
X200029273Y-105958891D01*
X200336297Y-105876841D01*
X201226330Y-105353656D01*
X201848399Y-104529696D01*
X202107800Y-103530400D01*
X202107800Y-129755900D01*
X199313800Y-129755900D01*
X199313800Y-105862530D01*
X199313800Y-103022400D01*
X199313800Y-102717600D01*
X199313800Y-99877470D01*
X198903127Y-99781109D01*
X198596103Y-99863159D01*
X197706070Y-100386344D01*
X197084001Y-101210304D01*
X196824600Y-102209600D01*
X196824600Y-102717600D01*
X199313800Y-102717600D01*
X199313800Y-103022400D01*
X196824600Y-103022400D01*
X196824600Y-103530400D01*
X197084001Y-104529696D01*
X197706070Y-105353656D01*
X198596103Y-105876841D01*
X198903127Y-105958891D01*
X199313800Y-105862530D01*
X199313800Y-129755900D01*
X196634503Y-129755900D01*
X196634503Y-126539736D01*
X196475447Y-126154791D01*
X196475447Y-121920000D01*
X196475447Y-119380000D01*
X196475447Y-116840000D01*
X196475447Y-114300000D01*
X196475447Y-111760000D01*
X196475447Y-109220000D01*
X196475447Y-106680000D01*
X196475447Y-104140000D01*
X196475447Y-101600000D01*
X196475447Y-99060000D01*
X196475447Y-96520000D01*
X196475447Y-93980000D01*
X196475447Y-91440000D01*
X196475447Y-88900000D01*
X196475447Y-86360000D01*
X196475447Y-83820000D01*
X196390375Y-83392313D01*
X196148110Y-83029737D01*
X195785534Y-82787472D01*
X195357847Y-82702400D01*
X194278153Y-82702400D01*
X193850466Y-82787472D01*
X193487890Y-83029737D01*
X193245625Y-83392313D01*
X193160553Y-83820000D01*
X193245625Y-84247687D01*
X193487890Y-84610263D01*
X193850466Y-84852528D01*
X194278153Y-84937600D01*
X195357847Y-84937600D01*
X195785534Y-84852528D01*
X196148110Y-84610263D01*
X196390375Y-84247687D01*
X196475447Y-83820000D01*
X196475447Y-86360000D01*
X196390375Y-85932313D01*
X196148110Y-85569737D01*
X195785534Y-85327472D01*
X195357847Y-85242400D01*
X194278153Y-85242400D01*
X193850466Y-85327472D01*
X193487890Y-85569737D01*
X193245625Y-85932313D01*
X193160553Y-86360000D01*
X193245625Y-86787687D01*
X193487890Y-87150263D01*
X193850466Y-87392528D01*
X194278153Y-87477600D01*
X195357847Y-87477600D01*
X195785534Y-87392528D01*
X196148110Y-87150263D01*
X196390375Y-86787687D01*
X196475447Y-86360000D01*
X196475447Y-88900000D01*
X196390375Y-88472313D01*
X196148110Y-88109737D01*
X195785534Y-87867472D01*
X195357847Y-87782400D01*
X194278153Y-87782400D01*
X193850466Y-87867472D01*
X193487890Y-88109737D01*
X193245625Y-88472313D01*
X193160553Y-88900000D01*
X193245625Y-89327687D01*
X193487890Y-89690263D01*
X193850466Y-89932528D01*
X194278153Y-90017600D01*
X195357847Y-90017600D01*
X195785534Y-89932528D01*
X196148110Y-89690263D01*
X196390375Y-89327687D01*
X196475447Y-88900000D01*
X196475447Y-91440000D01*
X196390375Y-91012313D01*
X196148110Y-90649737D01*
X195785534Y-90407472D01*
X195357847Y-90322400D01*
X194278153Y-90322400D01*
X193850466Y-90407472D01*
X193487890Y-90649737D01*
X193245625Y-91012313D01*
X193160553Y-91440000D01*
X193245625Y-91867687D01*
X193487890Y-92230263D01*
X193850466Y-92472528D01*
X194278153Y-92557600D01*
X195357847Y-92557600D01*
X195785534Y-92472528D01*
X196148110Y-92230263D01*
X196390375Y-91867687D01*
X196475447Y-91440000D01*
X196475447Y-93980000D01*
X196390375Y-93552313D01*
X196148110Y-93189737D01*
X195785534Y-92947472D01*
X195357847Y-92862400D01*
X194278153Y-92862400D01*
X193850466Y-92947472D01*
X193487890Y-93189737D01*
X193245625Y-93552313D01*
X193160553Y-93980000D01*
X193245625Y-94407687D01*
X193487890Y-94770263D01*
X193850466Y-95012528D01*
X194278153Y-95097600D01*
X195357847Y-95097600D01*
X195785534Y-95012528D01*
X196148110Y-94770263D01*
X196390375Y-94407687D01*
X196475447Y-93980000D01*
X196475447Y-96520000D01*
X196390375Y-96092313D01*
X196148110Y-95729737D01*
X195785534Y-95487472D01*
X195357847Y-95402400D01*
X194278153Y-95402400D01*
X193850466Y-95487472D01*
X193487890Y-95729737D01*
X193245625Y-96092313D01*
X193160553Y-96520000D01*
X193245625Y-96947687D01*
X193487890Y-97310263D01*
X193850466Y-97552528D01*
X194278153Y-97637600D01*
X195357847Y-97637600D01*
X195785534Y-97552528D01*
X196148110Y-97310263D01*
X196390375Y-96947687D01*
X196475447Y-96520000D01*
X196475447Y-99060000D01*
X196390375Y-98632313D01*
X196148110Y-98269737D01*
X195785534Y-98027472D01*
X195357847Y-97942400D01*
X194278153Y-97942400D01*
X193850466Y-98027472D01*
X193487890Y-98269737D01*
X193245625Y-98632313D01*
X193160553Y-99060000D01*
X193245625Y-99487687D01*
X193487890Y-99850263D01*
X193850466Y-100092528D01*
X194278153Y-100177600D01*
X195357847Y-100177600D01*
X195785534Y-100092528D01*
X196148110Y-99850263D01*
X196390375Y-99487687D01*
X196475447Y-99060000D01*
X196475447Y-101600000D01*
X196390375Y-101172313D01*
X196148110Y-100809737D01*
X195785534Y-100567472D01*
X195357847Y-100482400D01*
X194278153Y-100482400D01*
X193850466Y-100567472D01*
X193487890Y-100809737D01*
X193333231Y-101041200D01*
X193090500Y-101041200D01*
X192919447Y-101075224D01*
X192919447Y-99060000D01*
X192919447Y-96520000D01*
X192919447Y-93980000D01*
X192919447Y-91440000D01*
X192919447Y-88900000D01*
X192919447Y-86360000D01*
X192919447Y-83820000D01*
X192834375Y-83392313D01*
X192592110Y-83029737D01*
X192229534Y-82787472D01*
X191801847Y-82702400D01*
X190722153Y-82702400D01*
X190294466Y-82787472D01*
X189931890Y-83029737D01*
X189689625Y-83392313D01*
X189604553Y-83820000D01*
X189689625Y-84247687D01*
X189931890Y-84610263D01*
X190294466Y-84852528D01*
X190722153Y-84937600D01*
X191801847Y-84937600D01*
X192229534Y-84852528D01*
X192592110Y-84610263D01*
X192834375Y-84247687D01*
X192919447Y-83820000D01*
X192919447Y-86360000D01*
X192834375Y-85932313D01*
X192592110Y-85569737D01*
X192229534Y-85327472D01*
X191801847Y-85242400D01*
X190722153Y-85242400D01*
X190294466Y-85327472D01*
X189931890Y-85569737D01*
X189689625Y-85932313D01*
X189604553Y-86360000D01*
X189689625Y-86787687D01*
X189931890Y-87150263D01*
X190294466Y-87392528D01*
X190722153Y-87477600D01*
X191801847Y-87477600D01*
X192229534Y-87392528D01*
X192592110Y-87150263D01*
X192834375Y-86787687D01*
X192919447Y-86360000D01*
X192919447Y-88900000D01*
X192834375Y-88472313D01*
X192592110Y-88109737D01*
X192229534Y-87867472D01*
X191801847Y-87782400D01*
X190722153Y-87782400D01*
X190294466Y-87867472D01*
X189931890Y-88109737D01*
X189689625Y-88472313D01*
X189604553Y-88900000D01*
X189689625Y-89327687D01*
X189931890Y-89690263D01*
X190294466Y-89932528D01*
X190722153Y-90017600D01*
X191801847Y-90017600D01*
X192229534Y-89932528D01*
X192592110Y-89690263D01*
X192834375Y-89327687D01*
X192919447Y-88900000D01*
X192919447Y-91440000D01*
X192834375Y-91012313D01*
X192592110Y-90649737D01*
X192229534Y-90407472D01*
X191801847Y-90322400D01*
X190722153Y-90322400D01*
X190294466Y-90407472D01*
X189931890Y-90649737D01*
X189689625Y-91012313D01*
X189604553Y-91440000D01*
X189689625Y-91867687D01*
X189931890Y-92230263D01*
X190294466Y-92472528D01*
X190722153Y-92557600D01*
X191801847Y-92557600D01*
X192229534Y-92472528D01*
X192592110Y-92230263D01*
X192834375Y-91867687D01*
X192919447Y-91440000D01*
X192919447Y-93980000D01*
X192834375Y-93552313D01*
X192592110Y-93189737D01*
X192229534Y-92947472D01*
X191801847Y-92862400D01*
X190722153Y-92862400D01*
X190294466Y-92947472D01*
X189931890Y-93189737D01*
X189689625Y-93552313D01*
X189604553Y-93980000D01*
X189689625Y-94407687D01*
X189931890Y-94770263D01*
X190294466Y-95012528D01*
X190722153Y-95097600D01*
X191801847Y-95097600D01*
X192229534Y-95012528D01*
X192592110Y-94770263D01*
X192834375Y-94407687D01*
X192919447Y-93980000D01*
X192919447Y-96520000D01*
X192834375Y-96092313D01*
X192592110Y-95729737D01*
X192229534Y-95487472D01*
X191801847Y-95402400D01*
X190722153Y-95402400D01*
X190294466Y-95487472D01*
X189931890Y-95729737D01*
X189689625Y-96092313D01*
X189604553Y-96520000D01*
X189689625Y-96947687D01*
X189931890Y-97310263D01*
X190294466Y-97552528D01*
X190722153Y-97637600D01*
X191801847Y-97637600D01*
X192229534Y-97552528D01*
X192592110Y-97310263D01*
X192834375Y-96947687D01*
X192919447Y-96520000D01*
X192919447Y-99060000D01*
X192834375Y-98632313D01*
X192592110Y-98269737D01*
X192229534Y-98027472D01*
X191801847Y-97942400D01*
X190722153Y-97942400D01*
X190294466Y-98027472D01*
X189931890Y-98269737D01*
X189689625Y-98632313D01*
X189604553Y-99060000D01*
X189689625Y-99487687D01*
X189931890Y-99850263D01*
X190294466Y-100092528D01*
X190722153Y-100177600D01*
X191801847Y-100177600D01*
X192229534Y-100092528D01*
X192592110Y-99850263D01*
X192834375Y-99487687D01*
X192919447Y-99060000D01*
X192919447Y-101075224D01*
X192876656Y-101083736D01*
X192806508Y-101130607D01*
X192592110Y-100809737D01*
X192229534Y-100567472D01*
X191801847Y-100482400D01*
X190722153Y-100482400D01*
X190294466Y-100567472D01*
X189931890Y-100809737D01*
X189689625Y-101172313D01*
X189604553Y-101600000D01*
X189689625Y-102027687D01*
X189845385Y-102260800D01*
X187804161Y-102260800D01*
X187608292Y-102064930D01*
X187608439Y-101896648D01*
X187522700Y-101689146D01*
X187752687Y-101643399D01*
X188115263Y-101401134D01*
X188357528Y-101038558D01*
X188442600Y-100610871D01*
X188442600Y-100049129D01*
X188357528Y-99621442D01*
X188115263Y-99258866D01*
X187752687Y-99016601D01*
X187325000Y-98931529D01*
X187299500Y-98936601D01*
X187299500Y-87756600D01*
X187253097Y-87523316D01*
X187120952Y-87325548D01*
X186359352Y-86563948D01*
X186161584Y-86431803D01*
X185928300Y-86385400D01*
X185630472Y-86385400D01*
X185431753Y-86087994D01*
X185015615Y-85809940D01*
X184759600Y-85759015D01*
X184759600Y-85559600D01*
X184713197Y-85326316D01*
X184581052Y-85128548D01*
X184420131Y-85021023D01*
X184420131Y-84942700D01*
X188293238Y-84942700D01*
X188430707Y-85080169D01*
X188430561Y-85248452D01*
X188552113Y-85542628D01*
X188776988Y-85767896D01*
X189070952Y-85889961D01*
X189389252Y-85890239D01*
X189683428Y-85768687D01*
X189908696Y-85543812D01*
X190030761Y-85249848D01*
X190031039Y-84931548D01*
X189909487Y-84637372D01*
X189684612Y-84412104D01*
X189390648Y-84290039D01*
X189220952Y-84289890D01*
X188919831Y-83988769D01*
X188738544Y-83867636D01*
X188524700Y-83825100D01*
X184420131Y-83825100D01*
X184420131Y-83718400D01*
X184397582Y-83602181D01*
X184330483Y-83500035D01*
X184229187Y-83431659D01*
X184109360Y-83407629D01*
X183550560Y-83407629D01*
X183434341Y-83430178D01*
X183354617Y-83482548D01*
X183279227Y-83431659D01*
X183159400Y-83407629D01*
X182600600Y-83407629D01*
X182484381Y-83430178D01*
X182404657Y-83482548D01*
X182329267Y-83431659D01*
X182209440Y-83407629D01*
X181650640Y-83407629D01*
X181534421Y-83430178D01*
X181432275Y-83497277D01*
X181363899Y-83598573D01*
X181339869Y-83718400D01*
X181339869Y-85049360D01*
X181362418Y-85165579D01*
X181371200Y-85178947D01*
X181371200Y-87315000D01*
X181413736Y-87528844D01*
X181534869Y-87710131D01*
X182517433Y-88692695D01*
X182517433Y-90462100D01*
X182543741Y-90597689D01*
X182622023Y-90716859D01*
X182740201Y-90796631D01*
X182880000Y-90824667D01*
X185420000Y-90824667D01*
X185555589Y-90798359D01*
X185674759Y-90720077D01*
X185754531Y-90601899D01*
X185782567Y-90462100D01*
X185782567Y-88607900D01*
X185756259Y-88472311D01*
X185677977Y-88353141D01*
X185559799Y-88273369D01*
X185420000Y-88245333D01*
X184687466Y-88245333D01*
X185015615Y-88180060D01*
X185431753Y-87902006D01*
X185630472Y-87604600D01*
X185675796Y-87604600D01*
X186080300Y-88009104D01*
X186080300Y-99720400D01*
X186054700Y-99720400D01*
X185821416Y-99766803D01*
X185623648Y-99898948D01*
X185424248Y-100098348D01*
X185292103Y-100296116D01*
X185245700Y-100529400D01*
X185245700Y-106988000D01*
X185292103Y-107221284D01*
X185424248Y-107419052D01*
X185973629Y-107968433D01*
X185420000Y-107968433D01*
X185284411Y-107994741D01*
X185165241Y-108073023D01*
X185085469Y-108191201D01*
X185057433Y-108331000D01*
X185057433Y-109601000D01*
X185079445Y-109714450D01*
X184468348Y-110325548D01*
X184385983Y-110448815D01*
X184385983Y-103363398D01*
X184385983Y-102376602D01*
X184333176Y-102170006D01*
X183906347Y-101424179D01*
X183226593Y-100898465D01*
X182397400Y-100672900D01*
X181762400Y-100672900D01*
X181762400Y-102717600D01*
X184284013Y-102717600D01*
X184385983Y-102376602D01*
X184385983Y-103363398D01*
X184284013Y-103022400D01*
X181762400Y-103022400D01*
X181762400Y-105067100D01*
X182397400Y-105067100D01*
X183226593Y-104841535D01*
X183906347Y-104315821D01*
X184333176Y-103569994D01*
X184385983Y-103363398D01*
X184385983Y-110448815D01*
X184336203Y-110523316D01*
X184289800Y-110756600D01*
X184289800Y-112855600D01*
X184336203Y-113088884D01*
X184468348Y-113286652D01*
X188460500Y-117278804D01*
X188460500Y-119560011D01*
X188392204Y-119628188D01*
X188270139Y-119922152D01*
X188269861Y-120240452D01*
X188391413Y-120534628D01*
X188616288Y-120759896D01*
X188910252Y-120881961D01*
X189228552Y-120882239D01*
X189522728Y-120760687D01*
X189747996Y-120535812D01*
X189870061Y-120241848D01*
X189870204Y-120077943D01*
X189931890Y-120170263D01*
X190294466Y-120412528D01*
X190722153Y-120497600D01*
X191801847Y-120497600D01*
X192229534Y-120412528D01*
X192592110Y-120170263D01*
X192834375Y-119807687D01*
X192919447Y-119380000D01*
X192834375Y-118952313D01*
X192592110Y-118589737D01*
X192229534Y-118347472D01*
X191801847Y-118262400D01*
X190722153Y-118262400D01*
X190294466Y-118347472D01*
X189931890Y-118589737D01*
X189689625Y-118952313D01*
X189679700Y-119002209D01*
X189679700Y-117217790D01*
X189689625Y-117267687D01*
X189931890Y-117630263D01*
X190294466Y-117872528D01*
X190722153Y-117957600D01*
X191801847Y-117957600D01*
X192229534Y-117872528D01*
X192592110Y-117630263D01*
X192834375Y-117267687D01*
X192919447Y-116840000D01*
X192919447Y-114300000D01*
X192919447Y-111760000D01*
X192919447Y-109220000D01*
X192919447Y-106680000D01*
X192834375Y-106252313D01*
X192592110Y-105889737D01*
X192229534Y-105647472D01*
X191801847Y-105562400D01*
X190722153Y-105562400D01*
X190294466Y-105647472D01*
X189931890Y-105889737D01*
X189689625Y-106252313D01*
X189604553Y-106680000D01*
X189689625Y-107107687D01*
X189931890Y-107470263D01*
X190294466Y-107712528D01*
X190722153Y-107797600D01*
X191801847Y-107797600D01*
X192229534Y-107712528D01*
X192592110Y-107470263D01*
X192834375Y-107107687D01*
X192919447Y-106680000D01*
X192919447Y-109220000D01*
X192834375Y-108792313D01*
X192592110Y-108429737D01*
X192229534Y-108187472D01*
X191801847Y-108102400D01*
X190722153Y-108102400D01*
X190294466Y-108187472D01*
X189931890Y-108429737D01*
X189689625Y-108792313D01*
X189604553Y-109220000D01*
X189689625Y-109647687D01*
X189931890Y-110010263D01*
X190294466Y-110252528D01*
X190722153Y-110337600D01*
X191801847Y-110337600D01*
X192229534Y-110252528D01*
X192592110Y-110010263D01*
X192834375Y-109647687D01*
X192919447Y-109220000D01*
X192919447Y-111760000D01*
X192834375Y-111332313D01*
X192592110Y-110969737D01*
X192229534Y-110727472D01*
X191801847Y-110642400D01*
X190722153Y-110642400D01*
X190294466Y-110727472D01*
X189931890Y-110969737D01*
X189689625Y-111332313D01*
X189604553Y-111760000D01*
X189689625Y-112187687D01*
X189931890Y-112550263D01*
X190294466Y-112792528D01*
X190722153Y-112877600D01*
X191801847Y-112877600D01*
X192229534Y-112792528D01*
X192592110Y-112550263D01*
X192834375Y-112187687D01*
X192919447Y-111760000D01*
X192919447Y-114300000D01*
X192834375Y-113872313D01*
X192592110Y-113509737D01*
X192229534Y-113267472D01*
X191801847Y-113182400D01*
X190722153Y-113182400D01*
X190294466Y-113267472D01*
X189931890Y-113509737D01*
X189689625Y-113872313D01*
X189604553Y-114300000D01*
X189689625Y-114727687D01*
X189931890Y-115090263D01*
X190294466Y-115332528D01*
X190722153Y-115417600D01*
X191801847Y-115417600D01*
X192229534Y-115332528D01*
X192592110Y-115090263D01*
X192834375Y-114727687D01*
X192919447Y-114300000D01*
X192919447Y-116840000D01*
X192834375Y-116412313D01*
X192592110Y-116049737D01*
X192229534Y-115807472D01*
X191801847Y-115722400D01*
X190722153Y-115722400D01*
X190294466Y-115807472D01*
X189931890Y-116049737D01*
X189689625Y-116412313D01*
X189618348Y-116770644D01*
X189580367Y-116713801D01*
X189501153Y-116595248D01*
X185917471Y-113011567D01*
X187960000Y-113011567D01*
X188095589Y-112985259D01*
X188214759Y-112906977D01*
X188294531Y-112788799D01*
X188322567Y-112649000D01*
X188322567Y-111379000D01*
X188296259Y-111243411D01*
X188217977Y-111124241D01*
X188138327Y-111070476D01*
X188911852Y-110296952D01*
X189043997Y-110099184D01*
X189090400Y-109865900D01*
X189090400Y-108090100D01*
X189043997Y-107856816D01*
X188911852Y-107659048D01*
X187934600Y-106681796D01*
X187934600Y-106601848D01*
X188115263Y-106481134D01*
X188357528Y-106118558D01*
X188442600Y-105690871D01*
X188442600Y-105129129D01*
X188357528Y-104701442D01*
X188115263Y-104338866D01*
X187752687Y-104096601D01*
X187325000Y-104011529D01*
X186897313Y-104096601D01*
X186534737Y-104338866D01*
X186464900Y-104443384D01*
X186464900Y-102778884D01*
X186648352Y-102855061D01*
X186818047Y-102855209D01*
X187177569Y-103214731D01*
X187358856Y-103335864D01*
X187358857Y-103335864D01*
X187572700Y-103378400D01*
X189912738Y-103378400D01*
X189689625Y-103712313D01*
X189604553Y-104140000D01*
X189689625Y-104567687D01*
X189931890Y-104930263D01*
X190294466Y-105172528D01*
X190722153Y-105257600D01*
X191801847Y-105257600D01*
X192229534Y-105172528D01*
X192592110Y-104930263D01*
X192834375Y-104567687D01*
X192919447Y-104140000D01*
X192834375Y-103712313D01*
X192592110Y-103349737D01*
X192575636Y-103338729D01*
X192590043Y-103335864D01*
X192590044Y-103335864D01*
X192771331Y-103214731D01*
X193485631Y-102500431D01*
X193537219Y-102423223D01*
X193850466Y-102632528D01*
X194278153Y-102717600D01*
X195357847Y-102717600D01*
X195785534Y-102632528D01*
X196148110Y-102390263D01*
X196390375Y-102027687D01*
X196475447Y-101600000D01*
X196475447Y-104140000D01*
X196390375Y-103712313D01*
X196148110Y-103349737D01*
X195785534Y-103107472D01*
X195357847Y-103022400D01*
X194278153Y-103022400D01*
X193850466Y-103107472D01*
X193487890Y-103349737D01*
X193245625Y-103712313D01*
X193160553Y-104140000D01*
X193245625Y-104567687D01*
X193487890Y-104930263D01*
X193850466Y-105172528D01*
X194278153Y-105257600D01*
X195357847Y-105257600D01*
X195785534Y-105172528D01*
X196148110Y-104930263D01*
X196390375Y-104567687D01*
X196475447Y-104140000D01*
X196475447Y-106680000D01*
X196390375Y-106252313D01*
X196148110Y-105889737D01*
X195785534Y-105647472D01*
X195357847Y-105562400D01*
X194278153Y-105562400D01*
X193850466Y-105647472D01*
X193487890Y-105889737D01*
X193245625Y-106252313D01*
X193160553Y-106680000D01*
X193245625Y-107107687D01*
X193487890Y-107470263D01*
X193850466Y-107712528D01*
X194278153Y-107797600D01*
X195357847Y-107797600D01*
X195785534Y-107712528D01*
X196148110Y-107470263D01*
X196390375Y-107107687D01*
X196475447Y-106680000D01*
X196475447Y-109220000D01*
X196390375Y-108792313D01*
X196148110Y-108429737D01*
X195785534Y-108187472D01*
X195357847Y-108102400D01*
X194278153Y-108102400D01*
X193850466Y-108187472D01*
X193487890Y-108429737D01*
X193245625Y-108792313D01*
X193160553Y-109220000D01*
X193245625Y-109647687D01*
X193487890Y-110010263D01*
X193850466Y-110252528D01*
X194278153Y-110337600D01*
X195357847Y-110337600D01*
X195785534Y-110252528D01*
X196148110Y-110010263D01*
X196390375Y-109647687D01*
X196475447Y-109220000D01*
X196475447Y-111760000D01*
X196390375Y-111332313D01*
X196148110Y-110969737D01*
X195785534Y-110727472D01*
X195357847Y-110642400D01*
X194278153Y-110642400D01*
X193850466Y-110727472D01*
X193487890Y-110969737D01*
X193245625Y-111332313D01*
X193160553Y-111760000D01*
X193245625Y-112187687D01*
X193487890Y-112550263D01*
X193850466Y-112792528D01*
X194278153Y-112877600D01*
X195357847Y-112877600D01*
X195785534Y-112792528D01*
X196148110Y-112550263D01*
X196390375Y-112187687D01*
X196475447Y-111760000D01*
X196475447Y-114300000D01*
X196390375Y-113872313D01*
X196148110Y-113509737D01*
X195785534Y-113267472D01*
X195357847Y-113182400D01*
X194278153Y-113182400D01*
X193850466Y-113267472D01*
X193487890Y-113509737D01*
X193245625Y-113872313D01*
X193160553Y-114300000D01*
X193245625Y-114727687D01*
X193487890Y-115090263D01*
X193850466Y-115332528D01*
X194278153Y-115417600D01*
X195357847Y-115417600D01*
X195785534Y-115332528D01*
X196148110Y-115090263D01*
X196390375Y-114727687D01*
X196475447Y-114300000D01*
X196475447Y-116840000D01*
X196390375Y-116412313D01*
X196148110Y-116049737D01*
X195785534Y-115807472D01*
X195357847Y-115722400D01*
X194278153Y-115722400D01*
X193850466Y-115807472D01*
X193487890Y-116049737D01*
X193245625Y-116412313D01*
X193160553Y-116840000D01*
X193245625Y-117267687D01*
X193487890Y-117630263D01*
X193850466Y-117872528D01*
X194278153Y-117957600D01*
X195357847Y-117957600D01*
X195785534Y-117872528D01*
X196148110Y-117630263D01*
X196390375Y-117267687D01*
X196475447Y-116840000D01*
X196475447Y-119380000D01*
X196390375Y-118952313D01*
X196148110Y-118589737D01*
X195785534Y-118347472D01*
X195357847Y-118262400D01*
X194278153Y-118262400D01*
X193850466Y-118347472D01*
X193487890Y-118589737D01*
X193245625Y-118952313D01*
X193160553Y-119380000D01*
X193245625Y-119807687D01*
X193487890Y-120170263D01*
X193850466Y-120412528D01*
X194278153Y-120497600D01*
X195357847Y-120497600D01*
X195785534Y-120412528D01*
X196148110Y-120170263D01*
X196390375Y-119807687D01*
X196475447Y-119380000D01*
X196475447Y-121920000D01*
X196390375Y-121492313D01*
X196148110Y-121129737D01*
X195785534Y-120887472D01*
X195357847Y-120802400D01*
X194278153Y-120802400D01*
X193850466Y-120887472D01*
X193487890Y-121129737D01*
X193245625Y-121492313D01*
X193160553Y-121920000D01*
X193245625Y-122347687D01*
X193487890Y-122710263D01*
X193850466Y-122952528D01*
X194278153Y-123037600D01*
X195357847Y-123037600D01*
X195785534Y-122952528D01*
X196148110Y-122710263D01*
X196390375Y-122347687D01*
X196475447Y-121920000D01*
X196475447Y-126154791D01*
X196281425Y-125685223D01*
X195628216Y-125030873D01*
X194774320Y-124676304D01*
X193849736Y-124675497D01*
X192995223Y-125028575D01*
X192919447Y-125104218D01*
X192919447Y-121920000D01*
X192834375Y-121492313D01*
X192592110Y-121129737D01*
X192229534Y-120887472D01*
X191801847Y-120802400D01*
X190722153Y-120802400D01*
X190294466Y-120887472D01*
X189931890Y-121129737D01*
X189689625Y-121492313D01*
X189604553Y-121920000D01*
X189689625Y-122347687D01*
X189931890Y-122710263D01*
X190294466Y-122952528D01*
X190722153Y-123037600D01*
X191801847Y-123037600D01*
X192229534Y-122952528D01*
X192592110Y-122710263D01*
X192834375Y-122347687D01*
X192919447Y-121920000D01*
X192919447Y-125104218D01*
X192340873Y-125681784D01*
X191986304Y-126535680D01*
X191985497Y-127460264D01*
X192338575Y-128314777D01*
X192991784Y-128969127D01*
X193845680Y-129323696D01*
X194770264Y-129324503D01*
X195624777Y-128971425D01*
X196279127Y-128318216D01*
X196633696Y-127464320D01*
X196634503Y-126539736D01*
X196634503Y-129755900D01*
X188991861Y-129755900D01*
X189625131Y-129122631D01*
X189746264Y-128941344D01*
X189746264Y-128941343D01*
X189788799Y-128727500D01*
X189788800Y-128727500D01*
X189788800Y-128484768D01*
X190020263Y-128330110D01*
X190262528Y-127967534D01*
X190347600Y-127539847D01*
X190347600Y-126460153D01*
X190262528Y-126032466D01*
X190020263Y-125669890D01*
X189657687Y-125427625D01*
X189230000Y-125342553D01*
X188802313Y-125427625D01*
X188439737Y-125669890D01*
X188197472Y-126032466D01*
X188112400Y-126460153D01*
X188112400Y-127539847D01*
X188197472Y-127967534D01*
X188439737Y-128330110D01*
X188671200Y-128484768D01*
X188671200Y-128496038D01*
X188337038Y-128830200D01*
X177068371Y-128830200D01*
X177088800Y-128727500D01*
X177088800Y-128484768D01*
X177320263Y-128330110D01*
X177562528Y-127967534D01*
X177647600Y-127539847D01*
X177647600Y-126460153D01*
X177562528Y-126032466D01*
X177428113Y-125831300D01*
X178171886Y-125831300D01*
X178037472Y-126032466D01*
X177952400Y-126460153D01*
X177952400Y-127539847D01*
X178037472Y-127967534D01*
X178279737Y-128330110D01*
X178642313Y-128572375D01*
X179070000Y-128657447D01*
X179497687Y-128572375D01*
X179860263Y-128330110D01*
X180102528Y-127967534D01*
X180187600Y-127539847D01*
X180187600Y-126460153D01*
X180102528Y-126032466D01*
X179968113Y-125831300D01*
X180711886Y-125831300D01*
X180577472Y-126032466D01*
X180492400Y-126460153D01*
X180492400Y-127539847D01*
X180577472Y-127967534D01*
X180819737Y-128330110D01*
X181182313Y-128572375D01*
X181610000Y-128657447D01*
X182037687Y-128572375D01*
X182400263Y-128330110D01*
X182642528Y-127967534D01*
X182727600Y-127539847D01*
X182727600Y-126460153D01*
X182642528Y-126032466D01*
X182400263Y-125669890D01*
X182168800Y-125515231D01*
X182168800Y-125272500D01*
X182126264Y-125058656D01*
X182005131Y-124877369D01*
X181823844Y-124756236D01*
X181610000Y-124713700D01*
X167803862Y-124713700D01*
X162871931Y-119781769D01*
X162690644Y-119660636D01*
X162476800Y-119618100D01*
X154940762Y-119618100D01*
X141697062Y-106374400D01*
X141985338Y-106374400D01*
X154861669Y-119250731D01*
X155042956Y-119371864D01*
X155042957Y-119371864D01*
X155256800Y-119414400D01*
X162792938Y-119414400D01*
X167726869Y-124348331D01*
X167908156Y-124469464D01*
X167908157Y-124469464D01*
X168122000Y-124512000D01*
X182599237Y-124512000D01*
X183591200Y-125503962D01*
X183591200Y-125515231D01*
X183359737Y-125669890D01*
X183117472Y-126032466D01*
X183032400Y-126460153D01*
X183032400Y-127539847D01*
X183117472Y-127967534D01*
X183359737Y-128330110D01*
X183722313Y-128572375D01*
X184150000Y-128657447D01*
X184577687Y-128572375D01*
X184940263Y-128330110D01*
X185182528Y-127967534D01*
X185267600Y-127539847D01*
X185267600Y-126460153D01*
X185182528Y-126032466D01*
X184940263Y-125669890D01*
X184708800Y-125515231D01*
X184708800Y-125272500D01*
X184666264Y-125058657D01*
X184666264Y-125058656D01*
X184545131Y-124877369D01*
X183518962Y-123851200D01*
X184478438Y-123851200D01*
X186131200Y-125503962D01*
X186131200Y-125515231D01*
X185899737Y-125669890D01*
X185657472Y-126032466D01*
X185572400Y-126460153D01*
X185572400Y-127539847D01*
X185657472Y-127967534D01*
X185899737Y-128330110D01*
X186262313Y-128572375D01*
X186690000Y-128657447D01*
X187117687Y-128572375D01*
X187480263Y-128330110D01*
X187722528Y-127967534D01*
X187807600Y-127539847D01*
X187807600Y-126460153D01*
X187722528Y-126032466D01*
X187480263Y-125669890D01*
X187248800Y-125515231D01*
X187248800Y-125272500D01*
X187206264Y-125058657D01*
X187206264Y-125058656D01*
X187085131Y-124877369D01*
X185398162Y-123190400D01*
X186252700Y-123190400D01*
X186466543Y-123147864D01*
X186466544Y-123147864D01*
X186647831Y-123026731D01*
X187161331Y-122513231D01*
X187161332Y-122513231D01*
X187282464Y-122331944D01*
X187282465Y-122331943D01*
X187325000Y-122118100D01*
X187325000Y-122090300D01*
X187444096Y-121971412D01*
X187566161Y-121677448D01*
X187566439Y-121359148D01*
X187444887Y-121064972D01*
X187220012Y-120839704D01*
X186926048Y-120717639D01*
X186607748Y-120717361D01*
X186398157Y-120803962D01*
X186391259Y-120768411D01*
X186312977Y-120649241D01*
X186194799Y-120569469D01*
X186055000Y-120541433D01*
X185547000Y-120541433D01*
X185547000Y-120243300D01*
X185531112Y-120163427D01*
X185531339Y-119903948D01*
X185409787Y-119609772D01*
X185288793Y-119488567D01*
X186055000Y-119488567D01*
X186190589Y-119462259D01*
X186309759Y-119383977D01*
X186389531Y-119265799D01*
X186417567Y-119126000D01*
X186417567Y-117856000D01*
X186391259Y-117720411D01*
X186312977Y-117601241D01*
X186194799Y-117521469D01*
X186055000Y-117493433D01*
X185343800Y-117493433D01*
X185343800Y-117398500D01*
X185301264Y-117184657D01*
X185301264Y-117184656D01*
X185180131Y-117003369D01*
X184126754Y-115949992D01*
X184232161Y-115696148D01*
X184232439Y-115377848D01*
X184110887Y-115083672D01*
X183886012Y-114858404D01*
X183592048Y-114736339D01*
X183422352Y-114736190D01*
X179469400Y-110783238D01*
X179469400Y-108821584D01*
X179550513Y-108942979D01*
X180180900Y-109364190D01*
X180924492Y-109512100D01*
X182295508Y-109512100D01*
X183039100Y-109364190D01*
X183669487Y-108942979D01*
X184090698Y-108312592D01*
X184238608Y-107569000D01*
X184090698Y-106825408D01*
X183669487Y-106195021D01*
X183039100Y-105773810D01*
X182295508Y-105625900D01*
X180924492Y-105625900D01*
X180180900Y-105773810D01*
X179550513Y-106195021D01*
X179469400Y-106316415D01*
X179469400Y-104436273D01*
X179993407Y-104841535D01*
X180822600Y-105067100D01*
X181457600Y-105067100D01*
X181457600Y-103022400D01*
X181437600Y-103022400D01*
X181437600Y-102717600D01*
X181457600Y-102717600D01*
X181457600Y-100672900D01*
X180822600Y-100672900D01*
X179993407Y-100898465D01*
X179469400Y-101303726D01*
X179469400Y-99902362D01*
X180702531Y-98669231D01*
X180702532Y-98669231D01*
X180823664Y-98487944D01*
X180823665Y-98487943D01*
X180866200Y-98274100D01*
X180866200Y-80101155D01*
X181051200Y-80224768D01*
X181051200Y-80467500D01*
X181093736Y-80681344D01*
X181214869Y-80862631D01*
X181371200Y-81018962D01*
X181371200Y-81189996D01*
X181363899Y-81200813D01*
X181339869Y-81320640D01*
X181339869Y-82651600D01*
X181362418Y-82767819D01*
X181429517Y-82869965D01*
X181530813Y-82938341D01*
X181650640Y-82962371D01*
X182209440Y-82962371D01*
X182325659Y-82939822D01*
X182405382Y-82887451D01*
X182480773Y-82938341D01*
X182600600Y-82962371D01*
X183159400Y-82962371D01*
X183275619Y-82939822D01*
X183355342Y-82887451D01*
X183430733Y-82938341D01*
X183550560Y-82962371D01*
X184109360Y-82962371D01*
X184225579Y-82939822D01*
X184327725Y-82872723D01*
X184396101Y-82771427D01*
X184420131Y-82651600D01*
X184420131Y-81320640D01*
X184397582Y-81204421D01*
X184388800Y-81191052D01*
X184388800Y-81018962D01*
X184545131Y-80862632D01*
X184545131Y-80862631D01*
X184605697Y-80771987D01*
X184666264Y-80681344D01*
X184666264Y-80681343D01*
X184708799Y-80467500D01*
X184708800Y-80467500D01*
X184708800Y-80224768D01*
X184940263Y-80070110D01*
X185182528Y-79707534D01*
X185267600Y-79279847D01*
X185267600Y-78200153D01*
X185182528Y-77772466D01*
X184940263Y-77409890D01*
X184577687Y-77167625D01*
X184329420Y-77118241D01*
X184583462Y-76864200D01*
X186549430Y-76864200D01*
X185990873Y-77421784D01*
X185636304Y-78275680D01*
X185635497Y-79200264D01*
X185988575Y-80054777D01*
X186641784Y-80709127D01*
X187495680Y-81063696D01*
X188420264Y-81064503D01*
X189274777Y-80711425D01*
X189929127Y-80058216D01*
X190283696Y-79204320D01*
X190284503Y-78279736D01*
X189931425Y-77425223D01*
X189371380Y-76864200D01*
X191036144Y-76864200D01*
X190979737Y-76901890D01*
X190737472Y-77264466D01*
X190652400Y-77692153D01*
X190652400Y-78771847D01*
X190737472Y-79199534D01*
X190979737Y-79562110D01*
X191211200Y-79716768D01*
X191211200Y-79959500D01*
X191251559Y-80162400D01*
X190722153Y-80162400D01*
X190294466Y-80247472D01*
X189931890Y-80489737D01*
X189689625Y-80852313D01*
X189604553Y-81280000D01*
X189689625Y-81707687D01*
X189931890Y-82070263D01*
X190294466Y-82312528D01*
X190722153Y-82397600D01*
X191801847Y-82397600D01*
X192229534Y-82312528D01*
X192592110Y-82070263D01*
X192834375Y-81707687D01*
X192919447Y-81280000D01*
X192834375Y-80852313D01*
X192644938Y-80568800D01*
X193435061Y-80568800D01*
X193245625Y-80852313D01*
X193160553Y-81280000D01*
X193245625Y-81707687D01*
X193487890Y-82070263D01*
X193850466Y-82312528D01*
X194278153Y-82397600D01*
X195357847Y-82397600D01*
X195785534Y-82312528D01*
X196148110Y-82070263D01*
X196390375Y-81707687D01*
X196475447Y-81280000D01*
X196390375Y-80852313D01*
X196200938Y-80568800D01*
X197503433Y-80568800D01*
X197503433Y-81280000D01*
X197529741Y-81415589D01*
X197608023Y-81534759D01*
X197726201Y-81614531D01*
X197866000Y-81642567D01*
X199136000Y-81642567D01*
X199271589Y-81616259D01*
X199390759Y-81537977D01*
X199470531Y-81419799D01*
X199498567Y-81280000D01*
X199498567Y-78740000D01*
X199472259Y-78604411D01*
X199393977Y-78485241D01*
X199275799Y-78405469D01*
X199136000Y-78377433D01*
X197866000Y-78377433D01*
X197730411Y-78403741D01*
X197611241Y-78482023D01*
X197531469Y-78600201D01*
X197503433Y-78740000D01*
X197503433Y-79451200D01*
X195174370Y-79451200D01*
X195342528Y-79199534D01*
X195427600Y-78771847D01*
X195427600Y-77692153D01*
X195342528Y-77264466D01*
X195100263Y-76901890D01*
X194737687Y-76659625D01*
X194310000Y-76574553D01*
X193882313Y-76659625D01*
X193519737Y-76901890D01*
X193277472Y-77264466D01*
X193192400Y-77692153D01*
X193192400Y-78771847D01*
X193277472Y-79199534D01*
X193445629Y-79451200D01*
X192634370Y-79451200D01*
X192802528Y-79199534D01*
X192887600Y-78771847D01*
X192887600Y-77692153D01*
X192802528Y-77264466D01*
X192560263Y-76901890D01*
X192328800Y-76747231D01*
X192328800Y-76504500D01*
X192286264Y-76290657D01*
X192286264Y-76290656D01*
X192165131Y-76109369D01*
X192039862Y-75984100D01*
X211035900Y-75984100D01*
X211035900Y-129755900D01*
M02*
