G04 #@! TF.FileFunction,Copper,L1,Top,Signal*
%FSLAX46Y46*%
G04 Gerber Fmt 4.6, Leading zero omitted, Abs format (unit mm)*
G04 Created by KiCad (PCBNEW 0.201508100901+6080~28~ubuntu14.04.1-product) date Tue 11 Aug 2015 03:56:28 PM EDT*
%MOMM*%
G01*
G04 APERTURE LIST*
%ADD10C,0.100000*%
%ADD11C,0.228600*%
%ADD12R,1.590040X2.667000*%
%ADD13O,2.540000X1.854200*%
%ADD14R,2.540000X1.854200*%
%ADD15O,1.854200X2.540000*%
%ADD16R,1.854200X2.540000*%
%ADD17O,2.032000X1.524000*%
%ADD18O,5.080000X3.048000*%
%ADD19O,1.524000X2.032000*%
%ADD20C,3.937000*%
%ADD21O,1.524000X2.540000*%
%ADD22O,2.540000X1.524000*%
%ADD23C,1.930400*%
%ADD24O,4.572000X3.556000*%
%ADD25O,4.064000X5.080000*%
%ADD26O,5.080000X3.556000*%
%ADD27R,1.498600X2.997200*%
%ADD28R,1.016000X4.495800*%
%ADD29O,4.445000X3.175000*%
%ADD30C,0.889000*%
%ADD31C,0.406400*%
%ADD32C,1.016000*%
%ADD33C,0.508000*%
%ADD34C,0.812800*%
%ADD35C,0.203200*%
G04 APERTURE END LIST*
D10*
D11*
X211455000Y-75565000D02*
X93345000Y-75565000D01*
X211455000Y-130175000D02*
X211455000Y-75565000D01*
X93345000Y-130175000D02*
X211455000Y-130175000D01*
X93345000Y-75565000D02*
X93345000Y-130175000D01*
D12*
X198026020Y-84137500D03*
X198026020Y-92392500D03*
X202023980Y-84137500D03*
X202023980Y-92392500D03*
D13*
X184150000Y-86995000D03*
D14*
X184150000Y-89535000D03*
D15*
X104140000Y-121920000D03*
X106680000Y-121920000D03*
D16*
X101600000Y-121920000D03*
D17*
X184785000Y-111125000D03*
X179705000Y-111125000D03*
D18*
X99060000Y-107950000D03*
X99060000Y-97790000D03*
D17*
X105156000Y-102870000D03*
D19*
X107950000Y-102870000D03*
X107950000Y-100076000D03*
X107950000Y-105664000D03*
D20*
X111760000Y-127000000D03*
X113030000Y-78740000D03*
X194310000Y-127000000D03*
X187960000Y-78740000D03*
D21*
X125730000Y-127000000D03*
X128270000Y-127000000D03*
X130810000Y-127000000D03*
X133350000Y-127000000D03*
X135890000Y-127000000D03*
X138430000Y-127000000D03*
X140970000Y-127000000D03*
X143510000Y-127000000D03*
X148590000Y-127000000D03*
X151130000Y-127000000D03*
X153670000Y-127000000D03*
X156210000Y-127000000D03*
X158750000Y-127000000D03*
X161290000Y-127000000D03*
X163830000Y-127000000D03*
X166370000Y-127000000D03*
X171450000Y-127000000D03*
X173990000Y-127000000D03*
X176530000Y-127000000D03*
X179070000Y-127000000D03*
X181610000Y-127000000D03*
X184150000Y-127000000D03*
X186690000Y-127000000D03*
X189230000Y-127000000D03*
X116586000Y-78740000D03*
X119126000Y-78740000D03*
X121666000Y-78740000D03*
X124206000Y-78740000D03*
X126746000Y-78740000D03*
X129286000Y-78740000D03*
X131826000Y-78740000D03*
X134366000Y-78740000D03*
X136906000Y-78740000D03*
X139446000Y-78740000D03*
X143510000Y-78740000D03*
X161290000Y-78740000D03*
X158750000Y-78740000D03*
X156210000Y-78740000D03*
X153670000Y-78740000D03*
X151130000Y-78740000D03*
X148590000Y-78740000D03*
X146050000Y-78740000D03*
X166370000Y-78740000D03*
X168910000Y-78740000D03*
X171450000Y-78740000D03*
X173990000Y-78740000D03*
X176530000Y-78740000D03*
X179070000Y-78740000D03*
X181610000Y-78740000D03*
X184150000Y-78740000D03*
X191770000Y-78232000D03*
X194310000Y-78232000D03*
D22*
X191262000Y-81280000D03*
X194818000Y-81280000D03*
X191262000Y-83820000D03*
X194818000Y-83820000D03*
X191262000Y-86360000D03*
X194818000Y-86360000D03*
X191262000Y-88900000D03*
X194818000Y-88900000D03*
X191262000Y-91440000D03*
X194818000Y-91440000D03*
X191262000Y-93980000D03*
X194818000Y-93980000D03*
X191262000Y-96520000D03*
X194818000Y-96520000D03*
X191262000Y-99060000D03*
X194818000Y-99060000D03*
X191262000Y-101600000D03*
X194818000Y-101600000D03*
X191262000Y-104140000D03*
X194818000Y-104140000D03*
X191262000Y-106680000D03*
X194818000Y-106680000D03*
X191262000Y-109220000D03*
X194818000Y-109220000D03*
X191262000Y-111760000D03*
X194818000Y-111760000D03*
X191262000Y-114300000D03*
X194818000Y-114300000D03*
X191262000Y-116840000D03*
X194818000Y-116840000D03*
X191262000Y-119380000D03*
X194818000Y-119380000D03*
X191262000Y-121920000D03*
X194818000Y-121920000D03*
D23*
X208457800Y-102870000D03*
D24*
X204952600Y-102870000D03*
D25*
X199466200Y-102870000D03*
D26*
X206451200Y-98374200D03*
X206451200Y-107365800D03*
D27*
X178435000Y-117754400D03*
X179705000Y-122275600D03*
X180975000Y-117754400D03*
X182245000Y-122275600D03*
X183515000Y-117754400D03*
X184785000Y-122275600D03*
D28*
X132080000Y-113842800D03*
X132080000Y-119837200D03*
X129540000Y-113842800D03*
X129540000Y-119837200D03*
X127000000Y-113842800D03*
X127000000Y-119837200D03*
X124460000Y-113842800D03*
X124460000Y-119837200D03*
X121920000Y-113842800D03*
X121920000Y-119837200D03*
X132080000Y-99872800D03*
X132080000Y-105867200D03*
X129540000Y-99872800D03*
X129540000Y-105867200D03*
X127000000Y-99872800D03*
X127000000Y-105867200D03*
X124460000Y-99872800D03*
X124460000Y-105867200D03*
X121920000Y-99872800D03*
X121920000Y-105867200D03*
X166370000Y-119837200D03*
X166370000Y-113842800D03*
X151130000Y-119837200D03*
X151130000Y-113842800D03*
X163830000Y-113842800D03*
X163830000Y-119837200D03*
X161290000Y-113842800D03*
X161290000Y-119837200D03*
X158750000Y-113842800D03*
X158750000Y-119837200D03*
X156210000Y-113842800D03*
X156210000Y-119837200D03*
X153670000Y-113842800D03*
X153670000Y-119837200D03*
X166370000Y-105867200D03*
X166370000Y-99872800D03*
X151130000Y-105867200D03*
X151130000Y-99872800D03*
X163830000Y-99872800D03*
X163830000Y-105867200D03*
X161290000Y-99872800D03*
X161290000Y-105867200D03*
X158750000Y-99872800D03*
X158750000Y-105867200D03*
X156210000Y-99872800D03*
X156210000Y-105867200D03*
X153670000Y-99872800D03*
X153670000Y-105867200D03*
X166370000Y-91897200D03*
X166370000Y-85902800D03*
X151130000Y-91897200D03*
X151130000Y-85902800D03*
X163830000Y-85902800D03*
X163830000Y-91897200D03*
X161290000Y-85902800D03*
X161290000Y-91897200D03*
X158750000Y-85902800D03*
X158750000Y-91897200D03*
X156210000Y-85902800D03*
X156210000Y-91897200D03*
X153670000Y-85902800D03*
X153670000Y-91897200D03*
X134620000Y-91897200D03*
X134620000Y-85902800D03*
X119380000Y-91897200D03*
X119380000Y-85902800D03*
X132080000Y-85902800D03*
X132080000Y-91897200D03*
X129540000Y-85902800D03*
X129540000Y-91897200D03*
X127000000Y-85902800D03*
X127000000Y-91897200D03*
X124460000Y-85902800D03*
X124460000Y-91897200D03*
X121920000Y-85902800D03*
X121920000Y-91897200D03*
D29*
X179844700Y-107569000D03*
X179844700Y-102870000D03*
X184645300Y-102870000D03*
X184645300Y-107569000D03*
D30*
X166996200Y-110811200D03*
X155282200Y-108996300D03*
X171224100Y-101023600D03*
X145198700Y-121548300D03*
X207645000Y-115570000D03*
X205105000Y-113030000D03*
X174343600Y-90341000D03*
X133162500Y-117081000D03*
X160104700Y-122593400D03*
X176769200Y-117168000D03*
X160061800Y-107797100D03*
X184308800Y-120015000D03*
X173747300Y-116320400D03*
X160020000Y-87139500D03*
X147496600Y-102299100D03*
X161930400Y-110184800D03*
X177093400Y-115858400D03*
X176705900Y-120374600D03*
X137326500Y-94641200D03*
X137326500Y-91129900D03*
X185970600Y-119838000D03*
X180041500Y-80853700D03*
X193510200Y-85090000D03*
X130810000Y-115112800D03*
X125730000Y-117480700D03*
X125730000Y-113842800D03*
X130810000Y-103727400D03*
X132329000Y-109496100D03*
X126986300Y-96308900D03*
X125786100Y-105867200D03*
X125730000Y-101568300D03*
X125730000Y-107830400D03*
X128441600Y-102578200D03*
X123173200Y-105867200D03*
X128483600Y-94602600D03*
X175318400Y-81697700D03*
X123173200Y-85902800D03*
X145657700Y-85903200D03*
X167656900Y-84905200D03*
X179866100Y-88608200D03*
X160020000Y-93713800D03*
X174491400Y-97081800D03*
X155155500Y-88608200D03*
X173973900Y-92692600D03*
X154905000Y-94602600D03*
X167586700Y-93647500D03*
X152355800Y-85902800D03*
X168379800Y-85857300D03*
X152457500Y-91242500D03*
X172622700Y-91938400D03*
X173803600Y-112852700D03*
X157708500Y-97167400D03*
X157480000Y-103161800D03*
X167602600Y-104861300D03*
X176932800Y-104861300D03*
X186112800Y-98589600D03*
X184926900Y-99532400D03*
X167780000Y-99532400D03*
X153876800Y-102870000D03*
X151722500Y-96871700D03*
X170613300Y-96179800D03*
X188605900Y-98425000D03*
X152377500Y-103161800D03*
X171776700Y-97821500D03*
X183074000Y-97821500D03*
X157480000Y-106652300D03*
X168386500Y-108168600D03*
X157480000Y-120026300D03*
X191497200Y-127679700D03*
X157456200Y-112695200D03*
X167587900Y-113417100D03*
X159971600Y-112936500D03*
X168245000Y-114390700D03*
D31*
X187185000Y-105410000D02*
X184645000Y-102870000D01*
X196850000Y-105410000D02*
X187185000Y-105410000D01*
X199390000Y-102870000D02*
X196850000Y-105410000D01*
X184645300Y-102870000D02*
X184645000Y-102870000D01*
X199390000Y-102870000D02*
X184645300Y-102870000D01*
D32*
X199390000Y-102870000D02*
X199466200Y-102870000D01*
X132080000Y-85902800D02*
X134620000Y-85902800D01*
X163830000Y-99872800D02*
X166370000Y-99872800D01*
X163830000Y-113843000D02*
X163830200Y-113843000D01*
X163830200Y-113843000D02*
X163830000Y-113842800D01*
X163830200Y-113843000D02*
X166369800Y-113843000D01*
X166369800Y-113843000D02*
X166370000Y-113842800D01*
X166369800Y-113843000D02*
X166370000Y-113843000D01*
X163830000Y-85902800D02*
X166370000Y-85902800D01*
D31*
X187185000Y-100330000D02*
X184645000Y-102870000D01*
X196850000Y-100330000D02*
X187185000Y-100330000D01*
X199390000Y-102870000D02*
X196850000Y-100330000D01*
D32*
X166974800Y-110832600D02*
X166370000Y-110832600D01*
X166996200Y-110811200D02*
X166974800Y-110832600D01*
X166370000Y-113842800D02*
X166370000Y-110832600D01*
X163830000Y-85902800D02*
X163830000Y-82892600D01*
X167520800Y-101023600D02*
X171224100Y-101023600D01*
X166370000Y-99872800D02*
X167520800Y-101023600D01*
X182282400Y-100507400D02*
X184645000Y-102870000D01*
X171740300Y-100507400D02*
X182282400Y-100507400D01*
X171224100Y-101023600D02*
X171740300Y-100507400D01*
X155282200Y-108996300D02*
X149199100Y-108996300D01*
X145198700Y-112996700D02*
X145198700Y-121548300D01*
X149199100Y-108996300D02*
X145198700Y-112996700D01*
X149199100Y-90151500D02*
X149199100Y-108996300D01*
X146157600Y-87110000D02*
X149199100Y-90151500D01*
X135827200Y-87110000D02*
X146157600Y-87110000D01*
X134620000Y-85902800D02*
X135827200Y-87110000D01*
X150289000Y-82892600D02*
X163830000Y-82892600D01*
X146864500Y-86317100D02*
X150289000Y-82892600D01*
X146864500Y-86403100D02*
X146864500Y-86317100D01*
X146157600Y-87110000D02*
X146864500Y-86403100D01*
D33*
X205105000Y-113030000D02*
X207645000Y-115570000D01*
X129540000Y-91897200D02*
X132080000Y-91897200D01*
X202024000Y-92392500D02*
X202024000Y-94234300D01*
X161290000Y-91897200D02*
X163830000Y-91897200D01*
X202024000Y-99433400D02*
X202024000Y-94234300D01*
X205460600Y-102870000D02*
X202024000Y-99433400D01*
X163830000Y-119837000D02*
X163830000Y-119837200D01*
X161290000Y-119837000D02*
X163830000Y-119837000D01*
X163830000Y-105867000D02*
X163830000Y-105867200D01*
X163830000Y-119837000D02*
X166370000Y-119837000D01*
X132080000Y-91897200D02*
X134620000Y-91897200D01*
X163830000Y-91897200D02*
X166370000Y-91897200D01*
X129540000Y-91897200D02*
X129540000Y-94653400D01*
X107950000Y-100330000D02*
X109220300Y-100330000D01*
X107950000Y-118110000D02*
X104140000Y-121920000D01*
X107950000Y-105410000D02*
X107950000Y-118110000D01*
X109220300Y-104139700D02*
X109220300Y-100330000D01*
X107950000Y-105410000D02*
X109220300Y-104139700D01*
X161290000Y-105867000D02*
X161290200Y-105867000D01*
X161290200Y-105867000D02*
X163830000Y-105867000D01*
X161290200Y-105867000D02*
X161290000Y-105867200D01*
X179705000Y-122275600D02*
X179705000Y-120268700D01*
X179197600Y-119761300D02*
X179705000Y-120268700D01*
X178435000Y-119761300D02*
X179197600Y-119761300D01*
X178435000Y-117754400D02*
X178435000Y-119761300D01*
X184150000Y-86995000D02*
X182562300Y-86995000D01*
X179844700Y-107569000D02*
X177113900Y-107569000D01*
X175412100Y-105867200D02*
X177113900Y-107569000D01*
X166370000Y-105867200D02*
X175412100Y-105867200D01*
X167926200Y-90341000D02*
X166370000Y-91897200D01*
X174343600Y-90341000D02*
X167926200Y-90341000D01*
X182562300Y-87298800D02*
X182562300Y-86995000D01*
X179520100Y-90341000D02*
X182562300Y-87298800D01*
X174343600Y-90341000D02*
X179520100Y-90341000D01*
X132080000Y-105867200D02*
X132080000Y-103111000D01*
X131808400Y-103111000D02*
X132080000Y-103111000D01*
X130556400Y-101859000D02*
X131808400Y-103111000D01*
X130556400Y-97180900D02*
X130556400Y-101859000D01*
X129036300Y-95660800D02*
X130556400Y-97180900D01*
X129540000Y-95157100D02*
X129036300Y-95660800D01*
X129540000Y-94653400D02*
X129540000Y-95157100D01*
X163830000Y-105867000D02*
X166369800Y-105867000D01*
X166369800Y-105867000D02*
X166370000Y-105867000D01*
X166369800Y-105867000D02*
X166370000Y-105867200D01*
X132080000Y-119837200D02*
X132080000Y-117081000D01*
X140970000Y-125221700D02*
X138430000Y-125221700D01*
X140970000Y-127000000D02*
X140970000Y-125221700D01*
X138430000Y-127000000D02*
X138430000Y-125221700D01*
X133162500Y-117081000D02*
X132080000Y-117081000D01*
X161290000Y-119837200D02*
X161290000Y-119837000D01*
X161290000Y-119837200D02*
X161290000Y-122593400D01*
X161290000Y-122593400D02*
X160104700Y-122593400D01*
X177355600Y-117754400D02*
X178435000Y-117754400D01*
X176769200Y-117168000D02*
X177355600Y-117754400D01*
X114194200Y-95356100D02*
X109220300Y-100330000D01*
X127381000Y-95356100D02*
X114194200Y-95356100D01*
X127685700Y-95660800D02*
X127381000Y-95356100D01*
X129036300Y-95660800D02*
X127685700Y-95660800D01*
X174100200Y-119837000D02*
X166370000Y-119837000D01*
X176769200Y-117168000D02*
X174100200Y-119837000D01*
X166370000Y-119837000D02*
X166370000Y-119837200D01*
D34*
X161290000Y-99872800D02*
X161290000Y-102781400D01*
X160061800Y-103395200D02*
X160061800Y-107797100D01*
X160675600Y-102781400D02*
X160061800Y-103395200D01*
X161290000Y-102781400D02*
X160675600Y-102781400D01*
X184410100Y-120116300D02*
X184308800Y-120015000D01*
X184785000Y-120116300D02*
X184410100Y-120116300D01*
X184785000Y-122275600D02*
X184785000Y-120116300D01*
X161290000Y-113842800D02*
X161290000Y-116751400D01*
X132080000Y-113747300D02*
X132080000Y-113842800D01*
X106680000Y-121920000D02*
X108267800Y-121920000D01*
X173316300Y-116751400D02*
X173747300Y-116320400D01*
X161290000Y-116751400D02*
X173316300Y-116751400D01*
X160053300Y-87139500D02*
X161290000Y-85902800D01*
X160020000Y-87139500D02*
X160053300Y-87139500D01*
X132080000Y-113747300D02*
X132080000Y-111340800D01*
X132080000Y-111340800D02*
X132080000Y-110934200D01*
X119253600Y-110934200D02*
X108267800Y-121920000D01*
X132080000Y-110934200D02*
X119253600Y-110934200D01*
X147496600Y-102299100D02*
X134121000Y-102299100D01*
X134121000Y-109299800D02*
X132080000Y-111340800D01*
X134121000Y-102299100D02*
X134121000Y-109299800D01*
X161290000Y-113842800D02*
X161290000Y-110934200D01*
X161290000Y-110825200D02*
X161930400Y-110184800D01*
X161290000Y-110934200D02*
X161290000Y-110825200D01*
X134121000Y-101913800D02*
X134121000Y-102299100D01*
X132080000Y-99872800D02*
X134121000Y-101913800D01*
X133248700Y-96964200D02*
X132080000Y-96964200D01*
X135841700Y-94371200D02*
X133248700Y-96964200D01*
X135841700Y-89416400D02*
X135841700Y-94371200D01*
X135236700Y-88811400D02*
X135841700Y-89416400D01*
X129540000Y-88811400D02*
X135236700Y-88811400D01*
X129540000Y-85902800D02*
X129540000Y-88811400D01*
X132080000Y-99872800D02*
X132080000Y-96964200D01*
D31*
X177153500Y-115798300D02*
X180975000Y-115798300D01*
X177093400Y-115858400D02*
X177153500Y-115798300D01*
X180975000Y-117754400D02*
X180975000Y-115798300D01*
X182245000Y-122275600D02*
X182245000Y-124231700D01*
X176705900Y-122172800D02*
X176705900Y-120374600D01*
X178764800Y-124231700D02*
X176705900Y-122172800D01*
X182245000Y-124231700D02*
X178764800Y-124231700D01*
X137326500Y-94641200D02*
X137326500Y-91129900D01*
X176530000Y-78740000D02*
X176530000Y-80467500D01*
X183887000Y-117754400D02*
X185970600Y-119838000D01*
X183515000Y-117754400D02*
X183887000Y-117754400D01*
X176916200Y-80853700D02*
X180041500Y-80853700D01*
X176530000Y-80467500D02*
X176916200Y-80853700D01*
X198026000Y-84137500D02*
X198026000Y-85928500D01*
X195935000Y-85090000D02*
X193510200Y-85090000D01*
X196773500Y-85928500D02*
X195935000Y-85090000D01*
X198026000Y-85928500D02*
X196773500Y-85928500D01*
X130809900Y-115112800D02*
X130810000Y-115112800D01*
X130809900Y-116002500D02*
X130809900Y-115112800D01*
X130264200Y-116548200D02*
X130809900Y-116002500D01*
X129540000Y-116548200D02*
X130264200Y-116548200D01*
X129540000Y-113842800D02*
X129540000Y-116548200D01*
X151752600Y-122542600D02*
X156210000Y-127000000D01*
X129540000Y-122542600D02*
X151752600Y-122542600D01*
X129540000Y-119837200D02*
X129540000Y-122542600D01*
X126662500Y-116548200D02*
X125730000Y-117480700D01*
X127000000Y-116548200D02*
X126662500Y-116548200D01*
X127000000Y-113842800D02*
X127000000Y-116548200D01*
X127000000Y-119837200D02*
X127000000Y-122542600D01*
X149909400Y-123239400D02*
X153670000Y-127000000D01*
X127696800Y-123239400D02*
X149909400Y-123239400D01*
X127000000Y-122542600D02*
X127696800Y-123239400D01*
X124460000Y-113842800D02*
X125730000Y-113842800D01*
X148204100Y-124074100D02*
X151130000Y-127000000D01*
X125991500Y-124074100D02*
X148204100Y-124074100D01*
X124460000Y-122542600D02*
X125991500Y-124074100D01*
X124460000Y-119837200D02*
X124460000Y-122542600D01*
X158750000Y-127000000D02*
X158750000Y-128727500D01*
X121920000Y-113842800D02*
X121920000Y-116548200D01*
X158089300Y-129388200D02*
X158750000Y-128727500D01*
X125879800Y-129388200D02*
X158089300Y-129388200D01*
X120954500Y-124462900D02*
X125879800Y-129388200D01*
X120954500Y-117392900D02*
X120954500Y-124462900D01*
X121799200Y-116548200D02*
X120954500Y-117392900D01*
X121920000Y-116548200D02*
X121799200Y-116548200D01*
X132841100Y-128727500D02*
X148590000Y-128727500D01*
X132080000Y-127966400D02*
X132841100Y-128727500D01*
X132080000Y-126021300D02*
X132080000Y-127966400D01*
X131280200Y-125221500D02*
X132080000Y-126021300D01*
X124598900Y-125221500D02*
X131280200Y-125221500D01*
X121920000Y-122542600D02*
X124598900Y-125221500D01*
X121920000Y-119837200D02*
X121920000Y-122542600D01*
X148590000Y-127000000D02*
X148590000Y-128727500D01*
X129540000Y-99872800D02*
X129540000Y-102578200D01*
X129660800Y-102578200D02*
X130810000Y-103727400D01*
X129540000Y-102578200D02*
X129660800Y-102578200D01*
X129540000Y-105867200D02*
X129540000Y-108572600D01*
X131405500Y-108572600D02*
X132329000Y-109496100D01*
X129540000Y-108572600D02*
X131405500Y-108572600D01*
X126986300Y-97153700D02*
X126986300Y-96308900D01*
X127000000Y-97167400D02*
X126986300Y-97153700D01*
X127000000Y-99872800D02*
X127000000Y-97167400D01*
X127000000Y-105867200D02*
X125786100Y-105867200D01*
X125730000Y-101142800D02*
X125730000Y-101568300D01*
X124460000Y-99872800D02*
X125730000Y-101142800D01*
X124460000Y-105867200D02*
X124460000Y-108572600D01*
X124527800Y-108572600D02*
X124460000Y-108572600D01*
X125017500Y-108082900D02*
X124527800Y-108572600D01*
X125477500Y-108082900D02*
X125017500Y-108082900D01*
X125730000Y-107830400D02*
X125477500Y-108082900D01*
X121920000Y-99872800D02*
X121920000Y-102578200D01*
X121920000Y-102578200D02*
X128441600Y-102578200D01*
X121920000Y-105867200D02*
X123173200Y-105867200D01*
X119380000Y-91897200D02*
X119380000Y-89191800D01*
X119500800Y-89191800D02*
X119380000Y-89191800D01*
X120345500Y-88347100D02*
X119500800Y-89191800D01*
X120345500Y-83989100D02*
X120345500Y-88347100D01*
X121643200Y-82691400D02*
X120345500Y-83989100D01*
X122528900Y-82691400D02*
X121643200Y-82691400D01*
X125476000Y-79744300D02*
X122528900Y-82691400D01*
X125476000Y-77771900D02*
X125476000Y-79744300D01*
X126270900Y-76977000D02*
X125476000Y-77771900D01*
X184670000Y-76977000D02*
X126270900Y-76977000D01*
X185455900Y-77762900D02*
X184670000Y-76977000D01*
X185455900Y-79680900D02*
X185455900Y-77762900D01*
X187053400Y-81278400D02*
X185455900Y-79680900D01*
X189532900Y-81278400D02*
X187053400Y-81278400D01*
X189534500Y-81280000D02*
X189532900Y-81278400D01*
X191770000Y-81280000D02*
X189534500Y-81280000D01*
X193090500Y-80774700D02*
X193090500Y-81280000D01*
X192325800Y-80010000D02*
X193090500Y-80774700D01*
X191280700Y-80010000D02*
X192325800Y-80010000D01*
X190518600Y-79247900D02*
X191280700Y-80010000D01*
X190518600Y-77866500D02*
X190518600Y-79247900D01*
X188918700Y-76266600D02*
X190518600Y-77866500D01*
X124404300Y-76266600D02*
X188918700Y-76266600D01*
X122936000Y-77734900D02*
X124404300Y-76266600D01*
X122936000Y-79739100D02*
X122936000Y-77734900D01*
X119477700Y-83197400D02*
X122936000Y-79739100D01*
X119380000Y-83197400D02*
X119477700Y-83197400D01*
X119380000Y-85902800D02*
X119380000Y-83197400D01*
X194310000Y-81280000D02*
X193090500Y-81280000D01*
X191770000Y-83820000D02*
X189534500Y-83820000D01*
X121920000Y-91897200D02*
X121920000Y-94602600D01*
X121920000Y-94602600D02*
X128483600Y-94602600D01*
X175559800Y-81939100D02*
X175318400Y-81697700D01*
X187653600Y-81939100D02*
X175559800Y-81939100D01*
X189534500Y-83820000D02*
X187653600Y-81939100D01*
X121920000Y-85902800D02*
X123173200Y-85902800D01*
X124460000Y-91897200D02*
X124460000Y-89191800D01*
X191770000Y-86360000D02*
X189534500Y-86360000D01*
X124580800Y-89191800D02*
X124460000Y-89191800D01*
X125425500Y-88347100D02*
X124580800Y-89191800D01*
X125425500Y-83976800D02*
X125425500Y-88347100D01*
X128161000Y-81241300D02*
X125425500Y-83976800D01*
X166309100Y-81241300D02*
X128161000Y-81241300D01*
X168328300Y-83260500D02*
X166309100Y-81241300D01*
X186435000Y-83260500D02*
X168328300Y-83260500D01*
X189534500Y-86360000D02*
X186435000Y-83260500D01*
X124460000Y-85902800D02*
X124460000Y-83197400D01*
X194310000Y-86360000D02*
X193090500Y-86360000D01*
X127076900Y-80580500D02*
X124460000Y-83197400D01*
X169729800Y-80580500D02*
X127076900Y-80580500D01*
X171749100Y-82599800D02*
X169729800Y-80580500D01*
X187087800Y-82599800D02*
X171749100Y-82599800D01*
X189527600Y-85039600D02*
X187087800Y-82599800D01*
X192179200Y-85039600D02*
X189527600Y-85039600D01*
X193090500Y-85950900D02*
X192179200Y-85039600D01*
X193090500Y-86360000D02*
X193090500Y-85950900D01*
X142931100Y-83176600D02*
X145657700Y-85903200D01*
X128832200Y-83176600D02*
X142931100Y-83176600D01*
X127965500Y-84043300D02*
X128832200Y-83176600D01*
X127965500Y-88347100D02*
X127965500Y-84043300D01*
X127120800Y-89191800D02*
X127965500Y-88347100D01*
X127000000Y-89191800D02*
X127120800Y-89191800D01*
X189326600Y-88900000D02*
X191770000Y-88900000D01*
X185331800Y-84905200D02*
X189326600Y-88900000D01*
X167656900Y-84905200D02*
X185331800Y-84905200D01*
X127000000Y-91897200D02*
X127000000Y-89191800D01*
X194310000Y-88900000D02*
X193090500Y-88900000D01*
X127000000Y-84074400D02*
X127000000Y-85902800D01*
X129171200Y-81903200D02*
X127000000Y-84074400D01*
X165930600Y-81903200D02*
X129171200Y-81903200D01*
X167948600Y-83921200D02*
X165930600Y-81903200D01*
X185606100Y-83921200D02*
X167948600Y-83921200D01*
X189314900Y-87630000D02*
X185606100Y-83921200D01*
X192325800Y-87630000D02*
X189314900Y-87630000D01*
X193090500Y-88394700D02*
X192325800Y-87630000D01*
X193090500Y-88900000D02*
X193090500Y-88394700D01*
X158750000Y-85902800D02*
X158750000Y-88608200D01*
X158750000Y-88608200D02*
X179866100Y-88608200D01*
X160020000Y-93167200D02*
X160020000Y-93713800D01*
X158750000Y-91897200D02*
X160020000Y-93167200D01*
X189229900Y-99364600D02*
X189534500Y-99060000D01*
X188165600Y-99364600D02*
X189229900Y-99364600D01*
X185693900Y-96892900D02*
X188165600Y-99364600D01*
X174680300Y-96892900D02*
X185693900Y-96892900D01*
X174491400Y-97081800D02*
X174680300Y-96892900D01*
X191770000Y-99060000D02*
X189534500Y-99060000D01*
X156210000Y-85902800D02*
X156210000Y-88608200D01*
X194310000Y-96520000D02*
X193090500Y-96520000D01*
X193090500Y-96014700D02*
X193090500Y-96520000D01*
X192325800Y-95250000D02*
X193090500Y-96014700D01*
X189199000Y-95250000D02*
X192325800Y-95250000D01*
X188564800Y-94615800D02*
X189199000Y-95250000D01*
X157957600Y-94615800D02*
X188564800Y-94615800D01*
X157175500Y-93833700D02*
X157957600Y-94615800D01*
X157175500Y-89452900D02*
X157175500Y-93833700D01*
X156330800Y-88608200D02*
X157175500Y-89452900D01*
X156210000Y-88608200D02*
X156330800Y-88608200D01*
X156210000Y-91897200D02*
X156210000Y-94602600D01*
X191770000Y-96520000D02*
X189534500Y-96520000D01*
X188291000Y-95276500D02*
X189534500Y-96520000D01*
X156883900Y-95276500D02*
X188291000Y-95276500D01*
X156210000Y-94602600D02*
X156883900Y-95276500D01*
X194310000Y-93980000D02*
X193090500Y-93980000D01*
X153670000Y-85902800D02*
X153670000Y-88608200D01*
X153670000Y-88608200D02*
X155155500Y-88608200D01*
X192308400Y-92692600D02*
X173973900Y-92692600D01*
X193090500Y-93474700D02*
X192308400Y-92692600D01*
X193090500Y-93980000D02*
X193090500Y-93474700D01*
X191770000Y-93980000D02*
X189534500Y-93980000D01*
X153670000Y-91897200D02*
X153670000Y-94602600D01*
X153670000Y-94602600D02*
X154905000Y-94602600D01*
X189202000Y-93647500D02*
X167586700Y-93647500D01*
X189534500Y-93980000D02*
X189202000Y-93647500D01*
X194310000Y-91440000D02*
X193090500Y-91440000D01*
X168671100Y-85566000D02*
X168379800Y-85857300D01*
X185058000Y-85566000D02*
X168671100Y-85566000D01*
X189662000Y-90170000D02*
X185058000Y-85566000D01*
X192325800Y-90170000D02*
X189662000Y-90170000D01*
X193090500Y-90934700D02*
X192325800Y-90170000D01*
X193090500Y-91440000D02*
X193090500Y-90934700D01*
X151130000Y-85902800D02*
X152355800Y-85902800D01*
X191770000Y-91440000D02*
X189534500Y-91440000D01*
X151130000Y-91897200D02*
X151130000Y-89191800D01*
X152457400Y-91242500D02*
X152457500Y-91242500D01*
X152457400Y-89804800D02*
X152457400Y-91242500D01*
X151844400Y-89191800D02*
X152457400Y-89804800D01*
X151130000Y-89191800D02*
X151844400Y-89191800D01*
X173121100Y-91440000D02*
X172622700Y-91938400D01*
X189534500Y-91440000D02*
X173121100Y-91440000D01*
X193090500Y-108714700D02*
X193090500Y-109220000D01*
X192325800Y-107950000D02*
X193090500Y-108714700D01*
X188621700Y-107950000D02*
X192325800Y-107950000D01*
X185610300Y-104938600D02*
X188621700Y-107950000D01*
X178285800Y-104938600D02*
X185610300Y-104938600D01*
X175925500Y-102578300D02*
X178285800Y-104938600D01*
X163124500Y-102578300D02*
X175925500Y-102578300D01*
X162255600Y-101709400D02*
X163124500Y-102578300D01*
X162255600Y-97435500D02*
X162255600Y-101709400D01*
X161987500Y-97167400D02*
X162255600Y-97435500D01*
X158750000Y-97167400D02*
X161987500Y-97167400D01*
X158750000Y-99872800D02*
X158750000Y-97167400D01*
X194310000Y-109220000D02*
X193090500Y-109220000D01*
X158750000Y-105867200D02*
X158750000Y-108572600D01*
X191770000Y-109220000D02*
X189534500Y-109220000D01*
X158877500Y-108700100D02*
X158750000Y-108572600D01*
X160903500Y-108700100D02*
X158877500Y-108700100D01*
X161017200Y-108586400D02*
X160903500Y-108700100D01*
X167105600Y-108586400D02*
X161017200Y-108586400D01*
X167335600Y-108356400D02*
X167105600Y-108586400D01*
X167335600Y-107938700D02*
X167335600Y-108356400D01*
X168013100Y-107261200D02*
X167335600Y-107938700D01*
X170810300Y-107261200D02*
X168013100Y-107261200D01*
X173163200Y-109614100D02*
X170810300Y-107261200D01*
X189140400Y-109614100D02*
X173163200Y-109614100D01*
X189534500Y-109220000D02*
X189140400Y-109614100D01*
X156210000Y-99872800D02*
X156210000Y-97167400D01*
X194310000Y-106680000D02*
X196545500Y-106680000D01*
X156210000Y-97167400D02*
X157708500Y-97167400D01*
X173925200Y-112974300D02*
X173803600Y-112852700D01*
X178288200Y-112974300D02*
X173925200Y-112974300D01*
X178321800Y-113007900D02*
X178288200Y-112974300D01*
X192246900Y-113007900D02*
X178321800Y-113007900D01*
X193040000Y-112214800D02*
X192246900Y-113007900D01*
X193040000Y-111286600D02*
X193040000Y-112214800D01*
X193786200Y-110540400D02*
X193040000Y-111286600D01*
X195785800Y-110540400D02*
X193786200Y-110540400D01*
X196545500Y-109780700D02*
X195785800Y-110540400D01*
X196545500Y-106680000D02*
X196545500Y-109780700D01*
X156210000Y-105867200D02*
X156210000Y-103161800D01*
X156210000Y-103161800D02*
X157480000Y-103161800D01*
X176932800Y-104861300D02*
X167602600Y-104861300D01*
X153670000Y-99872800D02*
X153670000Y-97167400D01*
X183581600Y-98589600D02*
X186112800Y-98589600D01*
X183447700Y-98723500D02*
X183581600Y-98589600D01*
X171357600Y-98723500D02*
X183447700Y-98723500D01*
X168874000Y-96239900D02*
X171357600Y-98723500D01*
X154597500Y-96239900D02*
X168874000Y-96239900D01*
X153670000Y-97167400D02*
X154597500Y-96239900D01*
X153670000Y-103076800D02*
X153670000Y-105867200D01*
X153876800Y-102870000D02*
X153670000Y-103076800D01*
X167780000Y-99532400D02*
X184926900Y-99532400D01*
X151426800Y-97167400D02*
X151722500Y-96871700D01*
X151130000Y-97167400D02*
X151426800Y-97167400D01*
X151130000Y-99872800D02*
X151130000Y-97167400D01*
X186360700Y-96179800D02*
X170613300Y-96179800D01*
X188605900Y-98425000D02*
X186360700Y-96179800D01*
X151130000Y-105867200D02*
X151130000Y-103161800D01*
X151130000Y-103161800D02*
X152377500Y-103161800D01*
X171939000Y-97983800D02*
X171776700Y-97821500D01*
X182911700Y-97983800D02*
X171939000Y-97983800D01*
X183074000Y-97821500D02*
X182911700Y-97983800D01*
X191770000Y-111760000D02*
X189534500Y-111760000D01*
X151130000Y-119837200D02*
X151130000Y-117131800D01*
X157480000Y-108172400D02*
X157480000Y-106652300D01*
X155487300Y-110165100D02*
X157480000Y-108172400D01*
X151277800Y-110165100D02*
X155487300Y-110165100D01*
X150164500Y-111278400D02*
X151277800Y-110165100D01*
X150164500Y-116287100D02*
X150164500Y-111278400D01*
X151009200Y-117131800D02*
X150164500Y-116287100D01*
X151130000Y-117131800D02*
X151009200Y-117131800D01*
X170457800Y-108168600D02*
X168386500Y-108168600D01*
X174602800Y-112313600D02*
X170457800Y-108168600D01*
X178561900Y-112313600D02*
X174602800Y-112313600D01*
X178595400Y-112347100D02*
X178561900Y-112313600D01*
X188947400Y-112347100D02*
X178595400Y-112347100D01*
X189534500Y-111760000D02*
X188947400Y-112347100D01*
X194310000Y-111760000D02*
X196545500Y-111760000D01*
X197866900Y-113081400D02*
X196545500Y-111760000D01*
X197866900Y-126925600D02*
X197866900Y-113081400D01*
X195343100Y-129449400D02*
X197866900Y-126925600D01*
X171071600Y-129449400D02*
X195343100Y-129449400D01*
X166854800Y-125232600D02*
X171071600Y-129449400D01*
X155422600Y-125232600D02*
X166854800Y-125232600D01*
X152095600Y-121905600D02*
X155422600Y-125232600D01*
X152095600Y-114808400D02*
X152095600Y-121905600D01*
X151130000Y-113842800D02*
X152095600Y-114808400D01*
X153670000Y-119837200D02*
X153670000Y-122542600D01*
X191770000Y-114300000D02*
X192989500Y-114300000D01*
X192989500Y-114805300D02*
X192989500Y-114300000D01*
X193804600Y-115620400D02*
X192989500Y-114805300D01*
X195884700Y-115620400D02*
X193804600Y-115620400D01*
X196545500Y-116281200D02*
X195884700Y-115620400D01*
X196545500Y-119892900D02*
X196545500Y-116281200D01*
X195788400Y-120650000D02*
X196545500Y-119892900D01*
X193853400Y-120650000D02*
X195788400Y-120650000D01*
X193090400Y-121413000D02*
X193853400Y-120650000D01*
X193090400Y-122394100D02*
X193090400Y-121413000D01*
X192014900Y-123469600D02*
X193090400Y-122394100D01*
X190451200Y-123469600D02*
X192014900Y-123469600D01*
X187960000Y-125960800D02*
X190451200Y-123469600D01*
X187960000Y-128029700D02*
X187960000Y-125960800D01*
X187251500Y-128738200D02*
X187960000Y-128029700D01*
X175956500Y-128738200D02*
X187251500Y-128738200D01*
X175260000Y-128041700D02*
X175956500Y-128738200D01*
X175260000Y-125983800D02*
X175260000Y-128041700D01*
X173724500Y-124448300D02*
X175260000Y-125983800D01*
X155575700Y-124448300D02*
X173724500Y-124448300D01*
X153670000Y-122542600D02*
X155575700Y-124448300D01*
X194310000Y-114300000D02*
X196545500Y-114300000D01*
X153670000Y-113842800D02*
X153670000Y-116548200D01*
X197206200Y-114960700D02*
X196545500Y-114300000D01*
X197206200Y-121769100D02*
X197206200Y-114960700D01*
X195204100Y-123771200D02*
X197206200Y-121769100D01*
X194106800Y-123771200D02*
X195204100Y-123771200D01*
X191497200Y-126380800D02*
X194106800Y-123771200D01*
X191497200Y-127679700D02*
X191497200Y-126380800D01*
X157480000Y-121970100D02*
X157480000Y-120026300D01*
X156871600Y-122578500D02*
X157480000Y-121970100D01*
X155545000Y-122578500D02*
X156871600Y-122578500D01*
X154635500Y-121669000D02*
X155545000Y-122578500D01*
X154635500Y-117392900D02*
X154635500Y-121669000D01*
X153790800Y-116548200D02*
X154635500Y-117392900D01*
X153670000Y-116548200D02*
X153790800Y-116548200D01*
X156210000Y-119837200D02*
X156210000Y-117131800D01*
X171810000Y-113417100D02*
X167587900Y-113417100D01*
X172841500Y-114448600D02*
X171810000Y-113417100D01*
X176293200Y-114448600D02*
X172841500Y-114448600D01*
X176446100Y-114295700D02*
X176293200Y-114448600D01*
X177740800Y-114295700D02*
X176446100Y-114295700D01*
X177893700Y-114448600D02*
X177740800Y-114295700D01*
X186225300Y-114448600D02*
X177893700Y-114448600D01*
X188616700Y-116840000D02*
X186225300Y-114448600D01*
X191770000Y-116840000D02*
X188616700Y-116840000D01*
X157456200Y-116006400D02*
X157456200Y-112695200D01*
X156330800Y-117131800D02*
X157456200Y-116006400D01*
X156210000Y-117131800D02*
X156330800Y-117131800D01*
X194310000Y-116840000D02*
X193090500Y-116840000D01*
X156210000Y-113842800D02*
X156210000Y-111137400D01*
X159400600Y-111137400D02*
X156210000Y-111137400D01*
X161290900Y-109247100D02*
X159400600Y-111137400D01*
X168848000Y-109247100D02*
X161290900Y-109247100D01*
X173388800Y-113787900D02*
X168848000Y-109247100D01*
X176019500Y-113787900D02*
X173388800Y-113787900D01*
X176172400Y-113635000D02*
X176019500Y-113787900D01*
X178014500Y-113635000D02*
X176172400Y-113635000D01*
X178167400Y-113787900D02*
X178014500Y-113635000D01*
X187208000Y-113787900D02*
X178167400Y-113787900D01*
X188990100Y-115570000D02*
X187208000Y-113787900D01*
X192325800Y-115570000D02*
X188990100Y-115570000D01*
X193090500Y-116334700D02*
X192325800Y-115570000D01*
X193090500Y-116840000D02*
X193090500Y-116334700D01*
X158750000Y-119837200D02*
X158750000Y-122542600D01*
X191770000Y-119380000D02*
X189534500Y-119380000D01*
X189534500Y-120465100D02*
X189534500Y-119380000D01*
X185097300Y-124902300D02*
X189534500Y-120465100D01*
X176460300Y-124902300D02*
X185097300Y-124902300D01*
X175345600Y-123787600D02*
X176460300Y-124902300D01*
X159995000Y-123787600D02*
X175345600Y-123787600D01*
X158750000Y-122542600D02*
X159995000Y-123787600D01*
X194310000Y-119380000D02*
X193090500Y-119380000D01*
X158750000Y-113842800D02*
X158750000Y-116548200D01*
X168963600Y-115109300D02*
X168245000Y-114390700D01*
X176566900Y-115109300D02*
X168963600Y-115109300D01*
X176719800Y-114956400D02*
X176566900Y-115109300D01*
X177467100Y-114956400D02*
X176719800Y-114956400D01*
X177620000Y-115109300D02*
X177467100Y-114956400D01*
X185726200Y-115109300D02*
X177620000Y-115109300D01*
X188726900Y-118110000D02*
X185726200Y-115109300D01*
X192325800Y-118110000D02*
X188726900Y-118110000D01*
X193090500Y-118874700D02*
X192325800Y-118110000D01*
X193090500Y-119380000D02*
X193090500Y-118874700D01*
X159971600Y-116050800D02*
X159971600Y-112936500D01*
X159474200Y-116548200D02*
X159971600Y-116050800D01*
X158750000Y-116548200D02*
X159474200Y-116548200D01*
D35*
G36*
X211035900Y-129755900D02*
X195826862Y-129755900D01*
X198262031Y-127320731D01*
X198383164Y-127139444D01*
X198425700Y-126925600D01*
X198425700Y-113188452D01*
X204304761Y-113188452D01*
X204426313Y-113482628D01*
X204651188Y-113707896D01*
X204945152Y-113829961D01*
X205042942Y-113830046D01*
X206844845Y-115631950D01*
X206844761Y-115728452D01*
X206966313Y-116022628D01*
X207191188Y-116247896D01*
X207485152Y-116369961D01*
X207803452Y-116370239D01*
X208097628Y-116248687D01*
X208322896Y-116023812D01*
X208444961Y-115729848D01*
X208445239Y-115411548D01*
X208323687Y-115117372D01*
X208098812Y-114892104D01*
X207804848Y-114770039D01*
X207707058Y-114769954D01*
X205905155Y-112968051D01*
X205905239Y-112871548D01*
X205783687Y-112577372D01*
X205558812Y-112352104D01*
X205264848Y-112230039D01*
X204946548Y-112229761D01*
X204652372Y-112351313D01*
X204427104Y-112576188D01*
X204305039Y-112870152D01*
X204304761Y-113188452D01*
X198425700Y-113188452D01*
X198425700Y-113081400D01*
X198383164Y-112867556D01*
X198262031Y-112686269D01*
X196940631Y-111364869D01*
X196920238Y-111351243D01*
X196759344Y-111243736D01*
X196545500Y-111201200D01*
X196302768Y-111201200D01*
X196148110Y-110969737D01*
X196138924Y-110963599D01*
X196180931Y-110935531D01*
X196940631Y-110175831D01*
X197015889Y-110063200D01*
X197061764Y-109994544D01*
X197104300Y-109780700D01*
X197104300Y-107365800D01*
X203498872Y-107365800D01*
X203661283Y-108182293D01*
X204123789Y-108874483D01*
X204815979Y-109336989D01*
X205632472Y-109499400D01*
X207269928Y-109499400D01*
X208086421Y-109336989D01*
X208778611Y-108874483D01*
X209241117Y-108182293D01*
X209403528Y-107365800D01*
X209241117Y-106549307D01*
X208778611Y-105857117D01*
X208086421Y-105394611D01*
X207269928Y-105232200D01*
X205632472Y-105232200D01*
X204815979Y-105394611D01*
X204123789Y-105857117D01*
X203661283Y-106549307D01*
X203498872Y-107365800D01*
X197104300Y-107365800D01*
X197104300Y-106680000D01*
X197061764Y-106466156D01*
X196940631Y-106284869D01*
X196759344Y-106163736D01*
X196545500Y-106121200D01*
X196302768Y-106121200D01*
X196148110Y-105889737D01*
X195785534Y-105647472D01*
X195357847Y-105562400D01*
X194278153Y-105562400D01*
X193850466Y-105647472D01*
X193487890Y-105889737D01*
X193245625Y-106252313D01*
X193160553Y-106680000D01*
X193245625Y-107107687D01*
X193487890Y-107470263D01*
X193850466Y-107712528D01*
X194278153Y-107797600D01*
X195357847Y-107797600D01*
X195785534Y-107712528D01*
X195986700Y-107578113D01*
X195986700Y-108321887D01*
X195785534Y-108187472D01*
X195357847Y-108102400D01*
X194278153Y-108102400D01*
X193850466Y-108187472D01*
X193537220Y-108396776D01*
X193485631Y-108319569D01*
X192720931Y-107554869D01*
X192704019Y-107543569D01*
X192592789Y-107469247D01*
X192834375Y-107107687D01*
X192919447Y-106680000D01*
X192834375Y-106252313D01*
X192592110Y-105889737D01*
X192229534Y-105647472D01*
X191801847Y-105562400D01*
X190722153Y-105562400D01*
X190294466Y-105647472D01*
X189931890Y-105889737D01*
X189689625Y-106252313D01*
X189604553Y-106680000D01*
X189689625Y-107107687D01*
X189879062Y-107391200D01*
X188853162Y-107391200D01*
X186285353Y-104823391D01*
X186941647Y-104315821D01*
X187042267Y-104140000D01*
X189604553Y-104140000D01*
X189689625Y-104567687D01*
X189931890Y-104930263D01*
X190294466Y-105172528D01*
X190722153Y-105257600D01*
X191801847Y-105257600D01*
X192229534Y-105172528D01*
X192592110Y-104930263D01*
X192834375Y-104567687D01*
X192919447Y-104140000D01*
X193160553Y-104140000D01*
X193245625Y-104567687D01*
X193487890Y-104930263D01*
X193850466Y-105172528D01*
X194278153Y-105257600D01*
X195357847Y-105257600D01*
X195785534Y-105172528D01*
X196148110Y-104930263D01*
X196390375Y-104567687D01*
X196475447Y-104140000D01*
X196390375Y-103712313D01*
X196148110Y-103349737D01*
X195785534Y-103107472D01*
X195357847Y-103022400D01*
X196824600Y-103022400D01*
X196824600Y-103530400D01*
X197084001Y-104529696D01*
X197706070Y-105353656D01*
X198596103Y-105876841D01*
X198903127Y-105958891D01*
X199313800Y-105862530D01*
X199313800Y-103022400D01*
X199618600Y-103022400D01*
X199618600Y-105862530D01*
X200029273Y-105958891D01*
X200336297Y-105876841D01*
X201226330Y-105353656D01*
X201848399Y-104529696D01*
X202107800Y-103530400D01*
X202107800Y-103022400D01*
X199618600Y-103022400D01*
X199313800Y-103022400D01*
X196824600Y-103022400D01*
X195357847Y-103022400D01*
X194278153Y-103022400D01*
X193850466Y-103107472D01*
X193487890Y-103349737D01*
X193245625Y-103712313D01*
X193160553Y-104140000D01*
X192919447Y-104140000D01*
X192834375Y-103712313D01*
X192592110Y-103349737D01*
X192229534Y-103107472D01*
X191801847Y-103022400D01*
X190722153Y-103022400D01*
X190294466Y-103107472D01*
X189931890Y-103349737D01*
X189689625Y-103712313D01*
X189604553Y-104140000D01*
X187042267Y-104140000D01*
X187368476Y-103569994D01*
X187421283Y-103363398D01*
X187319313Y-103022400D01*
X184797700Y-103022400D01*
X184797700Y-103042400D01*
X184492900Y-103042400D01*
X184492900Y-103022400D01*
X184472900Y-103022400D01*
X184472900Y-102717600D01*
X184492900Y-102717600D01*
X184492900Y-100672900D01*
X184797700Y-100672900D01*
X184797700Y-102717600D01*
X187319313Y-102717600D01*
X187421283Y-102376602D01*
X187368476Y-102170006D01*
X187042268Y-101600000D01*
X189604553Y-101600000D01*
X189689625Y-102027687D01*
X189931890Y-102390263D01*
X190294466Y-102632528D01*
X190722153Y-102717600D01*
X191801847Y-102717600D01*
X192229534Y-102632528D01*
X192592110Y-102390263D01*
X192834375Y-102027687D01*
X192919447Y-101600000D01*
X193160553Y-101600000D01*
X193245625Y-102027687D01*
X193487890Y-102390263D01*
X193850466Y-102632528D01*
X194278153Y-102717600D01*
X195357847Y-102717600D01*
X195785534Y-102632528D01*
X196148110Y-102390263D01*
X196268824Y-102209600D01*
X196824600Y-102209600D01*
X196824600Y-102717600D01*
X199313800Y-102717600D01*
X199313800Y-99877470D01*
X199618600Y-99877470D01*
X199618600Y-102717600D01*
X202107800Y-102717600D01*
X202107800Y-102209600D01*
X201848399Y-101210304D01*
X201226330Y-100386344D01*
X200336297Y-99863159D01*
X200029273Y-99781109D01*
X199618600Y-99877470D01*
X199313800Y-99877470D01*
X198903127Y-99781109D01*
X198596103Y-99863159D01*
X197706070Y-100386344D01*
X197084001Y-101210304D01*
X196824600Y-102209600D01*
X196268824Y-102209600D01*
X196390375Y-102027687D01*
X196475447Y-101600000D01*
X196390375Y-101172313D01*
X196148110Y-100809737D01*
X195785534Y-100567472D01*
X195357847Y-100482400D01*
X194278153Y-100482400D01*
X193850466Y-100567472D01*
X193487890Y-100809737D01*
X193245625Y-101172313D01*
X193160553Y-101600000D01*
X192919447Y-101600000D01*
X192834375Y-101172313D01*
X192592110Y-100809737D01*
X192229534Y-100567472D01*
X191801847Y-100482400D01*
X190722153Y-100482400D01*
X190294466Y-100567472D01*
X189931890Y-100809737D01*
X189689625Y-101172313D01*
X189604553Y-101600000D01*
X187042268Y-101600000D01*
X186941647Y-101424179D01*
X186261893Y-100898465D01*
X185432700Y-100672900D01*
X184797700Y-100672900D01*
X184492900Y-100672900D01*
X183857900Y-100672900D01*
X183028707Y-100898465D01*
X182348953Y-101424179D01*
X182093510Y-101870532D01*
X181867271Y-101531942D01*
X181253365Y-101121743D01*
X180529213Y-100977700D01*
X179160187Y-100977700D01*
X178436035Y-101121743D01*
X177822129Y-101531942D01*
X177411930Y-102145848D01*
X177267887Y-102870000D01*
X177332551Y-103195089D01*
X176320631Y-102183169D01*
X176300931Y-102170006D01*
X176139344Y-102062036D01*
X175925500Y-102019500D01*
X167487600Y-102019500D01*
X167487600Y-100277320D01*
X167620152Y-100332361D01*
X167938452Y-100332639D01*
X168232628Y-100211087D01*
X168352725Y-100091200D01*
X184354200Y-100091200D01*
X184473088Y-100210296D01*
X184767052Y-100332361D01*
X185085352Y-100332639D01*
X185379528Y-100211087D01*
X185604796Y-99986212D01*
X185726861Y-99692248D01*
X185727139Y-99373948D01*
X185688158Y-99279609D01*
X185952952Y-99389561D01*
X186271252Y-99389839D01*
X186565428Y-99268287D01*
X186790696Y-99043412D01*
X186867995Y-98857257D01*
X187770469Y-99759732D01*
X187951757Y-99880865D01*
X188165600Y-99923400D01*
X189229900Y-99923400D01*
X189443744Y-99880864D01*
X189625031Y-99759731D01*
X189765962Y-99618800D01*
X189777232Y-99618800D01*
X189931890Y-99850263D01*
X190294466Y-100092528D01*
X190722153Y-100177600D01*
X191801847Y-100177600D01*
X192229534Y-100092528D01*
X192592110Y-99850263D01*
X192834375Y-99487687D01*
X192919447Y-99060000D01*
X193160553Y-99060000D01*
X193245625Y-99487687D01*
X193487890Y-99850263D01*
X193850466Y-100092528D01*
X194278153Y-100177600D01*
X195357847Y-100177600D01*
X195785534Y-100092528D01*
X196148110Y-99850263D01*
X196390375Y-99487687D01*
X196475447Y-99060000D01*
X196390375Y-98632313D01*
X196148110Y-98269737D01*
X195785534Y-98027472D01*
X195357847Y-97942400D01*
X194278153Y-97942400D01*
X193850466Y-98027472D01*
X193487890Y-98269737D01*
X193245625Y-98632313D01*
X193160553Y-99060000D01*
X192919447Y-99060000D01*
X192834375Y-98632313D01*
X192592110Y-98269737D01*
X192229534Y-98027472D01*
X191801847Y-97942400D01*
X190722153Y-97942400D01*
X190294466Y-98027472D01*
X189931890Y-98269737D01*
X189777232Y-98501200D01*
X189534500Y-98501200D01*
X189405912Y-98526778D01*
X189406139Y-98266548D01*
X189284587Y-97972372D01*
X189059712Y-97747104D01*
X188765748Y-97625039D01*
X188596053Y-97624891D01*
X186806462Y-95835300D01*
X188059538Y-95835300D01*
X189139369Y-96915132D01*
X189320657Y-97036265D01*
X189534500Y-97078800D01*
X189777232Y-97078800D01*
X189931890Y-97310263D01*
X190294466Y-97552528D01*
X190722153Y-97637600D01*
X191801847Y-97637600D01*
X192229534Y-97552528D01*
X192592110Y-97310263D01*
X192806508Y-96989392D01*
X192876656Y-97036264D01*
X193090500Y-97078800D01*
X193333232Y-97078800D01*
X193487890Y-97310263D01*
X193850466Y-97552528D01*
X194278153Y-97637600D01*
X195357847Y-97637600D01*
X195785534Y-97552528D01*
X196148110Y-97310263D01*
X196390375Y-96947687D01*
X196475447Y-96520000D01*
X196390375Y-96092313D01*
X196148110Y-95729737D01*
X195785534Y-95487472D01*
X195357847Y-95402400D01*
X194278153Y-95402400D01*
X193850466Y-95487472D01*
X193537220Y-95696776D01*
X193485631Y-95619569D01*
X192720931Y-94854869D01*
X192663423Y-94816443D01*
X192592789Y-94769247D01*
X192806508Y-94449392D01*
X192876656Y-94496264D01*
X193090500Y-94538800D01*
X193333232Y-94538800D01*
X193487890Y-94770263D01*
X193850466Y-95012528D01*
X194278153Y-95097600D01*
X195357847Y-95097600D01*
X195785534Y-95012528D01*
X196148110Y-94770263D01*
X196390375Y-94407687D01*
X196475447Y-93980000D01*
X196390375Y-93552313D01*
X196148110Y-93189737D01*
X195785534Y-92947472D01*
X195357847Y-92862400D01*
X194278153Y-92862400D01*
X193850466Y-92947472D01*
X193537220Y-93156776D01*
X193485631Y-93079568D01*
X192703531Y-92297469D01*
X192615709Y-92238788D01*
X192595456Y-92225255D01*
X192806508Y-91909392D01*
X192876656Y-91956264D01*
X193090500Y-91998800D01*
X193333232Y-91998800D01*
X193487890Y-92230263D01*
X193850466Y-92472528D01*
X194278153Y-92557600D01*
X195357847Y-92557600D01*
X195785534Y-92472528D01*
X196148110Y-92230263D01*
X196390375Y-91867687D01*
X196475447Y-91440000D01*
X196399662Y-91059000D01*
X196868434Y-91059000D01*
X196868434Y-93726000D01*
X196893230Y-93857777D01*
X196971110Y-93978807D01*
X197089942Y-94060001D01*
X197231000Y-94088566D01*
X198821040Y-94088566D01*
X198952817Y-94063770D01*
X199073847Y-93985890D01*
X199155041Y-93867058D01*
X199183606Y-93726000D01*
X199183606Y-91059000D01*
X200866394Y-91059000D01*
X200866394Y-93726000D01*
X200891190Y-93857777D01*
X200969070Y-93978807D01*
X201087902Y-94060001D01*
X201228960Y-94088566D01*
X201414400Y-94088566D01*
X201414400Y-99433400D01*
X201460803Y-99666684D01*
X201592948Y-99864452D01*
X203007442Y-101278946D01*
X202884165Y-101361317D01*
X202421659Y-102053507D01*
X202259248Y-102870000D01*
X202421659Y-103686493D01*
X202884165Y-104378683D01*
X203576355Y-104841189D01*
X204392848Y-105003600D01*
X205512352Y-105003600D01*
X206328845Y-104841189D01*
X207021035Y-104378683D01*
X207452692Y-103732662D01*
X207708650Y-103989067D01*
X208193924Y-104190570D01*
X208719371Y-104191029D01*
X209204996Y-103990373D01*
X209576867Y-103619150D01*
X209778370Y-103133876D01*
X209778829Y-102608429D01*
X209578173Y-102122804D01*
X209206950Y-101750933D01*
X208721676Y-101549430D01*
X208196229Y-101548971D01*
X207710604Y-101749627D01*
X207452592Y-102007189D01*
X207021035Y-101361317D01*
X206328845Y-100898811D01*
X205512352Y-100736400D01*
X204392848Y-100736400D01*
X204222908Y-100770203D01*
X202633600Y-99180896D01*
X202633600Y-98374200D01*
X203498872Y-98374200D01*
X203661283Y-99190693D01*
X204123789Y-99882883D01*
X204815979Y-100345389D01*
X205632472Y-100507800D01*
X207269928Y-100507800D01*
X208086421Y-100345389D01*
X208778611Y-99882883D01*
X209241117Y-99190693D01*
X209403528Y-98374200D01*
X209241117Y-97557707D01*
X208778611Y-96865517D01*
X208086421Y-96403011D01*
X207269928Y-96240600D01*
X205632472Y-96240600D01*
X204815979Y-96403011D01*
X204123789Y-96865517D01*
X203661283Y-97557707D01*
X203498872Y-98374200D01*
X202633600Y-98374200D01*
X202633600Y-94088566D01*
X202819000Y-94088566D01*
X202950777Y-94063770D01*
X203071807Y-93985890D01*
X203153001Y-93867058D01*
X203181566Y-93726000D01*
X203181566Y-91059000D01*
X203156770Y-90927223D01*
X203078890Y-90806193D01*
X202960058Y-90724999D01*
X202819000Y-90696434D01*
X201228960Y-90696434D01*
X201097183Y-90721230D01*
X200976153Y-90799110D01*
X200894959Y-90917942D01*
X200866394Y-91059000D01*
X199183606Y-91059000D01*
X199158810Y-90927223D01*
X199080930Y-90806193D01*
X198962098Y-90724999D01*
X198821040Y-90696434D01*
X197231000Y-90696434D01*
X197099223Y-90721230D01*
X196978193Y-90799110D01*
X196896999Y-90917942D01*
X196868434Y-91059000D01*
X196399662Y-91059000D01*
X196390375Y-91012313D01*
X196148110Y-90649737D01*
X195785534Y-90407472D01*
X195357847Y-90322400D01*
X194278153Y-90322400D01*
X193850466Y-90407472D01*
X193537220Y-90616776D01*
X193485631Y-90539569D01*
X192720931Y-89774869D01*
X192655877Y-89731401D01*
X192592789Y-89689247D01*
X192806508Y-89369392D01*
X192876656Y-89416264D01*
X193090500Y-89458800D01*
X193333232Y-89458800D01*
X193487890Y-89690263D01*
X193850466Y-89932528D01*
X194278153Y-90017600D01*
X195357847Y-90017600D01*
X195785534Y-89932528D01*
X196148110Y-89690263D01*
X196390375Y-89327687D01*
X196475447Y-88900000D01*
X196390375Y-88472313D01*
X196148110Y-88109737D01*
X195785534Y-87867472D01*
X195357847Y-87782400D01*
X194278153Y-87782400D01*
X193850466Y-87867472D01*
X193537220Y-88076776D01*
X193485631Y-87999569D01*
X192720931Y-87234869D01*
X192711076Y-87228284D01*
X192592789Y-87149247D01*
X192806508Y-86829392D01*
X192876656Y-86876264D01*
X193090500Y-86918800D01*
X193333232Y-86918800D01*
X193487890Y-87150263D01*
X193850466Y-87392528D01*
X194278153Y-87477600D01*
X195357847Y-87477600D01*
X195785534Y-87392528D01*
X196148110Y-87150263D01*
X196390375Y-86787687D01*
X196470444Y-86385154D01*
X196559656Y-86444764D01*
X196773500Y-86487300D01*
X198026000Y-86487300D01*
X198239844Y-86444764D01*
X198421131Y-86323631D01*
X198542264Y-86142344D01*
X198584800Y-85928500D01*
X198584800Y-85833566D01*
X198821040Y-85833566D01*
X198952817Y-85808770D01*
X199073847Y-85730890D01*
X199155041Y-85612058D01*
X199183606Y-85471000D01*
X199183606Y-82804000D01*
X200866394Y-82804000D01*
X200866394Y-85471000D01*
X200891190Y-85602777D01*
X200969070Y-85723807D01*
X201087902Y-85805001D01*
X201228960Y-85833566D01*
X202819000Y-85833566D01*
X202950777Y-85808770D01*
X203071807Y-85730890D01*
X203153001Y-85612058D01*
X203181566Y-85471000D01*
X203181566Y-82804000D01*
X203156770Y-82672223D01*
X203078890Y-82551193D01*
X202960058Y-82469999D01*
X202819000Y-82441434D01*
X201228960Y-82441434D01*
X201097183Y-82466230D01*
X200976153Y-82544110D01*
X200894959Y-82662942D01*
X200866394Y-82804000D01*
X199183606Y-82804000D01*
X199158810Y-82672223D01*
X199080930Y-82551193D01*
X198962098Y-82469999D01*
X198821040Y-82441434D01*
X197231000Y-82441434D01*
X197099223Y-82466230D01*
X196978193Y-82544110D01*
X196896999Y-82662942D01*
X196868434Y-82804000D01*
X196868434Y-85233172D01*
X196330131Y-84694869D01*
X196324873Y-84691356D01*
X196165210Y-84584671D01*
X196390375Y-84247687D01*
X196475447Y-83820000D01*
X196390375Y-83392313D01*
X196148110Y-83029737D01*
X195785534Y-82787472D01*
X195357847Y-82702400D01*
X194278153Y-82702400D01*
X193850466Y-82787472D01*
X193487890Y-83029737D01*
X193245625Y-83392313D01*
X193160553Y-83820000D01*
X193245625Y-84247687D01*
X193290616Y-84315021D01*
X193057572Y-84411313D01*
X192832304Y-84636188D01*
X192754184Y-84824322D01*
X192574331Y-84644469D01*
X192557624Y-84633306D01*
X192592110Y-84610263D01*
X192834375Y-84247687D01*
X192919447Y-83820000D01*
X192834375Y-83392313D01*
X192592110Y-83029737D01*
X192229534Y-82787472D01*
X191801847Y-82702400D01*
X190722153Y-82702400D01*
X190294466Y-82787472D01*
X189931890Y-83029737D01*
X189777232Y-83261200D01*
X189765962Y-83261200D01*
X188341962Y-81837200D01*
X189526456Y-81837200D01*
X189534500Y-81838800D01*
X189777232Y-81838800D01*
X189931890Y-82070263D01*
X190294466Y-82312528D01*
X190722153Y-82397600D01*
X191801847Y-82397600D01*
X192229534Y-82312528D01*
X192592110Y-82070263D01*
X192806508Y-81749392D01*
X192876656Y-81796264D01*
X193090500Y-81838800D01*
X193333232Y-81838800D01*
X193487890Y-82070263D01*
X193850466Y-82312528D01*
X194278153Y-82397600D01*
X195357847Y-82397600D01*
X195785534Y-82312528D01*
X196148110Y-82070263D01*
X196390375Y-81707687D01*
X196475447Y-81280000D01*
X196390375Y-80852313D01*
X196148110Y-80489737D01*
X195785534Y-80247472D01*
X195357847Y-80162400D01*
X194278153Y-80162400D01*
X193850466Y-80247472D01*
X193537220Y-80456776D01*
X193485631Y-80379569D01*
X192720931Y-79614869D01*
X192641972Y-79562110D01*
X192585483Y-79524365D01*
X192802528Y-79199534D01*
X192887600Y-78771847D01*
X192887600Y-77692153D01*
X193192400Y-77692153D01*
X193192400Y-78771847D01*
X193277472Y-79199534D01*
X193519737Y-79562110D01*
X193882313Y-79804375D01*
X194310000Y-79889447D01*
X194737687Y-79804375D01*
X195100263Y-79562110D01*
X195342528Y-79199534D01*
X195427600Y-78771847D01*
X195427600Y-77692153D01*
X195342528Y-77264466D01*
X195100263Y-76901890D01*
X194737687Y-76659625D01*
X194310000Y-76574553D01*
X193882313Y-76659625D01*
X193519737Y-76901890D01*
X193277472Y-77264466D01*
X193192400Y-77692153D01*
X192887600Y-77692153D01*
X192802528Y-77264466D01*
X192560263Y-76901890D01*
X192197687Y-76659625D01*
X191770000Y-76574553D01*
X191342313Y-76659625D01*
X190979737Y-76901890D01*
X190737472Y-77264466D01*
X190732388Y-77290026D01*
X189426462Y-75984100D01*
X211035900Y-75984100D01*
X211035900Y-129755900D01*
X211035900Y-129755900D01*
G37*
X211035900Y-129755900D02*
X195826862Y-129755900D01*
X198262031Y-127320731D01*
X198383164Y-127139444D01*
X198425700Y-126925600D01*
X198425700Y-113188452D01*
X204304761Y-113188452D01*
X204426313Y-113482628D01*
X204651188Y-113707896D01*
X204945152Y-113829961D01*
X205042942Y-113830046D01*
X206844845Y-115631950D01*
X206844761Y-115728452D01*
X206966313Y-116022628D01*
X207191188Y-116247896D01*
X207485152Y-116369961D01*
X207803452Y-116370239D01*
X208097628Y-116248687D01*
X208322896Y-116023812D01*
X208444961Y-115729848D01*
X208445239Y-115411548D01*
X208323687Y-115117372D01*
X208098812Y-114892104D01*
X207804848Y-114770039D01*
X207707058Y-114769954D01*
X205905155Y-112968051D01*
X205905239Y-112871548D01*
X205783687Y-112577372D01*
X205558812Y-112352104D01*
X205264848Y-112230039D01*
X204946548Y-112229761D01*
X204652372Y-112351313D01*
X204427104Y-112576188D01*
X204305039Y-112870152D01*
X204304761Y-113188452D01*
X198425700Y-113188452D01*
X198425700Y-113081400D01*
X198383164Y-112867556D01*
X198262031Y-112686269D01*
X196940631Y-111364869D01*
X196920238Y-111351243D01*
X196759344Y-111243736D01*
X196545500Y-111201200D01*
X196302768Y-111201200D01*
X196148110Y-110969737D01*
X196138924Y-110963599D01*
X196180931Y-110935531D01*
X196940631Y-110175831D01*
X197015889Y-110063200D01*
X197061764Y-109994544D01*
X197104300Y-109780700D01*
X197104300Y-107365800D01*
X203498872Y-107365800D01*
X203661283Y-108182293D01*
X204123789Y-108874483D01*
X204815979Y-109336989D01*
X205632472Y-109499400D01*
X207269928Y-109499400D01*
X208086421Y-109336989D01*
X208778611Y-108874483D01*
X209241117Y-108182293D01*
X209403528Y-107365800D01*
X209241117Y-106549307D01*
X208778611Y-105857117D01*
X208086421Y-105394611D01*
X207269928Y-105232200D01*
X205632472Y-105232200D01*
X204815979Y-105394611D01*
X204123789Y-105857117D01*
X203661283Y-106549307D01*
X203498872Y-107365800D01*
X197104300Y-107365800D01*
X197104300Y-106680000D01*
X197061764Y-106466156D01*
X196940631Y-106284869D01*
X196759344Y-106163736D01*
X196545500Y-106121200D01*
X196302768Y-106121200D01*
X196148110Y-105889737D01*
X195785534Y-105647472D01*
X195357847Y-105562400D01*
X194278153Y-105562400D01*
X193850466Y-105647472D01*
X193487890Y-105889737D01*
X193245625Y-106252313D01*
X193160553Y-106680000D01*
X193245625Y-107107687D01*
X193487890Y-107470263D01*
X193850466Y-107712528D01*
X194278153Y-107797600D01*
X195357847Y-107797600D01*
X195785534Y-107712528D01*
X195986700Y-107578113D01*
X195986700Y-108321887D01*
X195785534Y-108187472D01*
X195357847Y-108102400D01*
X194278153Y-108102400D01*
X193850466Y-108187472D01*
X193537220Y-108396776D01*
X193485631Y-108319569D01*
X192720931Y-107554869D01*
X192704019Y-107543569D01*
X192592789Y-107469247D01*
X192834375Y-107107687D01*
X192919447Y-106680000D01*
X192834375Y-106252313D01*
X192592110Y-105889737D01*
X192229534Y-105647472D01*
X191801847Y-105562400D01*
X190722153Y-105562400D01*
X190294466Y-105647472D01*
X189931890Y-105889737D01*
X189689625Y-106252313D01*
X189604553Y-106680000D01*
X189689625Y-107107687D01*
X189879062Y-107391200D01*
X188853162Y-107391200D01*
X186285353Y-104823391D01*
X186941647Y-104315821D01*
X187042267Y-104140000D01*
X189604553Y-104140000D01*
X189689625Y-104567687D01*
X189931890Y-104930263D01*
X190294466Y-105172528D01*
X190722153Y-105257600D01*
X191801847Y-105257600D01*
X192229534Y-105172528D01*
X192592110Y-104930263D01*
X192834375Y-104567687D01*
X192919447Y-104140000D01*
X193160553Y-104140000D01*
X193245625Y-104567687D01*
X193487890Y-104930263D01*
X193850466Y-105172528D01*
X194278153Y-105257600D01*
X195357847Y-105257600D01*
X195785534Y-105172528D01*
X196148110Y-104930263D01*
X196390375Y-104567687D01*
X196475447Y-104140000D01*
X196390375Y-103712313D01*
X196148110Y-103349737D01*
X195785534Y-103107472D01*
X195357847Y-103022400D01*
X196824600Y-103022400D01*
X196824600Y-103530400D01*
X197084001Y-104529696D01*
X197706070Y-105353656D01*
X198596103Y-105876841D01*
X198903127Y-105958891D01*
X199313800Y-105862530D01*
X199313800Y-103022400D01*
X199618600Y-103022400D01*
X199618600Y-105862530D01*
X200029273Y-105958891D01*
X200336297Y-105876841D01*
X201226330Y-105353656D01*
X201848399Y-104529696D01*
X202107800Y-103530400D01*
X202107800Y-103022400D01*
X199618600Y-103022400D01*
X199313800Y-103022400D01*
X196824600Y-103022400D01*
X195357847Y-103022400D01*
X194278153Y-103022400D01*
X193850466Y-103107472D01*
X193487890Y-103349737D01*
X193245625Y-103712313D01*
X193160553Y-104140000D01*
X192919447Y-104140000D01*
X192834375Y-103712313D01*
X192592110Y-103349737D01*
X192229534Y-103107472D01*
X191801847Y-103022400D01*
X190722153Y-103022400D01*
X190294466Y-103107472D01*
X189931890Y-103349737D01*
X189689625Y-103712313D01*
X189604553Y-104140000D01*
X187042267Y-104140000D01*
X187368476Y-103569994D01*
X187421283Y-103363398D01*
X187319313Y-103022400D01*
X184797700Y-103022400D01*
X184797700Y-103042400D01*
X184492900Y-103042400D01*
X184492900Y-103022400D01*
X184472900Y-103022400D01*
X184472900Y-102717600D01*
X184492900Y-102717600D01*
X184492900Y-100672900D01*
X184797700Y-100672900D01*
X184797700Y-102717600D01*
X187319313Y-102717600D01*
X187421283Y-102376602D01*
X187368476Y-102170006D01*
X187042268Y-101600000D01*
X189604553Y-101600000D01*
X189689625Y-102027687D01*
X189931890Y-102390263D01*
X190294466Y-102632528D01*
X190722153Y-102717600D01*
X191801847Y-102717600D01*
X192229534Y-102632528D01*
X192592110Y-102390263D01*
X192834375Y-102027687D01*
X192919447Y-101600000D01*
X193160553Y-101600000D01*
X193245625Y-102027687D01*
X193487890Y-102390263D01*
X193850466Y-102632528D01*
X194278153Y-102717600D01*
X195357847Y-102717600D01*
X195785534Y-102632528D01*
X196148110Y-102390263D01*
X196268824Y-102209600D01*
X196824600Y-102209600D01*
X196824600Y-102717600D01*
X199313800Y-102717600D01*
X199313800Y-99877470D01*
X199618600Y-99877470D01*
X199618600Y-102717600D01*
X202107800Y-102717600D01*
X202107800Y-102209600D01*
X201848399Y-101210304D01*
X201226330Y-100386344D01*
X200336297Y-99863159D01*
X200029273Y-99781109D01*
X199618600Y-99877470D01*
X199313800Y-99877470D01*
X198903127Y-99781109D01*
X198596103Y-99863159D01*
X197706070Y-100386344D01*
X197084001Y-101210304D01*
X196824600Y-102209600D01*
X196268824Y-102209600D01*
X196390375Y-102027687D01*
X196475447Y-101600000D01*
X196390375Y-101172313D01*
X196148110Y-100809737D01*
X195785534Y-100567472D01*
X195357847Y-100482400D01*
X194278153Y-100482400D01*
X193850466Y-100567472D01*
X193487890Y-100809737D01*
X193245625Y-101172313D01*
X193160553Y-101600000D01*
X192919447Y-101600000D01*
X192834375Y-101172313D01*
X192592110Y-100809737D01*
X192229534Y-100567472D01*
X191801847Y-100482400D01*
X190722153Y-100482400D01*
X190294466Y-100567472D01*
X189931890Y-100809737D01*
X189689625Y-101172313D01*
X189604553Y-101600000D01*
X187042268Y-101600000D01*
X186941647Y-101424179D01*
X186261893Y-100898465D01*
X185432700Y-100672900D01*
X184797700Y-100672900D01*
X184492900Y-100672900D01*
X183857900Y-100672900D01*
X183028707Y-100898465D01*
X182348953Y-101424179D01*
X182093510Y-101870532D01*
X181867271Y-101531942D01*
X181253365Y-101121743D01*
X180529213Y-100977700D01*
X179160187Y-100977700D01*
X178436035Y-101121743D01*
X177822129Y-101531942D01*
X177411930Y-102145848D01*
X177267887Y-102870000D01*
X177332551Y-103195089D01*
X176320631Y-102183169D01*
X176300931Y-102170006D01*
X176139344Y-102062036D01*
X175925500Y-102019500D01*
X167487600Y-102019500D01*
X167487600Y-100277320D01*
X167620152Y-100332361D01*
X167938452Y-100332639D01*
X168232628Y-100211087D01*
X168352725Y-100091200D01*
X184354200Y-100091200D01*
X184473088Y-100210296D01*
X184767052Y-100332361D01*
X185085352Y-100332639D01*
X185379528Y-100211087D01*
X185604796Y-99986212D01*
X185726861Y-99692248D01*
X185727139Y-99373948D01*
X185688158Y-99279609D01*
X185952952Y-99389561D01*
X186271252Y-99389839D01*
X186565428Y-99268287D01*
X186790696Y-99043412D01*
X186867995Y-98857257D01*
X187770469Y-99759732D01*
X187951757Y-99880865D01*
X188165600Y-99923400D01*
X189229900Y-99923400D01*
X189443744Y-99880864D01*
X189625031Y-99759731D01*
X189765962Y-99618800D01*
X189777232Y-99618800D01*
X189931890Y-99850263D01*
X190294466Y-100092528D01*
X190722153Y-100177600D01*
X191801847Y-100177600D01*
X192229534Y-100092528D01*
X192592110Y-99850263D01*
X192834375Y-99487687D01*
X192919447Y-99060000D01*
X193160553Y-99060000D01*
X193245625Y-99487687D01*
X193487890Y-99850263D01*
X193850466Y-100092528D01*
X194278153Y-100177600D01*
X195357847Y-100177600D01*
X195785534Y-100092528D01*
X196148110Y-99850263D01*
X196390375Y-99487687D01*
X196475447Y-99060000D01*
X196390375Y-98632313D01*
X196148110Y-98269737D01*
X195785534Y-98027472D01*
X195357847Y-97942400D01*
X194278153Y-97942400D01*
X193850466Y-98027472D01*
X193487890Y-98269737D01*
X193245625Y-98632313D01*
X193160553Y-99060000D01*
X192919447Y-99060000D01*
X192834375Y-98632313D01*
X192592110Y-98269737D01*
X192229534Y-98027472D01*
X191801847Y-97942400D01*
X190722153Y-97942400D01*
X190294466Y-98027472D01*
X189931890Y-98269737D01*
X189777232Y-98501200D01*
X189534500Y-98501200D01*
X189405912Y-98526778D01*
X189406139Y-98266548D01*
X189284587Y-97972372D01*
X189059712Y-97747104D01*
X188765748Y-97625039D01*
X188596053Y-97624891D01*
X186806462Y-95835300D01*
X188059538Y-95835300D01*
X189139369Y-96915132D01*
X189320657Y-97036265D01*
X189534500Y-97078800D01*
X189777232Y-97078800D01*
X189931890Y-97310263D01*
X190294466Y-97552528D01*
X190722153Y-97637600D01*
X191801847Y-97637600D01*
X192229534Y-97552528D01*
X192592110Y-97310263D01*
X192806508Y-96989392D01*
X192876656Y-97036264D01*
X193090500Y-97078800D01*
X193333232Y-97078800D01*
X193487890Y-97310263D01*
X193850466Y-97552528D01*
X194278153Y-97637600D01*
X195357847Y-97637600D01*
X195785534Y-97552528D01*
X196148110Y-97310263D01*
X196390375Y-96947687D01*
X196475447Y-96520000D01*
X196390375Y-96092313D01*
X196148110Y-95729737D01*
X195785534Y-95487472D01*
X195357847Y-95402400D01*
X194278153Y-95402400D01*
X193850466Y-95487472D01*
X193537220Y-95696776D01*
X193485631Y-95619569D01*
X192720931Y-94854869D01*
X192663423Y-94816443D01*
X192592789Y-94769247D01*
X192806508Y-94449392D01*
X192876656Y-94496264D01*
X193090500Y-94538800D01*
X193333232Y-94538800D01*
X193487890Y-94770263D01*
X193850466Y-95012528D01*
X194278153Y-95097600D01*
X195357847Y-95097600D01*
X195785534Y-95012528D01*
X196148110Y-94770263D01*
X196390375Y-94407687D01*
X196475447Y-93980000D01*
X196390375Y-93552313D01*
X196148110Y-93189737D01*
X195785534Y-92947472D01*
X195357847Y-92862400D01*
X194278153Y-92862400D01*
X193850466Y-92947472D01*
X193537220Y-93156776D01*
X193485631Y-93079568D01*
X192703531Y-92297469D01*
X192615709Y-92238788D01*
X192595456Y-92225255D01*
X192806508Y-91909392D01*
X192876656Y-91956264D01*
X193090500Y-91998800D01*
X193333232Y-91998800D01*
X193487890Y-92230263D01*
X193850466Y-92472528D01*
X194278153Y-92557600D01*
X195357847Y-92557600D01*
X195785534Y-92472528D01*
X196148110Y-92230263D01*
X196390375Y-91867687D01*
X196475447Y-91440000D01*
X196399662Y-91059000D01*
X196868434Y-91059000D01*
X196868434Y-93726000D01*
X196893230Y-93857777D01*
X196971110Y-93978807D01*
X197089942Y-94060001D01*
X197231000Y-94088566D01*
X198821040Y-94088566D01*
X198952817Y-94063770D01*
X199073847Y-93985890D01*
X199155041Y-93867058D01*
X199183606Y-93726000D01*
X199183606Y-91059000D01*
X200866394Y-91059000D01*
X200866394Y-93726000D01*
X200891190Y-93857777D01*
X200969070Y-93978807D01*
X201087902Y-94060001D01*
X201228960Y-94088566D01*
X201414400Y-94088566D01*
X201414400Y-99433400D01*
X201460803Y-99666684D01*
X201592948Y-99864452D01*
X203007442Y-101278946D01*
X202884165Y-101361317D01*
X202421659Y-102053507D01*
X202259248Y-102870000D01*
X202421659Y-103686493D01*
X202884165Y-104378683D01*
X203576355Y-104841189D01*
X204392848Y-105003600D01*
X205512352Y-105003600D01*
X206328845Y-104841189D01*
X207021035Y-104378683D01*
X207452692Y-103732662D01*
X207708650Y-103989067D01*
X208193924Y-104190570D01*
X208719371Y-104191029D01*
X209204996Y-103990373D01*
X209576867Y-103619150D01*
X209778370Y-103133876D01*
X209778829Y-102608429D01*
X209578173Y-102122804D01*
X209206950Y-101750933D01*
X208721676Y-101549430D01*
X208196229Y-101548971D01*
X207710604Y-101749627D01*
X207452592Y-102007189D01*
X207021035Y-101361317D01*
X206328845Y-100898811D01*
X205512352Y-100736400D01*
X204392848Y-100736400D01*
X204222908Y-100770203D01*
X202633600Y-99180896D01*
X202633600Y-98374200D01*
X203498872Y-98374200D01*
X203661283Y-99190693D01*
X204123789Y-99882883D01*
X204815979Y-100345389D01*
X205632472Y-100507800D01*
X207269928Y-100507800D01*
X208086421Y-100345389D01*
X208778611Y-99882883D01*
X209241117Y-99190693D01*
X209403528Y-98374200D01*
X209241117Y-97557707D01*
X208778611Y-96865517D01*
X208086421Y-96403011D01*
X207269928Y-96240600D01*
X205632472Y-96240600D01*
X204815979Y-96403011D01*
X204123789Y-96865517D01*
X203661283Y-97557707D01*
X203498872Y-98374200D01*
X202633600Y-98374200D01*
X202633600Y-94088566D01*
X202819000Y-94088566D01*
X202950777Y-94063770D01*
X203071807Y-93985890D01*
X203153001Y-93867058D01*
X203181566Y-93726000D01*
X203181566Y-91059000D01*
X203156770Y-90927223D01*
X203078890Y-90806193D01*
X202960058Y-90724999D01*
X202819000Y-90696434D01*
X201228960Y-90696434D01*
X201097183Y-90721230D01*
X200976153Y-90799110D01*
X200894959Y-90917942D01*
X200866394Y-91059000D01*
X199183606Y-91059000D01*
X199158810Y-90927223D01*
X199080930Y-90806193D01*
X198962098Y-90724999D01*
X198821040Y-90696434D01*
X197231000Y-90696434D01*
X197099223Y-90721230D01*
X196978193Y-90799110D01*
X196896999Y-90917942D01*
X196868434Y-91059000D01*
X196399662Y-91059000D01*
X196390375Y-91012313D01*
X196148110Y-90649737D01*
X195785534Y-90407472D01*
X195357847Y-90322400D01*
X194278153Y-90322400D01*
X193850466Y-90407472D01*
X193537220Y-90616776D01*
X193485631Y-90539569D01*
X192720931Y-89774869D01*
X192655877Y-89731401D01*
X192592789Y-89689247D01*
X192806508Y-89369392D01*
X192876656Y-89416264D01*
X193090500Y-89458800D01*
X193333232Y-89458800D01*
X193487890Y-89690263D01*
X193850466Y-89932528D01*
X194278153Y-90017600D01*
X195357847Y-90017600D01*
X195785534Y-89932528D01*
X196148110Y-89690263D01*
X196390375Y-89327687D01*
X196475447Y-88900000D01*
X196390375Y-88472313D01*
X196148110Y-88109737D01*
X195785534Y-87867472D01*
X195357847Y-87782400D01*
X194278153Y-87782400D01*
X193850466Y-87867472D01*
X193537220Y-88076776D01*
X193485631Y-87999569D01*
X192720931Y-87234869D01*
X192711076Y-87228284D01*
X192592789Y-87149247D01*
X192806508Y-86829392D01*
X192876656Y-86876264D01*
X193090500Y-86918800D01*
X193333232Y-86918800D01*
X193487890Y-87150263D01*
X193850466Y-87392528D01*
X194278153Y-87477600D01*
X195357847Y-87477600D01*
X195785534Y-87392528D01*
X196148110Y-87150263D01*
X196390375Y-86787687D01*
X196470444Y-86385154D01*
X196559656Y-86444764D01*
X196773500Y-86487300D01*
X198026000Y-86487300D01*
X198239844Y-86444764D01*
X198421131Y-86323631D01*
X198542264Y-86142344D01*
X198584800Y-85928500D01*
X198584800Y-85833566D01*
X198821040Y-85833566D01*
X198952817Y-85808770D01*
X199073847Y-85730890D01*
X199155041Y-85612058D01*
X199183606Y-85471000D01*
X199183606Y-82804000D01*
X200866394Y-82804000D01*
X200866394Y-85471000D01*
X200891190Y-85602777D01*
X200969070Y-85723807D01*
X201087902Y-85805001D01*
X201228960Y-85833566D01*
X202819000Y-85833566D01*
X202950777Y-85808770D01*
X203071807Y-85730890D01*
X203153001Y-85612058D01*
X203181566Y-85471000D01*
X203181566Y-82804000D01*
X203156770Y-82672223D01*
X203078890Y-82551193D01*
X202960058Y-82469999D01*
X202819000Y-82441434D01*
X201228960Y-82441434D01*
X201097183Y-82466230D01*
X200976153Y-82544110D01*
X200894959Y-82662942D01*
X200866394Y-82804000D01*
X199183606Y-82804000D01*
X199158810Y-82672223D01*
X199080930Y-82551193D01*
X198962098Y-82469999D01*
X198821040Y-82441434D01*
X197231000Y-82441434D01*
X197099223Y-82466230D01*
X196978193Y-82544110D01*
X196896999Y-82662942D01*
X196868434Y-82804000D01*
X196868434Y-85233172D01*
X196330131Y-84694869D01*
X196324873Y-84691356D01*
X196165210Y-84584671D01*
X196390375Y-84247687D01*
X196475447Y-83820000D01*
X196390375Y-83392313D01*
X196148110Y-83029737D01*
X195785534Y-82787472D01*
X195357847Y-82702400D01*
X194278153Y-82702400D01*
X193850466Y-82787472D01*
X193487890Y-83029737D01*
X193245625Y-83392313D01*
X193160553Y-83820000D01*
X193245625Y-84247687D01*
X193290616Y-84315021D01*
X193057572Y-84411313D01*
X192832304Y-84636188D01*
X192754184Y-84824322D01*
X192574331Y-84644469D01*
X192557624Y-84633306D01*
X192592110Y-84610263D01*
X192834375Y-84247687D01*
X192919447Y-83820000D01*
X192834375Y-83392313D01*
X192592110Y-83029737D01*
X192229534Y-82787472D01*
X191801847Y-82702400D01*
X190722153Y-82702400D01*
X190294466Y-82787472D01*
X189931890Y-83029737D01*
X189777232Y-83261200D01*
X189765962Y-83261200D01*
X188341962Y-81837200D01*
X189526456Y-81837200D01*
X189534500Y-81838800D01*
X189777232Y-81838800D01*
X189931890Y-82070263D01*
X190294466Y-82312528D01*
X190722153Y-82397600D01*
X191801847Y-82397600D01*
X192229534Y-82312528D01*
X192592110Y-82070263D01*
X192806508Y-81749392D01*
X192876656Y-81796264D01*
X193090500Y-81838800D01*
X193333232Y-81838800D01*
X193487890Y-82070263D01*
X193850466Y-82312528D01*
X194278153Y-82397600D01*
X195357847Y-82397600D01*
X195785534Y-82312528D01*
X196148110Y-82070263D01*
X196390375Y-81707687D01*
X196475447Y-81280000D01*
X196390375Y-80852313D01*
X196148110Y-80489737D01*
X195785534Y-80247472D01*
X195357847Y-80162400D01*
X194278153Y-80162400D01*
X193850466Y-80247472D01*
X193537220Y-80456776D01*
X193485631Y-80379569D01*
X192720931Y-79614869D01*
X192641972Y-79562110D01*
X192585483Y-79524365D01*
X192802528Y-79199534D01*
X192887600Y-78771847D01*
X192887600Y-77692153D01*
X193192400Y-77692153D01*
X193192400Y-78771847D01*
X193277472Y-79199534D01*
X193519737Y-79562110D01*
X193882313Y-79804375D01*
X194310000Y-79889447D01*
X194737687Y-79804375D01*
X195100263Y-79562110D01*
X195342528Y-79199534D01*
X195427600Y-78771847D01*
X195427600Y-77692153D01*
X195342528Y-77264466D01*
X195100263Y-76901890D01*
X194737687Y-76659625D01*
X194310000Y-76574553D01*
X193882313Y-76659625D01*
X193519737Y-76901890D01*
X193277472Y-77264466D01*
X193192400Y-77692153D01*
X192887600Y-77692153D01*
X192802528Y-77264466D01*
X192560263Y-76901890D01*
X192197687Y-76659625D01*
X191770000Y-76574553D01*
X191342313Y-76659625D01*
X190979737Y-76901890D01*
X190737472Y-77264466D01*
X190732388Y-77290026D01*
X189426462Y-75984100D01*
X211035900Y-75984100D01*
X211035900Y-129755900D01*
G36*
X148705207Y-125365469D02*
X148590000Y-125342553D01*
X148162313Y-125427625D01*
X147799737Y-125669890D01*
X147557472Y-126032466D01*
X147472400Y-126460153D01*
X147472400Y-127539847D01*
X147557472Y-127967534D01*
X147691887Y-128168700D01*
X144720453Y-128168700D01*
X144881600Y-127660400D01*
X144881600Y-127152400D01*
X143662400Y-127152400D01*
X143662400Y-127172400D01*
X143357600Y-127172400D01*
X143357600Y-127152400D01*
X142138400Y-127152400D01*
X142138400Y-127660400D01*
X142299547Y-128168700D01*
X141868113Y-128168700D01*
X142002528Y-127967534D01*
X142087600Y-127539847D01*
X142087600Y-126460153D01*
X142063621Y-126339600D01*
X142138400Y-126339600D01*
X142138400Y-126847600D01*
X143357600Y-126847600D01*
X143357600Y-125282363D01*
X143662400Y-125282363D01*
X143662400Y-126847600D01*
X144881600Y-126847600D01*
X144881600Y-126339600D01*
X144718872Y-125826312D01*
X144372104Y-125414369D01*
X143873761Y-125169516D01*
X143662400Y-125282363D01*
X143357600Y-125282363D01*
X143146239Y-125169516D01*
X142647896Y-125414369D01*
X142301128Y-125826312D01*
X142138400Y-126339600D01*
X142063621Y-126339600D01*
X142002528Y-126032466D01*
X141760263Y-125669890D01*
X141579600Y-125549175D01*
X141579600Y-125221700D01*
X141533197Y-124988416D01*
X141401052Y-124790648D01*
X141203284Y-124658503D01*
X141074569Y-124632900D01*
X147972638Y-124632900D01*
X148705207Y-125365469D01*
X148705207Y-125365469D01*
G37*
X148705207Y-125365469D02*
X148590000Y-125342553D01*
X148162313Y-125427625D01*
X147799737Y-125669890D01*
X147557472Y-126032466D01*
X147472400Y-126460153D01*
X147472400Y-127539847D01*
X147557472Y-127967534D01*
X147691887Y-128168700D01*
X144720453Y-128168700D01*
X144881600Y-127660400D01*
X144881600Y-127152400D01*
X143662400Y-127152400D01*
X143662400Y-127172400D01*
X143357600Y-127172400D01*
X143357600Y-127152400D01*
X142138400Y-127152400D01*
X142138400Y-127660400D01*
X142299547Y-128168700D01*
X141868113Y-128168700D01*
X142002528Y-127967534D01*
X142087600Y-127539847D01*
X142087600Y-126460153D01*
X142063621Y-126339600D01*
X142138400Y-126339600D01*
X142138400Y-126847600D01*
X143357600Y-126847600D01*
X143357600Y-125282363D01*
X143662400Y-125282363D01*
X143662400Y-126847600D01*
X144881600Y-126847600D01*
X144881600Y-126339600D01*
X144718872Y-125826312D01*
X144372104Y-125414369D01*
X143873761Y-125169516D01*
X143662400Y-125282363D01*
X143357600Y-125282363D01*
X143146239Y-125169516D01*
X142647896Y-125414369D01*
X142301128Y-125826312D01*
X142138400Y-126339600D01*
X142063621Y-126339600D01*
X142002528Y-126032466D01*
X141760263Y-125669890D01*
X141579600Y-125549175D01*
X141579600Y-125221700D01*
X141533197Y-124988416D01*
X141401052Y-124790648D01*
X141203284Y-124658503D01*
X141074569Y-124632900D01*
X147972638Y-124632900D01*
X148705207Y-125365469D01*
G36*
X166282438Y-83045300D02*
X166217598Y-83045300D01*
X166217598Y-83197698D01*
X166065200Y-83045300D01*
X165740743Y-83045300D01*
X165516689Y-83138106D01*
X165345206Y-83309589D01*
X165252400Y-83533643D01*
X165252400Y-85598000D01*
X165404800Y-85750400D01*
X166217600Y-85750400D01*
X166217600Y-85730400D01*
X166522400Y-85730400D01*
X166522400Y-85750400D01*
X167335200Y-85750400D01*
X167414654Y-85670946D01*
X167497052Y-85705161D01*
X167579832Y-85705233D01*
X167579561Y-86015752D01*
X167701113Y-86309928D01*
X167925988Y-86535196D01*
X168219952Y-86657261D01*
X168538252Y-86657539D01*
X168832428Y-86535987D01*
X169057696Y-86311112D01*
X169135060Y-86124800D01*
X182843654Y-86124800D01*
X182669527Y-86385400D01*
X182562300Y-86385400D01*
X182329016Y-86431803D01*
X182131248Y-86563948D01*
X181999103Y-86761716D01*
X181952700Y-86995000D01*
X181952700Y-87046295D01*
X180632103Y-88366892D01*
X180544787Y-88155572D01*
X180319912Y-87930304D01*
X180025948Y-87808239D01*
X179707648Y-87807961D01*
X179413472Y-87929513D01*
X179293375Y-88049400D01*
X167487600Y-88049400D01*
X167487600Y-86207600D01*
X167335200Y-86055200D01*
X166522400Y-86055200D01*
X166522400Y-86075200D01*
X166217600Y-86075200D01*
X166217600Y-86055200D01*
X165404800Y-86055200D01*
X165252400Y-86207600D01*
X165252400Y-88049400D01*
X164947600Y-88049400D01*
X164947600Y-86207600D01*
X164795200Y-86055200D01*
X163982400Y-86055200D01*
X163982400Y-86075200D01*
X163677600Y-86075200D01*
X163677600Y-86055200D01*
X162864800Y-86055200D01*
X162712400Y-86207600D01*
X162712400Y-88049400D01*
X162160566Y-88049400D01*
X162160566Y-83654900D01*
X162137750Y-83533643D01*
X162712400Y-83533643D01*
X162712400Y-85598000D01*
X162864800Y-85750400D01*
X163677600Y-85750400D01*
X163677600Y-83197700D01*
X163982400Y-83197700D01*
X163982400Y-85750400D01*
X164795200Y-85750400D01*
X164947600Y-85598000D01*
X164947600Y-83533643D01*
X164854794Y-83309589D01*
X164683311Y-83138106D01*
X164459257Y-83045300D01*
X164134800Y-83045300D01*
X163982400Y-83197700D01*
X163677600Y-83197700D01*
X163525200Y-83045300D01*
X163200743Y-83045300D01*
X162976689Y-83138106D01*
X162805206Y-83309589D01*
X162712400Y-83533643D01*
X162137750Y-83533643D01*
X162135770Y-83523123D01*
X162057890Y-83402093D01*
X161939058Y-83320899D01*
X161798000Y-83292334D01*
X160782000Y-83292334D01*
X160650223Y-83317130D01*
X160529193Y-83395010D01*
X160447999Y-83513842D01*
X160419434Y-83654900D01*
X160419434Y-85695736D01*
X159715607Y-86399563D01*
X159620566Y-86438834D01*
X159620566Y-83654900D01*
X159595770Y-83523123D01*
X159517890Y-83402093D01*
X159399058Y-83320899D01*
X159258000Y-83292334D01*
X158242000Y-83292334D01*
X158110223Y-83317130D01*
X157989193Y-83395010D01*
X157907999Y-83513842D01*
X157879434Y-83654900D01*
X157879434Y-88150700D01*
X157904230Y-88282477D01*
X157982110Y-88403507D01*
X158100942Y-88484701D01*
X158191200Y-88502979D01*
X158191200Y-88608200D01*
X158233736Y-88822044D01*
X158354869Y-89003331D01*
X158536156Y-89124464D01*
X158750000Y-89167000D01*
X179293400Y-89167000D01*
X179412288Y-89286096D01*
X179624699Y-89374297D01*
X179267596Y-89731400D01*
X174865589Y-89731400D01*
X174797412Y-89663104D01*
X174503448Y-89541039D01*
X174185148Y-89540761D01*
X173890972Y-89662313D01*
X173821764Y-89731400D01*
X167926200Y-89731400D01*
X167692916Y-89777803D01*
X167495148Y-89909948D01*
X167240566Y-90164530D01*
X167240566Y-89649300D01*
X167215770Y-89517523D01*
X167137890Y-89396493D01*
X167019058Y-89315299D01*
X166878000Y-89286734D01*
X165862000Y-89286734D01*
X165730223Y-89311530D01*
X165609193Y-89389410D01*
X165527999Y-89508242D01*
X165499434Y-89649300D01*
X165499434Y-91287600D01*
X164700566Y-91287600D01*
X164700566Y-89649300D01*
X164675770Y-89517523D01*
X164597890Y-89396493D01*
X164479058Y-89315299D01*
X164338000Y-89286734D01*
X163322000Y-89286734D01*
X163190223Y-89311530D01*
X163069193Y-89389410D01*
X162987999Y-89508242D01*
X162959434Y-89649300D01*
X162959434Y-91287600D01*
X162160566Y-91287600D01*
X162160566Y-89649300D01*
X162135770Y-89517523D01*
X162057890Y-89396493D01*
X161939058Y-89315299D01*
X161798000Y-89286734D01*
X160782000Y-89286734D01*
X160650223Y-89311530D01*
X160529193Y-89389410D01*
X160447999Y-89508242D01*
X160419434Y-89649300D01*
X160419434Y-92778509D01*
X160415131Y-92772069D01*
X159620566Y-91977504D01*
X159620566Y-89649300D01*
X159595770Y-89517523D01*
X159517890Y-89396493D01*
X159399058Y-89315299D01*
X159258000Y-89286734D01*
X158242000Y-89286734D01*
X158110223Y-89311530D01*
X157989193Y-89389410D01*
X157907999Y-89508242D01*
X157879434Y-89649300D01*
X157879434Y-93747372D01*
X157734300Y-93602238D01*
X157734300Y-89452900D01*
X157691764Y-89239056D01*
X157570631Y-89057769D01*
X156941993Y-88429131D01*
X156970807Y-88410590D01*
X157052001Y-88291758D01*
X157080566Y-88150700D01*
X157080566Y-83654900D01*
X157055770Y-83523123D01*
X156977890Y-83402093D01*
X156859058Y-83320899D01*
X156718000Y-83292334D01*
X155702000Y-83292334D01*
X155570223Y-83317130D01*
X155449193Y-83395010D01*
X155367999Y-83513842D01*
X155339434Y-83654900D01*
X155339434Y-87818240D01*
X155315348Y-87808239D01*
X154997048Y-87807961D01*
X154702872Y-87929513D01*
X154582775Y-88049400D01*
X154540566Y-88049400D01*
X154540566Y-83654900D01*
X154515770Y-83523123D01*
X154437890Y-83402093D01*
X154319058Y-83320899D01*
X154178000Y-83292334D01*
X153162000Y-83292334D01*
X153030223Y-83317130D01*
X152909193Y-83395010D01*
X152827999Y-83513842D01*
X152799434Y-83654900D01*
X152799434Y-85220678D01*
X152515648Y-85102839D01*
X152197348Y-85102561D01*
X152000566Y-85183870D01*
X152000566Y-83654900D01*
X151975770Y-83523123D01*
X151897890Y-83402093D01*
X151779058Y-83320899D01*
X151638000Y-83292334D01*
X150622000Y-83292334D01*
X150490223Y-83317130D01*
X150369193Y-83395010D01*
X150287999Y-83513842D01*
X150259434Y-83654900D01*
X150259434Y-88150700D01*
X150284230Y-88282477D01*
X150362110Y-88403507D01*
X150480942Y-88484701D01*
X150622000Y-88513266D01*
X151638000Y-88513266D01*
X151769777Y-88488470D01*
X151890807Y-88410590D01*
X151972001Y-88291758D01*
X152000566Y-88150700D01*
X152000566Y-86621629D01*
X152195952Y-86702761D01*
X152514252Y-86703039D01*
X152799434Y-86585203D01*
X152799434Y-88150700D01*
X152824230Y-88282477D01*
X152902110Y-88403507D01*
X153020942Y-88484701D01*
X153111200Y-88502979D01*
X153111200Y-88608200D01*
X153153736Y-88822044D01*
X153274869Y-89003331D01*
X153456156Y-89124464D01*
X153670000Y-89167000D01*
X154582800Y-89167000D01*
X154701688Y-89286096D01*
X154995652Y-89408161D01*
X155313952Y-89408439D01*
X155608128Y-89286887D01*
X155833396Y-89062012D01*
X155848446Y-89025767D01*
X155996156Y-89124464D01*
X156071860Y-89139522D01*
X156219072Y-89286734D01*
X155702000Y-89286734D01*
X155570223Y-89311530D01*
X155449193Y-89389410D01*
X155367999Y-89508242D01*
X155339434Y-89649300D01*
X155339434Y-93916658D01*
X155064848Y-93802639D01*
X154746548Y-93802361D01*
X154540566Y-93887472D01*
X154540566Y-89649300D01*
X154515770Y-89517523D01*
X154437890Y-89396493D01*
X154319058Y-89315299D01*
X154178000Y-89286734D01*
X153162000Y-89286734D01*
X153030223Y-89311530D01*
X152909193Y-89389410D01*
X152873702Y-89441353D01*
X152852531Y-89409669D01*
X152239531Y-88796669D01*
X152196697Y-88768048D01*
X152058244Y-88675536D01*
X151844400Y-88633000D01*
X151130000Y-88633000D01*
X150916156Y-88675536D01*
X150734869Y-88796669D01*
X150613736Y-88977956D01*
X150571200Y-89191800D01*
X150571200Y-89296293D01*
X150490223Y-89311530D01*
X150369193Y-89389410D01*
X150287999Y-89508242D01*
X150259434Y-89649300D01*
X150259434Y-94145100D01*
X150284230Y-94276877D01*
X150362110Y-94397907D01*
X150480942Y-94479101D01*
X150622000Y-94507666D01*
X151638000Y-94507666D01*
X151769777Y-94482870D01*
X151890807Y-94404990D01*
X151972001Y-94286158D01*
X152000566Y-94145100D01*
X152000566Y-91917269D01*
X152003688Y-91920396D01*
X152297652Y-92042461D01*
X152615952Y-92042739D01*
X152799434Y-91966925D01*
X152799434Y-94145100D01*
X152824230Y-94276877D01*
X152902110Y-94397907D01*
X153020942Y-94479101D01*
X153111200Y-94497379D01*
X153111200Y-94602600D01*
X153153736Y-94816444D01*
X153274869Y-94997731D01*
X153456156Y-95118864D01*
X153670000Y-95161400D01*
X154332300Y-95161400D01*
X154451188Y-95280496D01*
X154745152Y-95402561D01*
X155063452Y-95402839D01*
X155357628Y-95281287D01*
X155582896Y-95056412D01*
X155690110Y-94798214D01*
X155693736Y-94816444D01*
X155712082Y-94843900D01*
X155814869Y-94997731D01*
X156488769Y-95671632D01*
X156502939Y-95681100D01*
X154597500Y-95681100D01*
X154383656Y-95723636D01*
X154256202Y-95808799D01*
X154202369Y-95844769D01*
X153274869Y-96772269D01*
X153153736Y-96953556D01*
X153111200Y-97167400D01*
X153111200Y-97271893D01*
X153030223Y-97287130D01*
X152909193Y-97365010D01*
X152827999Y-97483842D01*
X152799434Y-97624900D01*
X152799434Y-102120700D01*
X152824230Y-102252477D01*
X152902110Y-102373507D01*
X153020942Y-102454701D01*
X153162000Y-102483266D01*
X153171051Y-102483266D01*
X153076839Y-102710152D01*
X153076796Y-102759050D01*
X153056187Y-102709172D01*
X152831312Y-102483904D01*
X152537348Y-102361839D01*
X152219048Y-102361561D01*
X151924872Y-102483113D01*
X151804775Y-102603000D01*
X151130000Y-102603000D01*
X150916156Y-102645536D01*
X150734869Y-102766669D01*
X150613736Y-102947956D01*
X150571200Y-103161800D01*
X150571200Y-103266293D01*
X150490223Y-103281530D01*
X150369193Y-103359410D01*
X150287999Y-103478242D01*
X150259434Y-103619300D01*
X150259434Y-108115100D01*
X150284230Y-108246877D01*
X150362110Y-108367907D01*
X150480942Y-108449101D01*
X150622000Y-108477666D01*
X151638000Y-108477666D01*
X151769777Y-108452870D01*
X151890807Y-108374990D01*
X151972001Y-108256158D01*
X152000566Y-108115100D01*
X152000566Y-103871619D01*
X152217652Y-103961761D01*
X152535952Y-103962039D01*
X152799434Y-103853170D01*
X152799434Y-108115100D01*
X152824230Y-108246877D01*
X152902110Y-108367907D01*
X153020942Y-108449101D01*
X153162000Y-108477666D01*
X154178000Y-108477666D01*
X154309777Y-108452870D01*
X154430807Y-108374990D01*
X154512001Y-108256158D01*
X154540566Y-108115100D01*
X154540566Y-103619300D01*
X154515770Y-103487523D01*
X154466852Y-103411502D01*
X154554696Y-103323812D01*
X154676761Y-103029848D01*
X154677039Y-102711548D01*
X154555487Y-102417372D01*
X154466549Y-102328279D01*
X154512001Y-102261758D01*
X154540566Y-102120700D01*
X154540566Y-97624900D01*
X154515770Y-97493123D01*
X154437890Y-97372093D01*
X154329576Y-97298086D01*
X154828962Y-96798700D01*
X155797208Y-96798700D01*
X155693736Y-96953556D01*
X155651200Y-97167400D01*
X155651200Y-97271893D01*
X155570223Y-97287130D01*
X155449193Y-97365010D01*
X155367999Y-97483842D01*
X155339434Y-97624900D01*
X155339434Y-102120700D01*
X155364230Y-102252477D01*
X155442110Y-102373507D01*
X155560942Y-102454701D01*
X155702000Y-102483266D01*
X156718000Y-102483266D01*
X156849777Y-102458470D01*
X156970807Y-102380590D01*
X157052001Y-102261758D01*
X157080566Y-102120700D01*
X157080566Y-97726200D01*
X157135800Y-97726200D01*
X157254688Y-97845296D01*
X157548652Y-97967361D01*
X157866952Y-97967639D01*
X157879434Y-97962482D01*
X157879434Y-102120700D01*
X157904230Y-102252477D01*
X157982110Y-102373507D01*
X158100942Y-102454701D01*
X158242000Y-102483266D01*
X159258000Y-102483266D01*
X159389777Y-102458470D01*
X159510807Y-102380590D01*
X159592001Y-102261758D01*
X159620566Y-102120700D01*
X159620566Y-97726200D01*
X160419434Y-97726200D01*
X160419434Y-102070355D01*
X160383995Y-102077404D01*
X160136784Y-102242585D01*
X159522985Y-102856385D01*
X159357804Y-103103595D01*
X159324658Y-103270233D01*
X159258000Y-103256734D01*
X158280018Y-103256734D01*
X158280239Y-103003348D01*
X158158687Y-102709172D01*
X157933812Y-102483904D01*
X157639848Y-102361839D01*
X157321548Y-102361561D01*
X157027372Y-102483113D01*
X156907275Y-102603000D01*
X156210000Y-102603000D01*
X155996156Y-102645536D01*
X155814869Y-102766669D01*
X155693736Y-102947956D01*
X155651200Y-103161800D01*
X155651200Y-103266293D01*
X155570223Y-103281530D01*
X155449193Y-103359410D01*
X155367999Y-103478242D01*
X155339434Y-103619300D01*
X155339434Y-108115100D01*
X155364230Y-108246877D01*
X155442110Y-108367907D01*
X155560942Y-108449101D01*
X155702000Y-108477666D01*
X156384471Y-108477666D01*
X155255838Y-109606300D01*
X151277800Y-109606300D01*
X151063956Y-109648836D01*
X150972504Y-109709943D01*
X150882669Y-109769969D01*
X149769369Y-110883269D01*
X149648236Y-111064556D01*
X149605700Y-111278400D01*
X149605700Y-116287100D01*
X149648236Y-116500944D01*
X149753605Y-116658639D01*
X149769369Y-116682231D01*
X150398007Y-117310869D01*
X150369193Y-117329410D01*
X150287999Y-117448242D01*
X150259434Y-117589300D01*
X150259434Y-121983800D01*
X132950566Y-121983800D01*
X132950566Y-117859333D01*
X133002652Y-117880961D01*
X133320952Y-117881239D01*
X133615128Y-117759687D01*
X133840396Y-117534812D01*
X133962461Y-117240848D01*
X133962739Y-116922548D01*
X133841187Y-116628372D01*
X133616312Y-116403104D01*
X133322348Y-116281039D01*
X133004048Y-116280761D01*
X132843072Y-116347276D01*
X132922001Y-116231758D01*
X132950566Y-116090700D01*
X132950566Y-111594900D01*
X132943117Y-111555313D01*
X134659815Y-109838615D01*
X134666946Y-109827943D01*
X134824996Y-109591405D01*
X134883000Y-109299800D01*
X134883000Y-103061100D01*
X147245332Y-103061100D01*
X147336752Y-103099061D01*
X147655052Y-103099339D01*
X147949228Y-102977787D01*
X148174496Y-102752912D01*
X148296561Y-102458948D01*
X148296839Y-102140648D01*
X148175287Y-101846472D01*
X147950412Y-101621204D01*
X147656448Y-101499139D01*
X147338148Y-101498861D01*
X147245603Y-101537100D01*
X134768137Y-101537100D01*
X134659815Y-101374985D01*
X132950566Y-99665736D01*
X132950566Y-97726200D01*
X133248700Y-97726200D01*
X133540305Y-97668196D01*
X133605101Y-97624900D01*
X150259434Y-97624900D01*
X150259434Y-102120700D01*
X150284230Y-102252477D01*
X150362110Y-102373507D01*
X150480942Y-102454701D01*
X150622000Y-102483266D01*
X151638000Y-102483266D01*
X151769777Y-102458470D01*
X151890807Y-102380590D01*
X151972001Y-102261758D01*
X152000566Y-102120700D01*
X152000566Y-97624900D01*
X152000150Y-97622687D01*
X152175128Y-97550387D01*
X152400396Y-97325512D01*
X152522461Y-97031548D01*
X152522739Y-96713248D01*
X152401187Y-96419072D01*
X152176312Y-96193804D01*
X151882348Y-96071739D01*
X151564048Y-96071461D01*
X151269872Y-96193013D01*
X151044604Y-96417888D01*
X150950595Y-96644286D01*
X150916156Y-96651136D01*
X150734869Y-96772269D01*
X150613736Y-96953556D01*
X150571200Y-97167400D01*
X150571200Y-97271893D01*
X150490223Y-97287130D01*
X150369193Y-97365010D01*
X150287999Y-97483842D01*
X150259434Y-97624900D01*
X133605101Y-97624900D01*
X133787515Y-97503015D01*
X136380516Y-94910015D01*
X136526355Y-94691750D01*
X136526261Y-94799652D01*
X136647813Y-95093828D01*
X136872688Y-95319096D01*
X137166652Y-95441161D01*
X137484952Y-95441439D01*
X137779128Y-95319887D01*
X138004396Y-95095012D01*
X138126461Y-94801048D01*
X138126739Y-94482748D01*
X138005187Y-94188572D01*
X137885300Y-94068475D01*
X137885300Y-91702600D01*
X138004396Y-91583712D01*
X138126461Y-91289748D01*
X138126739Y-90971448D01*
X138005187Y-90677272D01*
X137780312Y-90452004D01*
X137486348Y-90329939D01*
X137168048Y-90329661D01*
X136873872Y-90451213D01*
X136648604Y-90676088D01*
X136603700Y-90784228D01*
X136603700Y-89416400D01*
X136545696Y-89124795D01*
X136503746Y-89062012D01*
X136380515Y-88877584D01*
X135775515Y-88272585D01*
X135737600Y-88247251D01*
X135737600Y-86207600D01*
X135585200Y-86055200D01*
X134772400Y-86055200D01*
X134772400Y-86075200D01*
X134467600Y-86075200D01*
X134467600Y-86055200D01*
X133654800Y-86055200D01*
X133502400Y-86207600D01*
X133502400Y-88049400D01*
X133197600Y-88049400D01*
X133197600Y-86207600D01*
X133045200Y-86055200D01*
X132232400Y-86055200D01*
X132232400Y-86075200D01*
X131927600Y-86075200D01*
X131927600Y-86055200D01*
X131114800Y-86055200D01*
X130962400Y-86207600D01*
X130962400Y-88049400D01*
X130911600Y-88049400D01*
X130911600Y-83735400D01*
X130962400Y-83735400D01*
X130962400Y-85598000D01*
X131114800Y-85750400D01*
X131927600Y-85750400D01*
X131927600Y-85730400D01*
X132232400Y-85730400D01*
X132232400Y-85750400D01*
X133045200Y-85750400D01*
X133197600Y-85598000D01*
X133197600Y-83735400D01*
X133502400Y-83735400D01*
X133502400Y-85598000D01*
X133654800Y-85750400D01*
X134467600Y-85750400D01*
X134467600Y-85730400D01*
X134772400Y-85730400D01*
X134772400Y-85750400D01*
X135585200Y-85750400D01*
X135737600Y-85598000D01*
X135737600Y-83735400D01*
X142699638Y-83735400D01*
X144857608Y-85893370D01*
X144857461Y-86061652D01*
X144979013Y-86355828D01*
X145203888Y-86581096D01*
X145497852Y-86703161D01*
X145816152Y-86703439D01*
X146110328Y-86581887D01*
X146335596Y-86357012D01*
X146457661Y-86063048D01*
X146457939Y-85744748D01*
X146336387Y-85450572D01*
X146111512Y-85225304D01*
X145817548Y-85103239D01*
X145647853Y-85103091D01*
X143326231Y-82781469D01*
X143270508Y-82744236D01*
X143144944Y-82660336D01*
X142931100Y-82617800D01*
X130911600Y-82617800D01*
X130911600Y-82462000D01*
X165699138Y-82462000D01*
X166282438Y-83045300D01*
X166282438Y-83045300D01*
G37*
X166282438Y-83045300D02*
X166217598Y-83045300D01*
X166217598Y-83197698D01*
X166065200Y-83045300D01*
X165740743Y-83045300D01*
X165516689Y-83138106D01*
X165345206Y-83309589D01*
X165252400Y-83533643D01*
X165252400Y-85598000D01*
X165404800Y-85750400D01*
X166217600Y-85750400D01*
X166217600Y-85730400D01*
X166522400Y-85730400D01*
X166522400Y-85750400D01*
X167335200Y-85750400D01*
X167414654Y-85670946D01*
X167497052Y-85705161D01*
X167579832Y-85705233D01*
X167579561Y-86015752D01*
X167701113Y-86309928D01*
X167925988Y-86535196D01*
X168219952Y-86657261D01*
X168538252Y-86657539D01*
X168832428Y-86535987D01*
X169057696Y-86311112D01*
X169135060Y-86124800D01*
X182843654Y-86124800D01*
X182669527Y-86385400D01*
X182562300Y-86385400D01*
X182329016Y-86431803D01*
X182131248Y-86563948D01*
X181999103Y-86761716D01*
X181952700Y-86995000D01*
X181952700Y-87046295D01*
X180632103Y-88366892D01*
X180544787Y-88155572D01*
X180319912Y-87930304D01*
X180025948Y-87808239D01*
X179707648Y-87807961D01*
X179413472Y-87929513D01*
X179293375Y-88049400D01*
X167487600Y-88049400D01*
X167487600Y-86207600D01*
X167335200Y-86055200D01*
X166522400Y-86055200D01*
X166522400Y-86075200D01*
X166217600Y-86075200D01*
X166217600Y-86055200D01*
X165404800Y-86055200D01*
X165252400Y-86207600D01*
X165252400Y-88049400D01*
X164947600Y-88049400D01*
X164947600Y-86207600D01*
X164795200Y-86055200D01*
X163982400Y-86055200D01*
X163982400Y-86075200D01*
X163677600Y-86075200D01*
X163677600Y-86055200D01*
X162864800Y-86055200D01*
X162712400Y-86207600D01*
X162712400Y-88049400D01*
X162160566Y-88049400D01*
X162160566Y-83654900D01*
X162137750Y-83533643D01*
X162712400Y-83533643D01*
X162712400Y-85598000D01*
X162864800Y-85750400D01*
X163677600Y-85750400D01*
X163677600Y-83197700D01*
X163982400Y-83197700D01*
X163982400Y-85750400D01*
X164795200Y-85750400D01*
X164947600Y-85598000D01*
X164947600Y-83533643D01*
X164854794Y-83309589D01*
X164683311Y-83138106D01*
X164459257Y-83045300D01*
X164134800Y-83045300D01*
X163982400Y-83197700D01*
X163677600Y-83197700D01*
X163525200Y-83045300D01*
X163200743Y-83045300D01*
X162976689Y-83138106D01*
X162805206Y-83309589D01*
X162712400Y-83533643D01*
X162137750Y-83533643D01*
X162135770Y-83523123D01*
X162057890Y-83402093D01*
X161939058Y-83320899D01*
X161798000Y-83292334D01*
X160782000Y-83292334D01*
X160650223Y-83317130D01*
X160529193Y-83395010D01*
X160447999Y-83513842D01*
X160419434Y-83654900D01*
X160419434Y-85695736D01*
X159715607Y-86399563D01*
X159620566Y-86438834D01*
X159620566Y-83654900D01*
X159595770Y-83523123D01*
X159517890Y-83402093D01*
X159399058Y-83320899D01*
X159258000Y-83292334D01*
X158242000Y-83292334D01*
X158110223Y-83317130D01*
X157989193Y-83395010D01*
X157907999Y-83513842D01*
X157879434Y-83654900D01*
X157879434Y-88150700D01*
X157904230Y-88282477D01*
X157982110Y-88403507D01*
X158100942Y-88484701D01*
X158191200Y-88502979D01*
X158191200Y-88608200D01*
X158233736Y-88822044D01*
X158354869Y-89003331D01*
X158536156Y-89124464D01*
X158750000Y-89167000D01*
X179293400Y-89167000D01*
X179412288Y-89286096D01*
X179624699Y-89374297D01*
X179267596Y-89731400D01*
X174865589Y-89731400D01*
X174797412Y-89663104D01*
X174503448Y-89541039D01*
X174185148Y-89540761D01*
X173890972Y-89662313D01*
X173821764Y-89731400D01*
X167926200Y-89731400D01*
X167692916Y-89777803D01*
X167495148Y-89909948D01*
X167240566Y-90164530D01*
X167240566Y-89649300D01*
X167215770Y-89517523D01*
X167137890Y-89396493D01*
X167019058Y-89315299D01*
X166878000Y-89286734D01*
X165862000Y-89286734D01*
X165730223Y-89311530D01*
X165609193Y-89389410D01*
X165527999Y-89508242D01*
X165499434Y-89649300D01*
X165499434Y-91287600D01*
X164700566Y-91287600D01*
X164700566Y-89649300D01*
X164675770Y-89517523D01*
X164597890Y-89396493D01*
X164479058Y-89315299D01*
X164338000Y-89286734D01*
X163322000Y-89286734D01*
X163190223Y-89311530D01*
X163069193Y-89389410D01*
X162987999Y-89508242D01*
X162959434Y-89649300D01*
X162959434Y-91287600D01*
X162160566Y-91287600D01*
X162160566Y-89649300D01*
X162135770Y-89517523D01*
X162057890Y-89396493D01*
X161939058Y-89315299D01*
X161798000Y-89286734D01*
X160782000Y-89286734D01*
X160650223Y-89311530D01*
X160529193Y-89389410D01*
X160447999Y-89508242D01*
X160419434Y-89649300D01*
X160419434Y-92778509D01*
X160415131Y-92772069D01*
X159620566Y-91977504D01*
X159620566Y-89649300D01*
X159595770Y-89517523D01*
X159517890Y-89396493D01*
X159399058Y-89315299D01*
X159258000Y-89286734D01*
X158242000Y-89286734D01*
X158110223Y-89311530D01*
X157989193Y-89389410D01*
X157907999Y-89508242D01*
X157879434Y-89649300D01*
X157879434Y-93747372D01*
X157734300Y-93602238D01*
X157734300Y-89452900D01*
X157691764Y-89239056D01*
X157570631Y-89057769D01*
X156941993Y-88429131D01*
X156970807Y-88410590D01*
X157052001Y-88291758D01*
X157080566Y-88150700D01*
X157080566Y-83654900D01*
X157055770Y-83523123D01*
X156977890Y-83402093D01*
X156859058Y-83320899D01*
X156718000Y-83292334D01*
X155702000Y-83292334D01*
X155570223Y-83317130D01*
X155449193Y-83395010D01*
X155367999Y-83513842D01*
X155339434Y-83654900D01*
X155339434Y-87818240D01*
X155315348Y-87808239D01*
X154997048Y-87807961D01*
X154702872Y-87929513D01*
X154582775Y-88049400D01*
X154540566Y-88049400D01*
X154540566Y-83654900D01*
X154515770Y-83523123D01*
X154437890Y-83402093D01*
X154319058Y-83320899D01*
X154178000Y-83292334D01*
X153162000Y-83292334D01*
X153030223Y-83317130D01*
X152909193Y-83395010D01*
X152827999Y-83513842D01*
X152799434Y-83654900D01*
X152799434Y-85220678D01*
X152515648Y-85102839D01*
X152197348Y-85102561D01*
X152000566Y-85183870D01*
X152000566Y-83654900D01*
X151975770Y-83523123D01*
X151897890Y-83402093D01*
X151779058Y-83320899D01*
X151638000Y-83292334D01*
X150622000Y-83292334D01*
X150490223Y-83317130D01*
X150369193Y-83395010D01*
X150287999Y-83513842D01*
X150259434Y-83654900D01*
X150259434Y-88150700D01*
X150284230Y-88282477D01*
X150362110Y-88403507D01*
X150480942Y-88484701D01*
X150622000Y-88513266D01*
X151638000Y-88513266D01*
X151769777Y-88488470D01*
X151890807Y-88410590D01*
X151972001Y-88291758D01*
X152000566Y-88150700D01*
X152000566Y-86621629D01*
X152195952Y-86702761D01*
X152514252Y-86703039D01*
X152799434Y-86585203D01*
X152799434Y-88150700D01*
X152824230Y-88282477D01*
X152902110Y-88403507D01*
X153020942Y-88484701D01*
X153111200Y-88502979D01*
X153111200Y-88608200D01*
X153153736Y-88822044D01*
X153274869Y-89003331D01*
X153456156Y-89124464D01*
X153670000Y-89167000D01*
X154582800Y-89167000D01*
X154701688Y-89286096D01*
X154995652Y-89408161D01*
X155313952Y-89408439D01*
X155608128Y-89286887D01*
X155833396Y-89062012D01*
X155848446Y-89025767D01*
X155996156Y-89124464D01*
X156071860Y-89139522D01*
X156219072Y-89286734D01*
X155702000Y-89286734D01*
X155570223Y-89311530D01*
X155449193Y-89389410D01*
X155367999Y-89508242D01*
X155339434Y-89649300D01*
X155339434Y-93916658D01*
X155064848Y-93802639D01*
X154746548Y-93802361D01*
X154540566Y-93887472D01*
X154540566Y-89649300D01*
X154515770Y-89517523D01*
X154437890Y-89396493D01*
X154319058Y-89315299D01*
X154178000Y-89286734D01*
X153162000Y-89286734D01*
X153030223Y-89311530D01*
X152909193Y-89389410D01*
X152873702Y-89441353D01*
X152852531Y-89409669D01*
X152239531Y-88796669D01*
X152196697Y-88768048D01*
X152058244Y-88675536D01*
X151844400Y-88633000D01*
X151130000Y-88633000D01*
X150916156Y-88675536D01*
X150734869Y-88796669D01*
X150613736Y-88977956D01*
X150571200Y-89191800D01*
X150571200Y-89296293D01*
X150490223Y-89311530D01*
X150369193Y-89389410D01*
X150287999Y-89508242D01*
X150259434Y-89649300D01*
X150259434Y-94145100D01*
X150284230Y-94276877D01*
X150362110Y-94397907D01*
X150480942Y-94479101D01*
X150622000Y-94507666D01*
X151638000Y-94507666D01*
X151769777Y-94482870D01*
X151890807Y-94404990D01*
X151972001Y-94286158D01*
X152000566Y-94145100D01*
X152000566Y-91917269D01*
X152003688Y-91920396D01*
X152297652Y-92042461D01*
X152615952Y-92042739D01*
X152799434Y-91966925D01*
X152799434Y-94145100D01*
X152824230Y-94276877D01*
X152902110Y-94397907D01*
X153020942Y-94479101D01*
X153111200Y-94497379D01*
X153111200Y-94602600D01*
X153153736Y-94816444D01*
X153274869Y-94997731D01*
X153456156Y-95118864D01*
X153670000Y-95161400D01*
X154332300Y-95161400D01*
X154451188Y-95280496D01*
X154745152Y-95402561D01*
X155063452Y-95402839D01*
X155357628Y-95281287D01*
X155582896Y-95056412D01*
X155690110Y-94798214D01*
X155693736Y-94816444D01*
X155712082Y-94843900D01*
X155814869Y-94997731D01*
X156488769Y-95671632D01*
X156502939Y-95681100D01*
X154597500Y-95681100D01*
X154383656Y-95723636D01*
X154256202Y-95808799D01*
X154202369Y-95844769D01*
X153274869Y-96772269D01*
X153153736Y-96953556D01*
X153111200Y-97167400D01*
X153111200Y-97271893D01*
X153030223Y-97287130D01*
X152909193Y-97365010D01*
X152827999Y-97483842D01*
X152799434Y-97624900D01*
X152799434Y-102120700D01*
X152824230Y-102252477D01*
X152902110Y-102373507D01*
X153020942Y-102454701D01*
X153162000Y-102483266D01*
X153171051Y-102483266D01*
X153076839Y-102710152D01*
X153076796Y-102759050D01*
X153056187Y-102709172D01*
X152831312Y-102483904D01*
X152537348Y-102361839D01*
X152219048Y-102361561D01*
X151924872Y-102483113D01*
X151804775Y-102603000D01*
X151130000Y-102603000D01*
X150916156Y-102645536D01*
X150734869Y-102766669D01*
X150613736Y-102947956D01*
X150571200Y-103161800D01*
X150571200Y-103266293D01*
X150490223Y-103281530D01*
X150369193Y-103359410D01*
X150287999Y-103478242D01*
X150259434Y-103619300D01*
X150259434Y-108115100D01*
X150284230Y-108246877D01*
X150362110Y-108367907D01*
X150480942Y-108449101D01*
X150622000Y-108477666D01*
X151638000Y-108477666D01*
X151769777Y-108452870D01*
X151890807Y-108374990D01*
X151972001Y-108256158D01*
X152000566Y-108115100D01*
X152000566Y-103871619D01*
X152217652Y-103961761D01*
X152535952Y-103962039D01*
X152799434Y-103853170D01*
X152799434Y-108115100D01*
X152824230Y-108246877D01*
X152902110Y-108367907D01*
X153020942Y-108449101D01*
X153162000Y-108477666D01*
X154178000Y-108477666D01*
X154309777Y-108452870D01*
X154430807Y-108374990D01*
X154512001Y-108256158D01*
X154540566Y-108115100D01*
X154540566Y-103619300D01*
X154515770Y-103487523D01*
X154466852Y-103411502D01*
X154554696Y-103323812D01*
X154676761Y-103029848D01*
X154677039Y-102711548D01*
X154555487Y-102417372D01*
X154466549Y-102328279D01*
X154512001Y-102261758D01*
X154540566Y-102120700D01*
X154540566Y-97624900D01*
X154515770Y-97493123D01*
X154437890Y-97372093D01*
X154329576Y-97298086D01*
X154828962Y-96798700D01*
X155797208Y-96798700D01*
X155693736Y-96953556D01*
X155651200Y-97167400D01*
X155651200Y-97271893D01*
X155570223Y-97287130D01*
X155449193Y-97365010D01*
X155367999Y-97483842D01*
X155339434Y-97624900D01*
X155339434Y-102120700D01*
X155364230Y-102252477D01*
X155442110Y-102373507D01*
X155560942Y-102454701D01*
X155702000Y-102483266D01*
X156718000Y-102483266D01*
X156849777Y-102458470D01*
X156970807Y-102380590D01*
X157052001Y-102261758D01*
X157080566Y-102120700D01*
X157080566Y-97726200D01*
X157135800Y-97726200D01*
X157254688Y-97845296D01*
X157548652Y-97967361D01*
X157866952Y-97967639D01*
X157879434Y-97962482D01*
X157879434Y-102120700D01*
X157904230Y-102252477D01*
X157982110Y-102373507D01*
X158100942Y-102454701D01*
X158242000Y-102483266D01*
X159258000Y-102483266D01*
X159389777Y-102458470D01*
X159510807Y-102380590D01*
X159592001Y-102261758D01*
X159620566Y-102120700D01*
X159620566Y-97726200D01*
X160419434Y-97726200D01*
X160419434Y-102070355D01*
X160383995Y-102077404D01*
X160136784Y-102242585D01*
X159522985Y-102856385D01*
X159357804Y-103103595D01*
X159324658Y-103270233D01*
X159258000Y-103256734D01*
X158280018Y-103256734D01*
X158280239Y-103003348D01*
X158158687Y-102709172D01*
X157933812Y-102483904D01*
X157639848Y-102361839D01*
X157321548Y-102361561D01*
X157027372Y-102483113D01*
X156907275Y-102603000D01*
X156210000Y-102603000D01*
X155996156Y-102645536D01*
X155814869Y-102766669D01*
X155693736Y-102947956D01*
X155651200Y-103161800D01*
X155651200Y-103266293D01*
X155570223Y-103281530D01*
X155449193Y-103359410D01*
X155367999Y-103478242D01*
X155339434Y-103619300D01*
X155339434Y-108115100D01*
X155364230Y-108246877D01*
X155442110Y-108367907D01*
X155560942Y-108449101D01*
X155702000Y-108477666D01*
X156384471Y-108477666D01*
X155255838Y-109606300D01*
X151277800Y-109606300D01*
X151063956Y-109648836D01*
X150972504Y-109709943D01*
X150882669Y-109769969D01*
X149769369Y-110883269D01*
X149648236Y-111064556D01*
X149605700Y-111278400D01*
X149605700Y-116287100D01*
X149648236Y-116500944D01*
X149753605Y-116658639D01*
X149769369Y-116682231D01*
X150398007Y-117310869D01*
X150369193Y-117329410D01*
X150287999Y-117448242D01*
X150259434Y-117589300D01*
X150259434Y-121983800D01*
X132950566Y-121983800D01*
X132950566Y-117859333D01*
X133002652Y-117880961D01*
X133320952Y-117881239D01*
X133615128Y-117759687D01*
X133840396Y-117534812D01*
X133962461Y-117240848D01*
X133962739Y-116922548D01*
X133841187Y-116628372D01*
X133616312Y-116403104D01*
X133322348Y-116281039D01*
X133004048Y-116280761D01*
X132843072Y-116347276D01*
X132922001Y-116231758D01*
X132950566Y-116090700D01*
X132950566Y-111594900D01*
X132943117Y-111555313D01*
X134659815Y-109838615D01*
X134666946Y-109827943D01*
X134824996Y-109591405D01*
X134883000Y-109299800D01*
X134883000Y-103061100D01*
X147245332Y-103061100D01*
X147336752Y-103099061D01*
X147655052Y-103099339D01*
X147949228Y-102977787D01*
X148174496Y-102752912D01*
X148296561Y-102458948D01*
X148296839Y-102140648D01*
X148175287Y-101846472D01*
X147950412Y-101621204D01*
X147656448Y-101499139D01*
X147338148Y-101498861D01*
X147245603Y-101537100D01*
X134768137Y-101537100D01*
X134659815Y-101374985D01*
X132950566Y-99665736D01*
X132950566Y-97726200D01*
X133248700Y-97726200D01*
X133540305Y-97668196D01*
X133605101Y-97624900D01*
X150259434Y-97624900D01*
X150259434Y-102120700D01*
X150284230Y-102252477D01*
X150362110Y-102373507D01*
X150480942Y-102454701D01*
X150622000Y-102483266D01*
X151638000Y-102483266D01*
X151769777Y-102458470D01*
X151890807Y-102380590D01*
X151972001Y-102261758D01*
X152000566Y-102120700D01*
X152000566Y-97624900D01*
X152000150Y-97622687D01*
X152175128Y-97550387D01*
X152400396Y-97325512D01*
X152522461Y-97031548D01*
X152522739Y-96713248D01*
X152401187Y-96419072D01*
X152176312Y-96193804D01*
X151882348Y-96071739D01*
X151564048Y-96071461D01*
X151269872Y-96193013D01*
X151044604Y-96417888D01*
X150950595Y-96644286D01*
X150916156Y-96651136D01*
X150734869Y-96772269D01*
X150613736Y-96953556D01*
X150571200Y-97167400D01*
X150571200Y-97271893D01*
X150490223Y-97287130D01*
X150369193Y-97365010D01*
X150287999Y-97483842D01*
X150259434Y-97624900D01*
X133605101Y-97624900D01*
X133787515Y-97503015D01*
X136380516Y-94910015D01*
X136526355Y-94691750D01*
X136526261Y-94799652D01*
X136647813Y-95093828D01*
X136872688Y-95319096D01*
X137166652Y-95441161D01*
X137484952Y-95441439D01*
X137779128Y-95319887D01*
X138004396Y-95095012D01*
X138126461Y-94801048D01*
X138126739Y-94482748D01*
X138005187Y-94188572D01*
X137885300Y-94068475D01*
X137885300Y-91702600D01*
X138004396Y-91583712D01*
X138126461Y-91289748D01*
X138126739Y-90971448D01*
X138005187Y-90677272D01*
X137780312Y-90452004D01*
X137486348Y-90329939D01*
X137168048Y-90329661D01*
X136873872Y-90451213D01*
X136648604Y-90676088D01*
X136603700Y-90784228D01*
X136603700Y-89416400D01*
X136545696Y-89124795D01*
X136503746Y-89062012D01*
X136380515Y-88877584D01*
X135775515Y-88272585D01*
X135737600Y-88247251D01*
X135737600Y-86207600D01*
X135585200Y-86055200D01*
X134772400Y-86055200D01*
X134772400Y-86075200D01*
X134467600Y-86075200D01*
X134467600Y-86055200D01*
X133654800Y-86055200D01*
X133502400Y-86207600D01*
X133502400Y-88049400D01*
X133197600Y-88049400D01*
X133197600Y-86207600D01*
X133045200Y-86055200D01*
X132232400Y-86055200D01*
X132232400Y-86075200D01*
X131927600Y-86075200D01*
X131927600Y-86055200D01*
X131114800Y-86055200D01*
X130962400Y-86207600D01*
X130962400Y-88049400D01*
X130911600Y-88049400D01*
X130911600Y-83735400D01*
X130962400Y-83735400D01*
X130962400Y-85598000D01*
X131114800Y-85750400D01*
X131927600Y-85750400D01*
X131927600Y-85730400D01*
X132232400Y-85730400D01*
X132232400Y-85750400D01*
X133045200Y-85750400D01*
X133197600Y-85598000D01*
X133197600Y-83735400D01*
X133502400Y-83735400D01*
X133502400Y-85598000D01*
X133654800Y-85750400D01*
X134467600Y-85750400D01*
X134467600Y-85730400D01*
X134772400Y-85730400D01*
X134772400Y-85750400D01*
X135585200Y-85750400D01*
X135737600Y-85598000D01*
X135737600Y-83735400D01*
X142699638Y-83735400D01*
X144857608Y-85893370D01*
X144857461Y-86061652D01*
X144979013Y-86355828D01*
X145203888Y-86581096D01*
X145497852Y-86703161D01*
X145816152Y-86703439D01*
X146110328Y-86581887D01*
X146335596Y-86357012D01*
X146457661Y-86063048D01*
X146457939Y-85744748D01*
X146336387Y-85450572D01*
X146111512Y-85225304D01*
X145817548Y-85103239D01*
X145647853Y-85103091D01*
X143326231Y-82781469D01*
X143270508Y-82744236D01*
X143144944Y-82660336D01*
X142931100Y-82617800D01*
X130911600Y-82617800D01*
X130911600Y-82462000D01*
X165699138Y-82462000D01*
X166282438Y-83045300D01*
G36*
X171668938Y-112858300D02*
X168160600Y-112858300D01*
X168041712Y-112739204D01*
X167747748Y-112617139D01*
X167487600Y-112616912D01*
X167487600Y-111473643D01*
X167394794Y-111249589D01*
X167223311Y-111078106D01*
X166999257Y-110985300D01*
X166674800Y-110985300D01*
X166522400Y-111137700D01*
X166522400Y-113690400D01*
X166542400Y-113690400D01*
X166542400Y-113995200D01*
X166522400Y-113995200D01*
X166522400Y-114015200D01*
X166217600Y-114015200D01*
X166217600Y-113995200D01*
X165404800Y-113995200D01*
X165252400Y-114147600D01*
X165252400Y-115989400D01*
X164947600Y-115989400D01*
X164947600Y-114147600D01*
X164795200Y-113995200D01*
X163982400Y-113995200D01*
X163982400Y-114015200D01*
X163677600Y-114015200D01*
X163677600Y-113995200D01*
X162864800Y-113995200D01*
X162712400Y-114147600D01*
X162712400Y-115989400D01*
X162160566Y-115989400D01*
X162160566Y-111594900D01*
X162137750Y-111473643D01*
X162712400Y-111473643D01*
X162712400Y-113538000D01*
X162864800Y-113690400D01*
X163677600Y-113690400D01*
X163677600Y-111137700D01*
X163982400Y-111137700D01*
X163982400Y-113690400D01*
X164795200Y-113690400D01*
X164947600Y-113538000D01*
X164947600Y-111473643D01*
X165252400Y-111473643D01*
X165252400Y-113538000D01*
X165404800Y-113690400D01*
X166217600Y-113690400D01*
X166217600Y-111137700D01*
X166065200Y-110985300D01*
X165740743Y-110985300D01*
X165516689Y-111078106D01*
X165345206Y-111249589D01*
X165252400Y-111473643D01*
X164947600Y-111473643D01*
X164854794Y-111249589D01*
X164683311Y-111078106D01*
X164459257Y-110985300D01*
X164134800Y-110985300D01*
X163982400Y-111137700D01*
X163677600Y-111137700D01*
X163525200Y-110985300D01*
X163200743Y-110985300D01*
X162976689Y-111078106D01*
X162805206Y-111249589D01*
X162712400Y-111473643D01*
X162137750Y-111473643D01*
X162135770Y-111463123D01*
X162057890Y-111342093D01*
X162052000Y-111338069D01*
X162052000Y-111140830D01*
X162291542Y-110901288D01*
X162383028Y-110863487D01*
X162608296Y-110638612D01*
X162730361Y-110344648D01*
X162730639Y-110026348D01*
X162639551Y-109805900D01*
X168616538Y-109805900D01*
X171668938Y-112858300D01*
X171668938Y-112858300D01*
G37*
X171668938Y-112858300D02*
X168160600Y-112858300D01*
X168041712Y-112739204D01*
X167747748Y-112617139D01*
X167487600Y-112616912D01*
X167487600Y-111473643D01*
X167394794Y-111249589D01*
X167223311Y-111078106D01*
X166999257Y-110985300D01*
X166674800Y-110985300D01*
X166522400Y-111137700D01*
X166522400Y-113690400D01*
X166542400Y-113690400D01*
X166542400Y-113995200D01*
X166522400Y-113995200D01*
X166522400Y-114015200D01*
X166217600Y-114015200D01*
X166217600Y-113995200D01*
X165404800Y-113995200D01*
X165252400Y-114147600D01*
X165252400Y-115989400D01*
X164947600Y-115989400D01*
X164947600Y-114147600D01*
X164795200Y-113995200D01*
X163982400Y-113995200D01*
X163982400Y-114015200D01*
X163677600Y-114015200D01*
X163677600Y-113995200D01*
X162864800Y-113995200D01*
X162712400Y-114147600D01*
X162712400Y-115989400D01*
X162160566Y-115989400D01*
X162160566Y-111594900D01*
X162137750Y-111473643D01*
X162712400Y-111473643D01*
X162712400Y-113538000D01*
X162864800Y-113690400D01*
X163677600Y-113690400D01*
X163677600Y-111137700D01*
X163982400Y-111137700D01*
X163982400Y-113690400D01*
X164795200Y-113690400D01*
X164947600Y-113538000D01*
X164947600Y-111473643D01*
X165252400Y-111473643D01*
X165252400Y-113538000D01*
X165404800Y-113690400D01*
X166217600Y-113690400D01*
X166217600Y-111137700D01*
X166065200Y-110985300D01*
X165740743Y-110985300D01*
X165516689Y-111078106D01*
X165345206Y-111249589D01*
X165252400Y-111473643D01*
X164947600Y-111473643D01*
X164854794Y-111249589D01*
X164683311Y-111078106D01*
X164459257Y-110985300D01*
X164134800Y-110985300D01*
X163982400Y-111137700D01*
X163677600Y-111137700D01*
X163525200Y-110985300D01*
X163200743Y-110985300D01*
X162976689Y-111078106D01*
X162805206Y-111249589D01*
X162712400Y-111473643D01*
X162137750Y-111473643D01*
X162135770Y-111463123D01*
X162057890Y-111342093D01*
X162052000Y-111338069D01*
X162052000Y-111140830D01*
X162291542Y-110901288D01*
X162383028Y-110863487D01*
X162608296Y-110638612D01*
X162730361Y-110344648D01*
X162730639Y-110026348D01*
X162639551Y-109805900D01*
X168616538Y-109805900D01*
X171668938Y-112858300D01*
G36*
X170817438Y-98973600D02*
X168352700Y-98973600D01*
X168233812Y-98854504D01*
X167939848Y-98732439D01*
X167621548Y-98732161D01*
X167487600Y-98787508D01*
X167487600Y-97503643D01*
X167394794Y-97279589D01*
X167223311Y-97108106D01*
X166999257Y-97015300D01*
X166674800Y-97015300D01*
X166522400Y-97167700D01*
X166522400Y-99720400D01*
X166542400Y-99720400D01*
X166542400Y-100025200D01*
X166522400Y-100025200D01*
X166522400Y-100045200D01*
X166217600Y-100045200D01*
X166217600Y-100025200D01*
X165404800Y-100025200D01*
X165252400Y-100177600D01*
X165252400Y-102019500D01*
X164947600Y-102019500D01*
X164947600Y-100177600D01*
X164795200Y-100025200D01*
X163982400Y-100025200D01*
X163982400Y-100045200D01*
X163677600Y-100045200D01*
X163677600Y-100025200D01*
X163657600Y-100025200D01*
X163657600Y-99720400D01*
X163677600Y-99720400D01*
X163677600Y-97167700D01*
X163982400Y-97167700D01*
X163982400Y-99720400D01*
X164795200Y-99720400D01*
X164947600Y-99568000D01*
X164947600Y-97503643D01*
X165252400Y-97503643D01*
X165252400Y-99568000D01*
X165404800Y-99720400D01*
X166217600Y-99720400D01*
X166217600Y-97167700D01*
X166065200Y-97015300D01*
X165740743Y-97015300D01*
X165516689Y-97108106D01*
X165345206Y-97279589D01*
X165252400Y-97503643D01*
X164947600Y-97503643D01*
X164854794Y-97279589D01*
X164683311Y-97108106D01*
X164459257Y-97015300D01*
X164134800Y-97015300D01*
X163982400Y-97167700D01*
X163677600Y-97167700D01*
X163525200Y-97015300D01*
X163200743Y-97015300D01*
X162976689Y-97108106D01*
X162805206Y-97279589D01*
X162790466Y-97315174D01*
X162771865Y-97221657D01*
X162650732Y-97040369D01*
X162409062Y-96798700D01*
X168642538Y-96798700D01*
X170817438Y-98973600D01*
X170817438Y-98973600D01*
G37*
X170817438Y-98973600D02*
X168352700Y-98973600D01*
X168233812Y-98854504D01*
X167939848Y-98732439D01*
X167621548Y-98732161D01*
X167487600Y-98787508D01*
X167487600Y-97503643D01*
X167394794Y-97279589D01*
X167223311Y-97108106D01*
X166999257Y-97015300D01*
X166674800Y-97015300D01*
X166522400Y-97167700D01*
X166522400Y-99720400D01*
X166542400Y-99720400D01*
X166542400Y-100025200D01*
X166522400Y-100025200D01*
X166522400Y-100045200D01*
X166217600Y-100045200D01*
X166217600Y-100025200D01*
X165404800Y-100025200D01*
X165252400Y-100177600D01*
X165252400Y-102019500D01*
X164947600Y-102019500D01*
X164947600Y-100177600D01*
X164795200Y-100025200D01*
X163982400Y-100025200D01*
X163982400Y-100045200D01*
X163677600Y-100045200D01*
X163677600Y-100025200D01*
X163657600Y-100025200D01*
X163657600Y-99720400D01*
X163677600Y-99720400D01*
X163677600Y-97167700D01*
X163982400Y-97167700D01*
X163982400Y-99720400D01*
X164795200Y-99720400D01*
X164947600Y-99568000D01*
X164947600Y-97503643D01*
X165252400Y-97503643D01*
X165252400Y-99568000D01*
X165404800Y-99720400D01*
X166217600Y-99720400D01*
X166217600Y-97167700D01*
X166065200Y-97015300D01*
X165740743Y-97015300D01*
X165516689Y-97108106D01*
X165345206Y-97279589D01*
X165252400Y-97503643D01*
X164947600Y-97503643D01*
X164854794Y-97279589D01*
X164683311Y-97108106D01*
X164459257Y-97015300D01*
X164134800Y-97015300D01*
X163982400Y-97167700D01*
X163677600Y-97167700D01*
X163525200Y-97015300D01*
X163200743Y-97015300D01*
X162976689Y-97108106D01*
X162805206Y-97279589D01*
X162790466Y-97315174D01*
X162771865Y-97221657D01*
X162650732Y-97040369D01*
X162409062Y-96798700D01*
X168642538Y-96798700D01*
X170817438Y-98973600D01*
G36*
X122540869Y-77339769D02*
X122475139Y-77438140D01*
X122456263Y-77409890D01*
X122093687Y-77167625D01*
X121666000Y-77082553D01*
X121238313Y-77167625D01*
X120875737Y-77409890D01*
X120633472Y-77772466D01*
X120548400Y-78200153D01*
X120548400Y-79279847D01*
X120633472Y-79707534D01*
X120875737Y-80070110D01*
X121238313Y-80312375D01*
X121517024Y-80367814D01*
X119213025Y-82671813D01*
X119166156Y-82681136D01*
X118984869Y-82802269D01*
X118863736Y-82983556D01*
X118821200Y-83197400D01*
X118821200Y-83301893D01*
X118740223Y-83317130D01*
X118619193Y-83395010D01*
X118537999Y-83513842D01*
X118509434Y-83654900D01*
X118509434Y-88150700D01*
X118534230Y-88282477D01*
X118612110Y-88403507D01*
X118730942Y-88484701D01*
X118872000Y-88513266D01*
X119389072Y-88513266D01*
X119241860Y-88660478D01*
X119166156Y-88675536D01*
X118984869Y-88796669D01*
X118863736Y-88977956D01*
X118821200Y-89191800D01*
X118821200Y-89296293D01*
X118740223Y-89311530D01*
X118619193Y-89389410D01*
X118537999Y-89508242D01*
X118509434Y-89649300D01*
X118509434Y-94145100D01*
X118534230Y-94276877D01*
X118612110Y-94397907D01*
X118730942Y-94479101D01*
X118872000Y-94507666D01*
X119888000Y-94507666D01*
X120019777Y-94482870D01*
X120140807Y-94404990D01*
X120222001Y-94286158D01*
X120250566Y-94145100D01*
X120250566Y-89649300D01*
X120225770Y-89517523D01*
X120147890Y-89396493D01*
X120111341Y-89371521D01*
X120740631Y-88742231D01*
X120861764Y-88560944D01*
X120904300Y-88347100D01*
X120904300Y-84220562D01*
X121049434Y-84075428D01*
X121049434Y-88150700D01*
X121074230Y-88282477D01*
X121152110Y-88403507D01*
X121270942Y-88484701D01*
X121412000Y-88513266D01*
X122428000Y-88513266D01*
X122559777Y-88488470D01*
X122680807Y-88410590D01*
X122762001Y-88291758D01*
X122790566Y-88150700D01*
X122790566Y-86610252D01*
X123013352Y-86702761D01*
X123331652Y-86703039D01*
X123589434Y-86596525D01*
X123589434Y-88150700D01*
X123614230Y-88282477D01*
X123692110Y-88403507D01*
X123810942Y-88484701D01*
X123952000Y-88513266D01*
X124469072Y-88513266D01*
X124321860Y-88660478D01*
X124246156Y-88675536D01*
X124064869Y-88796669D01*
X123943736Y-88977956D01*
X123901200Y-89191800D01*
X123901200Y-89296293D01*
X123820223Y-89311530D01*
X123699193Y-89389410D01*
X123617999Y-89508242D01*
X123589434Y-89649300D01*
X123589434Y-94043800D01*
X122790566Y-94043800D01*
X122790566Y-89649300D01*
X122765770Y-89517523D01*
X122687890Y-89396493D01*
X122569058Y-89315299D01*
X122428000Y-89286734D01*
X121412000Y-89286734D01*
X121280223Y-89311530D01*
X121159193Y-89389410D01*
X121077999Y-89508242D01*
X121049434Y-89649300D01*
X121049434Y-94145100D01*
X121074230Y-94276877D01*
X121152110Y-94397907D01*
X121270942Y-94479101D01*
X121361200Y-94497379D01*
X121361200Y-94602600D01*
X121403736Y-94816444D01*
X121524869Y-94997731D01*
X121706156Y-95118864D01*
X121920000Y-95161400D01*
X127910900Y-95161400D01*
X128029788Y-95280496D01*
X128323752Y-95402561D01*
X128642052Y-95402839D01*
X128936228Y-95281287D01*
X129161496Y-95056412D01*
X129283561Y-94762448D01*
X129283610Y-94706290D01*
X129387600Y-94602300D01*
X129387600Y-92049600D01*
X128574800Y-92049600D01*
X128422400Y-92202000D01*
X128422400Y-93802446D01*
X128325148Y-93802361D01*
X128030972Y-93923913D01*
X127910875Y-94043800D01*
X127870566Y-94043800D01*
X127870566Y-89649300D01*
X127845770Y-89517523D01*
X127767890Y-89396493D01*
X127731341Y-89371521D01*
X128360631Y-88742231D01*
X128481764Y-88560944D01*
X128524300Y-88347100D01*
X128524300Y-84274762D01*
X128669434Y-84129628D01*
X128669434Y-88150700D01*
X128694230Y-88282477D01*
X128772110Y-88403507D01*
X128778000Y-88407531D01*
X128778000Y-88811400D01*
X128830060Y-89073120D01*
X128686689Y-89132506D01*
X128515206Y-89303989D01*
X128422400Y-89528043D01*
X128422400Y-91592400D01*
X128574800Y-91744800D01*
X129387600Y-91744800D01*
X129387600Y-91724800D01*
X129692400Y-91724800D01*
X129692400Y-91744800D01*
X129712400Y-91744800D01*
X129712400Y-92049600D01*
X129692400Y-92049600D01*
X129692400Y-94602300D01*
X129844800Y-94754700D01*
X130073400Y-94754700D01*
X130073400Y-97267478D01*
X130048000Y-97262334D01*
X129032000Y-97262334D01*
X128900223Y-97287130D01*
X128779193Y-97365010D01*
X128697999Y-97483842D01*
X128669434Y-97624900D01*
X128669434Y-101806469D01*
X128601448Y-101778239D01*
X128283148Y-101777961D01*
X127988972Y-101899513D01*
X127870566Y-102017712D01*
X127870566Y-97624900D01*
X127845770Y-97493123D01*
X127767890Y-97372093D01*
X127649058Y-97290899D01*
X127558800Y-97272621D01*
X127558800Y-97167400D01*
X127545100Y-97098525D01*
X127545100Y-96881600D01*
X127664196Y-96762712D01*
X127786261Y-96468748D01*
X127786539Y-96150448D01*
X127664987Y-95856272D01*
X127440112Y-95631004D01*
X127146148Y-95508939D01*
X126827848Y-95508661D01*
X126533672Y-95630213D01*
X126308404Y-95855088D01*
X126186339Y-96149052D01*
X126186061Y-96467352D01*
X126307613Y-96761528D01*
X126427500Y-96881625D01*
X126427500Y-97153700D01*
X126441200Y-97222575D01*
X126441200Y-97271893D01*
X126360223Y-97287130D01*
X126239193Y-97365010D01*
X126157999Y-97483842D01*
X126129434Y-97624900D01*
X126129434Y-100754109D01*
X126125131Y-100747669D01*
X125330566Y-99953104D01*
X125330566Y-97624900D01*
X125305770Y-97493123D01*
X125227890Y-97372093D01*
X125109058Y-97290899D01*
X124968000Y-97262334D01*
X123952000Y-97262334D01*
X123820223Y-97287130D01*
X123699193Y-97365010D01*
X123617999Y-97483842D01*
X123589434Y-97624900D01*
X123589434Y-102019400D01*
X122790566Y-102019400D01*
X122790566Y-97624900D01*
X122765770Y-97493123D01*
X122687890Y-97372093D01*
X122569058Y-97290899D01*
X122428000Y-97262334D01*
X121412000Y-97262334D01*
X121280223Y-97287130D01*
X121159193Y-97365010D01*
X121077999Y-97483842D01*
X121049434Y-97624900D01*
X121049434Y-102120700D01*
X121074230Y-102252477D01*
X121152110Y-102373507D01*
X121270942Y-102454701D01*
X121361200Y-102472979D01*
X121361200Y-102578200D01*
X121403736Y-102792044D01*
X121524869Y-102973331D01*
X121706156Y-103094464D01*
X121920000Y-103137000D01*
X127868900Y-103137000D01*
X127987788Y-103256096D01*
X128281752Y-103378161D01*
X128600052Y-103378439D01*
X128894228Y-103256887D01*
X129119496Y-103032012D01*
X129144248Y-102972402D01*
X129144869Y-102973331D01*
X129326156Y-103094464D01*
X129401860Y-103109522D01*
X129549072Y-103256734D01*
X129032000Y-103256734D01*
X128900223Y-103281530D01*
X128779193Y-103359410D01*
X128697999Y-103478242D01*
X128669434Y-103619300D01*
X128669434Y-108115100D01*
X128694230Y-108246877D01*
X128772110Y-108367907D01*
X128890942Y-108449101D01*
X128981200Y-108467379D01*
X128981200Y-108572600D01*
X129023736Y-108786444D01*
X129144869Y-108967731D01*
X129326156Y-109088864D01*
X129540000Y-109131400D01*
X130073400Y-109131400D01*
X130073400Y-110172200D01*
X119253600Y-110172200D01*
X118961995Y-110230204D01*
X118714784Y-110395385D01*
X107952170Y-121158000D01*
X107885670Y-121158000D01*
X107865060Y-121054385D01*
X107587006Y-120638247D01*
X107170868Y-120360193D01*
X106680000Y-120262553D01*
X106189132Y-120360193D01*
X105772994Y-120638247D01*
X105542465Y-120983259D01*
X105501405Y-120848231D01*
X105118848Y-120382726D01*
X104587270Y-120099053D01*
X104529731Y-120090643D01*
X104292400Y-120201215D01*
X104292400Y-121767600D01*
X104312400Y-121767600D01*
X104312400Y-122072400D01*
X104292400Y-122072400D01*
X104292400Y-123638785D01*
X104529731Y-123749357D01*
X104587270Y-123740947D01*
X105118848Y-123457274D01*
X105501405Y-122991769D01*
X105542465Y-122856741D01*
X105772994Y-123201753D01*
X106189132Y-123479807D01*
X106680000Y-123577447D01*
X107170868Y-123479807D01*
X107587006Y-123201753D01*
X107865060Y-122785615D01*
X107885670Y-122682000D01*
X108267800Y-122682000D01*
X108559405Y-122623996D01*
X108806615Y-122458815D01*
X119569231Y-111696200D01*
X121049434Y-111696200D01*
X121049434Y-116090700D01*
X121074230Y-116222477D01*
X121152110Y-116343507D01*
X121188659Y-116368479D01*
X120559369Y-116997769D01*
X120438236Y-117179056D01*
X120395700Y-117392900D01*
X120395700Y-124462900D01*
X120438236Y-124676744D01*
X120457274Y-124705236D01*
X120559369Y-124858031D01*
X125457238Y-129755900D01*
X93764100Y-129755900D01*
X93764100Y-127460264D01*
X109435497Y-127460264D01*
X109788575Y-128314777D01*
X110441784Y-128969127D01*
X111295680Y-129323696D01*
X112220264Y-129324503D01*
X113074777Y-128971425D01*
X113729127Y-128318216D01*
X114083696Y-127464320D01*
X114084503Y-126539736D01*
X113731425Y-125685223D01*
X113078216Y-125030873D01*
X112224320Y-124676304D01*
X111299736Y-124675497D01*
X110445223Y-125028575D01*
X109790873Y-125681784D01*
X109436304Y-126535680D01*
X109435497Y-127460264D01*
X93764100Y-127460264D01*
X93764100Y-120650000D01*
X100310334Y-120650000D01*
X100310334Y-123190000D01*
X100335130Y-123321777D01*
X100413010Y-123442807D01*
X100531842Y-123524001D01*
X100672900Y-123552566D01*
X102527100Y-123552566D01*
X102658877Y-123527770D01*
X102779907Y-123449890D01*
X102861101Y-123331058D01*
X102889666Y-123190000D01*
X102889666Y-123126923D01*
X103161152Y-123457274D01*
X103692730Y-123740947D01*
X103750269Y-123749357D01*
X103987600Y-123638785D01*
X103987600Y-122072400D01*
X103967600Y-122072400D01*
X103967600Y-121767600D01*
X103987600Y-121767600D01*
X103987600Y-120201215D01*
X103750269Y-120090643D01*
X103692730Y-120099053D01*
X103161152Y-120382726D01*
X102889666Y-120713077D01*
X102889666Y-120650000D01*
X102864870Y-120518223D01*
X102786990Y-120397193D01*
X102668158Y-120315999D01*
X102527100Y-120287434D01*
X100672900Y-120287434D01*
X100541123Y-120312230D01*
X100420093Y-120390110D01*
X100338899Y-120508942D01*
X100310334Y-120650000D01*
X93764100Y-120650000D01*
X93764100Y-107950000D01*
X96107672Y-107950000D01*
X96250748Y-108669292D01*
X96658194Y-109279078D01*
X97267980Y-109686524D01*
X97987272Y-109829600D01*
X100132728Y-109829600D01*
X100852020Y-109686524D01*
X101461806Y-109279078D01*
X101869252Y-108669292D01*
X102012328Y-107950000D01*
X101869252Y-107230708D01*
X101461806Y-106620922D01*
X100852020Y-106213476D01*
X100132728Y-106070400D01*
X97987272Y-106070400D01*
X97267980Y-106213476D01*
X96658194Y-106620922D01*
X96250748Y-107230708D01*
X96107672Y-107950000D01*
X93764100Y-107950000D01*
X93764100Y-106033096D01*
X106573837Y-106033096D01*
X106722637Y-106550970D01*
X107058292Y-106972480D01*
X107529701Y-107233454D01*
X107586239Y-107240484D01*
X107797600Y-107127637D01*
X107797600Y-105816400D01*
X108102400Y-105816400D01*
X108102400Y-107127637D01*
X108313761Y-107240484D01*
X108370299Y-107233454D01*
X108841708Y-106972480D01*
X109177363Y-106550970D01*
X109326163Y-106033096D01*
X109174825Y-105816400D01*
X108102400Y-105816400D01*
X107797600Y-105816400D01*
X106725175Y-105816400D01*
X106573837Y-106033096D01*
X93764100Y-106033096D01*
X93764100Y-102870000D01*
X103757529Y-102870000D01*
X103842601Y-103297687D01*
X104084866Y-103660263D01*
X104447442Y-103902528D01*
X104875129Y-103987600D01*
X105436871Y-103987600D01*
X105864558Y-103902528D01*
X106227134Y-103660263D01*
X106469399Y-103297687D01*
X106554471Y-102870000D01*
X106469399Y-102442313D01*
X106227134Y-102079737D01*
X105864558Y-101837472D01*
X105436871Y-101752400D01*
X104875129Y-101752400D01*
X104447442Y-101837472D01*
X104084866Y-102079737D01*
X103842601Y-102442313D01*
X103757529Y-102870000D01*
X93764100Y-102870000D01*
X93764100Y-100445096D01*
X106573837Y-100445096D01*
X106722637Y-100962970D01*
X107058292Y-101384480D01*
X107452936Y-101602957D01*
X107159737Y-101798866D01*
X106917472Y-102161442D01*
X106832400Y-102589129D01*
X106832400Y-103150871D01*
X106917472Y-103578558D01*
X107159737Y-103941134D01*
X107452936Y-104137043D01*
X107058292Y-104355520D01*
X106722637Y-104777030D01*
X106573837Y-105294904D01*
X106725175Y-105511600D01*
X107797600Y-105511600D01*
X107797600Y-105491600D01*
X108102400Y-105491600D01*
X108102400Y-105511600D01*
X109174825Y-105511600D01*
X109326163Y-105294904D01*
X109177363Y-104777030D01*
X108841708Y-104355520D01*
X108447064Y-104137043D01*
X108740263Y-103941134D01*
X108955305Y-103619300D01*
X121049434Y-103619300D01*
X121049434Y-108115100D01*
X121074230Y-108246877D01*
X121152110Y-108367907D01*
X121270942Y-108449101D01*
X121412000Y-108477666D01*
X122428000Y-108477666D01*
X122559777Y-108452870D01*
X122680807Y-108374990D01*
X122762001Y-108256158D01*
X122790566Y-108115100D01*
X122790566Y-106574652D01*
X123013352Y-106667161D01*
X123331652Y-106667439D01*
X123589434Y-106560925D01*
X123589434Y-108115100D01*
X123614230Y-108246877D01*
X123692110Y-108367907D01*
X123810942Y-108449101D01*
X123901200Y-108467379D01*
X123901200Y-108572600D01*
X123943736Y-108786444D01*
X124064869Y-108967731D01*
X124246156Y-109088864D01*
X124460000Y-109131400D01*
X124527800Y-109131400D01*
X124741644Y-109088864D01*
X124922931Y-108967731D01*
X125248963Y-108641700D01*
X125477500Y-108641700D01*
X125558607Y-108625567D01*
X125570152Y-108630361D01*
X125888452Y-108630639D01*
X126182628Y-108509087D01*
X126286694Y-108405202D01*
X126350942Y-108449101D01*
X126492000Y-108477666D01*
X127508000Y-108477666D01*
X127639777Y-108452870D01*
X127760807Y-108374990D01*
X127842001Y-108256158D01*
X127870566Y-108115100D01*
X127870566Y-103619300D01*
X127845770Y-103487523D01*
X127767890Y-103366493D01*
X127649058Y-103285299D01*
X127508000Y-103256734D01*
X126492000Y-103256734D01*
X126360223Y-103281530D01*
X126239193Y-103359410D01*
X126157999Y-103478242D01*
X126129434Y-103619300D01*
X126129434Y-105143429D01*
X125945948Y-105067239D01*
X125627648Y-105066961D01*
X125333472Y-105188513D01*
X125330566Y-105191414D01*
X125330566Y-103619300D01*
X125305770Y-103487523D01*
X125227890Y-103366493D01*
X125109058Y-103285299D01*
X124968000Y-103256734D01*
X123952000Y-103256734D01*
X123820223Y-103281530D01*
X123699193Y-103359410D01*
X123617999Y-103478242D01*
X123589434Y-103619300D01*
X123589434Y-105173700D01*
X123333048Y-105067239D01*
X123014748Y-105066961D01*
X122790566Y-105159592D01*
X122790566Y-103619300D01*
X122765770Y-103487523D01*
X122687890Y-103366493D01*
X122569058Y-103285299D01*
X122428000Y-103256734D01*
X121412000Y-103256734D01*
X121280223Y-103281530D01*
X121159193Y-103359410D01*
X121077999Y-103478242D01*
X121049434Y-103619300D01*
X108955305Y-103619300D01*
X108982528Y-103578558D01*
X109067600Y-103150871D01*
X109067600Y-102589129D01*
X108982528Y-102161442D01*
X108740263Y-101798866D01*
X108447064Y-101602957D01*
X108841708Y-101384480D01*
X109177363Y-100962970D01*
X109326163Y-100445096D01*
X109174825Y-100228400D01*
X108102400Y-100228400D01*
X108102400Y-100248400D01*
X107797600Y-100248400D01*
X107797600Y-100228400D01*
X106725175Y-100228400D01*
X106573837Y-100445096D01*
X93764100Y-100445096D01*
X93764100Y-99706904D01*
X106573837Y-99706904D01*
X106725175Y-99923600D01*
X107797600Y-99923600D01*
X107797600Y-98612363D01*
X108102400Y-98612363D01*
X108102400Y-99923600D01*
X109174825Y-99923600D01*
X109326163Y-99706904D01*
X109177363Y-99189030D01*
X108841708Y-98767520D01*
X108370299Y-98506546D01*
X108313761Y-98499516D01*
X108102400Y-98612363D01*
X107797600Y-98612363D01*
X107586239Y-98499516D01*
X107529701Y-98506546D01*
X107058292Y-98767520D01*
X106722637Y-99189030D01*
X106573837Y-99706904D01*
X93764100Y-99706904D01*
X93764100Y-97790000D01*
X96107672Y-97790000D01*
X96250748Y-98509292D01*
X96658194Y-99119078D01*
X97267980Y-99526524D01*
X97987272Y-99669600D01*
X100132728Y-99669600D01*
X100852020Y-99526524D01*
X101461806Y-99119078D01*
X101869252Y-98509292D01*
X102012328Y-97790000D01*
X101869252Y-97070708D01*
X101461806Y-96460922D01*
X100852020Y-96053476D01*
X100132728Y-95910400D01*
X97987272Y-95910400D01*
X97267980Y-96053476D01*
X96658194Y-96460922D01*
X96250748Y-97070708D01*
X96107672Y-97790000D01*
X93764100Y-97790000D01*
X93764100Y-79200264D01*
X110705497Y-79200264D01*
X111058575Y-80054777D01*
X111711784Y-80709127D01*
X112565680Y-81063696D01*
X113490264Y-81064503D01*
X114344777Y-80711425D01*
X114999127Y-80058216D01*
X115353696Y-79204320D01*
X115354503Y-78279736D01*
X115321620Y-78200153D01*
X115468400Y-78200153D01*
X115468400Y-79279847D01*
X115553472Y-79707534D01*
X115795737Y-80070110D01*
X116158313Y-80312375D01*
X116586000Y-80397447D01*
X117013687Y-80312375D01*
X117376263Y-80070110D01*
X117618528Y-79707534D01*
X117703600Y-79279847D01*
X117703600Y-78200153D01*
X118008400Y-78200153D01*
X118008400Y-79279847D01*
X118093472Y-79707534D01*
X118335737Y-80070110D01*
X118698313Y-80312375D01*
X119126000Y-80397447D01*
X119553687Y-80312375D01*
X119916263Y-80070110D01*
X120158528Y-79707534D01*
X120243600Y-79279847D01*
X120243600Y-78200153D01*
X120158528Y-77772466D01*
X119916263Y-77409890D01*
X119553687Y-77167625D01*
X119126000Y-77082553D01*
X118698313Y-77167625D01*
X118335737Y-77409890D01*
X118093472Y-77772466D01*
X118008400Y-78200153D01*
X117703600Y-78200153D01*
X117618528Y-77772466D01*
X117376263Y-77409890D01*
X117013687Y-77167625D01*
X116586000Y-77082553D01*
X116158313Y-77167625D01*
X115795737Y-77409890D01*
X115553472Y-77772466D01*
X115468400Y-78200153D01*
X115321620Y-78200153D01*
X115001425Y-77425223D01*
X114348216Y-76770873D01*
X113494320Y-76416304D01*
X112569736Y-76415497D01*
X111715223Y-76768575D01*
X111060873Y-77421784D01*
X110706304Y-78275680D01*
X110705497Y-79200264D01*
X93764100Y-79200264D01*
X93764100Y-75984100D01*
X123896538Y-75984100D01*
X122540869Y-77339769D01*
X122540869Y-77339769D01*
G37*
X122540869Y-77339769D02*
X122475139Y-77438140D01*
X122456263Y-77409890D01*
X122093687Y-77167625D01*
X121666000Y-77082553D01*
X121238313Y-77167625D01*
X120875737Y-77409890D01*
X120633472Y-77772466D01*
X120548400Y-78200153D01*
X120548400Y-79279847D01*
X120633472Y-79707534D01*
X120875737Y-80070110D01*
X121238313Y-80312375D01*
X121517024Y-80367814D01*
X119213025Y-82671813D01*
X119166156Y-82681136D01*
X118984869Y-82802269D01*
X118863736Y-82983556D01*
X118821200Y-83197400D01*
X118821200Y-83301893D01*
X118740223Y-83317130D01*
X118619193Y-83395010D01*
X118537999Y-83513842D01*
X118509434Y-83654900D01*
X118509434Y-88150700D01*
X118534230Y-88282477D01*
X118612110Y-88403507D01*
X118730942Y-88484701D01*
X118872000Y-88513266D01*
X119389072Y-88513266D01*
X119241860Y-88660478D01*
X119166156Y-88675536D01*
X118984869Y-88796669D01*
X118863736Y-88977956D01*
X118821200Y-89191800D01*
X118821200Y-89296293D01*
X118740223Y-89311530D01*
X118619193Y-89389410D01*
X118537999Y-89508242D01*
X118509434Y-89649300D01*
X118509434Y-94145100D01*
X118534230Y-94276877D01*
X118612110Y-94397907D01*
X118730942Y-94479101D01*
X118872000Y-94507666D01*
X119888000Y-94507666D01*
X120019777Y-94482870D01*
X120140807Y-94404990D01*
X120222001Y-94286158D01*
X120250566Y-94145100D01*
X120250566Y-89649300D01*
X120225770Y-89517523D01*
X120147890Y-89396493D01*
X120111341Y-89371521D01*
X120740631Y-88742231D01*
X120861764Y-88560944D01*
X120904300Y-88347100D01*
X120904300Y-84220562D01*
X121049434Y-84075428D01*
X121049434Y-88150700D01*
X121074230Y-88282477D01*
X121152110Y-88403507D01*
X121270942Y-88484701D01*
X121412000Y-88513266D01*
X122428000Y-88513266D01*
X122559777Y-88488470D01*
X122680807Y-88410590D01*
X122762001Y-88291758D01*
X122790566Y-88150700D01*
X122790566Y-86610252D01*
X123013352Y-86702761D01*
X123331652Y-86703039D01*
X123589434Y-86596525D01*
X123589434Y-88150700D01*
X123614230Y-88282477D01*
X123692110Y-88403507D01*
X123810942Y-88484701D01*
X123952000Y-88513266D01*
X124469072Y-88513266D01*
X124321860Y-88660478D01*
X124246156Y-88675536D01*
X124064869Y-88796669D01*
X123943736Y-88977956D01*
X123901200Y-89191800D01*
X123901200Y-89296293D01*
X123820223Y-89311530D01*
X123699193Y-89389410D01*
X123617999Y-89508242D01*
X123589434Y-89649300D01*
X123589434Y-94043800D01*
X122790566Y-94043800D01*
X122790566Y-89649300D01*
X122765770Y-89517523D01*
X122687890Y-89396493D01*
X122569058Y-89315299D01*
X122428000Y-89286734D01*
X121412000Y-89286734D01*
X121280223Y-89311530D01*
X121159193Y-89389410D01*
X121077999Y-89508242D01*
X121049434Y-89649300D01*
X121049434Y-94145100D01*
X121074230Y-94276877D01*
X121152110Y-94397907D01*
X121270942Y-94479101D01*
X121361200Y-94497379D01*
X121361200Y-94602600D01*
X121403736Y-94816444D01*
X121524869Y-94997731D01*
X121706156Y-95118864D01*
X121920000Y-95161400D01*
X127910900Y-95161400D01*
X128029788Y-95280496D01*
X128323752Y-95402561D01*
X128642052Y-95402839D01*
X128936228Y-95281287D01*
X129161496Y-95056412D01*
X129283561Y-94762448D01*
X129283610Y-94706290D01*
X129387600Y-94602300D01*
X129387600Y-92049600D01*
X128574800Y-92049600D01*
X128422400Y-92202000D01*
X128422400Y-93802446D01*
X128325148Y-93802361D01*
X128030972Y-93923913D01*
X127910875Y-94043800D01*
X127870566Y-94043800D01*
X127870566Y-89649300D01*
X127845770Y-89517523D01*
X127767890Y-89396493D01*
X127731341Y-89371521D01*
X128360631Y-88742231D01*
X128481764Y-88560944D01*
X128524300Y-88347100D01*
X128524300Y-84274762D01*
X128669434Y-84129628D01*
X128669434Y-88150700D01*
X128694230Y-88282477D01*
X128772110Y-88403507D01*
X128778000Y-88407531D01*
X128778000Y-88811400D01*
X128830060Y-89073120D01*
X128686689Y-89132506D01*
X128515206Y-89303989D01*
X128422400Y-89528043D01*
X128422400Y-91592400D01*
X128574800Y-91744800D01*
X129387600Y-91744800D01*
X129387600Y-91724800D01*
X129692400Y-91724800D01*
X129692400Y-91744800D01*
X129712400Y-91744800D01*
X129712400Y-92049600D01*
X129692400Y-92049600D01*
X129692400Y-94602300D01*
X129844800Y-94754700D01*
X130073400Y-94754700D01*
X130073400Y-97267478D01*
X130048000Y-97262334D01*
X129032000Y-97262334D01*
X128900223Y-97287130D01*
X128779193Y-97365010D01*
X128697999Y-97483842D01*
X128669434Y-97624900D01*
X128669434Y-101806469D01*
X128601448Y-101778239D01*
X128283148Y-101777961D01*
X127988972Y-101899513D01*
X127870566Y-102017712D01*
X127870566Y-97624900D01*
X127845770Y-97493123D01*
X127767890Y-97372093D01*
X127649058Y-97290899D01*
X127558800Y-97272621D01*
X127558800Y-97167400D01*
X127545100Y-97098525D01*
X127545100Y-96881600D01*
X127664196Y-96762712D01*
X127786261Y-96468748D01*
X127786539Y-96150448D01*
X127664987Y-95856272D01*
X127440112Y-95631004D01*
X127146148Y-95508939D01*
X126827848Y-95508661D01*
X126533672Y-95630213D01*
X126308404Y-95855088D01*
X126186339Y-96149052D01*
X126186061Y-96467352D01*
X126307613Y-96761528D01*
X126427500Y-96881625D01*
X126427500Y-97153700D01*
X126441200Y-97222575D01*
X126441200Y-97271893D01*
X126360223Y-97287130D01*
X126239193Y-97365010D01*
X126157999Y-97483842D01*
X126129434Y-97624900D01*
X126129434Y-100754109D01*
X126125131Y-100747669D01*
X125330566Y-99953104D01*
X125330566Y-97624900D01*
X125305770Y-97493123D01*
X125227890Y-97372093D01*
X125109058Y-97290899D01*
X124968000Y-97262334D01*
X123952000Y-97262334D01*
X123820223Y-97287130D01*
X123699193Y-97365010D01*
X123617999Y-97483842D01*
X123589434Y-97624900D01*
X123589434Y-102019400D01*
X122790566Y-102019400D01*
X122790566Y-97624900D01*
X122765770Y-97493123D01*
X122687890Y-97372093D01*
X122569058Y-97290899D01*
X122428000Y-97262334D01*
X121412000Y-97262334D01*
X121280223Y-97287130D01*
X121159193Y-97365010D01*
X121077999Y-97483842D01*
X121049434Y-97624900D01*
X121049434Y-102120700D01*
X121074230Y-102252477D01*
X121152110Y-102373507D01*
X121270942Y-102454701D01*
X121361200Y-102472979D01*
X121361200Y-102578200D01*
X121403736Y-102792044D01*
X121524869Y-102973331D01*
X121706156Y-103094464D01*
X121920000Y-103137000D01*
X127868900Y-103137000D01*
X127987788Y-103256096D01*
X128281752Y-103378161D01*
X128600052Y-103378439D01*
X128894228Y-103256887D01*
X129119496Y-103032012D01*
X129144248Y-102972402D01*
X129144869Y-102973331D01*
X129326156Y-103094464D01*
X129401860Y-103109522D01*
X129549072Y-103256734D01*
X129032000Y-103256734D01*
X128900223Y-103281530D01*
X128779193Y-103359410D01*
X128697999Y-103478242D01*
X128669434Y-103619300D01*
X128669434Y-108115100D01*
X128694230Y-108246877D01*
X128772110Y-108367907D01*
X128890942Y-108449101D01*
X128981200Y-108467379D01*
X128981200Y-108572600D01*
X129023736Y-108786444D01*
X129144869Y-108967731D01*
X129326156Y-109088864D01*
X129540000Y-109131400D01*
X130073400Y-109131400D01*
X130073400Y-110172200D01*
X119253600Y-110172200D01*
X118961995Y-110230204D01*
X118714784Y-110395385D01*
X107952170Y-121158000D01*
X107885670Y-121158000D01*
X107865060Y-121054385D01*
X107587006Y-120638247D01*
X107170868Y-120360193D01*
X106680000Y-120262553D01*
X106189132Y-120360193D01*
X105772994Y-120638247D01*
X105542465Y-120983259D01*
X105501405Y-120848231D01*
X105118848Y-120382726D01*
X104587270Y-120099053D01*
X104529731Y-120090643D01*
X104292400Y-120201215D01*
X104292400Y-121767600D01*
X104312400Y-121767600D01*
X104312400Y-122072400D01*
X104292400Y-122072400D01*
X104292400Y-123638785D01*
X104529731Y-123749357D01*
X104587270Y-123740947D01*
X105118848Y-123457274D01*
X105501405Y-122991769D01*
X105542465Y-122856741D01*
X105772994Y-123201753D01*
X106189132Y-123479807D01*
X106680000Y-123577447D01*
X107170868Y-123479807D01*
X107587006Y-123201753D01*
X107865060Y-122785615D01*
X107885670Y-122682000D01*
X108267800Y-122682000D01*
X108559405Y-122623996D01*
X108806615Y-122458815D01*
X119569231Y-111696200D01*
X121049434Y-111696200D01*
X121049434Y-116090700D01*
X121074230Y-116222477D01*
X121152110Y-116343507D01*
X121188659Y-116368479D01*
X120559369Y-116997769D01*
X120438236Y-117179056D01*
X120395700Y-117392900D01*
X120395700Y-124462900D01*
X120438236Y-124676744D01*
X120457274Y-124705236D01*
X120559369Y-124858031D01*
X125457238Y-129755900D01*
X93764100Y-129755900D01*
X93764100Y-127460264D01*
X109435497Y-127460264D01*
X109788575Y-128314777D01*
X110441784Y-128969127D01*
X111295680Y-129323696D01*
X112220264Y-129324503D01*
X113074777Y-128971425D01*
X113729127Y-128318216D01*
X114083696Y-127464320D01*
X114084503Y-126539736D01*
X113731425Y-125685223D01*
X113078216Y-125030873D01*
X112224320Y-124676304D01*
X111299736Y-124675497D01*
X110445223Y-125028575D01*
X109790873Y-125681784D01*
X109436304Y-126535680D01*
X109435497Y-127460264D01*
X93764100Y-127460264D01*
X93764100Y-120650000D01*
X100310334Y-120650000D01*
X100310334Y-123190000D01*
X100335130Y-123321777D01*
X100413010Y-123442807D01*
X100531842Y-123524001D01*
X100672900Y-123552566D01*
X102527100Y-123552566D01*
X102658877Y-123527770D01*
X102779907Y-123449890D01*
X102861101Y-123331058D01*
X102889666Y-123190000D01*
X102889666Y-123126923D01*
X103161152Y-123457274D01*
X103692730Y-123740947D01*
X103750269Y-123749357D01*
X103987600Y-123638785D01*
X103987600Y-122072400D01*
X103967600Y-122072400D01*
X103967600Y-121767600D01*
X103987600Y-121767600D01*
X103987600Y-120201215D01*
X103750269Y-120090643D01*
X103692730Y-120099053D01*
X103161152Y-120382726D01*
X102889666Y-120713077D01*
X102889666Y-120650000D01*
X102864870Y-120518223D01*
X102786990Y-120397193D01*
X102668158Y-120315999D01*
X102527100Y-120287434D01*
X100672900Y-120287434D01*
X100541123Y-120312230D01*
X100420093Y-120390110D01*
X100338899Y-120508942D01*
X100310334Y-120650000D01*
X93764100Y-120650000D01*
X93764100Y-107950000D01*
X96107672Y-107950000D01*
X96250748Y-108669292D01*
X96658194Y-109279078D01*
X97267980Y-109686524D01*
X97987272Y-109829600D01*
X100132728Y-109829600D01*
X100852020Y-109686524D01*
X101461806Y-109279078D01*
X101869252Y-108669292D01*
X102012328Y-107950000D01*
X101869252Y-107230708D01*
X101461806Y-106620922D01*
X100852020Y-106213476D01*
X100132728Y-106070400D01*
X97987272Y-106070400D01*
X97267980Y-106213476D01*
X96658194Y-106620922D01*
X96250748Y-107230708D01*
X96107672Y-107950000D01*
X93764100Y-107950000D01*
X93764100Y-106033096D01*
X106573837Y-106033096D01*
X106722637Y-106550970D01*
X107058292Y-106972480D01*
X107529701Y-107233454D01*
X107586239Y-107240484D01*
X107797600Y-107127637D01*
X107797600Y-105816400D01*
X108102400Y-105816400D01*
X108102400Y-107127637D01*
X108313761Y-107240484D01*
X108370299Y-107233454D01*
X108841708Y-106972480D01*
X109177363Y-106550970D01*
X109326163Y-106033096D01*
X109174825Y-105816400D01*
X108102400Y-105816400D01*
X107797600Y-105816400D01*
X106725175Y-105816400D01*
X106573837Y-106033096D01*
X93764100Y-106033096D01*
X93764100Y-102870000D01*
X103757529Y-102870000D01*
X103842601Y-103297687D01*
X104084866Y-103660263D01*
X104447442Y-103902528D01*
X104875129Y-103987600D01*
X105436871Y-103987600D01*
X105864558Y-103902528D01*
X106227134Y-103660263D01*
X106469399Y-103297687D01*
X106554471Y-102870000D01*
X106469399Y-102442313D01*
X106227134Y-102079737D01*
X105864558Y-101837472D01*
X105436871Y-101752400D01*
X104875129Y-101752400D01*
X104447442Y-101837472D01*
X104084866Y-102079737D01*
X103842601Y-102442313D01*
X103757529Y-102870000D01*
X93764100Y-102870000D01*
X93764100Y-100445096D01*
X106573837Y-100445096D01*
X106722637Y-100962970D01*
X107058292Y-101384480D01*
X107452936Y-101602957D01*
X107159737Y-101798866D01*
X106917472Y-102161442D01*
X106832400Y-102589129D01*
X106832400Y-103150871D01*
X106917472Y-103578558D01*
X107159737Y-103941134D01*
X107452936Y-104137043D01*
X107058292Y-104355520D01*
X106722637Y-104777030D01*
X106573837Y-105294904D01*
X106725175Y-105511600D01*
X107797600Y-105511600D01*
X107797600Y-105491600D01*
X108102400Y-105491600D01*
X108102400Y-105511600D01*
X109174825Y-105511600D01*
X109326163Y-105294904D01*
X109177363Y-104777030D01*
X108841708Y-104355520D01*
X108447064Y-104137043D01*
X108740263Y-103941134D01*
X108955305Y-103619300D01*
X121049434Y-103619300D01*
X121049434Y-108115100D01*
X121074230Y-108246877D01*
X121152110Y-108367907D01*
X121270942Y-108449101D01*
X121412000Y-108477666D01*
X122428000Y-108477666D01*
X122559777Y-108452870D01*
X122680807Y-108374990D01*
X122762001Y-108256158D01*
X122790566Y-108115100D01*
X122790566Y-106574652D01*
X123013352Y-106667161D01*
X123331652Y-106667439D01*
X123589434Y-106560925D01*
X123589434Y-108115100D01*
X123614230Y-108246877D01*
X123692110Y-108367907D01*
X123810942Y-108449101D01*
X123901200Y-108467379D01*
X123901200Y-108572600D01*
X123943736Y-108786444D01*
X124064869Y-108967731D01*
X124246156Y-109088864D01*
X124460000Y-109131400D01*
X124527800Y-109131400D01*
X124741644Y-109088864D01*
X124922931Y-108967731D01*
X125248963Y-108641700D01*
X125477500Y-108641700D01*
X125558607Y-108625567D01*
X125570152Y-108630361D01*
X125888452Y-108630639D01*
X126182628Y-108509087D01*
X126286694Y-108405202D01*
X126350942Y-108449101D01*
X126492000Y-108477666D01*
X127508000Y-108477666D01*
X127639777Y-108452870D01*
X127760807Y-108374990D01*
X127842001Y-108256158D01*
X127870566Y-108115100D01*
X127870566Y-103619300D01*
X127845770Y-103487523D01*
X127767890Y-103366493D01*
X127649058Y-103285299D01*
X127508000Y-103256734D01*
X126492000Y-103256734D01*
X126360223Y-103281530D01*
X126239193Y-103359410D01*
X126157999Y-103478242D01*
X126129434Y-103619300D01*
X126129434Y-105143429D01*
X125945948Y-105067239D01*
X125627648Y-105066961D01*
X125333472Y-105188513D01*
X125330566Y-105191414D01*
X125330566Y-103619300D01*
X125305770Y-103487523D01*
X125227890Y-103366493D01*
X125109058Y-103285299D01*
X124968000Y-103256734D01*
X123952000Y-103256734D01*
X123820223Y-103281530D01*
X123699193Y-103359410D01*
X123617999Y-103478242D01*
X123589434Y-103619300D01*
X123589434Y-105173700D01*
X123333048Y-105067239D01*
X123014748Y-105066961D01*
X122790566Y-105159592D01*
X122790566Y-103619300D01*
X122765770Y-103487523D01*
X122687890Y-103366493D01*
X122569058Y-103285299D01*
X122428000Y-103256734D01*
X121412000Y-103256734D01*
X121280223Y-103281530D01*
X121159193Y-103359410D01*
X121077999Y-103478242D01*
X121049434Y-103619300D01*
X108955305Y-103619300D01*
X108982528Y-103578558D01*
X109067600Y-103150871D01*
X109067600Y-102589129D01*
X108982528Y-102161442D01*
X108740263Y-101798866D01*
X108447064Y-101602957D01*
X108841708Y-101384480D01*
X109177363Y-100962970D01*
X109326163Y-100445096D01*
X109174825Y-100228400D01*
X108102400Y-100228400D01*
X108102400Y-100248400D01*
X107797600Y-100248400D01*
X107797600Y-100228400D01*
X106725175Y-100228400D01*
X106573837Y-100445096D01*
X93764100Y-100445096D01*
X93764100Y-99706904D01*
X106573837Y-99706904D01*
X106725175Y-99923600D01*
X107797600Y-99923600D01*
X107797600Y-98612363D01*
X108102400Y-98612363D01*
X108102400Y-99923600D01*
X109174825Y-99923600D01*
X109326163Y-99706904D01*
X109177363Y-99189030D01*
X108841708Y-98767520D01*
X108370299Y-98506546D01*
X108313761Y-98499516D01*
X108102400Y-98612363D01*
X107797600Y-98612363D01*
X107586239Y-98499516D01*
X107529701Y-98506546D01*
X107058292Y-98767520D01*
X106722637Y-99189030D01*
X106573837Y-99706904D01*
X93764100Y-99706904D01*
X93764100Y-97790000D01*
X96107672Y-97790000D01*
X96250748Y-98509292D01*
X96658194Y-99119078D01*
X97267980Y-99526524D01*
X97987272Y-99669600D01*
X100132728Y-99669600D01*
X100852020Y-99526524D01*
X101461806Y-99119078D01*
X101869252Y-98509292D01*
X102012328Y-97790000D01*
X101869252Y-97070708D01*
X101461806Y-96460922D01*
X100852020Y-96053476D01*
X100132728Y-95910400D01*
X97987272Y-95910400D01*
X97267980Y-96053476D01*
X96658194Y-96460922D01*
X96250748Y-97070708D01*
X96107672Y-97790000D01*
X93764100Y-97790000D01*
X93764100Y-79200264D01*
X110705497Y-79200264D01*
X111058575Y-80054777D01*
X111711784Y-80709127D01*
X112565680Y-81063696D01*
X113490264Y-81064503D01*
X114344777Y-80711425D01*
X114999127Y-80058216D01*
X115353696Y-79204320D01*
X115354503Y-78279736D01*
X115321620Y-78200153D01*
X115468400Y-78200153D01*
X115468400Y-79279847D01*
X115553472Y-79707534D01*
X115795737Y-80070110D01*
X116158313Y-80312375D01*
X116586000Y-80397447D01*
X117013687Y-80312375D01*
X117376263Y-80070110D01*
X117618528Y-79707534D01*
X117703600Y-79279847D01*
X117703600Y-78200153D01*
X118008400Y-78200153D01*
X118008400Y-79279847D01*
X118093472Y-79707534D01*
X118335737Y-80070110D01*
X118698313Y-80312375D01*
X119126000Y-80397447D01*
X119553687Y-80312375D01*
X119916263Y-80070110D01*
X120158528Y-79707534D01*
X120243600Y-79279847D01*
X120243600Y-78200153D01*
X120158528Y-77772466D01*
X119916263Y-77409890D01*
X119553687Y-77167625D01*
X119126000Y-77082553D01*
X118698313Y-77167625D01*
X118335737Y-77409890D01*
X118093472Y-77772466D01*
X118008400Y-78200153D01*
X117703600Y-78200153D01*
X117618528Y-77772466D01*
X117376263Y-77409890D01*
X117013687Y-77167625D01*
X116586000Y-77082553D01*
X116158313Y-77167625D01*
X115795737Y-77409890D01*
X115553472Y-77772466D01*
X115468400Y-78200153D01*
X115321620Y-78200153D01*
X115001425Y-77425223D01*
X114348216Y-76770873D01*
X113494320Y-76416304D01*
X112569736Y-76415497D01*
X111715223Y-76768575D01*
X111060873Y-77421784D01*
X110706304Y-78275680D01*
X110705497Y-79200264D01*
X93764100Y-79200264D01*
X93764100Y-75984100D01*
X123896538Y-75984100D01*
X122540869Y-77339769D01*
M02*
