M48
;DRILL file {KiCad 0.201508100901+6080~28~ubuntu14.04.1-product} date Tue 11 Aug 2015 03:56:33 PM EDT
;FORMAT={-:-/ absolute / inch / decimal}
FMAT,2
INCH,TZ
T1C0.025
T2C0.035
T3C0.038
T4C0.040
T5C0.043
T6C0.063
T7C0.090
T8C0.106
T9C0.124
T10C0.130
%
G90
G05
M72
T1
X4.8493Y-3.382
X4.8493Y-4.168
X4.95Y-3.9988
X4.95Y-4.2453
X4.95Y-4.482
X4.95Y-4.6252
X4.9522Y-4.168
X4.9995Y-3.7917
X5.0568Y-4.0385
X5.0584Y-3.7245
X5.15Y-4.0838
X5.15Y-4.532
X5.2098Y-4.3109
X5.2426Y-4.6095
X5.4066Y-3.5878
X5.4066Y-3.726
X5.7165Y-4.7854
X5.7346Y-3.382
X5.807Y-4.0275
X5.9733Y-3.8138
X5.9983Y-3.382
X5.9991Y-4.0615
X6.0023Y-3.5922
X6.0581Y-4.05
X6.0986Y-3.7245
X6.1085Y-3.4885
X6.1135Y-4.2912
X6.1991Y-4.4368
X6.2Y-4.0615
X6.2Y-4.1989
X6.2Y-4.7254
X6.209Y-3.8255
X6.2981Y-4.4463
X6.3Y-3.4307
X6.3Y-3.6895
X6.3016Y-4.244
X6.3033Y-4.8265
X6.3752Y-4.338
X6.5747Y-4.3626
X6.5979Y-3.6869
X6.5979Y-4.4652
X6.5985Y-4.1284
X6.6007Y-3.3427
X6.6055Y-3.9186
X6.6238Y-4.5036
X6.6291Y-3.3802
X6.6294Y-4.2586
X6.7171Y-3.7866
X6.7411Y-3.9773
X6.7629Y-3.8512
X6.7962Y-3.6196
X6.8404Y-4.5795
X6.8427Y-4.443
X6.8494Y-3.6493
X6.8639Y-3.5567
X6.8697Y-3.8221
X6.9023Y-3.2164
X6.9569Y-4.7392
X6.9594Y-4.6129
X6.9659Y-4.1284
X6.9722Y-4.5614
X7.0813Y-3.4885
X7.0882Y-3.1832
X7.2076Y-3.8512
X7.2563Y-4.725
X7.2806Y-3.9186
X7.3217Y-4.718
X7.3273Y-3.8815
X7.4254Y-3.875
X7.5393Y-5.0268
X7.6185Y-3.35
X8.075Y-4.45
X8.175Y-4.55
T2
X4.15Y-4.05
X4.25Y-3.95
X4.25Y-4.05
X4.25Y-4.15
T3
X7.075Y-4.375
X7.275Y-4.375
T4
X4.59Y-3.1
X4.69Y-3.1
X4.79Y-3.1
X4.89Y-3.1
X4.95Y-5.
X4.99Y-3.1
X5.05Y-5.
X5.09Y-3.1
X5.15Y-5.
X5.19Y-3.1
X5.25Y-5.
X5.29Y-3.1
X5.35Y-5.
X5.39Y-3.1
X5.45Y-5.
X5.49Y-3.1
X5.55Y-5.
X5.65Y-3.1
X5.65Y-5.
X5.75Y-3.1
X5.85Y-3.1
X5.85Y-5.
X5.95Y-3.1
X5.95Y-5.
X6.05Y-3.1
X6.05Y-5.
X6.15Y-3.1
X6.15Y-5.
X6.25Y-3.1
X6.25Y-5.
X6.35Y-3.1
X6.35Y-5.
X6.45Y-5.
X6.55Y-3.1
X6.55Y-5.
X6.65Y-3.1
X6.75Y-3.1
X6.75Y-5.
X6.85Y-3.1
X6.85Y-5.
X6.95Y-3.1
X6.95Y-5.
X7.05Y-3.1
X7.05Y-5.
X7.15Y-3.1
X7.15Y-5.
X7.25Y-3.1
X7.25Y-5.
X7.35Y-5.
X7.45Y-5.
X7.55Y-3.1
X7.55Y-3.2
X7.55Y-3.3
X7.55Y-3.4
X7.55Y-3.5
X7.55Y-3.6
X7.55Y-3.7
X7.55Y-3.8
X7.55Y-3.9
X7.55Y-4.
X7.55Y-4.1
X7.55Y-4.2
X7.55Y-4.3
X7.55Y-4.4
X7.55Y-4.5
X7.55Y-4.6
X7.55Y-4.7
X7.55Y-4.8
X7.65Y-3.1
X7.65Y-3.2
X7.65Y-3.3
X7.65Y-3.4
X7.65Y-3.5
X7.65Y-3.6
X7.65Y-3.7
X7.65Y-3.8
X7.65Y-3.9
X7.65Y-4.
X7.65Y-4.1
X7.65Y-4.2
X7.65Y-4.3
X7.65Y-4.4
X7.65Y-4.5
X7.65Y-4.6
X7.65Y-4.7
X7.65Y-4.8
T5
X4.Y-4.8
X4.1Y-4.8
X4.2Y-4.8
X7.25Y-3.425
X7.25Y-3.525
T6
X8.207Y-4.05
T7
X3.9Y-3.85
X3.9Y-4.25
X7.0805Y-4.05
X7.0805Y-4.235
X7.2695Y-4.05
X7.2695Y-4.235
T8
X8.089Y-4.05
X8.128Y-3.873
X8.128Y-4.227
T9
X7.853Y-4.05
T10
X4.4Y-5.
X4.45Y-3.1
X7.4Y-3.1
X7.65Y-5.
T0
M30
