M48
;DRILL file {KiCad 0.201505061231+5645~23~ubuntu14.04.1-product} date Fri 08 May 2015 03:53:03 PM EDT
;FORMAT={-:-/ absolute / inch / decimal}
FMAT,2
INCH,TZ
T1C0.025
T2C0.035
T3C0.038
T4C0.040
T5C0.043
T6C0.063
T7C0.090
T8C0.106
T9C0.124
T10C0.130
%
G90
G05
M72
T1
X4.7515Y-4.3086
X4.8219Y-3.2657
X4.8433Y-4.3755
X4.8493Y-4.6705
X4.8514Y-4.254
X4.8568Y-4.3102
X4.8577Y-4.8245
X4.9255Y-4.2916
X4.9744Y-4.3055
X5.0497Y-4.5271
X5.077Y-4.3357
X5.1494Y-4.482
X5.1632Y-4.3712
X5.437Y-4.5916
X5.4819Y-4.6283
X5.8819Y-3.5632
X5.8819Y-4.198
X6.Y-3.5341
X6.Y-3.618
X6.Y-3.8255
X6.0022Y-4.168
X6.0077Y-4.3398
X6.0519Y-3.8149
X6.0831Y-3.2646
X6.0899Y-4.932
X6.171Y-3.2654
X6.2Y-4.1012
X6.201Y-4.482
X6.2015Y-4.5387
X6.2291Y-3.7802
X6.2979Y-4.1079
X6.3Y-3.8499
X6.3756Y-4.0502
X6.398Y-4.434
X6.4Y-3.4861
X6.5022Y-3.5582
X6.5977Y-3.8874
X6.5987Y-3.8028
X6.5989Y-3.3463
X6.6425Y-4.555
X6.6497Y-3.7181
X6.6581Y-3.5839
X6.6733Y-3.85
X6.6847Y-3.3
X6.6865Y-3.969
X6.7392Y-4.4843
X6.7734Y-3.5703
X6.8313Y-3.6417
X6.8383Y-3.7541
X6.8626Y-3.423
X6.9661Y-3.6804
X6.9793Y-4.2196
X7.0021Y-3.4228
X7.0782Y-4.725
X7.1121Y-4.548
X7.1356Y-4.4082
X7.2217Y-4.5487
X7.2729Y-4.7269
X7.353Y-4.7842
X7.3547Y-4.0179
X7.4437Y-4.7276
X7.45Y-3.35
X8.2Y-4.5
T2
X4.15Y-4.05
X4.25Y-3.95
X4.25Y-4.05
X4.25Y-4.15
T3
X7.375Y-3.95
X7.375Y-4.15
T4
X4.59Y-3.1
X4.69Y-3.1
X4.79Y-3.1
X4.89Y-3.1
X4.95Y-5.
X4.99Y-3.1
X5.05Y-5.
X5.09Y-3.1
X5.15Y-5.
X5.19Y-3.1
X5.25Y-5.
X5.29Y-3.1
X5.35Y-5.
X5.39Y-3.1
X5.45Y-5.
X5.49Y-3.1
X5.55Y-5.
X5.65Y-3.1
X5.65Y-5.
X5.75Y-3.1
X5.85Y-3.1
X5.85Y-5.
X5.95Y-3.1
X5.95Y-5.
X6.05Y-3.1
X6.05Y-5.
X6.15Y-3.1
X6.15Y-5.
X6.25Y-3.1
X6.25Y-5.
X6.35Y-3.1
X6.35Y-5.
X6.45Y-5.
X6.55Y-3.1
X6.55Y-5.
X6.65Y-3.1
X6.75Y-3.1
X6.75Y-5.
X6.85Y-3.1
X6.85Y-5.
X6.95Y-3.1
X6.95Y-5.
X7.05Y-3.1
X7.05Y-5.
X7.15Y-3.1
X7.15Y-5.
X7.25Y-3.1
X7.25Y-5.
X7.35Y-5.
X7.45Y-5.
X7.55Y-3.1
X7.55Y-3.2
X7.55Y-3.3
X7.55Y-3.4
X7.55Y-3.5
X7.55Y-3.6
X7.55Y-3.7
X7.55Y-3.8
X7.55Y-3.9
X7.55Y-4.
X7.55Y-4.1
X7.55Y-4.2
X7.55Y-4.3
X7.55Y-4.4
X7.55Y-4.5
X7.55Y-4.6
X7.55Y-4.7
X7.55Y-4.8
X7.65Y-3.1
X7.65Y-3.2
X7.65Y-3.3
X7.65Y-3.4
X7.65Y-3.5
X7.65Y-3.6
X7.65Y-3.7
X7.65Y-3.8
X7.65Y-3.9
X7.65Y-4.
X7.65Y-4.1
X7.65Y-4.2
X7.65Y-4.3
X7.65Y-4.4
X7.65Y-4.5
X7.65Y-4.6
X7.65Y-4.7
X7.65Y-4.8
T5
X4.Y-4.8
X4.1Y-4.8
X4.2Y-4.8
X7.25Y-3.425
X7.25Y-3.525
T6
X8.207Y-4.05
T7
X3.9Y-3.85
X3.9Y-4.25
X7.15Y-4.05
X7.15Y-4.235
T8
X8.089Y-4.05
X8.128Y-3.873
X8.128Y-4.227
T9
X7.853Y-4.05
T10
X4.4Y-5.
X4.45Y-3.1
X7.4Y-3.1
X7.65Y-5.
T0
M30
